<svg xmlns="http://www.w3.org/2000/svg" xmlns:xlink="http://www.w3.org/1999/xlink" x="0" y="0" width="273.4545593261719" height="124.5227279663086" style="
        width:273.4545593261719px;
        height:124.5227279663086px;
        background: transparent;
        fill: none;
">
        <svg xmlns="http://www.w3.org/2000/svg"/>
        
        <svg xmlns="http://www.w3.org/2000/svg" class="role-diagram-draw-area"><g class="shapes-region" style="stroke: black; fill: none;"><g class="composite-shape axis2d" style="stroke-width: 1; stroke: rgb(0, 0, 0);"><path class="real" d=" M17.5,101.55 L234.41,101.55 M26.17,6.86 L26.17,106.5"/><path d=" M227.41,96.55 L234.41,101.55 L227.41,106.55"/><path d=" M21.17,13.86 L26.17,6.86 L31.17,13.86"/><path d=" M45.17,96.55 L45.17,106.55 M64.17,96.55 L64.17,106.55 M83.17,96.55 L83.17,106.55 M102.17,96.55 L102.17,106.55 M121.17,96.55 L121.17,106.55 M140.17,96.55 L140.17,106.55 M159.17,96.55 L159.17,106.55 M178.17,96.55 L178.17,106.55 M197.17,96.55 L197.17,106.55 M216.17,96.55 L216.17,106.55 M21.17,82.55 L31.17,82.55 M21.17,63.55 L31.17,63.55 M21.17,44.55 L31.17,44.55 M21.17,25.55 L31.17,25.55"/><g style="fill: rgb(0, 0, 0); fill-opacity: 1; font-size: 11px; font-weight: normal; text-anchor: end; stroke: none; font-family: Times;"/></g><g class="arrow-line"><path class="connection real" stroke-dasharray="" d="  M26.17,101.55 L121.06,44.67" style="stroke: rgb(153, 0, 0); stroke-opacity: 1; stroke-width: 1; fill: none; fill-opacity: 1;"/></g><g class="arrow-line"><path class="connection real" stroke-dasharray="" d="  M216.17,44.67 L121.06,44.67" style="stroke: rgb(153, 0, 0); stroke-opacity: 1; stroke-width: 1; fill: none; fill-opacity: 1;"/></g><g class="arrow-line"><path class="connection real" stroke-dasharray="" d="  M216.17,44.67 L216.17,98.65" style="stroke: rgb(153, 0, 0); stroke-opacity: 1; stroke-width: 1; fill: none; fill-opacity: 1;"/></g><g class="arrow-line"><path class="connection real" stroke-dasharray="3" d="  M121.06,44.67 L121.06,98.65" style="stroke: rgb(153, 0, 0); stroke-opacity: 1; stroke-width: 1; fill: none; fill-opacity: 1;"/></g><g/></g><g/><g/><g/></svg>
        <svg xmlns="http://www.w3.org/2000/svg" xmlns:xlink="http://www.w3.org/1999/xlink" width="272" height="123.06818389892578" style="width:272px;height:123.06818389892578px;font-family:Asana-Math, Asana;background:transparent;"><g><g><g><g transform="matrix(1,0,0,1,34.727294921875,20.227264404296875)"><path transform="matrix(0.017,0,0,-0.017,0,0)" d="M286 646L392 650C454 650 494 641 495 626L503 537L527 537C530 600 537 651 548 689C526 691 498 692 481 692L440 691L275 689L246 689C221 689 181 690 143 691L94 692L91 664L147 662C171 661 182 652 182 635C182 621 178 589 173 559L98 125C81 33 81 32 40 28L4 25L0 -3L34 -2C74 -1 106 0 127 0C145 0 174 -1 213 -2L265 -3L268 25L204 28C177 29 168 37 168 57C168 63 169 74 170 78L206 301L323 301C350 301 381 300 429 298L455 297L474 342L470 349C389 345 329 343 251 343L214 343L260 614C263 630 264 635 269 646Z" stroke="rgb(0,0,0)" stroke-opacity="1" stroke-width="8" fill="rgb(0,0,0)" fill-opacity="1"></path></g></g></g></g><g><g><g><g transform="matrix(1,0,0,1,237.227294921875,103.72726440429688)"><path transform="matrix(0.017,0,0,-0.017,0,0)" d="M125 390L69 107C68 99 56 61 56 31C56 6 67 -9 86 -9C121 -9 156 11 234 74L265 99L255 117L210 86C181 66 161 56 150 56C141 56 136 64 136 76C136 102 150 183 179 328L192 390L299 390L310 440C272 436 238 434 200 434C216 528 227 577 245 631L234 646C214 634 187 622 156 610L131 440C87 419 61 408 43 403L41 390Z" stroke="rgb(0,0,0)" stroke-opacity="1" stroke-width="8" fill="rgb(0,0,0)" fill-opacity="1"></path></g></g></g></g><g><g><g><g transform="matrix(1,0,0,1,245.227294921875,100.522705078125)"><path transform="matrix(0.0085,0,0,-0.0085,0,0)" d="M146 266C146 526 243 632 301 700L282 726C225 675 60 542 60 266C60 159 85 58 133 -32C168 -99 200 -138 282 -215L301 -194C255 -137 146 -15 146 266Z" stroke="rgb(0,0,0)" stroke-opacity="1" stroke-width="8" fill="rgb(0,0,0)" fill-opacity="1"></path></g></g><g><g transform="matrix(1,0,0,1,248.05682373046875,100.522705078125)"><path transform="matrix(0.0085,0,0,-0.0085,0,0)" d="M730 103L704 86C675 67 653 56 643 56C636 56 630 65 630 76C630 86 632 95 637 116L712 413C716 430 719 446 719 454C719 471 709 482 693 482C664 482 626 464 565 421C502 376 467 341 418 272L448 409C452 429 455 444 455 451C455 470 445 482 429 482C399 482 353 460 298 418C254 384 234 363 169 275L202 408C206 424 208 439 208 451C208 470 199 482 185 482C164 482 126 461 52 408L24 388L31 368C68 391 103 414 110 414C121 414 128 404 128 389C128 338 87 145 46 2L49 -9L117 6L139 108C163 219 190 278 245 338C287 384 332 414 360 414C367 414 371 406 371 393C371 358 349 244 308 69L292 2L297 -9L366 6L387 113C403 194 437 269 481 318C536 379 586 414 618 414C626 414 631 405 631 389C631 365 628 351 606 264C566 105 550 84 550 31C550 6 561 -9 580 -9C606 -9 642 12 740 85ZM808 148C803 97 797 62 786 16C824 -2 858 -11 893 -11C942 -11 988 7 1039 47C1090 87 1111 124 1111 174C1111 228 1079 257 1005 271L962 279C902 290 883 307 883 348C883 401 928 442 985 442C1026 442 1064 424 1080 397L1080 342L1103 342C1107 377 1111 404 1122 455C1083 474 1055 482 1022 482C970 482 909 452 861 404C835 377 824 352 824 316C824 260 855 228 921 215L984 203C1028 195 1044 177 1044 138C1044 73 998 29 927 29C892 29 861 40 833 64L833 148Z" stroke="rgb(0,0,0)" stroke-opacity="1" stroke-width="8" fill="rgb(0,0,0)" fill-opacity="1"></path></g></g><g><g transform="matrix(1,0,0,1,257.95458984375,100.522705078125)"><path transform="matrix(0.0085,0,0,-0.0085,0,0)" d="M51 726L32 700C87 636 187 526 187 266C187 -10 83 -131 32 -194L51 -215C104 -165 273 -23 273 265C273 542 108 675 51 726Z" stroke="rgb(0,0,0)" stroke-opacity="1" stroke-width="8" fill="rgb(0,0,0)" fill-opacity="1"></path></g></g></g></g><g><g><g><g transform="matrix(1,0,0,1,47.227294921875,16.022735595703125)"><path transform="matrix(0.0085,0,0,-0.0085,0,0)" d="M146 266C146 526 243 632 301 700L282 726C225 675 60 542 60 266C60 159 85 58 133 -32C168 -99 200 -138 282 -215L301 -194C255 -137 146 -15 146 266Z" stroke="rgb(0,0,0)" stroke-opacity="1" stroke-width="8" fill="rgb(0,0,0)" fill-opacity="1"></path></g></g><g><g transform="matrix(1,0,0,1,50.05682373046875,16.022735595703125)"><path transform="matrix(0.0085,0,0,-0.0085,0,0)" d="M582 103L237 692L75 692L70 664L105 662C150 660 184 615 185 606L92 102C80 40 74 32 38 28L7 25L2 -3L113 0C125 0 126 0 223 -3L228 25L186 28C146 31 137 39 137 72C137 80 138 91 140 102L220 566L558 -11L608 -11L702 542C723 655 725 659 762 662L799 664L802 691L589 692L584 664L631 662C657 661 667 654 667 638C667 631 584 116 582 103Z" stroke="rgb(0,0,0)" stroke-opacity="1" stroke-width="8" fill="rgb(0,0,0)" fill-opacity="1"></path></g></g><g><g transform="matrix(1,0,0,1,56.65911865234375,16.022735595703125)"><path transform="matrix(0.0085,0,0,-0.0085,0,0)" d="M51 726L32 700C87 636 187 526 187 266C187 -10 83 -131 32 -194L51 -215C104 -165 273 -23 273 265C273 542 108 675 51 726Z" stroke="rgb(0,0,0)" stroke-opacity="1" stroke-width="8" fill="rgb(0,0,0)" fill-opacity="1"></path></g></g></g></g><g><g></g><g><g><g transform="matrix(1,0,0,1,24.2159423828125,115.69317626953125)"><path transform="matrix(0.0105,0,0,-0.0105,0,0)" d="M39 320C39 245 43 155 84 79C127 -2 200 -22 249 -22C303 -22 379 -1 423 94C455 163 460 241 460 320C460 400 455 480 420 554C374 650 292 666 250 666C190 666 117 640 76 547C44 478 39 400 39 320ZM122 332C122 396 122 462 130 516C149 635 224 644 249 644C282 644 348 626 367 527C377 471 377 395 377 332C377 257 377 189 366 125C351 30 294 0 249 0C210 0 151 25 133 121C122 181 122 273 122 332Z" stroke="rgb(0,0,0)" stroke-opacity="1" stroke-width="8" fill="rgb(0,0,0)" fill-opacity="1"></path></g></g></g></g><g><g></g><g><g><g transform="matrix(1,0,0,1,115.90911865234375,115.7386474609375)"><path transform="matrix(0.0105,0,0,-0.0105,0,0)" d="M50 161C50 75 119 -22 231 -22C347 -22 449 74 449 201C449 320 367 420 259 420C211 420 168 404 132 369L132 564C152 558 185 551 217 551C340 551 410 642 410 655C410 661 407 666 400 666C399 666 397 666 392 663C372 654 323 634 256 634C216 634 170 641 123 662C115 665 113 665 111 665C101 665 101 657 101 641L101 345C101 327 101 319 115 319C122 319 124 322 128 328C139 344 176 398 257 398C309 398 334 352 342 334C358 297 360 258 360 208C360 173 360 113 336 71C312 32 275 6 229 6C156 6 99 59 82 118C85 117 88 116 99 116C132 116 149 141 149 165C149 189 132 214 99 214C85 214 50 207 50 161ZM539 320C539 245 543 155 584 79C627 -2 700 -22 749 -22C803 -22 879 -1 923 94C955 163 960 241 960 320C960 400 955 480 920 554C874 650 792 666 750 666C690 666 617 640 576 547C544 478 539 400 539 320ZM622 332C622 396 622 462 630 516C649 635 724 644 749 644C782 644 848 626 867 527C877 471 877 395 877 332C877 257 877 189 866 125C851 30 794 0 749 0C710 0 651 25 633 121C622 181 622 273 622 332Z" stroke="rgb(0,0,0)" stroke-opacity="1" stroke-width="8" fill="rgb(0,0,0)" fill-opacity="1"></path></g></g></g></g><g><g></g><g><g><g transform="matrix(1,0,0,1,208.6136474609375,115.69317626953125)"><path transform="matrix(0.0105,0,0,-0.0105,0,0)" d="M89 571C109 571 168 571 220 597L220 79C220 43 217 31 127 31L95 31L95 0C130 3 217 3 257 3C297 3 384 3 419 0L419 31L387 31C297 31 294 42 294 79L294 640C294 664 294 666 271 666C209 602 121 602 89 602ZM539 320C539 245 543 155 584 79C627 -2 700 -22 749 -22C803 -22 879 -1 923 94C955 163 960 241 960 320C960 400 955 480 920 554C874 650 792 666 750 666C690 666 617 640 576 547C544 478 539 400 539 320ZM622 332C622 396 622 462 630 516C649 635 724 644 749 644C782 644 848 626 867 527C877 471 877 395 877 332C877 257 877 189 866 125C851 30 794 0 749 0C710 0 651 25 633 121C622 181 622 273 622 332ZM1039 320C1039 245 1043 155 1084 79C1127 -2 1200 -22 1249 -22C1303 -22 1379 -1 1423 94C1455 163 1460 241 1460 320C1460 400 1455 480 1420 554C1374 650 1292 666 1250 666C1190 666 1117 640 1076 547C1044 478 1039 400 1039 320ZM1122 332C1122 396 1122 462 1130 516C1149 635 1224 644 1249 644C1282 644 1348 626 1367 527C1377 471 1377 395 1377 332C1377 257 1377 189 1366 125C1351 30 1294 0 1249 0C1210 0 1151 25 1133 121C1122 181 1122 273 1122 332Z" stroke="rgb(0,0,0)" stroke-opacity="1" stroke-width="8" fill="rgb(0,0,0)" fill-opacity="1"></path></g></g></g></g><g><g></g><g></g></g><g><g><g><g transform="matrix(1,0,0,1,7.414794921875,48.647735595703125)"><path transform="matrix(0.0105,0,0,-0.0105,0,0)" d="M42 135C42 44 135 -22 244 -22C366 -22 457 69 457 171C457 253 394 331 290 352C372 379 430 449 430 528C430 610 342 666 246 666C145 666 69 606 69 530C69 497 91 478 120 478C151 478 171 500 171 529C171 579 124 579 109 579C140 628 206 641 242 641C283 641 338 619 338 529C338 517 336 459 310 415C280 367 246 364 221 363C213 362 189 360 182 360C174 359 167 358 167 348C167 337 174 337 191 337L235 337C317 337 354 269 354 171C354 35 285 6 241 6C198 6 123 23 88 82C123 77 154 99 154 137C154 173 127 193 98 193C74 193 42 179 42 135ZM539 320C539 245 543 155 584 79C627 -2 700 -22 749 -22C803 -22 879 -1 923 94C955 163 960 241 960 320C960 400 955 480 920 554C874 650 792 666 750 666C690 666 617 640 576 547C544 478 539 400 539 320ZM622 332C622 396 622 462 630 516C649 635 724 644 749 644C782 644 848 626 867 527C877 471 877 395 877 332C877 257 877 189 866 125C851 30 794 0 749 0C710 0 651 25 633 121C622 181 622 273 622 332Z" stroke="rgb(0,0,0)" stroke-opacity="1" stroke-width="8" fill="rgb(0,0,0)" fill-opacity="1"></path></g></g></g></g></svg>
</svg>
