<svg xmlns="http://www.w3.org/2000/svg" xmlns:xlink="http://www.w3.org/1999/xlink" x="0" y="0" width="257.4545593261719" height="216.7954559326172" style="
        width:257.4545593261719px;
        height:216.7954559326172px;
        background: #FFF;
        fill: none;
">
        <svg xmlns="http://www.w3.org/2000/svg"/>
        
        <svg xmlns="http://www.w3.org/2000/svg" class="role-diagram-draw-area"><g class="shapes-region" style="stroke: black; fill: none;"><g class="composite-shape"><path class="real" d=" M166.83,137.52 L181.68,177.52 L21.59,177.52 L36.44,137.52 L52.62,47.13 L63.84,47.13 L71.31,88.9 L125.63,88.9 L143.68,137.52 L166.83,137.52 Z" style="stroke-width: 1; stroke: rgb(153, 0, 0); stroke-opacity: 1; fill: none; fill-opacity: 1;"/></g><g class="composite-shape axis2d" style="stroke-width: 1; stroke: rgb(0, 0, 0);"><path class="real" d=" M6,177.52 L212.09,177.52 M16.09,8.52 L16.09,186"/><path d=" M205.09,172.52 L212.09,177.52 L205.09,182.52"/><path d=" M11.09,15.52 L16.09,8.52 L21.09,15.52"/></g><g class="composite-shape"><path class="real" d=" M21.5,181.39 Q21.5,188.39 28.5,188.39 L91.43,188.39 Q101.43,188.39 101.43,195.39 Q101.43,188.39 111.43,188.39 M108.43,188.39 L174.36,188.39 Q181.36,188.39 181.36,181.39" style="stroke-width: 1; stroke: rgb(0, 0, 0); fill: none; fill-opacity: 1;"/></g><g class="arrow-line"><path class="connection real" stroke-dasharray="3" d="  M16.36,122.64 L212.36,122.64" style="stroke: rgb(153, 0, 0); stroke-opacity: 1; stroke-width: 1; fill: none; fill-opacity: 1;"/></g><g/></g><g/><g/><g/></svg>
        <svg xmlns="http://www.w3.org/2000/svg" xmlns:xlink="http://www.w3.org/1999/xlink" width="256" height="215.34091186523438" style="width:256px;height:215.34091186523438px;font-family:Asana-Math, Asana;background:#FFF;"><g><g><g><g transform="matrix(1,0,0,1,22.227294921875,22.227294921875)"><path transform="matrix(0.017,0,0,-0.017,0,0)" d="M286 646L392 650C454 650 494 641 495 626L503 537L527 537C530 600 537 651 548 689C526 691 498 692 481 692L440 691L275 689L246 689C221 689 181 690 143 691L94 692L91 664L147 662C171 661 182 652 182 635C182 621 178 589 173 559L98 125C81 33 81 32 40 28L4 25L0 -3L34 -2C74 -1 106 0 127 0C145 0 174 -1 213 -2L265 -3L268 25L204 28C177 29 168 37 168 57C168 63 169 74 170 78L206 301L323 301C350 301 381 300 429 298L455 297L474 342L470 349C389 345 329 343 251 343L214 343L260 614C263 630 264 635 269 646Z" stroke="rgb(0,0,0)" stroke-opacity="1" stroke-width="8" fill="rgb(0,0,0)" fill-opacity="1"></path></g></g></g></g><g><g><g><g transform="matrix(1,0,0,1,214.227294921875,183.227294921875)"><path transform="matrix(0.017,0,0,-0.017,0,0)" d="M125 390L69 107C68 99 56 61 56 31C56 6 67 -9 86 -9C121 -9 156 11 234 74L265 99L255 117L210 86C181 66 161 56 150 56C141 56 136 64 136 76C136 102 150 183 179 328L192 390L299 390L310 440C272 436 238 434 200 434C216 528 227 577 245 631L234 646C214 634 187 622 156 610L131 440C87 419 61 408 43 403L41 390Z" stroke="rgb(0,0,0)" stroke-opacity="1" stroke-width="8" fill="rgb(0,0,0)" fill-opacity="1"></path></g></g></g></g><g><g><g><g transform="matrix(1,0,0,1,92.227294921875,210.65908813476562)"><path transform="matrix(0.017,0,0,-0.017,0,0)" d="M662 6L655 -4C549 0 443 0 336 0C235 0 134 -1 33 -4L27 6C88 116 136 238 186 354C235 466 288 580 327 697L352 697C395 590 597 128 662 6ZM584 37C518 215 447 389 371 564L364 564C289 391 217 215 152 37Z" stroke="rgb(0,0,0)" stroke-opacity="1" stroke-width="8" fill="rgb(0,0,0)" fill-opacity="1"></path></g></g><g><g transform="matrix(1,0,0,1,103.93182373046875,210.65908813476562)"><path transform="matrix(0.017,0,0,-0.017,0,0)" d="M125 390L69 107C68 99 56 61 56 31C56 6 67 -9 86 -9C121 -9 156 11 234 74L265 99L255 117L210 86C181 66 161 56 150 56C141 56 136 64 136 76C136 102 150 183 179 328L192 390L299 390L310 440C272 436 238 434 200 434C216 528 227 577 245 631L234 646C214 634 187 622 156 610L131 440C87 419 61 408 43 403L41 390Z" stroke="rgb(0,0,0)" stroke-opacity="1" stroke-width="8" fill="rgb(0,0,0)" fill-opacity="1"></path></g></g></g></g><g><g><g><g transform="matrix(1,0,0,1,213.727294921875,127.727294921875)"><path transform="matrix(0.017,0,0,-0.017,0,0)" d="M286 646L392 650C454 650 494 641 495 626L503 537L527 537C530 600 537 651 548 689C526 691 498 692 481 692L440 691L275 689L246 689C221 689 181 690 143 691L94 692L91 664L147 662C171 661 182 652 182 635C182 621 178 589 173 559L98 125C81 33 81 32 40 28L4 25L0 -3L34 -2C74 -1 106 0 127 0C145 0 174 -1 213 -2L265 -3L268 25L204 28C177 29 168 37 168 57C168 63 169 74 170 78L206 301L323 301C350 301 381 300 429 298L455 297L474 342L470 349C389 345 329 343 251 343L214 343L260 614C263 630 264 635 269 646Z" stroke="rgb(153,0,0)" stroke-opacity="1" stroke-width="8" fill="rgb(153,0,0)" fill-opacity="1"></path></g></g><g><g><g><g><g transform="matrix(1,0,0,1,223.67047119140625,130.72955932617188)"><path transform="matrix(0.0119,0,0,-0.0119,0,0)" d="M271 204L242 77C238 60 236 42 236 26C236 4 245 -9 260 -9C283 -9 324 17 406 85L399 106C375 86 346 59 324 59C315 59 309 68 309 82C309 87 309 90 310 93L402 472L392 481L359 463C318 478 301 482 274 482C246 482 226 477 199 464C137 433 104 403 79 354C35 265 4 145 4 67C4 23 19 -11 38 -11C75 -11 155 41 271 204ZM319 414C297 305 278 253 244 201C187 117 126 59 94 59C82 59 76 72 76 99C76 163 104 280 139 360C163 415 186 433 234 433C257 433 275 429 319 414ZM609 420C630 420 646 421 672 424C561 304 519 221 519 121C519 44 565 -11 629 -11C767 -11 920 236 920 384C920 441 894 482 858 482C845 482 833 478 825 470L775 423L786 404C795 410 804 413 813 413C840 413 856 390 856 350C856 202 759 39 671 39C622 39 591 81 591 146C591 251 630 342 728 464L718 482C698 473 685 470 657 470C629 470 587 472 558 475L546 476C540 477 535 477 534 477C522 477 513 475 502 470C488 443 477 407 464 352L486 352L503 394C510 411 530 422 554 422C587 422 571 420 609 420ZM1270 111L1246 94C1193 56 1145 36 1109 36C1062 36 1033 73 1033 133C1033 158 1036 185 1041 214C1058 218 1167 248 1192 259C1277 296 1316 342 1316 404C1316 451 1282 482 1232 482C1164 496 1054 423 1017 349C987 299 957 180 957 113C957 35 1001 -11 1073 -11C1130 -11 1186 17 1278 92ZM1055 274C1072 343 1092 386 1121 412C1139 428 1170 440 1194 440C1223 440 1242 420 1242 388C1242 344 1207 297 1155 272C1127 258 1091 247 1046 237Z" stroke="rgb(153,0,0)" stroke-opacity="1" stroke-width="8" fill="rgb(153,0,0)" fill-opacity="1"></path></g></g></g></g></g></g></g></svg>
</svg>
