<svg xmlns="http://www.w3.org/2000/svg" xmlns:xlink="http://www.w3.org/1999/xlink" x="0" y="0" width="292.4545593261719" height="218.35227966308594" style="
        width:292.4545593261719px;
        height:218.35227966308594px;
        background: #FFF;
        fill: none;
">
        <svg xmlns="http://www.w3.org/2000/svg"/>
        
        <svg xmlns="http://www.w3.org/2000/svg" class="role-diagram-draw-area"><g class="shapes-region" style="stroke: black; fill: none;"><g class="composite-shape axis2d" style="stroke-width: 1; stroke: rgb(0, 0, 0);"><path class="real" d=" M6,177.52 L212.09,177.52 M16.09,8.52 L16.09,186"/><path d=" M205.09,172.52 L212.09,177.52 L205.09,182.52"/><path d=" M11.09,15.52 L16.09,8.52 L21.09,15.52"/></g><g class="composite-shape" data-amt="diagram/shapes/plot" transform="matrix(1,0,0,1,20.000000000000014,55.53333333333332)"><g><g/><g><g class="test-plot-expression"><defs><clipPath id="cpztr0c1z5n"><rect x="1" y="1" width="161.99999999999994" height="120.5000000000001"/></clipPath></defs><g clip-path="url(#cpztr0c1z5n)"><g><path d=" M0.00,157.03 L0.00,131.45 L0.50,127.56 L1.00,123.79 L1.50,120.14 L2.01,116.61 L2.51,113.19 L3.01,109.88 L3.51,106.69 L4.01,103.61 L4.51,100.63 L5.02,97.76 L5.52,94.99 L6.02,92.33 L6.52,89.77 L7.02,87.30 L7.52,84.94 L8.02,82.67 L8.53,80.49 L9.03,78.40 L9.53,76.41 L10.03,74.50 L10.53,72.69 L11.03,70.95 L11.54,69.31 L12.04,67.74 L12.54,66.25 L13.04,64.85 L13.54,63.52 L14.04,62.27 L14.54,61.09 L15.05,59.98 L15.55,58.95 L16.05,57.98 L16.55,57.09 L17.05,56.26 L17.55,55.49 L18.06,54.79 L18.56,54.16 L19.06,53.58 L19.56,53.06 L20.06,52.60 L20.56,52.20 L21.06,51.85 L21.57,51.56 L22.07,51.32 L22.57,51.13 L23.07,50.99 L23.57,50.90 L24.07,50.85 L24.57,50.85 L25.08,50.90 L25.58,50.99 L26.08,51.12 L26.58,51.29 L27.08,51.50 L27.58,51.75 L28.09,52.03 L28.59,52.35 L29.09,52.71 L29.59,53.10 L30.09,53.52 L30.59,53.97 L31.09,54.45 L31.60,54.96 L32.10,55.50 L32.60,56.07 L33.10,56.66 L33.60,57.27 L34.10,57.91 L34.61,58.56 L35.11,59.24 L35.61,59.94 L36.11,60.66 L36.61,61.40 L37.11,62.15 L37.61,62.92 L38.12,63.70 L38.62,64.50 L39.12,65.31 L39.62,66.13 L40.12,66.97 L40.62,67.81 L41.13,68.66 L41.63,69.52 L42.13,70.39 L42.63,71.26 L43.13,72.14 L43.63,73.03 L44.13,73.92 L44.64,74.81 L45.14,75.70 L45.64,76.60 L46.14,77.49 L46.64,78.39 L47.14,79.28 L47.65,80.18 L48.15,81.07 L48.65,81.96 L49.15,82.84 L49.65,83.72 L50.15,84.59 L50.65,85.46 L51.16,86.32 L51.66,87.18 L52.16,88.02 L52.66,88.86 L53.16,89.69 L53.66,90.51 L54.17,91.31 L54.67,92.11 L55.17,92.90 L55.67,93.67 L56.17,94.43 L56.67,95.18 L57.17,95.91 L57.68,96.63 L58.18,97.33 L58.68,98.02 L59.18,98.69 L59.68,99.35 L60.18,99.99 L60.69,100.62 L61.19,101.22 L61.69,101.81 L62.19,102.38 L62.69,102.93 L63.19,103.46 L63.69,103.97 L64.20,104.46 L64.70,104.93 L65.20,105.38 L65.70,105.81 L66.20,106.22 L66.70,106.61 L67.20,106.97 L67.71,107.32 L68.21,107.64 L68.71,107.94 L69.21,108.21 L69.71,108.47 L70.21,108.69 L70.72,108.90 L71.22,109.08 L71.72,109.24 L72.22,109.38 L72.72,109.49 L73.22,109.57 L73.72,109.63 L74.23,109.67 L74.73,109.68 L75.23,109.67 L75.73,109.63 L76.23,109.57 L76.73,109.48 L77.24,109.37 L77.74,109.23 L78.24,109.07 L78.74,108.88 L79.24,108.67 L79.74,108.43 L80.24,108.17 L80.75,107.89 L81.25,107.57 L81.75,107.24 L82.25,106.88 L82.75,106.49 L83.25,106.08 L83.76,105.64 L84.26,105.18 L84.76,104.70 L85.26,104.19 L85.76,103.66 L86.26,103.11 L86.76,102.53 L87.27,101.93 L87.77,101.30 L88.27,100.65 L88.77,99.98 L89.27,99.29 L89.77,98.57 L90.28,97.84 L90.78,97.08 L91.28,96.30 L91.78,95.50 L92.28,94.68 L92.78,93.84 L93.28,92.98 L93.79,92.09 L94.29,91.19 L94.79,90.28 L95.29,89.34 L95.79,88.38 L96.29,87.41 L96.80,86.42 L97.30,85.41 L97.80,84.39 L98.30,83.35 L98.80,82.29 L99.30,81.22 L99.80,80.14 L100.31,79.04 L100.81,77.93 L101.31,76.81 L101.81,75.67 L102.31,74.52 L102.81,73.36 L103.31,72.20 L103.82,71.02 L104.32,69.83 L104.82,68.63 L105.32,67.42 L105.82,66.21 L106.32,64.99 L106.83,63.77 L107.33,62.54 L107.83,61.30 L108.33,60.06 L108.83,58.82 L109.33,57.57 L109.83,56.33 L110.34,55.08 L110.84,53.83 L111.34,52.58 L111.84,51.34 L112.34,50.09 L112.84,48.85 L113.35,47.61 L113.85,46.38 L114.35,45.15 L114.85,43.93 L115.35,42.72 L115.85,41.51 L116.35,40.31 L116.86,39.13 L117.36,37.95 L117.86,36.79 L118.36,35.64 L118.86,34.50 L119.36,33.38 L119.87,32.27 L120.37,31.18 L120.87,30.10 L121.37,29.05 L121.87,28.02 L122.37,27.00 L122.87,26.01 L123.38,25.04 L123.88,24.10 L124.38,23.18 L124.88,22.28 L125.38,21.42 L125.88,20.58 L126.39,19.77 L126.89,18.99 L127.39,18.25 L127.89,17.54 L128.39,16.86 L128.89,16.22 L129.39,15.61 L129.90,15.04 L130.40,14.51 L130.90,14.03 L131.40,13.58 L131.90,13.18 L132.40,12.82 L132.91,12.50 L133.41,12.24 L133.91,12.02 L134.41,11.85 L134.91,11.73 L135.41,11.67 L135.91,11.66 L136.42,11.70 L136.92,11.80 L137.42,11.96 L137.92,12.17 L138.42,12.45 L138.92,12.79 L139.43,13.19 L139.93,13.66 L140.43,14.20 L140.93,14.80 L141.43,15.48 L141.93,16.22 L142.43,17.04 L142.94,17.93 L143.44,18.89 L143.94,19.94 L144.44,21.06 L144.94,22.26 L145.44,23.55 L145.94,24.92 L146.45,26.37 L146.95,27.92 L147.45,29.55 L147.95,31.27 L148.45,33.08 L148.95,34.99 L149.46,36.99 L149.96,39.09 L150.46,41.29 L150.96,43.58 L151.46,45.98 L151.96,48.49 L152.46,51.10 L152.97,53.82 L153.47,56.65 L153.97,59.59 L154.47,62.64 L154.97,65.80 L155.47,69.09 L155.98,72.49 L156.48,76.01 L156.98,79.66 L157.48,83.43 L157.98,87.33 L158.48,91.35 L158.98,95.50 L159.49,99.79 L159.99,104.21 L160.49,108.77 L160.99,113.46 L161.49,118.29 L161.99,123.27 L162.50,128.39 L163.00,133.66 L163.50,139.07 L164.00,144.63 L164.00,157.03 Z" style="fill: rgb(153, 0, 0); fill-opacity: 0.5; stroke: none;"/><path d=" M0.00,131.45 L0.50,127.56 L1.00,123.79 L1.50,120.14 L2.01,116.61 L2.51,113.19 L3.01,109.88 L3.51,106.69 L4.01,103.61 L4.51,100.63 L5.02,97.76 L5.52,94.99 L6.02,92.33 L6.52,89.77 L7.02,87.30 L7.52,84.94 L8.02,82.67 L8.53,80.49 L9.03,78.40 L9.53,76.41 L10.03,74.50 L10.53,72.69 L11.03,70.95 L11.54,69.31 L12.04,67.74 L12.54,66.25 L13.04,64.85 L13.54,63.52 L14.04,62.27 L14.54,61.09 L15.05,59.98 L15.55,58.95 L16.05,57.98 L16.55,57.09 L17.05,56.26 L17.55,55.49 L18.06,54.79 L18.56,54.16 L19.06,53.58 L19.56,53.06 L20.06,52.60 L20.56,52.20 L21.06,51.85 L21.57,51.56 L22.07,51.32 L22.57,51.13 L23.07,50.99 L23.57,50.90 L24.07,50.85 L24.57,50.85 L25.08,50.90 L25.58,50.99 L26.08,51.12 L26.58,51.29 L27.08,51.50 L27.58,51.75 L28.09,52.03 L28.59,52.35 L29.09,52.71 L29.59,53.10 L30.09,53.52 L30.59,53.97 L31.09,54.45 L31.60,54.96 L32.10,55.50 L32.60,56.07 L33.10,56.66 L33.60,57.27 L34.10,57.91 L34.61,58.56 L35.11,59.24 L35.61,59.94 L36.11,60.66 L36.61,61.40 L37.11,62.15 L37.61,62.92 L38.12,63.70 L38.62,64.50 L39.12,65.31 L39.62,66.13 L40.12,66.97 L40.62,67.81 L41.13,68.66 L41.63,69.52 L42.13,70.39 L42.63,71.26 L43.13,72.14 L43.63,73.03 L44.13,73.92 L44.64,74.81 L45.14,75.70 L45.64,76.60 L46.14,77.49 L46.64,78.39 L47.14,79.28 L47.65,80.18 L48.15,81.07 L48.65,81.96 L49.15,82.84 L49.65,83.72 L50.15,84.59 L50.65,85.46 L51.16,86.32 L51.66,87.18 L52.16,88.02 L52.66,88.86 L53.16,89.69 L53.66,90.51 L54.17,91.31 L54.67,92.11 L55.17,92.90 L55.67,93.67 L56.17,94.43 L56.67,95.18 L57.17,95.91 L57.68,96.63 L58.18,97.33 L58.68,98.02 L59.18,98.69 L59.68,99.35 L60.18,99.99 L60.69,100.62 L61.19,101.22 L61.69,101.81 L62.19,102.38 L62.69,102.93 L63.19,103.46 L63.69,103.97 L64.20,104.46 L64.70,104.93 L65.20,105.38 L65.70,105.81 L66.20,106.22 L66.70,106.61 L67.20,106.97 L67.71,107.32 L68.21,107.64 L68.71,107.94 L69.21,108.21 L69.71,108.47 L70.21,108.69 L70.72,108.90 L71.22,109.08 L71.72,109.24 L72.22,109.38 L72.72,109.49 L73.22,109.57 L73.72,109.63 L74.23,109.67 L74.73,109.68 L75.23,109.67 L75.73,109.63 L76.23,109.57 L76.73,109.48 L77.24,109.37 L77.74,109.23 L78.24,109.07 L78.74,108.88 L79.24,108.67 L79.74,108.43 L80.24,108.17 L80.75,107.89 L81.25,107.57 L81.75,107.24 L82.25,106.88 L82.75,106.49 L83.25,106.08 L83.76,105.64 L84.26,105.18 L84.76,104.70 L85.26,104.19 L85.76,103.66 L86.26,103.11 L86.76,102.53 L87.27,101.93 L87.77,101.30 L88.27,100.65 L88.77,99.98 L89.27,99.29 L89.77,98.57 L90.28,97.84 L90.78,97.08 L91.28,96.30 L91.78,95.50 L92.28,94.68 L92.78,93.84 L93.28,92.98 L93.79,92.09 L94.29,91.19 L94.79,90.28 L95.29,89.34 L95.79,88.38 L96.29,87.41 L96.80,86.42 L97.30,85.41 L97.80,84.39 L98.30,83.35 L98.80,82.29 L99.30,81.22 L99.80,80.14 L100.31,79.04 L100.81,77.93 L101.31,76.81 L101.81,75.67 L102.31,74.52 L102.81,73.36 L103.31,72.20 L103.82,71.02 L104.32,69.83 L104.82,68.63 L105.32,67.42 L105.82,66.21 L106.32,64.99 L106.83,63.77 L107.33,62.54 L107.83,61.30 L108.33,60.06 L108.83,58.82 L109.33,57.57 L109.83,56.33 L110.34,55.08 L110.84,53.83 L111.34,52.58 L111.84,51.34 L112.34,50.09 L112.84,48.85 L113.35,47.61 L113.85,46.38 L114.35,45.15 L114.85,43.93 L115.35,42.72 L115.85,41.51 L116.35,40.31 L116.86,39.13 L117.36,37.95 L117.86,36.79 L118.36,35.64 L118.86,34.50 L119.36,33.38 L119.87,32.27 L120.37,31.18 L120.87,30.10 L121.37,29.05 L121.87,28.02 L122.37,27.00 L122.87,26.01 L123.38,25.04 L123.88,24.10 L124.38,23.18 L124.88,22.28 L125.38,21.42 L125.88,20.58 L126.39,19.77 L126.89,18.99 L127.39,18.25 L127.89,17.54 L128.39,16.86 L128.89,16.22 L129.39,15.61 L129.90,15.04 L130.40,14.51 L130.90,14.03 L131.40,13.58 L131.90,13.18 L132.40,12.82 L132.91,12.50 L133.41,12.24 L133.91,12.02 L134.41,11.85 L134.91,11.73 L135.41,11.67 L135.91,11.66 L136.42,11.70 L136.92,11.80 L137.42,11.96 L137.92,12.17 L138.42,12.45 L138.92,12.79 L139.43,13.19 L139.93,13.66 L140.43,14.20 L140.93,14.80 L141.43,15.48 L141.93,16.22 L142.43,17.04 L142.94,17.93 L143.44,18.89 L143.94,19.94 L144.44,21.06 L144.94,22.26 L145.44,23.55 L145.94,24.92 L146.45,26.37 L146.95,27.92 L147.45,29.55 L147.95,31.27 L148.45,33.08 L148.95,34.99 L149.46,36.99 L149.96,39.09 L150.46,41.29 L150.96,43.58 L151.46,45.98 L151.96,48.49 L152.46,51.10 L152.97,53.82 L153.47,56.65 L153.97,59.59 L154.47,62.64 L154.97,65.80 L155.47,69.09 L155.98,72.49 L156.48,76.01 L156.98,79.66 L157.48,83.43 L157.98,87.33 L158.48,91.35 L158.98,95.50 L159.49,99.79 L159.99,104.21 L160.49,108.77 L160.99,113.46 L161.49,118.29 L161.99,123.27 L162.50,128.39 L163.00,133.66 L163.50,139.07 L164.00,144.63" style="stroke-width: 1; stroke: rgb(153, 0, 0); stroke-opacity: 1; fill: none; fill-opacity: 0.5;"/></g></g></g><rect class="real" x="1" y="1" width="161.99999999999994" height="120.5000000000001" style="fill: transparent; stroke: none;"/></g></g></g><g class="arrow-line"><path class="connection real" stroke-dasharray="" d="  M21.6,177.33 L21.6,186.05" style="stroke: rgb(3, 3, 3); stroke-opacity: 1; stroke-width: 1; fill: none; fill-opacity: 1;"/></g><g class="arrow-line"><path class="connection real" stroke-dasharray="" d="  M181.6,177.33 L181.6,186.1" style="stroke: rgb(0, 0, 0); stroke-opacity: 1; stroke-width: 1; fill: none; fill-opacity: 1;"/></g><g class="arrow-line"><path class="connection real" stroke-dasharray="" d="  M168.73,199.77 L32.93,199.77" style="stroke: rgb(153, 0, 0); stroke-opacity: 1; stroke-width: 1; fill: none; fill-opacity: 1;"/><g stroke="rgb(153,0,0)" stroke-opacity="1" transform="matrix(1,-2.4492935982947064e-16,2.4492935982947064e-16,1,30.93333333333331,199.76666666666668)" style="stroke: rgb(153, 0, 0); stroke-width: 1;"><path d=" M10.93,-3.29 Q4.96,-0.45 0,0 Q4.96,0.45 10.93,3.29"/></g><g stroke="rgb(153,0,0)" stroke-opacity="1" transform="matrix(-1,1.2246467991473532e-16,-1.2246467991473532e-16,-1,170.72726440429685,199.76666666666665)" style="stroke: rgb(153, 0, 0); stroke-width: 1;"><path d=" M10.93,-3.29 Q4.96,-0.45 0,0 Q4.96,0.45 10.93,3.29"/></g></g><g/></g><g/><g/><g/></svg>
        <svg xmlns="http://www.w3.org/2000/svg" xmlns:xlink="http://www.w3.org/1999/xlink" width="291" height="216.89773559570312" style="width:291px;height:216.89773559570312px;font-family:Asana-Math, Asana;background:#FFF;"><g><g><g><g transform="matrix(1,0,0,1,22.227294921875,22.227264404296875)"><path transform="matrix(0.017,0,0,-0.017,0,0)" d="M286 646L392 650C454 650 494 641 495 626L503 537L527 537C530 600 537 651 548 689C526 691 498 692 481 692L440 691L275 689L246 689C221 689 181 690 143 691L94 692L91 664L147 662C171 661 182 652 182 635C182 621 178 589 173 559L98 125C81 33 81 32 40 28L4 25L0 -3L34 -2C74 -1 106 0 127 0C145 0 174 -1 213 -2L265 -3L268 25L204 28C177 29 168 37 168 57C168 63 169 74 170 78L206 301L323 301C350 301 381 300 429 298L455 297L474 342L470 349C389 345 329 343 251 343L214 343L260 614C263 630 264 635 269 646Z" stroke="rgb(0,0,0)" stroke-opacity="1" stroke-width="8" fill="rgb(0,0,0)" fill-opacity="1"></path></g></g></g></g><g><g><g><g transform="matrix(1,0,0,1,214.227294921875,183.22727966308594)"><path transform="matrix(0.017,0,0,-0.017,0,0)" d="M125 390L69 107C68 99 56 61 56 31C56 6 67 -9 86 -9C121 -9 156 11 234 74L265 99L255 117L210 86C181 66 161 56 150 56C141 56 136 64 136 76C136 102 150 183 179 328L192 390L299 390L310 440C272 436 238 434 200 434C216 528 227 577 245 631L234 646C214 634 187 622 156 610L131 440C87 419 61 408 43 403L41 390Z" stroke="rgb(0,0,0)" stroke-opacity="1" stroke-width="8" fill="rgb(0,0,0)" fill-opacity="1"></path></g></g></g></g><g><g><g><g transform="matrix(1,0,0,1,15.039794921875,203.77272033691406)"><path transform="matrix(0.017,0,0,-0.017,0,0)" d="M125 390L69 107C68 99 56 61 56 31C56 6 67 -9 86 -9C121 -9 156 11 234 74L265 99L255 117L210 86C181 66 161 56 150 56C141 56 136 64 136 76C136 102 150 183 179 328L192 390L299 390L310 440C272 436 238 434 200 434C216 528 227 577 245 631L234 646C214 634 187 622 156 610L131 440C87 419 61 408 43 403L41 390Z" stroke="rgb(153,0,0)" stroke-opacity="1" stroke-width="8" fill="rgb(153,0,0)" fill-opacity="1"></path></g></g><g><g><g><g><g transform="matrix(1,0,0,1,21.1875,206.77498474121094)"><path transform="matrix(0.0119,0,0,-0.0119,0,0)" d="M263 689C108 689 29 566 29 324C29 207 50 106 85 57C120 8 176 -20 238 -20C389 -20 465 110 465 366C465 585 400 689 263 689ZM245 654C342 654 381 556 381 316C381 103 343 15 251 15C154 15 113 116 113 360C113 571 150 654 245 654Z" stroke="rgb(153,0,0)" stroke-opacity="1" stroke-width="8" fill="rgb(153,0,0)" fill-opacity="1"></path></g></g></g></g></g></g></g><g><g><g><g transform="matrix(1,0,0,1,174.7386474609375,203.8181915283203)"><path transform="matrix(0.017,0,0,-0.017,0,0)" d="M125 390L69 107C68 99 56 61 56 31C56 6 67 -9 86 -9C121 -9 156 11 234 74L265 99L255 117L210 86C181 66 161 56 150 56C141 56 136 64 136 76C136 102 150 183 179 328L192 390L299 390L310 440C272 436 238 434 200 434C216 528 227 577 245 631L234 646C214 634 187 622 156 610L131 440C87 419 61 408 43 403L41 390Z" stroke="rgb(153,0,0)" stroke-opacity="1" stroke-width="8" fill="rgb(153,0,0)" fill-opacity="1"></path></g></g><g><g><g><g><g transform="matrix(1,0,0,1,180.88641357421875,206.8204559326172)"><path transform="matrix(0.0119,0,0,-0.0119,0,0)" d="M345 437L329 437L350 549C366 635 394 673 440 673C470 673 497 658 512 634L522 638C527 654 537 685 545 705L550 720C534 727 503 733 480 733C469 733 453 730 445 726C421 715 339 654 316 630C294 608 282 578 271 521L256 442C215 422 195 414 170 405L165 383L246 383L237 327C207 132 170 -54 148 -123C130 -182 100 -213 64 -213C41 -213 30 -206 12 -184L-2 -188C-6 -211 -20 -259 -25 -268C-16 -273 -1 -276 10 -276C51 -276 105 -245 144 -198C215 -114 235 -18 319 383L423 383C427 402 434 425 440 439L436 446C407 439 408 437 345 437Z" stroke="rgb(153,0,0)" stroke-opacity="1" stroke-width="8" fill="rgb(153,0,0)" fill-opacity="1"></path></g></g></g></g></g></g></g><g><g><g><rect x="92.15911865234375" y="189.56248474121094" width="17.340909957885742" height="20.363636016845703" fill="rgb(255,255,255)" fill-opacity="1" stroke="none"></rect><g transform="matrix(1,0,0,1,92.15911865234375,206.56248474121094)"><path transform="matrix(0.017,0,0,-0.017,0,0)" d="M27 6L34 -4C140 0 246 0 353 0C454 0 555 -1 656 -4L662 6L362 697L337 697C294 590 92 128 27 6ZM537 37L105 37C171 215 242 389 318 564L325 564C400 391 472 215 537 37ZM813 390L757 107C756 99 744 61 744 31C744 6 755 -9 774 -9C809 -9 844 11 922 74L953 99L943 117L898 86C869 66 849 56 838 56C829 56 824 64 824 76C824 102 838 183 867 328L880 390L987 390L998 440C960 436 926 434 888 434C904 528 915 577 933 631L922 646C902 634 875 622 844 610L819 440C775 419 749 408 731 403L729 390Z" stroke="rgb(153,0,0)" stroke-opacity="1" stroke-width="8" fill="rgb(153,0,0)" fill-opacity="1"></path></g></g></g></g><g><g><g><g><g><g><g transform="matrix(1,0,0,1,147.414794921875,142.9943084716797)"><path transform="matrix(0.017,0,0,-0.017,0,0)" d="M355 664L358 692L244 689C228 689 210 689 167 690L103 692L100 664L147 662C171 661 182 653 182 635C182 630 182 627 181 622L86 -21C71 -124 41 -174 -6 -174C-18 -174 -27 -173 -35 -170L-32 -196C-21 -203 -9 -206 3 -206C38 -206 143 -178 177 54L262 613C268 651 275 658 313 661Z" stroke="rgb(253,253,253)" stroke-opacity="1" stroke-width="8" fill="rgb(253,253,253)" fill-opacity="1"></path></g></g></g></g><svg x="145.99432373046875" overflow="visible" y="119.99430847167969" height="10" width="9.340909004211426"><path d=" M 9.34 4.85 l -3.15 -3.32 l -0.49 0.52 l 1.93 2.33 h -0.15 v 0.90 h 0.15 l -1.93 2.33 l 0.49 0.52 z  M 1.68 5.23 h 7.20 v -0.90 h -7.20 z" style="fill:rgb(253,253,253);fill-opacity:1;stroke-width:1px;stroke:none;stroke-opacity:1;"></path></svg></g></g></g><g><g><g><g transform="matrix(1,0,0,1,186.44891357421875,104.74998474121094)"><path transform="matrix(0.017,0,0,-0.017,0,0)" d="M355 664L358 692L244 689C228 689 210 689 167 690L103 692L100 664L147 662C171 661 182 653 182 635C182 630 182 627 181 622L86 -21C71 -124 41 -174 -6 -174C-18 -174 -27 -173 -35 -170L-32 -196C-21 -203 -9 -206 3 -206C38 -206 143 -178 177 54L262 613C268 651 275 658 313 661Z" stroke="rgb(13,11,11)" stroke-opacity="1" stroke-width="8" fill="rgb(13,11,11)" fill-opacity="1"></path></g></g><g><g transform="matrix(1,0,0,1,197.1875,104.74998474121094)"><path transform="matrix(0.017,0,0,-0.017,0,0)" d="M604 347L604 406L65 406L65 347ZM604 134L604 193L65 193L65 134Z" stroke="rgb(13,11,11)" stroke-opacity="1" stroke-width="8" fill="rgb(13,11,11)" fill-opacity="1"></path></g></g><g><g><g><g><g transform="matrix(1,0,0,1,233.86932373046875,86.74089660644532)"><path transform="matrix(0.0119,0,0,-0.0119,0,0)" d="M125 390L69 107C68 99 56 61 56 31C56 6 67 -9 86 -9C121 -9 156 11 234 74L265 99L255 117L210 86C181 66 161 56 150 56C141 56 136 64 136 76C136 102 150 183 179 328L192 390L299 390L310 440C272 436 238 434 200 434C216 528 227 577 245 631L234 646C214 634 187 622 156 610L131 440C87 419 61 408 43 403L41 390Z" stroke="rgb(13,11,11)" stroke-opacity="1" stroke-width="8" fill="rgb(13,11,11)" fill-opacity="1"></path></g></g><g><g><g><g><g transform="matrix(1,0,0,1,238.1761474609375,88.84136779785156)"><path transform="matrix(0.00833,0,0,-0.00833,0,0)" d="M345 437L329 437L350 549C366 635 394 673 440 673C470 673 497 658 512 634L522 638C527 654 537 685 545 705L550 720C534 727 503 733 480 733C469 733 453 730 445 726C421 715 339 654 316 630C294 608 282 578 271 521L256 442C215 422 195 414 170 405L165 383L246 383L237 327C207 132 170 -54 148 -123C130 -182 100 -213 64 -213C41 -213 30 -206 12 -184L-2 -188C-6 -211 -20 -259 -25 -268C-16 -273 -1 -276 10 -276C51 -276 105 -245 144 -198C215 -114 235 -18 319 383L423 383C427 402 434 425 440 439L436 446C407 439 408 437 345 437Z" stroke="rgb(13,11,11)" stroke-opacity="1" stroke-width="8" fill="rgb(13,11,11)" fill-opacity="1"></path></g></g></g></g></g></g></g><g><g><g><g transform="matrix(1,0,0,1,225.539794921875,115.78636779785157)"><path transform="matrix(0.0119,0,0,-0.0119,0,0)" d="M125 390L69 107C68 99 56 61 56 31C56 6 67 -9 86 -9C121 -9 156 11 234 74L265 99L255 117L210 86C181 66 161 56 150 56C141 56 136 64 136 76C136 102 150 183 179 328L192 390L299 390L310 440C272 436 238 434 200 434C216 528 227 577 245 631L234 646C214 634 187 622 156 610L131 440C87 419 61 408 43 403L41 390Z" stroke="rgb(13,11,11)" stroke-opacity="1" stroke-width="8" fill="rgb(13,11,11)" fill-opacity="1"></path></g></g><g><g><g><g><g transform="matrix(1,0,0,1,229.84661865234375,117.88680847167969)"><path transform="matrix(0.00833,0,0,-0.00833,0,0)" d="M263 689C108 689 29 566 29 324C29 207 50 106 85 57C120 8 176 -20 238 -20C389 -20 465 110 465 366C465 585 400 689 263 689ZM245 654C342 654 381 556 381 316C381 103 343 15 251 15C154 15 113 116 113 360C113 571 150 654 245 654Z" stroke="rgb(13,11,11)" stroke-opacity="1" stroke-width="8" fill="rgb(13,11,11)" fill-opacity="1"></path></g></g></g></g></g></g></g><g><g transform="matrix(1,0,0,1,213.64208984375,104.52272033691406)"><path transform="matrix(0.0255,0,0,-0.0255,0,0)" d="M694 802C694 860 621 885 573 885C368 885 344 579 334 430C323 251 309 72 304 -108C301 -191 312 -410 184 -410C173 -410 159 -407 151 -397C153 -392 155 -384 155 -378C155 -347 114 -315 83 -315C59 -315 54 -340 54 -359C54 -418 125 -442 173 -442C348 -442 380 -190 395 -59C413 104 421 269 433 433C439 521 422 853 562 853C574 853 587 850 596 841C593 834 592 828 592 821C592 789 633 759 663 759C687 759 694 782 694 802Z" stroke="rgb(13,11,11)" stroke-opacity="1" stroke-width="8" fill="rgb(13,11,11)" fill-opacity="1"></path></g></g></g><g><g transform="matrix(1,0,0,1,243.47161865234375,104.74998474121094)"><path transform="matrix(0.017,0,0,-0.017,0,0)" d="M286 646L392 650C454 650 494 641 495 626L503 537L527 537C530 600 537 651 548 689C526 691 498 692 481 692L440 691L275 689L246 689C221 689 181 690 143 691L94 692L91 664L147 662C171 661 182 652 182 635C182 621 178 589 173 559L98 125C81 33 81 32 40 28L4 25L0 -3L34 -2C74 -1 106 0 127 0C145 0 174 -1 213 -2L265 -3L268 25L204 28C177 29 168 37 168 57C168 63 169 74 170 78L206 301L323 301C350 301 381 300 429 298L455 297L474 342L470 349C389 345 329 343 251 343L214 343L260 614C263 630 264 635 269 646Z" stroke="rgb(13,11,11)" stroke-opacity="1" stroke-width="8" fill="rgb(13,11,11)" fill-opacity="1"></path></g></g><g><g transform="matrix(1,0,0,1,252.914794921875,104.74998474121094)"><path transform="matrix(0.017,0,0,-0.017,0,0)" d="M146 266C146 526 243 632 301 700L282 726C225 675 60 542 60 266C60 159 85 58 133 -32C168 -99 200 -138 282 -215L301 -194C255 -137 146 -15 146 266Z" stroke="rgb(13,11,11)" stroke-opacity="1" stroke-width="8" fill="rgb(13,11,11)" fill-opacity="1"></path></g></g><g><g transform="matrix(1,0,0,1,258.5625,104.74998474121094)"><path transform="matrix(0.017,0,0,-0.017,0,0)" d="M125 390L69 107C68 99 56 61 56 31C56 6 67 -9 86 -9C121 -9 156 11 234 74L265 99L255 117L210 86C181 66 161 56 150 56C141 56 136 64 136 76C136 102 150 183 179 328L192 390L299 390L310 440C272 436 238 434 200 434C216 528 227 577 245 631L234 646C214 634 187 622 156 610L131 440C87 419 61 408 43 403L41 390Z" stroke="rgb(13,11,11)" stroke-opacity="1" stroke-width="8" fill="rgb(13,11,11)" fill-opacity="1"></path></g></g><g><g transform="matrix(1,0,0,1,264.21026611328125,104.74998474121094)"><path transform="matrix(0.017,0,0,-0.017,0,0)" d="M51 726L32 700C87 636 187 526 187 266C187 -10 83 -131 32 -194L51 -215C104 -165 273 -23 273 265C273 542 108 675 51 726Z" stroke="rgb(13,11,11)" stroke-opacity="1" stroke-width="8" fill="rgb(13,11,11)" fill-opacity="1"></path></g></g><g><g transform="matrix(1,0,0,1,269.85797119140625,104.74998474121094)"><path transform="matrix(0.017,0,0,-0.017,0,0)" d="M483 722L471 733C419 707 383 698 311 691L307 670L355 670C379 670 389 663 389 646C389 638 388 629 387 622L359 468C329 477 302 482 277 482C208 482 114 410 68 323C37 265 17 170 17 86C17 21 32 -11 61 -11C88 -11 125 6 159 33C213 77 246 116 313 217L290 126C279 82 274 50 274 24C274 3 283 -9 300 -9C317 -9 341 3 375 28L456 88L446 107L402 76C388 66 372 59 363 59C355 59 349 68 349 82C349 90 350 99 357 128ZM114 59C98 59 89 73 89 98C89 224 135 380 184 418C197 428 216 433 243 433C287 433 316 427 349 410L337 351C300 171 159 59 114 59ZM624 390L568 107C567 99 555 61 555 31C555 6 566 -9 585 -9C620 -9 655 11 733 74L764 99L754 117L709 86C680 66 660 56 649 56C640 56 635 64 635 76C635 102 649 183 678 328L691 390L798 390L809 440C771 436 737 434 699 434C715 528 726 577 744 631L733 646C713 634 686 622 655 610L630 440C586 419 560 408 542 403L540 390Z" stroke="rgb(13,11,11)" stroke-opacity="1" stroke-width="8" fill="rgb(13,11,11)" fill-opacity="1"></path></g></g></g></g></svg>
</svg>
