<svg xmlns="http://www.w3.org/2000/svg" xmlns:xlink="http://www.w3.org/1999/xlink" x="0" y="0" width="177.4545440673828" height="105.93182373046875" style="
        width:177.4545440673828px;
        height:105.93182373046875px;
        background: transparent;
        fill: none;
">
        <svg xmlns="http://www.w3.org/2000/svg"/>
        
        <svg xmlns="http://www.w3.org/2000/svg" class="role-diagram-draw-area"><g class="shapes-region" style="stroke: black; fill: none;"><g class="composite-shape"><path class="real" d=" M53.08,97.18 C52.94,97.18 52.8,97.18 52.66,97.18 C27.36,97.18 6.86,76.67 6.86,51.38 C6.86,26.16 27.24,5.7 52.43,5.57 L52.47,12.93 C31.32,13.04 14.22,30.21 14.22,51.38 C14.22,72.61 31.43,89.82 52.66,89.82 C52.78,89.82 52.9,89.82 53.01,89.82 Z" style="stroke-width: 1; stroke: rgb(0, 0, 0); fill: rgb(238, 238, 238); fill-opacity: 1;"/></g><g class="composite-shape"><defs><!-- react-text: 19049 --> <!-- /react-text --><pattern id="_pgfr0ehrpmcg" x="0" y="0" width="3.1112698372208096" height="3.1112698372208096" patternTransform="rotate(45,0,0)" patternUnits="userSpaceOnUse"><path d="M0,0 L0,3.1112698372208096" style="stroke: rgb(153, 0, 0); stroke-opacity: 0.5; stroke-width: 1; fill: none;"/><path d="M1.5556349186104048,0 L1.5556349186104048,3.1112698372208096" style="stroke: rgb(153, 0, 0); stroke-opacity: 0.5; stroke-width: 1; fill: none;"/><path d="M3.1112698372208096,0 L3.1112698372208096,3.1112698372208096" style="stroke: rgb(153, 0, 0); stroke-opacity: 0.5; stroke-width: 1; fill: none;"/></pattern></defs><path class="real" d=" M53.06,89.45 C31.93,89.45 14.8,72.32 14.8,51.19 C14.8,30.13 31.83,13.04 52.87,12.93 L52.9,19.08 C35.24,19.17 20.95,33.51 20.95,51.19 C20.95,68.93 35.33,83.31 53.06,83.31 C53.16,83.31 53.26,83.31 53.35,83.3 L53.35,83.31 L53.35,83.3 L171.07,83.3 L171.07,89.3 L53.41,89.3 L53.41,89.45 C53.3,89.45 53.18,89.45 53.06,89.45 Z  M170.61,13.08 L170.61,19.08 L52.9,19.08 L52.9,13.08 L170.61,13.08 Z" style="stroke-width: 1; stroke: none; stroke-opacity: 1; fill: url(&quot;#_pgfr0ehrpmcg&quot;); fill-opacity: 1;"/></g><g class="arrow-line"><path class="connection real" stroke-dasharray="" d="  M151.71,76.69 L168.47,76.69" style="stroke: rgb(153, 0, 0); stroke-opacity: 1; stroke-width: 1; fill: none; fill-opacity: 1;"/><g stroke="rgb(153,0,0)" stroke-opacity="1" transform="matrix(-1,1.2246467991473532e-16,-1.2246467991473532e-16,-1,170.467529296875,76.68831416538787)" style="stroke: rgb(153, 0, 0); stroke-width: 1;"><path d=" M10.93,-3.29 Q4.96,-0.45 0,0 Q4.96,0.45 10.93,3.29"/></g></g><g class="arrow-line"><path class="connection real" stroke-dasharray="" d="  M152.57,24.12 L169.32,24.12" style="stroke: rgb(153, 0, 0); stroke-opacity: 1; stroke-width: 1; fill: none; fill-opacity: 1;"/><g stroke="rgb(153,0,0)" stroke-opacity="1" transform="matrix(1,0,0,1,150.57142857142858,24.11688559395928)" style="stroke: rgb(153, 0, 0); stroke-width: 1;"><path d=" M10.93,-3.29 Q4.96,-0.45 0,0 Q4.96,0.45 10.93,3.29"/></g></g><g/></g><g/><g/><g/></svg>
        <svg xmlns="http://www.w3.org/2000/svg" xmlns:xlink="http://www.w3.org/1999/xlink" width="176" height="104.4772720336914" style="width:176px;height:104.4772720336914px;font-family:Asana-Math, Asana;background:transparent;"><g><g><g><g transform="matrix(1,0,0,1,141.57958984375,36.86363983154297)"><path transform="matrix(0.017,0,0,-0.017,0,0)" d="M492 473L485 482L417 465L407 414C392 336 367 268 336 221C277 130 199 59 159 59C151 59 146 68 146 85C146 99 148 112 153 137L210 408C213 424 215 438 215 451C215 470 206 482 192 482C172 482 134 461 60 408L32 388L39 368L71 389C99 407 110 412 119 412C128 412 136 403 136 392C136 388 135 378 134 374L71 77C69 68 67 44 67 30C67 7 82 -11 102 -11C165 -11 286 101 370 239L333 97C326 73 322 46 322 31C322 6 333 -9 352 -9C378 -9 414 12 512 85L502 103L476 86C452 70 426 59 415 59C407 59 402 66 402 76C402 112 477 416 492 473Z" stroke="rgb(153,0,0)" stroke-opacity="1" stroke-width="8" fill="rgb(153,0,0)" fill-opacity="1"></path></g></g></g></g><g><g><g><g transform="matrix(1,0,0,1,137.8636474609375,71.43182373046875)"><path transform="matrix(0.017,0,0,-0.017,0,0)" d="M555 243L555 299L51 299L51 243Z" stroke="rgb(153,0,0)" stroke-opacity="1" stroke-width="8" fill="rgb(153,0,0)" fill-opacity="1"></path></g></g><g><g transform="matrix(1,0,0,1,148.14776611328125,71.43182373046875)"><path transform="matrix(0.017,0,0,-0.017,0,0)" d="M492 473L485 482L417 465L407 414C392 336 367 268 336 221C277 130 199 59 159 59C151 59 146 68 146 85C146 99 148 112 153 137L210 408C213 424 215 438 215 451C215 470 206 482 192 482C172 482 134 461 60 408L32 388L39 368L71 389C99 407 110 412 119 412C128 412 136 403 136 392C136 388 135 378 134 374L71 77C69 68 67 44 67 30C67 7 82 -11 102 -11C165 -11 286 101 370 239L333 97C326 73 322 46 322 31C322 6 333 -9 352 -9C378 -9 414 12 512 85L502 103L476 86C452 70 426 59 415 59C407 59 402 66 402 76C402 112 477 416 492 473Z" stroke="rgb(153,0,0)" stroke-opacity="1" stroke-width="8" fill="rgb(153,0,0)" fill-opacity="1"></path></g></g></g></g></svg>
</svg>
