<svg xmlns="http://www.w3.org/2000/svg" preserveAspectRatio="xMidYMid meet" viewBox="0 0 300 300" ><g style="stroke: black; fill: none;"><g class="composite-shape"><path class="real" d=" M119.84,70 C123.26,66.58 128.82,66.58 132.24,70 L243.44,181.2 C246.86,184.62 246.86,190.18 243.44,193.6 L204.84,232.2 C201.42,235.62 195.86,235.62 192.44,232.2 L81.24,121 C77.82,117.58 77.82,112.02 81.24,108.6 Z" style="stroke: #900; fill: #900; fill-opacity: 1;"/></g><g class="composite-shape"><path class="real" d=" M261.24,249.8 L224.84,245.4 L256.84,213.4 Z" style="stroke: #900; fill: #900; fill-opacity: 1;"/></g><g class="composite-shape"><path class="real" d=" M45.84,85.6 C36.78,76.54 36.78,61.86 45.84,52.8 L63.44,35.2 C72.5,26.14 87.18,26.14 96.24,35.2 L108.04,47 C110.58,49.54 110.58,53.66 108.04,56.2 L66.84,97.4 C64.3,99.94 60.18,99.94 57.64,97.4 Z" style="stroke: #900; fill: #900; fill-opacity: 1;"/></g><g/></g><g/><g/><g/></svg>
