<svg xmlns="http://www.w3.org/2000/svg" preserveAspectRatio="xMidYMid meet" viewBox="0 0 300 300"><g class="shapes-region" style="stroke: black; fill: none;"><g class="composite-shape"><path class="real" d=" M62.92,57.52 C86.12,57.52 104.92,76.32 104.92,99.52 C104.92,108.22 102.28,116.3 97.75,123 L141.89,123 L229.36,74.38 L229.39,74.44 C230.26,73.9 231.15,73.38 232.05,72.88 C250.62,62.57 270.48,62.86 276.41,73.54 C282.33,84.21 272.08,101.22 253.51,111.53 C251.52,112.64 249.52,113.62 247.52,114.48 L181.4,151.24 L255.61,194.09 C272.53,203.85 281.33,220.28 275.27,230.77 C269.21,241.26 250.59,241.85 233.67,232.09 L144.91,180.84 L95.51,180.84 C100.91,187.91 104.12,196.74 104.12,206.32 C104.12,229.52 85.32,248.32 62.12,248.32 C38.92,248.32 20.12,229.52 20.12,206.32 C20.12,183.12 38.92,164.32 62.12,164.32 C62.13,164.32 62.13,164.32 62.14,164.32 L110.8,164.32 L110.8,141.52 L62.92,141.52 C39.72,141.52 20.92,122.72 20.92,99.52 C20.92,76.32 39.72,57.52 62.92,57.52 Z  M29.08,206.32 C29.08,224.57 43.87,239.36 62.12,239.36 C80.37,239.36 95.16,224.57 95.16,206.32 C95.16,188.07 80.37,173.28 62.12,173.28 C43.87,173.28 29.08,188.07 29.08,206.32 Z  M29.88,99.52 C29.88,117.77 44.67,132.56 62.92,132.56 C81.17,132.56 95.96,117.77 95.96,99.52 C95.96,81.27 81.17,66.48 62.92,66.48 C44.67,66.48 29.88,81.27 29.88,99.52 Z  M135.2,151.94 C135.2,157.39 139.61,161.8 145.06,161.8 C150.51,161.8 154.92,157.39 154.92,151.94 C154.92,146.49 150.51,142.08 145.06,142.08 C139.61,142.08 135.2,146.49 135.2,151.94 Z" style="stroke: #900; stroke-opacity: 1; fill: #900; fill-opacity: 1;"/></g><g/></g><g/><g/><g/></svg>
