<svg xmlns="http://www.w3.org/2000/svg" width="315.6" height="167.125" style="width:315.6000061035156px;height:167.125px;background:#fff;fill:none"><svg xmlns="http://www.w3.org/2000/svg"/><svg xmlns="http://www.w3.org/2000/svg" class="role-diagram-draw-area"><g class="shapes-region" style="stroke:#000;fill:none"><g class="arrow-line"><path d="m51.35 112.71 36.62-63.43" class="connection real" style="stroke:#900;stroke-opacity:1;stroke-width:2;fill:none;fill-opacity:1"/></g><g class="arrow-line"><path d="M51.35 112.71 14.72 49.28" class="connection real" style="stroke:#900;stroke-opacity:1;stroke-width:2;fill:none;fill-opacity:1"/></g><g class="composite-shape"><path stroke="none" d="M43.9 99.81c2.19-1.26 4.74-1.99 7.45-1.99s5.26.73 7.45 1.99l-7.45 12.9Z" class="real" style="stroke-width:1;stroke:none;stroke-opacity:1;fill:none;fill-opacity:1"/><path d="M43.9 99.81c2.19-1.26 4.74-1.99 7.45-1.99s5.26.73 7.45 1.99" class="real" style="stroke-width:1;stroke:#000;stroke-opacity:1;fill:none;fill-opacity:1"/></g><g class="arrow-line"><path d="M87.97 49.28H17.72" class="connection real" style="stroke:#000;stroke-opacity:1;stroke-width:1;fill:none;fill-opacity:1"/><path fill="#000" stroke="none" d="M10.72-5.15 0 0l10.72 5.15L7.12 0Z" style="stroke:none;fill:#000;stroke-width:1" transform="translate(14.725 49.276)"/></g><g class="arrow-line"><path stroke-dasharray="3" d="m175.39 81.89 120.98 69.85" class="connection real" style="stroke:#000;stroke-width:1;fill:none;fill-opacity:1"/></g><g class="arrow-line"><path stroke-dasharray="3" d="m175.39 81.89 120.48-69.56" class="connection real" style="stroke:#000;stroke-width:1;fill:none;fill-opacity:1"/></g><g class="composite-shape"><path d="M47.88 112.71c0-1.91 1.56-3.47 3.47-3.47s3.47 1.56 3.47 3.47c0 1.92-1.56 3.47-3.47 3.47s-3.47-1.55-3.47-3.47Z" class="real" style="stroke-width:1;stroke:#900;stroke-opacity:1;fill:#900;fill-opacity:1"/></g><g class="composite-shape"><path stroke="none" d="M188.29 74.44c1.26 2.19 1.99 4.74 1.99 7.45s-.73 5.26-1.99 7.45l-12.9-7.45Z" class="real" style="stroke-width:1;stroke:none;stroke-opacity:1;fill:none;fill-opacity:1"/><path d="M188.29 74.44c1.26 2.19 1.99 4.74 1.99 7.45s-.73 5.26-1.99 7.45" class="real" style="stroke-width:1;stroke:#900;stroke-opacity:1;fill:none;fill-opacity:1"/></g><g class="arrow-line"><path d="M296.37 151.74V15.33" class="connection real" style="stroke:#900;stroke-opacity:1;stroke-width:1;fill:none;fill-opacity:1"/><path fill="#900" stroke="none" d="M10.72-5.15 0 0l10.72 5.15L7.12 0Z" style="stroke:none;fill:#900;stroke-width:1" transform="rotate(90 142.02 154.354)"/></g><g class="composite-shape"><path d="M171.92 81.89c0-1.91 1.56-3.47 3.47-3.47s3.47 1.56 3.47 3.47-1.56 3.47-3.47 3.47-3.47-1.56-3.47-3.47Z" class="real" style="stroke-width:1;stroke:#000;stroke-opacity:1;fill:#000;fill-opacity:1"/></g></g></svg><svg xmlns="http://www.w3.org/2000/svg" xmlns:xlink="http://www.w3.org/1999/xlink" width="314" height="165.525" style="width:314px;height:165.52500915527344px;font-family:Asana-Math,Asana;background:#fff"><path fill="#000" stroke="#000" stroke-width=".136" d="M55.524 82.582c-.306-1.938-1.088-3.366-3.247-3.366-4.42 0-5.032 4.93-4.454 8.551.323 2.023 1.19 3.655 3.502 3.655 4.012 0 4.692-5.644 4.199-8.84Zm-1.173 2.091h-5.372c.119-1.768.867-5.015 3.06-5.015 1.462 0 2.023 1.547 2.21 2.703.119.765.102 1.547.102 2.312Zm0 .544c-.085 1.904-.408 5.712-2.839 5.712-1.734 0-2.21-1.904-2.414-3.23-.136-.833-.119-1.666-.119-2.482Zm-1.122-42.194-.119.17c-1.802-.068-3.604-.068-5.423-.068-1.717 0-3.434.017-5.151.068l-.102-.17c1.037-1.87 1.853-3.944 2.703-5.916.833-1.904 1.734-3.842 2.397-5.831h.425c.731 1.819 4.165 9.673 5.27 11.747Zm-1.326-.527a176 176 0 0 0-3.621-8.959h-.119c-1.275 2.941-2.499 5.933-3.604 8.959Zm4.594-6.511c.357 0 .629-.017 1.071-.068-1.887 2.04-2.601 3.451-2.601 5.151 0 1.309.782 2.244 1.87 2.244 2.346 0 4.947-4.199 4.947-6.715 0-.969-.442-1.666-1.054-1.666-.221 0-.425.068-.561.204l-.85.799.187.323a.8.8 0 0 1 .459-.153c.459 0 .731.391.731 1.071 0 2.516-1.649 5.287-3.145 5.287-.833 0-1.36-.714-1.36-1.819 0-1.785.663-3.332 2.329-5.406l-.17-.306c-.34.153-.561.204-1.037.204s-1.19-.034-1.683-.085l-.204-.017c-.102-.017-.187-.017-.204-.017-.204 0-.357.034-.544.119-.238.459-.425 1.071-.646 2.006h.374l.289-.714c.119-.289.459-.476.867-.476.561 0 .289.034.935.034Z"/><svg width="9.35" height="10" x="53.675" y="24.125" overflow="visible"><path d="M9.35 4.85 6.2 1.53l-.49.52 1.93 2.33h-.15v.9h.15L5.71 7.61l.49.52zm-7.67.38h7.21v-.9H1.68z" style="fill:#000;fill-opacity:1;stroke-width:1px;stroke:none;stroke-opacity:1"/></svg><path fill="#900" stroke="#900" stroke-width=".136" d="M204.524 80.082c-.306-1.938-1.088-3.366-3.247-3.366-4.42 0-5.032 4.93-4.454 8.551.323 2.023 1.19 3.655 3.502 3.655 4.012 0 4.692-5.644 4.199-8.84Zm-1.173 2.091h-5.372c.119-1.768.867-5.015 3.06-5.015 1.462 0 2.023 1.547 2.21 2.703.119.765.102 1.547.102 2.312Zm0 .544c-.085 1.904-.408 5.712-2.839 5.712-1.734 0-2.21-1.904-2.414-3.23-.136-.833-.119-1.666-.119-2.482Zm76.078 5.106-.119.17c-1.802-.068-3.604-.068-5.423-.068-1.717 0-3.434.017-5.151.068l-.102-.17c1.037-1.87 1.853-3.944 2.703-5.916.833-1.904 1.734-3.842 2.397-5.831h.425c.731 1.819 4.165 9.673 5.27 11.747Zm-1.326-.527a176 176 0 0 0-3.621-8.959h-.119c-1.275 2.941-2.499 5.933-3.604 8.959Zm8.978-5.576c.051-.646.136-1.19.272-1.887-.187-.085-.255-.102-.34-.102-.527 0-1.054.408-1.666 1.275-.663.952-1.326 1.972-1.598 2.567l.544-2.584c.068-.289.102-.51.102-.714 0-.34-.136-.544-.391-.544-.357 0-1.003.357-2.261 1.258l-.476.34.119.34.544-.357c.476-.306.663-.391.816-.391.17 0 .289.153.289.374 0 .986-.731 4.488-1.411 6.664l.17.119c.255-.085.527-.136.918-.221l.221-.034.442-2.04c.306-1.411.697-2.312 1.445-3.281.578-.748 1.037-1.105 1.411-1.105.255 0 .425.085.612.323Z"/><svg width="9.35" height="10" x="279.875" y="68.925" overflow="visible"><path d="M9.35 4.85 6.2 1.53l-.49.52 1.93 2.33h-.15v.9h.15L5.71 7.61l.49.52zm-7.67.38h7.21v-.9H1.68z" style="fill:#900;fill-opacity:1;stroke-width:1px;stroke:none;stroke-opacity:1"/></svg><path fill="#900" stroke="#900" stroke-width=".136" d="M22.597 91.648c.357 0 .629-.017 1.071-.068-1.887 2.04-2.601 3.45-2.601 5.15 0 1.31.782 2.245 1.87 2.245 2.346 0 4.947-4.2 4.947-6.715 0-.97-.442-1.666-1.054-1.666-.221 0-.425.068-.561.204l-.85.799.187.323a.8.8 0 0 1 .459-.153c.459 0 .731.39.731 1.07 0 2.517-1.649 5.288-3.145 5.288-.833 0-1.36-.714-1.36-1.82 0-1.784.663-3.331 2.329-5.405l-.17-.306c-.34.153-.561.204-1.037.204s-1.19-.034-1.683-.085l-.204-.017c-.102-.017-.187-.017-.204-.017-.204 0-.357.034-.544.119-.238.459-.425 1.07-.646 2.006h.374l.289-.714c.119-.29.459-.476.867-.476.561 0 .289.034.935.034Z"/><path fill="#000" stroke="#000" stroke-width=".136" d="M228.881 128.408c.051-.646.136-1.19.272-1.887-.187-.085-.255-.102-.34-.102-.527 0-1.054.408-1.666 1.275-.663.952-1.326 1.972-1.598 2.567l.544-2.584c.068-.29.102-.51.102-.714 0-.34-.136-.544-.391-.544-.357 0-1.003.357-2.261 1.258l-.476.34.119.34.544-.357c.476-.306.663-.391.816-.391.17 0 .289.153.289.374 0 .986-.731 4.488-1.411 6.664l.17.119c.255-.085.527-.136.918-.221l.221-.034.442-2.04c.306-1.411.697-2.312 1.445-3.281.578-.748 1.037-1.105 1.411-1.105.255 0 .425.085.612.323Zm-96.286-47.456-.34-.17c-.306 1.037-.85 1.938-2.04 1.938-1.394 0-2.584-1.955-4.182-1.955-1.564 0-2.414.935-2.822 2.363l.374.153c.408-.918 1.054-1.581 2.108-1.581 1.394 0 2.414 1.938 4.148 1.938s2.516-1.105 2.754-2.686Z"/><path fill="#900" stroke="#900" stroke-width=".136" d="M75.272 91.648c.357 0 .629-.017 1.071-.068-1.887 2.04-2.601 3.45-2.601 5.15 0 1.31.782 2.245 1.87 2.245 2.346 0 4.947-4.2 4.947-6.715 0-.97-.442-1.666-1.054-1.666-.221 0-.425.068-.561.204l-.85.799.187.323a.8.8 0 0 1 .459-.153c.459 0 .731.39.731 1.07 0 2.517-1.649 5.288-3.145 5.288-.833 0-1.36-.714-1.36-1.82 0-1.784.663-3.331 2.329-5.405l-.17-.306c-.34.153-.561.204-1.037.204s-1.19-.034-1.683-.085l-.204-.017c-.102-.017-.187-.017-.204-.017-.204 0-.357.034-.544.119-.238.459-.425 1.07-.646 2.006h.374l.289-.714c.119-.29.459-.476.867-.476.561 0 .289.034.935.034Z"/><path fill="#000" stroke="#000" stroke-width=".136" d="M228.631 36.695c.051-.646.136-1.19.272-1.887-.187-.085-.255-.102-.34-.102-.527 0-1.054.408-1.666 1.275-.663.952-1.326 1.972-1.598 2.567l.544-2.584c.068-.289.102-.51.102-.714 0-.34-.136-.544-.391-.544-.357 0-1.003.357-2.261 1.258l-.476.34.119.34.544-.357c.476-.306.663-.391.816-.391.17 0 .289.153.289.374 0 .986-.731 4.488-1.411 6.664l.17.119c.255-.085.527-.136.918-.221l.221-.034.442-2.04c.306-1.411.697-2.312 1.445-3.281.578-.748 1.037-1.105 1.411-1.105.255 0 .425.085.612.323Z"/></svg></svg>