<svg xmlns="http://www.w3.org/2000/svg" width="413.6" height="213.2" style="width:413.6000061035156px;height:213.1999969482422px;background:0 0;fill:none"><svg xmlns="http://www.w3.org/2000/svg"/><svg xmlns="http://www.w3.org/2000/svg" class="role-diagram-draw-area" style="overflow:visible"><g class="shapes-region" style="stroke:#000;fill:none"><g class="arrow-line"><path stroke-dasharray="3" d="m12.17 39.5 120.98 69.85" class="connection real" style="stroke:#000;stroke-width:1;fill:none;fill-opacity:1"/></g><g class="arrow-line"><path stroke-dasharray="3" d="M12.17 39.5h139.11" class="connection real" style="stroke:#000;stroke-width:1;fill:none;fill-opacity:1"/></g><g class="composite-shape"><path stroke="none" d="M149.57 15.27c1.38 7.87 2.1 15.97 2.1 24.23 0 60.28-38.24 111.63-91.78 131.12L12.17 39.5Z" class="real" style="stroke-width:1;stroke:none;fill:none;fill-opacity:1"/><path d="M149.57 15.27c1.38 7.87 2.1 15.97 2.1 24.23 0 60.28-38.24 111.63-91.78 131.12" class="real" style="stroke-width:1;stroke:#000;fill:none;fill-opacity:1"/></g><g class="arrow-line"><path d="m133.15 109.35 17.38-66.95" class="connection real" style="stroke:#900;stroke-opacity:1;stroke-width:2;fill:none;fill-opacity:1"/><path stroke="#900" d="M14.21-4.28Q6.45-.59 0 0q6.45.59 14.21 4.28" style="stroke:#900;stroke-width:2" transform="rotate(104.55 60.362 78.264)"/></g><g class="composite-shape"><path d="M147.81 39.5c0-1.91 1.56-3.47 3.47-3.47s3.47 1.56 3.47 3.47-1.56 3.47-3.47 3.47-3.47-1.56-3.47-3.47Z" class="real" style="stroke-width:1;stroke:#900;stroke-opacity:1;fill:#900;fill-opacity:1"/></g><g class="arrow-line"><path stroke-dasharray="3" d="m219.5 39.83 120.98 69.85" class="connection real" style="stroke:#000;stroke-width:1;fill:none;fill-opacity:1"/></g><g class="arrow-line"><path stroke-dasharray="3" d="M219.5 39.83 346 98.82" class="connection real" style="stroke:#000;stroke-width:1;fill:none;fill-opacity:1"/></g><g class="composite-shape"><path stroke="none" d="M356.9 15.61c1.38 7.86 2.1 15.96 2.1 24.22 0 60.28-38.23 111.63-91.78 131.13L219.5 39.83Z" class="real" style="stroke-width:1;stroke:none;fill:none;fill-opacity:1"/><path d="M356.9 15.61c1.38 7.86 2.1 15.96 2.1 24.22 0 60.28-38.23 111.63-91.78 131.13" class="real" style="stroke-width:1;stroke:#000;fill:none;fill-opacity:1"/></g><g class="composite-shape"><path d="M129.68 109.35c0-1.91 1.56-3.47 3.47-3.47s3.47 1.56 3.47 3.47-1.56 3.47-3.47 3.47-3.47-1.56-3.47-3.47Z" class="real" style="stroke-width:1;stroke:#900;stroke-opacity:1;fill:#900;fill-opacity:1"/></g><g class="composite-shape"><path d="M337.02 109.68c0-1.91 1.55-3.46 3.46-3.46a3.465 3.465 0 1 1-3.46 3.46Z" class="real" style="stroke-width:1;stroke:#900;stroke-opacity:1;fill:#900;fill-opacity:1"/></g><g class="composite-shape"><path d="M342.54 98.82c0-1.91 1.55-3.46 3.46-3.46a3.465 3.465 0 1 1-3.46 3.46Z" class="real" style="stroke-width:1;stroke:#900;stroke-opacity:1;fill:#900;fill-opacity:1"/></g><g class="arrow-line"><path d="m340.48 109.68 30.92-61.87" class="connection real" style="stroke:#900;stroke-opacity:1;stroke-width:2;fill:none;fill-opacity:1"/><path stroke="#900" d="M14.21-4.28Q6.45-.59 0 0q6.45.59 14.21 4.28" style="stroke:#900;stroke-width:2" transform="rotate(116.55 172.42 137.781)"/></g></g></svg><svg xmlns="http://www.w3.org/2000/svg" xmlns:xlink="http://www.w3.org/1999/xlink" width="412" height="211.6" style="width:412px;height:211.60000610351562px;font-family:Asana-Math,Asana;background:0 0"><path fill="#900" stroke="#900" stroke-width=".136" d="m142.308 120.52-.952 4.811c-.017.136-.221.782-.221 1.292 0 .425.187.68.51.68.595 0 1.19-.34 2.516-1.411l.527-.425-.17-.306-.765.527q-.74.51-1.02.51c-.153 0-.238-.136-.238-.34 0-.442.238-1.819.731-4.284l.221-1.054h1.819l.187-.85a17 17 0 0 1-1.87.102c.272-1.598.459-2.431.765-3.349l-.187-.255c-.34.204-.799.408-1.326.612l-.425 2.89c-.748.357-1.19.544-1.496.629l-.034.221Zm18.125-69.85-.952 4.811c-.017.136-.221.782-.221 1.292 0 .425.187.68.51.68.595 0 1.19-.34 2.516-1.411l.527-.425-.17-.306-.765.527q-.74.51-1.02.51c-.153 0-.238-.136-.238-.34 0-.442.238-1.819.731-4.284l.221-1.054h1.819l.187-.85a17 17 0 0 1-1.87.102c.272-1.598.459-2.431.765-3.349l-.187-.255c-.34.204-.799.408-1.326.612l-.425 2.89c-.748.357-1.19.544-1.496.629l-.034.221Zm17.197 2.533V52.2h-4.08v-4.046h-1.003V52.2h-4.08v1.003h4.08V57.3h1.003v-4.097Zm15.749 3.995-.119.17c-1.802-.068-3.604-.068-5.423-.068-1.717 0-3.434.017-5.151.068l-.102-.17c1.037-1.87 1.853-3.944 2.703-5.916.833-1.904 1.734-3.842 2.397-5.831h.425c.731 1.819 4.165 9.673 5.27 11.747Zm-1.326-.527a176 176 0 0 0-3.621-8.959h-.119c-1.275 2.941-2.499 5.933-3.604 8.959Zm3.897-6.001-.952 4.811c-.017.136-.221.782-.221 1.292 0 .425.187.68.51.68.595 0 1.19-.34 2.516-1.411l.527-.425-.17-.306-.765.527q-.74.51-1.02.51c-.153 0-.238-.136-.238-.34 0-.442.238-1.819.731-4.284l.221-1.054h1.819l.187-.85a17 17 0 0 1-1.87.102c.272-1.598.459-2.431.765-3.349l-.187-.255c-.34.204-.799.408-1.326.612l-.425 2.89c-.748.357-1.19.544-1.496.629l-.034.221Zm149.45 70.175-.952 4.811c-.017.136-.221.782-.221 1.292 0 .425.187.68.51.68.595 0 1.19-.34 2.516-1.411l.527-.425-.17-.306-.765.527q-.74.51-1.02.51c-.153 0-.238-.136-.238-.34 0-.442.238-1.819.731-4.284l.221-1.054h1.819l.187-.85a17 17 0 0 1-1.87.102c.272-1.598.459-2.431.765-3.349l-.187-.255c-.34.204-.799.408-1.326.612l-.425 2.89c-.748.357-1.19.544-1.496.629l-.034.221Zm9.758-10.863-.952 4.811c-.017.136-.221.782-.221 1.292 0 .425.187.68.51.68.595 0 1.19-.34 2.516-1.41l.527-.426-.17-.306-.765.527q-.74.51-1.02.51c-.153 0-.238-.136-.238-.34 0-.442.238-1.819.731-4.284l.221-1.054h1.819l.187-.85a17 17 0 0 1-1.87.102c.272-1.598.459-2.43.765-3.349l-.187-.255c-.34.204-.799.408-1.326.612l-.425 2.89c-.748.357-1.19.544-1.496.63l-.034.22Zm17.197 2.533v-1.003h-4.08v-4.046h-1.003v4.046h-4.08v1.003h4.08v4.097h1.003v-4.097Zm15.749 3.995-.119.17c-1.802-.068-3.604-.068-5.423-.068-1.717 0-3.434.017-5.151.068l-.102-.17c1.037-1.87 1.853-3.944 2.703-5.916.833-1.904 1.734-3.842 2.397-5.83h.425c.731 1.818 4.165 9.672 5.27 11.746Zm-1.326-.527a176 176 0 0 0-3.621-8.959h-.119c-1.275 2.941-2.499 5.933-3.604 8.96Zm3.897-6.001-.952 4.811c-.017.136-.221.782-.221 1.292 0 .425.187.68.51.68.595 0 1.19-.34 2.516-1.41l.527-.426-.17-.306-.765.527q-.74.51-1.02.51c-.153 0-.238-.136-.238-.34 0-.442.238-1.819.731-4.284l.221-1.054h1.819l.187-.85a17 17 0 0 1-1.87.102c.272-1.598.459-2.43.765-3.349l-.187-.255c-.34.204-.799.408-1.326.612l-.425 2.89c-.748.357-1.19.544-1.496.63l-.034.22Z"/><path fill="#000" stroke="#000" stroke-width=".136" d="m81.204 193.548-.119.17c-1.802-.068-3.604-.068-5.423-.068-1.717 0-3.434.017-5.151.068l-.102-.17c1.037-1.87 1.853-3.944 2.703-5.916.833-1.904 1.734-3.842 2.397-5.831h.425c.731 1.819 4.165 9.673 5.27 11.747Zm-1.326-.527a176 176 0 0 0-3.621-8.959h-.119c-1.275 2.941-2.499 5.933-3.604 8.959Zm3.897-6.001-.952 4.811c-.017.136-.221.782-.221 1.292 0 .425.187.68.51.68.595 0 1.19-.34 2.516-1.411l.527-.425-.17-.306-.765.527q-.74.51-1.02.51c-.153 0-.238-.136-.238-.34 0-.442.238-1.819.731-4.284l.221-1.054h1.819l.187-.85a17 17 0 0 1-1.87.102c.272-1.598.459-2.431.765-3.349l-.187-.255c-.34.204-.799.408-1.326.612l-.425 2.89c-.748.357-1.19.544-1.496.629l-.034.221Zm18.893.731v-1.003h-9.163v1.003Zm0 3.621v-1.003h-9.163v1.003Zm13.3 2.329v-.51l-.884-.051c-.935-.051-1.105-.238-1.105-1.122V181.75l-4.097 1.734.12.85 2.55-1.122v8.806c0 .884-.188 1.071-1.106 1.122l-.952.051v.51c2.618-.051 2.618-.051 2.805-.051.527 0 2.397.051 2.67.051Zm1.904-2.567a15 15 0 0 1-.374 2.244c.646.306 1.224.459 1.82.459.832 0 1.614-.306 2.481-.986s1.224-1.309 1.224-2.159c0-.918-.544-1.411-1.802-1.649l-.73-.136c-1.02-.187-1.344-.476-1.344-1.173 0-.901.765-1.598 1.734-1.598.697 0 1.343.306 1.615.765v.935h.391c.068-.595.136-1.054.323-1.921-.663-.323-1.139-.459-1.7-.459-.884 0-1.92.51-2.737 1.326-.442.459-.629.884-.629 1.496 0 .952.527 1.496 1.65 1.717l1.07.204c.748.136 1.02.442 1.02 1.105 0 1.105-.782 1.853-1.989 1.853a2.37 2.37 0 0 1-1.598-.595v-1.428Zm162.832 2.414-.119.17c-1.802-.068-3.604-.068-5.423-.068-1.717 0-3.434.017-5.151.068l-.102-.17c1.037-1.87 1.853-3.944 2.703-5.916.833-1.904 1.734-3.842 2.397-5.831h.425c.731 1.819 4.165 9.673 5.27 11.747Zm-1.326-.527a176 176 0 0 0-3.621-8.959h-.119c-1.275 2.941-2.499 5.933-3.604 8.959Zm3.897-6.001-.952 4.811c-.017.136-.221.782-.221 1.292 0 .425.187.68.51.68.595 0 1.19-.34 2.516-1.411l.527-.425-.17-.306-.765.527q-.74.51-1.02.51c-.153 0-.238-.136-.238-.34 0-.442.238-1.819.731-4.284l.221-1.054h1.819l.187-.85a17 17 0 0 1-1.87.102c.272-1.598.459-2.431.765-3.349l-.187-.255c-.34.204-.799.408-1.326.612l-.425 2.89c-.748.357-1.19.544-1.496.629l-.034.221Zm18.893.731v-1.003h-9.163v1.003Zm0 3.621v-1.003h-9.163v1.003Zm10.666-9.435c-2.635 0-3.978 2.091-3.978 6.205 0 1.989.357 3.706.952 4.539s1.547 1.309 2.6 1.309c2.568 0 3.86-2.21 3.86-6.562 0-3.723-1.105-5.491-3.434-5.491Zm-.306.595c1.649 0 2.312 1.666 2.312 5.746 0 3.621-.646 5.117-2.21 5.117-1.65 0-2.346-1.717-2.346-5.865 0-3.587.629-4.998 2.244-4.998Zm6.426 9.231c-.51 0-.97.476-.97.986s.46.986.953.986c.544 0 1.02-.459 1.02-.986 0-.51-.476-.986-1.003-.986Zm9.23 1.938v-.51l-.883-.051c-.935-.051-1.105-.238-1.105-1.122V181.75l-4.097 1.734.119.85 2.55-1.122v8.806c0 .884-.187 1.071-1.105 1.122l-.952.051v.51c2.618-.051 2.618-.051 2.805-.051.527 0 2.397.051 2.669.051Zm1.905-2.567a15 15 0 0 1-.374 2.244c.646.306 1.224.459 1.819.459.833 0 1.615-.306 2.482-.986s1.224-1.309 1.224-2.159c0-.918-.544-1.411-1.802-1.649l-.731-.136c-1.02-.187-1.343-.476-1.343-1.173 0-.901.765-1.598 1.734-1.598.697 0 1.343.306 1.615.765v.935h.39c.069-.595.137-1.054.324-1.921-.663-.323-1.14-.459-1.7-.459-.884 0-1.921.51-2.737 1.326-.442.459-.63.884-.63 1.496 0 .952.528 1.496 1.65 1.717l1.07.204c.749.136 1.02.442 1.02 1.105 0 1.105-.781 1.853-1.988 1.853a2.37 2.37 0 0 1-1.598-.595v-1.428Z"/></svg></svg>