<svg xmlns="http://www.w3.org/2000/svg" width="413.6" height="333.1" style="width:413.6000162760417px;height:333.09999593098956px;background:0 0;fill:none"><svg xmlns="http://www.w3.org/2000/svg"/><svg xmlns="http://www.w3.org/2000/svg" class="role-diagram-draw-area" style="overflow:visible"><g class="shapes-region" style="stroke:#000;fill:none"><g class="grouped-shape"><g class="arrow-line"><path stroke-dasharray="3" d="m12.17 79.5 120.98 69.85" class="connection real" style="stroke:#000;stroke-width:1;fill:none;fill-opacity:1"/></g><g class="arrow-line"><path stroke-dasharray="3" d="M12.17 79.5h139.11" class="connection real" style="stroke:#000;stroke-width:1;fill:none;fill-opacity:1"/></g><g class="composite-shape"><path stroke="none" d="M133 9.74c11.87 20.52 18.67 44.35 18.67 69.76 0 60.28-38.24 111.63-91.78 131.12L12.17 79.5Z" class="real" style="stroke-width:1;stroke:none;fill:none;fill-opacity:1"/><path d="M133 9.74c11.87 20.52 18.67 44.35 18.67 69.76 0 60.28-38.24 111.63-91.78 131.12" class="real" style="stroke-width:1;stroke:#000;fill:none;fill-opacity:1"/></g><g class="arrow-line"><path d="m133.15 149.35 18.57-32.16" class="connection real" style="stroke:#900;stroke-opacity:1;stroke-width:2;fill:none;fill-opacity:1"/><path stroke="#900" d="M14.21-4.28Q6.45-.59 0 0q6.45.59 14.21 4.28" style="stroke:#900;stroke-width:2" transform="rotate(120 43.526 101.528)"/></g><g class="composite-shape"><path d="M147.81 79.5c0-1.91 1.56-3.47 3.47-3.47s3.47 1.56 3.47 3.47-1.56 3.47-3.47 3.47-3.47-1.56-3.47-3.47Z" class="real" style="stroke-width:1;stroke:#900;stroke-opacity:1;fill:#900;fill-opacity:1"/></g><g class="arrow-line"><path stroke-dasharray="3" d="m219.5 79.83 120.98 69.85" class="connection real" style="stroke:#000;stroke-width:1;fill:none;fill-opacity:1"/></g><g class="arrow-line"><path stroke-dasharray="3" d="M219.5 79.83 346 138.82" class="connection real" style="stroke:#000;stroke-width:1;fill:none;fill-opacity:1"/></g><g class="composite-shape"><path stroke="none" d="M340.33 10.07C352.2 30.59 359 54.42 359 79.83c0 60.28-38.23 111.63-91.78 131.13L219.5 79.83Z" class="real" style="stroke-width:1;stroke:none;fill:none;fill-opacity:1"/><path d="M340.33 10.07C352.2 30.59 359 54.42 359 79.83c0 60.28-38.23 111.63-91.78 131.13" class="real" style="stroke-width:1;stroke:#000;fill:none;fill-opacity:1"/></g><g class="composite-shape"><path d="M129.68 149.35c0-1.91 1.56-3.47 3.47-3.47s3.47 1.56 3.47 3.47-1.56 3.47-3.47 3.47-3.47-1.56-3.47-3.47Z" class="real" style="stroke-width:1;stroke:#900;stroke-opacity:1;fill:#900;fill-opacity:1"/></g><g class="composite-shape"><path d="M337.02 149.68c0-1.91 1.55-3.46 3.46-3.46a3.465 3.465 0 1 1-3.46 3.46Z" class="real" style="stroke-width:1;stroke:#900;stroke-opacity:1;fill:#900;fill-opacity:1"/></g><g class="composite-shape"><path d="M342.54 138.82c0-1.91 1.55-3.46 3.46-3.46a3.465 3.465 0 1 1-3.46 3.46Z" class="real" style="stroke-width:1;stroke:#900;stroke-opacity:1;fill:#900;fill-opacity:1"/></g><g class="arrow-line"><path d="M151.28 79.5V42.37" class="connection real" style="stroke:#900;stroke-opacity:1;stroke-width:2;fill:none;fill-opacity:1"/><path stroke="#900" d="M14.21-4.28Q6.45-.59 0 0q6.45.59 14.21 4.28" style="stroke:#900;stroke-width:2" transform="rotate(90 55.955 95.325)"/></g><g class="arrow-line"><path d="m340.48 149.68 18.57-32.15" class="connection real" style="stroke:#900;stroke-opacity:1;stroke-width:2;fill:none;fill-opacity:1"/><path stroke="#900" d="M14.21-4.28Q6.45-.59 0 0q6.45.59 14.21 4.28" style="stroke:#900;stroke-width:2" transform="rotate(120 147.097 161.546)"/></g><g class="arrow-line"><path d="m346 138.82 15.69-33.65" class="connection real" style="stroke:#900;stroke-opacity:1;stroke-width:2;fill:none;fill-opacity:1"/><path stroke="#900" d="M14.21-4.28Q6.45-.59 0 0q6.45.59 14.21 4.28" style="stroke:#900;stroke-width:2" transform="rotate(115 148.846 166.842)"/></g><g class="composite-shape"><path d="M93.68 293.05c0-1.91 1.56-3.47 3.47-3.47s3.47 1.56 3.47 3.47-1.56 3.47-3.47 3.47-3.47-1.56-3.47-3.47Z" class="real" style="stroke-width:1;stroke:#900;stroke-opacity:1;fill:#900;fill-opacity:1"/></g><g class="composite-shape"><path d="M295 293.05c0-1.91 1.55-3.47 3.47-3.47a3.47 3.47 0 0 1 3.46 3.47 3.47 3.47 0 0 1-3.46 3.47c-1.92 0-3.47-1.56-3.47-3.47Z" class="real" style="stroke-width:1;stroke:#900;stroke-opacity:1;fill:#900;fill-opacity:1"/></g><g class="arrow-line"><path d="m97.15 293.05 18.07-31.29" class="connection real" style="stroke:#900;stroke-opacity:1;stroke-width:2;fill:none;fill-opacity:1"/><path fill="#900" stroke="none" d="M13.4-6.43 0 0l13.4 6.44L8.9 0Z" style="stroke:none;fill:#900;stroke-width:2" transform="rotate(120 -15.956 162.985)"/></g><g class="arrow-line"><path d="M97.15 293.05v-36.13" class="connection real" style="stroke:#900;stroke-opacity:1;stroke-width:2;fill:none;fill-opacity:1"/><path fill="#900" stroke="none" d="M13.4-6.43 0 0l13.4 6.44L8.9 0Z" style="stroke:none;fill:#900;stroke-width:2" transform="rotate(90 -77.885 175.035)"/></g><g class="arrow-line"><path d="m298.47 293.05 18.06-31.29" class="connection real" style="stroke:#900;stroke-opacity:1;stroke-width:2;fill:none;fill-opacity:1"/><path fill="#900" stroke="none" d="M13.4-6.43 0 0l13.4 6.44L8.9 0Z" style="stroke:none;fill:#900;stroke-width:2" transform="rotate(120 84.702 221.1)"/></g><g class="arrow-line"><path d="m298.47 293.05 15.27-32.74" class="connection real" style="stroke:#900;stroke-opacity:1;stroke-width:2;fill:none;fill-opacity:1"/><path fill="#900" stroke="none" d="M13.4-6.43 0 0l13.4 6.44L8.9 0Z" style="stroke:none;fill:#900;stroke-width:2" transform="rotate(115 75.951 228.814)"/></g><g class="arrow-line"><path d="m340.48 149.68-60.24-28.09" class="connection real" style="stroke:#000;stroke-opacity:1;stroke-width:2;fill:none;fill-opacity:1"/><path d="M14.21-4.28Q6.45-.59 0 0q6.45.59 14.21 4.28" style="stroke:#000;stroke-width:2" transform="rotate(25 -132.613 686.077)"/></g><g class="arrow-line"><path d="m133.15 149.35-64.2-17.2" class="connection real" style="stroke:#000;stroke-opacity:1;stroke-width:2;fill:none;fill-opacity:1"/><path d="M14.21-4.28Q6.45-.59 0 0q6.45.59 14.21 4.28" style="stroke:#000;stroke-width:2" transform="rotate(15 -465.903 316.53)"/></g><g class="arrow-line"><path d="m117.22 258.3-64.21-17.21" class="connection real" style="stroke:#000;stroke-opacity:1;stroke-width:2;fill:none;fill-opacity:1"/><path d="M14.21-4.28Q6.45-.59 0 0q6.45.59 14.21 4.28" style="stroke:#000;stroke-width:2" transform="rotate(15 -887.637 310.484)"/></g><g class="arrow-line"><path d="m318.53 258.3-60.24-28.09" class="connection real" style="stroke:#000;stroke-opacity:1;stroke-width:2;fill:none;fill-opacity:1"/><path d="M14.21-4.28Q6.45-.59 0 0q6.45.59 14.21 4.28" style="stroke:#000;stroke-width:2" transform="rotate(25 -388.55 690.873)"/></g></g></g></svg><svg xmlns="http://www.w3.org/2000/svg" xmlns:xlink="http://www.w3.org/1999/xlink" width="412" height="331.5" style="width:412px;height:331.5px;font-family:Asana-Math,Asana;background:0 0"><path fill="#900" stroke="#900" stroke-width=".136" d="m142.308 160.52-.952 4.811c-.017.136-.221.782-.221 1.292 0 .425.187.68.51.68.595 0 1.19-.34 2.516-1.411l.527-.425-.17-.306-.765.527q-.74.51-1.02.51c-.153 0-.238-.136-.238-.34 0-.442.238-1.819.731-4.284l.221-1.054h1.819l.187-.85a17 17 0 0 1-1.87.102c.272-1.598.459-2.431.765-3.349l-.187-.255c-.34.204-.799.408-1.326.612l-.425 2.89c-.748.357-1.19.544-1.496.629l-.034.221Zm203.092.325-.952 4.811c-.017.136-.221.782-.221 1.292 0 .425.187.68.51.68.595 0 1.19-.34 2.516-1.411l.527-.425-.17-.306-.765.527q-.74.51-1.02.51c-.153 0-.238-.136-.238-.34 0-.442.238-1.819.731-4.284l.221-1.054h1.819l.187-.85a17 17 0 0 1-1.87.102c.272-1.598.459-2.431.765-3.349l-.187-.255c-.34.204-.799.408-1.326.612l-.425 2.89c-.748.357-1.19.544-1.496.629l-.034.221Zm9.758-10.863-.952 4.811c-.017.136-.221.782-.221 1.292 0 .425.187.68.51.68.595 0 1.19-.34 2.516-1.41l.527-.426-.17-.306-.765.527q-.74.51-1.02.51c-.153 0-.238-.136-.238-.34 0-.442.238-1.819.731-4.284l.221-1.054h1.819l.187-.85a17 17 0 0 1-1.87.102c.272-1.598.459-2.43.765-3.349l-.187-.255c-.34.204-.799.408-1.326.612l-.425 2.89c-.748.357-1.19.544-1.496.63l-.034.22Zm17.197 2.533v-1.003h-4.08v-4.046h-1.003v4.046h-4.08v1.003h4.08v4.097h1.003v-4.097Zm15.749 3.995-.119.17c-1.802-.068-3.604-.068-5.423-.068-1.717 0-3.434.017-5.151.068l-.102-.17c1.037-1.87 1.853-3.944 2.703-5.916.833-1.904 1.734-3.842 2.397-5.83h.425c.731 1.818 4.165 9.672 5.27 11.746Zm-1.326-.527a176 176 0 0 0-3.621-8.959h-.119c-1.275 2.941-2.499 5.933-3.604 8.96Zm3.897-6.001-.952 4.811c-.017.136-.221.782-.221 1.292 0 .425.187.68.51.68.595 0 1.19-.34 2.516-1.41l.527-.426-.17-.306-.765.527q-.74.51-1.02.51c-.153 0-.238-.136-.238-.34 0-.442.238-1.819.731-4.284l.221-1.054h1.819l.187-.85a17 17 0 0 1-1.87.102c.272-1.598.459-2.43.765-3.349l-.187-.255c-.34.204-.799.408-1.326.612l-.425 2.89c-.748.357-1.19.544-1.496.63l-.034.22Z"/><path fill="#000" stroke="#000" stroke-width=".136" d="m81.204 323.198-.119.17c-1.802-.068-3.604-.068-5.423-.068-1.717 0-3.434.017-5.151.068l-.102-.17c1.037-1.87 1.853-3.944 2.703-5.916.833-1.904 1.734-3.842 2.397-5.831h.425c.731 1.819 4.165 9.673 5.27 11.747Zm-1.326-.527a176 176 0 0 0-3.621-8.959h-.119c-1.275 2.941-2.499 5.933-3.604 8.959Zm3.897-6.001-.952 4.811c-.017.136-.221.782-.221 1.292 0 .425.187.68.51.68.595 0 1.19-.34 2.516-1.411l.527-.425-.17-.306-.765.527q-.74.51-1.02.51c-.153 0-.238-.136-.238-.34 0-.442.238-1.819.731-4.284l.221-1.054h1.819l.187-.85a17 17 0 0 1-1.87.102c.272-1.598.459-2.431.765-3.349l-.187-.255c-.34.204-.799.408-1.326.612l-.425 2.89c-.748.357-1.19.544-1.496.629l-.034.221Zm18.893.731v-1.003h-9.163v1.003Zm0 3.621v-1.003h-9.163v1.003Zm13.301 2.329v-.51l-.884-.051c-.935-.051-1.105-.238-1.105-1.122V311.4l-4.097 1.734.119.85 2.55-1.122v8.806c0 .884-.187 1.071-1.105 1.122l-.952.051v.51c2.618-.051 2.618-.051 2.805-.051.527 0 2.397.051 2.669.051Zm1.904-2.567a15 15 0 0 1-.374 2.244c.646.306 1.224.459 1.819.459.833 0 1.615-.306 2.482-.986s1.224-1.309 1.224-2.159c0-.918-.544-1.411-1.802-1.649l-.731-.136c-1.02-.187-1.343-.476-1.343-1.173 0-.901.765-1.598 1.734-1.598.697 0 1.343.306 1.615.765v.935h.39c.069-.595.137-1.054.324-1.921-.663-.323-1.14-.459-1.7-.459-.884 0-1.921.51-2.737 1.326-.442.459-.63.884-.63 1.496 0 .952.528 1.496 1.65 1.717l1.07.204c.749.136 1.02.442 1.02 1.105 0 1.105-.781 1.853-1.988 1.853a2.37 2.37 0 0 1-1.598-.595v-1.428Zm163.831 2.414-.119.17c-1.802-.068-3.604-.068-5.423-.068-1.717 0-3.434.017-5.151.068l-.102-.17c1.037-1.87 1.853-3.944 2.703-5.916.833-1.904 1.734-3.842 2.397-5.831h.425c.731 1.819 4.165 9.673 5.27 11.747Zm-1.326-.527a176 176 0 0 0-3.621-8.959h-.119c-1.275 2.941-2.499 5.933-3.604 8.959Zm3.897-6.001-.952 4.811c-.017.136-.221.782-.221 1.292 0 .425.187.68.51.68.595 0 1.19-.34 2.516-1.411l.527-.425-.17-.306-.765.527q-.74.51-1.02.51c-.153 0-.238-.136-.238-.34 0-.442.238-1.819.731-4.284l.221-1.054h1.819l.187-.85a17 17 0 0 1-1.87.102c.272-1.598.459-2.431.765-3.349l-.187-.255c-.34.204-.799.408-1.326.612l-.425 2.89c-.748.357-1.19.544-1.496.629l-.034.221Zm18.893.731v-1.003h-9.163v1.003Zm0 3.621v-1.003h-9.163v1.003Zm10.666-9.435c-2.635 0-3.978 2.091-3.978 6.205 0 1.989.357 3.706.952 4.539s1.547 1.309 2.6 1.309c2.568 0 3.86-2.21 3.86-6.562 0-3.723-1.105-5.491-3.434-5.491Zm-.306.595c1.649 0 2.312 1.666 2.312 5.746 0 3.621-.646 5.117-2.21 5.117-1.65 0-2.346-1.717-2.346-5.865 0-3.587.629-4.998 2.244-4.998Zm6.426 9.231c-.51 0-.97.476-.97.986s.46.986.953.986c.544 0 1.02-.459 1.02-.986 0-.51-.476-.986-1.003-.986Zm9.23 1.938v-.51l-.883-.051c-.935-.051-1.105-.238-1.105-1.122V311.4l-4.097 1.734.119.85 2.55-1.122v8.806c0 .884-.187 1.071-1.105 1.122l-.952.051v.51c2.618-.051 2.618-.051 2.805-.051.527 0 2.397.051 2.669.051Zm1.905-2.567a15 15 0 0 1-.374 2.244c.646.306 1.224.459 1.819.459.833 0 1.615-.306 2.482-.986s1.224-1.309 1.224-2.159c0-.918-.544-1.411-1.802-1.649l-.731-.136c-1.02-.187-1.343-.476-1.343-1.173 0-.901.765-1.598 1.734-1.598.697 0 1.343.306 1.615.765v.935h.39c.069-.595.137-1.054.324-1.921-.663-.323-1.14-.459-1.7-.459-.884 0-1.921.51-2.737 1.326-.442.459-.63.884-.63 1.496 0 .952.528 1.496 1.65 1.717l1.07.204c.749.136 1.02.442 1.02 1.105 0 1.105-.781 1.853-1.988 1.853a2.37 2.37 0 0 1-1.598-.595v-1.428Z"/></svg></svg>