<svg xmlns="http://www.w3.org/2000/svg" width="161.6" height="118.8" style="width:161.60000610351562px;height:118.80000305175781px;background:0 0;fill:none"><svg xmlns="http://www.w3.org/2000/svg"/><svg xmlns="http://www.w3.org/2000/svg" class="role-diagram-draw-area"><g class="shapes-region" style="stroke:#000;fill:none"><g class="arrow-line"><path d="m37.36 40.03 2.65 4.28" class="connection real" style="stroke:#000;stroke-width:1;fill:none;fill-opacity:1"/></g><g class="composite-shape"><path d="M18.71 49.47c0-4.61 3.73-8.34 8.33-8.34 4.61 0 8.34 3.73 8.34 8.34 0 4.6-3.73 8.33-8.34 8.33a8.33 8.33 0 0 1-8.33-8.33Z" class="real" style="stroke-width:1;stroke:#900;stroke-opacity:1;fill:none;fill-opacity:1"/></g><g class="arrow-line"><path d="M27.04 57.8v31.33" class="connection real" style="stroke:#900;stroke-opacity:1;stroke-width:1;fill:none;fill-opacity:1"/></g><g class="arrow-line"><path d="m27.04 89.13-11.75 11.76" class="connection real" style="stroke:#900;stroke-opacity:1;stroke-width:1;fill:none;fill-opacity:1"/></g><g class="arrow-line"><path d="m27.04 89.13 11.17 11.17" class="connection real" style="stroke:#900;stroke-opacity:1;stroke-width:1;fill:none;fill-opacity:1"/></g><g class="arrow-line"><path d="m27.04 57.8-8.83 13.09" class="connection real" style="stroke:#900;stroke-opacity:1;stroke-width:1;fill:none;fill-opacity:1"/></g><g class="arrow-line"><path d="m27.04 57.8 10.32-17.77" class="connection real" style="stroke:#900;stroke-opacity:1;stroke-width:1;fill:none;fill-opacity:1"/></g><g class="composite-shape"><path d="M10 40.03c0-2.37 12.25-4.29 27.36-4.29s27.35 1.92 27.35 4.29-12.24 4.28-27.35 4.28S10 42.4 10 40.03Z" class="real" style="stroke-width:1;stroke:#000;stroke-opacity:1;fill:none;fill-opacity:1;stroke-dasharray:3"/></g><g class="composite-shape"><path d="M37.36 44.31a2.655 2.655 0 1 1 5.31.01 2.655 2.655 0 0 1-5.31-.01Z" class="real" style="stroke-width:1;stroke:#900;stroke-opacity:1;fill:#900;fill-opacity:1"/></g><g class="composite-shape" data-amt="diagram/shapes/plot"><g class="test-plot-expression" transform="translate(38.243 42.81)"><defs><clipPath id="cpkrfcw5p8b"><path d="M1 1h90.48v57.315H1z"/></clipPath></defs><g clip-path="url(#cpkrfcw5p8b)"><path d="m0 1.46.5-.01.51-.01h.5l.5.01.5.02.51.02.5.03.5.03.5.05.51.05.5.06.5.06.51.07.5.08.5.08.5.09.51.1.5.11.5.11.5.12.51.13.5.13.5.14.51.15.5.15.5.16.5.17.51.17.5.19.5.18.5.2.51.2.5.21.5.22.51.22.5.23.5.24.5.24.51.25.5.26.5.26.5.27.51.28.5.29.5.29.51.3.5.3.5.32.5.32.51.32.5.34.5.34.5.35.51.35.5.36.5.37.5.37.51.39.5.39.5.39.51.4.5.41.5.42.5.42.51.43.5.44.5.45.5.45.51.45.5.47.5.47.51.48.5.49.5.49.5.5.51.5.5.52.5.52.5.52.51.54.5.54.5.55.51.55.5.56.5.57.5.58.51.58.5.59.5.6.5.6.51.61.5.62.5.62.51.63.5.64.5.64.5.66.51.65.5.67.5.67.5.68.51.69.5.69.5.7.51.71.5.71.5.72.5.73.51.73.5.74.5.75.5.76.51.76.5.77.5.78.51.78.5.79.5.79.5.81.51.81.5.82.5.82.5.83.51.84.5.84.5.86.51.86.5.86.5.87.5.88.51.89.5.89.5.9.5.91.51.92.5.92.5.93.51.93.5.94.5.95.5.96.51.96.5.97.5.98.5.98.51.99.5 1 .5 1 .5 1.01.51 1.02.5 1.02.5 1.04.51 1.03.5 1.05.5 1.05.5 1.06.51 1.07.5 1.07.5 1.08.5 1.09.51 1.09.5 1.1.5 1.11.51 1.12.5 1.12.5 1.13.5 1.13.51 1.14.5 1.15.5 1.16.5 1.16.51 1.17.5 1.18.5 1.18.51 1.19.5 1.2.5 1.2.5 1.22.51 1.21.5 1.23.5 1.23.5 1.24.51 1.25.48 1.2" style="stroke-width:1;stroke:#900;stroke-opacity:1"/></g></g><path stroke="none" d="M1 1h90.48v57.315H1z" class="real" style="fill:transparent;stroke:none" transform="translate(38.243 42.81)"/></g><g class="arrow-line"><path d="M40.01 44.31h40.63" class="connection real" style="stroke:#900;stroke-opacity:1;stroke-width:1;fill:none;fill-opacity:1"/><path fill="#900" stroke="none" d="M10.72-5.15 0 0l10.72 5.15L7.12 0Z" style="stroke:none;fill:#900;stroke-width:1" transform="matrix(-1 0 0 -1 83.643 44.314)"/></g><g class="composite-shape"><defs><pattern id="_pgflmb3jmuwn" width="11.314" height="11.314" x="0" y="0" patternTransform="rotate(45 0 0)" patternUnits="userSpaceOnUse"><path d="M0 0v11.314M5.657 0v11.314M11.314 0v11.314" style="stroke:#000;stroke-opacity:1;stroke-width:1;fill:none"/></pattern></defs><path d="M-23 101.15h399.8v20.15H-23Z" class="real" style="stroke-width:1;stroke:#000;fill:url(#_pgflmb3jmuwn);fill-opacity:1"/></g></g></svg><svg xmlns="http://www.w3.org/2000/svg" xmlns:xlink="http://www.w3.org/1999/xlink" width="160" height="117.2" style="width:160px;height:117.20000457763672px;font-family:Asana-Math,Asana;background:0 0"><path fill="#900" stroke="#900" stroke-width=".136" d="M89.41 45.16c.357 0 .629-.017 1.07-.068-1.886 2.04-2.6 3.451-2.6 5.151 0 1.309.782 2.244 1.87 2.244 2.346 0 4.947-4.199 4.947-6.715 0-.969-.442-1.666-1.054-1.666-.221 0-.425.068-.561.204l-.85.799.187.323a.8.8 0 0 1 .459-.153c.459 0 .73.391.73 1.071 0 2.516-1.648 5.287-3.144 5.287-.833 0-1.36-.714-1.36-1.819 0-1.785.663-3.332 2.329-5.406l-.17-.306c-.34.153-.561.204-1.037.204s-1.19-.034-1.683-.085l-.204-.017c-.102-.017-.187-.017-.204-.017-.204 0-.357.034-.544.119-.238.459-.425 1.071-.646 2.006h.374l.289-.714c.119-.289.459-.476.867-.476.56 0 .289.034.935.034Z"/><path fill="#900" stroke="#900" stroke-width=".095" d="M98.705 47.113c-1.845 0-2.785 1.464-2.785 4.344 0 1.392.25 2.594.667 3.177a2.2 2.2 0 0 0 1.82.917c1.797 0 2.702-1.547 2.702-4.594 0-2.606-.774-3.844-2.404-3.844Zm-.214.417c1.154 0 1.618 1.166 1.618 4.022 0 2.535-.452 3.582-1.547 3.582-1.154 0-1.642-1.202-1.642-4.105 0-2.511.44-3.5 1.57-3.5Z"/><svg width="16.788" height="10" x="86.588" y="29.3" overflow="visible"><path d="m16.79 5.39-3.5-3.69-.54.58 2.14 2.58h-.17v1h.17l-2.14 2.58.54.58zm-14.92.42h14.41v-1H1.87z" style="fill:#900;fill-opacity:1;stroke-width:1px;stroke:none;stroke-opacity:1"/></svg></svg></svg>