<svg xmlns="http://www.w3.org/2000/svg" width="443.6" height="309" style="width:443.6px;height:309px;background:#fff;fill:none"><svg xmlns="http://www.w3.org/2000/svg"/><svg xmlns="http://www.w3.org/2000/svg" class="role-diagram-draw-area" style="overflow:visible"><g class="shapes-region" style="stroke:#000;fill:none"><g class="arrow-line"><path d="m12.17 151.5 119.25 68.85" class="connection real" style="stroke:#000;stroke-width:1;fill:none;fill-opacity:1"/><path d="M10.93-3.29Q4.96-.45 0 0q4.96.45 10.93 3.29" style="stroke:#000;stroke-width:1" transform="rotate(210 96.23 92.836)"/></g><g class="arrow-line"><path d="m12.17 151.5 118.74-68.56" class="connection real" style="stroke:#000;stroke-width:1;fill:none;fill-opacity:1"/><path d="M10.93-3.29Q4.96-.45 0 0q4.96.45 10.93 3.29" style="stroke:#000;stroke-width:1" transform="rotate(150 55.343 58.742)"/></g><g class="composite-shape"><path stroke="none" d="M59.89 20.38c53.54 19.49 91.78 70.84 91.78 131.12s-38.24 111.63-91.78 131.12L12.17 151.5Z" class="real" style="stroke-width:1;stroke:none;fill:none;fill-opacity:1;stroke-dasharray:3"/><path d="M59.89 20.38c53.54 19.49 91.78 70.84 91.78 131.12s-38.24 111.63-91.78 131.12" class="real" style="stroke-width:1;stroke:#000;fill:none;fill-opacity:1;stroke-dasharray:3"/></g><g class="arrow-line"><path d="m133.15 221.35 35.13-60.84" class="connection real" style="stroke:#900;stroke-opacity:1;stroke-width:2;fill:none;fill-opacity:1"/><path stroke="#900" d="M14.21-4.28Q6.45-.59 0 0q6.45.59 14.21 4.28" style="stroke:#900;stroke-width:2" transform="rotate(120 39.302 127.967)"/></g><g class="composite-shape"><path d="M129.18 81.94c0-1.91 1.55-3.46 3.46-3.46a3.465 3.465 0 1 1-3.46 3.46Z" class="real" style="stroke-width:1;stroke:#900;stroke-opacity:1;fill:#900;fill-opacity:1"/></g><g class="composite-shape"><path d="M129.68 221.35c0-1.91 1.56-3.47 3.47-3.47s3.47 1.56 3.47 3.47-1.56 3.47-3.47 3.47-3.47-1.56-3.47-3.47Z" class="real" style="stroke-width:1;stroke:#900;stroke-opacity:1;fill:#900;fill-opacity:1"/></g><g class="arrow-line"><path d="M132.64 81.94 97.52 21.11" class="connection real" style="stroke:#900;stroke-opacity:1;stroke-width:2;fill:none;fill-opacity:1"/><path stroke="#900" d="M14.21-4.28Q6.45-.59 0 0q6.45.59 14.21 4.28" style="stroke:#900;stroke-width:2" transform="rotate(60 31.981 92.407)"/></g><g class="composite-shape"><path stroke="none" d="M25.06 144.05c1.27 2.19 2 4.74 2 7.45s-.73 5.26-2 7.45l-12.89-7.45Z" class="real" style="stroke-width:1;stroke:none;stroke-opacity:1;fill:none;fill-opacity:1"/><path d="M25.06 144.05c1.27 2.19 2 4.74 2 7.45s-.73 5.26-2 7.45" class="real" style="stroke-width:1;stroke:#900;stroke-opacity:1;fill:none;fill-opacity:1"/></g><g class="arrow-line"><path d="m133.15 217.88-.5-129.47" class="connection real" style="stroke:#900;stroke-opacity:1;stroke-width:1;fill:none;fill-opacity:1"/><path fill="#900" stroke="none" d="M10.72-5.15 0 0l10.72 5.15L7.12 0Z" style="stroke:none;fill:#900;stroke-width:1" transform="rotate(89.78 23.452 109.281)"/></g><g class="arrow-line"><path d="m291.62 148.38 36.63-63.44" class="connection real" style="stroke:#900;stroke-opacity:1;stroke-width:2;fill:none;fill-opacity:1"/></g><g class="arrow-line"><path d="M291.62 148.38 255 84.94" class="connection real" style="stroke:#900;stroke-opacity:1;stroke-width:2;fill:none;fill-opacity:1"/></g><g class="composite-shape"><path stroke="none" d="M284.18 135.48c2.19-1.27 4.73-1.99 7.44-1.99 2.72 0 5.26.72 7.45 1.99l-7.45 12.9Z" class="real" style="stroke-width:1;stroke:none;stroke-opacity:1;fill:none;fill-opacity:1"/><path d="M284.18 135.48c2.19-1.27 4.73-1.99 7.44-1.99 2.72 0 5.26.72 7.45 1.99" class="real" style="stroke-width:1;stroke:#000;stroke-opacity:1;fill:none;fill-opacity:1"/></g><g class="arrow-line"><path d="M328.25 84.94H258" class="connection real" style="stroke:#000;stroke-opacity:1;stroke-width:1;fill:none;fill-opacity:1"/><path fill="#000" stroke="none" d="M10.72-5.15 0 0l10.72 5.15L7.12 0Z" style="stroke:none;fill:#000;stroke-width:1" transform="translate(255 84.942)"/></g><g class="arrow-line"><path stroke-dasharray="3" d="m291.62 148.38 120.99 69.85" class="connection real" style="stroke:#000;stroke-width:1;fill:none;fill-opacity:1"/></g><g class="arrow-line"><path stroke-dasharray="3" d="M291.62 148.38 412.1 78.82" class="connection real" style="stroke:#000;stroke-width:1;fill:none;fill-opacity:1"/></g><g class="composite-shape"><path d="M288.16 148.38a3.465 3.465 0 1 1 6.93-.01 3.465 3.465 0 0 1-6.93.01Z" class="real" style="stroke-width:1;stroke:#900;stroke-opacity:1;fill:#900;fill-opacity:1"/></g><g class="composite-shape"><path stroke="none" d="M304.52 140.93c1.27 2.19 1.99 4.74 1.99 7.45s-.72 5.25-1.99 7.44l-12.9-7.44Z" class="real" style="stroke-width:1;stroke:none;stroke-opacity:1;fill:none;fill-opacity:1"/><path d="M304.52 140.93c1.27 2.19 1.99 4.74 1.99 7.45s-.72 5.25-1.99 7.44" class="real" style="stroke-width:1;stroke:#900;stroke-opacity:1;fill:none;fill-opacity:1"/></g><g class="arrow-line"><path d="M412.61 218.23V81.82" class="connection real" style="stroke:#900;stroke-opacity:1;stroke-width:1;fill:none;fill-opacity:1"/><path fill="#900" stroke="none" d="M10.72-5.15 0 0l10.72 5.15L7.12 0Z" style="stroke:none;fill:#900;stroke-width:1" transform="rotate(90 166.893 245.715)"/></g></g></svg><svg xmlns="http://www.w3.org/2000/svg" xmlns:xlink="http://www.w3.org/1999/xlink" width="442" height="307.4" style="width:442px;height:307.40000000000003px;font-family:Asana-Math,Asana;background:#fff"><path fill="#900" stroke="#900" stroke-width=".136" d="M40.449 148.582c-.306-1.938-1.088-3.366-3.247-3.366-4.42 0-5.032 4.93-4.454 8.551.323 2.023 1.19 3.655 3.502 3.655 4.012 0 4.692-5.644 4.199-8.84Zm-1.173 2.091h-5.372c.119-1.768.867-5.015 3.06-5.015 1.462 0 2.023 1.547 2.21 2.703.119.765.102 1.547.102 2.312Zm0 .544c-.085 1.904-.408 5.712-2.839 5.712-1.734 0-2.21-1.904-2.414-3.23-.136-.833-.119-1.666-.119-2.482Zm79.578 9.593-.119.17c-1.802-.067-3.604-.067-5.423-.067-1.717 0-3.434.017-5.151.068l-.102-.17c1.037-1.87 1.853-3.944 2.703-5.916.833-1.904 1.734-3.842 2.397-5.831h.425c.731 1.819 4.165 9.673 5.27 11.747Zm-1.326-.526a176 176 0 0 0-3.621-8.96h-.119c-1.275 2.942-2.499 5.934-3.604 8.96Zm8.978-5.576c.051-.646.136-1.19.272-1.887-.187-.085-.255-.102-.34-.102-.527 0-1.054.408-1.666 1.275-.663.952-1.326 1.972-1.598 2.567l.544-2.584c.068-.29.102-.51.102-.714 0-.34-.136-.544-.391-.544-.357 0-1.003.357-2.261 1.258l-.476.34.119.34.544-.357c.476-.306.663-.391.816-.391.17 0 .289.153.289.374 0 .986-.731 4.488-1.411 6.664l.17.119c.255-.085.527-.136.918-.221l.221-.034.442-2.04c.306-1.411.697-2.312 1.445-3.281.578-.748 1.037-1.105 1.411-1.105.255 0 .425.085.612.323Z"/><svg width="9.35" height="10" x="119.3" y="141.913" overflow="visible"><path d="M9.35 4.85 6.2 1.53l-.49.52 1.93 2.33h-.15v.9h.15L5.71 7.61l.49.52zm-7.67.38h7.21v-.9H1.68z" style="fill:#900;fill-opacity:1;stroke-width:1px;stroke:none;stroke-opacity:1"/></svg><path fill="#000" stroke="#000" stroke-width=".095" d="M53.95 117.959c-.195-.41-.333-.77-.495-1.24-.143.014-.19.028-.242.058-.32.184-.496.616-.563 1.356-.07.809-.114 1.66-.07 2.115l-.575-1.757a2.2 2.2 0 0 0-.188-.468c-.12-.206-.273-.282-.428-.193-.216.125-.483.567-.93 1.554l-.17.372.191.165.205-.407c.182-.352.265-.469.358-.523.103-.059.229-.008.306.126.345.598 1.128 2.977 1.477 4.534l.145.012c.125-.14.272-.267.479-.455l.122-.098-.446-1.391c-.308-.963-.387-1.646-.272-2.495.088-.656.242-1.033.468-1.164.155-.089.288-.097.484-.018Zm2.707.721c-1.547-2.68-1.178-4.349-.985-5.395l-.35-.155c-.284.865-1.193 3.217.449 6.062a7.5 7.5 0 0 0 2.525 2.637c.76.482 1.322.693 2.625.999l.07-.33c-.813-.313-2.662-.922-4.334-3.818Zm2.067-3.82 1.107 3.249c.037.088.14.551.318.86.148.258.351.347.547.234.36-.208.602-.622 1.031-1.736l.171-.442-.21-.126-.28.587q-.27.569-.44.667c-.092.053-.191 0-.263-.123-.154-.268-.492-1.186-1.056-2.853l-.235-.716 1.103-.637-.184-.58c-.368.267-.706.49-1.098.716-.394-1.064-.573-1.635-.708-2.298l-.203-.09a6.3 6.3 0 0 1-.59.836l.754 1.9c-.328.479-.53.747-.687.905l.057.146Zm11.3-4.478-.35-.608-2.474 1.428-1.416-2.453-.608.352 1.416 2.452-2.473 1.428.35.608 2.474-1.428 1.434 2.484.608-.351-1.434-2.484Zm10.938-3.085-.013.144c-1.116.59-2.208 1.22-3.31 1.857a119 119 0 0 0-3.1 1.844l-.121-.067c-.026-1.497-.257-3.04-.432-4.533-.161-1.445-.294-2.936-.588-4.373l.258-.15c1.08.848 5.91 4.407 7.306 5.278Zm-.988.144a123 123 0 0 0-5.331-4.164l-.072.042c.256 2.23.561 4.471.95 6.693Zm.26-5.001 1.106 3.25c.038.089.14.552.319.86.148.258.351.348.547.235.36-.209.602-.623 1.031-1.736l.17-.443-.21-.126-.279.588q-.27.567-.44.666c-.092.053-.191 0-.263-.123-.154-.268-.492-1.186-1.056-2.853l-.235-.716 1.103-.637-.184-.58c-.368.267-.707.49-1.098.716-.395-1.064-.573-1.635-.709-2.298l-.202-.09a6.3 6.3 0 0 1-.59.836l.754 1.9c-.328.479-.531.747-.687.905l.057.146Zm1.059-4.304-.041.38c.947.333 2.632.872 4.18 3.551 1.641 2.845 1.29 4.71 1.139 5.663l.32.104c.25-.831 1.146-3.3-.568-6.268-1.648-2.855-4.14-3.244-5.03-3.43Zm-15.456 92.717c.257-.373.499-.673.825-1.048-.084-.117-.119-.151-.17-.181-.32-.185-.782-.122-1.457.19-.735.345-1.494.731-1.867.997l1.234-1.377c.143-.151.24-.273.312-.397.12-.206.108-.377-.047-.466-.216-.125-.733-.135-1.81-.03l-.408.04-.047.248.455-.026c.395-.019.539-.005.631.049.103.06.122.194.045.328-.346.597-2.014 2.465-3.188 3.546l.061.131c.185.038.367.102.634.188l.146.056.982-1.082c.68-.748 1.232-1.157 2.024-1.483.612-.251 1.016-.307 1.242-.176.155.09.228.2.258.41Zm.728 2.705c1.547-2.68 3.177-3.195 4.18-3.55l-.041-.381c-.891.186-3.383.575-5.025 3.42a7.5 7.5 0 0 0-1.021 3.505c-.038.899.06 1.49.447 2.772l.32-.103c-.134-.861-.532-2.767 1.14-5.663Zm4.342-.121-2.26 2.584c-.059.076-.408.396-.587.706-.149.257-.125.477.071.59.361.209.84.21 2.02.026l.468-.074.004-.245-.649.052q-.626.051-.796-.048c-.093-.053-.097-.165-.026-.29.155-.267.781-1.019 1.943-2.34l.503-.562 1.102.637.411-.45a12 12 0 0 1-1.169-.593c.724-.873 1.13-1.313 1.636-1.762l-.024-.22a6.3 6.3 0 0 1-1.018-.093l-1.27 1.603c-.578-.046-.911-.087-1.126-.142l-.098.122Zm4.258-1.235-.35.155c.185.987.561 2.716-.986 5.395-1.642 2.844-3.434 3.473-4.334 3.818l.07.33c.844-.2 3.43-.658 5.145-3.626 1.648-2.855.739-5.207.455-6.072Z"/><path fill="#000" stroke="#000" stroke-width=".136" d="M295.799 118.257c-.306-1.938-1.088-3.366-3.247-3.366-4.42 0-5.032 4.93-4.454 8.551.323 2.023 1.19 3.655 3.502 3.655 4.012 0 4.692-5.644 4.199-8.84Zm-1.173 2.091h-5.372c.119-1.768.867-5.015 3.06-5.015 1.462 0 2.023 1.547 2.21 2.703.119.765.102 1.547.102 2.312Zm0 .544c-.085 1.904-.408 5.712-2.839 5.712-1.734 0-2.21-1.904-2.414-3.23-.136-.833-.119-1.666-.119-2.482Zm-1.109-42.194-.12.17c-1.801-.068-3.603-.068-5.422-.068-1.717 0-3.434.017-5.151.068l-.102-.17c1.037-1.87 1.853-3.944 2.703-5.916.833-1.904 1.734-3.842 2.397-5.831h.425c.73 1.819 4.165 9.673 5.27 11.747Zm-1.326-.527a176 176 0 0 0-3.621-8.959h-.12c-1.274 2.941-2.498 5.933-3.603 8.959Zm4.594-6.511c.357 0 .629-.017 1.07-.068-1.886 2.04-2.6 3.451-2.6 5.151 0 1.309.782 2.244 1.87 2.244 2.346 0 4.947-4.199 4.947-6.715 0-.969-.442-1.666-1.054-1.666-.221 0-.425.068-.561.204l-.85.799.187.323a.8.8 0 0 1 .459-.153c.459 0 .73.391.73 1.071 0 2.516-1.648 5.287-3.144 5.287-.833 0-1.36-.714-1.36-1.819 0-1.785.663-3.332 2.329-5.406l-.17-.306c-.34.153-.561.204-1.037.204s-1.19-.034-1.683-.085l-.204-.017c-.102-.017-.187-.017-.204-.017-.204 0-.357.034-.544.119-.238.459-.425 1.071-.646 2.006h.374l.289-.714c.119-.289.459-.476.867-.476.56 0 .289.034.935.034Z"/><svg width="9.35" height="10" x="293.963" y="59.8" overflow="visible"><path d="M9.35 4.85 6.2 1.53l-.49.52 1.93 2.33h-.15v.9h.15L5.71 7.61l.49.52zm-7.67.38h7.21v-.9H1.68z" style="fill:#000;fill-opacity:1;stroke-width:1px;stroke:none;stroke-opacity:1"/></svg><path fill="#900" stroke="#900" stroke-width=".136" d="M320.762 146.582c-.306-1.938-1.088-3.366-3.247-3.366-4.42 0-5.032 4.93-4.454 8.551.323 2.023 1.19 3.655 3.502 3.655 4.012 0 4.692-5.644 4.199-8.84Zm-1.173 2.091h-5.372c.119-1.768.867-5.015 3.06-5.015 1.462 0 2.023 1.547 2.21 2.703.119.765.102 1.547.102 2.312Zm0 .544c-.085 1.904-.408 5.712-2.84 5.712-1.733 0-2.21-1.904-2.413-3.23-.136-.833-.12-1.666-.12-2.482Zm76.078 5.093-.12.17c-1.801-.067-3.603-.067-5.422-.067-1.717 0-3.434.017-5.151.068l-.102-.17c1.037-1.87 1.853-3.944 2.703-5.916.833-1.904 1.734-3.842 2.397-5.831h.425c.73 1.819 4.165 9.673 5.27 11.747Zm-1.326-.526a176 176 0 0 0-3.621-8.96h-.12c-1.274 2.942-2.498 5.934-3.603 8.96Zm8.978-5.576c.05-.646.136-1.19.272-1.887-.187-.085-.255-.102-.34-.102-.527 0-1.054.408-1.666 1.275-.663.952-1.326 1.972-1.598 2.567l.544-2.584c.068-.29.102-.51.102-.714 0-.34-.136-.544-.391-.544-.357 0-1.003.357-2.261 1.258l-.476.34.119.34.544-.357c.476-.306.663-.391.816-.391.17 0 .289.153.289.374 0 .986-.731 4.488-1.411 6.664l.17.119c.255-.085.527-.136.918-.221l.22-.034.443-2.04c.306-1.411.697-2.312 1.445-3.281.578-.748 1.037-1.105 1.41-1.105.256 0 .426.085.613.323Z"/><svg width="9.35" height="10" x="396.113" y="135.413" overflow="visible"><path d="M9.35 4.85 6.2 1.53l-.49.52 1.93 2.33h-.15v.9h.15L5.71 7.61l.49.52zm-7.67.38h7.21v-.9H1.68z" style="fill:#900;fill-opacity:1;stroke-width:1px;stroke:none;stroke-opacity:1"/></svg><path fill="#000" stroke="#000" stroke-width=".136" d="m229.033 158.159-4.301-4.522-.51.561 1.36 1.666h-11.577v1.003h12.427l1.088 1.326-1.071 1.292h-12.444v1.003h11.577l-1.36 1.666.51.527Z"/></svg></svg>