<svg xmlns="http://www.w3.org/2000/svg" width="210.6" height="195.3" style="width:210.60000610351562px;height:195.3000030517578px;background:0 0;fill:none"><svg xmlns="http://www.w3.org/2000/svg"/><svg xmlns="http://www.w3.org/2000/svg" class="role-diagram-draw-area" style="overflow:visible"><g class="shapes-region" style="stroke:#000;fill:none"><g class="composite-shape"><path d="M9 99.3c0-47.44 38.46-85.9 85.9-85.9s85.9 38.46 85.9 85.9-38.46 85.9-85.9 85.9S9 146.74 9 99.3Z" class="real" style="stroke-width:1;stroke:#0c0909;stroke-opacity:1;fill:none;fill-opacity:1;stroke-dasharray:3"/></g><g class="arrow-line"><path d="m20.5 56.34 7.9-13.68 7.72-13.39 1.53-2.63.5-.87" class="connection real" style="stroke:#000;stroke-opacity:1;stroke-width:1;fill:none;fill-opacity:1"/><path fill="#000" stroke="none" d="M10.72-5.15 0 0l10.72 5.15L7.12 0Z" style="stroke:none;fill:#000;stroke-width:1" transform="rotate(120 13.133 23.032)"/></g><g class="arrow-line"><path d="M94.9 185.2H59.6" class="connection real" style="stroke:#000;stroke-opacity:1;stroke-width:1;fill:none;fill-opacity:1"/><path fill="#000" stroke="none" d="M10.72-5.15 0 0l10.72 5.15L7.12 0Z" style="stroke:none;fill:#000;stroke-width:1" transform="translate(56.6 185.2)"/></g><g class="arrow-line"><path d="M94.9 185.2v-32.55" class="connection real" style="stroke:#900;stroke-opacity:1;stroke-width:1;fill:none;fill-opacity:1"/><path fill="#900" stroke="none" d="M10.72-5.15 0 0l10.72 5.15L7.12 0Z" style="stroke:none;fill:#900;stroke-width:1" transform="rotate(90 -27.375 122.275)"/></g><g class="arrow-line"><path d="m20.5 56.34 28.19 16.28" class="connection real" style="stroke:#900;stroke-opacity:1;stroke-width:1;fill:none;fill-opacity:1"/><path fill="#900" stroke="none" d="M10.72-5.15 0 0l10.72 5.15L7.12 0Z" style="stroke:none;fill:#900;stroke-width:1" transform="rotate(210 35.572 30.188)"/></g><g class="composite-shape"><path stroke="none" d="M51.94 24.9 94.9 99.3Z" class="real" style="stroke-width:1;stroke:none;stroke-opacity:1;fill:none;fill-opacity:1"/><path d="M51.94 24.9" class="real" style="stroke-width:1;stroke:#900;stroke-opacity:1;fill:none;fill-opacity:1"/></g><g class="arrow-line"><path d="m169.3 56.34 7.9 13.69 7.73 13.38 1.52 2.64.5.86" class="connection real" style="stroke:#000;stroke-opacity:1;stroke-width:1;fill:none;fill-opacity:1"/><path fill="#000" stroke="none" d="M10.72-5.15 0 0l10.72 5.15L7.12 0Z" style="stroke:none;fill:#000;stroke-width:1" transform="rotate(240 120.067 -9.646)"/></g><g class="arrow-line"><path d="m169.3 56.34-28.19 16.28" class="connection real" style="stroke:#900;stroke-opacity:1;stroke-width:1;fill:none;fill-opacity:1"/><path fill="#900" stroke="none" d="M10.72-5.15 0 0l10.72 5.15L7.12 0Z" style="stroke:none;fill:#900;stroke-width:1" transform="rotate(-30 207.564 -221.417)"/></g></g></svg><svg xmlns="http://www.w3.org/2000/svg" xmlns:xlink="http://www.w3.org/1999/xlink" width="209" height="193.7" style="width:209px;height:193.6999969482422px;font-family:Asana-Math,Asana;background:0 0"><path fill="#900" stroke="#900" stroke-width=".136" d="m132.808 65.406-.085 1.445c1.105-.051 1.105-.051 1.326-.051.085 0 .51.017 1.258.051v-.51l-.663-.034c-.408-.017-.476-.153-.476-.986V62.21c0-2.482-.714-3.383-2.686-3.383-.731 0-1.411.187-2.057.578l-.901.544v1.105l.442.119.221-.527c.357-.799.527-.918 1.309-.918 1.598 0 2.261.629 2.312 2.176l-1.683.306c-2.312.425-3.281 1.224-3.281 2.703 0 1.326.799 2.091 2.142 2.091.306 0 .595-.051.714-.136Zm0-.714c-.493.697-1.564 1.343-2.227 1.343-.68 0-1.275-.629-1.275-1.36 0-.629.34-1.224.85-1.547.425-.255 1.36-.493 2.652-.68Z"/><svg width="9.35" height="10" x="127.3" y="47.8" overflow="visible"><path d="M9.35 4.85 6.2 1.53l-.49.52 1.93 2.33h-.15v.9h.15L5.71 7.61l.49.52zm-7.67.38h7.21v-.9H1.68z" style="fill:#900;fill-opacity:1;stroke-width:1px;stroke:none;stroke-opacity:1"/></svg><path fill="#000" stroke="#000" stroke-width=".136" d="M201.963 77.16v-.476c-1.02.034-1.326.051-1.598.051s-.578-.017-1.598-.05v.475l.697.034c.272.017.408.17.408.442s-.119.731-.323 1.241c-.204.493-1.122 2.771-1.768 4.182l-2.023-4.896a1.7 1.7 0 0 1-.153-.646c0-.187.153-.306.425-.323l.833-.034v-.476c-1.666.051-1.666.051-1.989.051s-1.139-.017-1.972-.05v.475l.578.034c.255.034.34.136.527.561l2.924 6.851h.85l2.703-6.273c.374-.799.612-1.105.952-1.139Z"/><svg width="10.45" height="10" x="192.8" y="65.487" overflow="visible"><path d="M10.45 4.85 7.3 1.53l-.49.52 1.93 2.33h-.15v.9h.15L6.81 7.61l.49.52zm-8.77.38h8.31v-.9H1.68z" style="fill:#000;fill-opacity:1;stroke-width:1px;stroke:none;stroke-opacity:1"/></svg></svg></svg>