<svg xmlns="http://www.w3.org/2000/svg" xmlns:xlink="http://www.w3.org/1999/xlink" x="0" y="0" width="562.6000162760416" height="341.25" style="
        width:562.6000162760416px;
        height:341.25px;
        background: transparent;
        fill: none;
">
        <svg xmlns="http://www.w3.org/2000/svg"/>
        
        <svg xmlns="http://www.w3.org/2000/svg" class="role-diagram-draw-area" style="overflow: visible;"><g class="shapes-region" style="stroke: black; fill: none;"><g class="grouped-shape"><g class="arrow-line"><path class="connection real" stroke-dasharray="" d="  M10,166.3 L10,10.3" style="stroke: rgb(0, 0, 0); stroke-width: 1; fill: none; fill-opacity: 1;"/><g stroke="#000" transform="matrix(3.061616997868383e-16,1,-1,3.061616997868383e-16,10,8.300003051757812)" style="stroke: rgb(0, 0, 0); stroke-width: 1;"><path d=" M10.93,-3.29 Q4.96,-0.45 0,0 Q4.96,0.45 10.93,3.29"/></g></g><g class="arrow-line"><path class="connection real" stroke-dasharray="" d="  M10,166.3 L165,166.3" style="stroke: rgb(0, 0, 0); stroke-width: 1; fill: none; fill-opacity: 1;"/><g stroke="#000" transform="matrix(-1,1.2246467991473532e-16,-1.2246467991473532e-16,-1,166.99999999999997,166.30000305175784)" style="stroke: rgb(0, 0, 0); stroke-width: 1;"><path d=" M10.93,-3.29 Q4.96,-0.45 0,0 Q4.96,0.45 10.93,3.29"/></g></g></g><g class="arrow-line"><path class="connection real" stroke-dasharray="" d="  M200,166.8 L200,10.8" style="stroke: rgb(0, 0, 0); stroke-width: 1; fill: none; fill-opacity: 1;"/><g stroke="#000" transform="matrix(3.061616997868383e-16,1,-1,3.061616997868383e-16,200,8.800003051757812)" style="stroke: rgb(0, 0, 0); stroke-width: 1;"><path d=" M10.93,-3.29 Q4.96,-0.45 0,0 Q4.96,0.45 10.93,3.29"/></g></g><g class="arrow-line"><path class="connection real" stroke-dasharray="" d="  M200,166.8 L355,166.8" style="stroke: rgb(0, 0, 0); stroke-width: 1; fill: none; fill-opacity: 1;"/><g stroke="#000" transform="matrix(-1,1.2246467991473532e-16,-1.2246467991473532e-16,-1,357,166.8000030517578)" style="stroke: rgb(0, 0, 0); stroke-width: 1;"><path d=" M10.93,-3.29 Q4.96,-0.45 0,0 Q4.96,0.45 10.93,3.29"/></g></g><g class="arrow-line"><path class="connection real" stroke-dasharray="" d="  M200,87.8 L353.5,241.3" style="stroke: rgb(153, 0, 0); stroke-opacity: 1; stroke-width: 2; fill: none; fill-opacity: 1;"/><g stroke="none" fill="rgb(153,0,0)" fill-opacity="1" transform="matrix(-0.7071067811865477,-0.7071067811865475,0.7071067811865475,-0.7071067811865477,356.33333333333337,244.13333638509118)" style="stroke: none; fill: rgb(153, 0, 0); stroke-width: 2;"><path d=" M13.4,-6.43 L0,0 L13.4,6.44 L8.9,0 Z"/></g></g><g class="arrow-line"><path class="connection real" stroke-dasharray="" d="  M390,167 L390,11" style="stroke: rgb(0, 0, 0); stroke-width: 1; fill: none; fill-opacity: 1;"/><g stroke="#000" transform="matrix(3.061616997868383e-16,1,-1,3.061616997868383e-16,390,8.999996948242199)" style="stroke: rgb(0, 0, 0); stroke-width: 1;"><path d=" M10.93,-3.29 Q4.96,-0.45 0,0 Q4.96,0.45 10.93,3.29"/></g></g><g class="arrow-line"><path class="connection real" stroke-dasharray="" d="  M390,167 L545,167" style="stroke: rgb(0, 0, 0); stroke-width: 1; fill: none; fill-opacity: 1;"/><g stroke="#000" transform="matrix(-1,1.2246467991473532e-16,-1.2246467991473532e-16,-1,547,166.9999969482422)" style="stroke: rgb(0, 0, 0); stroke-width: 1;"><path d=" M10.93,-3.29 Q4.96,-0.45 0,0 Q4.96,0.45 10.93,3.29"/></g></g><g class="arrow-line"><path class="connection real" stroke-dasharray="" d="  M390.5,222.33 L543.5,222.33" style="stroke: rgb(153, 0, 0); stroke-opacity: 1; stroke-width: 2; fill: none; fill-opacity: 1;"/><g stroke="none" fill="rgb(153,0,0)" fill-opacity="1" transform="matrix(-1,1.2246467991473532e-16,-1.2246467991473532e-16,-1,547.5,222.33333028157554)" style="stroke: none; fill: rgb(153, 0, 0); stroke-width: 2;"><path d=" M13.4,-6.43 L0,0 L13.4,6.44 L8.9,0 Z"/></g></g><g class="composite-shape" data-amt="diagram/shapes/plot" transform="matrix(1,0,0,1,-190.3666788736979,-8.300018310546875)"><g><g/><g><g class="test-plot-expression"><defs><clipPath id="cpwt0rlh5kndg-full-view"><rect x="1" y="1" width="355.5" height="273.0000183105468"/></clipPath></defs><g clip-path="url(#cpwt0rlh5kndg-full-view)"><path d=" M200.00,175.00 L200.22,174.24 L200.44,173.48 L200.66,172.72 L200.88,171.96 L201.10,171.20 L201.32,170.45 L201.54,169.70 L201.76,168.95 L201.99,168.21 L202.21,167.46 L202.43,166.72 L202.65,165.98 L202.87,165.24 L203.09,164.51 L203.31,163.77 L203.53,163.04 L203.75,162.31 L203.97,161.59 L204.19,160.86 L204.41,160.14 L204.63,159.42 L204.85,158.70 L205.07,157.98 L205.29,157.27 L205.51,156.56 L205.74,155.85 L205.96,155.14 L206.18,154.43 L206.40,153.73 L206.62,153.03 L206.84,152.33 L207.06,151.63 L207.28,150.94 L207.50,150.24 L207.72,149.55 L207.94,148.86 L208.16,148.18 L208.38,147.49 L208.60,146.81 L208.82,146.13 L209.04,145.45 L209.26,144.78 L209.49,144.10 L209.71,143.43 L209.93,142.76 L210.15,142.09 L210.37,141.43 L210.59,140.76 L210.81,140.10 L211.03,139.44 L211.25,138.79 L211.47,138.13 L211.69,137.48 L211.91,136.83 L212.13,136.18 L212.35,135.54 L212.57,134.89 L212.79,134.25 L213.01,133.61 L213.24,132.97 L213.46,132.34 L213.68,131.70 L213.90,131.07 L214.12,130.44 L214.34,129.82 L214.56,129.19 L214.78,128.57 L215.00,127.95 L215.22,127.33 L215.44,126.71 L215.66,126.10 L215.88,125.49 L216.10,124.88 L216.32,124.27 L216.54,123.66 L216.76,123.06 L216.99,122.46 L217.21,121.86 L217.43,121.26 L217.65,120.67 L217.87,120.07 L218.09,119.48 L218.31,118.89 L218.53,118.31 L218.75,117.72 L218.97,117.14 L219.19,116.56 L219.41,115.98 L219.63,115.41 L219.85,114.83 L220.07,114.26 L220.29,113.69 L220.51,113.12 L220.74,112.56 L220.96,111.99 L221.18,111.43 L221.40,110.87 L221.62,110.32 L221.84,109.76 L222.06,109.21 L222.28,108.66 L222.50,108.11 L222.72,107.57 L222.94,107.02 L223.16,106.48 L223.38,105.94 L223.60,105.40 L223.82,104.87 L224.04,104.33 L224.26,103.80 L224.49,103.27 L224.71,102.75 L224.93,102.22 L225.15,101.70 L225.37,101.18 L225.59,100.66 L225.81,100.14 L226.03,99.63 L226.25,99.12 L226.47,98.61 L226.69,98.10 L226.91,97.59 L227.13,97.09 L227.35,96.59 L227.57,96.09 L227.79,95.59 L228.01,95.10 L228.24,94.60 L228.46,94.11 L228.68,93.62 L228.90,93.14 L229.12,92.65 L229.34,92.17 L229.56,91.69 L229.78,91.21 L230.00,90.74 L230.22,90.26 L230.44,89.79 L230.66,89.32 L230.88,88.86 L231.10,88.39 L231.32,87.93 L231.54,87.47 L231.76,87.01 L231.99,86.55 L232.21,86.10 L232.43,85.64 L232.65,85.19 L232.87,84.74 L233.09,84.30 L233.31,83.85 L233.53,83.41 L233.75,82.97 L233.97,82.54 L234.19,82.10 L234.41,81.67 L234.63,81.24 L234.85,80.81 L235.07,80.38 L235.29,79.96 L235.51,79.53 L235.74,79.11 L235.96,78.69 L236.18,78.28 L236.40,77.86 L236.62,77.45 L236.84,77.04 L237.06,76.63 L237.28,76.23 L237.50,75.82 L237.72,75.42 L237.94,75.02 L238.16,74.63 L238.38,74.23 L238.60,73.84 L238.82,73.45 L239.04,73.06 L239.26,72.67 L239.49,72.29 L239.71,71.91 L239.93,71.53 L240.15,71.15 L240.37,70.77 L240.59,70.40 L240.81,70.03 L241.03,69.66 L241.25,69.29 L241.47,68.93 L241.69,68.56 L241.91,68.20 L242.13,67.84 L242.35,67.49 L242.57,67.13 L242.79,66.78 L243.01,66.43 L243.24,66.08 L243.46,65.73 L243.68,65.39 L243.90,65.05 L244.12,64.71 L244.34,64.37 L244.56,64.04 L244.78,63.70 L245.00,63.37 L245.22,63.04 L245.44,62.72 L245.66,62.39 L245.88,62.07 L246.10,61.75 L246.32,61.43 L246.54,61.11 L246.76,60.80 L246.99,60.49 L247.21,60.18 L247.43,59.87 L247.65,59.56 L247.87,59.26 L248.09,58.96 L248.31,58.66 L248.53,58.36 L248.75,58.07 L248.97,57.78 L249.19,57.49 L249.41,57.20 L249.63,56.91 L249.85,56.63 L250.07,56.34 L250.29,56.06 L250.51,55.79 L250.74,55.51 L250.96,55.24 L251.18,54.96 L251.40,54.70 L251.62,54.43 L251.84,54.16 L252.06,53.90 L252.28,53.64 L252.50,53.38 L252.72,53.12 L252.94,52.87 L253.16,52.62 L253.38,52.37 L253.60,52.12 L253.82,51.87 L254.04,51.63 L254.26,51.39 L254.49,51.15 L254.71,50.91 L254.93,50.67 L255.15,50.44 L255.37,50.21 L255.59,49.98 L255.81,49.75 L256.03,49.53 L256.25,49.31 L256.47,49.09 L256.69,48.87 L256.91,48.65 L257.13,48.44 L257.35,48.23 L257.57,48.02 L257.79,47.81 L258.01,47.60 L258.24,47.40 L258.46,47.20 L258.68,47.00 L258.90,46.80 L259.12,46.61 L259.34,46.42 L259.56,46.22 L259.78,46.04 L260.00,45.85 L260.22,45.67 L260.44,45.48 L260.66,45.30 L260.88,45.13 L261.10,44.95 L261.32,44.78 L261.54,44.61 L261.76,44.44 L261.99,44.27 L262.21,44.10 L262.43,43.94 L262.65,43.78 L262.87,43.62 L263.09,43.46 L263.31,43.31 L263.53,43.16 L263.75,43.01 L263.97,42.86 L264.19,42.71 L264.41,42.57 L264.63,42.43 L264.85,42.29 L265.07,42.15 L265.29,42.02 L265.51,41.88 L265.74,41.75 L265.96,41.62 L266.18,41.50 L266.40,41.37 L266.62,41.25 L266.84,41.13 L267.06,41.01 L267.28,40.89 L267.50,40.78 L267.72,40.67 L267.94,40.56 L268.16,40.45 L268.38,40.35 L268.60,40.24 L268.82,40.14 L269.04,40.04 L269.26,39.95 L269.49,39.85 L269.71,39.76 L269.93,39.67 L270.15,39.58 L270.37,39.49 L270.59,39.41 L270.81,39.33 L271.03,39.25 L271.25,39.17 L271.47,39.09 L271.69,39.02 L271.91,38.95 L272.13,38.88 L272.35,38.81 L272.57,38.75 L272.79,38.68 L273.01,38.62 L273.24,38.56 L273.46,38.51 L273.68,38.45 L273.90,38.40 L274.12,38.35 L274.34,38.30 L274.56,38.26 L274.78,38.21 L275.00,38.17 L275.22,38.13 L275.44,38.10 L275.66,38.06 L275.88,38.03 L276.10,38.00 L276.32,37.97 L276.54,37.94 L276.76,37.92 L276.99,37.89 L277.21,37.87 L277.43,37.85 L277.65,37.84 L277.87,37.82 L278.09,37.81 L278.31,37.80 L278.53,37.80 L278.75,37.79 L278.97,37.79 L279.19,37.79 L279.41,37.79 L279.63,37.79 L279.85,37.80 L280.07,37.80 L280.29,37.81 L280.51,37.82 L280.74,37.84 L280.96,37.85 L281.18,37.87 L281.40,37.89 L281.62,37.91 L281.84,37.94 L282.06,37.96 L282.28,37.99 L282.50,38.02 L282.72,38.06 L282.94,38.09 L283.16,38.13 L283.38,38.17 L283.60,38.21 L283.82,38.25 L284.04,38.30 L284.26,38.35 L284.49,38.40 L284.71,38.45 L284.93,38.50 L285.15,38.56 L285.37,38.62 L285.59,38.68 L285.81,38.74 L286.03,38.81 L286.25,38.87 L286.47,38.94 L286.69,39.01 L286.91,39.09 L287.13,39.16 L287.35,39.24 L287.57,39.32 L287.79,39.40 L288.01,39.49 L288.24,39.57 L288.46,39.66 L288.68,39.75 L288.90,39.84 L289.12,39.94 L289.34,40.03 L289.56,40.13 L289.78,40.23 L290.00,40.34 L290.22,40.44 L290.44,40.55 L290.66,40.66 L290.88,40.77 L291.10,40.89 L291.32,41.00 L291.54,41.12 L291.76,41.24 L291.99,41.36 L292.21,41.49 L292.43,41.61 L292.65,41.74 L292.87,41.87 L293.09,42.01 L293.31,42.14 L293.53,42.28 L293.75,42.42 L293.97,42.56 L294.19,42.70 L294.41,42.85 L294.63,43.00 L294.85,43.15 L295.07,43.30 L295.29,43.45 L295.51,43.61 L295.74,43.77 L295.96,43.93 L296.18,44.09 L296.40,44.26 L296.62,44.42 L296.84,44.59 L297.06,44.76 L297.28,44.94 L297.50,45.11 L297.72,45.29 L297.94,45.47 L298.16,45.65 L298.38,45.84 L298.60,46.02 L298.82,46.21 L299.04,46.40 L299.26,46.59 L299.49,46.79 L299.71,46.98 L299.93,47.18 L300.15,47.38 L300.37,47.59 L300.59,47.79 L300.81,48.00 L301.03,48.21 L301.25,48.42 L301.47,48.64 L301.69,48.85 L301.91,49.07 L302.13,49.29 L302.35,49.51 L302.57,49.74 L302.79,49.96 L303.01,50.19 L303.24,50.42 L303.46,50.66 L303.68,50.89 L303.90,51.13 L304.12,51.37 L304.34,51.61 L304.56,51.85 L304.78,52.10 L305.00,52.35 L305.22,52.60 L305.44,52.85 L305.66,53.10 L305.88,53.36 L306.10,53.62 L306.32,53.88 L306.54,54.14 L306.76,54.41 L306.99,54.67 L307.21,54.94 L307.43,55.21 L307.65,55.49 L307.87,55.76 L308.09,56.04 L308.31,56.32 L308.53,56.60 L308.75,56.89 L308.97,57.17 L309.19,57.46 L309.41,57.75 L309.63,58.05 L309.85,58.34 L310.07,58.64 L310.29,58.94 L310.51,59.24 L310.74,59.54 L310.96,59.85 L311.18,60.15 L311.40,60.46 L311.62,60.77 L311.84,61.09 L312.06,61.40 L312.28,61.72 L312.50,62.04 L312.72,62.37 L312.94,62.69 L313.16,63.02 L313.38,63.35 L313.60,63.68 L313.82,64.01 L314.04,64.34 L314.26,64.68 L314.49,65.02 L314.71,65.36 L314.93,65.71 L315.15,66.05 L315.37,66.40 L315.59,66.75 L315.81,67.10 L316.03,67.46 L316.25,67.81 L316.47,68.17 L316.69,68.53 L316.91,68.90 L317.13,69.26 L317.35,69.63 L317.57,70.00 L317.79,70.37 L318.01,70.74 L318.24,71.12 L318.46,71.50 L318.68,71.88 L318.90,72.26 L319.12,72.64 L319.34,73.03 L319.56,73.42 L319.78,73.81 L320.00,74.20 L320.22,74.59 L320.44,74.99 L320.66,75.39 L320.88,75.79 L321.10,76.20 L321.32,76.60 L321.54,77.01 L321.76,77.42 L321.99,77.83 L322.21,78.24 L322.43,78.66 L322.65,79.08 L322.87,79.50 L323.09,79.92 L323.31,80.35 L323.53,80.77 L323.75,81.20 L323.97,81.63 L324.19,82.07 L324.41,82.50 L324.63,82.94 L324.85,83.38 L325.07,83.82 L325.29,84.26 L325.51,84.71 L325.74,85.16 L325.96,85.61 L326.18,86.06 L326.40,86.51 L326.62,86.97 L326.84,87.43 L327.06,87.89 L327.28,88.35 L327.50,88.82 L327.72,89.29 L327.94,89.75 L328.16,90.23 L328.38,90.70 L328.60,91.18 L328.82,91.65 L329.04,92.13 L329.26,92.62 L329.49,93.10 L329.71,93.59 L329.93,94.07 L330.15,94.56 L330.37,95.06 L330.59,95.55 L330.81,96.05 L331.03,96.55 L331.25,97.05 L331.47,97.55 L331.69,98.06 L331.91,98.57 L332.13,99.08 L332.35,99.59 L332.57,100.10 L332.79,100.62 L333.01,101.14 L333.24,101.66 L333.46,102.18 L333.68,102.70 L333.90,103.23 L334.12,103.76 L334.34,104.29 L334.56,104.82 L334.78,105.36 L335.00,105.90 L335.22,106.44 L335.44,106.98 L335.66,107.52 L335.88,108.07 L336.10,108.62 L336.32,109.17 L336.54,109.72 L336.76,110.27 L336.99,110.83 L337.21,111.39 L337.43,111.95 L337.65,112.51 L337.87,113.08 L338.09,113.64 L338.31,114.21 L338.53,114.79 L338.75,115.36 L338.97,115.93 L339.19,116.51 L339.41,117.09 L339.63,117.68 L339.85,118.26 L340.07,118.85 L340.29,119.43 L340.51,120.02 L340.74,120.62 L340.96,121.21 L341.18,121.81 L341.40,122.41 L341.62,123.01 L341.84,123.61 L342.06,124.22 L342.28,124.83 L342.50,125.44 L342.72,126.05 L342.94,126.66 L343.16,127.28 L343.38,127.90 L343.60,128.52 L343.82,129.14 L344.04,129.77 L344.26,130.39 L344.49,131.02 L344.71,131.65 L344.93,132.29 L345.15,132.92 L345.37,133.56 L345.59,134.20 L345.81,134.84 L346.03,135.48 L346.25,136.13 L346.47,136.78 L346.69,137.43 L346.91,138.08 L347.13,138.73 L347.35,139.39 L347.57,140.05 L347.79,140.71 L348.01,141.37 L348.24,142.04 L348.46,142.71 L348.68,143.38 L348.90,144.05 L349.12,144.72 L349.34,145.40 L349.56,146.08 L349.78,146.76 L350.00,147.44 L350.22,148.12 L350.44,148.81 L350.66,149.50 L350.88,150.19 L351.10,150.88 L351.32,151.58 L351.54,152.27 L351.76,152.97 L351.99,153.67 L352.21,154.38 L352.43,155.08 L352.65,155.79 L352.87,156.50 L353.09,157.21 L353.31,157.93 L353.53,158.64 L353.75,159.36 L353.97,160.08 L354.19,160.80 L354.41,161.53 L354.63,162.26 L354.85,162.98 L355.07,163.72 L355.29,164.45 L355.51,165.18 L355.74,165.92 L355.96,166.66 L356.18,167.40 L356.40,168.15 L356.62,168.89 L356.84,169.64 L357.06,170.39 L357.28,171.14 L357.50,171.90" style="stroke-width: 2; stroke: rgb(153, 0, 0); stroke-opacity: 1;"/></g></g><rect class="real" x="1" y="1" width="355.5" height="273.0000183105468" style="fill: transparent; stroke: none;"/></g></g></g><g class="arrow-line"><path class="connection real" stroke-dasharray="" d="  M164.8,152.15 L167,161.51" style="stroke: rgb(153, 0, 0); stroke-opacity: 1; stroke-width: 1; fill: none; fill-opacity: 1;"/><g stroke="none" fill="rgb(153,0,0)" fill-opacity="1" transform="matrix(-0.22886060350701293,-0.9734592051865377,0.9734592051865377,-0.22886060350701293,167.6857125418527,164.42857142857144)" style="stroke: none; fill: rgb(153, 0, 0); stroke-width: 1;"><path d=" M10.72,-5.15 L0,0 L10.72,5.15 L7.12,0 Z"/></g></g><g class="arrow-line"><path class="connection real" stroke-dasharray="" d="  M200,166.8 L200,322.8" style="stroke: rgb(0, 0, 0); stroke-width: 1; fill: none; fill-opacity: 1;"/><g stroke="#000" transform="matrix(-1.8369701987210297e-16,-1,1,-1.8369701987210297e-16,200,324.80000305175776)" style="stroke: rgb(0, 0, 0); stroke-width: 1;"><path d=" M10.93,-3.29 Q4.96,-0.45 0,0 Q4.96,0.45 10.93,3.29"/></g></g><g class="arrow-line"><path class="connection real" stroke-dasharray="" d="  M390,167 L390,323" style="stroke: rgb(0, 0, 0); stroke-width: 1; fill: none; fill-opacity: 1;"/><g stroke="#000" transform="matrix(-1.8369701987210297e-16,-1,1,-1.8369701987210297e-16,390,324.9999969482421)" style="stroke: rgb(0, 0, 0); stroke-width: 1;"><path d=" M10.93,-3.29 Q4.96,-0.45 0,0 Q4.96,0.45 10.93,3.29"/></g></g><g class="arrow-line"><path class="connection real" stroke-dasharray="3" d="  M89,29.41 L89,191.41" style="stroke: rgb(153, 0, 0); stroke-width: 2; fill: none; fill-opacity: 1; stroke-opacity: 1;"/></g><g/></g><g/><g/><g/></svg>
        <svg xmlns="http://www.w3.org/2000/svg" xmlns:xlink="http://www.w3.org/1999/xlink" width="561" height="339.65000406901044" style="width:561px;height:339.65000406901044px;font-family:Asana-Math, Asana;background:transparent;"><g><g><g><g transform="matrix(1,0,0,1,168.80000813802081,182.90000200271606)"><path transform="matrix(0.015,0,0,-0.015,0,0)" d="M19 400L104 400L104 124C104 1 197 -11 233 -11C304 -11 332 60 332 124L332 181L307 181L307 126C307 52 277 14 240 14C173 14 173 105 173 122L173 400L316 400L316 431L173 431L173 615L148 615C147 533 117 426 19 422Z" stroke="rgb(0,0,0)" stroke-opacity="1" stroke-width="8" fill="rgb(0,0,0)" fill-opacity="1"></path></g></g></g></g><g><g><g><g transform="matrix(1,0,0,1,11.800008138020832,24.90000009536743)"><path transform="matrix(0.015,0,0,-0.015,0,0)" d="M352 -124C352 -169 394 -205 444 -205C507 -205 548 -148 572 -91L748 336C774 399 825 400 841 400L841 431C818 429 789 428 766 428C748 428 701 430 679 431L679 400C710 399 726 382 726 357C726 347 725 345 720 333L619 87L508 356C504 366 502 370 502 374C502 400 539 400 558 400L558 431C532 430 466 428 449 428C422 428 382 429 352 431L352 400C400 400 419 400 433 365L583 0C578 -13 564 -46 558 -59C536 -114 508 -183 444 -183C439 -183 416 -183 397 -165C428 -161 436 -139 436 -123C436 -97 417 -81 394 -81C374 -81 352 -94 352 -124Z" stroke="rgb(0,0,0)" stroke-opacity="1" stroke-width="8" fill="rgb(0,0,0)" fill-opacity="1"></path></g></g></g></g><g><g><g><g transform="matrix(1,0,0,1,359.800048828125,183.40000200271606)"><path transform="matrix(0.015,0,0,-0.015,0,0)" d="M19 400L104 400L104 124C104 1 197 -11 233 -11C304 -11 332 60 332 124L332 181L307 181L307 126C307 52 277 14 240 14C173 14 173 105 173 122L173 400L316 400L316 431L173 431L173 615L148 615C147 533 117 426 19 422Z" stroke="rgb(0,0,0)" stroke-opacity="1" stroke-width="8" fill="rgb(0,0,0)" fill-opacity="1"></path></g></g></g></g><g><g><g><g transform="matrix(1,0,0,1,202.80000813802081,25.40000009536743)"><path transform="matrix(0.015,0,0,-0.015,0,0)" d="M352 400C415 400 419 394 432 363L576 8C582 -6 584 -11 597 -11C610 -11 614 -2 618 8L749 333C758 356 775 399 841 400L841 431C818 429 789 428 766 428C742 428 696 430 679 431L679 400C716 399 727 376 727 357C727 348 725 344 721 333L619 78L507 357C501 370 501 372 501 374C501 400 540 400 558 400L558 431C528 430 472 428 449 428C422 428 382 429 352 431Z" stroke="rgb(0,0,0)" stroke-opacity="1" stroke-width="8" fill="rgb(0,0,0)" fill-opacity="1"></path></g></g></g></g><g><g><g><g transform="matrix(1,0,0,1,549.800048828125,183.60000403722125)"><path transform="matrix(0.015,0,0,-0.015,0,0)" d="M19 400L104 400L104 124C104 1 197 -11 233 -11C304 -11 332 60 332 124L332 181L307 181L307 126C307 52 277 14 240 14C173 14 173 105 173 122L173 400L316 400L316 431L173 431L173 615L148 615C147 533 117 426 19 422Z" stroke="rgb(0,0,0)" stroke-opacity="1" stroke-width="8" fill="rgb(0,0,0)" fill-opacity="1"></path></g></g></g></g><g><g><g><g transform="matrix(1,0,0,1,392.800048828125,25.58750009536743)"><path transform="matrix(0.015,0,0,-0.015,0,0)" d="M375 95C375 14 472 -11 535 -11C601 -11 647 29 666 76C670 36 697 -6 744 -6C765 -6 826 8 826 89L826 145L801 145L801 89C801 31 776 25 765 25C732 25 728 70 728 75L728 275C728 317 728 356 692 393C653 432 603 448 555 448C473 448 404 401 404 335C404 305 424 288 450 288C478 288 496 308 496 334C496 346 491 379 445 380C472 415 521 426 553 426C602 426 659 387 659 298L659 261C608 258 538 255 475 225C400 191 375 139 375 95ZM452 96C452 151 494 234 659 240L659 140C659 45 587 11 542 11C493 11 452 46 452 96Z" stroke="rgb(0,0,0)" stroke-opacity="1" stroke-width="8" fill="rgb(0,0,0)" fill-opacity="1"></path></g></g></g></g><g><g><g><g transform="matrix(1,0,0,1,70.80000813802084,198.26249996821085)"><path transform="matrix(0.015,0,0,-0.015,0,0)" d="M19 400C82 400 86 394 99 363L243 8C249 -6 251 -11 264 -11C277 -11 281 -2 285 8L416 333C425 356 442 399 508 400L508 431C485 429 456 428 433 428C409 428 363 430 346 431L346 400C383 399 394 376 394 357C394 348 392 344 388 333L286 78L174 357C168 370 168 372 168 374C168 400 207 400 225 400L225 431C195 430 139 428 116 428C89 428 49 429 19 431ZM917 152C917 142 932 141 944 141L1552 141C1563 141 1579 142 1579 153C1579 165 1563 164 1550 164L937 164C927 164 918 164 917 152ZM917 347C917 337 929 336 937 336L1554 336C1565 336 1579 336 1579 347C1579 360 1562 359 1549 359L938 359C920 359 917 352 917 347ZM2010 320C2010 245 2014 155 2055 79C2098 -2 2171 -22 2220 -22C2274 -22 2350 -1 2394 94C2426 163 2431 241 2431 320C2431 400 2426 480 2391 554C2345 650 2263 666 2221 666C2161 666 2088 640 2047 547C2015 478 2010 400 2010 320ZM2093 332C2093 396 2093 462 2101 516C2120 635 2195 644 2220 644C2253 644 2319 626 2338 527C2348 471 2348 395 2348 332C2348 257 2348 189 2337 125C2322 30 2265 0 2220 0C2181 0 2122 25 2104 121C2093 181 2093 273 2093 332Z" stroke="rgb(153,0,0)" stroke-opacity="1" stroke-width="8" fill="rgb(153,0,0)" fill-opacity="1"></path></g></g></g></g><g><g><g><g transform="matrix(1,0,0,1,200.80000813802081,319.2624999682109)"><path transform="matrix(0.015,0,0,-0.015,0,0)" d="M390 249C390 239 407 238 416 238L421 238C429 238 436 239 444 239L1007 239C1013 239 1018 238 1024 238L1026 238C1037 238 1052 239 1052 250C1052 263 1036 261 1023 261L410 261C399 261 390 259 390 249ZM1130 400C1193 400 1197 394 1210 363L1354 8C1360 -6 1362 -11 1375 -11C1388 -11 1392 -2 1396 8L1527 333C1536 356 1553 399 1619 400L1619 431C1596 429 1567 428 1544 428C1520 428 1474 430 1457 431L1457 400C1494 399 1505 376 1505 357C1505 348 1503 344 1499 333L1397 78L1285 357C1279 370 1279 372 1279 374C1279 400 1318 400 1336 400L1336 431C1306 430 1250 428 1227 428C1200 428 1160 429 1130 431Z" stroke="rgb(0,0,0)" stroke-opacity="1" stroke-width="8" fill="rgb(0,0,0)" fill-opacity="1"></path></g></g></g></g><g><g><g><g transform="matrix(1,0,0,1,392.125,320.92499589920044)"><path transform="matrix(0.015,0,0,-0.015,0,0)" d="M390 249C390 239 407 238 416 238L421 238C429 238 436 239 444 239L1007 239C1013 239 1018 238 1024 238L1026 238C1037 238 1052 239 1052 250C1052 263 1036 261 1023 261L410 261C399 261 390 259 390 249ZM1153 95C1153 14 1250 -11 1313 -11C1379 -11 1425 29 1444 76C1448 36 1475 -6 1522 -6C1543 -6 1604 8 1604 89L1604 145L1579 145L1579 89C1579 31 1554 25 1543 25C1510 25 1506 70 1506 75L1506 275C1506 317 1506 356 1470 393C1431 432 1381 448 1333 448C1251 448 1182 401 1182 335C1182 305 1202 288 1228 288C1256 288 1274 308 1274 334C1274 346 1269 379 1223 380C1250 415 1299 426 1331 426C1380 426 1437 387 1437 298L1437 261C1386 258 1316 255 1253 225C1178 191 1153 139 1153 95ZM1230 96C1230 151 1272 234 1437 240L1437 140C1437 45 1365 11 1320 11C1271 11 1230 46 1230 96Z" stroke="rgb(0,0,0)" stroke-opacity="1" stroke-width="8" fill="rgb(0,0,0)" fill-opacity="1"></path></g></g></g></g></svg>
</svg>
