<svg xmlns="http://www.w3.org/2000/svg" width="562.6" height="341.25" style="width:562.6000162760416px;height:341.25px;background:0 0;fill:none"><svg xmlns="http://www.w3.org/2000/svg"/><svg xmlns="http://www.w3.org/2000/svg" class="role-diagram-draw-area" style="overflow:visible"><g class="shapes-region" style="stroke:#000;fill:none"><g class="grouped-shape"><g class="arrow-line"><path d="M10 166.3v-156" class="connection real" style="stroke:#000;stroke-width:1;fill:none;fill-opacity:1"/><path d="M10.93-3.29Q4.96-.45 0 0q4.96.45 10.93 3.29" style="stroke:#000;stroke-width:1" transform="rotate(90 .85 9.15)"/></g><g class="arrow-line"><path d="M10 166.3h155" class="connection real" style="stroke:#000;stroke-width:1;fill:none;fill-opacity:1"/><path d="M10.93-3.29Q4.96-.45 0 0q4.96.45 10.93 3.29" style="stroke:#000;stroke-width:1" transform="matrix(-1 0 0 -1 167 166.3)"/></g></g><g class="arrow-line"><path d="M200 166.8v-156" class="connection real" style="stroke:#000;stroke-width:1;fill:none;fill-opacity:1"/><path d="M10.93-3.29Q4.96-.45 0 0q4.96.45 10.93 3.29" style="stroke:#000;stroke-width:1" transform="rotate(90 95.6 104.4)"/></g><g class="arrow-line"><path d="M200 166.8h155" class="connection real" style="stroke:#000;stroke-width:1;fill:none;fill-opacity:1"/><path d="M10.93-3.29Q4.96-.45 0 0q4.96.45 10.93 3.29" style="stroke:#000;stroke-width:1" transform="matrix(-1 0 0 -1 357 166.8)"/></g><g class="arrow-line"><path d="m200 87.8 153.5 153.5" class="connection real" style="stroke:#900;stroke-opacity:1;stroke-width:2;fill:none;fill-opacity:1"/><path fill="#900" stroke="none" d="M13.4-6.43 0 0l13.4 6.44L8.9 0Z" style="stroke:none;fill:#900;stroke-width:2" transform="rotate(225 228.728 48.268)"/></g><g class="arrow-line"><path d="M390 167V11" class="connection real" style="stroke:#000;stroke-width:1;fill:none;fill-opacity:1"/><path d="M10.93-3.29Q4.96-.45 0 0q4.96.45 10.93 3.29" style="stroke:#000;stroke-width:1" transform="rotate(90 190.5 199.5)"/></g><g class="arrow-line"><path d="M390 167h155" class="connection real" style="stroke:#000;stroke-width:1;fill:none;fill-opacity:1"/><path d="M10.93-3.29Q4.96-.45 0 0q4.96.45 10.93 3.29" style="stroke:#000;stroke-width:1" transform="matrix(-1 0 0 -1 547 167)"/></g><g class="arrow-line"><path d="M390.5 222.33h153" class="connection real" style="stroke:#900;stroke-opacity:1;stroke-width:2;fill:none;fill-opacity:1"/><path fill="#900" stroke="none" d="M13.4-6.43 0 0l13.4 6.44L8.9 0Z" style="stroke:none;fill:#900;stroke-width:2" transform="matrix(-1 0 0 -1 547.5 222.333)"/></g><g class="composite-shape" data-amt="diagram/shapes/plot"><g class="test-plot-expression" transform="translate(-190.367 -8.3)"><defs><clipPath id="cpwt0rlh5kndg-full-view"><path d="M1 1h355.5v273H1z"/></clipPath></defs><g clip-path="url(#cpwt0rlh5kndg-full-view)"><path d="m200 175 .22-.76.22-.76.22-.76.22-.76.22-.76.22-.75.22-.75.22-.75.23-.74.22-.75.22-.74.22-.74.22-.74.22-.73.22-.74.22-.73.22-.73.22-.72.22-.73.22-.72.22-.72.22-.72.22-.72.22-.71.22-.71.23-.71.22-.71.22-.71.22-.7.22-.7.22-.7.22-.7.22-.69.22-.7.22-.69.22-.69.22-.68.22-.69.22-.68.22-.68.22-.68.22-.67.23-.68.22-.67.22-.67.22-.67.22-.66.22-.67.22-.66.22-.66.22-.65.22-.66.22-.65.22-.65.22-.65.22-.64.22-.65.22-.64.22-.64.23-.64.22-.63.22-.64.22-.63.22-.63.22-.62.22-.63.22-.62.22-.62.22-.62.22-.62.22-.61.22-.61.22-.61.22-.61.22-.61.22-.6.23-.6.22-.6.22-.6.22-.59.22-.6.22-.59.22-.59.22-.58.22-.59.22-.58.22-.58.22-.58.22-.57.22-.58.22-.57.22-.57.22-.57.23-.56.22-.57.22-.56.22-.56.22-.55.22-.56.22-.55.22-.55.22-.55.22-.54.22-.55.22-.54.22-.54.22-.54.22-.53.22-.54.22-.53.23-.53.22-.52.22-.53.22-.52.22-.52.22-.52.22-.52.22-.51.22-.51.22-.51.22-.51.22-.51.22-.5.22-.5.22-.5.22-.5.22-.49.23-.5.22-.49.22-.49.22-.48.22-.49.22-.48.22-.48.22-.48.22-.47.22-.48.22-.47.22-.47.22-.46.22-.47.22-.46.22-.46.22-.46.23-.46.22-.45.22-.46.22-.45.22-.45.22-.44.22-.45.22-.44.22-.44.22-.43.22-.44.22-.43.22-.43.22-.43.22-.43.22-.42.22-.43.23-.42.22-.42.22-.41.22-.42.22-.41.22-.41.22-.41.22-.4.22-.41.22-.4.22-.4.22-.39.22-.4.22-.39.22-.39.22-.39.22-.39.23-.38.22-.38.22-.38.22-.38.22-.38.22-.37.22-.37.22-.37.22-.37.22-.36.22-.37.22-.36.22-.36.22-.35.22-.36.22-.35.22-.35.23-.35.22-.35.22-.34.22-.34.22-.34.22-.34.22-.33.22-.34.22-.33.22-.33.22-.32.22-.33.22-.32.22-.32.22-.32.22-.32.22-.31.23-.31.22-.31.22-.31.22-.31.22-.3.22-.3.22-.3.22-.3.22-.29.22-.29.22-.29.22-.29.22-.29.22-.28.22-.29.22-.28.22-.27.23-.28.22-.27.22-.28.22-.26.22-.27.22-.27.22-.26.22-.26.22-.26.22-.26.22-.25.22-.25.22-.25.22-.25.22-.25.22-.24.22-.24.23-.24.22-.24.22-.24.22-.23.22-.23.22-.23.22-.23.22-.22.22-.22.22-.22.22-.22.22-.22.22-.21.22-.21.22-.21.22-.21.22-.21.23-.2.22-.2.22-.2.22-.2.22-.19.22-.19.22-.2.22-.18.22-.19.22-.18.22-.19.22-.18.22-.17.22-.18.22-.17.22-.17.22-.17.23-.17.22-.17.22-.16.22-.16.22-.16.22-.16.22-.15.22-.15.22-.15.22-.15.22-.15.22-.14.22-.14.22-.14.22-.14.22-.13.22-.14.23-.13.22-.13.22-.12.22-.13.22-.12.22-.12.22-.12.22-.12.22-.11.22-.11.22-.11.22-.11.22-.1.22-.11.22-.1.22-.1.22-.09.23-.1.22-.09.22-.09.22-.09.22-.09.22-.08.22-.08.22-.08.22-.08.22-.08.22-.07.22-.07.22-.07.22-.07.22-.06.22-.07.22-.06.23-.06.22-.05.22-.06.22-.05.22-.05.22-.05.22-.04.22-.05.22-.04.22-.04.22-.03.22-.04.22-.03.22-.03.22-.03.22-.03.22-.02.23-.03.22-.02.22-.02.22-.01.22-.02.22-.01.22-.01h.22l.22-.01h.88l.22.01h.22l.22.01.22.01.23.02.22.01.22.02.22.02.22.02.22.03.22.02.22.03.22.03.22.04.22.03.22.04.22.04.22.04.22.04.22.05.22.05.23.05.22.05.22.05.22.06.22.06.22.06.22.06.22.07.22.06.22.07.22.07.22.08.22.07.22.08.22.08.22.08.22.09.23.08.22.09.22.09.22.09.22.1.22.09.22.1.22.1.22.11.22.1.22.11.22.11.22.11.22.12.22.11.22.12.22.12.23.12.22.13.22.12.22.13.22.13.22.14.22.13.22.14.22.14.22.14.22.14.22.15.22.15.22.15.22.15.22.15.22.16.23.16.22.16.22.16.22.17.22.16.22.17.22.17.22.18.22.17.22.18.22.18.22.18.22.19.22.18.22.19.22.19.22.19.23.2.22.19.22.2.22.2.22.21.22.2.22.21.22.21.22.21.22.22.22.21.22.22.22.22.22.22.22.23.22.22.22.23.23.23.22.24.22.23.22.24.22.24.22.24.22.24.22.25.22.25.22.25.22.25.22.25.22.26.22.26.22.26.22.26.22.27.23.26.22.27.22.27.22.28.22.27.22.28.22.28.22.28.22.29.22.28.22.29.22.29.22.3.22.29.22.3.22.3.22.3.23.3.22.31.22.3.22.31.22.31.22.32.22.31.22.32.22.32.22.33.22.32.22.33.22.33.22.33.22.33.22.33.22.34.23.34.22.34.22.35.22.34.22.35.22.35.22.35.22.36.22.35.22.36.22.36.22.37.22.36.22.37.22.37.22.37.22.37.23.38.22.38.22.38.22.38.22.38.22.39.22.39.22.39.22.39.22.39.22.4.22.4.22.4.22.41.22.4.22.41.22.41.23.41.22.41.22.42.22.42.22.42.22.42.22.43.22.42.22.43.22.43.22.44.22.43.22.44.22.44.22.44.22.44.22.45.23.45.22.45.22.45.22.45.22.46.22.46.22.46.22.46.22.47.22.47.22.46.22.48.22.47.22.48.22.47.22.48.22.49.23.48.22.49.22.48.22.49.22.5.22.49.22.5.22.5.22.5.22.5.22.51.22.51.22.51.22.51.22.51.22.52.22.52.23.52.22.52.22.52.22.53.22.53.22.53.22.53.22.54.22.54.22.54.22.54.22.54.22.55.22.55.22.55.22.55.22.55.23.56.22.56.22.56.22.56.22.57.22.56.22.57.22.58.22.57.22.57.22.58.22.58.22.59.22.58.22.59.22.58.22.59.23.6.22.59.22.6.22.6.22.6.22.6.22.61.22.61.22.61.22.61.22.61.22.62.22.62.22.62.22.62.22.63.22.62.23.63.22.63.22.64.22.63.22.64.22.64.22.64.22.64.22.65.22.65.22.65.22.65.22.65.22.66.22.66.22.66.22.66.23.67.22.67.22.67.22.67.22.67.22.68.22.68.22.68.22.68.22.68.22.69.22.69.22.69.22.69.22.7.22.69.22.7.23.7.22.71.22.7.22.71.22.71.22.71.22.72.22.71.22.72.22.72.22.72.22.73.22.73.22.72.22.74.22.73.22.73.23.74.22.74.22.74.22.75.22.74.22.75.22.75.22.75.22.76" style="stroke-width:2;stroke:#900;stroke-opacity:1"/></g></g><path stroke="none" d="M1 1h355.5v273H1z" class="real" style="fill:transparent;stroke:none" transform="translate(-190.367 -8.3)"/></g><g class="arrow-line"><path d="m164.8 152.15 2.2 9.36" class="connection real" style="stroke:#900;stroke-opacity:1;stroke-width:1;fill:none;fill-opacity:1"/><path fill="#900" stroke="none" d="M10.72-5.15 0 0l10.72 5.15L7.12 0Z" style="stroke:none;fill:#900;stroke-width:1" transform="rotate(256.77 148.97 15.797)"/></g><g class="arrow-line"><path d="M200 166.8v156" class="connection real" style="stroke:#000;stroke-width:1;fill:none;fill-opacity:1"/><path d="M10.93-3.29Q4.96-.45 0 0q4.96.45 10.93 3.29" style="stroke:#000;stroke-width:1" transform="rotate(-90 262.4 62.4)"/></g><g class="arrow-line"><path d="M390 167v156" class="connection real" style="stroke:#000;stroke-width:1;fill:none;fill-opacity:1"/><path d="M10.93-3.29Q4.96-.45 0 0q4.96.45 10.93 3.29" style="stroke:#000;stroke-width:1" transform="rotate(-90 357.5 -32.5)"/></g><g class="arrow-line"><path stroke-dasharray="3" d="M89 29.41v162" class="connection real" style="stroke:#900;stroke-width:2;fill:none;fill-opacity:1;stroke-opacity:1"/></g></g></svg><svg xmlns="http://www.w3.org/2000/svg" xmlns:xlink="http://www.w3.org/1999/xlink" width="561" height="339.65" style="width:561px;height:339.65000406901044px;font-family:Asana-Math,Asana;background:0 0"><path fill="#000" stroke="#000" stroke-width=".12" d="M169.085 176.9h1.275v4.14c0 1.845 1.395 2.025 1.935 2.025 1.065 0 1.485-1.065 1.485-2.025v-.855h-.375v.825c0 1.11-.45 1.68-1.005 1.68-1.005 0-1.005-1.365-1.005-1.62v-4.17h2.145v-.465h-2.145v-2.76h-.375c-.015 1.23-.465 2.835-1.935 2.895ZM17.08 26.76c0 .675.63 1.215 1.38 1.215.945 0 1.56-.855 1.92-1.71l2.64-6.405c.39-.945 1.155-.96 1.395-.96v-.465c-.345.03-.78.045-1.125.045-.27 0-.975-.03-1.305-.045v.465c.465.015.705.27.705.645 0 .15-.015.18-.09.36l-1.515 3.69-1.665-4.035c-.06-.15-.09-.21-.09-.27 0-.39.555-.39.84-.39v-.465c-.39.015-1.38.045-1.635.045-.405 0-1.005-.015-1.455-.045v.465c.72 0 1.005 0 1.215.525l2.25 5.475a22 22 0 0 1-.375.885c-.33.825-.75 1.86-1.71 1.86-.075 0-.42 0-.705-.27.465-.06.585-.39.585-.63 0-.39-.285-.63-.63-.63-.3 0-.63.195-.63.645ZM360.085 177.4h1.275v4.14c0 1.845 1.395 2.025 1.935 2.025 1.065 0 1.485-1.065 1.485-2.025v-.855h-.375v.825c0 1.11-.45 1.68-1.005 1.68-1.005 0-1.005-1.365-1.005-1.62v-4.17h2.145v-.465h-2.145v-2.76h-.375c-.015 1.23-.465 2.835-1.935 2.895ZM208.08 19.4c.945 0 1.005.09 1.2.555l2.16 5.325c.09.21.12.285.315.285s.255-.135.315-.285l1.965-4.875c.135-.345.39-.99 1.38-1.005v-.465c-.345.03-.78.045-1.125.045-.36 0-1.05-.03-1.305-.045v.465c.555.015.72.36.72.645 0 .135-.03.195-.09.36l-1.53 3.825-1.68-4.185c-.09-.195-.09-.225-.09-.255 0-.39.585-.39.855-.39v-.465c-.45.015-1.29.045-1.635.045-.405 0-1.005-.015-1.455-.045Zm342.005 158.2h1.275v4.14c0 1.845 1.395 2.025 1.935 2.025 1.065 0 1.485-1.065 1.485-2.025v-.855h-.375v.825c0 1.11-.45 1.68-1.005 1.68-1.005 0-1.005-1.365-1.005-1.62v-4.17h2.145v-.465h-2.145v-2.76h-.375c-.015 1.23-.465 2.835-1.935 2.895ZM398.425 24.163c0 1.215 1.455 1.59 2.4 1.59.99 0 1.68-.6 1.965-1.305.06.6.465 1.23 1.17 1.23.315 0 1.23-.21 1.23-1.425v-.84h-.375v.84c0 .87-.375.96-.54.96-.495 0-.555-.675-.555-.75v-3c0-.63 0-1.215-.54-1.77-.585-.585-1.335-.825-2.055-.825-1.23 0-2.265.705-2.265 1.695 0 .45.3.705.69.705.42 0 .69-.3.69-.69 0-.18-.075-.675-.765-.69.405-.525 1.14-.69 1.62-.69.735 0 1.59.585 1.59 1.92v.555c-.765.045-1.815.09-2.76.54-1.125.51-1.5 1.29-1.5 1.95Zm1.155-.015c0-.825.63-2.07 3.105-2.16v1.5c0 1.425-1.08 1.935-1.755 1.935-.735 0-1.35-.525-1.35-1.275Z"/><path fill="#900" stroke="#900" stroke-width=".12" d="M71.085 192.262c.945 0 1.005.09 1.2.555l2.16 5.325c.09.21.12.285.315.285s.255-.135.315-.285l1.965-4.875c.135-.345.39-.99 1.38-1.005v-.465c-.345.03-.78.045-1.125.045-.36 0-1.05-.03-1.305-.045v.465c.555.015.72.36.72.645 0 .135-.03.195-.09.36l-1.53 3.825-1.68-4.185c-.09-.195-.09-.225-.09-.255 0-.39.585-.39.855-.39v-.465c-.45.015-1.29.045-1.635.045-.405 0-1.005-.015-1.455-.045Zm13.47 3.72c0 .15.225.165.405.165h9.12c.165 0 .405-.015.405-.18 0-.18-.24-.165-.435-.165h-9.195c-.15 0-.285 0-.3.18Zm0-2.925c0 .15.18.165.3.165h9.255c.165 0 .375 0 .375-.165 0-.195-.255-.18-.45-.18H84.87c-.27 0-.315.105-.315.18Zm16.395.405c0 1.125.06 2.475.675 3.615a2.75 2.75 0 0 0 2.475 1.515c.81 0 1.95-.315 2.61-1.74.48-1.035.555-2.205.555-3.39 0-1.2-.075-2.4-.6-3.51-.69-1.44-1.92-1.68-2.55-1.68-.9 0-1.995.39-2.61 1.785-.48 1.035-.555 2.205-.555 3.405Zm1.245-.18c0-.96 0-1.95.12-2.76.285-1.785 1.41-1.92 1.785-1.92.495 0 1.485.27 1.77 1.755.15.84.15 1.98.15 2.925 0 1.125 0 2.145-.165 3.105-.225 1.425-1.08 1.875-1.755 1.875-.585 0-1.47-.375-1.74-1.815-.165-.9-.165-2.28-.165-3.165Z"/><path fill="#000" stroke="#000" stroke-width=".12" d="M206.65 315.527c0 .15.255.165.39.165h.075c.12 0 .225-.015.345-.015h8.445c.09 0 .165.015.255.015h.03c.165 0 .39-.015.39-.18 0-.195-.24-.165-.435-.165h-9.195c-.165 0-.3.03-.3.18Zm11.1-2.265c.945 0 1.005.09 1.2.555l2.16 5.325c.09.21.12.285.315.285s.255-.135.315-.285l1.965-4.875c.135-.345.39-.99 1.38-1.005v-.465c-.345.03-.78.045-1.125.045-.36 0-1.05-.03-1.305-.045v.465c.555.015.72.36.72.645 0 .135-.03.195-.09.36l-1.53 3.825-1.68-4.185c-.09-.195-.09-.225-.09-.255 0-.39.585-.39.855-.39v-.465c-.45.015-1.29.045-1.635.045-.405 0-1.005-.015-1.455-.045Zm180.225 3.928c0 .15.255.165.39.165h.075c.12 0 .225-.015.345-.015h8.445c.09 0 .165.015.255.015h.03c.165 0 .39-.015.39-.18 0-.195-.24-.165-.435-.165h-9.195c-.165 0-.3.03-.3.18Zm11.445 2.31c0 1.215 1.455 1.59 2.4 1.59.99 0 1.68-.6 1.965-1.305.06.6.465 1.23 1.17 1.23.315 0 1.23-.21 1.23-1.425v-.84h-.375v.84c0 .87-.375.96-.54.96-.495 0-.555-.675-.555-.75v-3c0-.63 0-1.215-.54-1.77-.585-.585-1.335-.825-2.055-.825-1.23 0-2.265.705-2.265 1.695 0 .45.3.705.69.705.42 0 .69-.3.69-.69 0-.18-.075-.675-.765-.69.405-.525 1.14-.69 1.62-.69.735 0 1.59.585 1.59 1.92v.555c-.765.045-1.815.09-2.76.54-1.125.51-1.5 1.29-1.5 1.95Zm1.155-.015c0-.825.63-2.07 3.105-2.16v1.5c0 1.425-1.08 1.935-1.755 1.935-.735 0-1.35-.525-1.35-1.275Z"/></svg></svg>