<svg xmlns="http://www.w3.org/2000/svg" width="381.60002" height="195.80001" style="width:381.6000162760417px;height:195.80000813802084px;background:#fff;fill:none"><svg xmlns="http://www.w3.org/2000/svg"/><svg xmlns="http://www.w3.org/2000/svg" class="role-diagram-draw-area" style="overflow:visible"><g class="shapes-region" style="stroke:#000;fill:none"><g class="arrow-line"><path d="M18 166.3v-156m-4.5 124h9m-9-32h9m-9-32h9m-9-32h9" class="connection real" style="stroke:#000;stroke-width:1;fill:none;fill-opacity:1"/><path d="M10.93-3.29Q4.96-.45 0 0q4.96.45 10.93 3.29" style="stroke:#000;stroke-width:1" transform="rotate(90 4.85 13.15)"/></g><g class="arrow-line"><path d="M18 166.3h155m-123-4.5v9m32-9v9m32-9v9m32-9v9" class="connection real" style="stroke:#000;stroke-width:1;fill:none;fill-opacity:1"/><path d="M10.93-3.29Q4.96-.45 0 0q4.96.45 10.93 3.29" style="stroke:#000;stroke-width:1" transform="matrix(-1 0 0 -1 175 166.3)"/></g><g class="arrow-line"><path d="M200.87 166.2v-156m-4.5 124h9m-9-32h9m-9-32h9m-9-32h9" class="connection real" style="stroke:#000;stroke-width:1;fill:none;fill-opacity:1"/><path d="M10.93-3.29Q4.96-.45 0 0q4.96.45 10.93 3.29" style="stroke:#000;stroke-width:1" transform="rotate(90 96.33334 104.53334)"/></g><g class="arrow-line"><path d="M200.87 166.2h155m-123-4.5v9m32-9v9m32-9v9m32-9v9" class="connection real" style="stroke:#000;stroke-width:1;fill:none;fill-opacity:1"/><path d="M10.93-3.29Q4.96-.45 0 0q4.96.45 10.93 3.29" style="stroke:#000;stroke-width:1" transform="matrix(-1 0 0 -1 357.86668 166.2)"/></g><g class="arrow-line"><path d="M200.8 133.9h154" class="connection real" style="stroke:#900;stroke-opacity:1;stroke-width:2;fill:none;fill-opacity:1"/><path fill="#900" stroke="none" d="M13.4-6.43 0 0l13.4 6.44L8.9 0Z" style="stroke:none;fill:#900;stroke-width:2" transform="matrix(-1 0 0 -1 358.79999 133.9)"/></g><g class="composite-shape" data-amt="diagram/shapes/plot"><g class="test-plot-expression" transform="translate(-183 8.95)"><defs><clipPath id="cphl5029ghgdg-full-view"><path d="M1 1h356.2v254.55H1z"/></clipPath></defs><g clip-path="url(#cphl5029ghgdg-full-view)"><path d="m200 156.55.22-.22.22-.22.22-.22.22-.22.23-.23.22-.22.22-.22.22-.22.22-.22.22-.22.22-.22.22-.22.22-.22.23-.23.22-.22.22-.22.22-.22.22-.22.22-.22.22-.22.22-.22.22-.22.23-.23.22-.22.22-.22.22-.22.22-.22.22-.22.22-.22.22-.22.23-.23.22-.22.22-.22.22-.22.22-.22.22-.22.22-.22.22-.22.22-.22.23-.23.22-.22.22-.22.22-.22.22-.22.22-.22.22-.22.22-.22.22-.22.23-.23.22-.22.22-.22.22-.22.22-.22.22-.22.22-.22.22-.22.22-.22.23-.23.22-.22.22-.22.22-.22.22-.22.22-.22.22-.22.22-.22.22-.22.23-.23.22-.22.22-.22.22-.22.22-.22.22-.22.22-.22.22-.22.23-.23.22-.22.22-.22.22-.22.22-.22.22-.22.22-.22.22-.22.22-.22.23-.23.22-.22.22-.22.22-.22.22-.22.22-.22.22-.22.22-.22.22-.22.23-.23.22-.22.22-.22.22-.22.22-.22.22-.22.22-.22.22-.22.22-.22.23-.23.22-.22.22-.22.22-.22.22-.22.22-.22.22-.22.22-.22.22-.22.23-.23.22-.22.22-.22.22-.22.22-.22.22-.22.22-.22.22-.22.23-.23.22-.22.22-.22.22-.22.22-.22.22-.22.22-.22.22-.22.22-.22.23-.23.22-.22.22-.22.22-.22.22-.22.22-.22.22-.22.22-.22.22-.22.23-.23.22-.22.22-.22.22-.22.22-.22.22-.22.22-.22.22-.22.22-.22.23-.23.22-.22.22-.22.22-.22.22-.22.22-.22.22-.22.22-.22.22-.22.23-.23.22-.22.22-.22.22-.22.22-.22.22-.22.22-.22.22-.22.23-.23.22-.22.22-.22.22-.22.22-.22.22-.22.22-.22.22-.22.22-.22.23-.23.22-.22.22-.22.22-.22.22-.22.22-.22.22-.22.22-.22.22-.22.23-.23.22-.22.22-.22.22-.22.22-.22.22-.22.22-.22.22-.22.22-.22.23-.23.22-.22.22-.22.22-.22.22-.22.22-.22.22-.22.22-.22.22-.22.23-.23.22-.22.22-.22.22-.22.22-.22.22-.22.22-.22.22-.22.22-.22.23-.23.22-.22.22-.22.22-.22.22-.22.22-.22.22-.22.22-.22.23-.23.22-.22.22-.22.22-.22.22-.22.22-.22.22-.22.22-.22.22-.22.23-.23.22-.22.22-.22.22-.22.22-.22.22-.22.22-.22.22-.22.22-.22.23-.23.22-.22.22-.22.22-.22.22-.22.22-.22.22-.22.22-.22.22-.22.23-.23.22-.22.22-.22.22-.22.22-.22.22-.22.22-.22.22-.22.22-.22.23-.23.22-.22.22-.22.22-.22.22-.22.22-.22.22-.22.22-.22.23-.23.22-.22.22-.22.22-.22.22-.22.22-.22.22-.22.22-.22.22-.22.23-.23.22-.22.22-.22.22-.22.22-.22.22-.22.22-.22.22-.22.22-.22.23-.23.22-.22.22-.22.22-.22.22-.22.22-.22.22-.22.22-.22.22-.22.23-.23.22-.22.22-.22.22-.22.22-.22.22-.22.22-.22.22-.22.22-.22.23-.23.22-.22.22-.22.22-.22.22-.22.22-.22.22-.22.22-.22.23-.23.22-.22.22-.22.22-.22.22-.22.22-.22.22-.22.22-.22.22-.22.23-.23.22-.22.22-.22.22-.22.22-.22.22-.22.22-.22.22-.22.22-.22.23-.23.22-.22.22-.22.22-.22.22-.22.22-.22.22-.22.22-.22.22-.22.23-.23.22-.22.22-.22.22-.22.22-.22.22-.22.22-.22.22-.22.22-.22.23-.23.22-.22.22-.22.22-.22.22-.22.22-.22.22-.22.22-.22.22-.22.23-.23.22-.22.22-.22.22-.22.22-.22.22-.22.22-.22.22-.22.23-.23.22-.22.22-.22.22-.22.22-.22.22-.22.22-.22.22-.22.22-.22.23-.23.22-.22.22-.22.22-.22.22-.22.22-.22.22-.22.22-.22.22-.22.23-.23.22-.22.22-.22.22-.22.22-.22.22-.22.22-.22.22-.22.22-.22.23-.23.22-.22.22-.22.22-.22.22-.22.22-.22.22-.22.22-.22.22-.22.23-.23.22-.22.22-.22.22-.22.22-.22.22-.22.22-.22.22-.22.23-.23.22-.22.22-.22.22-.22.22-.22.22-.22.22-.22.22-.22.22-.22.23-.23.22-.22.22-.22.22-.22.22-.22.22-.22.22-.22.22-.22.22-.22.23-.23.22-.22.22-.22.22-.22.22-.22.22-.22.22-.22.22-.22.22-.22.23-.23.22-.22.22-.22.22-.22.22-.22.22-.22.22-.22.22-.22.22-.22.23-.23.22-.22.22-.22.22-.22.22-.22.22-.22.22-.22.22-.22.23-.23.22-.22.22-.22.22-.22.22-.22.22-.22.22-.22.22-.22.22-.22.23-.23.22-.22.22-.22.22-.22.22-.22.22-.22.22-.22.22-.22.22-.22.23-.23.22-.22.22-.22.22-.22.22-.22.22-.22.22-.22.22-.22.22-.22.23-.23.22-.22.22-.22.22-.22.22-.22.22-.22.22-.22.22-.22.22-.22.23-.23.22-.22.22-.22.22-.22.22-.22.22-.22.22-.22.22-.22.23-.23.22-.22.22-.22.22-.22.22-.22.22-.22.22-.22.22-.22.22-.22.23-.23.22-.22.22-.22.22-.22.22-.22.22-.22.22-.22.22-.22.22-.22.23-.23.22-.22.22-.22.22-.22.22-.22.22-.22.22-.22.22-.22.22-.22.23-.23.22-.22.22-.22.22-.22.22-.22.22-.22.22-.22.22-.22.22-.22.23-.23.22-.22.22-.22.22-.22.22-.22.22-.22.22-.22.22-.22.22-.22.23-.23.22-.22.22-.22.22-.22.22-.22.22-.22.22-.22.22-.22.23-.23.22-.22.22-.22.22-.22.22-.22.22-.22.22-.22.22-.22.22-.22.23-.23.22-.22.22-.22.22-.22.22-.22.22-.22.22-.22.22-.22.22-.22.23-.23.22-.22.22-.22.22-.22.22-.22.22-.22.22-.22.22-.22.22-.22.23-.23.22-.22.22-.22.22-.22.22-.22.22-.22.22-.22.22-.22.22-.22.23-.23.22-.22.22-.22.22-.22.22-.22.22-.22.22-.22.22-.22.23-.23.22-.22.22-.22.22-.22.22-.22.22-.22.22-.22.22-.22.22-.22.23-.23.22-.22.22-.22.22-.22.22-.22.22-.22.22-.22.22-.22.22-.22.23-.23.22-.22.22-.22.22-.22.22-.22.22-.22.22-.22.22-.22.22-.22.23-.23.22-.22.22-.22.22-.22.22-.22.22-.22.22-.22.22-.22.22-.22.23-.23.22-.22.22-.22.22-.22.22-.22.22-.22.22-.22.22-.22.23-.23.22-.22.22-.22.22-.22.22-.22.22-.22.22-.22.22-.22.22-.22.23-.23.22-.22.22-.22.22-.22.22-.22.22-.22.22-.22.22-.22.22-.22.23-.23.22-.22.22-.22.22-.22.22-.22.22-.22.22-.22.22-.22.22-.22.23-.23.22-.22.22-.22.22-.22.22-.22.22-.22.22-.22.22-.22.22-.22.23-.23.22-.22.22-.22.22-.22.22-.22.22-.22.22-.22.22-.22.23-.23.22-.22.22-.22.22-.22.22-.22.22-.22.22-.22.22-.22.22-.22.23-.23.22-.22.22-.22.22-.22.22-.22.22-.22.22-.22.22-.22.22-.22.23-.23.22-.22.22-.22.22-.22.22-.22.22-.22.22-.22.22-.22.22-.22.23-.23.22-.22.22-.22.22-.22.22-.22.22-.22.22-.22.22-.22.22-.22.23-.23.22-.22.22-.22.22-.22.22-.22.22-.22.09-.09" style="stroke-width:2;stroke:#900;stroke-opacity:1"/></g></g><path stroke="none" d="M1 1h356.2v254.55H1z" class="real" style="fill:transparent;stroke:none" transform="translate(-183 8.95)"/></g><g class="arrow-line"><path d="M279.37 133.9v32.3" class="connection real" style="stroke:#000;stroke-width:2;fill:none;fill-opacity:1"/></g><g class="arrow-line"><path d="M96.5 84.9v81.4" class="connection real" style="stroke:#000;stroke-width:2;fill:none;fill-opacity:1"/></g><g class="arrow-line"><path d="m165.2 17.17 8.77-8.77" class="connection real" style="stroke:#900;stroke-opacity:1;stroke-width:2;fill:none;fill-opacity:1"/><path fill="#900" stroke="none" d="M13.4-6.43 0 0l13.4 6.44L8.9 0Z" style="stroke:none;fill:#900;stroke-width:2" transform="rotate(135 87.2471 39.3998)"/></g></g></svg><svg xmlns="http://www.w3.org/2000/svg" xmlns:xlink="http://www.w3.org/1999/xlink" width="380" height="194.20001" style="width:380px;height:194.20001220703125px;font-family:Asana-Math,Asana;background:#fff"><path fill="#000" stroke="#000" stroke-width=".12" d="M177.085 176.9h1.275v4.14c0 1.845 1.395 2.025 1.935 2.025 1.065 0 1.485-1.065 1.485-2.025v-.855h-.375v.825c0 1.11-.45 1.68-1.005 1.68-1.005 0-1.005-1.365-1.005-1.62v-4.17h2.145v-.465h-2.145v-2.76h-.375c-.015 1.23-.465 2.835-1.935 2.895Zm-152.11-152c.39-.03.855-.045 1.245-.045.435 0 1.065.03 1.425.045v-.465c-.33-.045-.435-.24-.435-.465 0-.33.435-.825 1.35-1.905l1.14 1.5c.12.165.315.405.315.495 0 .135-.135.36-.54.375v.465c.45-.015 1.29-.045 1.62-.045.405 0 .99.015 1.44.045v-.465c-.81 0-1.08-.03-1.425-.465l-2.01-2.595c.45-.57 1.02-1.305 1.38-1.695.465-.54 1.08-.765 1.785-.78v-.465c-.39.03-.84.045-1.23.045-.45 0-1.245-.03-1.44-.045v.465c.315.03.435.225.435.465s-.15.435-.225.525l-.93 1.17-1.17-1.515c-.135-.15-.135-.18-.135-.27 0-.225.225-.36.525-.375v-.465c-.39.015-1.38.045-1.62.045-.315 0-1.02-.015-1.425-.045v.465c1.05 0 1.065.015 1.77.915l1.485 1.935-1.41 1.785c-.72.87-1.605.9-1.92.9Zm334.97252 151.9h1.275v4.14c0 1.845 1.395 2.025 1.935 2.025 1.065 0 1.485-1.065 1.485-2.025v-.855h-.375v.825c0 1.11-.45 1.68-1.005 1.68-1.005 0-1.005-1.365-1.005-1.62v-4.17h2.145v-.465h-2.145v-2.76h-.375c-.015 1.23-.465 2.835-1.935 2.895Zm-152.005-158.0125c.945 0 1.005.09 1.2.555l2.16 5.325c.09.21.12.285.315.285s.255-.135.315-.285l1.965-4.875c.135-.345.39-.99 1.38-1.005v-.465c-.345.03-.78.045-1.125.045-.36 0-1.05-.03-1.305-.045v.465c.555.015.72.36.72.645 0 .135-.03.195-.09.36l-1.53 3.825-1.68-4.185c-.09-.195-.09-.225-.09-.255 0-.39.585-.39.855-.39v-.465c-.45.015-1.29.045-1.635.045-.405 0-1.005-.015-1.455-.045Z"/><path fill="#000" stroke="#000" stroke-width=".136" d="M101.953 122.283c.255.136.527.204.731.204.561 0 1.224-.493 1.751-1.292l1.292-1.989.187 1.173c.221 1.445.612 2.108 1.224 2.108.374 0 .918-.289 1.462-.782l.833-.748-.153-.323c-.612.51-1.037.765-1.309.765-.255 0-.476-.17-.646-.51-.153-.323-.34-.952-.425-1.445l-.306-1.717.595-.833c.799-1.105 1.258-1.496 1.785-1.496.272 0 .476.136.561.391l.238-.068.255-1.445c-.204-.119-.357-.17-.51-.17-.68 0-1.36.612-2.414 2.176l-.629.935-.102-.816c-.204-1.683-.663-2.295-1.666-2.295-.442 0-.816.136-.969.357l-.986 1.411.289.17c.51-.578.85-.816 1.173-.816.561 0 .935.697 1.224 2.363l.187 1.054-.68 1.054c-.731 1.139-1.309 1.683-1.785 1.683-.255 0-.442-.068-.476-.153l-.187-.476-.34.051c0 .595-.136 1.037-.204 1.479Zm23.7025-5.882v-1.003h-9.163v1.003Zm0 3.621v-1.003h-9.163v1.003Zm13.30052 2.329v-.51l-.884-.051c-.935-.051-1.105-.238-1.105-1.122V110.4l-4.097 1.734.119.85 2.55-1.122v8.806c0 .884-.187 1.071-1.105 1.122l-.952.051v.51c2.618-.051 2.618-.051 2.805-.051.527 0 2.397.051 2.669.051Zm3.502-6.681-.952 4.811c-.017.136-.221.782-.221 1.292 0 .425.187.68.51.68.595 0 1.19-.34 2.516-1.411l.527-.425-.17-.306-.765.527q-.7395.51-1.02.51c-.153 0-.238-.136-.238-.34 0-.442.238-1.819.731-4.284l.221-1.054h1.819l.187-.85c-.646.068-1.224.102-1.87.102.272-1.598.459-2.431.765-3.349l-.187-.255c-.34.204-.799.408-1.326.612l-.425 2.89c-.748.357-1.19.544-1.496.629l-.034.221Zm146.9515 31.8775c.357 0 .629-.017 1.071-.068-1.887 2.04-2.601 3.451-2.601 5.151 0 1.309.782 2.244 1.87 2.244 2.346 0 4.947-4.199 4.947-6.715 0-.969-.442-1.666-1.054-1.666-.221 0-.425.068-.561.204l-.85.799.187.323q.2295-.153.459-.153c.459 0 .731.391.731 1.071 0 2.516-1.649 5.287-3.145 5.287-.833 0-1.36-.714-1.36-1.819 0-1.785.663-3.332 2.329-5.406l-.17-.306c-.34.153-.561.204-1.037.204s-1.19-.034-1.683-.085l-.204-.017c-.102-.017-.187-.017-.204-.017-.204 0-.357.034-.544.119-.238.459-.425 1.071-.646 2.006h.374l.289-.714c.119-.289.459-.476.867-.476.561 0 .289.034.935.034Zm21.03348 1.241v-1.003h-9.163v1.003Zm0 3.621v-1.003h-9.163v1.003Zm13.3005 2.329v-.51l-.884-.051c-.935-.051-1.105-.238-1.105-1.122v-10.268l-4.097 1.734.119.85 2.55-1.122v8.806c0 .884-.187 1.071-1.105 1.122l-.952.051v.51c2.618-.051 2.618-.051 2.805-.051.527 0 2.397.051 2.669.051Z"/></svg></svg>