<svg xmlns="http://www.w3.org/2000/svg" width="560.6" height="195.8" style="width:560.6px;height:195.8px;background:#fff;fill:none"><svg xmlns="http://www.w3.org/2000/svg"/><svg xmlns="http://www.w3.org/2000/svg" class="role-diagram-draw-area" style="overflow:visible"><g class="shapes-region" style="stroke:#000;fill:none"><g class="arrow-line"><path d="M18 166.3v-156m-4.5 124h9m-9-32h9m-9-32h9m-9-32h9" class="connection real" style="stroke:#000;stroke-width:1;fill:none;fill-opacity:1"/><path d="M10.93-3.29Q4.96-.45 0 0q4.96.45 10.93 3.29" style="stroke:#000;stroke-width:1" transform="rotate(90 4.85 13.15)"/></g><g class="arrow-line"><path d="M18 166.3h155m-123-4.5v9m32-9v9m32-9v9m32-9v9" class="connection real" style="stroke:#000;stroke-width:1;fill:none;fill-opacity:1"/><path d="M10.93-3.29Q4.96-.45 0 0q4.96.45 10.93 3.29" style="stroke:#000;stroke-width:1" transform="matrix(-1 0 0 -1 175 166.3)"/></g><g class="arrow-line"><path d="M200.87 166.2v-156m-4.5 124h9m-9-32h9m-9-32h9m-9-32h9" class="connection real" style="stroke:#000;stroke-width:1;fill:none;fill-opacity:1"/><path d="M10.93-3.29Q4.96-.45 0 0q4.96.45 10.93 3.29" style="stroke:#000;stroke-width:1" transform="rotate(90 96.33 104.53)"/></g><g class="arrow-line"><path d="M200.87 166.2h155m-123-4.5v9m32-9v9m32-9v9m32-9v9" class="connection real" style="stroke:#000;stroke-width:1;fill:none;fill-opacity:1"/><path d="M10.93-3.29Q4.96-.45 0 0q4.96.45 10.93 3.29" style="stroke:#000;stroke-width:1" transform="matrix(-1 0 0 -1 357.87 166.2)"/></g><g class="arrow-line"><path d="m200.87 166.2 153.5-153.5" class="connection real" style="stroke:#900;stroke-opacity:1;stroke-width:2;fill:none;fill-opacity:1"/><path fill="#900" stroke="none" d="M13.4-6.43 0 0l13.4 6.44L8.9 0Z" style="stroke:none;fill:#900;stroke-width:2" transform="rotate(135 176.56 78.91)"/></g><g class="composite-shape" data-amt="diagram/shapes/plot"><g class="test-plot-expression" transform="translate(-183 8.95)"><defs><clipPath id="cparkmh4kc0dg-full-view"><path d="M1 1h356.2v254.55H1z"/></clipPath></defs><g clip-path="url(#cparkmh4kc0dg-full-view)"><path d="m240 156.55.17-.41.16-.42.17-.41.16-.41.17-.42.16-.41.17-.41.16-.41.17-.42.16-.41.17-.41.16-.42.17-.41.16-.41.17-.42.16-.41.17-.41.16-.41.17-.42.16-.41.17-.41.16-.42.17-.41.17-.41.16-.42.17-.41.16-.41.17-.42.16-.41.17-.41.16-.41.17-.42.16-.41.17-.41.16-.42.17-.41.16-.41.17-.42.16-.41.17-.41.16-.42.17-.41.16-.41.17-.41.17-.42.16-.41.17-.41.16-.42.17-.41.16-.41.17-.42.16-.41.17-.41.16-.42.17-.41.16-.41.17-.41.16-.42.17-.41.16-.41.17-.42.16-.41.17-.41.16-.42.17-.41.16-.41.17-.41.17-.42.16-.41.17-.41.16-.42.17-.41.16-.41.17-.42.16-.41.17-.41.16-.42.17-.41.16-.41.17-.41.16-.42.17-.41.16-.41.17-.42.16-.41.17-.41.16-.42.17-.41.16-.41.17-.42.17-.41.16-.41.17-.41.16-.42.17-.41.16-.41.17-.42.16-.41.17-.41.16-.42.17-.41.16-.41.17-.41.16-.42.17-.41.16-.41.17-.42.16-.41.17-.41.16-.42.17-.41.16-.41.17-.42.17-.41.16-.41.17-.41.16-.42.17-.41.16-.41.17-.42.16-.41.17-.41.16-.42.17-.41.16-.41.17-.42.16-.41.17-.41.16-.41.17-.42.16-.41.17-.41.16-.42.17-.41.17-.41.16-.42.17-.41.16-.41.17-.41.16-.42.17-.41.16-.41.17-.42.16-.41.17-.41.16-.42.17-.41.16-.41.17-.42.16-.41.17-.41.16-.41.17-.42.16-.41.17-.41.16-.42.17-.41.17-.41.16-.42.17-.41.16-.41.17-.42.16-.41.17-.41.16-.41.17-.42.16-.41.17-.41.16-.42.17-.41.16-.41.17-.42.16-.41.17-.41.16-.41.17-.42.16-.41.17-.41.16-.42.17-.41.17-.41.16-.42.17-.41.16-.41.17-.42.16-.41.17-.41.16-.41.17-.42.16-.41.17-.41.16-.42.17-.41.16-.41.17-.42.16-.41.17-.41.16-.42.17-.41.16-.41.17-.41.16-.42.17-.41.17-.41.16-.42.17-.41.16-.41.17-.42.16-.41.17-.41.16-.41.17-.42.16-.41.17-.41.16-.42.17-.41.16-.41.17-.42.16-.41.17-.41.16-.42.17-.41.16-.41.17-.41.17-.42.16-.41.17-.41.16-.42.17-.41.16-.41.17-.42.16-.41.17-.41.16-.42.17-.41.16-.41.17-.41.16-.42.17-.41.16-.41.17-.42.16-.41.17-.41.16-.42.17-.41.16-.41.17-.41.17-.42.16-.41.17-.41.16-.42.17-.41.16-.41.17-.42.16-.41.17-.41.16-.42.17-.41.16-.41.17-.41.16-.42.17-.41.16-.41.17-.42.16-.41.17-.41.16-.42.17-.41.16-.41.17-.42.17-.41.16-.41.17-.41.16-.42.17-.41.16-.41.17-.42.16-.41.17-.41.16-.42.17-.41.16-.41.17-.41.16-.42.17-.41.16-.41.17-.42.16-.41.17-.41.16-.42.17-.41.16-.41.17-.42.17-.41.16-.41.17-.41.16-.42.17-.41.16-.41.17-.42.16-.41.17-.41.16-.42.17-.41.16-.41.17-.42.16-.41.17-.41.16-.41.17-.42.16-.41.17-.41.16-.42.17-.41.17-.41.16-.42.17-.41.16-.41.17-.41.16-.42.17-.41.16-.41.17-.42.16-.41.17-.41.16-.42.17-.41.16-.41.17-.42.16-.41.17-.41.16-.41.17-.42.16-.41.17-.41.16-.42.17-.41.17-.41.16-.42.17-.41.16-.41.17-.42.16-.41.17-.41.16-.41.17-.42.16-.41.17-.41.16-.42.17-.41.16-.41.17-.42.16-.41.17-.41.16-.41.17-.42.16-.41.17-.41.16-.42.17-.41.17-.41.16-.42.17-.41.16-.41.17-.42.16-.41.17-.41.16-.41.17-.42.16-.41.17-.41.16-.42.17-.41.16-.41.17-.42.16-.41.17-.41.16-.42.17-.41.16-.41.17-.41.16-.42.17-.41.17-.41.16-.42.17-.41.16-.41.17-.42.16-.41.17-.41.16-.41.17-.42.16-.41.17-.41.16-.42.17-.41.16-.41.17-.42.16-.41.17-.41.16-.42.17-.41.16-.41.17-.41.17-.42.16-.41.17-.41.16-.42.17-.41.16-.41.17-.42.16-.41.17-.41.16-.42.17-.41.16-.41.17-.41.16-.42.17-.41.16-.41.17-.42.16-.41.17-.41.16-.42.17-.41.16-.41.17-.41.17-.42.16-.41.17-.41.16-.42.17-.41.16-.41.17-.42.16-.41.17-.41.16-.42.17-.41.16-.41.17-.41.16-.42.17-.41.16-.41.17-.42.16-.41.17-.41.16-.42.17-.41.16-.41.17-.42.17-.41.16-.41.17-.41.16-.42.17-.41.16-.41.17-.42.16-.41.17-.41.16-.42.17-.41.16-.41.17-.41.16-.42.17-.41.16-.41.17-.42.16-.41.17-.41.16-.42.17-.41.16-.41.17-.42.17-.41.16-.41.17-.41.16-.42.17-.41.16-.41.17-.42.16-.41.17-.41.16-.42.17-.41.16-.41.17-.42.16-.41.17-.41.16-.41.17-.42.16-.41.17-.41.16-.42.17-.41.17-.41.16-.42.17-.41.16-.41.17-.41.16-.42.17-.41.16-.41.17-.42.16-.41.17-.41.16-.42.17-.41.16-.41.17-.42.16-.41.17-.41.16-.41.17-.42.16-.41.17-.41.16-.42.17-.41.17-.41.16-.42.17-.41.16-.41.17-.42.16-.41.17-.41.16-.41.17-.42.16-.41.17-.41.16-.42.17-.41.16-.41.17-.42.16-.41.17-.41.16-.41.17-.42.16-.41.17-.41.16-.42.17-.41.17-.41.16-.42.17-.41.16-.41.17-.42.16-.41.17-.41.16-.41.17-.42.16-.41.17-.41.16-.42.17-.41.16-.41.17-.42.16-.41.17-.41.16-.42.17-.41.16-.41.17-.41.16-.42.17-.41.17-.41.16-.42.17-.41.16-.41.17-.42.16-.41.17-.41.16-.41.17-.42.16-.41.17-.41.16-.42.17-.41.16-.41.17-.42.16-.41.17-.41.16-.42.17-.41.16-.41.17-.41.17-.42.16-.41.17-.41.16-.42.17-.41.16-.41.17-.42.16-.41.17-.41.16-.42.17-.41.16-.41.17-.41.16-.42.17-.41.16-.41.17-.42.16-.41.17-.41.16-.42.17-.41.16-.41.17-.41.17-.42.16-.41.17-.41.16-.42.17-.41.16-.41.17-.42.16-.41.17-.41.16-.42.17-.41.16-.41.17-.41.16-.42.17-.41.16-.41.17-.42.16-.41.17-.41.16-.42.17-.41.16-.41.17-.42.17-.41.16-.41.17-.41.16-.42.17-.41.16-.41.17-.42.16-.41.17-.41.16-.42.17-.41.16-.41.17-.41.16-.42.17-.41.16-.41.17-.42.16-.41.17-.41.16-.42.17-.41.16-.41.17-.42.17-.41.16-.41.17-.41.16-.42.17-.41.16-.41.17-.42.16-.41.17-.41.16-.42.17-.41.16-.41.17-.42.16-.41.17-.41.16-.41.17-.42.16-.41.17-.41.16-.42.17-.41.17-.41.16-.42.17-.41.16-.41.17-.41.16-.42.17-.41.16-.41.17-.42.16-.41.17-.41.16-.42.17-.41.16-.41.17-.42.16-.41.17-.41.16-.41.17-.42.16-.41.17-.41.16-.42.17-.41.17-.41.16-.42.17-.41.16-.41.17-.42.16-.41.17-.41.16-.41.17-.42.16-.41.17-.41.16-.42.17-.41.16-.41.17-.42.16-.41.17-.41.16-.41.07-.17" style="stroke-width:2;stroke:#000;stroke-opacity:1;stroke-dasharray:3"/><path d="M200 156.55h.44l.22-.01h.22l.23-.01.22-.01.22-.01.22-.01.22-.01.22-.02.22-.01.22-.02.22-.02.23-.02.22-.02.22-.03.22-.02.22-.03.22-.03.22-.03.22-.03.22-.03.23-.03.22-.04.22-.04.22-.04.22-.04.22-.04.22-.04.22-.05.23-.04.22-.05.22-.05.22-.05.22-.06.22-.05.22-.06.22-.05.22-.06.23-.06.22-.06.22-.07.22-.06.22-.07.22-.07.22-.07.22-.07.22-.07.23-.07.22-.08.22-.08.22-.08.22-.08.22-.08.22-.08.22-.09.22-.08.23-.09.22-.09.22-.09.22-.09.22-.1.22-.09.22-.1.22-.1.22-.1.23-.1.22-.1.22-.11.22-.1.22-.11.22-.11.22-.11.22-.11.23-.12.22-.11.22-.12.22-.12.22-.12.22-.12.22-.12.22-.13.22-.12.23-.13.22-.13.22-.13.22-.13.22-.14.22-.13.22-.14.22-.14.22-.14.23-.14.22-.14.22-.15.22-.14.22-.15.22-.15.22-.15.22-.15.22-.15.23-.16.22-.16.22-.15.22-.16.22-.17.22-.16.22-.16.22-.17.22-.17.23-.16.22-.17.22-.18.22-.17.22-.17.22-.18.22-.18.22-.18.23-.18.22-.18.22-.19.22-.18.22-.19.22-.19.22-.19.22-.19.22-.19.23-.2.22-.19.22-.2.22-.2.22-.2.22-.21.22-.2.22-.21.22-.2.23-.21.22-.21.22-.21.22-.22.22-.21.22-.22.22-.21.22-.22.22-.22.23-.23.22-.22.22-.23.22-.22.22-.23.22-.23.22-.23.22-.24.22-.23.23-.24.22-.23.22-.24.22-.24.22-.25.22-.24.22-.25.22-.24.23-.25.22-.25.22-.25.22-.25.22-.26.22-.26.22-.25.22-.26.22-.26.23-.26.22-.27.22-.26.22-.27.22-.27.22-.27.22-.27.22-.27.22-.28.23-.27.22-.28.22-.28.22-.28.22-.28.22-.28.22-.29.22-.29.22-.28.23-.29.22-.29.22-.3.22-.29.22-.3.22-.29.22-.3.22-.3.22-.3.23-.31.22-.3.22-.31.22-.31.22-.31.22-.31.22-.31.22-.31.22-.32.23-.32.22-.32.22-.32.22-.32.22-.32.22-.33.22-.32.22-.33.23-.33.22-.33.22-.33.22-.34.22-.33.22-.34.22-.34.22-.34.22-.34.23-.34.22-.35.22-.34.22-.35.22-.35.22-.35.22-.35.22-.36.22-.35.23-.36.22-.36.22-.36.22-.36.22-.36.22-.36.22-.37.22-.37.22-.37.23-.37.22-.37.22-.37.22-.38.22-.38.22-.37.22-.38.22-.38.22-.39.23-.38.22-.39.22-.38.22-.39.22-.39.22-.4.22-.39.22-.39.23-.4.22-.4.22-.4.22-.4.22-.4.22-.41.22-.4.22-.41.22-.41.23-.41.22-.41.22-.41.22-.42.22-.42.22-.41.22-.42.22-.42.22-.43.23-.42.22-.43.22-.42.22-.43.22-.43.22-.43.22-.44.22-.43.22-.44.23-.44.22-.44.22-.44.22-.44.22-.44.22-.45.22-.44.22-.45.22-.45.23-.46.22-.45.22-.45.22-.46.22-.46.22-.46.22-.46.22-.46.23-.46.22-.47.22-.46.22-.47.22-.47.22-.47.22-.48.22-.47.22-.48.23-.48.22-.47.22-.49.22-.48.22-.48.22-.49.22-.48.22-.49.22-.49.23-.49.22-.5.22-.49.22-.5.22-.49.22-.5.22-.5.22-.5.22-.51.23-.5.22-.51.22-.51.22-.51.22-.51.22-.51.22-.52.22-.51.22-.52.23-.52.22-.52.22-.52.22-.52.22-.53.22-.52.22-.53.22-.53.22-.53.23-.53.22-.54.22-.53.22-.54.22-.54.22-.54.22-.54.22-.55.23-.54.22-.55.22-.54.22-.55.22-.55.22-.56.22-.55.22-.56.22-.55.23-.56.22-.56.22-.56.22-.57.22-.56.22-.57.22-.57.22-.56.22-.58.23-.57.22-.57.22-.58.22-.57.22-.58.22-.58.22-.58.22-.59.22-.58.23-.59.22-.58.22-.59.22-.59.22-.6.22-.59.22-.6.22-.59.22-.6.23-.6.22-.6.22-.6.22-.61.22-.6.22-.61.22-.61.22-.61.23-.61.22-.62.22-.61.22-.62.22-.62.22-.62.22-.62.22-.62.22-.62.23-.63.22-.63.22-.63.22-.63.22-.63.22-.63.22-.64.22-.63.22-.64.23-.64.22-.64.22-.65.22-.64.22-.64.22-.65.22-.65.22-.65.22-.65.23-.66.22-.65.22-.66.22-.66.22-.65.22-.67.22-.66.22-.66.22-.67.23-.66.22-.67.22-.67.22-.67.22-.68.22-.67.22-.68.22-.68.23-.68.22-.68.22-.68.22-.68.22-.69.22-.68.22-.69.22-.69.22-.69.23-.7.22-.69.22-.7.22-.7.22-.7.22-.7.22-.7.22-.7.22-.71.23-.7.22-.71.22-.71.22-.71.22-.72.22-.71.22-.72.22-.71.22-.72.23-.72.22-.73.22-.72.22-.72.22-.73.22-.73.22-.73.22-.73.22-.73.23-.74.22-.73.22-.74.22-.74.22-.74.22-.74.22-.74.22-.75.23-.75.22-.74.22-.75.22-.75.22-.76.22-.75.22-.76.22-.75.22-.76.23-.76.22-.77.22-.76.22-.76.22-.77.22-.77.22-.77.22-.77.22-.77.23-.77.22-.78.22-.78.22-.78.22-.78.22-.78.22-.78.22-.79.22-.78.23-.79.22-.79.22-.79.22-.79.22-.8.22-.79.22-.8.22-.8.22-.8.23-.8.22-.8.22-.81.22-.8.22-.81.22-.81.22-.81.22-.81.22-.81.23-.82.22-.82.22-.82.22-.82.22-.82.22-.82.22-.82.22-.83.23-.83.22-.83.22-.83.22-.83.22-.83.22-.84.22-.83.22-.84.22-.84.23-.84.22-.85.22-.84.22-.85.22-.84.22-.85.22-.85.22-.85.22-.86.23-.85.22-.86.22-.86.22-.86.22-.86.22-.86.22-.87.22-.86.22-.87.23-.87.22-.87.22-.87.22-.87.22-.88.22-.87.22-.88.22-.88.22-.88.23-.88.22-.89.22-.88.22-.89.22-.89.22-.89.22-.89.22-.9.23-.89.22-.9.22-.89.22-.9.22-.9.22-.91.22-.9.22-.91.22-.9.23-.91.22-.91.22-.91.22-.92.22-.91.22-.92.22-.91.22-.92.22-.92.23-.93.22-.92.22-.93.22-.92.22-.93.22-.93.22-.93.22-.93.22-.94.23-.94.22-.93.22-.94.22-.94.22-.94.22-.95.22-.94.22-.95.22-.95.23-.95.22-.95.22-.95.22-.96.22-.95.22-.96.22-.96.22-.96.23-.96.22-.96.22-.97.22-.97.22-.96.22-.97.22-.97.22-.98.22-.97.23-.98.22-.97.22-.98.22-.98.22-.99.22-.98.22-.98.22-.99.22-.99.23-.99.22-.99.22-.99.22-1 .22-.99.22-1 .22-1 .22-1 .22-1 .23-1 .22-1.01.22-1 .22-1.01.22-1.01.22-1.01.22-1.01.22-1.02.22-1.01.23-1.02.22-1.02.22-1.02.22-1.02.22-1.02.22-1.03.22-1.02.22-1.03.23-1.03.22-1.03.22-1.03.22-1.04.22-1.03.22-1.04.22-1.04.22-1.04.22-1.04.23-1.04.22-1.05.22-1.04.22-1.05.22-1.05.22-1.05.22-1.05.22-1.06.22-1.05.23-1.06.22-1.06.22-1.06.22-1.06.22-1.06.22-1.06.22-1.07.22-1.07.22-1.07.23-1.07.22-1.07.22-1.07.22-1.08.22-1.07.22-1.08.22-1.08.22-1.08.22-1.09.23-1.08.22-1.09.22-1.08.22-1.09.22-1.09.22-1.09.09-.44" style="stroke-width:2;stroke:#900;stroke-opacity:1"/></g></g><path stroke="none" d="M1 1h356.2v254.55H1z" class="real" style="fill:transparent;stroke:none" transform="translate(-183 8.95)"/></g><g class="arrow-line"><path d="m112.2 24.95 4-12.68" class="connection real" style="stroke:#900;stroke-opacity:1;stroke-width:2;fill:none;fill-opacity:1"/><path fill="#900" stroke="none" d="M13.4-6.43 0 0l13.4 6.44L8.9 0Z" style="stroke:none;fill:#900;stroke-width:2" transform="rotate(107.49 55.6 47.27)"/></g><g class="arrow-line"><path d="M279.37 88.03v78.17" class="connection real" style="stroke:#000;stroke-width:2;fill:none;fill-opacity:1"/></g><g class="arrow-line"><path d="M96.5 66.95v99.35" class="connection real" style="stroke:#000;stroke-width:2;fill:none;fill-opacity:1"/></g><g class="arrow-line"><path d="M385 166.2v-156m-4.5 124h9m-9-32h9m-9-32h9m-9-32h9" class="connection real" style="stroke:#000;stroke-width:1;fill:none;fill-opacity:1"/><path d="M10.93-3.29Q4.96-.45 0 0q4.96.45 10.93 3.29" style="stroke:#000;stroke-width:1" transform="rotate(90 188.4 196.6)"/></g><g class="arrow-line"><path d="M385 166.2h155m-123-4.5v9m32-9v9m32-9v9m32-9v9" class="connection real" style="stroke:#000;stroke-width:1;fill:none;fill-opacity:1"/><path d="M10.93-3.29Q4.96-.45 0 0q4.96.45 10.93 3.29" style="stroke:#000;stroke-width:1" transform="matrix(-1 0 0 -1 542 166.2)"/></g><g class="arrow-line"><path d="M385 134.2h152.3" class="connection real" style="stroke:#900;stroke-opacity:1;stroke-width:2;fill:none;fill-opacity:1"/><path fill="#900" stroke="none" d="M13.4-6.43 0 0l13.4 6.44L8.9 0Z" style="stroke:none;fill:#900;stroke-width:2" transform="matrix(-1 0 0 -1 541.3 134.2)"/></g><g class="arrow-line"><path d="M463.5 134.2v32" class="connection real" style="stroke:#000;stroke-width:2;fill:none;fill-opacity:1"/></g></g></svg><svg xmlns="http://www.w3.org/2000/svg" xmlns:xlink="http://www.w3.org/1999/xlink" width="559" height="194.2" style="width:559px;height:194.1999969482422px;font-family:Asana-Math,Asana;background:#fff"><path fill="#000" stroke="#000" stroke-width=".12" d="M177.08 176.9h1.28v4.14c0 1.84 1.4 2.02 1.93 2.02 1.07 0 1.49-1.06 1.49-2.02v-.86h-.38v.83c0 1.11-.45 1.68-1 1.68-1 0-1-1.37-1-1.62v-4.17h2.14v-.47h-2.15v-2.76h-.37c-.02 1.23-.47 2.84-1.94 2.9ZM24.97 24.9a18 18 0 0 1 2.67 0v-.47c-.33-.04-.43-.24-.43-.46 0-.33.43-.83 1.35-1.9l1.14 1.5c.12.16.31.4.31.49 0 .13-.13.36-.54.37v.47l1.62-.05c.41 0 1 .02 1.44.05v-.47c-.8 0-1.08-.03-1.42-.46l-2.01-2.6c.45-.57 1.02-1.3 1.38-1.69a2.3 2.3 0 0 1 1.78-.78v-.47a17 17 0 0 1-2.67 0v.47c.32.03.44.22.44.46s-.15.44-.23.53l-.93 1.17-1.17-1.52c-.13-.15-.13-.18-.13-.27 0-.22.22-.36.52-.37v-.47l-1.62.05c-.31 0-1.02-.02-1.42-.05v.47c1.05 0 1.06.01 1.77.91l1.48 1.94-1.4 1.78c-.73.87-1.61.9-1.93.9Zm334.98 151.9h1.27v4.14c0 1.84 1.4 2.02 1.94 2.02 1.06 0 1.48-1.06 1.48-2.02v-.86h-.37v.83c0 1.11-.45 1.68-1 1.68-1.01 0-1.01-1.37-1.01-1.62v-4.17h2.14v-.47h-2.14v-2.76h-.38c-.01 1.23-.46 2.84-1.93 2.9ZM207.94 18.79c.95 0 1 .09 1.2.55l2.16 5.33c.1.2.12.28.32.28s.25-.13.31-.28l1.97-4.88c.13-.34.39-.99 1.38-1v-.47a14 14 0 0 1-2.43 0v.47c.55.01.72.36.72.64 0 .14-.03.2-.1.36l-1.52 3.83-1.68-4.19c-.1-.2-.1-.22-.1-.25 0-.4.6-.4.86-.4v-.46a25 25 0 0 1-3.09 0Z"/><path fill="#000" stroke="#000" stroke-width=".14" d="M103.95 116.68q.41.2.73.2c.56 0 1.23-.49 1.75-1.29l1.3-1.98.18 1.17c.22 1.44.62 2.1 1.23 2.1.37 0 .92-.28 1.46-.78l.83-.74-.15-.33q-.91.77-1.3.77-.4 0-.66-.51a7 7 0 0 1-.42-1.45l-.3-1.71.59-.84c.8-1.1 1.26-1.5 1.78-1.5q.43 0 .56.4l.24-.07.26-1.44a1 1 0 0 0-.51-.17c-.68 0-1.36.6-2.42 2.17l-.63.94-.1-.82c-.2-1.68-.66-2.3-1.66-2.3-.45 0-.82.14-.97.36l-.99 1.41.3.17c.5-.57.84-.81 1.16-.81.56 0 .94.7 1.23 2.36l.18 1.05-.68 1.06q-1.08 1.7-1.78 1.68-.4-.01-.48-.15l-.18-.48-.34.05c0 .6-.14 1.04-.2 1.48Zm23.71-5.88v-1h-9.17v1Zm0 3.62v-1h-9.17v1Zm15-10.07v-.5l-.89-.06c-.93-.05-1.1-.24-1.1-1.12V92.4l-4.1 1.73.12.85 2.55-1.12v8.8c0 .9-.19 1.08-1.1 1.13l-.96.05v.51l2.8-.05zm-6.84 25.35v.45c3.18 0 3.18-.05 3.8-.05.6 0 .6.05 3.89.05v-1.44c-1.96.08-2.74.01-5.89.08l3.1-3.28c1.65-1.75 2.16-2.69 2.16-3.96 0-1.96-1.33-3.16-3.49-3.16-1.22 0-2.06.34-2.89 1.19l-.29 2.3h.5l.22-.77c.27-.99.88-1.41 2.02-1.41 1.46 0 2.4.91 2.4 2.36 0 1.27-.72 2.53-2.64 4.57Z"/><path d="M135.55 112.25h8.49" style="fill:none;stroke-width:.8px;stroke:#000"/><path fill="#000" stroke="#000" stroke-width=".14" d="m147.86 110.07-.95 4.81c-.02.14-.22.78-.22 1.3 0 .42.19.67.5.67.6 0 1.2-.34 2.53-1.4l.52-.43-.17-.3-.76.52q-.75.5-1.02.5-.24-.02-.24-.33c0-.44.24-1.82.73-4.29l.22-1.05h1.82l.19-.85c-.65.07-1.23.1-1.87.1.27-1.6.46-2.43.76-3.35l-.18-.25q-.52.3-1.33.61l-.43 2.89c-.74.36-1.19.54-1.5.63l-.03.22Z"/><path fill="#000" stroke="#000" stroke-width=".1" d="M152.55 109.73v.3c2.23 0 2.23-.03 2.66-.03.42 0 .42.04 2.72.04v-1.02c-1.37.06-1.91.02-4.12.06l2.17-2.3c1.15-1.22 1.51-1.87 1.51-2.77 0-1.36-.93-2.2-2.44-2.2-.85 0-1.44.23-2.02.82l-.2 1.62h.34l.16-.55c.19-.69.62-.98 1.41-.98 1.03 0 1.68.64 1.68 1.65 0 .9-.5 1.77-1.84 3.2Z"/><path fill="#000" stroke="#000" stroke-width=".14" d="M295.12 122.66c.36 0 .63-.02 1.07-.07-1.88 2.04-2.6 3.45-2.6 5.15 0 1.31.78 2.25 1.87 2.25 2.35 0 4.95-4.2 4.95-6.72 0-.97-.44-1.66-1.06-1.66a.8.8 0 0 0-.56.2l-.85.8.2.32q.22-.15.45-.15c.46 0 .73.39.73 1.07 0 2.52-1.65 5.29-3.14 5.29-.84 0-1.36-.72-1.36-1.82 0-1.79.66-3.33 2.32-5.4l-.17-.31c-.34.15-.56.2-1.03.2-.48 0-1.2-.03-1.69-.09l-.2-.01-.2-.02q-.28 0-.55.12a9 9 0 0 0-.64 2h.37l.29-.7c.12-.3.46-.48.87-.48.56 0 .29.03.93.03Zm21.04 1.24v-1h-9.17v1Zm0 3.62v-1h-9.17v1Zm13.3 2.33v-.5l-.89-.06c-.93-.05-1.1-.24-1.1-1.12V117.9l-4.1 1.73.12.85 2.55-1.12v8.8c0 .9-.19 1.08-1.1 1.13l-.96.05v.51l2.8-.05zm3.5-6.68-.95 4.81c-.02.14-.22.78-.22 1.3q.01.65.5.67c.6 0 1.2-.34 2.52-1.4l.53-.43-.17-.3-.77.52q-.74.5-1.02.5-.23-.01-.23-.33c0-.44.23-1.82.73-4.29l.22-1.05h1.82l.18-.85c-.64.07-1.22.1-1.87.1.28-1.6.46-2.43.77-3.35l-.19-.25q-.53.3-1.32.61l-.43 2.89c-.75.36-1.19.54-1.5.63l-.03.22Z"/><path fill="#000" stroke="#000" stroke-width=".12" d="M544.09 176.8h1.27v4.14c0 1.84 1.4 2.02 1.94 2.02 1.06 0 1.48-1.06 1.48-2.02v-.86h-.37v.83c0 1.11-.45 1.68-1.01 1.68-1 0-1-1.37-1-1.62v-4.17h2.14v-.47h-2.14v-2.76h-.38c-.01 1.23-.46 2.84-1.93 2.9ZM392.43 23.36c0 1.22 1.45 1.6 2.4 1.6.99 0 1.68-.6 1.96-1.31.06.6.47 1.23 1.17 1.23.32 0 1.23-.21 1.23-1.43v-.84h-.37v.84c0 .87-.38.96-.54.96-.5 0-.56-.67-.56-.75v-3c0-.63 0-1.21-.54-1.77a3 3 0 0 0-2.05-.82c-1.23 0-2.27.7-2.27 1.7 0 .44.3.7.69.7.42 0 .69-.3.69-.7 0-.17-.07-.67-.76-.68.4-.53 1.14-.7 1.62-.7.73 0 1.59.6 1.59 1.93v.55c-.77.05-1.82.1-2.76.54-1.13.51-1.5 1.3-1.5 1.95Zm1.15-.01c0-.83.63-2.07 3.1-2.16v1.5c0 1.42-1.07 1.93-1.75 1.93-.73 0-1.35-.52-1.35-1.27Z"/><path fill="#000" stroke="#000" stroke-width=".14" d="m473.53 152.83-.5 2.16q-.1.45-.1.87c0 .37.16.6.42.6.39 0 1.08-.45 2.48-1.6l-.12-.36c-.41.34-.9.8-1.28.8q-.24-.02-.25-.4 0-.11.02-.18l1.56-6.44-.17-.16-.56.3c-.7-.25-.99-.31-1.45-.31-.47 0-.81.08-1.27.3a4 4 0 0 0-2.04 1.87 13 13 0 0 0-1.28 4.88c0 .75.26 1.33.58 1.33.63 0 1.99-.89 3.96-3.66Zm.82-3.57c-.38 1.85-.7 2.74-1.28 3.62-.97 1.43-2 2.42-2.55 2.42q-.3 0-.3-.68c0-1.1.47-3.08 1.07-4.44.4-.94.8-1.24 1.61-1.24.4 0 .7.07 1.45.32Zm17.48 1.14v-1h-9.16v1Zm0 3.62v-1h-9.16v1Zm13.3 2.33v-.5l-.88-.06c-.94-.05-1.1-.24-1.1-1.12V144.4l-4.1 1.73.11.85 2.55-1.12v8.8c0 .9-.18 1.08-1.1 1.13l-.95.05v.51l2.8-.05z"/></svg></svg>