<svg xmlns="http://www.w3.org/2000/svg" width="381.6" height="195.8" style="width:381.6000162760417px;height:195.80000813802084px;background:#fff;fill:none"><svg xmlns="http://www.w3.org/2000/svg"/><svg xmlns="http://www.w3.org/2000/svg" class="role-diagram-draw-area" style="overflow:visible"><g class="shapes-region" style="stroke:#000;fill:none"><g class="arrow-line"><path d="M49.83 102.5v62.8" class="connection real" style="stroke:#000;stroke-width:2;fill:none;fill-opacity:1"/></g><g class="arrow-line"><path d="M18 166.3v-156m-4.5 124h9m-9-32h9m-9-32h9m-9-32h9" class="connection real" style="stroke:#000;stroke-width:1;fill:none;fill-opacity:1"/><path d="M10.93-3.29Q4.96-.45 0 0q4.96.45 10.93 3.29" style="stroke:#000;stroke-width:1" transform="rotate(90 4.85 13.15)"/></g><g class="arrow-line"><path d="M18 166.3h155m-123-4.5v9m32-9v9m32-9v9m32-9v9" class="connection real" style="stroke:#000;stroke-width:1;fill:none;fill-opacity:1"/><path d="M10.93-3.29Q4.96-.45 0 0q4.96.45 10.93 3.29" style="stroke:#000;stroke-width:1" transform="matrix(-1 0 0 -1 175 166.3)"/></g><g class="arrow-line"><path d="M200.87 166.2v-156m-4.5 124h9m-9-32h9m-9-32h9m-9-32h9" class="connection real" style="stroke:#000;stroke-width:1;fill:none;fill-opacity:1"/><path d="M10.93-3.29Q4.96-.45 0 0q4.96.45 10.93 3.29" style="stroke:#000;stroke-width:1" transform="rotate(90 96.333 104.533)"/></g><g class="arrow-line"><path d="M200.87 166.2h155m-123-4.5v9m32-9v9m32-9v9m32-9v9" class="connection real" style="stroke:#000;stroke-width:1;fill:none;fill-opacity:1"/><path d="M10.93-3.29Q4.96-.45 0 0q4.96.45 10.93 3.29" style="stroke:#000;stroke-width:1" transform="matrix(-1 0 0 -1 357.867 166.2)"/></g><g class="arrow-line"><path d="M201.13 102.23h154" class="connection real" style="stroke:#900;stroke-opacity:1;stroke-width:2;fill:none;fill-opacity:1"/><path fill="#900" stroke="none" d="M13.4-6.43 0 0l13.4 6.44L8.9 0Z" style="stroke:none;fill:#900;stroke-width:2" transform="matrix(-1 0 0 -1 359.133 102.233)"/></g><g class="composite-shape" data-amt="diagram/shapes/plot"><g class="test-plot-expression" transform="translate(-181.667 9.283)"><defs><clipPath id="cphl5029ghgdg-full-view"><path d="M1 1h356.2v254.55H1z"/></clipPath></defs><g clip-path="url(#cphl5029ghgdg-full-view)"><path d="m200 156.55.22-.44.22-.44.22-.45.22-.44.23-.44.22-.44.22-.45.22-.44.22-.44.22-.44.22-.44.22-.45.22-.44.23-.44.22-.44.22-.45.22-.44.22-.44.22-.44.22-.45.22-.44.22-.44.23-.44.22-.44.22-.45.22-.44.22-.44.22-.44.22-.45.22-.44.23-.44.22-.44.22-.44.22-.45.22-.44.22-.44.22-.44.22-.45.22-.44.23-.44.22-.44.22-.45.22-.44.22-.44.22-.44.22-.44.22-.45.22-.44.23-.44.22-.44.22-.45.22-.44.22-.44.22-.44.22-.44.22-.45.22-.44.23-.44.22-.44.22-.45.22-.44.22-.44.22-.44.22-.45.22-.44.22-.44.23-.44.22-.44.22-.45.22-.44.22-.44.22-.44.22-.45.22-.44.23-.44.22-.44.22-.44.22-.45.22-.44.22-.44.22-.44.22-.45.22-.44.23-.44.22-.44.22-.45.22-.44.22-.44.22-.44.22-.44.22-.45.22-.44.23-.44.22-.44.22-.45.22-.44.22-.44.22-.44.22-.44.22-.45.22-.44.23-.44.22-.44.22-.45.22-.44.22-.44.22-.44.22-.45.22-.44.22-.44.23-.44.22-.44.22-.45.22-.44.22-.44.22-.44.22-.45.22-.44.23-.44.22-.44.22-.44.22-.45.22-.44.22-.44.22-.44.22-.45.22-.44.23-.44.22-.44.22-.45.22-.44.22-.44.22-.44.22-.44.22-.45.22-.44.23-.44.22-.44.22-.45.22-.44.22-.44.22-.44.22-.44.22-.45.22-.44.23-.44.22-.44.22-.45.22-.44.22-.44.22-.44.22-.45.22-.44.22-.44.23-.44.22-.44.22-.45.22-.44.22-.44.22-.44.22-.45.22-.44.23-.44.22-.44.22-.44.22-.45.22-.44.22-.44.22-.44.22-.45.22-.44.23-.44.22-.44.22-.44.22-.45.22-.44.22-.44.22-.44.22-.45.22-.44.23-.44.22-.44.22-.45.22-.44.22-.44.22-.44.22-.44.22-.45.22-.44.23-.44.22-.44.22-.45.22-.44.22-.44.22-.44.22-.44.22-.45.22-.44.23-.44.22-.44.22-.45.22-.44.22-.44.22-.44.22-.45.22-.44.22-.44.23-.44.22-.44.22-.45.22-.44.22-.44.22-.44.22-.45.22-.44.23-.44.22-.44.22-.44.22-.45.22-.44.22-.44.22-.44.22-.45.22-.44.23-.44.22-.44.22-.45.22-.44.22-.44.22-.44.22-.44.22-.45.22-.44.23-.44.22-.44.22-.45.22-.44.22-.44.22-.44.22-.44.22-.45.22-.44.23-.44.22-.44.22-.45.22-.44.22-.44.22-.44.22-.45.22-.44.22-.44.23-.44.22-.44.22-.45.22-.44.22-.44.22-.44.22-.45.22-.44.23-.44.22-.44.22-.44.22-.45.22-.44.22-.44.22-.44.22-.45.22-.44.23-.44.22-.44.22-.45.22-.44.22-.44.22-.44.22-.44.22-.45.22-.44.23-.44.22-.44.22-.45.22-.44.22-.44.22-.44.22-.44.22-.45.22-.44.23-.44.22-.44.22-.45.22-.44.22-.44.22-.44.22-.45.22-.44.22-.44.23-.44.22-.44.22-.45.22-.44.22-.44.22-.44.22-.45.22-.44.23-.44.22-.44.22-.44.22-.45.22-.44.22-.44.22-.44.22-.45.22-.44.23-.44.22-.44.22-.45.22-.44.22-.44.22-.44.22-.44.22-.45.22-.44.23-.44.22-.44.22-.45.22-.44.22-.44.22-.44.22-.44.22-.45.22-.44.23-.44.22-.44.22-.45.22-.44.22-.44.22-.44.22-.45.22-.44.22-.44.23-.44.22-.44.22-.45.22-.44.22-.44.22-.44.22-.45.22-.44.22-.44.23-.44.22-.44.22-.45.22-.44.22-.44.22-.44.22-.45.22-.44.23-.44.22-.44.22-.44.22-.45.22-.44.22-.44.22-.44.22-.45.22-.44.23-.44.22-.44.22-.45.22-.44.22-.44.22-.44.22-.44.22-.45.22-.44.23-.44.22-.44.22-.45.22-.44.22-.44.22-.44.22-.44.22-.45.22-.44.23-.44.22-.44.22-.45.22-.44.22-.44.22-.44.22-.45.22-.44.22-.44.23-.44.22-.44.22-.45.22-.44.22-.44.22-.44.22-.45.22-.44.23-.44.22-.44.22-.44.22-.45.22-.44.22-.44.22-.44.22-.45.22-.44.23-.44.22-.44.22-.45.22-.44.22-.44.22-.44.22-.44.22-.45.22-.44.23-.44.22-.44.22-.45.22-.44.22-.44.22-.44.22-.44.22-.45.22-.44.23-.44.22-.44.22-.45.22-.44.22-.44.22-.44.22-.45.22-.44.22-.44.23-.44.22-.44.22-.45.22-.44.22-.44.22-.44.22-.45.22-.44.23-.44.22-.44.22-.44.22-.45.22-.44.22-.44.22-.44.22-.45.22-.44.23-.44.22-.44.22-.45.22-.44.22-.44.22-.44.22-.44.22-.45.22-.44.23-.44.22-.44.22-.45.22-.44.22-.44.22-.44.22-.44.22-.45.22-.44.23-.44.22-.44.22-.45.22-.44.22-.44.22-.44.22-.45.22-.44.22-.44.23-.44.22-.44.22-.45.22-.44.22-.44.22-.44.22-.45.22-.44.23-.44.22-.44.22-.44.22-.45.22-.44.22-.44.22-.44.22-.45.22-.44.23-.44.22-.44.22-.45.22-.44.22-.44.22-.44.22-.44.22-.45.22-.44.23-.44.22-.44.22-.45.22-.44.22-.44.22-.44.22-.44.22-.45.22-.44.23-.44.22-.44.22-.45.22-.44.22-.44.22-.44.22-.44.22-.45.22-.44.23-.44.22-.44.22-.45.22-.44.22-.44.22-.44.22-.45.22-.44.22-.44.23-.44.22-.44.22-.45.22-.44.22-.44.22-.44.22-.45.22-.44.23-.44.22-.44.22-.44.22-.45.22-.44.22-.44.22-.44.22-.45.22-.44.23-.44.22-.44.22-.45.22-.44.22-.44.22-.44.22-.44.22-.45.22-.44.23-.44.22-.44.22-.45.22-.44.22-.44.22-.44.22-.44.22-.45.22-.44.23-.44.22-.44.22-.45.22-.44.22-.44.22-.44.22-.45.22-.44.22-.44.23-.44.22-.44.22-.45.22-.44.22-.44.22-.44.22-.45.22-.44.23-.44.22-.44.22-.44.22-.45.22-.44.22-.44.22-.44.22-.45.22-.44.23-.44.22-.44.22-.45.22-.44.22-.44.22-.44.22-.44.22-.45.22-.44.23-.44.22-.44.22-.45.22-.44.22-.44.22-.44.22-.44.22-.45.22-.44.23-.44.22-.44.22-.45.22-.44.22-.44.22-.44.22-.45.22-.44.22-.44.23-.44.22-.44.22-.45.22-.44.22-.44.22-.44.22-.45.22-.44.23-.44.22-.44.22-.44.22-.45.22-.44.22-.44.22-.44.22-.45.22-.44.23-.44.22-.44.22-.45.22-.44.22-.44.22-.44.22-.44.22-.45.22-.44.23-.44.22-.44.22-.45.22-.44.22-.44.22-.44.22-.44.22-.45.22-.44.23-.44.22-.44.22-.45.22-.44.22-.44.22-.44.22-.45.22-.44.22-.44.23-.44.22-.44.22-.45.22-.44.22-.44.22-.44.22-.45.22-.44.23-.44.22-.44.22-.44.22-.45.22-.44.22-.44.22-.44.22-.45.22-.44.23-.44.22-.44.22-.44.22-.45.22-.44.22-.44.22-.44.22-.45.22-.44.23-.44.22-.44.22-.45.22-.44.22-.44.22-.44.22-.44.22-.45.22-.44.23-.44.22-.44.22-.45.22-.44.22-.44.22-.44.22-.44.22-.45.22-.44.23-.44.22-.44.22-.45.22-.44.22-.44.22-.44.09-.18" style="stroke-width:2;stroke:#900;stroke-opacity:1"/></g></g><path stroke="none" d="M1 1h356.2v254.55H1z" class="real" style="fill:transparent;stroke:none" transform="translate(-181.667 9.283)"/></g><g class="arrow-line"><path d="M233.03 102.83v62.37" class="connection real" style="stroke:#000;stroke-width:2;fill:none;fill-opacity:1"/></g><g class="arrow-line"><path d="m88.13 26.17 7.18-14.04" class="connection real" style="stroke:#900;stroke-opacity:1;stroke-width:2;fill:none;fill-opacity:1"/><path fill="#900" stroke="none" d="M13.4-6.43 0 0l13.4 6.44L8.9 0Z" style="stroke:none;fill:#900;stroke-width:2" transform="rotate(117.08 45.946 33.998)"/></g></g></svg><svg xmlns="http://www.w3.org/2000/svg" xmlns:xlink="http://www.w3.org/1999/xlink" width="380" height="194.2" style="width:380px;height:194.20001220703125px;font-family:Asana-Math,Asana;background:#fff"><path fill="#000" stroke="#000" stroke-width=".12" d="M177.085 176.9h1.275v4.14c0 1.845 1.395 2.025 1.935 2.025 1.065 0 1.485-1.065 1.485-2.025v-.855h-.375v.825c0 1.11-.45 1.68-1.005 1.68-1.005 0-1.005-1.365-1.005-1.62v-4.17h2.145v-.465h-2.145v-2.76h-.375c-.015 1.23-.465 2.835-1.935 2.895ZM25.08 18.9c.945 0 1.005.09 1.2.555l2.16 5.325c.09.21.12.285.315.285s.255-.135.315-.285l1.965-4.875c.135-.345.39-.99 1.38-1.005v-.465c-.345.03-.78.045-1.125.045-.36 0-1.05-.03-1.305-.045v.465c.555.015.72.36.72.645 0 .135-.03.195-.09.36l-1.53 3.825-1.68-4.185c-.09-.195-.09-.225-.09-.255 0-.39.585-.39.855-.39v-.465c-.45.015-1.29.045-1.635.045-.405 0-1.005-.015-1.455-.045Zm334.867 157.9h1.275v4.14c0 1.845 1.395 2.025 1.935 2.025 1.065 0 1.485-1.065 1.485-2.025v-.855h-.375v.825c0 1.11-.45 1.68-1.005 1.68-1.005 0-1.005-1.365-1.005-1.62v-4.17h2.145v-.465h-2.145v-2.76h-.375c-.015 1.23-.465 2.835-1.935 2.895ZM208.287 23.363c0 1.215 1.455 1.59 2.4 1.59.99 0 1.68-.6 1.965-1.305.06.6.465 1.23 1.17 1.23.315 0 1.23-.21 1.23-1.425v-.84h-.375v.84c0 .87-.375.96-.54.96-.495 0-.555-.675-.555-.75v-3c0-.63 0-1.215-.54-1.77-.585-.585-1.335-.825-2.055-.825-1.23 0-2.265.705-2.265 1.695 0 .45.3.705.69.705.42 0 .69-.3.69-.69 0-.18-.075-.675-.765-.69.405-.525 1.14-.69 1.62-.69.735 0 1.59.585 1.59 1.92v.555c-.765.045-1.815.09-2.76.54-1.125.51-1.5 1.29-1.5 1.95Zm1.155-.015c0-.825.63-2.07 3.105-2.16v1.5c0 1.425-1.08 1.935-1.755 1.935-.735 0-1.35-.525-1.35-1.275Z"/><path fill="#000" stroke="#000" stroke-width=".136" d="M60.284 122.823a8 8 0 0 0 1.071-.068c-1.887 2.04-2.6 3.45-2.6 5.15 0 1.31.781 2.245 1.87 2.245 2.345 0 4.946-4.2 4.946-6.715 0-.97-.442-1.666-1.054-1.666-.22 0-.425.068-.56.204l-.85.799.186.323a.8.8 0 0 1 .46-.153c.458 0 .73.39.73 1.07 0 2.517-1.649 5.288-3.145 5.288-.833 0-1.36-.714-1.36-1.82 0-1.784.663-3.331 2.33-5.405l-.17-.306c-.34.153-.562.204-1.038.204s-1.19-.034-1.683-.085l-.204-.017c-.102-.017-.187-.017-.204-.017-.204 0-.357.034-.544.119-.238.459-.425 1.07-.646 2.006h.374l.29-.714c.118-.29.458-.476.866-.476.561 0 .29.034.935.034Zm21.034 1.241v-1.003h-9.163v1.003Zm0 3.62v-1.002h-9.163v1.003Zm6.466 1.888v.442c3.18 0 3.18-.051 3.791-.051.612 0 .612.05 3.893.05v-1.444c-1.955.085-2.737.017-5.882.085l3.094-3.281c1.65-1.751 2.16-2.686 2.16-3.961 0-1.955-1.327-3.162-3.486-3.162-1.224 0-2.057.34-2.89 1.19l-.289 2.312h.493l.221-.782c.272-.986.884-1.411 2.023-1.411 1.462 0 2.397.918 2.397 2.363 0 1.275-.714 2.533-2.635 4.573Zm10.336-6.24-.952 4.812c-.017.136-.22.782-.22 1.292 0 .425.186.68.51.68.594 0 1.19-.34 2.515-1.411l.527-.425-.17-.306-.765.527q-.74.51-1.02.51c-.153 0-.238-.136-.238-.34 0-.442.238-1.82.731-4.284l.221-1.054h1.82l.186-.85a17 17 0 0 1-1.87.102c.272-1.598.46-2.431.765-3.35l-.187-.254c-.34.204-.799.408-1.326.612l-.425 2.89c-.748.357-1.19.544-1.496.629l-.034.22Zm146.75 11.888-.493 2.159a4 4 0 0 0-.102.867c0 .373.153.594.408.594.39 0 1.088-.441 2.482-1.597l-.12-.357c-.407.34-.9.799-1.274.799-.153 0-.255-.154-.255-.392 0-.085 0-.136.017-.186l1.564-6.443-.17-.153-.561.305c-.697-.255-.986-.322-1.445-.322-.476 0-.816.084-1.275.305-1.054.528-1.615 1.037-2.04 1.87-.748 1.513-1.275 3.553-1.275 4.88 0 .748.255 1.326.578 1.326.629 0 1.989-.885 3.96-3.655Zm.816-3.57c-.374 1.852-.697 2.737-1.275 3.62-.97 1.428-2.006 2.415-2.55 2.415-.204 0-.306-.221-.306-.68 0-1.088.476-3.077 1.07-4.437.409-.936.8-1.242 1.616-1.242.39 0 .697.069 1.445.323Zm17.482 1.139v-1.003h-9.163v1.002Zm0 3.62v-1.002h-9.163v1.002Zm6.466 1.888v.441c3.18 0 3.18-.05 3.791-.05.612 0 .612.05 3.893.05v-1.445c-1.955.085-2.737.017-5.882.085l3.094-3.28c1.65-1.752 2.16-2.687 2.16-3.962 0-1.954-1.327-3.161-3.486-3.161-1.224 0-2.057.34-2.89 1.19l-.289 2.311h.493l.221-.781c.272-.987.884-1.411 2.023-1.411 1.462 0 2.397.918 2.397 2.363 0 1.275-.714 2.532-2.635 4.573Z"/></svg></svg>