<svg xmlns="http://www.w3.org/2000/svg" xmlns:xlink="http://www.w3.org/1999/xlink" x="0" y="0" width="381.6000162760417" height="195.80000813802084" style="
        width:381.6000162760417px;
        height:195.80000813802084px;
        background: #FFF;
        fill: none;
">
        <svg xmlns="http://www.w3.org/2000/svg"/>
        
        <svg xmlns="http://www.w3.org/2000/svg" class="role-diagram-draw-area" style="overflow: visible;"><g class="shapes-region" style="stroke: black; fill: none;"><g class="arrow-line"><path class="connection real" stroke-dasharray="" d="  M18,166.3 L18,10.3  M13.5,134.3 L22.5,134.3 M13.5,102.3 L22.5,102.3 M13.5,70.3 L22.5,70.3 M13.5,38.3 L22.5,38.3" style="stroke: rgb(0, 0, 0); stroke-width: 1; fill: none; fill-opacity: 1;"/><g stroke="#000" transform="matrix(3.061616997868383e-16,1,-1,3.061616997868383e-16,18,8.300003051757812)" style="stroke: rgb(0, 0, 0); stroke-width: 1;"><path d=" M10.93,-3.29 Q4.96,-0.45 0,0 Q4.96,0.45 10.93,3.29"/></g></g><g class="arrow-line"><path class="connection real" stroke-dasharray="" d="  M18,166.3 L173,166.3  M50,161.8 L50,170.8 M82,161.8 L82,170.8 M114,161.8 L114,170.8 M146,161.8 L146,170.8" style="stroke: rgb(0, 0, 0); stroke-width: 1; fill: none; fill-opacity: 1;"/><g stroke="#000" transform="matrix(-1,1.2246467991473532e-16,-1.2246467991473532e-16,-1,174.99999999999997,166.30000305175784)" style="stroke: rgb(0, 0, 0); stroke-width: 1;"><path d=" M10.93,-3.29 Q4.96,-0.45 0,0 Q4.96,0.45 10.93,3.29"/></g></g><g class="arrow-line"><path class="connection real" stroke-dasharray="" d="  M200.87,166.2 L200.87,10.2  M196.37,134.2 L205.37,134.2 M196.37,102.2 L205.37,102.2 M196.37,70.2 L205.37,70.2 M196.37,38.2 L205.37,38.2" style="stroke: rgb(0, 0, 0); stroke-width: 1; fill: none; fill-opacity: 1;"/><g stroke="#000" transform="matrix(3.061616997868383e-16,1,-1,3.061616997868383e-16,200.8666788736979,8.199996948242188)" style="stroke: rgb(0, 0, 0); stroke-width: 1;"><path d=" M10.93,-3.29 Q4.96,-0.45 0,0 Q4.96,0.45 10.93,3.29"/></g></g><g class="arrow-line"><path class="connection real" stroke-dasharray="" d="  M200.87,166.2 L355.87,166.2  M232.87,161.7 L232.87,170.7 M264.87,161.7 L264.87,170.7 M296.87,161.7 L296.87,170.7 M328.87,161.7 L328.87,170.7" style="stroke: rgb(0, 0, 0); stroke-width: 1; fill: none; fill-opacity: 1;"/><g stroke="#000" transform="matrix(-1,1.2246467991473532e-16,-1.2246467991473532e-16,-1,357.8666788736979,166.1999969482422)" style="stroke: rgb(0, 0, 0); stroke-width: 1;"><path d=" M10.93,-3.29 Q4.96,-0.45 0,0 Q4.96,0.45 10.93,3.29"/></g></g><g class="arrow-line"><path class="connection real" stroke-dasharray="" d="  M200.8,133.9 L354.8,133.9" style="stroke: rgb(153, 0, 0); stroke-opacity: 1; stroke-width: 2; fill: none; fill-opacity: 1;"/><g stroke="none" fill="rgb(153,0,0)" fill-opacity="1" transform="matrix(-1,1.2246467991473532e-16,-1.2246467991473532e-16,-1,358.79998779296875,133.89999389648438)" style="stroke: none; fill: rgb(153, 0, 0); stroke-width: 2;"><path d=" M13.4,-6.43 L0,0 L13.4,6.44 L8.9,0 Z"/></g></g><g class="composite-shape" data-amt="diagram/shapes/plot" transform="matrix(1,0,0,1,-183,8.949996948242188)"><g><g/><g><g class="test-plot-expression"><defs><clipPath id="cphl5029ghgdg-full-view"><rect x="1" y="1" width="356.1999969482422" height="254.5500030517578"/></clipPath></defs><g clip-path="url(#cphl5029ghgdg-full-view)"><path d=" M200.00,156.55 L200.22,156.33 L200.44,156.11 L200.66,155.89 L200.88,155.67 L201.11,155.44 L201.33,155.22 L201.55,155.00 L201.77,154.78 L201.99,154.56 L202.21,154.34 L202.43,154.12 L202.65,153.90 L202.87,153.68 L203.10,153.45 L203.32,153.23 L203.54,153.01 L203.76,152.79 L203.98,152.57 L204.20,152.35 L204.42,152.13 L204.64,151.91 L204.86,151.69 L205.09,151.46 L205.31,151.24 L205.53,151.02 L205.75,150.80 L205.97,150.58 L206.19,150.36 L206.41,150.14 L206.63,149.92 L206.86,149.69 L207.08,149.47 L207.30,149.25 L207.52,149.03 L207.74,148.81 L207.96,148.59 L208.18,148.37 L208.40,148.15 L208.62,147.93 L208.85,147.70 L209.07,147.48 L209.29,147.26 L209.51,147.04 L209.73,146.82 L209.95,146.60 L210.17,146.38 L210.39,146.16 L210.61,145.94 L210.84,145.71 L211.06,145.49 L211.28,145.27 L211.50,145.05 L211.72,144.83 L211.94,144.61 L212.16,144.39 L212.38,144.17 L212.60,143.95 L212.83,143.72 L213.05,143.50 L213.27,143.28 L213.49,143.06 L213.71,142.84 L213.93,142.62 L214.15,142.40 L214.37,142.18 L214.59,141.96 L214.82,141.73 L215.04,141.51 L215.26,141.29 L215.48,141.07 L215.70,140.85 L215.92,140.63 L216.14,140.41 L216.36,140.19 L216.59,139.96 L216.81,139.74 L217.03,139.52 L217.25,139.30 L217.47,139.08 L217.69,138.86 L217.91,138.64 L218.13,138.42 L218.35,138.20 L218.58,137.97 L218.80,137.75 L219.02,137.53 L219.24,137.31 L219.46,137.09 L219.68,136.87 L219.90,136.65 L220.12,136.43 L220.34,136.21 L220.57,135.98 L220.79,135.76 L221.01,135.54 L221.23,135.32 L221.45,135.10 L221.67,134.88 L221.89,134.66 L222.11,134.44 L222.33,134.22 L222.56,133.99 L222.78,133.77 L223.00,133.55 L223.22,133.33 L223.44,133.11 L223.66,132.89 L223.88,132.67 L224.10,132.45 L224.32,132.23 L224.55,132.00 L224.77,131.78 L224.99,131.56 L225.21,131.34 L225.43,131.12 L225.65,130.90 L225.87,130.68 L226.09,130.46 L226.32,130.23 L226.54,130.01 L226.76,129.79 L226.98,129.57 L227.20,129.35 L227.42,129.13 L227.64,128.91 L227.86,128.69 L228.08,128.47 L228.31,128.24 L228.53,128.02 L228.75,127.80 L228.97,127.58 L229.19,127.36 L229.41,127.14 L229.63,126.92 L229.85,126.70 L230.07,126.48 L230.30,126.25 L230.52,126.03 L230.74,125.81 L230.96,125.59 L231.18,125.37 L231.40,125.15 L231.62,124.93 L231.84,124.71 L232.06,124.49 L232.29,124.26 L232.51,124.04 L232.73,123.82 L232.95,123.60 L233.17,123.38 L233.39,123.16 L233.61,122.94 L233.83,122.72 L234.05,122.50 L234.28,122.27 L234.50,122.05 L234.72,121.83 L234.94,121.61 L235.16,121.39 L235.38,121.17 L235.60,120.95 L235.82,120.73 L236.05,120.50 L236.27,120.28 L236.49,120.06 L236.71,119.84 L236.93,119.62 L237.15,119.40 L237.37,119.18 L237.59,118.96 L237.81,118.74 L238.04,118.51 L238.26,118.29 L238.48,118.07 L238.70,117.85 L238.92,117.63 L239.14,117.41 L239.36,117.19 L239.58,116.97 L239.80,116.75 L240.03,116.52 L240.25,116.30 L240.47,116.08 L240.69,115.86 L240.91,115.64 L241.13,115.42 L241.35,115.20 L241.57,114.98 L241.79,114.76 L242.02,114.53 L242.24,114.31 L242.46,114.09 L242.68,113.87 L242.90,113.65 L243.12,113.43 L243.34,113.21 L243.56,112.99 L243.78,112.77 L244.01,112.54 L244.23,112.32 L244.45,112.10 L244.67,111.88 L244.89,111.66 L245.11,111.44 L245.33,111.22 L245.55,111.00 L245.77,110.78 L246.00,110.55 L246.22,110.33 L246.44,110.11 L246.66,109.89 L246.88,109.67 L247.10,109.45 L247.32,109.23 L247.54,109.01 L247.77,108.78 L247.99,108.56 L248.21,108.34 L248.43,108.12 L248.65,107.90 L248.87,107.68 L249.09,107.46 L249.31,107.24 L249.53,107.02 L249.76,106.79 L249.98,106.57 L250.20,106.35 L250.42,106.13 L250.64,105.91 L250.86,105.69 L251.08,105.47 L251.30,105.25 L251.52,105.03 L251.75,104.80 L251.97,104.58 L252.19,104.36 L252.41,104.14 L252.63,103.92 L252.85,103.70 L253.07,103.48 L253.29,103.26 L253.51,103.04 L253.74,102.81 L253.96,102.59 L254.18,102.37 L254.40,102.15 L254.62,101.93 L254.84,101.71 L255.06,101.49 L255.28,101.27 L255.50,101.05 L255.73,100.82 L255.95,100.60 L256.17,100.38 L256.39,100.16 L256.61,99.94 L256.83,99.72 L257.05,99.50 L257.27,99.28 L257.50,99.05 L257.72,98.83 L257.94,98.61 L258.16,98.39 L258.38,98.17 L258.60,97.95 L258.82,97.73 L259.04,97.51 L259.26,97.29 L259.49,97.06 L259.71,96.84 L259.93,96.62 L260.15,96.40 L260.37,96.18 L260.59,95.96 L260.81,95.74 L261.03,95.52 L261.25,95.30 L261.48,95.07 L261.70,94.85 L261.92,94.63 L262.14,94.41 L262.36,94.19 L262.58,93.97 L262.80,93.75 L263.02,93.53 L263.24,93.31 L263.47,93.08 L263.69,92.86 L263.91,92.64 L264.13,92.42 L264.35,92.20 L264.57,91.98 L264.79,91.76 L265.01,91.54 L265.23,91.32 L265.46,91.09 L265.68,90.87 L265.90,90.65 L266.12,90.43 L266.34,90.21 L266.56,89.99 L266.78,89.77 L267.00,89.55 L267.23,89.32 L267.45,89.10 L267.67,88.88 L267.89,88.66 L268.11,88.44 L268.33,88.22 L268.55,88.00 L268.77,87.78 L268.99,87.56 L269.22,87.33 L269.44,87.11 L269.66,86.89 L269.88,86.67 L270.10,86.45 L270.32,86.23 L270.54,86.01 L270.76,85.79 L270.98,85.57 L271.21,85.34 L271.43,85.12 L271.65,84.90 L271.87,84.68 L272.09,84.46 L272.31,84.24 L272.53,84.02 L272.75,83.80 L272.97,83.58 L273.20,83.35 L273.42,83.13 L273.64,82.91 L273.86,82.69 L274.08,82.47 L274.30,82.25 L274.52,82.03 L274.74,81.81 L274.96,81.59 L275.19,81.36 L275.41,81.14 L275.63,80.92 L275.85,80.70 L276.07,80.48 L276.29,80.26 L276.51,80.04 L276.73,79.82 L276.95,79.60 L277.18,79.37 L277.40,79.15 L277.62,78.93 L277.84,78.71 L278.06,78.49 L278.28,78.27 L278.50,78.05 L278.72,77.83 L278.95,77.60 L279.17,77.38 L279.39,77.16 L279.61,76.94 L279.83,76.72 L280.05,76.50 L280.27,76.28 L280.49,76.06 L280.71,75.84 L280.94,75.61 L281.16,75.39 L281.38,75.17 L281.60,74.95 L281.82,74.73 L282.04,74.51 L282.26,74.29 L282.48,74.07 L282.70,73.85 L282.93,73.62 L283.15,73.40 L283.37,73.18 L283.59,72.96 L283.81,72.74 L284.03,72.52 L284.25,72.30 L284.47,72.08 L284.69,71.86 L284.92,71.63 L285.14,71.41 L285.36,71.19 L285.58,70.97 L285.80,70.75 L286.02,70.53 L286.24,70.31 L286.46,70.09 L286.68,69.87 L286.91,69.64 L287.13,69.42 L287.35,69.20 L287.57,68.98 L287.79,68.76 L288.01,68.54 L288.23,68.32 L288.45,68.10 L288.68,67.87 L288.90,67.65 L289.12,67.43 L289.34,67.21 L289.56,66.99 L289.78,66.77 L290.00,66.55 L290.22,66.33 L290.44,66.11 L290.67,65.88 L290.89,65.66 L291.11,65.44 L291.33,65.22 L291.55,65.00 L291.77,64.78 L291.99,64.56 L292.21,64.34 L292.43,64.12 L292.66,63.89 L292.88,63.67 L293.10,63.45 L293.32,63.23 L293.54,63.01 L293.76,62.79 L293.98,62.57 L294.20,62.35 L294.42,62.13 L294.65,61.90 L294.87,61.68 L295.09,61.46 L295.31,61.24 L295.53,61.02 L295.75,60.80 L295.97,60.58 L296.19,60.36 L296.41,60.14 L296.64,59.91 L296.86,59.69 L297.08,59.47 L297.30,59.25 L297.52,59.03 L297.74,58.81 L297.96,58.59 L298.18,58.37 L298.41,58.14 L298.63,57.92 L298.85,57.70 L299.07,57.48 L299.29,57.26 L299.51,57.04 L299.73,56.82 L299.95,56.60 L300.17,56.38 L300.40,56.15 L300.62,55.93 L300.84,55.71 L301.06,55.49 L301.28,55.27 L301.50,55.05 L301.72,54.83 L301.94,54.61 L302.16,54.39 L302.39,54.16 L302.61,53.94 L302.83,53.72 L303.05,53.50 L303.27,53.28 L303.49,53.06 L303.71,52.84 L303.93,52.62 L304.15,52.40 L304.38,52.17 L304.60,51.95 L304.82,51.73 L305.04,51.51 L305.26,51.29 L305.48,51.07 L305.70,50.85 L305.92,50.63 L306.14,50.41 L306.37,50.18 L306.59,49.96 L306.81,49.74 L307.03,49.52 L307.25,49.30 L307.47,49.08 L307.69,48.86 L307.91,48.64 L308.14,48.41 L308.36,48.19 L308.58,47.97 L308.80,47.75 L309.02,47.53 L309.24,47.31 L309.46,47.09 L309.68,46.87 L309.90,46.65 L310.13,46.42 L310.35,46.20 L310.57,45.98 L310.79,45.76 L311.01,45.54 L311.23,45.32 L311.45,45.10 L311.67,44.88 L311.89,44.66 L312.12,44.43 L312.34,44.21 L312.56,43.99 L312.78,43.77 L313.00,43.55 L313.22,43.33 L313.44,43.11 L313.66,42.89 L313.88,42.67 L314.11,42.44 L314.33,42.22 L314.55,42.00 L314.77,41.78 L314.99,41.56 L315.21,41.34 L315.43,41.12 L315.65,40.90 L315.87,40.68 L316.10,40.45 L316.32,40.23 L316.54,40.01 L316.76,39.79 L316.98,39.57 L317.20,39.35 L317.42,39.13 L317.64,38.91 L317.86,38.69 L318.09,38.46 L318.31,38.24 L318.53,38.02 L318.75,37.80 L318.97,37.58 L319.19,37.36 L319.41,37.14 L319.63,36.92 L319.86,36.69 L320.08,36.47 L320.30,36.25 L320.52,36.03 L320.74,35.81 L320.96,35.59 L321.18,35.37 L321.40,35.15 L321.62,34.93 L321.85,34.70 L322.07,34.48 L322.29,34.26 L322.51,34.04 L322.73,33.82 L322.95,33.60 L323.17,33.38 L323.39,33.16 L323.61,32.94 L323.84,32.71 L324.06,32.49 L324.28,32.27 L324.50,32.05 L324.72,31.83 L324.94,31.61 L325.16,31.39 L325.38,31.17 L325.60,30.95 L325.83,30.72 L326.05,30.50 L326.27,30.28 L326.49,30.06 L326.71,29.84 L326.93,29.62 L327.15,29.40 L327.37,29.18 L327.59,28.96 L327.82,28.73 L328.04,28.51 L328.26,28.29 L328.48,28.07 L328.70,27.85 L328.92,27.63 L329.14,27.41 L329.36,27.19 L329.59,26.96 L329.81,26.74 L330.03,26.52 L330.25,26.30 L330.47,26.08 L330.69,25.86 L330.91,25.64 L331.13,25.42 L331.35,25.20 L331.58,24.97 L331.80,24.75 L332.02,24.53 L332.24,24.31 L332.46,24.09 L332.68,23.87 L332.90,23.65 L333.12,23.43 L333.34,23.21 L333.57,22.98 L333.79,22.76 L334.01,22.54 L334.23,22.32 L334.45,22.10 L334.67,21.88 L334.89,21.66 L335.11,21.44 L335.33,21.22 L335.56,20.99 L335.78,20.77 L336.00,20.55 L336.22,20.33 L336.44,20.11 L336.66,19.89 L336.88,19.67 L337.10,19.45 L337.32,19.23 L337.55,19.00 L337.77,18.78 L337.99,18.56 L338.21,18.34 L338.43,18.12 L338.65,17.90 L338.87,17.68 L339.09,17.46 L339.32,17.23 L339.54,17.01 L339.76,16.79 L339.98,16.57 L340.20,16.35 L340.42,16.13 L340.64,15.91 L340.86,15.69 L341.08,15.47 L341.31,15.24 L341.53,15.02 L341.75,14.80 L341.97,14.58 L342.19,14.36 L342.41,14.14 L342.63,13.92 L342.85,13.70 L343.07,13.48 L343.30,13.25 L343.52,13.03 L343.74,12.81 L343.96,12.59 L344.18,12.37 L344.40,12.15 L344.62,11.93 L344.84,11.71 L345.06,11.49 L345.29,11.26 L345.51,11.04 L345.73,10.82 L345.95,10.60 L346.17,10.38 L346.39,10.16 L346.61,9.94 L346.83,9.72 L347.05,9.50 L347.28,9.27 L347.50,9.05 L347.72,8.83 L347.94,8.61 L348.16,8.39 L348.38,8.17 L348.60,7.95 L348.82,7.73 L349.05,7.50 L349.27,7.28 L349.49,7.06 L349.71,6.84 L349.93,6.62 L350.15,6.40 L350.37,6.18 L350.59,5.96 L350.81,5.74 L351.04,5.51 L351.26,5.29 L351.48,5.07 L351.70,4.85 L351.92,4.63 L352.14,4.41 L352.36,4.19 L352.58,3.97 L352.80,3.75 L353.03,3.52 L353.25,3.30 L353.47,3.08 L353.69,2.86 L353.91,2.64 L354.13,2.42 L354.35,2.20 L354.57,1.98 L354.79,1.76 L355.02,1.53 L355.24,1.31 L355.46,1.09 L355.68,0.87 L355.90,0.65 L356.12,0.43 L356.34,0.21 L356.56,-0.01 L356.78,-0.23 L357.01,-0.46 L357.23,-0.68 L357.45,-0.90 L357.67,-1.12 L357.89,-1.34 L358.11,-1.56 L358.20,-1.65" style="stroke-width: 2; stroke: rgb(153, 0, 0); stroke-opacity: 1;"/></g></g><rect class="real" x="1" y="1" width="356.1999969482422" height="254.5500030517578" style="fill: transparent; stroke: none;"/></g></g></g><g class="arrow-line"><path class="connection real" stroke-dasharray="" d="  M279.37,133.9 L279.37,166.2" style="stroke: rgb(0, 0, 0); stroke-width: 2; fill: none; fill-opacity: 1;"/></g><g class="arrow-line"><path class="connection real" stroke-dasharray="" d="  M96.5,84.9 L96.5,166.3" style="stroke: rgb(0, 0, 0); stroke-width: 2; fill: none; fill-opacity: 1;"/></g><g class="arrow-line"><path class="connection real" stroke-dasharray="" d="  M165.2,17.17 L173.97,8.4" style="stroke: rgb(153, 0, 0); stroke-opacity: 1; stroke-width: 2; fill: none; fill-opacity: 1;"/><g stroke="none" fill="rgb(153,0,0)" fill-opacity="1" transform="matrix(-0.7071067811865479,0.7071067811865471,-0.7071067811865471,-0.7071067811865479,176.79998779296875,5.566660563151046)" style="stroke: none; fill: rgb(153, 0, 0); stroke-width: 2;"><path d=" M13.4,-6.43 L0,0 L13.4,6.44 L8.9,0 Z"/></g></g><g/></g><g/><g/><g/></svg>
        <svg xmlns="http://www.w3.org/2000/svg" xmlns:xlink="http://www.w3.org/1999/xlink" width="380" height="194.20001220703125" style="width:380px;height:194.20001220703125px;font-family:Asana-Math, Asana;background:#FFF;"><g><g><g><g transform="matrix(1,0,0,1,176.80000813802084,182.9000040690104)"><path transform="matrix(0.015,0,0,-0.015,0,0)" d="M19 400L104 400L104 124C104 1 197 -11 233 -11C304 -11 332 60 332 124L332 181L307 181L307 126C307 52 277 14 240 14C173 14 173 105 173 122L173 400L316 400L316 431L173 431L173 615L148 615C147 533 117 426 19 422Z" stroke="rgb(0,0,0)" stroke-opacity="1" stroke-width="8" fill="rgb(0,0,0)" fill-opacity="1"></path></g></g></g></g><g><g><g><g transform="matrix(1,0,0,1,19.800008138020836,24.899998982747398)"><path transform="matrix(0.015,0,0,-0.015,0,0)" d="M345 0C371 2 402 3 428 3C457 3 499 1 523 0L523 31C501 34 494 47 494 62C494 84 523 117 584 189L660 89C668 78 681 62 681 56C681 47 672 32 645 31L645 0C675 1 731 3 753 3C780 3 819 2 849 0L849 31C795 31 777 33 754 62L620 235C650 273 688 322 712 348C743 384 784 399 831 400L831 431C805 429 775 428 749 428C719 428 666 430 653 431L653 400C674 398 682 385 682 369C682 353 672 340 667 334L605 256L527 357C518 367 518 369 518 375C518 390 533 399 553 400L553 431C527 430 461 428 445 428C424 428 377 429 350 431L350 400C420 400 421 399 468 339L567 210L473 91C425 33 366 31 345 31Z" stroke="rgb(0,0,0)" stroke-opacity="1" stroke-width="8" fill="rgb(0,0,0)" fill-opacity="1"></path></g></g></g></g><g><g><g><g transform="matrix(1,0,0,1,359.6625162760417,182.80000813802081)"><path transform="matrix(0.015,0,0,-0.015,0,0)" d="M19 400L104 400L104 124C104 1 197 -11 233 -11C304 -11 332 60 332 124L332 181L307 181L307 126C307 52 277 14 240 14C173 14 173 105 173 122L173 400L316 400L316 431L173 431L173 615L148 615C147 533 117 426 19 422Z" stroke="rgb(0,0,0)" stroke-opacity="1" stroke-width="8" fill="rgb(0,0,0)" fill-opacity="1"></path></g></g></g></g><g><g><g><g transform="matrix(1,0,0,1,202.66251627604166,24.787501017252602)"><path transform="matrix(0.015,0,0,-0.015,0,0)" d="M352 400C415 400 419 394 432 363L576 8C582 -6 584 -11 597 -11C610 -11 614 -2 618 8L749 333C758 356 775 399 841 400L841 431C818 429 789 428 766 428C742 428 696 430 679 431L679 400C716 399 727 376 727 357C727 348 725 344 721 333L619 78L507 357C501 370 501 372 501 374C501 400 540 400 558 400L558 431C528 430 472 428 449 428C422 428 382 429 352 431Z" stroke="rgb(0,0,0)" stroke-opacity="1" stroke-width="8" fill="rgb(0,0,0)" fill-opacity="1"></path></g></g></g></g><g><g><g><g transform="matrix(1,0,0,1,101.80000813802083,122.2999979654948)"><path transform="matrix(0.017,0,0,-0.017,0,0)" d="M9 1C24 -7 40 -11 52 -11C85 -11 124 18 155 65L231 182L242 113C255 28 278 -11 314 -11C336 -11 368 6 400 35L449 79L440 98C404 68 379 53 363 53C348 53 335 63 325 83C316 102 305 139 300 168L282 269L317 318C364 383 391 406 422 406C438 406 450 398 455 383L469 387L484 472C472 479 463 482 454 482C414 482 374 446 312 354L275 299L269 347C257 446 230 482 171 482C145 482 123 474 114 461L56 378L73 368C103 402 123 416 142 416C175 416 197 375 214 277L225 215L185 153C142 86 108 54 80 54C65 54 54 58 52 63L41 91L21 88C21 53 13 27 9 1Z" stroke="rgb(0,0,0)" stroke-opacity="1" stroke-width="8" fill="rgb(0,0,0)" fill-opacity="1"></path></g></g><g><g transform="matrix(1,0,0,1,115.38749186197916,122.2999979654948)"><path transform="matrix(0.017,0,0,-0.017,0,0)" d="M604 347L604 406L65 406L65 347ZM604 134L604 193L65 193L65 134Z" stroke="rgb(0,0,0)" stroke-opacity="1" stroke-width="8" fill="rgb(0,0,0)" fill-opacity="1"></path></g></g><g><g transform="matrix(1,0,0,1,131.85001627604166,122.2999979654948)"><path transform="matrix(0.017,0,0,-0.017,0,0)" d="M418 -3L418 27L366 30C311 33 301 44 301 96L301 700L60 598L67 548L217 614L217 96C217 44 206 33 152 30L96 27L96 -3C250 0 250 0 261 0C292 0 402 -3 418 -3ZM624 390L568 107C567 99 555 61 555 31C555 6 566 -9 585 -9C620 -9 655 11 733 74L764 99L754 117L709 86C680 66 660 56 649 56C640 56 635 64 635 76C635 102 649 183 678 328L691 390L798 390L809 440C771 436 737 434 699 434C715 528 726 577 744 631L733 646C713 634 686 622 655 610L630 440C586 419 560 408 542 403L540 390Z" stroke="rgb(0,0,0)" stroke-opacity="1" stroke-width="8" fill="rgb(0,0,0)" fill-opacity="1"></path></g></g></g></g><g><g><g><g transform="matrix(1,0,0,1,286.5875244140625,154.6875)"><path transform="matrix(0.017,0,0,-0.017,0,0)" d="M166 420C187 420 203 421 229 424C118 304 76 221 76 121C76 44 122 -11 186 -11C324 -11 477 236 477 384C477 441 451 482 415 482C402 482 390 478 382 470L332 423L343 404C352 410 361 413 370 413C397 413 413 390 413 350C413 202 316 39 228 39C179 39 148 81 148 146C148 251 187 342 285 464L275 482C255 473 242 470 214 470C186 470 144 472 115 475L103 476C97 477 92 477 91 477C79 477 70 475 59 470C45 443 34 407 21 352L43 352L60 394C67 411 87 422 111 422C144 422 128 420 166 420Z" stroke="rgb(0,0,0)" stroke-opacity="1" stroke-width="8" fill="rgb(0,0,0)" fill-opacity="1"></path></g></g><g><g transform="matrix(1,0,0,1,300.1750081380208,154.6875)"><path transform="matrix(0.017,0,0,-0.017,0,0)" d="M604 347L604 406L65 406L65 347ZM604 134L604 193L65 193L65 134Z" stroke="rgb(0,0,0)" stroke-opacity="1" stroke-width="8" fill="rgb(0,0,0)" fill-opacity="1"></path></g></g><g><g transform="matrix(1,0,0,1,316.6374918619792,154.6875)"><path transform="matrix(0.017,0,0,-0.017,0,0)" d="M418 -3L418 27L366 30C311 33 301 44 301 96L301 700L60 598L67 548L217 614L217 96C217 44 206 33 152 30L96 27L96 -3C250 0 250 0 261 0C292 0 402 -3 418 -3Z" stroke="rgb(0,0,0)" stroke-opacity="1" stroke-width="8" fill="rgb(0,0,0)" fill-opacity="1"></path></g></g></g></g></svg>
</svg>
