<svg xmlns="http://www.w3.org/2000/svg" xmlns:xlink="http://www.w3.org/1999/xlink" x="0" y="0" width="562.6000366210938" height="195.8000030517578" style="
        width:562.6000366210938px;
        height:195.8000030517578px;
        background: #FFF;
        fill: none;
">
        <svg xmlns="http://www.w3.org/2000/svg"/>
        
        <svg xmlns="http://www.w3.org/2000/svg" class="role-diagram-draw-area" style="overflow: visible;"><g class="shapes-region" style="stroke: black; fill: none;"><g class="grouped-shape"><g class="arrow-line"><path class="connection real" stroke-dasharray="" d="  M10,166.3 L10,10.3" style="stroke: rgb(0, 0, 0); stroke-width: 1; fill: none; fill-opacity: 1;"/><g stroke="#000" transform="matrix(3.061616997868383e-16,1,-1,3.061616997868383e-16,10,8.300003051757812)" style="stroke: rgb(0, 0, 0); stroke-width: 1;"><path d=" M10.93,-3.29 Q4.96,-0.45 0,0 Q4.96,0.45 10.93,3.29"/></g></g><g class="arrow-line"><path class="connection real" stroke-dasharray="" d="  M10,166.3 L165,166.3" style="stroke: rgb(0, 0, 0); stroke-width: 1; fill: none; fill-opacity: 1;"/><g stroke="#000" transform="matrix(-1,1.2246467991473532e-16,-1.2246467991473532e-16,-1,166.99999999999997,166.30000305175784)" style="stroke: rgb(0, 0, 0); stroke-width: 1;"><path d=" M10.93,-3.29 Q4.96,-0.45 0,0 Q4.96,0.45 10.93,3.29"/></g></g></g><g class="arrow-line"><path class="connection real" stroke-dasharray="" d="  M200,166.8 L200,10.8" style="stroke: rgb(0, 0, 0); stroke-width: 1; fill: none; fill-opacity: 1;"/><g stroke="#000" transform="matrix(3.061616997868383e-16,1,-1,3.061616997868383e-16,200,8.800003051757812)" style="stroke: rgb(0, 0, 0); stroke-width: 1;"><path d=" M10.93,-3.29 Q4.96,-0.45 0,0 Q4.96,0.45 10.93,3.29"/></g></g><g class="arrow-line"><path class="connection real" stroke-dasharray="" d="  M200,166.8 L355,166.8" style="stroke: rgb(0, 0, 0); stroke-width: 1; fill: none; fill-opacity: 1;"/><g stroke="#000" transform="matrix(-1,1.2246467991473532e-16,-1.2246467991473532e-16,-1,357,166.8000030517578)" style="stroke: rgb(0, 0, 0); stroke-width: 1;"><path d=" M10.93,-3.29 Q4.96,-0.45 0,0 Q4.96,0.45 10.93,3.29"/></g></g><g class="arrow-line"><path class="connection real" stroke-dasharray="" d="  M200,166.8 L348.97,17.83" style="stroke: rgb(153, 0, 0); stroke-opacity: 1; stroke-width: 2; fill: none; fill-opacity: 1;"/><g stroke="none" fill="rgb(153,0,0)" fill-opacity="1" transform="matrix(-0.7071067811865479,0.7071067811865471,-0.7071067811865471,-0.7071067811865479,351.7999877929687,15.000015258789034)" style="stroke: none; fill: rgb(153, 0, 0); stroke-width: 2;"><path d=" M13.4,-6.43 L0,0 L13.4,6.44 L8.9,0 Z"/></g></g><g class="arrow-line"><path class="connection real" stroke-dasharray="" d="  M390,167 L390,11" style="stroke: rgb(0, 0, 0); stroke-width: 1; fill: none; fill-opacity: 1;"/><g stroke="#000" transform="matrix(3.061616997868383e-16,1,-1,3.061616997868383e-16,390,8.999996948242199)" style="stroke: rgb(0, 0, 0); stroke-width: 1;"><path d=" M10.93,-3.29 Q4.96,-0.45 0,0 Q4.96,0.45 10.93,3.29"/></g></g><g class="arrow-line"><path class="connection real" stroke-dasharray="" d="  M390,167 L545,167" style="stroke: rgb(0, 0, 0); stroke-width: 1; fill: none; fill-opacity: 1;"/><g stroke="#000" transform="matrix(-1,1.2246467991473532e-16,-1.2246467991473532e-16,-1,547,166.9999969482422)" style="stroke: rgb(0, 0, 0); stroke-width: 1;"><path d=" M10.93,-3.29 Q4.96,-0.45 0,0 Q4.96,0.45 10.93,3.29"/></g></g><g class="arrow-line"><path class="connection real" stroke-dasharray="" d="  M390.5,135 L543.5,135" style="stroke: rgb(153, 0, 0); stroke-opacity: 1; stroke-width: 2; fill: none; fill-opacity: 1;"/><g stroke="none" fill="rgb(153,0,0)" fill-opacity="1" transform="matrix(-1,1.2246467991473532e-16,-1.2246467991473532e-16,-1,547.5,134.9999969482422)" style="stroke: none; fill: rgb(153, 0, 0); stroke-width: 2;"><path d=" M13.4,-6.43 L0,0 L13.4,6.44 L8.9,0 Z"/></g></g><g class="composite-shape" data-amt="diagram/shapes/plot" transform="matrix(1,0,0,1,-189.70001220703125,9.199996948242188)"><g><g/><g><g class="test-plot-expression"><defs><clipPath id="cpothgeesq6dg-full-view"><rect x="1" y="1" width="360" height="253.5000030517578"/></clipPath></defs><g clip-path="url(#cpothgeesq6dg-full-view)"><path d=" M200.00,155.50 L200.22,155.50 L200.45,155.50 L200.67,155.50 L200.90,155.49 L201.12,155.49 L201.34,155.49 L201.57,155.48 L201.79,155.48 L202.02,155.47 L202.24,155.47 L202.46,155.46 L202.69,155.45 L202.91,155.45 L203.14,155.44 L203.36,155.43 L203.59,155.42 L203.81,155.41 L204.03,155.40 L204.26,155.39 L204.48,155.37 L204.71,155.36 L204.93,155.35 L205.15,155.33 L205.38,155.32 L205.60,155.30 L205.83,155.29 L206.05,155.27 L206.27,155.25 L206.50,155.24 L206.72,155.22 L206.95,155.20 L207.17,155.18 L207.39,155.16 L207.62,155.14 L207.84,155.12 L208.07,155.09 L208.29,155.07 L208.51,155.05 L208.74,155.02 L208.96,155.00 L209.19,154.97 L209.41,154.95 L209.63,154.92 L209.86,154.89 L210.08,154.86 L210.31,154.84 L210.53,154.81 L210.76,154.78 L210.98,154.75 L211.20,154.72 L211.43,154.68 L211.65,154.65 L211.88,154.62 L212.10,154.59 L212.32,154.55 L212.55,154.52 L212.77,154.48 L213.00,154.44 L213.22,154.41 L213.44,154.37 L213.67,154.33 L213.89,154.29 L214.12,154.25 L214.34,154.21 L214.56,154.17 L214.79,154.13 L215.01,154.09 L215.24,154.05 L215.46,154.01 L215.68,153.96 L215.91,153.92 L216.13,153.87 L216.36,153.83 L216.58,153.78 L216.80,153.73 L217.03,153.69 L217.25,153.64 L217.48,153.59 L217.70,153.54 L217.93,153.49 L218.15,153.44 L218.37,153.39 L218.60,153.34 L218.82,153.29 L219.05,153.23 L219.27,153.18 L219.49,153.12 L219.72,153.07 L219.94,153.01 L220.17,152.96 L220.39,152.90 L220.61,152.84 L220.84,152.79 L221.06,152.73 L221.29,152.67 L221.51,152.61 L221.73,152.55 L221.96,152.49 L222.18,152.42 L222.41,152.36 L222.63,152.30 L222.85,152.24 L223.08,152.17 L223.30,152.11 L223.53,152.04 L223.75,151.97 L223.98,151.91 L224.20,151.84 L224.42,151.77 L224.65,151.70 L224.87,151.63 L225.10,151.56 L225.32,151.49 L225.54,151.42 L225.77,151.35 L225.99,151.28 L226.22,151.20 L226.44,151.13 L226.66,151.06 L226.89,150.98 L227.11,150.91 L227.34,150.83 L227.56,150.75 L227.78,150.68 L228.01,150.60 L228.23,150.52 L228.46,150.44 L228.68,150.36 L228.90,150.28 L229.13,150.20 L229.35,150.12 L229.58,150.03 L229.80,149.95 L230.02,149.87 L230.25,149.78 L230.47,149.70 L230.70,149.61 L230.92,149.52 L231.15,149.44 L231.37,149.35 L231.59,149.26 L231.82,149.17 L232.04,149.08 L232.27,148.99 L232.49,148.90 L232.71,148.81 L232.94,148.72 L233.16,148.63 L233.39,148.53 L233.61,148.44 L233.83,148.35 L234.06,148.25 L234.28,148.15 L234.51,148.06 L234.73,147.96 L234.95,147.86 L235.18,147.77 L235.40,147.67 L235.63,147.57 L235.85,147.47 L236.07,147.37 L236.30,147.27 L236.52,147.16 L236.75,147.06 L236.97,146.96 L237.20,146.85 L237.42,146.75 L237.64,146.64 L237.87,146.54 L238.09,146.43 L238.32,146.32 L238.54,146.22 L238.76,146.11 L238.99,146.00 L239.21,145.89 L239.44,145.78 L239.66,145.67 L239.88,145.56 L240.11,145.45 L240.33,145.33 L240.56,145.22 L240.78,145.11 L241.00,144.99 L241.23,144.88 L241.45,144.76 L241.68,144.64 L241.90,144.53 L242.12,144.41 L242.35,144.29 L242.57,144.17 L242.80,144.05 L243.02,143.93 L243.24,143.81 L243.47,143.69 L243.69,143.57 L243.92,143.45 L244.14,143.32 L244.37,143.20 L244.59,143.07 L244.81,142.95 L245.04,142.82 L245.26,142.70 L245.49,142.57 L245.71,142.44 L245.93,142.31 L246.16,142.18 L246.38,142.05 L246.61,141.92 L246.83,141.79 L247.05,141.66 L247.28,141.53 L247.50,141.40 L247.73,141.26 L247.95,141.13 L248.17,141.00 L248.40,140.86 L248.62,140.72 L248.85,140.59 L249.07,140.45 L249.29,140.31 L249.52,140.17 L249.74,140.04 L249.97,139.90 L250.19,139.76 L250.41,139.61 L250.64,139.47 L250.86,139.33 L251.09,139.19 L251.31,139.04 L251.54,138.90 L251.76,138.76 L251.98,138.61 L252.21,138.46 L252.43,138.32 L252.66,138.17 L252.88,138.02 L253.10,137.87 L253.33,137.73 L253.55,137.58 L253.78,137.43 L254.00,137.28 L254.22,137.12 L254.45,136.97 L254.67,136.82 L254.90,136.67 L255.12,136.51 L255.34,136.36 L255.57,136.20 L255.79,136.04 L256.02,135.89 L256.24,135.73 L256.46,135.57 L256.69,135.41 L256.91,135.26 L257.14,135.10 L257.36,134.94 L257.59,134.77 L257.81,134.61 L258.03,134.45 L258.26,134.29 L258.48,134.12 L258.71,133.96 L258.93,133.80 L259.15,133.63 L259.38,133.46 L259.60,133.30 L259.83,133.13 L260.05,132.96 L260.27,132.79 L260.50,132.63 L260.72,132.46 L260.95,132.28 L261.17,132.11 L261.39,131.94 L261.62,131.77 L261.84,131.60 L262.07,131.42 L262.29,131.25 L262.51,131.07 L262.74,130.90 L262.96,130.72 L263.19,130.55 L263.41,130.37 L263.63,130.19 L263.86,130.01 L264.08,129.83 L264.31,129.65 L264.53,129.47 L264.76,129.29 L264.98,129.11 L265.20,128.93 L265.43,128.75 L265.65,128.56 L265.88,128.38 L266.10,128.19 L266.32,128.01 L266.55,127.82 L266.77,127.63 L267.00,127.45 L267.22,127.26 L267.44,127.07 L267.67,126.88 L267.89,126.69 L268.12,126.50 L268.34,126.31 L268.56,126.12 L268.79,125.93 L269.01,125.73 L269.24,125.54 L269.46,125.35 L269.68,125.15 L269.91,124.95 L270.13,124.76 L270.36,124.56 L270.58,124.36 L270.80,124.17 L271.03,123.97 L271.25,123.77 L271.48,123.57 L271.70,123.37 L271.93,123.17 L272.15,122.97 L272.37,122.76 L272.60,122.56 L272.82,122.36 L273.05,122.15 L273.27,121.95 L273.49,121.74 L273.72,121.54 L273.94,121.33 L274.17,121.12 L274.39,120.91 L274.61,120.70 L274.84,120.50 L275.06,120.29 L275.29,120.07 L275.51,119.86 L275.73,119.65 L275.96,119.44 L276.18,119.23 L276.41,119.01 L276.63,118.80 L276.85,118.58 L277.08,118.37 L277.30,118.15 L277.53,117.93 L277.75,117.72 L277.98,117.50 L278.20,117.28 L278.42,117.06 L278.65,116.84 L278.87,116.62 L279.10,116.40 L279.32,116.18 L279.54,115.96 L279.77,115.73 L279.99,115.51 L280.22,115.28 L280.44,115.06 L280.66,114.83 L280.89,114.61 L281.11,114.38 L281.34,114.15 L281.56,113.92 L281.78,113.70 L282.01,113.47 L282.23,113.24 L282.46,113.01 L282.68,112.77 L282.90,112.54 L283.13,112.31 L283.35,112.08 L283.58,111.84 L283.80,111.61 L284.02,111.37 L284.25,111.14 L284.47,110.90 L284.70,110.67 L284.92,110.43 L285.15,110.19 L285.37,109.95 L285.59,109.71 L285.82,109.47 L286.04,109.23 L286.27,108.99 L286.49,108.75 L286.71,108.50 L286.94,108.26 L287.16,108.02 L287.39,107.77 L287.61,107.53 L287.83,107.28 L288.06,107.04 L288.28,106.79 L288.51,106.54 L288.73,106.29 L288.95,106.04 L289.18,105.80 L289.40,105.54 L289.63,105.29 L289.85,105.04 L290.07,104.79 L290.30,104.54 L290.52,104.29 L290.75,104.03 L290.97,103.78 L291.20,103.52 L291.42,103.27 L291.64,103.01 L291.87,102.75 L292.09,102.49 L292.32,102.24 L292.54,101.98 L292.76,101.72 L292.99,101.46 L293.21,101.20 L293.44,100.94 L293.66,100.67 L293.88,100.41 L294.11,100.15 L294.33,99.88 L294.56,99.62 L294.78,99.35 L295.00,99.09 L295.23,98.82 L295.45,98.56 L295.68,98.29 L295.90,98.02 L296.12,97.75 L296.35,97.48 L296.57,97.21 L296.80,96.94 L297.02,96.67 L297.24,96.40 L297.47,96.12 L297.69,95.85 L297.92,95.58 L298.14,95.30 L298.37,95.03 L298.59,94.75 L298.81,94.47 L299.04,94.20 L299.26,93.92 L299.49,93.64 L299.71,93.36 L299.93,93.08 L300.16,92.80 L300.38,92.52 L300.61,92.24 L300.83,91.96 L301.05,91.68 L301.28,91.39 L301.50,91.11 L301.73,90.82 L301.95,90.54 L302.17,90.25 L302.40,89.97 L302.62,89.68 L302.85,89.39 L303.07,89.10 L303.29,88.81 L303.52,88.52 L303.74,88.23 L303.97,87.94 L304.19,87.65 L304.41,87.36 L304.64,87.07 L304.86,86.77 L305.09,86.48 L305.31,86.18 L305.54,85.89 L305.76,85.59 L305.98,85.30 L306.21,85.00 L306.43,84.70 L306.66,84.40 L306.88,84.10 L307.10,83.80 L307.33,83.50 L307.55,83.20 L307.78,82.90 L308.00,82.60 L308.22,82.30 L308.45,81.99 L308.67,81.69 L308.90,81.39 L309.12,81.08 L309.34,80.77 L309.57,80.47 L309.79,80.16 L310.02,79.85 L310.24,79.54 L310.46,79.23 L310.69,78.92 L310.91,78.61 L311.14,78.30 L311.36,77.99 L311.59,77.68 L311.81,77.37 L312.03,77.05 L312.26,76.74 L312.48,76.42 L312.71,76.11 L312.93,75.79 L313.15,75.48 L313.38,75.16 L313.60,74.84 L313.83,74.52 L314.05,74.20 L314.27,73.88 L314.50,73.56 L314.72,73.24 L314.95,72.92 L315.17,72.60 L315.39,72.28 L315.62,71.95 L315.84,71.63 L316.07,71.30 L316.29,70.98 L316.51,70.65 L316.74,70.33 L316.96,70.00 L317.19,69.67 L317.41,69.34 L317.63,69.01 L317.86,68.68 L318.08,68.35 L318.31,68.02 L318.53,67.69 L318.76,67.36 L318.98,67.02 L319.20,66.69 L319.43,66.36 L319.65,66.02 L319.88,65.69 L320.10,65.35 L320.32,65.01 L320.55,64.68 L320.77,64.34 L321.00,64.00 L321.22,63.66 L321.44,63.32 L321.67,62.98 L321.89,62.64 L322.12,62.30 L322.34,61.96 L322.56,61.61 L322.79,61.27 L323.01,60.92 L323.24,60.58 L323.46,60.23 L323.68,59.89 L323.91,59.54 L324.13,59.19 L324.36,58.85 L324.58,58.50 L324.80,58.15 L325.03,57.80 L325.25,57.45 L325.48,57.10 L325.70,56.74 L325.93,56.39 L326.15,56.04 L326.37,55.69 L326.60,55.33 L326.82,54.98 L327.05,54.62 L327.27,54.27 L327.49,53.91 L327.72,53.55 L327.94,53.19 L328.17,52.83 L328.39,52.47 L328.61,52.12 L328.84,51.75 L329.06,51.39 L329.29,51.03 L329.51,50.67 L329.73,50.31 L329.96,49.94 L330.18,49.58 L330.41,49.21 L330.63,48.85 L330.85,48.48 L331.08,48.11 L331.30,47.75 L331.53,47.38 L331.75,47.01 L331.98,46.64 L332.20,46.27 L332.42,45.90 L332.65,45.53 L332.87,45.16 L333.10,44.79 L333.32,44.41 L333.54,44.04 L333.77,43.66 L333.99,43.29 L334.22,42.91 L334.44,42.54 L334.66,42.16 L334.89,41.78 L335.11,41.40 L335.34,41.03 L335.56,40.65 L335.78,40.27 L336.01,39.89 L336.23,39.50 L336.46,39.12 L336.68,38.74 L336.90,38.36 L337.13,37.97 L337.35,37.59 L337.58,37.20 L337.80,36.82 L338.02,36.43 L338.25,36.05 L338.47,35.66 L338.70,35.27 L338.92,34.88 L339.15,34.49 L339.37,34.10 L339.59,33.71 L339.82,33.32 L340.04,32.93 L340.27,32.53 L340.49,32.14 L340.71,31.75 L340.94,31.35 L341.16,30.96 L341.39,30.56 L341.61,30.17 L341.83,29.77 L342.06,29.37 L342.28,28.97 L342.51,28.57 L342.73,28.18 L342.95,27.78 L343.18,27.37 L343.40,26.97 L343.63,26.57 L343.85,26.17 L344.07,25.77 L344.30,25.36 L344.52,24.96 L344.75,24.55 L344.97,24.15 L345.20,23.74 L345.42,23.33 L345.64,22.93 L345.87,22.52 L346.09,22.11 L346.32,21.70 L346.54,21.29 L346.76,20.88 L346.99,20.47 L347.21,20.05 L347.44,19.64 L347.66,19.23 L347.88,18.81 L348.11,18.40 L348.33,17.99 L348.56,17.57 L348.78,17.15 L349.00,16.74 L349.23,16.32 L349.45,15.90 L349.68,15.48 L349.90,15.06 L350.12,14.64 L350.35,14.22 L350.57,13.80 L350.80,13.38 L351.02,12.95 L351.24,12.53 L351.47,12.11 L351.69,11.68 L351.92,11.26 L352.14,10.83 L352.37,10.41 L352.59,9.98 L352.81,9.55 L353.04,9.12 L353.26,8.69 L353.49,8.26 L353.71,7.83 L353.93,7.40 L354.16,6.97 L354.38,6.54 L354.61,6.11 L354.83,5.67 L355.05,5.24 L355.28,4.80 L355.50,4.37 L355.73,3.93 L355.95,3.50 L356.17,3.06 L356.40,2.62 L356.62,2.18 L356.85,1.74 L357.07,1.31 L357.29,0.87 L357.52,0.42 L357.74,-0.02 L357.97,-0.46 L358.19,-0.90 L358.41,-1.35 L358.64,-1.79 L358.86,-2.23 L359.09,-2.68 L359.31,-3.13 L359.54,-3.57 L359.76,-4.02 L359.98,-4.47 L360.21,-4.92 L360.43,-5.36 L360.66,-5.81 L360.88,-6.26 L361.10,-6.72 L361.33,-7.17 L361.55,-7.62 L361.78,-8.07 L362.00,-8.52" style="stroke-width: 2; stroke: rgb(153, 0, 0); stroke-opacity: 1;"/></g></g><rect class="real" x="1" y="1" width="360" height="253.5000030517578" style="fill: transparent; stroke: none;"/></g></g></g><g class="arrow-line"><path class="connection real" stroke-dasharray="" d="  M161.4,22.75 L167.59,9.95" style="stroke: rgb(153, 0, 0); stroke-opacity: 1; stroke-width: 1; fill: none; fill-opacity: 1;"/><g stroke="none" fill="rgb(153,0,0)" fill-opacity="1" transform="matrix(-0.43554534338772033,0.9001667922409007,-0.9001667922409007,-0.43554534338772033,168.89999389648438,7.25)" style="stroke: none; fill: rgb(153, 0, 0); stroke-width: 1;"><path d=" M10.72,-5.15 L0,0 L10.72,5.15 L7.12,0 Z"/></g></g><g/></g><g/><g/><g/></svg>
        <svg xmlns="http://www.w3.org/2000/svg" xmlns:xlink="http://www.w3.org/1999/xlink" width="561" height="194.1999969482422" style="width:561px;height:194.1999969482422px;font-family:Asana-Math, Asana;background:#FFF;"><g><g><g><g transform="matrix(1,0,0,1,168.800048828125,182.89999389648438)"><path transform="matrix(0.015,0,0,-0.015,0,0)" d="M19 400L104 400L104 124C104 1 197 -11 233 -11C304 -11 332 60 332 124L332 181L307 181L307 126C307 52 277 14 240 14C173 14 173 105 173 122L173 400L316 400L316 431L173 431L173 615L148 615C147 533 117 426 19 422Z" stroke="rgb(0,0,0)" stroke-opacity="1" stroke-width="8" fill="rgb(0,0,0)" fill-opacity="1"></path></g></g></g></g><g><g><g><g transform="matrix(1,0,0,1,11.800048828125,24.899993896484375)"><path transform="matrix(0.015,0,0,-0.015,0,0)" d="M345 0C371 2 402 3 428 3C457 3 499 1 523 0L523 31C501 34 494 47 494 62C494 84 523 117 584 189L660 89C668 78 681 62 681 56C681 47 672 32 645 31L645 0C675 1 731 3 753 3C780 3 819 2 849 0L849 31C795 31 777 33 754 62L620 235C650 273 688 322 712 348C743 384 784 399 831 400L831 431C805 429 775 428 749 428C719 428 666 430 653 431L653 400C674 398 682 385 682 369C682 353 672 340 667 334L605 256L527 357C518 367 518 369 518 375C518 390 533 399 553 400L553 431C527 430 461 428 445 428C424 428 377 429 350 431L350 400C420 400 421 399 468 339L567 210L473 91C425 33 366 31 345 31Z" stroke="rgb(0,0,0)" stroke-opacity="1" stroke-width="8" fill="rgb(0,0,0)" fill-opacity="1"></path></g></g></g></g><g><g><g><g transform="matrix(1,0,0,1,359.800048828125,183.39999389648438)"><path transform="matrix(0.015,0,0,-0.015,0,0)" d="M19 400L104 400L104 124C104 1 197 -11 233 -11C304 -11 332 60 332 124L332 181L307 181L307 126C307 52 277 14 240 14C173 14 173 105 173 122L173 400L316 400L316 431L173 431L173 615L148 615C147 533 117 426 19 422Z" stroke="rgb(0,0,0)" stroke-opacity="1" stroke-width="8" fill="rgb(0,0,0)" fill-opacity="1"></path></g></g></g></g><g><g><g><g transform="matrix(1,0,0,1,202.800048828125,25.399993896484375)"><path transform="matrix(0.015,0,0,-0.015,0,0)" d="M352 400C415 400 419 394 432 363L576 8C582 -6 584 -11 597 -11C610 -11 614 -2 618 8L749 333C758 356 775 399 841 400L841 431C818 429 789 428 766 428C742 428 696 430 679 431L679 400C716 399 727 376 727 357C727 348 725 344 721 333L619 78L507 357C501 370 501 372 501 374C501 400 540 400 558 400L558 431C528 430 472 428 449 428C422 428 382 429 352 431Z" stroke="rgb(0,0,0)" stroke-opacity="1" stroke-width="8" fill="rgb(0,0,0)" fill-opacity="1"></path></g></g></g></g><g><g><g><g transform="matrix(1,0,0,1,549.7999877929688,183.5999755859375)"><path transform="matrix(0.015,0,0,-0.015,0,0)" d="M19 400L104 400L104 124C104 1 197 -11 233 -11C304 -11 332 60 332 124L332 181L307 181L307 126C307 52 277 14 240 14C173 14 173 105 173 122L173 400L316 400L316 431L173 431L173 615L148 615C147 533 117 426 19 422Z" stroke="rgb(0,0,0)" stroke-opacity="1" stroke-width="8" fill="rgb(0,0,0)" fill-opacity="1"></path></g></g></g></g><g><g><g><g transform="matrix(1,0,0,1,392.79998779296875,25.587493896484375)"><path transform="matrix(0.015,0,0,-0.015,0,0)" d="M375 95C375 14 472 -11 535 -11C601 -11 647 29 666 76C670 36 697 -6 744 -6C765 -6 826 8 826 89L826 145L801 145L801 89C801 31 776 25 765 25C732 25 728 70 728 75L728 275C728 317 728 356 692 393C653 432 603 448 555 448C473 448 404 401 404 335C404 305 424 288 450 288C478 288 496 308 496 334C496 346 491 379 445 380C472 415 521 426 553 426C602 426 659 387 659 298L659 261C608 258 538 255 475 225C400 191 375 139 375 95ZM452 96C452 151 494 234 659 240L659 140C659 45 587 11 542 11C493 11 452 46 452 96Z" stroke="rgb(0,0,0)" stroke-opacity="1" stroke-width="8" fill="rgb(0,0,0)" fill-opacity="1"></path></g></g></g></g></svg>
</svg>
