<svg xmlns="http://www.w3.org/2000/svg" xmlns:xlink="http://www.w3.org/1999/xlink" x="0" y="0" width="377.6" height="195.8" style="
        width:377.6px;
        height:195.8px;
        background: #FFF;
        fill: none;
">
        <svg xmlns="http://www.w3.org/2000/svg"/>
        
        <svg xmlns="http://www.w3.org/2000/svg" class="role-diagram-draw-area" style="overflow: visible;"><g class="shapes-region" style="stroke: black; fill: none;"><g class="composite-shape"><path class="real" d=" M200,151.55 L356.4,151.55 L356.4,166.8 L200,166.8 Z" style="stroke-width: 1; stroke: none; stroke-opacity: 1; fill: rgb(153, 0, 0); fill-opacity: 0.5;"/></g><g class="arrow-line"><path class="connection real" stroke-dasharray="" d="  M10,166.3 L10,10.3  M5.5,134.3 L14.5,134.3 M5.5,102.3 L14.5,102.3 M5.5,70.3 L14.5,70.3 M5.5,38.3 L14.5,38.3" style="stroke: rgb(0, 0, 0); stroke-width: 1; fill: none; fill-opacity: 1;"/><g stroke="#000" transform="matrix(3.061616997868383e-16,1,-1,3.061616997868383e-16,10,8.300003051757812)" style="stroke: rgb(0, 0, 0); stroke-width: 1;"><path d=" M10.93,-3.29 Q4.96,-0.45 0,0 Q4.96,0.45 10.93,3.29"/></g></g><g class="arrow-line"><path class="connection real" stroke-dasharray="" d="  M10,166.3 L165,166.3  M42,161.8 L42,170.8 M74,161.8 L74,170.8 M106,161.8 L106,170.8 M138,161.8 L138,170.8" style="stroke: rgb(0, 0, 0); stroke-width: 1; fill: none; fill-opacity: 1;"/><g stroke="#000" transform="matrix(-1,1.2246467991473532e-16,-1.2246467991473532e-16,-1,166.99999999999997,166.30000305175784)" style="stroke: rgb(0, 0, 0); stroke-width: 1;"><path d=" M10.93,-3.29 Q4.96,-0.45 0,0 Q4.96,0.45 10.93,3.29"/></g></g><g class="arrow-line"><path class="connection real" stroke-dasharray="" d="  M200,166.8 L200,92.9 L200,10.8  M195.5,134.8 L204.5,134.8 M195.5,102.8 L204.5,102.8 M195.5,70.8 L204.5,70.8 M195.5,38.8 L204.5,38.8" style="stroke: rgb(0, 0, 0); stroke-width: 1; fill: none; fill-opacity: 1;"/><g stroke="#000" transform="matrix(3.061616997868383e-16,1,-1,3.061616997868383e-16,200,8.800003051757812)" style="stroke: rgb(0, 0, 0); stroke-width: 1;"><path d=" M10.93,-3.29 Q4.96,-0.45 0,0 Q4.96,0.45 10.93,3.29"/></g></g><g class="arrow-line"><path class="connection real" stroke-dasharray="" d="  M200,166.8 L355,166.8  M232,162.3 L232,171.3 M264,162.3 L264,171.3 M296,162.3 L296,171.3 M328,162.3 L328,171.3" style="stroke: rgb(0, 0, 0); stroke-width: 1; fill: none; fill-opacity: 1;"/><g stroke="#000" transform="matrix(-1,1.2246467991473532e-16,-1.2246467991473532e-16,-1,357,166.8000030517578)" style="stroke: rgb(0, 0, 0); stroke-width: 1;"><path d=" M10.93,-3.29 Q4.96,-0.45 0,0 Q4.96,0.45 10.93,3.29"/></g></g><g class="arrow-line"><path class="connection real" stroke-dasharray="" d="  M10,166.3 L160.52,89.12" style="stroke: rgb(153, 0, 0); stroke-opacity: 1; stroke-width: 2; fill: none; fill-opacity: 1;"/><g stroke="none" fill="rgb(153,0,0)" fill-opacity="1" transform="matrix(-0.8898149277675996,0.456321590900476,-0.456321590900476,-0.8898149277675996,164.07999267578123,87.30000305175781)" style="stroke: none; fill: rgb(153, 0, 0); stroke-width: 2;"><path d=" M13.4,-6.43 L0,0 L13.4,6.44 L8.9,0 Z"/></g></g><g class="arrow-line"><path class="connection real" stroke-dasharray="" d="  M200,151.8 L353,151.8" style="stroke: rgb(153, 0, 0); stroke-opacity: 1; stroke-width: 2; fill: none; fill-opacity: 1;"/><g stroke="none" fill="rgb(153,0,0)" fill-opacity="1" transform="matrix(-1,1.2246467991473532e-16,-1.2246467991473532e-16,-1,357,151.8000030517578)" style="stroke: none; fill: rgb(153, 0, 0); stroke-width: 2;"><path d=" M13.4,-6.43 L0,0 L13.4,6.44 L8.9,0 Z"/></g></g><g class="arrow-line"><path class="connection real" stroke-dasharray="3" d="  M59.28,87.3 L164.08,87.3" style="stroke: rgb(153, 0, 0); stroke-width: 1; fill: none; fill-opacity: 1; stroke-opacity: 1;"/></g><g class="arrow-line"><path class="connection real" stroke-dasharray="3" d="  M23.28,87.3 L10,87.3" style="stroke: rgb(153, 0, 0); stroke-opacity: 1; stroke-width: 1; fill: none; fill-opacity: 1;"/></g><g/></g><g/><g/><g/></svg>
        <svg xmlns="http://www.w3.org/2000/svg" xmlns:xlink="http://www.w3.org/1999/xlink" width="376" height="194.2" style="width:376px;height:194.2px;font-family:Asana-Math, Asana;background:#FFF;"><g><g><g><g transform="matrix(1,0,0,1,168.79998779296875,182.9000061035156)"><path transform="matrix(0.015,0,0,-0.015,0,0)" d="M19 400L104 400L104 124C104 1 197 -11 233 -11C304 -11 332 60 332 124L332 181L307 181L307 126C307 52 277 14 240 14C173 14 173 105 173 122L173 400L316 400L316 431L173 431L173 615L148 615C147 533 117 426 19 422Z" stroke="rgb(0,0,0)" stroke-opacity="1" stroke-width="8" fill="rgb(0,0,0)" fill-opacity="1"></path></g></g></g></g><g><g><g><g transform="matrix(1,0,0,1,11.8,24.9)"><path transform="matrix(0.015,0,0,-0.015,0,0)" d="M345 0C371 2 402 3 428 3C457 3 499 1 523 0L523 31C501 34 494 47 494 62C494 84 523 117 584 189L660 89C668 78 681 62 681 56C681 47 672 32 645 31L645 0C675 1 731 3 753 3C780 3 819 2 849 0L849 31C795 31 777 33 754 62L620 235C650 273 688 322 712 348C743 384 784 399 831 400L831 431C805 429 775 428 749 428C719 428 666 430 653 431L653 400C674 398 682 385 682 369C682 353 672 340 667 334L605 256L527 357C518 367 518 369 518 375C518 390 533 399 553 400L553 431C527 430 461 428 445 428C424 428 377 429 350 431L350 400C420 400 421 399 468 339L567 210L473 91C425 33 366 31 345 31Z" stroke="rgb(0,0,0)" stroke-opacity="1" stroke-width="8" fill="rgb(0,0,0)" fill-opacity="1"></path></g></g></g></g><g><g><g><g transform="matrix(1,0,0,1,359.8000122070312,183.4000061035156)"><path transform="matrix(0.015,0,0,-0.015,0,0)" d="M19 400L104 400L104 124C104 1 197 -11 233 -11C304 -11 332 60 332 124L332 181L307 181L307 126C307 52 277 14 240 14C173 14 173 105 173 122L173 400L316 400L316 431L173 431L173 615L148 615C147 533 117 426 19 422Z" stroke="rgb(0,0,0)" stroke-opacity="1" stroke-width="8" fill="rgb(0,0,0)" fill-opacity="1"></path></g></g></g></g><g><g><g><g transform="matrix(1,0,0,1,202.79998779296875,25.4)"><path transform="matrix(0.015,0,0,-0.015,0,0)" d="M352 400C415 400 419 394 432 363L576 8C582 -6 584 -11 597 -11C610 -11 614 -2 618 8L749 333C758 356 775 399 841 400L841 431C818 429 789 428 766 428C742 428 696 430 679 431L679 400C716 399 727 376 727 357C727 348 725 344 721 333L619 78L507 357C501 370 501 372 501 374C501 400 540 400 558 400L558 431C528 430 472 428 449 428C422 428 382 429 352 431Z" stroke="rgb(0,0,0)" stroke-opacity="1" stroke-width="8" fill="rgb(0,0,0)" fill-opacity="1"></path></g></g></g></g><g><g><g><g transform="matrix(1,0,0,1,213.29998779296875,136.59999389648436)"><path transform="matrix(0.015,0,0,-0.015,0,0)" d="M99 250C99 172 110 51 165 -62C225 -185 311 -250 321 -250C327 -250 331 -247 331 -240C331 -237 331 -235 314 -218C189 -92 157 97 157 250C157 424 195 598 318 723C331 735 331 737 331 740C331 747 327 750 321 750C311 750 221 682 162 555C111 445 99 334 99 250ZM438 161C438 75 507 -22 619 -22C735 -22 837 74 837 201C837 320 755 420 647 420C599 420 556 404 520 369L520 564C540 558 573 551 605 551C728 551 798 642 798 655C798 661 795 666 788 666C787 666 785 666 780 663C760 654 711 634 644 634C604 634 558 641 511 662C503 665 501 665 499 665C489 665 489 657 489 641L489 345C489 327 489 319 503 319C510 319 512 322 516 328C527 344 564 398 645 398C697 398 722 352 730 334C746 297 748 258 748 208C748 173 748 113 724 71C700 32 663 6 617 6C544 6 487 59 470 118C473 117 476 116 487 116C520 116 537 141 537 165C537 189 520 214 487 214C473 214 438 207 438 161ZM921 13C921 -4 921 -11 932 -11C937 -11 938 -10 957 9C959 11 959 13 977 32C1021 -10 1066 -11 1087 -11C1202 -11 1248 56 1248 128C1248 181 1218 211 1206 223C1173 255 1134 263 1092 271C1036 282 969 295 969 353C969 388 995 429 1081 429C1191 429 1196 339 1198 308C1199 299 1208 299 1210 299C1223 299 1223 304 1223 323L1223 424C1223 441 1223 448 1212 448C1207 448 1205 448 1192 436C1189 432 1179 423 1175 420C1137 448 1096 448 1081 448C959 448 921 381 921 325C921 290 937 262 964 240C996 214 1024 208 1096 194C1118 190 1200 174 1200 102C1200 51 1165 11 1087 11C1003 11 967 68 948 153C945 166 944 170 934 170C921 170 921 163 921 145ZM1339 -240C1339 -246 1343 -250 1349 -250C1359 -250 1449 -182 1508 -55C1559 55 1571 166 1571 250C1571 328 1560 449 1505 562C1445 685 1359 750 1349 750C1343 750 1339 746 1339 740C1339 737 1339 735 1358 717C1456 618 1513 459 1513 250C1513 79 1476 -97 1352 -223C1339 -235 1339 -237 1339 -240ZM1769 250C1769 172 1780 51 1835 -62C1895 -185 1981 -250 1991 -250C1997 -250 2001 -247 2001 -240C2001 -237 2001 -235 1984 -218C1859 -92 1827 97 1827 250C1827 424 1865 598 1988 723C2001 735 2001 737 2001 740C2001 747 1997 750 1991 750C1981 750 1891 682 1832 555C1781 445 1769 334 1769 250ZM2097 320C2097 245 2101 155 2142 79C2185 -2 2258 -22 2307 -22C2361 -22 2437 -1 2481 94C2513 163 2518 241 2518 320C2518 400 2513 480 2478 554C2432 650 2350 666 2308 666C2248 666 2175 640 2134 547C2102 478 2097 400 2097 320ZM2180 332C2180 396 2180 462 2188 516C2207 635 2282 644 2307 644C2340 644 2406 626 2425 527C2435 471 2435 395 2435 332C2435 257 2435 189 2424 125C2409 30 2352 0 2307 0C2268 0 2209 25 2191 121C2180 181 2180 273 2180 332ZM2643 53C2643 26 2665 0 2696 0C2722 0 2748 22 2748 53C2748 84 2724 105 2696 105C2665 105 2643 80 2643 53ZM2886 161C2886 75 2955 -22 3067 -22C3183 -22 3285 74 3285 201C3285 320 3203 420 3095 420C3047 420 3004 404 2968 369L2968 564C2988 558 3021 551 3053 551C3176 551 3246 642 3246 655C3246 661 3243 666 3236 666C3235 666 3233 666 3228 663C3208 654 3159 634 3092 634C3052 634 3006 641 2959 662C2951 665 2949 665 2947 665C2937 665 2937 657 2937 641L2937 345C2937 327 2937 319 2951 319C2958 319 2960 322 2964 328C2975 344 3012 398 3093 398C3145 398 3170 352 3178 334C3194 297 3196 258 3196 208C3196 173 3196 113 3172 71C3148 32 3111 6 3065 6C2992 6 2935 59 2918 118C2921 117 2924 116 2935 116C2968 116 2985 141 2985 165C2985 189 2968 214 2935 214C2921 214 2886 207 2886 161ZM3368 0C3403 1 3454 3 3481 3C3507 3 3559 1 3593 0L3593 31C3526 31 3515 31 3515 76L3515 260C3515 364 3586 420 3650 420C3713 420 3724 366 3724 309L3724 76C3724 31 3713 31 3646 31L3646 0C3681 1 3732 3 3759 3C3785 3 3837 1 3871 0L3871 31C3804 31 3793 31 3793 76L3793 260C3793 364 3864 420 3928 420C3991 420 4002 366 4002 309L4002 76C4002 31 3991 31 3924 31L3924 0C3959 1 4010 3 4037 3C4063 3 4115 1 4149 0L4149 31C4097 31 4072 31 4071 61L4071 252C4071 338 4071 369 4040 405C4026 422 3993 442 3935 442C3851 442 3807 382 3790 344C3776 431 3702 442 3657 442C3584 442 3537 399 3509 337L3509 442L3368 431L3368 400C3438 400 3446 393 3446 344L3446 76C3446 31 3435 31 3368 31ZM4226 -236C4226 -242 4229 -248 4235 -248C4243 -248 4246 -243 4254 -221L4608 723C4609 727 4611 732 4611 736C4611 744 4605 748 4601 748C4590 748 4586 730 4583 723L4230 -220C4226 -231 4226 -233 4226 -236ZM4702 13C4702 -4 4702 -11 4713 -11C4718 -11 4719 -10 4738 9C4740 11 4740 13 4758 32C4802 -10 4847 -11 4868 -11C4983 -11 5029 56 5029 128C5029 181 4999 211 4987 223C4954 255 4915 263 4873 271C4817 282 4750 295 4750 353C4750 388 4776 429 4862 429C4972 429 4977 339 4979 308C4980 299 4989 299 4991 299C5004 299 5004 304 5004 323L5004 424C5004 441 5004 448 4993 448C4988 448 4986 448 4973 436C4970 432 4960 423 4956 420C4918 448 4877 448 4862 448C4740 448 4702 381 4702 325C4702 290 4718 262 4745 240C4777 214 4805 208 4877 194C4899 190 4981 174 4981 102C4981 51 4946 11 4868 11C4784 11 4748 68 4729 153C4726 166 4725 170 4715 170C4702 170 4702 163 4702 145ZM5120 -240C5120 -246 5124 -250 5130 -250C5140 -250 5230 -182 5289 -55C5340 55 5352 166 5352 250C5352 328 5341 449 5286 562C5226 685 5140 750 5130 750C5124 750 5120 746 5120 740C5120 737 5120 735 5139 717C5237 618 5294 459 5294 250C5294 79 5257 -97 5133 -223C5120 -235 5120 -237 5120 -240ZM5841 152C5841 142 5856 141 5868 141L6476 141C6487 141 6503 142 6503 153C6503 165 6487 164 6474 164L5861 164C5851 164 5842 164 5841 152ZM5841 347C5841 337 5853 336 5861 336L6478 336C6489 336 6503 336 6503 347C6503 360 6486 359 6473 359L5862 359C5844 359 5841 352 5841 347ZM6945 0L7316 0L7344 174L7319 174C7314 144 7307 100 7297 85C7290 77 7224 77 7202 77L7022 77L7128 180C7284 318 7344 372 7344 472C7344 586 7254 666 7132 666C7019 666 6945 574 6945 485C6945 429 6995 429 6998 429C7015 429 7050 441 7050 482C7050 508 7032 534 6997 534C6989 534 6987 534 6984 533C7007 598 7061 635 7119 635C7210 635 7253 554 7253 472C7253 392 7203 313 7148 251L6956 37C6945 26 6945 24 6945 0ZM7480 53C7480 26 7502 0 7533 0C7559 0 7585 22 7585 53C7585 84 7561 105 7533 105C7502 105 7480 80 7480 53ZM7723 161C7723 75 7792 -22 7904 -22C8020 -22 8122 74 8122 201C8122 320 8040 420 7932 420C7884 420 7841 404 7805 369L7805 564C7825 558 7858 551 7890 551C8013 551 8083 642 8083 655C8083 661 8080 666 8073 666C8072 666 8070 666 8065 663C8045 654 7996 634 7929 634C7889 634 7843 641 7796 662C7788 665 7786 665 7784 665C7774 665 7774 657 7774 641L7774 345C7774 327 7774 319 7788 319C7795 319 7797 322 7801 328C7812 344 7849 398 7930 398C7982 398 8007 352 8015 334C8031 297 8033 258 8033 208C8033 173 8033 113 8009 71C7985 32 7948 6 7902 6C7829 6 7772 59 7755 118C7758 117 7761 116 7772 116C7805 116 7822 141 7822 165C7822 189 7805 214 7772 214C7758 214 7723 207 7723 161ZM8205 0C8240 1 8291 3 8318 3C8344 3 8396 1 8430 0L8430 31C8363 31 8352 31 8352 76L8352 260C8352 364 8423 420 8487 420C8550 420 8561 366 8561 309L8561 76C8561 31 8550 31 8483 31L8483 0C8518 1 8569 3 8596 3C8622 3 8674 1 8708 0L8708 31C8641 31 8630 31 8630 76L8630 260C8630 364 8701 420 8765 420C8828 420 8839 366 8839 309L8839 76C8839 31 8828 31 8761 31L8761 0C8796 1 8847 3 8874 3C8900 3 8952 1 8986 0L8986 31C8934 31 8909 31 8908 61L8908 252C8908 338 8908 369 8877 405C8863 422 8830 442 8772 442C8688 442 8644 382 8627 344C8613 431 8539 442 8494 442C8421 442 8374 399 8346 337L8346 442L8205 431L8205 400C8275 400 8283 393 8283 344L8283 76C8283 31 8272 31 8205 31Z" stroke="rgb(153,0,0)" stroke-opacity="1" stroke-width="8" fill="rgb(153,0,0)" fill-opacity="1"></path></g></g></g></g><g><g><g><g transform="matrix(1,0,0,1,24.900000000000002,92.34999389648438)"><path transform="matrix(0.015,0,0,-0.015,0,0)" d="M50 0L421 0L449 174L424 174C419 144 412 100 402 85C395 77 329 77 307 77L127 77L233 180C389 318 449 372 449 472C449 586 359 666 237 666C124 666 50 574 50 485C50 429 100 429 103 429C120 429 155 441 155 482C155 508 137 534 102 534C94 534 92 534 89 533C112 598 166 635 224 635C315 635 358 554 358 472C358 392 308 313 253 251L61 37C50 26 50 24 50 0ZM585 53C585 26 607 0 638 0C664 0 690 22 690 53C690 84 666 105 638 105C607 105 585 80 585 53ZM828 161C828 75 897 -22 1009 -22C1125 -22 1227 74 1227 201C1227 320 1145 420 1037 420C989 420 946 404 910 369L910 564C930 558 963 551 995 551C1118 551 1188 642 1188 655C1188 661 1185 666 1178 666C1177 666 1175 666 1170 663C1150 654 1101 634 1034 634C994 634 948 641 901 662C893 665 891 665 889 665C879 665 879 657 879 641L879 345C879 327 879 319 893 319C900 319 902 322 906 328C917 344 954 398 1035 398C1087 398 1112 352 1120 334C1136 297 1138 258 1138 208C1138 173 1138 113 1114 71C1090 32 1053 6 1007 6C934 6 877 59 860 118C863 117 866 116 877 116C910 116 927 141 927 165C927 189 910 214 877 214C863 214 828 207 828 161ZM1310 0C1345 1 1396 3 1423 3C1449 3 1501 1 1535 0L1535 31C1468 31 1457 31 1457 76L1457 260C1457 364 1528 420 1592 420C1655 420 1666 366 1666 309L1666 76C1666 31 1655 31 1588 31L1588 0C1623 1 1674 3 1701 3C1727 3 1779 1 1813 0L1813 31C1746 31 1735 31 1735 76L1735 260C1735 364 1806 420 1870 420C1933 420 1944 366 1944 309L1944 76C1944 31 1933 31 1866 31L1866 0C1901 1 1952 3 1979 3C2005 3 2057 1 2091 0L2091 31C2039 31 2014 31 2013 61L2013 252C2013 338 2013 369 1982 405C1968 422 1935 442 1877 442C1793 442 1749 382 1732 344C1718 431 1644 442 1599 442C1526 442 1479 399 1451 337L1451 442L1310 431L1310 400C1380 400 1388 393 1388 344L1388 76C1388 31 1377 31 1310 31Z" stroke="rgb(153,0,0)" stroke-opacity="1" stroke-width="8" fill="rgb(153,0,0)" fill-opacity="1"></path></g></g></g></g></svg>
</svg>
