<svg xmlns="http://www.w3.org/2000/svg" xmlns:xlink="http://www.w3.org/1999/xlink" x="0" y="0" width="346.6000061035156" height="215" style="
        width:346.6000061035156px;
        height:215px;
        background: transparent;
        fill: none;
">
        <svg xmlns="http://www.w3.org/2000/svg"/>
        
        <svg xmlns="http://www.w3.org/2000/svg" class="role-diagram-draw-area" style="overflow: visible;"><g class="shapes-region" style="stroke: black; fill: none;"><g class="arrow-line"><path class="connection real" stroke-dasharray="" d="  M29,166.8 L29,10.8  M25,134.8 L33,134.8 M25,102.8 L33,102.8 M25,70.8 L33,70.8 M25,38.8 L33,38.8" style="stroke: rgb(0, 0, 0); stroke-width: 1; fill: none; fill-opacity: 1;"/><g stroke="#000" transform="matrix(3.061616997868383e-16,1,-1,3.061616997868383e-16,29.00000000000003,8.800003051757812)" style="stroke: rgb(0, 0, 0); stroke-width: 1;"><path d=" M10.93,-3.29 Q4.96,-0.45 0,0 Q4.96,0.45 10.93,3.29"/></g></g><g class="arrow-line"><path class="connection real" stroke-dasharray="" d="  M29,166.8 L315.8,166.8  M61,162.8 L61,170.8 M93,162.8 L93,170.8 M125,162.8 L125,170.8 M157,162.8 L157,170.8 M189,162.8 L189,170.8 M221,162.8 L221,170.8 M253,162.8 L253,170.8 M285,162.8 L285,170.8" style="stroke: rgb(0, 0, 0); stroke-width: 1; fill: none; fill-opacity: 1;"/><g stroke="#000" transform="matrix(-1,1.2246467991473532e-16,-1.2246467991473532e-16,-1,317.79998779296875,166.80000305175784)" style="stroke: rgb(0, 0, 0); stroke-width: 1;"><path d=" M10.93,-3.29 Q4.96,-0.45 0,0 Q4.96,0.45 10.93,3.29"/></g></g><g class="arrow-line"><path class="connection real" stroke-dasharray="" d="  M29,166.8 L61,38.8 L189,38.8 L221,102.8 L281,102.8" style="stroke: rgb(153, 0, 0); stroke-opacity: 1; stroke-width: 2; fill: none; fill-opacity: 1;"/><g stroke="none" fill="rgb(153,0,0)" fill-opacity="1" transform="matrix(-1,1.2246467991473532e-16,-1.2246467991473532e-16,-1,285,102.8)" style="stroke: none; fill: rgb(153, 0, 0); stroke-width: 2;"><path d=" M13.4,-6.43 L0,0 L13.4,6.44 L8.9,0 Z"/></g></g><g/></g><g/><g/><g/></svg>
        <svg xmlns="http://www.w3.org/2000/svg" xmlns:xlink="http://www.w3.org/1999/xlink" width="345" height="213.40000915527344" style="width:345px;height:213.40000915527344px;font-family:Asana-Math, Asana;background:transparent;"><g><g><g><g transform="matrix(1,0,0,1,320.5875244140625,183.39999389648438)"><path transform="matrix(0.015,0,0,-0.015,0,0)" d="M19 400L104 400L104 124C104 1 197 -11 233 -11C304 -11 332 60 332 124L332 181L307 181L307 126C307 52 277 14 240 14C173 14 173 105 173 122L173 400L316 400L316 431L173 431L173 615L148 615C147 533 117 426 19 422Z" stroke="rgb(0,0,0)" stroke-opacity="1" stroke-width="8" fill="rgb(0,0,0)" fill-opacity="1"></path></g></g></g></g><g><g><g><g transform="matrix(1,0,0,1,31.79998779296875,25.399993896484375)"><path transform="matrix(0.015,0,0,-0.015,0,0)" d="M352 400C415 400 419 394 432 363L576 8C582 -6 584 -11 597 -11C610 -11 614 -2 618 8L749 333C758 356 775 399 841 400L841 431C818 429 789 428 766 428C742 428 696 430 679 431L679 400C716 399 727 376 727 357C727 348 725 344 721 333L619 78L507 357C501 370 501 372 501 374C501 400 540 400 558 400L558 431C528 430 472 428 449 428C422 428 382 429 352 431Z" stroke="rgb(0,0,0)" stroke-opacity="1" stroke-width="8" fill="rgb(0,0,0)" fill-opacity="1"></path></g></g></g></g><g><g><g><g transform="matrix(1,0,0,1,87.4000244140625,180.97500610351562)"><path transform="matrix(0.0105,0,0,-0.0105,0,0)" d="M361 165L627 165L627 78C627 42 625 31 551 31L530 31L530 0C571 3 623 3 665 3C707 3 760 3 801 0L801 31L780 31C706 31 704 42 704 78L704 165L804 165L804 196L704 196L704 651C704 671 704 677 688 677C679 677 676 677 668 665L361 196ZM389 196L633 569L633 196Z" stroke="rgb(0,0,0)" stroke-opacity="1" stroke-width="8" fill="rgb(0,0,0)" fill-opacity="1"></path></g></g></g></g><g><g><g><g transform="matrix(1,0,0,1,151,181.89999389648438)"><path transform="matrix(0.0105,0,0,-0.0105,0,0)" d="M375 151C375 45 477 -22 582 -22C695 -22 790 61 790 168C790 204 779 249 741 291C722 312 706 322 642 362C714 399 763 451 763 517C763 609 674 666 583 666C483 666 402 592 402 499C402 481 404 436 446 389C457 377 494 352 519 335C461 306 375 250 375 151ZM425 151C425 209 457 273 542 320L665 242C693 223 740 193 740 132C740 58 665 6 583 6C497 6 425 68 425 151ZM446 538C446 599 511 641 582 641C655 641 719 589 719 517C719 460 680 412 620 377L496 457C450 487 446 521 446 538Z" stroke="rgb(0,0,0)" stroke-opacity="1" stroke-width="8" fill="rgb(0,0,0)" fill-opacity="1"></path></g></g></g></g><g><g><g><g transform="matrix(1,0,0,1,212.20001220703125,181.5)"><path transform="matrix(0.0105,0,0,-0.0105,0,0)" d="M422 571C442 571 501 571 553 597L553 79C553 43 550 31 460 31L428 31L428 0C463 3 550 3 590 3C630 3 717 3 752 0L752 31L720 31C630 31 627 42 627 79L627 640C627 664 627 666 604 666C542 602 454 602 422 602ZM883 0L1254 0L1282 174L1257 174C1252 144 1245 100 1235 85C1228 77 1162 77 1140 77L960 77L1066 180C1222 318 1282 372 1282 472C1282 586 1192 666 1070 666C957 666 883 574 883 485C883 429 933 429 936 429C953 429 988 441 988 482C988 508 970 534 935 534C927 534 925 534 922 533C945 598 999 635 1057 635C1148 635 1191 554 1191 472C1191 392 1141 313 1086 251L894 37C883 26 883 24 883 0Z" stroke="rgb(0,0,0)" stroke-opacity="1" stroke-width="8" fill="rgb(0,0,0)" fill-opacity="1"></path></g></g></g></g><g><g><g><g transform="matrix(1,0,0,1,276.5999755859375,181.5)"><path transform="matrix(0.0105,0,0,-0.0105,0,0)" d="M422 571C442 571 501 571 553 597L553 79C553 43 550 31 460 31L428 31L428 0C463 3 550 3 590 3C630 3 717 3 752 0L752 31L720 31C630 31 627 42 627 79L627 640C627 664 627 666 604 666C542 602 454 602 422 602ZM875 316C875 49 991 -22 1084 -22C1195 -22 1290 72 1290 204C1290 331 1201 427 1090 427C1022 427 985 376 965 328L965 352C965 605 1089 641 1140 641C1164 641 1206 635 1228 601C1213 601 1173 601 1173 556C1173 525 1197 510 1219 510C1235 510 1265 519 1265 558C1265 618 1221 666 1138 666C1010 666 875 537 875 316ZM967 226C967 304 999 404 1089 404C1105 404 1151 404 1182 342C1200 305 1200 254 1200 205C1200 157 1200 107 1183 71C1153 11 1107 6 1084 6C1021 6 991 66 985 81C967 128 967 208 967 226Z" stroke="rgb(0,0,0)" stroke-opacity="1" stroke-width="8" fill="rgb(0,0,0)" fill-opacity="1"></path></g></g></g></g><g><g><g><g transform="matrix(1,0,0,1,11.79998779296875,42.399993896484375)"><path transform="matrix(0.0105,0,0,-0.0105,0,0)" d="M375 151C375 45 477 -22 582 -22C695 -22 790 61 790 168C790 204 779 249 741 291C722 312 706 322 642 362C714 399 763 451 763 517C763 609 674 666 583 666C483 666 402 592 402 499C402 481 404 436 446 389C457 377 494 352 519 335C461 306 375 250 375 151ZM425 151C425 209 457 273 542 320L665 242C693 223 740 193 740 132C740 58 665 6 583 6C497 6 425 68 425 151ZM446 538C446 599 511 641 582 641C655 641 719 589 719 517C719 460 680 412 620 377L496 457C450 487 446 521 446 538Z" stroke="rgb(0,0,0)" stroke-opacity="1" stroke-width="8" fill="rgb(0,0,0)" fill-opacity="1"></path></g></g></g></g><g><g><g><g transform="matrix(1,0,0,1,11.79998779296875,107.39999389648438)"><path transform="matrix(0.0105,0,0,-0.0105,0,0)" d="M361 165L627 165L627 78C627 42 625 31 551 31L530 31L530 0C571 3 623 3 665 3C707 3 760 3 801 0L801 31L780 31C706 31 704 42 704 78L704 165L804 165L804 196L704 196L704 651C704 671 704 677 688 677C679 677 676 677 668 665L361 196ZM389 196L633 569L633 196Z" stroke="rgb(0,0,0)" stroke-opacity="1" stroke-width="8" fill="rgb(0,0,0)" fill-opacity="1"></path></g></g></g></g></svg>
</svg>
