<svg xmlns="http://www.w3.org/2000/svg" width="346.6" height="215" style="width:346.6000061035156px;height:215px;background:0 0;fill:none"><svg xmlns="http://www.w3.org/2000/svg"/><svg xmlns="http://www.w3.org/2000/svg" class="role-diagram-draw-area" style="overflow:visible"><g class="shapes-region" style="stroke:#000;fill:none"><g class="arrow-line"><path d="M29 166.8v-156m-4 124h8m-8-32h8m-8-32h8m-8-32h8" class="connection real" style="stroke:#000;stroke-width:1;fill:none;fill-opacity:1"/><path d="M10.93-3.29Q4.96-.45 0 0q4.96.45 10.93 3.29" style="stroke:#000;stroke-width:1" transform="rotate(90 10.1 18.9)"/></g><g class="arrow-line"><path d="M29 166.8h286.8m-254.8-4v8m32-8v8m32-8v8m32-8v8m32-8v8m32-8v8m32-8v8m32-8v8" class="connection real" style="stroke:#000;stroke-width:1;fill:none;fill-opacity:1"/><path d="M10.93-3.29Q4.96-.45 0 0q4.96.45 10.93 3.29" style="stroke:#000;stroke-width:1" transform="matrix(-1 0 0 -1 317.8 166.8)"/></g><g class="arrow-line"><path d="m29 166.8 32-128h128l32 64h60" class="connection real" style="stroke:#900;stroke-opacity:1;stroke-width:2;fill:none;fill-opacity:1"/><path fill="#900" stroke="none" d="M13.4-6.43 0 0l13.4 6.44L8.9 0Z" style="stroke:none;fill:#900;stroke-width:2" transform="matrix(-1 0 0 -1 285 102.8)"/></g></g></svg><svg xmlns="http://www.w3.org/2000/svg" xmlns:xlink="http://www.w3.org/1999/xlink" width="345" height="213.4" style="width:345px;height:213.40000915527344px;font-family:Asana-Math,Asana;background:0 0"><path fill="#000" stroke="#000" stroke-width=".12" d="M320.873 177.4h1.275v4.14c0 1.845 1.395 2.025 1.935 2.025 1.065 0 1.485-1.065 1.485-2.025v-.855h-.375v.825c0 1.11-.45 1.68-1.005 1.68-1.005 0-1.005-1.365-1.005-1.62v-4.17h2.145v-.465h-2.145v-2.76h-.375c-.015 1.23-.465 2.835-1.935 2.895ZM37.08 19.4c.945 0 1.005.09 1.2.555l2.16 5.325c.09.21.12.285.315.285s.255-.135.315-.285l1.965-4.875c.135-.345.39-.99 1.38-1.005v-.465c-.345.03-.78.045-1.125.045-.36 0-1.05-.03-1.305-.045v.465c.555.015.72.36.72.645 0 .135-.03.195-.09.36l-1.53 3.825-1.68-4.185c-.09-.195-.09-.225-.09-.255 0-.39.585-.39.855-.39v-.465c-.45.015-1.29.045-1.635.045-.405 0-1.005-.015-1.455-.045Z"/><path fill="#000" stroke="#000" stroke-width=".084" d="M91.19 179.243h2.794v.913c0 .378-.021.494-.798.494h-.221v.325c.43-.031.977-.031 1.418-.031s.997 0 1.428.031v-.325h-.221c-.777 0-.798-.116-.798-.494v-.913h1.05v-.326h-1.05v-4.777c0-.21 0-.273-.168-.273-.094 0-.126 0-.21.126l-3.223 4.924Zm.295-.326 2.562-3.916v3.916Zm63.453 1.397c0 1.113 1.07 1.817 2.173 1.817 1.187 0 2.184-.872 2.184-1.995a1.9 1.9 0 0 0-.514-1.292c-.2-.22-.368-.325-1.04-.745.756-.389 1.27-.935 1.27-1.628 0-.966-.934-1.564-1.89-1.564-1.05 0-1.9.777-1.9 1.753 0 .19.021.662.462 1.155.115.126.504.389.767.567-.61.305-1.512.893-1.512 1.932Zm.525 0c0-.609.335-1.28 1.228-1.774l1.291.819c.294.2.788.514.788 1.155 0 .777-.788 1.323-1.649 1.323-.903 0-1.659-.651-1.659-1.523Zm.22-4.063c0-.64.683-1.082 1.428-1.082.767 0 1.439.546 1.439 1.302 0 .599-.41 1.103-1.04 1.47l-1.302-.84c-.483-.315-.525-.672-.525-.85Zm60.948-.746c.21 0 .83 0 1.376-.273v5.439c0 .377-.032.504-.977.504h-.336v.325c.368-.031 1.281-.031 1.701-.031s1.334 0 1.701.031v-.326h-.336c-.945 0-.976-.115-.976-.504v-5.89c0-.252 0-.273-.242-.273-.651.672-1.575.672-1.911.672Zm4.84 5.995h3.896l.294-1.827h-.262c-.053.315-.126.777-.231.934-.074.084-.767.084-.998.084h-1.89l1.113-1.081c1.638-1.449 2.268-2.016 2.268-3.066 0-1.197-.945-2.037-2.226-2.037a1.94 1.94 0 0 0-1.963 1.9c0 .588.525.588.556.588.179 0 .546-.126.546-.556a.53.53 0 0 0-.556-.546c-.084 0-.105 0-.137.01.242-.682.809-1.07 1.418-1.07.955 0 1.407.85 1.407 1.711 0 .84-.525 1.67-1.103 2.32l-2.016 2.248c-.115.115-.115.136-.115.388Zm59.56-5.995c.21 0 .83 0 1.375-.273v5.439c0 .377-.031.504-.976.504h-.336v.325c.367-.031 1.281-.031 1.701-.031s1.333 0 1.701.031v-.326h-.336c-.945 0-.977-.115-.977-.504v-5.89c0-.252 0-.273-.241-.273-.651.672-1.575.672-1.911.672Zm4.756 2.677c0 2.804 1.218 3.549 2.195 3.549 1.165 0 2.163-.987 2.163-2.373 0-1.334-.935-2.341-2.1-2.341-.714 0-1.103.535-1.313 1.039v-.252c0-2.656 1.302-3.035 1.838-3.035.252 0 .693.064.924.42-.158 0-.578 0-.578.473 0 .326.252.483.483.483.168 0 .483-.095.483-.504 0-.63-.462-1.134-1.333-1.134-1.344 0-2.762 1.355-2.762 3.675Zm.966.945c0-.819.336-1.869 1.281-1.869.168 0 .651 0 .977.651.189.389.189.924.189 1.439 0 .503 0 1.028-.179 1.406-.315.63-.798.683-1.039.683-.662 0-.977-.63-1.04-.788-.189-.493-.189-1.333-.189-1.522ZM15.737 40.814c0 1.113 1.071 1.817 2.174 1.817 1.186 0 2.184-.872 2.184-1.995 0-.378-.116-.85-.515-1.292-.199-.22-.367-.325-1.039-.745.756-.389 1.27-.935 1.27-1.628 0-.966-.934-1.564-1.89-1.564-1.05 0-1.9.777-1.9 1.753 0 .19.021.662.462 1.155.115.126.504.389.766.567-.609.305-1.512.893-1.512 1.932Zm.525 0c0-.609.336-1.28 1.229-1.774l1.291.819c.294.2.788.514.788 1.155 0 .777-.788 1.323-1.649 1.323-.903 0-1.659-.651-1.659-1.523Zm.221-4.063c0-.64.682-1.082 1.428-1.082.766 0 1.438.546 1.438 1.302 0 .599-.409 1.103-1.039 1.47l-1.302-.84c-.483-.315-.525-.672-.525-.85Zm-.893 68.916h2.793v.914c0 .378-.02.493-.798.493h-.22v.326c.43-.032.976-.032 1.417-.032s.998 0 1.428.032v-.326h-.22c-.777 0-.798-.115-.798-.493v-.914h1.05v-.325h-1.05v-4.778c0-.21 0-.273-.168-.273-.095 0-.126 0-.21.126l-3.224 4.925Zm.294-.325 2.562-3.917v3.917Z"/></svg></svg>