<svg xmlns="http://www.w3.org/2000/svg" xmlns:xlink="http://www.w3.org/1999/xlink" x="0" y="0" width="377.6000061035156" height="195.8000030517578" style="
        width:377.6000061035156px;
        height:195.8000030517578px;
        background: #FFF;
        fill: none;
">
        <svg xmlns="http://www.w3.org/2000/svg"/>
        
        <svg xmlns="http://www.w3.org/2000/svg" class="role-diagram-draw-area" style="overflow: visible;"><g class="shapes-region" style="stroke: black; fill: none;"><g class="grouped-shape"><g class="arrow-line"><path class="connection real" stroke-dasharray="" d="  M10,166.3 L10,10.3" style="stroke: rgb(0, 0, 0); stroke-width: 1; fill: none; fill-opacity: 1;"/><g stroke="#000" transform="matrix(3.061616997868383e-16,1,-1,3.061616997868383e-16,10,8.300003051757812)" style="stroke: rgb(0, 0, 0); stroke-width: 1;"><path d=" M10.93,-3.29 Q4.96,-0.45 0,0 Q4.96,0.45 10.93,3.29"/></g></g><g class="arrow-line"><path class="connection real" stroke-dasharray="" d="  M10,166.3 L165,166.3" style="stroke: rgb(0, 0, 0); stroke-width: 1; fill: none; fill-opacity: 1;"/><g stroke="#000" transform="matrix(-1,1.2246467991473532e-16,-1.2246467991473532e-16,-1,166.99999999999997,166.30000305175784)" style="stroke: rgb(0, 0, 0); stroke-width: 1;"><path d=" M10.93,-3.29 Q4.96,-0.45 0,0 Q4.96,0.45 10.93,3.29"/></g></g></g><g class="grouped-shape"><g class="arrow-line"><path class="connection real" stroke-dasharray="" d="  M200,166.8 L200,10.8" style="stroke: rgb(0, 0, 0); stroke-width: 1; fill: none; fill-opacity: 1;"/><g stroke="#000" transform="matrix(3.061616997868383e-16,1,-1,3.061616997868383e-16,200,8.800003051757812)" style="stroke: rgb(0, 0, 0); stroke-width: 1;"><path d=" M10.93,-3.29 Q4.96,-0.45 0,0 Q4.96,0.45 10.93,3.29"/></g></g><g class="arrow-line"><path class="connection real" stroke-dasharray="" d="  M200,166.8 L355,166.8" style="stroke: rgb(0, 0, 0); stroke-width: 1; fill: none; fill-opacity: 1;"/><g stroke="#000" transform="matrix(-1,1.2246467991473532e-16,-1.2246467991473532e-16,-1,357,166.8000030517578)" style="stroke: rgb(0, 0, 0); stroke-width: 1;"><path d=" M10.93,-3.29 Q4.96,-0.45 0,0 Q4.96,0.45 10.93,3.29"/></g></g></g><g class="arrow-line"><path class="connection real" stroke-dasharray="" d="  M9.5,134.15 L162.5,134.15" style="stroke: rgb(153, 0, 0); stroke-opacity: 1; stroke-width: 2; fill: none; fill-opacity: 1;"/><g stroke="none" fill="rgb(153,0,0)" fill-opacity="1" transform="matrix(-1,1.2246467991473532e-16,-1.2246467991473532e-16,-1,166.49999999999997,134.15000152587893)" style="stroke: none; fill: rgb(153, 0, 0); stroke-width: 2;"><path d=" M13.4,-6.43 L0,0 L13.4,6.44 L8.9,0 Z"/></g></g><g class="arrow-line"><path class="connection real" stroke-dasharray="" d="  M200,166.8 L353,166.8" style="stroke: rgb(153, 0, 0); stroke-opacity: 1; stroke-width: 2; fill: none; fill-opacity: 1;"/><g stroke="none" fill="rgb(153,0,0)" fill-opacity="1" transform="matrix(-1,1.2246467991473532e-16,-1.2246467991473532e-16,-1,357,166.8000030517578)" style="stroke: none; fill: rgb(153, 0, 0); stroke-width: 2;"><path d=" M13.4,-6.43 L0,0 L13.4,6.44 L8.9,0 Z"/></g></g><g/></g><g/><g/><g/></svg>
        <svg xmlns="http://www.w3.org/2000/svg" xmlns:xlink="http://www.w3.org/1999/xlink" width="376" height="194.1999969482422" style="width:376px;height:194.1999969482422px;font-family:Asana-Math, Asana;background:#FFF;"><g><g><g><g transform="matrix(1,0,0,1,168.79998779296875,182.89999389648438)"><path transform="matrix(0.015,0,0,-0.015,0,0)" d="M19 400L104 400L104 124C104 1 197 -11 233 -11C304 -11 332 60 332 124L332 181L307 181L307 126C307 52 277 14 240 14C173 14 173 105 173 122L173 400L316 400L316 431L173 431L173 615L148 615C147 533 117 426 19 422Z" stroke="rgb(0,0,0)" stroke-opacity="1" stroke-width="8" fill="rgb(0,0,0)" fill-opacity="1"></path></g></g></g></g><g><g><g><g transform="matrix(1,0,0,1,11.79998779296875,24.899993896484375)"><path transform="matrix(0.015,0,0,-0.015,0,0)" d="M352 400C415 400 419 394 432 363L576 8C582 -6 584 -11 597 -11C610 -11 614 -2 618 8L749 333C758 356 775 399 841 400L841 431C818 429 789 428 766 428C742 428 696 430 679 431L679 400C716 399 727 376 727 357C727 348 725 344 721 333L619 78L507 357C501 370 501 372 501 374C501 400 540 400 558 400L558 431C528 430 472 428 449 428C422 428 382 429 352 431Z" stroke="rgb(0,0,0)" stroke-opacity="1" stroke-width="8" fill="rgb(0,0,0)" fill-opacity="1"></path></g></g></g></g><g><g><g><g transform="matrix(1,0,0,1,359.79998779296875,183.39999389648438)"><path transform="matrix(0.015,0,0,-0.015,0,0)" d="M19 400L104 400L104 124C104 1 197 -11 233 -11C304 -11 332 60 332 124L332 181L307 181L307 126C307 52 277 14 240 14C173 14 173 105 173 122L173 400L316 400L316 431L173 431L173 615L148 615C147 533 117 426 19 422Z" stroke="rgb(0,0,0)" stroke-opacity="1" stroke-width="8" fill="rgb(0,0,0)" fill-opacity="1"></path></g></g></g></g><g><g><g><g transform="matrix(1,0,0,1,202.79998779296875,25.399993896484375)"><path transform="matrix(0.015,0,0,-0.015,0,0)" d="M375 95C375 14 472 -11 535 -11C601 -11 647 29 666 76C670 36 697 -6 744 -6C765 -6 826 8 826 89L826 145L801 145L801 89C801 31 776 25 765 25C732 25 728 70 728 75L728 275C728 317 728 356 692 393C653 432 603 448 555 448C473 448 404 401 404 335C404 305 424 288 450 288C478 288 496 308 496 334C496 346 491 379 445 380C472 415 521 426 553 426C602 426 659 387 659 298L659 261C608 258 538 255 475 225C400 191 375 139 375 95ZM452 96C452 151 494 234 659 240L659 140C659 45 587 11 542 11C493 11 452 46 452 96Z" stroke="rgb(0,0,0)" stroke-opacity="1" stroke-width="8" fill="rgb(0,0,0)" fill-opacity="1"></path></g></g></g></g></svg>
</svg>
