<svg xmlns="http://www.w3.org/2000/svg" width="562.6" height="195.8" style="width:562.6000366210938px;height:195.8000030517578px;background:#fff;fill:none"><svg xmlns="http://www.w3.org/2000/svg"/><svg xmlns="http://www.w3.org/2000/svg" class="role-diagram-draw-area" style="overflow:visible"><g class="shapes-region" style="stroke:#000;fill:none"><g class="grouped-shape"><g class="arrow-line"><path d="M10 166.3v-156" class="connection real" style="stroke:#000;stroke-width:1;fill:none;fill-opacity:1"/><path d="M10.93-3.29Q4.96-.45 0 0q4.96.45 10.93 3.29" style="stroke:#000;stroke-width:1" transform="rotate(90 .85 9.15)"/></g><g class="arrow-line"><path d="M10 166.3h155" class="connection real" style="stroke:#000;stroke-width:1;fill:none;fill-opacity:1"/><path d="M10.93-3.29Q4.96-.45 0 0q4.96.45 10.93 3.29" style="stroke:#000;stroke-width:1" transform="matrix(-1 0 0 -1 167 166.3)"/></g></g><g class="arrow-line"><path d="M200 166.8v-156" class="connection real" style="stroke:#000;stroke-width:1;fill:none;fill-opacity:1"/><path d="M10.93-3.29Q4.96-.45 0 0q4.96.45 10.93 3.29" style="stroke:#000;stroke-width:1" transform="rotate(90 95.6 104.4)"/></g><g class="arrow-line"><path d="M200 166.8h155" class="connection real" style="stroke:#000;stroke-width:1;fill:none;fill-opacity:1"/><path d="M10.93-3.29Q4.96-.45 0 0q4.96.45 10.93 3.29" style="stroke:#000;stroke-width:1" transform="matrix(-1 0 0 -1 357 166.8)"/></g><g class="arrow-line"><path d="M200 166.8 348.97 17.83" class="connection real" style="stroke:#900;stroke-opacity:1;stroke-width:2;fill:none;fill-opacity:1"/><path fill="#900" stroke="none" d="M13.4-6.43 0 0l13.4 6.44L8.9 0Z" style="stroke:none;fill:#900;stroke-width:2" transform="rotate(135 172.793 80.36)"/></g><g class="arrow-line"><path d="M390 167V11" class="connection real" style="stroke:#000;stroke-width:1;fill:none;fill-opacity:1"/><path d="M10.93-3.29Q4.96-.45 0 0q4.96.45 10.93 3.29" style="stroke:#000;stroke-width:1" transform="rotate(90 190.5 199.5)"/></g><g class="arrow-line"><path d="M390 167h155" class="connection real" style="stroke:#000;stroke-width:1;fill:none;fill-opacity:1"/><path d="M10.93-3.29Q4.96-.45 0 0q4.96.45 10.93 3.29" style="stroke:#000;stroke-width:1" transform="matrix(-1 0 0 -1 547 167)"/></g><g class="arrow-line"><path d="M390.5 135h153" class="connection real" style="stroke:#900;stroke-opacity:1;stroke-width:2;fill:none;fill-opacity:1"/><path fill="#900" stroke="none" d="M13.4-6.43 0 0l13.4 6.44L8.9 0Z" style="stroke:none;fill:#900;stroke-width:2" transform="matrix(-1 0 0 -1 547.5 135)"/></g><g class="composite-shape" data-amt="diagram/shapes/plot"><g class="test-plot-expression" transform="translate(-189.7 9.2)"><defs><clipPath id="cpothgeesq6dg-full-view"><path d="M1 1h360v253.5H1z"/></clipPath></defs><g clip-path="url(#cpothgeesq6dg-full-view)"><path d="M200 155.5h.67l.23-.01h.44l.23-.01h.22l.23-.01h.22l.22-.01.23-.01h.22l.23-.01.22-.01.23-.01.22-.01.22-.01.23-.01.22-.02.23-.01.22-.01.22-.02.23-.01.22-.02.23-.01.22-.02.22-.02.23-.01.22-.02.23-.02.22-.02.22-.02.23-.02.22-.02.23-.03.22-.02.22-.02.23-.03.22-.02.23-.03.22-.02.22-.03.23-.03.22-.03.23-.02.22-.03.23-.03.22-.03.22-.03.23-.04.22-.03.23-.03.22-.03.22-.04.23-.03.22-.04.23-.04.22-.03.22-.04.23-.04.22-.04.23-.04.22-.04.22-.04.23-.04.22-.04.23-.04.22-.04.22-.05.23-.04.22-.05.23-.04.22-.05.22-.05.23-.04.22-.05.23-.05.22-.05.23-.05.22-.05.22-.05.23-.05.22-.05.23-.06.22-.05.22-.06.23-.05.22-.06.23-.05.22-.06.22-.06.23-.05.22-.06.23-.06.22-.06.22-.06.23-.06.22-.07.23-.06.22-.06.22-.06.23-.07.22-.06.23-.07.22-.07.23-.06.22-.07.22-.07.23-.07.22-.07.23-.07.22-.07.22-.07.23-.07.22-.07.23-.08.22-.07.22-.07.23-.08.22-.07.23-.08.22-.08.22-.07.23-.08.22-.08.23-.08.22-.08.22-.08.23-.08.22-.08.23-.09.22-.08.22-.08.23-.09.22-.08.23-.09.22-.09.23-.08.22-.09.22-.09.23-.09.22-.09.23-.09.22-.09.22-.09.23-.09.22-.09.23-.1.22-.09.22-.09.23-.1.22-.1.23-.09.22-.1.22-.1.23-.09.22-.1.23-.1.22-.1.22-.1.23-.1.22-.11.23-.1.22-.1.23-.11.22-.1.22-.11.23-.1.22-.11.23-.11.22-.1.22-.11.23-.11.22-.11.23-.11.22-.11.22-.11.23-.11.22-.12.23-.11.22-.11.22-.12.23-.11.22-.12.23-.12.22-.11.22-.12.23-.12.22-.12.23-.12.22-.12.22-.12.23-.12.22-.12.23-.12.22-.13.23-.12.22-.13.22-.12.23-.13.22-.12.23-.13.22-.13.22-.13.23-.13.22-.13.23-.13.22-.13.22-.13.23-.13.22-.13.23-.14.22-.13.22-.13.23-.14.22-.14.23-.13.22-.14.22-.14.23-.14.22-.13.23-.14.22-.14.22-.15.23-.14.22-.14.23-.14.22-.15.23-.14.22-.14.22-.15.23-.15.22-.14.23-.15.22-.15.22-.15.23-.14.22-.15.23-.15.22-.15.22-.16.23-.15.22-.15.23-.15.22-.16.22-.15.23-.16.22-.16.23-.15.22-.16.22-.16.23-.16.22-.15.23-.16.22-.16.23-.17.22-.16.22-.16.23-.16.22-.17.23-.16.22-.16.22-.17.23-.17.22-.16.23-.17.22-.17.22-.17.23-.16.22-.17.23-.18.22-.17.22-.17.23-.17.22-.17.23-.18.22-.17.22-.18.23-.17.22-.18.23-.17.22-.18.22-.18.23-.18.22-.18.23-.18.22-.18.23-.18.22-.18.22-.18.23-.18.22-.19.23-.18.22-.19.22-.18.23-.19.22-.19.23-.18.22-.19.22-.19.23-.19.22-.19.23-.19.22-.19.22-.19.23-.19.22-.2.23-.19.22-.19.22-.2.23-.2.22-.19.23-.2.22-.2.22-.19.23-.2.22-.2.23-.2.22-.2.23-.2.22-.2.22-.21.23-.2.22-.2.23-.21.22-.2.22-.21.23-.2.22-.21.23-.21.22-.21.22-.21.23-.2.22-.21.23-.22.22-.21.22-.21.23-.21.22-.21.23-.22.22-.21.22-.22.23-.21.22-.22.23-.22.22-.21.23-.22.22-.22.22-.22.23-.22.22-.22.23-.22.22-.22.22-.22.23-.23.22-.22.23-.23.22-.22.22-.23.23-.22.22-.23.23-.23.22-.23.22-.22.23-.23.22-.23.23-.23.22-.24.22-.23.23-.23.22-.23.23-.24.22-.23.22-.24.23-.23.22-.24.23-.23.22-.24.23-.24.22-.24.22-.24.23-.24.22-.24.23-.24.22-.24.22-.25.23-.24.22-.24.23-.25.22-.24.22-.25.23-.24.22-.25.23-.25.22-.25.22-.25.23-.24.22-.26.23-.25.22-.25.22-.25.23-.25.22-.25.23-.26.22-.25.23-.26.22-.25.22-.26.23-.26.22-.26.23-.25.22-.26.22-.26.23-.26.22-.26.23-.26.22-.27.22-.26.23-.26.22-.27.23-.26.22-.27.22-.26.23-.27.22-.26.23-.27.22-.27.22-.27.23-.27.22-.27.23-.27.22-.27.22-.27.23-.28.22-.27.23-.27.22-.28.23-.27.22-.28.22-.28.23-.27.22-.28.23-.28.22-.28.22-.28.23-.28.22-.28.23-.28.22-.28.22-.28.23-.29.22-.28.23-.29.22-.28.22-.29.23-.28.22-.29.23-.29.22-.29.22-.29.23-.29.22-.29.23-.29.22-.29.22-.29.23-.29.22-.3.23-.29.22-.3.23-.29.22-.3.22-.29.23-.3.22-.3.23-.3.22-.3.22-.3.23-.3.22-.3.23-.3.22-.3.22-.3.23-.31.22-.3.23-.3.22-.31.22-.31.23-.3.22-.31.23-.31.22-.31.22-.31.23-.31.22-.31.23-.31.22-.31.23-.31.22-.31.22-.32.23-.31.22-.32.23-.31.22-.32.22-.31.23-.32.22-.32.23-.32.22-.32.22-.32.23-.32.22-.32.23-.32.22-.32.22-.32.23-.33.22-.32.23-.33.22-.32.22-.33.23-.32.22-.33.23-.33.22-.33.22-.33.23-.33.22-.33.23-.33.22-.33.23-.33.22-.34.22-.33.23-.33.22-.34.23-.33.22-.34.22-.34.23-.33.22-.34.23-.34.22-.34.22-.34.23-.34.22-.34.23-.34.22-.34.22-.35.23-.34.22-.35.23-.34.22-.35.22-.34.23-.35.22-.35.23-.34.22-.35.22-.35.23-.35.22-.35.23-.35.22-.36.23-.35.22-.35.22-.35.23-.36.22-.35.23-.36.22-.35.22-.36.23-.36.22-.36.23-.36.22-.36.22-.35.23-.37.22-.36.23-.36.22-.36.22-.36.23-.37.22-.36.23-.37.22-.36.22-.37.23-.37.22-.36.23-.37.22-.37.23-.37.22-.37.22-.37.23-.37.22-.37.23-.37.22-.38.22-.37.23-.38.22-.37.23-.38.22-.37.22-.38.23-.38.22-.38.23-.37.22-.38.22-.38.23-.38.22-.39.23-.38.22-.38.22-.38.23-.39.22-.38.23-.39.22-.38.22-.39.23-.38.22-.39.23-.39.22-.39.23-.39.22-.39.22-.39.23-.39.22-.39.23-.4.22-.39.22-.39.23-.4.22-.39.23-.4.22-.39.22-.4.23-.4.22-.4.23-.4.22-.39.22-.4.23-.41.22-.4.23-.4.22-.4.22-.4.23-.41.22-.4.23-.41.22-.4.23-.41.22-.41.22-.4.23-.41.22-.41.23-.41.22-.41.22-.41.23-.41.22-.42.23-.41.22-.41.22-.42.23-.41.22-.41.23-.42.22-.42.22-.41.23-.42.22-.42.23-.42.22-.42.22-.42.23-.42.22-.42.23-.42.22-.43.22-.42.23-.42.22-.43.23-.42.22-.43.23-.42.22-.43.22-.43.23-.43.22-.43.23-.43.22-.43.22-.43.23-.43.22-.43.23-.43.22-.44.22-.43.23-.44.22-.43.23-.44.22-.43.22-.44.23-.44.22-.44.23-.44.22-.43.22-.44.23-.45.22-.44.23-.44.22-.44.22-.45.23-.44.22-.44.23-.45.22-.45.23-.44.22-.45.22-.45.23-.45.22-.44.23-.45.22-.45.22-.46.23-.45.22-.45.23-.45.22-.45" style="stroke-width:2;stroke:#900;stroke-opacity:1"/></g></g><path stroke="none" d="M1 1h360v253.5H1z" class="real" style="fill:transparent;stroke:none" transform="translate(-189.7 9.2)"/></g><g class="arrow-line"><path d="m161.4 22.75 6.19-12.8" class="connection real" style="stroke:#900;stroke-opacity:1;stroke-width:1;fill:none;fill-opacity:1"/><path fill="#900" stroke="none" d="M10.72-5.15 0 0l10.72 5.15L7.12 0Z" style="stroke:none;fill:#900;stroke-width:1" transform="rotate(115.82 82.177 56.58)"/></g></g></svg><svg xmlns="http://www.w3.org/2000/svg" xmlns:xlink="http://www.w3.org/1999/xlink" width="561" height="194.2" style="width:561px;height:194.1999969482422px;font-family:Asana-Math,Asana;background:#fff"><path fill="#000" stroke="#000" stroke-width=".12" d="M169.085 176.9h1.275v4.14c0 1.845 1.395 2.025 1.935 2.025 1.065 0 1.485-1.065 1.485-2.025v-.855h-.375v.825c0 1.11-.45 1.68-1.005 1.68-1.005 0-1.005-1.365-1.005-1.62v-4.17h2.145v-.465h-2.145v-2.76h-.375c-.015 1.23-.465 2.835-1.935 2.895Zm-152.11-152c.39-.03.855-.045 1.245-.045.435 0 1.065.03 1.425.045v-.465c-.33-.045-.435-.24-.435-.465 0-.33.435-.825 1.35-1.905l1.14 1.5c.12.165.315.405.315.495 0 .135-.135.36-.54.375v.465c.45-.015 1.29-.045 1.62-.045.405 0 .99.015 1.44.045v-.465c-.81 0-1.08-.03-1.425-.465l-2.01-2.595c.45-.57 1.02-1.305 1.38-1.695.465-.54 1.08-.765 1.785-.78v-.465c-.39.03-.84.045-1.23.045-.45 0-1.245-.03-1.44-.045v.465c.315.03.435.225.435.465s-.15.435-.225.525l-.93 1.17-1.17-1.515c-.135-.15-.135-.18-.135-.27 0-.225.225-.36.525-.375v-.465c-.39.015-1.38.045-1.62.045-.315 0-1.02-.015-1.425-.045v.465c1.05 0 1.065.015 1.77.915l1.485 1.935-1.41 1.785a2.4 2.4 0 0 1-1.92.9Zm343.11 152.5h1.275v4.14c0 1.845 1.395 2.025 1.935 2.025 1.065 0 1.485-1.065 1.485-2.025v-.855h-.375v.825c0 1.11-.45 1.68-1.005 1.68-1.005 0-1.005-1.365-1.005-1.62v-4.17h2.145v-.465h-2.145v-2.76h-.375c-.015 1.23-.465 2.835-1.935 2.895ZM208.08 19.4c.945 0 1.005.09 1.2.555l2.16 5.325c.09.21.12.285.315.285s.255-.135.315-.285l1.965-4.875c.135-.345.39-.99 1.38-1.005v-.465c-.345.03-.78.045-1.125.045-.36 0-1.05-.03-1.305-.045v.465c.555.015.72.36.72.645 0 .135-.03.195-.09.36l-1.53 3.825-1.68-4.185c-.09-.195-.09-.225-.09-.255 0-.39.585-.39.855-.39v-.465c-.45.015-1.29.045-1.635.045-.405 0-1.005-.015-1.455-.045Zm342.005 158.2h1.275v4.14c0 1.845 1.395 2.025 1.935 2.025 1.065 0 1.485-1.065 1.485-2.025v-.855h-.375v.825c0 1.11-.45 1.68-1.005 1.68-1.005 0-1.005-1.365-1.005-1.62v-4.17h2.145v-.465h-2.145v-2.76h-.375c-.015 1.23-.465 2.835-1.935 2.895ZM398.425 24.162c0 1.215 1.455 1.59 2.4 1.59.99 0 1.68-.6 1.965-1.305.06.6.465 1.23 1.17 1.23.315 0 1.23-.21 1.23-1.425v-.84h-.375v.84c0 .87-.375.96-.54.96-.495 0-.555-.675-.555-.75v-3c0-.63 0-1.215-.54-1.77-.585-.585-1.335-.825-2.055-.825-1.23 0-2.265.705-2.265 1.695 0 .45.3.705.69.705.42 0 .69-.3.69-.69 0-.18-.075-.675-.765-.69.405-.525 1.14-.69 1.62-.69.735 0 1.59.585 1.59 1.92v.555c-.765.045-1.815.09-2.76.54-1.125.51-1.5 1.29-1.5 1.95Zm1.155-.015c0-.825.63-2.07 3.105-2.16v1.5c0 1.425-1.08 1.935-1.755 1.935-.735 0-1.35-.525-1.35-1.275Z"/></svg></svg>