<svg xmlns="http://www.w3.org/2000/svg" width="377.6" height="195.8" style="width:377.6px;height:195.8px;background:#fff;fill:none"><svg xmlns="http://www.w3.org/2000/svg"/><svg xmlns="http://www.w3.org/2000/svg" class="role-diagram-draw-area" style="overflow:visible"><g class="shapes-region" style="stroke:#000;fill:none"><g class="composite-shape"><path stroke="none" d="M200 151.55h156.4v15.25H200Z" class="real" style="stroke-width:1;stroke:none;stroke-opacity:1;fill:#900;fill-opacity:.5"/></g><g class="arrow-line"><path d="M10 166.3v-156m-4.5 124h9m-9-32h9m-9-32h9m-9-32h9" class="connection real" style="stroke:#000;stroke-width:1;fill:none;fill-opacity:1"/><path d="M10.93-3.29Q4.96-.45 0 0q4.96.45 10.93 3.29" style="stroke:#000;stroke-width:1" transform="rotate(90 .85 9.15)"/></g><g class="arrow-line"><path d="M10 166.3h155m-123-4.5v9m32-9v9m32-9v9m32-9v9" class="connection real" style="stroke:#000;stroke-width:1;fill:none;fill-opacity:1"/><path d="M10.93-3.29Q4.96-.45 0 0q4.96.45 10.93 3.29" style="stroke:#000;stroke-width:1" transform="matrix(-1 0 0 -1 167 166.3)"/></g><g class="arrow-line"><path d="M200 166.8v-156m-4.5 124h9m-9-32h9m-9-32h9m-9-32h9" class="connection real" style="stroke:#000;stroke-width:1;fill:none;fill-opacity:1"/><path d="M10.93-3.29Q4.96-.45 0 0q4.96.45 10.93 3.29" style="stroke:#000;stroke-width:1" transform="rotate(90 95.6 104.4)"/></g><g class="arrow-line"><path d="M200 166.8h155m-123-4.5v9m32-9v9m32-9v9m32-9v9" class="connection real" style="stroke:#000;stroke-width:1;fill:none;fill-opacity:1"/><path d="M10.93-3.29Q4.96-.45 0 0q4.96.45 10.93 3.29" style="stroke:#000;stroke-width:1" transform="matrix(-1 0 0 -1 357 166.8)"/></g><g class="arrow-line"><path d="m10 166.3 150.52-77.18" class="connection real" style="stroke:#900;stroke-opacity:1;stroke-width:2;fill:none;fill-opacity:1"/><path fill="#900" stroke="none" d="M13.4-6.43 0 0l13.4 6.44L8.9 0Z" style="stroke:none;fill:#900;stroke-width:2" transform="rotate(152.85 71.5 63.46)"/></g><g class="arrow-line"><path d="M200 151.8h153" class="connection real" style="stroke:#900;stroke-opacity:1;stroke-width:2;fill:none;fill-opacity:1"/><path fill="#900" stroke="none" d="M13.4-6.43 0 0l13.4 6.44L8.9 0Z" style="stroke:none;fill:#900;stroke-width:2" transform="matrix(-1 0 0 -1 357 151.8)"/></g><g class="arrow-line"><path stroke-dasharray="3" d="M59.28 87.3h104.8" class="connection real" style="stroke:#900;stroke-width:1;fill:none;fill-opacity:1;stroke-opacity:1"/></g><g class="arrow-line"><path stroke-dasharray="3" d="M23.28 87.3H10" class="connection real" style="stroke:#900;stroke-opacity:1;stroke-width:1;fill:none;fill-opacity:1"/></g></g></svg><svg xmlns="http://www.w3.org/2000/svg" xmlns:xlink="http://www.w3.org/1999/xlink" width="376" height="194.2" style="width:376px;height:194.2px;font-family:Asana-Math,Asana;background:#fff"><path fill="#000" stroke="#000" stroke-width=".12" d="M169.085 176.9h1.275v4.14c0 1.845 1.395 2.025 1.935 2.025 1.065 0 1.485-1.065 1.485-2.025v-.855h-.375v.825c0 1.11-.45 1.68-1.005 1.68-1.005 0-1.005-1.365-1.005-1.62v-4.17h2.145v-.465h-2.145v-2.76h-.375c-.015 1.23-.465 2.835-1.935 2.895Zm-152.11-152c.39-.03.855-.045 1.245-.045.435 0 1.065.03 1.425.045v-.465c-.33-.045-.435-.24-.435-.465 0-.33.435-.825 1.35-1.905l1.14 1.5c.12.165.315.405.315.495 0 .135-.135.36-.54.375v.465c.45-.015 1.29-.045 1.62-.045.405 0 .99.015 1.44.045v-.465c-.81 0-1.08-.03-1.425-.465l-2.01-2.595c.45-.57 1.02-1.305 1.38-1.695.465-.54 1.08-.765 1.785-.78v-.465c-.39.03-.84.045-1.23.045-.45 0-1.245-.03-1.44-.045v.465c.315.03.435.225.435.465s-.15.435-.225.525l-.93 1.17-1.17-1.515c-.135-.15-.135-.18-.135-.27 0-.225.225-.36.525-.375v-.465c-.39.015-1.38.045-1.62.045-.315 0-1.02-.015-1.425-.045v.465c1.05 0 1.065.015 1.77.915l1.485 1.935-1.41 1.785a2.4 2.4 0 0 1-1.92.9Zm343.11 152.5h1.275v4.14c0 1.845 1.395 2.025 1.935 2.025 1.065 0 1.485-1.065 1.485-2.025v-.855h-.375v.825c0 1.11-.45 1.68-1.005 1.68-1.005 0-1.005-1.365-1.005-1.62v-4.17h2.145v-.465h-2.145v-2.76h-.375c-.015 1.23-.465 2.835-1.935 2.895ZM208.08 19.4c.945 0 1.005.09 1.2.555l2.16 5.325c.09.21.12.285.315.285s.255-.135.315-.285l1.965-4.875c.135-.345.39-.99 1.38-1.005v-.465c-.345.03-.78.045-1.125.045-.36 0-1.05-.03-1.305-.045v.465c.555.015.72.36.72.645 0 .135-.03.195-.09.36l-1.53 3.825-1.68-4.185c-.09-.195-.09-.225-.09-.255 0-.39.585-.39.855-.39v-.465c-.45.015-1.29.045-1.635.045-.405 0-1.005-.015-1.455-.045Z"/><path fill="#900" stroke="#900" stroke-width=".12" d="M214.785 132.85c0 1.17.165 2.985.99 4.68.9 1.845 2.19 2.82 2.34 2.82.09 0 .15-.045.15-.15 0-.045 0-.075-.255-.33-1.875-1.89-2.355-4.725-2.355-7.02 0-2.61.57-5.22 2.415-7.095.195-.18.195-.21.195-.255 0-.105-.06-.15-.15-.15-.15 0-1.5 1.02-2.385 2.925-.765 1.65-.945 3.315-.945 4.575Zm5.085 1.335c0 1.29 1.035 2.745 2.715 2.745 1.74 0 3.27-1.44 3.27-3.345 0-1.785-1.23-3.285-2.85-3.285-.72 0-1.365.24-1.905.765v-2.925c.3.09.795.195 1.275.195 1.845 0 2.895-1.365 2.895-1.56 0-.09-.045-.165-.15-.165-.015 0-.045 0-.12.045-.3.135-1.035.435-2.04.435-.6 0-1.29-.105-1.995-.42-.12-.045-.15-.045-.18-.045-.15 0-.15.12-.15.36v4.44c0 .27 0 .39.21.39.105 0 .135-.045.195-.135.165-.24.72-1.05 1.935-1.05.78 0 1.155.69 1.275.96.24.555.27 1.14.27 1.89 0 .525 0 1.425-.36 2.055-.36.585-.915.975-1.605.975-1.095 0-1.95-.795-2.205-1.68.045.015.09.03.255.03a.72.72 0 0 0 .75-.735.72.72 0 0 0-.75-.735c-.21 0-.735.105-.735.795Zm7.245 2.22c0 .255 0 .36.165.36.075 0 .09-.015.375-.3.03-.03.03-.06.3-.345.66.63 1.335.645 1.65.645 1.725 0 2.415-1.005 2.415-2.085 0-.795-.45-1.245-.63-1.425-.495-.48-1.08-.6-1.71-.72-.84-.165-1.845-.36-1.845-1.23 0-.525.39-1.14 1.68-1.14 1.65 0 1.725 1.35 1.755 1.815.015.135.15.135.18.135.195 0 .195-.075.195-.36v-1.515c0-.255 0-.36-.165-.36-.075 0-.105 0-.3.18-.045.06-.195.195-.255.24-.57-.42-1.185-.42-1.41-.42-1.83 0-2.4 1.005-2.4 1.845 0 .525.24.945.645 1.275.48.39.9.48 1.98.69.33.06 1.56.3 1.56 1.38 0 .765-.525 1.365-1.695 1.365-1.26 0-1.8-.855-2.085-2.13-.045-.195-.06-.255-.21-.255-.195 0-.195.105-.195.375Zm6.27 3.795c0 .09.06.15.15.15.15 0 1.5-1.02 2.385-2.925.765-1.65.945-3.315.945-4.575 0-1.17-.165-2.985-.99-4.68-.9-1.845-2.19-2.82-2.34-2.82-.09 0-.15.06-.15.15 0 .045 0 .075.285.345 1.47 1.485 2.325 3.87 2.325 7.005 0 2.565-.555 5.205-2.415 7.095-.195.18-.195.21-.195.255Zm6.45-7.35c0 1.17.165 2.985.99 4.68.9 1.845 2.19 2.82 2.34 2.82.09 0 .15-.045.15-.15 0-.045 0-.075-.255-.33-1.875-1.89-2.355-4.725-2.355-7.02 0-2.61.57-5.22 2.415-7.095.195-.18.195-.21.195-.255 0-.105-.06-.15-.15-.15-.15 0-1.5 1.02-2.385 2.925-.765 1.65-.945 3.315-.945 4.575Zm4.92-1.05c0 1.125.06 2.475.675 3.615a2.75 2.75 0 0 0 2.475 1.515c.81 0 1.95-.315 2.61-1.74.48-1.035.555-2.205.555-3.39 0-1.2-.075-2.4-.6-3.51-.69-1.44-1.92-1.68-2.55-1.68-.9 0-1.995.39-2.61 1.785-.48 1.035-.555 2.205-.555 3.405Zm1.245-.18c0-.96 0-1.95.12-2.76.285-1.785 1.41-1.92 1.785-1.92.495 0 1.485.27 1.77 1.755.15.84.15 1.98.15 2.925 0 1.125 0 2.145-.165 3.105-.225 1.425-1.08 1.875-1.755 1.875-.585 0-1.47-.375-1.74-1.815-.165-.9-.165-2.28-.165-3.165Zm6.945 4.185a.8.8 0 0 0 .795.795c.39 0 .78-.33.78-.795s-.36-.78-.78-.78a.787.787 0 0 0-.795.78Zm3.645-1.62c0 1.29 1.035 2.745 2.715 2.745 1.74 0 3.27-1.44 3.27-3.345 0-1.785-1.23-3.285-2.85-3.285-.72 0-1.365.24-1.905.765v-2.925c.3.09.795.195 1.275.195 1.845 0 2.895-1.365 2.895-1.56 0-.09-.045-.165-.15-.165-.015 0-.045 0-.12.045-.3.135-1.035.435-2.04.435-.6 0-1.29-.105-1.995-.42-.12-.045-.15-.045-.18-.045-.15 0-.15.12-.15.36v4.44c0 .27 0 .39.21.39.105 0 .135-.045.195-.135.165-.24.72-1.05 1.935-1.05.78 0 1.155.69 1.275.96.24.555.27 1.14.27 1.89 0 .525 0 1.425-.36 2.055-.36.585-.915.975-1.605.975-1.095 0-1.95-.795-2.205-1.68.045.015.09.03.255.03a.72.72 0 0 0 .75-.735.72.72 0 0 0-.75-.735c-.21 0-.735.105-.735.795Zm7.23 2.415c.525-.015 1.29-.045 1.695-.045.39 0 1.17.03 1.68.045v-.465c-1.005 0-1.17 0-1.17-.675v-2.76c0-1.56 1.065-2.4 2.025-2.4.945 0 1.11.81 1.11 1.665v3.495c0 .675-.165.675-1.17.675v.465c.525-.015 1.29-.045 1.695-.045.39 0 1.17.03 1.68.045v-.465c-1.005 0-1.17 0-1.17-.675v-2.76c0-1.56 1.065-2.4 2.025-2.4.945 0 1.11.81 1.11 1.665v3.495c0 .675-.165.675-1.17.675v.465c.525-.015 1.29-.045 1.695-.045.39 0 1.17.03 1.68.045v-.465c-.78 0-1.155 0-1.17-.45v-2.865c0-1.29 0-1.755-.465-2.295-.21-.255-.705-.555-1.575-.555-1.26 0-1.92.9-2.175 1.47-.21-1.305-1.32-1.47-1.995-1.47-1.095 0-1.8.645-2.22 1.575v-1.575l-2.115.165v.465c1.05 0 1.17.105 1.17.84v4.02c0 .675-.165.675-1.17.675Zm12.87 3.54c0 .09.045.18.135.18.12 0 .165-.075.285-.405l5.31-14.16c.015-.06.045-.135.045-.195 0-.12-.09-.18-.15-.18-.165 0-.225.27-.27.375L276.75 139.9c-.06.165-.06.195-.06.24Zm7.14-3.735c0 .255 0 .36.165.36.075 0 .09-.015.375-.3.03-.03.03-.06.3-.345.66.63 1.335.645 1.65.645 1.725 0 2.415-1.005 2.415-2.085 0-.795-.45-1.245-.63-1.425-.495-.48-1.08-.6-1.71-.72-.84-.165-1.845-.36-1.845-1.23 0-.525.39-1.14 1.68-1.14 1.65 0 1.725 1.35 1.755 1.815.015.135.15.135.18.135.195 0 .195-.075.195-.36v-1.515c0-.255 0-.36-.165-.36-.075 0-.105 0-.3.18-.045.06-.195.195-.255.24-.57-.42-1.185-.42-1.41-.42-1.83 0-2.4 1.005-2.4 1.845 0 .525.24.945.645 1.275.48.39.9.48 1.98.69.33.06 1.56.3 1.56 1.38 0 .765-.525 1.365-1.695 1.365-1.26 0-1.8-.855-2.085-2.13-.045-.195-.06-.255-.21-.255-.195 0-.195.105-.195.375Zm6.27 3.795c0 .09.06.15.15.15.15 0 1.5-1.02 2.385-2.925.765-1.65.945-3.315.945-4.575 0-1.17-.165-2.985-.99-4.68-.9-1.845-2.19-2.82-2.34-2.82-.09 0-.15.06-.15.15 0 .045 0 .075.285.345 1.47 1.485 2.325 3.87 2.325 7.005 0 2.565-.555 5.205-2.415 7.095-.195.18-.195.21-.195.255Zm10.815-5.88c0 .15.225.165.405.165h9.12c.165 0 .405-.015.405-.18 0-.18-.24-.165-.435-.165h-9.195c-.15 0-.285 0-.3.18Zm0-2.925c0 .15.18.165.3.165h9.255c.165 0 .375 0 .375-.165 0-.195-.255-.18-.45-.18h-9.165c-.27 0-.315.105-.315.18Zm16.56 5.205h5.565l.42-2.61h-.375c-.075.45-.18 1.11-.33 1.335-.105.12-1.095.12-1.425.12h-2.7l1.59-1.545c2.34-2.07 3.24-2.88 3.24-4.38 0-1.71-1.35-2.91-3.18-2.91-1.695 0-2.805 1.38-2.805 2.715 0 .84.75.84.795.84.255 0 .78-.18.78-.795 0-.39-.27-.78-.795-.78-.12 0-.15 0-.195.015.345-.975 1.155-1.53 2.025-1.53 1.365 0 2.01 1.215 2.01 2.445 0 1.2-.75 2.385-1.575 3.315l-2.88 3.21c-.165.165-.165.195-.165.555Zm8.025-.795a.8.8 0 0 0 .795.795c.39 0 .78-.33.78-.795s-.36-.78-.78-.78a.787.787 0 0 0-.795.78Zm3.645-1.62c0 1.29 1.035 2.745 2.715 2.745 1.74 0 3.27-1.44 3.27-3.345 0-1.785-1.23-3.285-2.85-3.285-.72 0-1.365.24-1.905.765v-2.925c.3.09.795.195 1.275.195 1.845 0 2.895-1.365 2.895-1.56 0-.09-.045-.165-.15-.165-.015 0-.045 0-.12.045-.3.135-1.035.435-2.04.435-.6 0-1.29-.105-1.995-.42-.12-.045-.15-.045-.18-.045-.15 0-.15.12-.15.36v4.44c0 .27 0 .39.21.39.105 0 .135-.045.195-.135.165-.24.72-1.05 1.935-1.05.78 0 1.155.69 1.275.96.24.555.27 1.14.27 1.89 0 .525 0 1.425-.36 2.055-.36.585-.915.975-1.605.975-1.095 0-1.95-.795-2.205-1.68.045.015.09.03.255.03a.72.72 0 0 0 .75-.735.72.72 0 0 0-.75-.735c-.21 0-.735.105-.735.795Zm7.23 2.415c.525-.015 1.29-.045 1.695-.045.39 0 1.17.03 1.68.045v-.465c-1.005 0-1.17 0-1.17-.675v-2.76c0-1.56 1.065-2.4 2.025-2.4.945 0 1.11.81 1.11 1.665v3.495c0 .675-.165.675-1.17.675v.465c.525-.015 1.29-.045 1.695-.045.39 0 1.17.03 1.68.045v-.465c-1.005 0-1.17 0-1.17-.675v-2.76c0-1.56 1.065-2.4 2.025-2.4.945 0 1.11.81 1.11 1.665v3.495c0 .675-.165.675-1.17.675v.465c.525-.015 1.29-.045 1.695-.045.39 0 1.17.03 1.68.045v-.465c-.78 0-1.155 0-1.17-.45v-2.865c0-1.29 0-1.755-.465-2.295-.21-.255-.705-.555-1.575-.555-1.26 0-1.92.9-2.175 1.47-.21-1.305-1.32-1.47-1.995-1.47-1.095 0-1.8.645-2.22 1.575v-1.575l-2.115.165v.465c1.05 0 1.17.105 1.17.84v4.02c0 .675-.165.675-1.17.675ZM25.65 92.35h5.565l.42-2.61h-.375c-.075.45-.18 1.11-.33 1.335-.105.12-1.095.12-1.425.12h-2.7l1.59-1.545c2.34-2.07 3.24-2.88 3.24-4.38 0-1.71-1.35-2.91-3.18-2.91-1.695 0-2.805 1.38-2.805 2.715 0 .84.75.84.795.84.255 0 .78-.18.78-.795 0-.39-.27-.78-.795-.78-.12 0-.15 0-.195.015.345-.975 1.155-1.53 2.025-1.53 1.365 0 2.01 1.215 2.01 2.445 0 1.2-.75 2.385-1.575 3.315l-2.88 3.21c-.165.165-.165.195-.165.555Zm8.025-.795a.8.8 0 0 0 .795.795c.39 0 .78-.33.78-.795s-.36-.78-.78-.78a.787.787 0 0 0-.795.78Zm3.645-1.62c0 1.29 1.035 2.745 2.715 2.745 1.74 0 3.27-1.44 3.27-3.345 0-1.785-1.23-3.285-2.85-3.285-.72 0-1.365.24-1.905.765V83.89c.3.09.795.195 1.275.195 1.845 0 2.895-1.365 2.895-1.56 0-.09-.045-.165-.15-.165-.015 0-.045 0-.12.045-.3.135-1.035.435-2.04.435-.6 0-1.29-.105-1.995-.42-.12-.045-.15-.045-.18-.045-.15 0-.15.12-.15.36v4.44c0 .27 0 .39.21.39.105 0 .135-.045.195-.135.165-.24.72-1.05 1.935-1.05.78 0 1.155.69 1.275.96.24.555.27 1.14.27 1.89 0 .525 0 1.425-.36 2.055-.36.585-.915.975-1.605.975-1.095 0-1.95-.795-2.205-1.68.045.015.09.03.255.03a.72.72 0 0 0 .75-.735.72.72 0 0 0-.75-.735c-.21 0-.735.105-.735.795Zm7.23 2.415c.525-.015 1.29-.045 1.695-.045.39 0 1.17.03 1.68.045v-.465c-1.005 0-1.17 0-1.17-.675v-2.76c0-1.56 1.065-2.4 2.025-2.4.945 0 1.11.81 1.11 1.665v3.495c0 .675-.165.675-1.17.675v.465c.525-.015 1.29-.045 1.695-.045.39 0 1.17.03 1.68.045v-.465c-1.005 0-1.17 0-1.17-.675v-2.76c0-1.56 1.065-2.4 2.025-2.4.945 0 1.11.81 1.11 1.665v3.495c0 .675-.165.675-1.17.675v.465c.525-.015 1.29-.045 1.695-.045.39 0 1.17.03 1.68.045v-.465c-.78 0-1.155 0-1.17-.45V88.57c0-1.29 0-1.755-.465-2.295-.21-.255-.705-.555-1.575-.555-1.26 0-1.92.9-2.175 1.47-.21-1.305-1.32-1.47-1.995-1.47-1.095 0-1.8.645-2.22 1.575V85.72l-2.115.165v.465c1.05 0 1.17.105 1.17.84v4.02c0 .675-.165.675-1.17.675Z"/></svg></svg>