<svg xmlns="http://www.w3.org/2000/svg" width="377.6" height="195.8" style="width:377.6000061035156px;height:195.8000030517578px;background:#fff;fill:none"><svg xmlns="http://www.w3.org/2000/svg"/><svg xmlns="http://www.w3.org/2000/svg" class="role-diagram-draw-area" style="overflow:visible"><g class="shapes-region" style="stroke:#000;fill:none"><g class="grouped-shape"><g class="arrow-line"><path d="M10 166.3v-156" class="connection real" style="stroke:#000;stroke-width:1;fill:none;fill-opacity:1"/><path d="M10.93-3.29Q4.96-.45 0 0q4.96.45 10.93 3.29" style="stroke:#000;stroke-width:1" transform="rotate(90 .85 9.15)"/></g><g class="arrow-line"><path d="M10 166.3h155" class="connection real" style="stroke:#000;stroke-width:1;fill:none;fill-opacity:1"/><path d="M10.93-3.29Q4.96-.45 0 0q4.96.45 10.93 3.29" style="stroke:#000;stroke-width:1" transform="matrix(-1 0 0 -1 167 166.3)"/></g></g><g class="grouped-shape"><g class="arrow-line"><path d="M200 166.8v-156" class="connection real" style="stroke:#000;stroke-width:1;fill:none;fill-opacity:1"/><path d="M10.93-3.29Q4.96-.45 0 0q4.96.45 10.93 3.29" style="stroke:#000;stroke-width:1" transform="rotate(90 95.6 104.4)"/></g><g class="arrow-line"><path d="M200 166.8h155" class="connection real" style="stroke:#000;stroke-width:1;fill:none;fill-opacity:1"/><path d="M10.93-3.29Q4.96-.45 0 0q4.96.45 10.93 3.29" style="stroke:#000;stroke-width:1" transform="matrix(-1 0 0 -1 357 166.8)"/></g></g><g class="arrow-line"><path d="M9.5 134.15h153" class="connection real" style="stroke:#900;stroke-opacity:1;stroke-width:2;fill:none;fill-opacity:1"/><path fill="#900" stroke="none" d="M13.4-6.43 0 0l13.4 6.44L8.9 0Z" style="stroke:none;fill:#900;stroke-width:2" transform="matrix(-1 0 0 -1 166.5 134.15)"/></g><g class="arrow-line"><path d="M200 166.8h153" class="connection real" style="stroke:#900;stroke-opacity:1;stroke-width:2;fill:none;fill-opacity:1"/><path fill="#900" stroke="none" d="M13.4-6.43 0 0l13.4 6.44L8.9 0Z" style="stroke:none;fill:#900;stroke-width:2" transform="matrix(-1 0 0 -1 357 166.8)"/></g></g></svg><svg xmlns="http://www.w3.org/2000/svg" xmlns:xlink="http://www.w3.org/1999/xlink" width="376" height="194.2" style="width:376px;height:194.1999969482422px;font-family:Asana-Math,Asana;background:#fff"><path fill="#000" stroke="#000" stroke-width=".12" d="M169.085 176.9h1.275v4.14c0 1.845 1.395 2.025 1.935 2.025 1.065 0 1.485-1.065 1.485-2.025v-.855h-.375v.825c0 1.11-.45 1.68-1.005 1.68-1.005 0-1.005-1.365-1.005-1.62v-4.17h2.145v-.465h-2.145v-2.76h-.375c-.015 1.23-.465 2.835-1.935 2.895ZM17.08 18.9c.945 0 1.005.09 1.2.555l2.16 5.325c.09.21.12.285.315.285s.255-.135.315-.285l1.965-4.875c.135-.345.39-.99 1.38-1.005v-.465c-.345.03-.78.045-1.125.045-.36 0-1.05-.03-1.305-.045v.465c.555.015.72.36.72.645 0 .135-.03.195-.09.36l-1.53 3.825-1.68-4.185c-.09-.195-.09-.225-.09-.255 0-.39.585-.39.855-.39v-.465c-.45.015-1.29.045-1.635.045-.405 0-1.005-.015-1.455-.045Zm343.005 158.5h1.275v4.14c0 1.845 1.395 2.025 1.935 2.025 1.065 0 1.485-1.065 1.485-2.025v-.855h-.375v.825c0 1.11-.45 1.68-1.005 1.68-1.005 0-1.005-1.365-1.005-1.62v-4.17h2.145v-.465h-2.145v-2.76h-.375c-.015 1.23-.465 2.835-1.935 2.895ZM208.425 23.975c0 1.215 1.455 1.59 2.4 1.59.99 0 1.68-.6 1.965-1.305.06.6.465 1.23 1.17 1.23.315 0 1.23-.21 1.23-1.425v-.84h-.375v.84c0 .87-.375.96-.54.96-.495 0-.555-.675-.555-.75v-3c0-.63 0-1.215-.54-1.77-.585-.585-1.335-.825-2.055-.825-1.23 0-2.265.705-2.265 1.695 0 .45.3.705.69.705.42 0 .69-.3.69-.69 0-.18-.075-.675-.765-.69.405-.525 1.14-.69 1.62-.69.735 0 1.59.585 1.59 1.92v.555c-.765.045-1.815.09-2.76.54-1.125.51-1.5 1.29-1.5 1.95Zm1.155-.015c0-.825.63-2.07 3.105-2.16v1.5c0 1.425-1.08 1.935-1.755 1.935-.735 0-1.35-.525-1.35-1.275Z"/></svg></svg>