<svg xmlns="http://www.w3.org/2000/svg" xmlns:xlink="http://www.w3.org/1999/xlink" x="0" y="0" width="568.45458984375" height="195.64773559570312" style="
        width:568.45458984375px;
        height:195.64773559570312px;
        background: transparent;
        fill: none;
">
        <svg xmlns="http://www.w3.org/2000/svg"/>
        
        <svg xmlns="http://www.w3.org/2000/svg" class="role-diagram-draw-area"><g class="shapes-region" style="stroke: black; fill: none;"><g class="arrow-line"><path class="connection real" stroke-dasharray="" d="  M18,166.3 L18,10.3  M13.5,134.3 L22.5,134.3 M13.5,102.3 L22.5,102.3 M13.5,70.3 L22.5,70.3 M13.5,38.3 L22.5,38.3" style="stroke: rgb(0, 0, 0); stroke-width: 1; fill: none; fill-opacity: 1;"/><g stroke="#000" transform="matrix(3.061616997868383e-16,1,-1,3.061616997868383e-16,18,8.300003051757812)" style="stroke: rgb(0, 0, 0); stroke-width: 1;"><path d=" M10.93,-3.29 Q4.96,-0.45 0,0 Q4.96,0.45 10.93,3.29"/></g></g><g class="arrow-line"><path class="connection real" stroke-dasharray="" d="  M18,166.3 L173,166.3  M50,161.8 L50,170.8 M82,161.8 L82,170.8 M114,161.8 L114,170.8 M146,161.8 L146,170.8" style="stroke: rgb(0, 0, 0); stroke-width: 1; fill: none; fill-opacity: 1;"/><g stroke="#000" transform="matrix(-1,1.2246467991473532e-16,-1.2246467991473532e-16,-1,174.99999999999997,166.30000305175784)" style="stroke: rgb(0, 0, 0); stroke-width: 1;"><path d=" M10.93,-3.29 Q4.96,-0.45 0,0 Q4.96,0.45 10.93,3.29"/></g></g><g class="arrow-line"><path class="connection real" stroke-dasharray="" d="  M200.87,166.2 L200.87,10.2  M196.37,134.2 L205.37,134.2 M196.37,102.2 L205.37,102.2 M196.37,70.2 L205.37,70.2 M196.37,38.2 L205.37,38.2" style="stroke: rgb(0, 0, 0); stroke-width: 1; fill: none; fill-opacity: 1;"/><g stroke="#000" transform="matrix(3.061616997868383e-16,1,-1,3.061616997868383e-16,200.8666788736979,8.199996948242188)" style="stroke: rgb(0, 0, 0); stroke-width: 1;"><path d=" M10.93,-3.29 Q4.96,-0.45 0,0 Q4.96,0.45 10.93,3.29"/></g></g><g class="arrow-line"><path class="connection real" stroke-dasharray="" d="  M200.87,166.2 L355.87,166.2  M232.87,161.7 L232.87,170.7 M264.87,161.7 L264.87,170.7 M296.87,161.7 L296.87,170.7 M328.87,161.7 L328.87,170.7" style="stroke: rgb(0, 0, 0); stroke-width: 1; fill: none; fill-opacity: 1;"/><g stroke="#000" transform="matrix(-1,1.2246467991473532e-16,-1.2246467991473532e-16,-1,357.8666788736979,166.1999969482422)" style="stroke: rgb(0, 0, 0); stroke-width: 1;"><path d=" M10.93,-3.29 Q4.96,-0.45 0,0 Q4.96,0.45 10.93,3.29"/></g></g><g class="arrow-line"><path class="connection real" stroke-dasharray="" d="  M200.87,166.2 L354.37,12.7" style="stroke: rgb(153, 0, 0); stroke-opacity: 1; stroke-width: 2; fill: none; fill-opacity: 1;"/><g stroke="none" fill="rgb(153,0,0)" fill-opacity="1" transform="matrix(-0.7071067811865479,0.7071067811865471,-0.7071067811865471,-0.7071067811865479,357.19999694824224,9.866678873697907)" style="stroke: none; fill: rgb(153, 0, 0); stroke-width: 2;"><path d=" M13.4,-6.43 L0,0 L13.4,6.44 L8.9,0 Z"/></g></g><g class="composite-shape" data-amt="diagram/shapes/plot" transform="matrix(1,0,0,1,-183,8.949996948242188)"><g><g/><g><g class="test-plot-expression"><defs><clipPath id="cp9vf0ze3g4"><rect x="1" y="1" width="356.1999969482422" height="254.5500030517578"/></clipPath></defs><g clip-path="url(#cp9vf0ze3g4)"><path d=" M240.00,156.55 L240.17,156.14 L240.33,155.72 L240.50,155.31 L240.66,154.90 L240.83,154.48 L240.99,154.07 L241.16,153.66 L241.32,153.25 L241.49,152.83 L241.65,152.42 L241.82,152.01 L241.98,151.59 L242.15,151.18 L242.31,150.77 L242.48,150.35 L242.64,149.94 L242.81,149.53 L242.97,149.12 L243.14,148.70 L243.30,148.29 L243.47,147.88 L243.63,147.46 L243.80,147.05 L243.97,146.64 L244.13,146.22 L244.30,145.81 L244.46,145.40 L244.63,144.98 L244.79,144.57 L244.96,144.16 L245.12,143.75 L245.29,143.33 L245.45,142.92 L245.62,142.51 L245.78,142.09 L245.95,141.68 L246.11,141.27 L246.28,140.85 L246.44,140.44 L246.61,140.03 L246.77,139.61 L246.94,139.20 L247.10,138.79 L247.27,138.38 L247.44,137.96 L247.60,137.55 L247.77,137.14 L247.93,136.72 L248.10,136.31 L248.26,135.90 L248.43,135.48 L248.59,135.07 L248.76,134.66 L248.92,134.24 L249.09,133.83 L249.25,133.42 L249.42,133.01 L249.58,132.59 L249.75,132.18 L249.91,131.77 L250.08,131.35 L250.24,130.94 L250.41,130.53 L250.57,130.11 L250.74,129.70 L250.90,129.29 L251.07,128.88 L251.24,128.46 L251.40,128.05 L251.57,127.64 L251.73,127.22 L251.90,126.81 L252.06,126.40 L252.23,125.98 L252.39,125.57 L252.56,125.16 L252.72,124.74 L252.89,124.33 L253.05,123.92 L253.22,123.51 L253.38,123.09 L253.55,122.68 L253.71,122.27 L253.88,121.85 L254.04,121.44 L254.21,121.03 L254.37,120.61 L254.54,120.20 L254.70,119.79 L254.87,119.37 L255.04,118.96 L255.20,118.55 L255.37,118.14 L255.53,117.72 L255.70,117.31 L255.86,116.90 L256.03,116.48 L256.19,116.07 L256.36,115.66 L256.52,115.24 L256.69,114.83 L256.85,114.42 L257.02,114.01 L257.18,113.59 L257.35,113.18 L257.51,112.77 L257.68,112.35 L257.84,111.94 L258.01,111.53 L258.17,111.11 L258.34,110.70 L258.50,110.29 L258.67,109.87 L258.84,109.46 L259.00,109.05 L259.17,108.64 L259.33,108.22 L259.50,107.81 L259.66,107.40 L259.83,106.98 L259.99,106.57 L260.16,106.16 L260.32,105.74 L260.49,105.33 L260.65,104.92 L260.82,104.50 L260.98,104.09 L261.15,103.68 L261.31,103.27 L261.48,102.85 L261.64,102.44 L261.81,102.03 L261.97,101.61 L262.14,101.20 L262.31,100.79 L262.47,100.37 L262.64,99.96 L262.80,99.55 L262.97,99.14 L263.13,98.72 L263.30,98.31 L263.46,97.90 L263.63,97.48 L263.79,97.07 L263.96,96.66 L264.12,96.24 L264.29,95.83 L264.45,95.42 L264.62,95.00 L264.78,94.59 L264.95,94.18 L265.11,93.77 L265.28,93.35 L265.44,92.94 L265.61,92.53 L265.77,92.11 L265.94,91.70 L266.11,91.29 L266.27,90.87 L266.44,90.46 L266.60,90.05 L266.77,89.63 L266.93,89.22 L267.10,88.81 L267.26,88.40 L267.43,87.98 L267.59,87.57 L267.76,87.16 L267.92,86.74 L268.09,86.33 L268.25,85.92 L268.42,85.50 L268.58,85.09 L268.75,84.68 L268.91,84.27 L269.08,83.85 L269.24,83.44 L269.41,83.03 L269.57,82.61 L269.74,82.20 L269.91,81.79 L270.07,81.37 L270.24,80.96 L270.40,80.55 L270.57,80.13 L270.73,79.72 L270.90,79.31 L271.06,78.90 L271.23,78.48 L271.39,78.07 L271.56,77.66 L271.72,77.24 L271.89,76.83 L272.05,76.42 L272.22,76.00 L272.38,75.59 L272.55,75.18 L272.71,74.76 L272.88,74.35 L273.04,73.94 L273.21,73.53 L273.37,73.11 L273.54,72.70 L273.71,72.29 L273.87,71.87 L274.04,71.46 L274.20,71.05 L274.37,70.63 L274.53,70.22 L274.70,69.81 L274.86,69.40 L275.03,68.98 L275.19,68.57 L275.36,68.16 L275.52,67.74 L275.69,67.33 L275.85,66.92 L276.02,66.50 L276.18,66.09 L276.35,65.68 L276.51,65.26 L276.68,64.85 L276.84,64.44 L277.01,64.03 L277.18,63.61 L277.34,63.20 L277.51,62.79 L277.67,62.37 L277.84,61.96 L278.00,61.55 L278.17,61.13 L278.33,60.72 L278.50,60.31 L278.66,59.89 L278.83,59.48 L278.99,59.07 L279.16,58.66 L279.32,58.24 L279.49,57.83 L279.65,57.42 L279.82,57.00 L279.98,56.59 L280.15,56.18 L280.31,55.76 L280.48,55.35 L280.64,54.94 L280.81,54.53 L280.98,54.11 L281.14,53.70 L281.31,53.29 L281.47,52.87 L281.64,52.46 L281.80,52.05 L281.97,51.63 L282.13,51.22 L282.30,50.81 L282.46,50.39 L282.63,49.98 L282.79,49.57 L282.96,49.16 L283.12,48.74 L283.29,48.33 L283.45,47.92 L283.62,47.50 L283.78,47.09 L283.95,46.68 L284.11,46.26 L284.28,45.85 L284.44,45.44 L284.61,45.02 L284.78,44.61 L284.94,44.20 L285.11,43.79 L285.27,43.37 L285.44,42.96 L285.60,42.55 L285.77,42.13 L285.93,41.72 L286.10,41.31 L286.26,40.89 L286.43,40.48 L286.59,40.07 L286.76,39.66 L286.92,39.24 L287.09,38.83 L287.25,38.42 L287.42,38.00 L287.58,37.59 L287.75,37.18 L287.91,36.76 L288.08,36.35 L288.24,35.94 L288.41,35.52 L288.58,35.11 L288.74,34.70 L288.91,34.29 L289.07,33.87 L289.24,33.46 L289.40,33.05 L289.57,32.63 L289.73,32.22 L289.90,31.81 L290.06,31.39 L290.23,30.98 L290.39,30.57 L290.56,30.15 L290.72,29.74 L290.89,29.33 L291.05,28.92 L291.22,28.50 L291.38,28.09 L291.55,27.68 L291.71,27.26 L291.88,26.85 L292.05,26.44 L292.21,26.02 L292.38,25.61 L292.54,25.20 L292.71,24.79 L292.87,24.37 L293.04,23.96 L293.20,23.55 L293.37,23.13 L293.53,22.72 L293.70,22.31 L293.86,21.89 L294.03,21.48 L294.19,21.07 L294.36,20.65 L294.52,20.24 L294.69,19.83 L294.85,19.42 L295.02,19.00 L295.18,18.59 L295.35,18.18 L295.51,17.76 L295.68,17.35 L295.85,16.94 L296.01,16.52 L296.18,16.11 L296.34,15.70 L296.51,15.28 L296.67,14.87 L296.84,14.46 L297.00,14.05 L297.17,13.63 L297.33,13.22 L297.50,12.81 L297.66,12.39 L297.83,11.98 L297.99,11.57 L298.16,11.15 L298.32,10.74 L298.49,10.33 L298.65,9.92 L298.82,9.50 L298.98,9.09 L299.15,8.68 L299.31,8.26 L299.48,7.85 L299.65,7.44 L299.81,7.02 L299.98,6.61 L300.14,6.20 L300.31,5.78 L300.47,5.37 L300.64,4.96 L300.80,4.55 L300.97,4.13 L301.13,3.72 L301.30,3.31 L301.46,2.89 L301.63,2.48 L301.79,2.07 L301.96,1.65 L302.12,1.24 L302.29,0.83 L302.45,0.41 L302.62,0.00 L302.78,-0.41 L302.95,-0.82 L303.11,-1.24 L303.28,-1.65 L303.45,-2.06 L303.61,-2.48 L303.78,-2.89 L303.94,-3.30 L304.11,-3.72 L304.27,-4.13 L304.44,-4.54 L304.60,-4.95 L304.77,-5.37 L304.93,-5.78 L305.10,-6.19 L305.26,-6.61 L305.43,-7.02 L305.59,-7.43 L305.76,-7.85 L305.92,-8.26 L306.09,-8.67 L306.25,-9.09 L306.42,-9.50 L306.58,-9.91 L306.75,-10.32 L306.92,-10.74 L307.08,-11.15 L307.25,-11.56 L307.41,-11.98 L307.58,-12.39 L307.74,-12.80 L307.91,-13.22 L308.07,-13.63 L308.24,-14.04 L308.40,-14.46 L308.57,-14.87 L308.73,-15.28 L308.90,-15.69 L309.06,-16.11 L309.23,-16.52 L309.39,-16.93 L309.56,-17.35 L309.72,-17.76 L309.89,-18.17 L310.05,-18.59 L310.22,-19.00 L310.38,-19.41 L310.55,-19.82 L310.72,-20.24 L310.88,-20.65 L311.05,-21.06 L311.21,-21.48 L311.38,-21.89 L311.54,-22.30 L311.71,-22.72 L311.87,-23.13 L312.04,-23.54 L312.20,-23.96 L312.37,-24.37 L312.53,-24.78 L312.70,-25.19 L312.86,-25.61 L313.03,-26.02 L313.19,-26.43 L313.36,-26.85 L313.52,-27.26 L313.69,-27.67 L313.85,-28.09 L314.02,-28.50 L314.18,-28.91 L314.35,-29.33 L314.52,-29.74 L314.68,-30.15 L314.85,-30.56 L315.01,-30.98 L315.18,-31.39 L315.34,-31.80 L315.51,-32.22 L315.67,-32.63 L315.84,-33.04 L316.00,-33.46 L316.17,-33.87 L316.33,-34.28 L316.50,-34.69 L316.66,-35.11 L316.83,-35.52 L316.99,-35.93 L317.16,-36.35 L317.32,-36.76 L317.49,-37.17 L317.65,-37.59 L317.82,-38.00 L317.98,-38.41 L318.15,-38.83 L318.32,-39.24 L318.48,-39.65 L318.65,-40.06 L318.81,-40.48 L318.98,-40.89 L319.14,-41.30 L319.31,-41.72 L319.47,-42.13 L319.64,-42.54 L319.80,-42.96 L319.97,-43.37 L320.13,-43.78 L320.30,-44.20 L320.46,-44.61 L320.63,-45.02 L320.79,-45.43 L320.96,-45.85 L321.12,-46.26 L321.29,-46.67 L321.45,-47.09 L321.62,-47.50 L321.79,-47.91 L321.95,-48.33 L322.12,-48.74 L322.28,-49.15 L322.45,-49.56 L322.61,-49.98 L322.78,-50.39 L322.94,-50.80 L323.11,-51.22 L323.27,-51.63 L323.44,-52.04 L323.60,-52.46 L323.77,-52.87 L323.93,-53.28 L324.10,-53.70 L324.26,-54.11 L324.43,-54.52 L324.59,-54.93 L324.76,-55.35 L324.92,-55.76 L325.09,-56.17 L325.25,-56.59 L325.42,-57.00 L325.59,-57.41 L325.75,-57.83 L325.92,-58.24 L326.08,-58.65 L326.25,-59.07 L326.41,-59.48 L326.58,-59.89 L326.74,-60.30 L326.91,-60.72 L327.07,-61.13 L327.24,-61.54 L327.40,-61.96 L327.57,-62.37 L327.73,-62.78 L327.90,-63.20 L328.06,-63.61 L328.23,-64.02 L328.39,-64.43 L328.56,-64.85 L328.72,-65.26 L328.89,-65.67 L329.05,-66.09 L329.22,-66.50 L329.39,-66.91 L329.55,-67.33 L329.72,-67.74 L329.88,-68.15 L330.05,-68.57 L330.21,-68.98 L330.38,-69.39 L330.54,-69.80 L330.71,-70.22 L330.87,-70.63 L331.04,-71.04 L331.20,-71.46 L331.37,-71.87 L331.53,-72.28 L331.70,-72.70 L331.86,-73.11 L332.03,-73.52 L332.19,-73.94 L332.36,-74.35 L332.52,-74.76 L332.69,-75.17 L332.85,-75.59 L333.02,-76.00 L333.19,-76.41 L333.35,-76.83 L333.52,-77.24 L333.68,-77.65 L333.85,-78.07 L334.01,-78.48 L334.18,-78.89 L334.34,-79.30 L334.51,-79.72 L334.67,-80.13 L334.84,-80.54 L335.00,-80.96 L335.17,-81.37 L335.33,-81.78 L335.50,-82.20 L335.66,-82.61 L335.83,-83.02 L335.99,-83.44 L336.16,-83.85 L336.32,-84.26 L336.49,-84.67 L336.66,-85.09 L336.82,-85.50 L336.99,-85.91 L337.15,-86.33 L337.32,-86.74 L337.48,-87.15 L337.65,-87.57 L337.81,-87.98 L337.98,-88.39 L338.14,-88.81 L338.31,-89.22 L338.47,-89.63 L338.64,-90.04 L338.80,-90.46 L338.97,-90.87 L339.13,-91.28 L339.30,-91.70 L339.46,-92.11 L339.63,-92.52 L339.79,-92.94 L339.96,-93.35 L340.12,-93.76 L340.29,-94.17 L340.46,-94.59 L340.62,-95.00 L340.79,-95.41 L340.95,-95.83 L341.12,-96.24 L341.28,-96.65 L341.45,-97.07 L341.61,-97.48 L341.78,-97.89 L341.94,-98.31 L342.11,-98.72 L342.27,-99.13 L342.44,-99.54 L342.60,-99.96 L342.77,-100.37 L342.93,-100.78 L343.10,-101.20 L343.26,-101.61 L343.43,-102.02 L343.59,-102.44 L343.76,-102.85 L343.92,-103.26 L344.09,-103.68 L344.26,-104.09 L344.42,-104.50 L344.59,-104.91 L344.75,-105.33 L344.92,-105.74 L345.08,-106.15 L345.25,-106.57 L345.41,-106.98 L345.58,-107.39 L345.74,-107.81 L345.91,-108.22 L346.07,-108.63 L346.24,-109.04 L346.40,-109.46 L346.57,-109.87 L346.73,-110.28 L346.90,-110.70 L347.06,-111.11 L347.23,-111.52 L347.39,-111.94 L347.56,-112.35 L347.72,-112.76 L347.89,-113.18 L348.06,-113.59 L348.22,-114.00 L348.39,-114.41 L348.55,-114.83 L348.72,-115.24 L348.88,-115.65 L349.05,-116.07 L349.21,-116.48 L349.38,-116.89 L349.54,-117.31 L349.71,-117.72 L349.87,-118.13 L350.04,-118.55 L350.20,-118.96 L350.37,-119.37 L350.53,-119.78 L350.70,-120.20 L350.86,-120.61 L351.03,-121.02 L351.19,-121.44 L351.36,-121.85 L351.53,-122.26 L351.69,-122.68 L351.86,-123.09 L352.02,-123.50 L352.19,-123.91 L352.35,-124.33 L352.52,-124.74 L352.68,-125.15 L352.85,-125.57 L353.01,-125.98 L353.18,-126.39 L353.34,-126.81 L353.51,-127.22 L353.67,-127.63 L353.84,-128.05 L354.00,-128.46 L354.17,-128.87 L354.33,-129.28 L354.50,-129.70 L354.66,-130.11 L354.83,-130.52 L354.99,-130.94 L355.16,-131.35 L355.33,-131.76 L355.49,-132.18 L355.66,-132.59 L355.82,-133.00 L355.99,-133.42 L356.15,-133.83 L356.32,-134.24 L356.48,-134.65 L356.65,-135.07 L356.81,-135.48 L356.98,-135.89 L357.14,-136.31 L357.31,-136.72 L357.47,-137.13 L357.64,-137.55 L357.80,-137.96 L357.97,-138.37 L358.13,-138.78 L358.20,-138.95" style="stroke-width: 2; stroke: rgb(0, 0, 0); stroke-opacity: 1; stroke-dasharray: 3;"/><path d=" M200.00,156.55 L200.22,156.55 L200.44,156.55 L200.66,156.54 L200.88,156.54 L201.11,156.53 L201.33,156.52 L201.55,156.51 L201.77,156.50 L201.99,156.49 L202.21,156.47 L202.43,156.46 L202.65,156.44 L202.87,156.42 L203.10,156.40 L203.32,156.38 L203.54,156.35 L203.76,156.33 L203.98,156.30 L204.20,156.27 L204.42,156.24 L204.64,156.21 L204.86,156.18 L205.09,156.15 L205.31,156.11 L205.53,156.07 L205.75,156.03 L205.97,155.99 L206.19,155.95 L206.41,155.91 L206.63,155.86 L206.86,155.82 L207.08,155.77 L207.30,155.72 L207.52,155.67 L207.74,155.61 L207.96,155.56 L208.18,155.50 L208.40,155.45 L208.62,155.39 L208.85,155.33 L209.07,155.27 L209.29,155.20 L209.51,155.14 L209.73,155.07 L209.95,155.00 L210.17,154.93 L210.39,154.86 L210.61,154.79 L210.84,154.72 L211.06,154.64 L211.28,154.56 L211.50,154.48 L211.72,154.40 L211.94,154.32 L212.16,154.24 L212.38,154.15 L212.60,154.07 L212.83,153.98 L213.05,153.89 L213.27,153.80 L213.49,153.71 L213.71,153.61 L213.93,153.52 L214.15,153.42 L214.37,153.32 L214.59,153.22 L214.82,153.12 L215.04,153.02 L215.26,152.91 L215.48,152.81 L215.70,152.70 L215.92,152.59 L216.14,152.48 L216.36,152.37 L216.59,152.25 L216.81,152.14 L217.03,152.02 L217.25,151.90 L217.47,151.78 L217.69,151.66 L217.91,151.54 L218.13,151.41 L218.35,151.29 L218.58,151.16 L218.80,151.03 L219.02,150.90 L219.24,150.77 L219.46,150.63 L219.68,150.50 L219.90,150.36 L220.12,150.22 L220.34,150.08 L220.57,149.94 L220.79,149.80 L221.01,149.65 L221.23,149.51 L221.45,149.36 L221.67,149.21 L221.89,149.06 L222.11,148.91 L222.33,148.76 L222.56,148.60 L222.78,148.44 L223.00,148.29 L223.22,148.13 L223.44,147.96 L223.66,147.80 L223.88,147.64 L224.10,147.47 L224.32,147.30 L224.55,147.14 L224.77,146.97 L224.99,146.79 L225.21,146.62 L225.43,146.45 L225.65,146.27 L225.87,146.09 L226.09,145.91 L226.32,145.73 L226.54,145.55 L226.76,145.36 L226.98,145.18 L227.20,144.99 L227.42,144.80 L227.64,144.61 L227.86,144.42 L228.08,144.23 L228.31,144.03 L228.53,143.84 L228.75,143.64 L228.97,143.44 L229.19,143.24 L229.41,143.03 L229.63,142.83 L229.85,142.62 L230.07,142.42 L230.30,142.21 L230.52,142.00 L230.74,141.79 L230.96,141.57 L231.18,141.36 L231.40,141.14 L231.62,140.93 L231.84,140.71 L232.06,140.49 L232.29,140.26 L232.51,140.04 L232.73,139.81 L232.95,139.59 L233.17,139.36 L233.39,139.13 L233.61,138.90 L233.83,138.66 L234.05,138.43 L234.28,138.19 L234.50,137.96 L234.72,137.72 L234.94,137.48 L235.16,137.23 L235.38,136.99 L235.60,136.74 L235.82,136.50 L236.05,136.25 L236.27,136.00 L236.49,135.75 L236.71,135.50 L236.93,135.24 L237.15,134.98 L237.37,134.73 L237.59,134.47 L237.81,134.21 L238.04,133.95 L238.26,133.68 L238.48,133.42 L238.70,133.15 L238.92,132.88 L239.14,132.61 L239.36,132.34 L239.58,132.07 L239.80,131.79 L240.03,131.52 L240.25,131.24 L240.47,130.96 L240.69,130.68 L240.91,130.40 L241.13,130.12 L241.35,129.83 L241.57,129.54 L241.79,129.26 L242.02,128.97 L242.24,128.68 L242.46,128.38 L242.68,128.09 L242.90,127.79 L243.12,127.50 L243.34,127.20 L243.56,126.90 L243.78,126.60 L244.01,126.29 L244.23,125.99 L244.45,125.68 L244.67,125.37 L244.89,125.06 L245.11,124.75 L245.33,124.44 L245.55,124.13 L245.77,123.81 L246.00,123.49 L246.22,123.17 L246.44,122.85 L246.66,122.53 L246.88,122.21 L247.10,121.88 L247.32,121.56 L247.54,121.23 L247.77,120.90 L247.99,120.57 L248.21,120.24 L248.43,119.90 L248.65,119.57 L248.87,119.23 L249.09,118.89 L249.31,118.55 L249.53,118.21 L249.76,117.87 L249.98,117.52 L250.20,117.18 L250.42,116.83 L250.64,116.48 L250.86,116.13 L251.08,115.78 L251.30,115.42 L251.52,115.07 L251.75,114.71 L251.97,114.35 L252.19,113.99 L252.41,113.63 L252.63,113.27 L252.85,112.91 L253.07,112.54 L253.29,112.17 L253.51,111.80 L253.74,111.43 L253.96,111.06 L254.18,110.69 L254.40,110.31 L254.62,109.93 L254.84,109.56 L255.06,109.18 L255.28,108.80 L255.50,108.41 L255.73,108.03 L255.95,107.64 L256.17,107.26 L256.39,106.87 L256.61,106.48 L256.83,106.08 L257.05,105.69 L257.27,105.30 L257.50,104.90 L257.72,104.50 L257.94,104.10 L258.16,103.70 L258.38,103.30 L258.60,102.89 L258.82,102.49 L259.04,102.08 L259.26,101.67 L259.49,101.26 L259.71,100.85 L259.93,100.44 L260.15,100.02 L260.37,99.60 L260.59,99.19 L260.81,98.77 L261.03,98.35 L261.25,97.92 L261.48,97.50 L261.70,97.07 L261.92,96.65 L262.14,96.22 L262.36,95.79 L262.58,95.36 L262.80,94.92 L263.02,94.49 L263.24,94.05 L263.47,93.61 L263.69,93.17 L263.91,92.73 L264.13,92.29 L264.35,91.85 L264.57,91.40 L264.79,90.96 L265.01,90.51 L265.23,90.06 L265.46,89.60 L265.68,89.15 L265.90,88.70 L266.12,88.24 L266.34,87.78 L266.56,87.32 L266.78,86.86 L267.00,86.40 L267.23,85.94 L267.45,85.47 L267.67,85.01 L267.89,84.54 L268.11,84.07 L268.33,83.60 L268.55,83.12 L268.77,82.65 L268.99,82.17 L269.22,81.69 L269.44,81.22 L269.66,80.73 L269.88,80.25 L270.10,79.77 L270.32,79.28 L270.54,78.80 L270.76,78.31 L270.98,77.82 L271.21,77.33 L271.43,76.83 L271.65,76.34 L271.87,75.84 L272.09,75.35 L272.31,74.85 L272.53,74.35 L272.75,73.85 L272.97,73.34 L273.20,72.84 L273.42,72.33 L273.64,71.82 L273.86,71.31 L274.08,70.80 L274.30,70.29 L274.52,69.77 L274.74,69.26 L274.96,68.74 L275.19,68.22 L275.41,67.70 L275.63,67.18 L275.85,66.66 L276.07,66.13 L276.29,65.61 L276.51,65.08 L276.73,64.55 L276.95,64.02 L277.18,63.49 L277.40,62.95 L277.62,62.42 L277.84,61.88 L278.06,61.34 L278.28,60.80 L278.50,60.26 L278.72,59.71 L278.95,59.17 L279.17,58.62 L279.39,58.08 L279.61,57.53 L279.83,56.98 L280.05,56.42 L280.27,55.87 L280.49,55.31 L280.71,54.76 L280.94,54.20 L281.16,53.64 L281.38,53.08 L281.60,52.51 L281.82,51.95 L282.04,51.38 L282.26,50.81 L282.48,50.25 L282.70,49.67 L282.93,49.10 L283.15,48.53 L283.37,47.95 L283.59,47.38 L283.81,46.80 L284.03,46.22 L284.25,45.64 L284.47,45.05 L284.69,44.47 L284.92,43.88 L285.14,43.30 L285.36,42.71 L285.58,42.12 L285.80,41.52 L286.02,40.93 L286.24,40.33 L286.46,39.74 L286.68,39.14 L286.91,38.54 L287.13,37.94 L287.35,37.34 L287.57,36.73 L287.79,36.13 L288.01,35.52 L288.23,34.91 L288.45,34.30 L288.68,33.69 L288.90,33.07 L289.12,32.46 L289.34,31.84 L289.56,31.22 L289.78,30.60 L290.00,29.98 L290.22,29.36 L290.44,28.74 L290.67,28.11 L290.89,27.48 L291.11,26.85 L291.33,26.22 L291.55,25.59 L291.77,24.96 L291.99,24.32 L292.21,23.69 L292.43,23.05 L292.66,22.41 L292.88,21.77 L293.10,21.12 L293.32,20.48 L293.54,19.84 L293.76,19.19 L293.98,18.54 L294.20,17.89 L294.42,17.24 L294.65,16.58 L294.87,15.93 L295.09,15.27 L295.31,14.61 L295.53,13.96 L295.75,13.29 L295.97,12.63 L296.19,11.97 L296.41,11.30 L296.64,10.64 L296.86,9.97 L297.08,9.30 L297.30,8.63 L297.52,7.95 L297.74,7.28 L297.96,6.60 L298.18,5.92 L298.41,5.24 L298.63,4.56 L298.85,3.88 L299.07,3.20 L299.29,2.51 L299.51,1.83 L299.73,1.14 L299.95,0.45 L300.17,-0.24 L300.40,-0.94 L300.62,-1.63 L300.84,-2.33 L301.06,-3.03 L301.28,-3.73 L301.50,-4.43 L301.72,-5.13 L301.94,-5.83 L302.16,-6.54 L302.39,-7.24 L302.61,-7.95 L302.83,-8.66 L303.05,-9.37 L303.27,-10.09 L303.49,-10.80 L303.71,-11.52 L303.93,-12.23 L304.15,-12.95 L304.38,-13.67 L304.60,-14.40 L304.82,-15.12 L305.04,-15.84 L305.26,-16.57 L305.48,-17.30 L305.70,-18.03 L305.92,-18.76 L306.14,-19.49 L306.37,-20.23 L306.59,-20.96 L306.81,-21.70 L307.03,-22.44 L307.25,-23.18 L307.47,-23.92 L307.69,-24.66 L307.91,-25.41 L308.14,-26.16 L308.36,-26.90 L308.58,-27.65 L308.80,-28.40 L309.02,-29.16 L309.24,-29.91 L309.46,-30.67 L309.68,-31.42 L309.90,-32.18 L310.13,-32.94 L310.35,-33.71 L310.57,-34.47 L310.79,-35.23 L311.01,-36.00 L311.23,-36.77 L311.45,-37.54 L311.67,-38.31 L311.89,-39.08 L312.12,-39.85 L312.34,-40.63 L312.56,-41.41 L312.78,-42.19 L313.00,-42.97 L313.22,-43.75 L313.44,-44.53 L313.66,-45.32 L313.88,-46.10 L314.11,-46.89 L314.33,-47.68 L314.55,-48.47 L314.77,-49.26 L314.99,-50.06 L315.21,-50.85 L315.43,-51.65 L315.65,-52.45 L315.87,-53.25 L316.10,-54.05 L316.32,-54.85 L316.54,-55.66 L316.76,-56.46 L316.98,-57.27 L317.20,-58.08 L317.42,-58.89 L317.64,-59.70 L317.86,-60.51 L318.09,-61.33 L318.31,-62.15 L318.53,-62.97 L318.75,-63.79 L318.97,-64.61 L319.19,-65.43 L319.41,-66.25 L319.63,-67.08 L319.86,-67.91 L320.08,-68.74 L320.30,-69.57 L320.52,-70.40 L320.74,-71.23 L320.96,-72.07 L321.18,-72.90 L321.40,-73.74 L321.62,-74.58 L321.85,-75.42 L322.07,-76.27 L322.29,-77.11 L322.51,-77.96 L322.73,-78.80 L322.95,-79.65 L323.17,-80.50 L323.39,-81.35 L323.61,-82.21 L323.84,-83.06 L324.06,-83.92 L324.28,-84.78 L324.50,-85.64 L324.72,-86.50 L324.94,-87.36 L325.16,-88.23 L325.38,-89.09 L325.60,-89.96 L325.83,-90.83 L326.05,-91.70 L326.27,-92.57 L326.49,-93.44 L326.71,-94.32 L326.93,-95.19 L327.15,-96.07 L327.37,-96.95 L327.59,-97.83 L327.82,-98.71 L328.04,-99.60 L328.26,-100.48 L328.48,-101.37 L328.70,-102.26 L328.92,-103.15 L329.14,-104.04 L329.36,-104.94 L329.59,-105.83 L329.81,-106.73 L330.03,-107.62 L330.25,-108.52 L330.47,-109.42 L330.69,-110.33 L330.91,-111.23 L331.13,-112.14 L331.35,-113.04 L331.58,-113.95 L331.80,-114.86 L332.02,-115.77 L332.24,-116.69 L332.46,-117.60 L332.68,-118.52 L332.90,-119.43 L333.12,-120.35 L333.34,-121.27 L333.57,-122.20 L333.79,-123.12 L334.01,-124.05 L334.23,-124.97 L334.45,-125.90 L334.67,-126.83 L334.89,-127.76 L335.11,-128.69 L335.33,-129.63 L335.56,-130.57 L335.78,-131.50 L336.00,-132.44 L336.22,-133.38 L336.44,-134.32 L336.66,-135.27 L336.88,-136.21 L337.10,-137.16 L337.32,-138.11 L337.55,-139.06 L337.77,-140.01 L337.99,-140.96 L338.21,-141.92 L338.43,-142.87 L338.65,-143.83 L338.87,-144.79 L339.09,-145.75 L339.32,-146.71 L339.54,-147.67 L339.76,-148.64 L339.98,-149.61 L340.20,-150.57 L340.42,-151.54 L340.64,-152.51 L340.86,-153.49 L341.08,-154.46 L341.31,-155.44 L341.53,-156.41 L341.75,-157.39 L341.97,-158.37 L342.19,-159.36 L342.41,-160.34 L342.63,-161.32 L342.85,-162.31 L343.07,-163.30 L343.30,-164.29 L343.52,-165.28 L343.74,-166.27 L343.96,-167.27 L344.18,-168.26 L344.40,-169.26 L344.62,-170.26 L344.84,-171.26 L345.06,-172.26 L345.29,-173.26 L345.51,-174.27 L345.73,-175.27 L345.95,-176.28 L346.17,-177.29 L346.39,-178.30 L346.61,-179.31 L346.83,-180.33 L347.05,-181.34 L347.28,-182.36 L347.50,-183.38 L347.72,-184.40 L347.94,-185.42 L348.16,-186.44 L348.38,-187.47 L348.60,-188.49 L348.82,-189.52 L349.05,-190.55 L349.27,-191.58 L349.49,-192.61 L349.71,-193.65 L349.93,-194.68 L350.15,-195.72 L350.37,-196.76 L350.59,-197.80 L350.81,-198.84 L351.04,-199.88 L351.26,-200.93 L351.48,-201.97 L351.70,-203.02 L351.92,-204.07 L352.14,-205.12 L352.36,-206.17 L352.58,-207.23 L352.80,-208.28 L353.03,-209.34 L353.25,-210.40 L353.47,-211.46 L353.69,-212.52 L353.91,-213.58 L354.13,-214.64 L354.35,-215.71 L354.57,-216.78 L354.79,-217.85 L355.02,-218.92 L355.24,-219.99 L355.46,-221.06 L355.68,-222.14 L355.90,-223.21 L356.12,-224.29 L356.34,-225.37 L356.56,-226.45 L356.78,-227.54 L357.01,-228.62 L357.23,-229.71 L357.45,-230.79 L357.67,-231.88 L357.89,-232.97 L358.11,-234.06 L358.20,-234.50" style="stroke-width: 2; stroke: rgb(153, 0, 0); stroke-opacity: 1;"/></g></g><rect class="real" x="1" y="1" width="356.1999969482422" height="254.5500030517578" style="fill: transparent; stroke: none;"/></g></g></g><g class="arrow-line"><path class="connection real" stroke-dasharray="" d="  M112.2,24.95 L116.2,12.27" style="stroke: rgb(153, 0, 0); stroke-opacity: 1; stroke-width: 2; fill: none; fill-opacity: 1;"/><g stroke="none" fill="rgb(153,0,0)" fill-opacity="1" transform="matrix(-0.30053933991588,0.9537694192848328,-0.9537694192848328,-0.30053933991588,117.39999389648438,8.449996948242188)" style="stroke: none; fill: rgb(153, 0, 0); stroke-width: 2;"><path d=" M13.4,-6.43 L0,0 L13.4,6.44 L8.9,0 Z"/></g></g><g class="arrow-line"><path class="connection real" stroke-dasharray="" d="  M279.37,88.03 L279.37,166.2" style="stroke: rgb(0, 0, 0); stroke-width: 2; fill: none; fill-opacity: 1;"/></g><g class="arrow-line"><path class="connection real" stroke-dasharray="" d="  M96.5,66.95 L96.5,166.3" style="stroke: rgb(0, 0, 0); stroke-width: 2; fill: none; fill-opacity: 1;"/></g><g class="arrow-line"><path class="connection real" stroke-dasharray="" d="  M385,166.2 L385,10.2  M380.5,134.2 L389.5,134.2 M380.5,102.2 L389.5,102.2 M380.5,70.2 L389.5,70.2 M380.5,38.2 L389.5,38.2" style="stroke: rgb(0, 0, 0); stroke-width: 1; fill: none; fill-opacity: 1;"/><g stroke="#000" transform="matrix(3.061616997868383e-16,1,-1,3.061616997868383e-16,385,8.199996948242188)" style="stroke: rgb(0, 0, 0); stroke-width: 1;"><path d=" M10.93,-3.29 Q4.96,-0.45 0,0 Q4.96,0.45 10.93,3.29"/></g></g><g class="arrow-line"><path class="connection real" stroke-dasharray="" d="  M385,166.2 L540,166.2  M417,161.7 L417,170.7 M449,161.7 L449,170.7 M481,161.7 L481,170.7 M513,161.7 L513,170.7" style="stroke: rgb(0, 0, 0); stroke-width: 1; fill: none; fill-opacity: 1;"/><g stroke="#000" transform="matrix(-1,1.2246467991473532e-16,-1.2246467991473532e-16,-1,542,166.1999969482422)" style="stroke: rgb(0, 0, 0); stroke-width: 1;"><path d=" M10.93,-3.29 Q4.96,-0.45 0,0 Q4.96,0.45 10.93,3.29"/></g></g><g class="arrow-line"><path class="connection real" stroke-dasharray="" d="  M385,134.2 L537.3,134.2" style="stroke: rgb(153, 0, 0); stroke-opacity: 1; stroke-width: 2; fill: none; fill-opacity: 1;"/><g stroke="none" fill="rgb(153,0,0)" fill-opacity="1" transform="matrix(-1,1.2246467991473532e-16,-1.2246467991473532e-16,-1,541.3000030517578,134.1999969482422)" style="stroke: none; fill: rgb(153, 0, 0); stroke-width: 2;"><path d=" M13.4,-6.43 L0,0 L13.4,6.44 L8.9,0 Z"/></g></g><g class="arrow-line"><path class="connection real" stroke-dasharray="" d="  M463.5,134.2 L463.5,166.2" style="stroke: rgb(0, 0, 0); stroke-width: 2; fill: none; fill-opacity: 1;"/></g><g/></g><g/><g/><g/></svg>
        <svg xmlns="http://www.w3.org/2000/svg" xmlns:xlink="http://www.w3.org/1999/xlink" width="567" height="194.1931915283203" style="width:567px;height:194.1931915283203px;font-family:Asana-Math, Asana;background:transparent;"><g><g><g><g transform="matrix(1,0,0,1,176.727294921875,182.75001525878906)"><path transform="matrix(0.015,0,0,-0.015,0,0)" d="M19 400L104 400L104 124C104 1 197 -11 233 -11C304 -11 332 60 332 124L332 181L307 181L307 126C307 52 277 14 240 14C173 14 173 105 173 122L173 400L316 400L316 431L173 431L173 615L148 615C147 533 117 426 19 422Z" stroke="rgb(0,0,0)" stroke-opacity="1" stroke-width="8" fill="rgb(0,0,0)" fill-opacity="1"></path></g></g></g></g><g><g><g><g transform="matrix(1,0,0,1,19.727294921875,24.750015258789062)"><path transform="matrix(0.015,0,0,-0.015,0,0)" d="M352 400C415 400 419 394 432 363L576 8C582 -6 584 -11 597 -11C610 -11 614 -2 618 8L749 333C758 356 775 399 841 400L841 431C818 429 789 428 766 428C742 428 696 430 679 431L679 400C716 399 727 376 727 357C727 348 725 344 721 333L619 78L507 357C501 370 501 372 501 374C501 400 540 400 558 400L558 431C528 430 472 428 449 428C422 428 382 429 352 431Z" stroke="rgb(0,0,0)" stroke-opacity="1" stroke-width="8" fill="rgb(0,0,0)" fill-opacity="1"></path></g></g></g></g><g><g><g><g transform="matrix(1,0,0,1,359.5909423828125,182.64772033691406)"><path transform="matrix(0.015,0,0,-0.015,0,0)" d="M19 400L104 400L104 124C104 1 197 -11 233 -11C304 -11 332 60 332 124L332 181L307 181L307 126C307 52 277 14 240 14C173 14 173 105 173 122L173 400L316 400L316 431L173 431L173 615L148 615C147 533 117 426 19 422Z" stroke="rgb(0,0,0)" stroke-opacity="1" stroke-width="8" fill="rgb(0,0,0)" fill-opacity="1"></path></g></g></g></g><g><g><g><g transform="matrix(1,0,0,1,202.5909423828125,24.647720336914062)"><path transform="matrix(0.015,0,0,-0.015,0,0)" d="M375 95C375 14 472 -11 535 -11C601 -11 647 29 666 76C670 36 697 -6 744 -6C765 -6 826 8 826 89L826 145L801 145L801 89C801 31 776 25 765 25C732 25 728 70 728 75L728 275C728 317 728 356 692 393C653 432 603 448 555 448C473 448 404 401 404 335C404 305 424 288 450 288C478 288 496 308 496 334C496 346 491 379 445 380C472 415 521 426 553 426C602 426 659 387 659 298L659 261C608 258 538 255 475 225C400 191 375 139 375 95ZM452 96C452 151 494 234 659 240L659 140C659 45 587 11 542 11C493 11 452 46 452 96Z" stroke="rgb(0,0,0)" stroke-opacity="1" stroke-width="8" fill="rgb(0,0,0)" fill-opacity="1"></path></g></g></g></g><g><g><g><g transform="matrix(1,0,0,1,103.727294921875,116.62501525878906)"><path transform="matrix(0.017,0,0,-0.017,0,0)" d="M166 420C187 420 203 421 229 424C118 304 76 221 76 121C76 44 122 -11 186 -11C324 -11 477 236 477 384C477 441 451 482 415 482C402 482 390 478 382 470L332 423L343 404C352 410 361 413 370 413C397 413 413 390 413 350C413 202 316 39 228 39C179 39 148 81 148 146C148 251 187 342 285 464L275 482C255 473 242 470 214 470C186 470 144 472 115 475L103 476C97 477 92 477 91 477C79 477 70 475 59 470C45 443 34 407 21 352L43 352L60 394C67 411 87 422 111 422C144 422 128 420 166 420Z" stroke="rgb(0,0,0)" stroke-opacity="1" stroke-width="8" fill="rgb(0,0,0)" fill-opacity="1"></path></g></g><g><g transform="matrix(1,0,0,1,117.30682373046875,116.62501525878906)"><path transform="matrix(0.017,0,0,-0.017,0,0)" d="M604 347L604 406L65 406L65 347ZM604 134L604 193L65 193L65 134Z" stroke="rgb(0,0,0)" stroke-opacity="1" stroke-width="8" fill="rgb(0,0,0)" fill-opacity="1"></path></g></g><g><g><g><g><g transform="matrix(1,0,0,1,135.45458984375,104.22727966308594)"><path transform="matrix(0.017,0,0,-0.017,0,0)" d="M418 -3L418 27L366 30C311 33 301 44 301 96L301 700L60 598L67 548L217 614L217 96C217 44 206 33 152 30L96 27L96 -3C250 0 250 0 261 0C292 0 402 -3 418 -3Z" stroke="rgb(0,0,0)" stroke-opacity="1" stroke-width="8" fill="rgb(0,0,0)" fill-opacity="1"></path></g></g></g></g><g><g><g><g transform="matrix(1,0,0,1,135.45458984375,130.02272033691406)"><path transform="matrix(0.017,0,0,-0.017,0,0)" d="M16 23L16 -3C203 -3 203 0 239 0C275 0 275 -3 468 -3L468 82C353 77 307 81 122 77L304 270C401 373 431 428 431 503C431 618 353 689 226 689C154 689 105 669 56 619L39 483L68 483L81 529C97 587 133 612 200 612C286 612 341 558 341 473C341 398 299 324 186 204Z" stroke="rgb(0,0,0)" stroke-opacity="1" stroke-width="8" fill="rgb(0,0,0)" fill-opacity="1"></path></g></g></g></g><line style="fill:none;stroke-width:0.727273px;stroke:rgb(0, 0, 0);" x1="135.45458984375" y1="112.1022880077362" x2="143.94322681427002" y2="112.1022880077362"></line></g><g><g transform="matrix(1,0,0,1,145.6363525390625,116.62501525878906)"><path transform="matrix(0.017,0,0,-0.017,0,0)" d="M125 390L69 107C68 99 56 61 56 31C56 6 67 -9 86 -9C121 -9 156 11 234 74L265 99L255 117L210 86C181 66 161 56 150 56C141 56 136 64 136 76C136 102 150 183 179 328L192 390L299 390L310 440C272 436 238 434 200 434C216 528 227 577 245 631L234 646C214 634 187 622 156 610L131 440C87 419 61 408 43 403L41 390Z" stroke="rgb(0,0,0)" stroke-opacity="1" stroke-width="8" fill="rgb(0,0,0)" fill-opacity="1"></path></g></g><g><g><g><g><g transform="matrix(1,0,0,1,152.25,109.9341033935547)"><path transform="matrix(0.0119,0,0,-0.0119,0,0)" d="M16 23L16 -3C203 -3 203 0 239 0C275 0 275 -3 468 -3L468 82C353 77 307 81 122 77L304 270C401 373 431 428 431 503C431 618 353 689 226 689C154 689 105 669 56 619L39 483L68 483L81 529C97 587 133 612 200 612C286 612 341 558 341 473C341 398 299 324 186 204Z" stroke="rgb(0,0,0)" stroke-opacity="1" stroke-width="8" fill="rgb(0,0,0)" fill-opacity="1"></path></g></g></g></g></g></g></g><g><g><g><g transform="matrix(1,0,0,1,292.227294921875,129.72727966308594)"><path transform="matrix(0.017,0,0,-0.017,0,0)" d="M271 204L242 77C238 60 236 42 236 26C236 4 245 -9 260 -9C283 -9 324 17 406 85L399 106C375 86 346 59 324 59C315 59 309 68 309 82C309 87 309 90 310 93L402 472L392 481L359 463C318 478 301 482 274 482C246 482 226 477 199 464C137 433 104 403 79 354C35 265 4 145 4 67C4 23 19 -11 38 -11C75 -11 155 41 271 204ZM319 414C297 305 278 253 244 201C187 117 126 59 94 59C82 59 76 72 76 99C76 163 104 280 139 360C163 415 186 433 234 433C257 433 275 429 319 414Z" stroke="rgb(0,0,0)" stroke-opacity="1" stroke-width="8" fill="rgb(0,0,0)" fill-opacity="1"></path></g></g><g><g transform="matrix(1,0,0,1,304.852294921875,129.72727966308594)"><path transform="matrix(0.017,0,0,-0.017,0,0)" d="M604 347L604 406L65 406L65 347ZM604 134L604 193L65 193L65 134Z" stroke="rgb(0,0,0)" stroke-opacity="1" stroke-width="8" fill="rgb(0,0,0)" fill-opacity="1"></path></g></g><g><g transform="matrix(1,0,0,1,321.30682373046875,129.72727966308594)"><path transform="matrix(0.017,0,0,-0.017,0,0)" d="M418 -3L418 27L366 30C311 33 301 44 301 96L301 700L60 598L67 548L217 614L217 96C217 44 206 33 152 30L96 27L96 -3C250 0 250 0 261 0C292 0 402 -3 418 -3ZM624 390L568 107C567 99 555 61 555 31C555 6 566 -9 585 -9C620 -9 655 11 733 74L764 99L754 117L709 86C680 66 660 56 649 56C640 56 635 64 635 76C635 102 649 183 678 328L691 390L798 390L809 440C771 436 737 434 699 434C715 528 726 577 744 631L733 646C713 634 686 622 655 610L630 440C586 419 560 408 542 403L540 390Z" stroke="rgb(0,0,0)" stroke-opacity="1" stroke-width="8" fill="rgb(0,0,0)" fill-opacity="1"></path></g></g></g></g><g><g><g><g transform="matrix(1,0,0,1,543.7273559570312,182.64772033691406)"><path transform="matrix(0.015,0,0,-0.015,0,0)" d="M19 400L104 400L104 124C104 1 197 -11 233 -11C304 -11 332 60 332 124L332 181L307 181L307 126C307 52 277 14 240 14C173 14 173 105 173 122L173 400L316 400L316 431L173 431L173 615L148 615C147 533 117 426 19 422Z" stroke="rgb(0,0,0)" stroke-opacity="1" stroke-width="8" fill="rgb(0,0,0)" fill-opacity="1"></path></g></g></g></g><g><g><g><g transform="matrix(1,0,0,1,386.727294921875,24.647720336914062)"><path transform="matrix(0.015,0,0,-0.015,0,0)" d="M437 616C437 587 461 563 490 563C519 563 543 587 543 616C543 645 519 669 490 669C461 669 437 645 437 616ZM293 -125C293 -177 349 -205 406 -205C481 -205 543 -141 543 -50L543 442L391 431L391 400C468 400 477 393 477 344L477 -52C477 -97 468 -183 404 -183C399 -183 376 -183 350 -170C365 -166 385 -152 385 -125C385 -99 367 -79 339 -79C311 -79 293 -99 293 -125Z" stroke="rgb(0,0,0)" stroke-opacity="1" stroke-width="8" fill="rgb(0,0,0)" fill-opacity="1"></path></g></g></g></g><g><g><g><g transform="matrix(1,0,0,1,468.852294921875,156.22727966308594)"><path transform="matrix(0.017,0,0,-0.017,0,0)" d="M194 351L94 -144C83 -196 65 -231 47 -231C33 -231 15 -225 -6 -212L-14 -269C-4 -274 9 -276 24 -276C64 -276 104 -233 140 -152C160 -107 174 -57 202 70L278 420C282 438 284 451 284 457C284 473 275 482 259 482C237 482 200 461 125 408L97 388L104 368L136 389C173 412 176 414 183 414C193 414 201 404 201 391C201 382 194 356 194 351ZM285 712C256 712 227 679 227 645C227 620 242 604 266 604C297 604 321 633 321 671C321 695 306 712 285 712Z" stroke="rgb(0,0,0)" stroke-opacity="1" stroke-width="8" fill="rgb(0,0,0)" fill-opacity="1"></path></g></g><g><g transform="matrix(1,0,0,1,479.51141357421875,156.22727966308594)"><path transform="matrix(0.017,0,0,-0.017,0,0)" d="M604 347L604 406L65 406L65 347ZM604 134L604 193L65 193L65 134Z" stroke="rgb(0,0,0)" stroke-opacity="1" stroke-width="8" fill="rgb(0,0,0)" fill-opacity="1"></path></g></g><g><g transform="matrix(1,0,0,1,495.9659423828125,156.22727966308594)"><path transform="matrix(0.017,0,0,-0.017,0,0)" d="M418 -3L418 27L366 30C311 33 301 44 301 96L301 700L60 598L67 548L217 614L217 96C217 44 206 33 152 30L96 27L96 -3C250 0 250 0 261 0C292 0 402 -3 418 -3Z" stroke="rgb(0,0,0)" stroke-opacity="1" stroke-width="8" fill="rgb(0,0,0)" fill-opacity="1"></path></g></g></g></g></svg>
</svg>
