<svg xmlns="http://www.w3.org/2000/svg" xmlns:xlink="http://www.w3.org/1999/xlink" x="0" y="0" width="275.6000061035156" height="206.40000915527344" style="
        width:275.6000061035156px;
        height:206.40000915527344px;
        background: transparent;
        fill: none;
">
        <svg xmlns="http://www.w3.org/2000/svg"/>
        
        <svg xmlns="http://www.w3.org/2000/svg" class="role-diagram-draw-area" style="overflow: visible;"><g class="shapes-region" style="stroke: black; fill: none;"><g class="grouped-shape"><g class="composite-shape"><path class="real" d=" M144.67,121.97 L233.67,121.97 L233.67,177.67 L144.67,177.67 Z" style="stroke-width: 1; stroke: rgb(153, 0, 0); stroke-opacity: 1; fill: rgb(153, 0, 0); fill-opacity: 0.5;"/></g><g class="composite-shape"><path class="real" d=" M144.67,137.67 L118.67,137.67 L104.67,151.67 L104.67,177.67 L144.67,177.67 Z" style="stroke-width: 1; stroke: rgb(153, 0, 0); stroke-opacity: 1; fill: rgb(153, 0, 0); fill-opacity: 0.5;"/></g><g class="composite-shape"><path class="real" d=" M109.1,186.62 C109.1,181.86 112.96,178 117.72,178 C122.48,178 126.33,181.86 126.33,186.62 C126.33,191.38 122.48,195.23 117.72,195.23 C112.96,195.23 109.1,191.38 109.1,186.62 Z" style="stroke-width: 1; stroke: rgb(153, 0, 0); stroke-opacity: 1; fill: rgb(153, 0, 0); fill-opacity: 0.5;"/></g><g class="composite-shape"><path class="real" d=" M212.77,186.85 C212.77,182.09 216.62,178.23 221.38,178.23 C226.14,178.23 230,182.09 230,186.85 C230,191.61 226.14,195.47 221.38,195.47 C216.62,195.47 212.77,191.61 212.77,186.85 Z" style="stroke-width: 1; stroke: rgb(153, 0, 0); stroke-opacity: 1; fill: rgb(153, 0, 0); fill-opacity: 0.5;"/></g></g><g class="composite-shape"><defs><!-- react-text: 57099 --> <!-- /react-text --><pattern id="_pgfqmd6h08vudg-full-view" x="0" y="0" width="11.313708498984761" height="11.313708498984761" patternTransform="rotate(45,0,0)" patternUnits="userSpaceOnUse"><path d="M0,0 L0,11.313708498984761" style="stroke: rgb(0, 0, 0); stroke-opacity: 1; stroke-width: 1; fill: none;"/><path d="M5.656854249492381,0 L5.656854249492381,11.313708498984761" style="stroke: rgb(0, 0, 0); stroke-opacity: 1; stroke-width: 1; fill: none;"/><path d="M11.313708498984761,0 L11.313708498984761,11.313708498984761" style="stroke: rgb(0, 0, 0); stroke-opacity: 1; stroke-width: 1; fill: none;"/></pattern></defs><path class="real" d=" M154.97,12.45 L298.4,12.45 L298.4,16.7 L154.97,16.7 Z" style="stroke-width: 1; stroke: rgb(0, 0, 0); fill: url(&quot;#_pgfqmd6h08vudg-full-view&quot;); fill-opacity: 1;"/></g><g class="composite-shape"><path class="real" d=" M138.57,10.33 C138.57,6.98 141.28,4.27 144.63,4.27 C147.98,4.27 150.7,6.98 150.7,10.33 C150.7,13.68 147.98,16.4 144.63,16.4 C141.28,16.4 138.57,13.68 138.57,10.33 Z" style="stroke-width: 1; stroke: rgb(0, 0, 0); stroke-opacity: 1; fill: rgb(0, 0, 0); fill-opacity: 0.5;"/></g><g class="composite-shape"><defs><!-- react-text: 57823 --> <!-- /react-text --><pattern id="_pgf8dtbxojfddg-full-view" x="0" y="0" width="11.313708498984761" height="11.313708498984761" patternTransform="rotate(45,0,0)" patternUnits="userSpaceOnUse"><path d="M0,0 L0,11.313708498984761" style="stroke: rgb(0, 0, 0); stroke-opacity: 1; stroke-width: 1; fill: none;"/><path d="M5.656854249492381,0 L5.656854249492381,11.313708498984761" style="stroke: rgb(0, 0, 0); stroke-opacity: 1; stroke-width: 1; fill: none;"/><path d="M11.313708498984761,0 L11.313708498984761,11.313708498984761" style="stroke: rgb(0, 0, 0); stroke-opacity: 1; stroke-width: 1; fill: none;"/></pattern></defs><path class="real" d=" M-9.2,195.23 L298.3,195.23 L298.3,207.45 L-9.2,207.45 Z" style="stroke-width: 1; stroke: rgb(0, 0, 0); fill: url(&quot;#_pgf8dtbxojfddg-full-view&quot;); fill-opacity: 1;"/></g><g class="arrow-line"><path class="connection real" stroke-dasharray="" d="  M233.63,18.4 L233.67,119.97" style="stroke: rgb(153, 0, 0); stroke-opacity: 1; stroke-width: 1; fill: none; fill-opacity: 1;"/><g stroke="rgb(153,0,0)" stroke-opacity="1" transform="matrix(-0.0003490658433093705,-0.9999999390765166,0.9999999390765166,-0.0003490658433093705,233.66666666666666,121.96666971842447)" style="stroke: rgb(153, 0, 0); stroke-width: 1;"><path d=" M10.93,-3.29 Q4.96,-0.45 0,0 Q4.96,0.45 10.93,3.29"/></g><g stroke="rgb(153,0,0)" stroke-opacity="1" transform="matrix(0.00034906584330991416,0.9999999390765166,-0.9999999390765166,0.00034906584330991416,233.63333129882812,16.40000025431314)" style="stroke: rgb(153, 0, 0); stroke-width: 1;"><path d=" M10.93,-3.29 Q4.96,-0.45 0,0 Q4.96,0.45 10.93,3.29"/></g></g><g class="arrow-line"><path class="connection real" stroke-dasharray="" d="  M144.63,16.4 L144.63,58.45" style="stroke: rgb(0, 0, 0); stroke-opacity: 1; stroke-width: 1; fill: rgb(0, 0, 0); fill-opacity: 0.5;"/><g stroke="none" fill="rgb(0,0,0)" fill-opacity="1" transform="matrix(-1.8369701987210297e-16,-1,1,-1.8369701987210297e-16,144.63333129882812,61.450000047683716)" style="stroke: none; fill: rgb(0, 0, 0); stroke-width: 1;"><path d=" M10.72,-5.15 L0,0 L10.72,5.15 L7.12,0 Z"/></g></g><g class="arrow-line"><path class="connection real" stroke-dasharray="" d="  M88.3,151.67 L44.8,151.67" style="stroke: rgb(153, 0, 0); stroke-opacity: 1; stroke-width: 1; fill: rgb(153, 0, 0); fill-opacity: 1;"/><g stroke="none" fill="rgb(153,0,0)" fill-opacity="1" transform="matrix(1,-2.4492935982947064e-16,2.4492935982947064e-16,1,41.79998779296875,151.66666666666666)" style="stroke: none; fill: rgb(153, 0, 0); stroke-width: 1;"><path d=" M10.72,-5.15 L0,0 L10.72,5.15 L7.12,0 Z"/></g></g><g class="arrow-line"><path class="connection real" stroke-dasharray="3" d="  M144.63,61.45 L144.67,121.97" style="stroke: rgb(0, 0, 0); stroke-opacity: 1; stroke-width: 1; fill: rgb(0, 0, 0); fill-opacity: 0.5;"/></g><g class="arrow-line"><path class="connection real" stroke-dasharray="" d="  M146.67,121.97 L231.67,121.97" style="stroke: rgb(0, 0, 0); stroke-opacity: 1; stroke-width: 1; fill: none; fill-opacity: 1;"/><g stroke="rgb(0,0,0)" stroke-opacity="1" transform="matrix(-1,1.2246467991473532e-16,-1.2246467991473532e-16,-1,233.66666666666669,121.96666971842447)" style="stroke: rgb(0, 0, 0); stroke-width: 1;"><path d=" M10.93,-3.29 Q4.96,-0.45 0,0 Q4.96,0.45 10.93,3.29"/></g><g stroke="rgb(0,0,0)" stroke-opacity="1" transform="matrix(1,0,0,1,144.66666666666666,121.96666971842447)" style="stroke: rgb(0, 0, 0); stroke-width: 1;"><path d=" M10.93,-3.29 Q4.96,-0.45 0,0 Q4.96,0.45 10.93,3.29"/></g></g><g/></g><g/><g/><g/></svg>
        <svg xmlns="http://www.w3.org/2000/svg" xmlns:xlink="http://www.w3.org/1999/xlink" width="274" height="204.8000030517578" style="width:274px;height:204.8000030517578px;font-family:Asana-Math, Asana;background:transparent;"><g><g><g><g transform="matrix(1,0,0,1,41.79998779296875,141.39999389648438)"><path transform="matrix(0.015,0,0,-0.015,0,0)" d="M50 161C50 75 119 -22 231 -22C347 -22 449 74 449 201C449 320 367 420 259 420C211 420 168 404 132 369L132 564C152 558 185 551 217 551C340 551 410 642 410 655C410 661 407 666 400 666C399 666 397 666 392 663C372 654 323 634 256 634C216 634 170 641 123 662C115 665 113 665 111 665C101 665 101 657 101 641L101 345C101 327 101 319 115 319C122 319 124 322 128 328C139 344 176 398 257 398C309 398 334 352 342 334C358 297 360 258 360 208C360 173 360 113 336 71C312 32 275 6 229 6C156 6 99 59 82 118C85 117 88 116 99 116C132 116 149 141 149 165C149 189 132 214 99 214C85 214 50 207 50 161ZM550 161C550 75 619 -22 731 -22C847 -22 949 74 949 201C949 320 867 420 759 420C711 420 668 404 632 369L632 564C652 558 685 551 717 551C840 551 910 642 910 655C910 661 907 666 900 666C899 666 897 666 892 663C872 654 823 634 756 634C716 634 670 641 623 662C615 665 613 665 611 665C601 665 601 657 601 641L601 345C601 327 601 319 615 319C622 319 624 322 628 328C639 344 676 398 757 398C809 398 834 352 842 334C858 297 860 258 860 208C860 173 860 113 836 71C812 32 775 6 729 6C656 6 599 59 582 118C585 117 588 116 599 116C632 116 649 141 649 165C649 189 632 214 599 214C585 214 550 207 550 161ZM1028 0C1061 1 1108 3 1137 3C1167 3 1207 2 1247 0L1247 31C1180 31 1169 31 1169 76L1169 179L1233 234C1310 128 1352 72 1352 54C1352 35 1335 31 1316 31L1316 0C1344 1 1403 3 1424 3C1453 3 1482 2 1511 0L1511 31C1474 31 1452 31 1414 84L1287 263C1286 265 1281 271 1281 274C1281 278 1352 338 1362 346C1425 397 1467 399 1488 400L1488 431C1459 428 1446 428 1418 428C1382 428 1320 430 1306 431L1306 400C1325 399 1335 388 1335 375C1335 355 1321 343 1313 336L1172 214L1172 694L1028 683L1028 652C1098 652 1106 645 1106 596L1106 76C1106 31 1095 31 1028 31ZM1559 0C1594 1 1645 3 1672 3C1698 3 1750 1 1784 0L1784 31C1717 31 1706 31 1706 76L1706 260C1706 364 1777 420 1841 420C1904 420 1915 366 1915 309L1915 76C1915 31 1904 31 1837 31L1837 0C1872 1 1923 3 1950 3C1976 3 2028 1 2062 0L2062 31C1995 31 1984 31 1984 76L1984 260C1984 364 2055 420 2119 420C2182 420 2193 366 2193 309L2193 76C2193 31 2182 31 2115 31L2115 0C2150 1 2201 3 2228 3C2254 3 2306 1 2340 0L2340 31C2288 31 2263 31 2262 61L2262 252C2262 338 2262 369 2231 405C2217 422 2184 442 2126 442C2042 442 1998 382 1981 344C1967 431 1893 442 1848 442C1775 442 1728 399 1700 337L1700 442L1559 431L1559 400C1629 400 1637 393 1637 344L1637 76C1637 31 1626 31 1559 31ZM2417 -236C2417 -242 2420 -248 2426 -248C2434 -248 2437 -243 2445 -221L2799 723C2800 727 2802 732 2802 736C2802 744 2796 748 2792 748C2781 748 2777 730 2774 723L2421 -220C2417 -231 2417 -233 2417 -236ZM2892 0C2927 1 2978 3 3005 3C3031 3 3083 1 3117 0L3117 31C3050 31 3039 31 3039 76L3039 260C3039 364 3110 420 3174 420C3237 420 3248 366 3248 309L3248 76C3248 31 3237 31 3170 31L3170 0C3205 1 3256 3 3283 3C3309 3 3361 1 3395 0L3395 31C3343 31 3318 31 3317 61L3317 252C3317 338 3317 369 3286 405C3272 422 3239 442 3181 442C3097 442 3053 382 3037 346L3036 346L3036 694L2892 683L2892 652C2962 652 2970 645 2970 596L2970 76C2970 31 2959 31 2892 31Z" stroke="rgb(153,0,0)" stroke-opacity="1" stroke-width="8" fill="rgb(153,0,0)" fill-opacity="1"></path></g></g></g></g><g><g><g><g transform="matrix(1,0,0,1,222.29998779296875,76.89999389648438)"><path transform="matrix(0.015,0,0,-0.015,0,0)" d="M32 0C67 1 118 3 145 3C171 3 223 1 257 0L257 31C190 31 179 31 179 76L179 260C179 364 250 420 314 420C377 420 388 366 388 309L388 76C388 31 377 31 310 31L310 0C345 1 396 3 423 3C449 3 501 1 535 0L535 31C483 31 458 31 457 61L457 252C457 338 457 369 426 405C412 422 379 442 321 442C237 442 193 382 177 346L176 346L176 694L32 683L32 652C102 652 110 645 110 596L110 76C110 31 99 31 32 31Z" stroke="rgb(153,0,0)" stroke-opacity="1" stroke-width="8" fill="rgb(153,0,0)" fill-opacity="1"></path></g></g></g></g><g><g><g><g transform="matrix(1,0,0,1,176.29998779296875,118.39999389648438)"><path transform="matrix(0.015,0,0,-0.015,0,0)" d="M89 571C109 571 168 571 220 597L220 79C220 43 217 31 127 31L95 31L95 0C130 3 217 3 257 3C297 3 384 3 419 0L419 31L387 31C297 31 294 42 294 79L294 640C294 664 294 666 271 666C209 602 121 602 89 602ZM550 0L921 0L949 174L924 174C919 144 912 100 902 85C895 77 829 77 807 77L627 77L733 180C889 318 949 372 949 472C949 586 859 666 737 666C624 666 550 574 550 485C550 429 600 429 603 429C620 429 655 441 655 482C655 508 637 534 602 534C594 534 592 534 589 533C612 598 666 635 724 635C815 635 858 554 858 472C858 392 808 313 753 251L561 37C550 26 550 24 550 0ZM1032 0C1067 1 1118 3 1145 3C1171 3 1223 1 1257 0L1257 31C1190 31 1179 31 1179 76L1179 260C1179 364 1250 420 1314 420C1377 420 1388 366 1388 309L1388 76C1388 31 1377 31 1310 31L1310 0C1345 1 1396 3 1423 3C1449 3 1501 1 1535 0L1535 31C1468 31 1457 31 1457 76L1457 260C1457 364 1528 420 1592 420C1655 420 1666 366 1666 309L1666 76C1666 31 1655 31 1588 31L1588 0C1623 1 1674 3 1701 3C1727 3 1779 1 1813 0L1813 31C1761 31 1736 31 1735 61L1735 252C1735 338 1735 369 1704 405C1690 422 1657 442 1599 442C1515 442 1471 382 1454 344C1440 431 1366 442 1321 442C1248 442 1201 399 1173 337L1173 442L1032 431L1032 400C1102 400 1110 393 1110 344L1110 76C1110 31 1099 31 1032 31Z" stroke="rgb(0,0,0)" stroke-opacity="1" stroke-width="8" fill="rgb(0,0,0)" fill-opacity="1"></path></g></g></g></g></svg>
</svg>
