<svg xmlns="http://www.w3.org/2000/svg" width="275.6" height="206.4" style="width:275.6000061035156px;height:206.40000915527344px;background:0 0;fill:none"><svg xmlns="http://www.w3.org/2000/svg"/><svg xmlns="http://www.w3.org/2000/svg" class="role-diagram-draw-area" style="overflow:visible"><g class="shapes-region" style="stroke:#000;fill:none"><g class="grouped-shape"><g class="composite-shape"><path d="M144.67 121.97h89v55.7h-89Z" class="real" style="stroke-width:1;stroke:#900;stroke-opacity:1;fill:#900;fill-opacity:.5"/></g><g class="composite-shape"><path d="M144.67 137.67h-26l-14 14v26h40Z" class="real" style="stroke-width:1;stroke:#900;stroke-opacity:1;fill:#900;fill-opacity:.5"/></g><g class="composite-shape"><path d="M109.1 186.62a8.62 8.62 0 0 1 8.62-8.62c4.76 0 8.61 3.86 8.61 8.62s-3.85 8.61-8.61 8.61-8.62-3.85-8.62-8.61Z" class="real" style="stroke-width:1;stroke:#900;stroke-opacity:1;fill:#900;fill-opacity:.5"/></g><g class="composite-shape"><path d="M212.77 186.85c0-4.76 3.85-8.62 8.61-8.62a8.62 8.62 0 0 1 0 17.24c-4.76 0-8.61-3.86-8.61-8.62Z" class="real" style="stroke-width:1;stroke:#900;stroke-opacity:1;fill:#900;fill-opacity:.5"/></g></g><g class="composite-shape"><defs><pattern id="_pgfqmd6h08vudg-full-view" width="11.314" height="11.314" x="0" y="0" patternTransform="rotate(45 0 0)" patternUnits="userSpaceOnUse"><path d="M0 0v11.314M5.657 0v11.314M11.314 0v11.314" style="stroke:#000;stroke-opacity:1;stroke-width:1;fill:none"/></pattern></defs><path d="M154.97 12.45H298.4v4.25H154.97Z" class="real" style="stroke-width:1;stroke:#000;fill:url(#_pgfqmd6h08vudg-full-view);fill-opacity:1"/></g><g class="composite-shape"><path d="M138.57 10.33c0-3.35 2.71-6.06 6.06-6.06s6.07 2.71 6.07 6.06-2.72 6.07-6.07 6.07-6.06-2.72-6.06-6.07Z" class="real" style="stroke-width:1;stroke:#000;stroke-opacity:1;fill:#000;fill-opacity:.5"/></g><g class="composite-shape"><defs><pattern id="_pgf8dtbxojfddg-full-view" width="11.314" height="11.314" x="0" y="0" patternTransform="rotate(45 0 0)" patternUnits="userSpaceOnUse"><path d="M0 0v11.314M5.657 0v11.314M11.314 0v11.314" style="stroke:#000;stroke-opacity:1;stroke-width:1;fill:none"/></pattern></defs><path d="M-9.2 195.23h307.5v12.22H-9.2Z" class="real" style="stroke-width:1;stroke:#000;fill:url(#_pgf8dtbxojfddg-full-view);fill-opacity:1"/></g><g class="arrow-line"><path d="m233.63 18.4.04 101.57" class="connection real" style="stroke:#900;stroke-opacity:1;stroke-width:1;fill:none;fill-opacity:1"/><path stroke="#900" d="M10.93-3.29Q4.96-.45 0 0q4.96.45 10.93 3.29" style="stroke:#900;stroke-width:1" transform="rotate(-90.02 177.795 -55.81)"/><path stroke="#900" d="M10.93-3.29Q4.96-.45 0 0q4.96.45 10.93 3.29" style="stroke:#900;stroke-width:1" transform="rotate(89.98 108.614 125.057)"/></g><g class="arrow-line"><path d="M144.63 16.4v42.05" class="connection real" style="stroke:#000;stroke-opacity:1;stroke-width:1;fill:#000;fill-opacity:.5"/><path fill="#000" stroke="none" d="M10.72-5.15 0 0l10.72 5.15L7.12 0Z" style="stroke:none;fill:#000;stroke-width:1" transform="rotate(-90 103.042 -41.592)"/></g><g class="arrow-line"><path d="M88.3 151.67H44.8" class="connection real" style="stroke:#900;stroke-opacity:1;stroke-width:1;fill:#900;fill-opacity:1"/><path fill="#900" stroke="none" d="M10.72-5.15 0 0l10.72 5.15L7.12 0Z" style="stroke:none;fill:#900;stroke-width:1" transform="translate(41.8 151.667)"/></g><g class="arrow-line"><path stroke-dasharray="3" d="m144.63 61.45.04 60.52" class="connection real" style="stroke:#000;stroke-opacity:1;stroke-width:1;fill:#000;fill-opacity:.5"/></g><g class="arrow-line"><path d="M146.67 121.97h85" class="connection real" style="stroke:#000;stroke-opacity:1;stroke-width:1;fill:none;fill-opacity:1"/><path d="M10.93-3.29Q4.96-.45 0 0q4.96.45 10.93 3.29" style="stroke:#000;stroke-width:1" transform="matrix(-1 0 0 -1 233.667 121.967)"/><path d="M10.93-3.29Q4.96-.45 0 0q4.96.45 10.93 3.29" style="stroke:#000;stroke-width:1" transform="translate(144.667 121.967)"/></g></g></svg><svg xmlns="http://www.w3.org/2000/svg" xmlns:xlink="http://www.w3.org/1999/xlink" width="274" height="204.8" style="width:274px;height:204.8000030517578px;font-family:Asana-Math,Asana;background:0 0"><path fill="#900" stroke="#900" stroke-width=".12" d="M42.55 138.985c0 1.29 1.035 2.745 2.715 2.745 1.74 0 3.27-1.44 3.27-3.345 0-1.785-1.23-3.285-2.85-3.285-.72 0-1.365.24-1.905.765v-2.925c.3.09.795.195 1.275.195 1.845 0 2.895-1.365 2.895-1.56 0-.09-.045-.165-.15-.165-.015 0-.045 0-.12.045-.3.135-1.035.435-2.04.435-.6 0-1.29-.105-1.995-.42-.12-.045-.15-.045-.18-.045-.15 0-.15.12-.15.36v4.44c0 .27 0 .39.21.39.105 0 .135-.045.195-.135.165-.24.72-1.05 1.935-1.05.78 0 1.155.69 1.275.96.24.555.27 1.14.27 1.89 0 .525 0 1.425-.36 2.055-.36.585-.915.975-1.605.975-1.095 0-1.95-.795-2.205-1.68.045.015.09.03.255.03a.72.72 0 0 0 .75-.735.72.72 0 0 0-.75-.735c-.21 0-.735.105-.735.795Zm7.5 0c0 1.29 1.035 2.745 2.715 2.745 1.74 0 3.27-1.44 3.27-3.345 0-1.785-1.23-3.285-2.85-3.285-.72 0-1.365.24-1.905.765v-2.925c.3.09.795.195 1.275.195 1.845 0 2.895-1.365 2.895-1.56 0-.09-.045-.165-.15-.165-.015 0-.045 0-.12.045-.3.135-1.035.435-2.04.435-.6 0-1.29-.105-1.995-.42-.12-.045-.15-.045-.18-.045-.15 0-.15.12-.15.36v4.44c0 .27 0 .39.21.39.105 0 .135-.045.195-.135.165-.24.72-1.05 1.935-1.05.78 0 1.155.69 1.275.96.24.555.27 1.14.27 1.89 0 .525 0 1.425-.36 2.055-.36.585-.915.975-1.605.975-1.095 0-1.95-.795-2.205-1.68.045.015.09.03.255.03a.72.72 0 0 0 .75-.735.72.72 0 0 0-.75-.735c-.21 0-.735.105-.735.795Zm7.17 2.415c.495-.015 1.2-.045 1.635-.045.45 0 1.05.015 1.65.045v-.465c-1.005 0-1.17 0-1.17-.675v-1.545l.96-.825c1.155 1.59 1.785 2.43 1.785 2.7 0 .285-.255.345-.54.345v.465c.42-.015 1.305-.045 1.62-.045q.652 0 1.305.045v-.465c-.555 0-.885 0-1.455-.795l-1.905-2.685c-.015-.03-.09-.12-.09-.165 0-.06 1.065-.96 1.215-1.08.945-.765 1.575-.795 1.89-.81v-.465c-.435.045-.63.045-1.05.045-.54 0-1.47-.03-1.68-.045v.465c.285.015.435.18.435.375 0 .3-.21.48-.33.585l-2.115 1.83v-7.2l-2.16.165v.465c1.05 0 1.17.105 1.17.84v7.8c0 .675-.165.675-1.17.675Zm7.965 0c.525-.015 1.29-.045 1.695-.045.39 0 1.17.03 1.68.045v-.465c-1.005 0-1.17 0-1.17-.675v-2.76c0-1.56 1.065-2.4 2.025-2.4.945 0 1.11.81 1.11 1.665v3.495c0 .675-.165.675-1.17.675v.465c.525-.015 1.29-.045 1.695-.045.39 0 1.17.03 1.68.045v-.465c-1.005 0-1.17 0-1.17-.675v-2.76c0-1.56 1.065-2.4 2.025-2.4.945 0 1.11.81 1.11 1.665v3.495c0 .675-.165.675-1.17.675v.465c.525-.015 1.29-.045 1.695-.045.39 0 1.17.03 1.68.045v-.465c-.78 0-1.155 0-1.17-.45v-2.865c0-1.29 0-1.755-.465-2.295-.21-.255-.705-.555-1.575-.555-1.26 0-1.92.9-2.175 1.47-.21-1.305-1.32-1.47-1.995-1.47-1.095 0-1.8.645-2.22 1.575v-1.575l-2.115.165v.465c1.05 0 1.17.105 1.17.84v4.02c0 .675-.165.675-1.17.675Zm12.87 3.54c0 .09.045.18.135.18.12 0 .165-.075.285-.405l5.31-14.16c.015-.06.045-.135.045-.195 0-.12-.09-.18-.15-.18-.165 0-.225.27-.27.375L78.115 144.7c-.06.165-.06.195-.06.24Zm7.125-3.54c.525-.015 1.29-.045 1.695-.045.39 0 1.17.03 1.68.045v-.465c-1.005 0-1.17 0-1.17-.675v-2.76c0-1.56 1.065-2.4 2.025-2.4.945 0 1.11.81 1.11 1.665v3.495c0 .675-.165.675-1.17.675v.465c.525-.015 1.29-.045 1.695-.045.39 0 1.17.03 1.68.045v-.465c-.78 0-1.155 0-1.17-.45v-2.865c0-1.29 0-1.755-.465-2.295-.21-.255-.705-.555-1.575-.555-1.26 0-1.92.9-2.16 1.44h-.015v-5.22l-2.16.165v.465c1.05 0 1.17.105 1.17.84v7.8c0 .675-.165.675-1.17.675Zm137.6-64.5c.525-.015 1.29-.045 1.695-.045.39 0 1.17.03 1.68.045v-.465c-1.005 0-1.17 0-1.17-.675V73c0-1.56 1.065-2.4 2.025-2.4.945 0 1.11.81 1.11 1.665v3.495c0 .675-.165.675-1.17.675v.465c.525-.015 1.29-.045 1.695-.045.39 0 1.17.03 1.68.045v-.465c-.78 0-1.155 0-1.17-.45V73.12c0-1.29 0-1.755-.465-2.295-.21-.255-.705-.555-1.575-.555-1.26 0-1.92.9-2.16 1.44h-.015v-5.22l-2.16.165v.465c1.05 0 1.17.105 1.17.84v7.8c0 .675-.165.675-1.17.675Z"/><path fill="#000" stroke="#000" stroke-width=".12" d="M177.635 109.835c.3 0 1.185 0 1.965-.39v7.77c0 .54-.045.72-1.395.72h-.48v.465c.525-.045 1.83-.045 2.43-.045s1.905 0 2.43.045v-.465h-.48c-1.35 0-1.395-.165-1.395-.72V108.8c0-.36 0-.39-.345-.39-.93.96-2.25.96-2.73.96Zm6.915 8.565h5.565l.42-2.61h-.375c-.075.45-.18 1.11-.33 1.335-.105.12-1.095.12-1.425.12h-2.7l1.59-1.545c2.34-2.07 3.24-2.88 3.24-4.38 0-1.71-1.35-2.91-3.18-2.91-1.695 0-2.805 1.38-2.805 2.715 0 .84.75.84.795.84.255 0 .78-.18.78-.795 0-.39-.27-.78-.795-.78-.12 0-.15 0-.195.015.345-.975 1.155-1.53 2.025-1.53 1.365 0 2.01 1.215 2.01 2.445 0 1.2-.75 2.385-1.575 3.315l-2.88 3.21c-.165.165-.165.195-.165.555Zm7.23 0c.525-.015 1.29-.045 1.695-.045.39 0 1.17.03 1.68.045v-.465c-1.005 0-1.17 0-1.17-.675v-2.76c0-1.56 1.065-2.4 2.025-2.4.945 0 1.11.81 1.11 1.665v3.495c0 .675-.165.675-1.17.675v.465c.525-.015 1.29-.045 1.695-.045.39 0 1.17.03 1.68.045v-.465c-1.005 0-1.17 0-1.17-.675v-2.76c0-1.56 1.065-2.4 2.025-2.4.945 0 1.11.81 1.11 1.665v3.495c0 .675-.165.675-1.17.675v.465c.525-.015 1.29-.045 1.695-.045.39 0 1.17.03 1.68.045v-.465c-.78 0-1.155 0-1.17-.45v-2.865c0-1.29 0-1.755-.465-2.295-.21-.255-.705-.555-1.575-.555-1.26 0-1.92.9-2.175 1.47-.21-1.305-1.32-1.47-1.995-1.47-1.095 0-1.8.645-2.22 1.575v-1.575l-2.115.165v.465c1.05 0 1.17.105 1.17.84v4.02c0 .675-.165.675-1.17.675Z"/></svg></svg>