<svg xmlns="http://www.w3.org/2000/svg" width="201.6" height="195.8" style="width:201.60000610351562px;height:195.8000030517578px;background:0 0;fill:none"><svg xmlns="http://www.w3.org/2000/svg"/><svg xmlns="http://www.w3.org/2000/svg" class="role-diagram-draw-area" style="overflow:visible"><g class="shapes-region" style="stroke:#000;fill:none"><g class="composite-shape" data-amt="diagram/shapes/plot"><g class="test-plot-expression" transform="translate(-182 15.85)"><defs><clipPath id="cp7y7j2w506dg-full-view"><path d="M1 1h355.5v247.35H1z"/></clipPath></defs><g clip-path="url(#cp7y7j2w506dg-full-view)"><path d="M200 149.35h.44l.22-.01h.22l.22-.01h.22l.22-.01.22-.01.23-.01.22-.01.22-.01.22-.02.22-.01.22-.02.22-.02.22-.02.22-.02.22-.02.22-.02.22-.02.22-.03.22-.02.22-.03.22-.03.22-.03.23-.03.22-.03.22-.04.22-.03.22-.04.22-.03.22-.04.22-.04.22-.04.22-.05.22-.04.22-.04.22-.05.22-.05.22-.04.22-.05.22-.05.23-.05.22-.06.22-.05.22-.06.22-.05.22-.06.22-.06.22-.06.22-.06.22-.06.22-.07.22-.06.22-.07.22-.07.22-.07.22-.07.22-.07.23-.07.22-.07.22-.08.22-.07.22-.08.22-.08.22-.08.22-.08.22-.08.22-.09.22-.08.22-.09.22-.08.22-.09.22-.09.22-.09.22-.09.23-.1.22-.09.22-.1.22-.09.22-.1.22-.1.22-.1.22-.1.22-.1.22-.11.22-.1.22-.11.22-.11.22-.11.22-.11.22-.11.22-.11.23-.11.22-.12.22-.12.22-.11.22-.12.22-.12.22-.12.22-.12.22-.13.22-.12.22-.13.22-.13.22-.12.22-.13.22-.13.22-.14.22-.13.23-.13.22-.14.22-.14.22-.13.22-.14.22-.14.22-.15.22-.14.22-.14.22-.15.22-.15.22-.14.22-.15.22-.15.22-.15.22-.16.22-.15.23-.16.22-.15.22-.16.22-.16.22-.16.22-.16.22-.16.22-.17.22-.16.22-.17.22-.16.22-.17.22-.17.22-.17.22-.17.22-.18.22-.17.23-.18.22-.18.22-.17.22-.18.22-.18.22-.19.22-.18.22-.18.22-.19.22-.19.22-.18.22-.19.22-.19.22-.19.22-.2.22-.19.22-.2.23-.19.22-.2.22-.2.22-.2.22-.2.22-.2.22-.21.22-.2.22-.21.22-.21.22-.2.22-.21.22-.22.22-.21.22-.21.22-.22.22-.21.23-.22.22-.22.22-.22.22-.22.22-.22.22-.22.22-.23.22-.22.22-.23.22-.23.22-.23.22-.23.22-.23.22-.23.22-.24.22-.23.22-.24.23-.24.22-.24.22-.24.22-.24.22-.24.22-.24.22-.25.22-.24.22-.25.22-.25.22-.25.22-.25.22-.25.22-.26.22-.25.22-.26.22-.26.23-.26.22-.25.22-.27.22-.26.22-.26.22-.27.22-.26.22-.27.22-.27.22-.27.22-.27.22-.27.22-.27.22-.28.22-.27.22-.28.22-.28.23-.28.22-.28.22-.28.22-.28.22-.28.22-.29.22-.29.22-.28.22-.29.22-.29.22-.29.22-.3.22-.29.22-.3.22-.29.22-.3.22-.3.23-.3.22-.3.22-.3.22-.3.22-.31.22-.31.22-.3.22-.31.22-.31.22-.31.22-.31.22-.32.22-.31.22-.32.22-.31.22-.32.22-.32.23-.32.22-.32.22-.33.22-.32.22-.33.22-.32.22-.33.22-.33.22-.33.22-.33.22-.33.22-.34.22-.33.22-.34.22-.34.22-.34.22-.34.23-.34.22-.34.22-.34.22-.35.22-.34.22-.35.22-.35.22-.35.22-.35.22-.35.22-.36.22-.35.22-.36.22-.35.22-.36.22-.36.22-.36.23-.36.22-.37.22-.36.22-.37.22-.36.22-.37.22-.37.22-.37.22-.37.22-.38.22-.37.22-.38.22-.37.22-.38.22-.38.22-.38.22-.38.23-.38.22-.39.22-.38.22-.39.22-.39.22-.38.22-.39.22-.39.22-.4.22-.39.22-.4.22-.39.22-.4.22-.4.22-.4.22-.4.22-.4.23-.4.22-.41.22-.4.22-.41.22-.41.22-.41.22-.41.22-.41.22-.41.22-.42.22-.41.22-.42.22-.42.22-.42.22-.42.22-.42.22-.42.23-.42.22-.43.22-.43.22-.42.22-.43.22-.43.22-.43.22-.44.22-.43.22-.43.22-.44.22-.44.22-.44.22-.44.22-.44.22-.44.22-.44.23-.45.22-.44.22-.45.22-.45.22-.45.22-.45.22-.45.22-.45.22-.46.22-.45.22-.46.22-.46.22-.46.22-.46.22-.46.22-.46.22-.47.23-.46.22-.47.22-.47.22-.47.22-.47.22-.47.22-.47.22-.47.22-.48.22-.47.22-.48.22-.48.22-.48.22-.48.22-.48.22-.49.22-.48.23-.49.22-.49.22-.48.22-.49.22-.49.22-.5.22-.49.22-.49.22-.5.22-.5.22-.5.22-.49.22-.51.22-.5.22-.5.22-.5.22-.51.23-.51.22-.5.22-.51.22-.51.22-.51.22-.52.22-.51.22-.52.22-.51.22-.52.22-.52.22-.52.22-.52.22-.52.22-.53.22-.52.22-.53.23-.53.22-.52.22-.53.22-.53.22-.54.22-.53.22-.54.22-.53.22-.54.22-.54.22-.54.22-.54.22-.54.22-.54.22-.55.22-.54.22-.55.23-.55.22-.55.22-.55.22-.55.22-.55.22-.55.22-.56.22-.56.22-.55.22-.56.22-.56.22-.57.22-.56.22-.56.22-.57.22-.56.22-.57.23-.57.22-.57.22-.57.22-.57.22-.58.22-.57.22-.58.22-.57.22-.58.22-.58.22-.58.22-.59.22-.58.22-.58.22-.59.22-.59.22-.58.23-.59.22-.59.22-.6.22-.59.22-.59.22-.6.22-.6.22-.59.22-.6.22-.6.22-.6.22-.61.22-.6.22-.61.22-.6.22-.61.22-.61.23-.61.22-.61.22-.61.22-.62.22-.61.22-.62.22-.61.22-.62.22-.62.22-.62.22-.63.22-.62.22-.62.22-.63.22-.63.22-.63.22-.63.23-.63.22-.63.22-.63.22-.64.22-.63.22-.64.22-.64.22-.64.22-.64.22-.64.22-.64.22-.64.22-.65.22-.65.22-.64.22-.65.22-.65.23-.65.22-.66.22-.65.22-.66.22-.65.22-.66.22-.66.22-.66.22-.66.22-.66.22-.67.22-.66.22-.67.22-.66.22-.67.22-.67.22-.67.23-.68.22-.67.22-.67.22-.68.22-.68.22-.67.22-.68.22-.68.22-.69.22-.68.22-.68.22-.69.22-.69.22-.68.22-.69.22-.69.22-.69.23-.7.22-.69.22-.7.22-.69.22-.7.22-.7.22-.7.22-.7.22-.7.22-.71.22-.7.22-.71.22-.71.22-.7.22-.71.22-.71.22-.72.23-.71.22-.72.22-.71.22-.72.22-.72.22-.72.22-.72.22-.72.22-.72.22-.73.22-.72.22-.73.22-.73.22-.73.22-.73.22-.73.22-.73.23-.74.22-.73.22-.74.22-.74.22-.73.22-.74.22-.75.22-.74.22-.74.22-.75.22-.74.22-.75.22-.75.22-.75.22-.75.22-.75.22-.76.23-.75.22-.76.22-.76.22-.75.22-.76.22-.76.22-.77.22-.76.22-.76.22-.77.22-.77.22-.77.22-.76.22-.78.22-.77.22-.77.22-.77.23-.78.22-.78.22-.77.22-.78.22-.78.22-.79.22-.78.22-.78.22-.79.22-.78.22-.79.22-.79.22-.79.22-.79.22-.8.22-.79.22-.79.23-.8.22-.8.22-.8.22-.8.22-.8.22-.8.22-.8.22-.81.22-.8.22-.81.22-.81.22-.81.22-.81.22-.81.22-.81.22-.82.22-.81.23-.82.22-.82.22-.82.22-.82.22-.82.22-.82.22-.83.22-.82.22-.83.22-.83.22-.83.22-.83.22-.83.22-.83.22-.84.22-.83.22-.84.23-.83.22-.84.22-.84.22-.84.22-.85.22-.84.22-.84.22-.85.22-.85.22-.85.22-.85.22-.85.22-.85.22-.85.22-.86.22-.85.22-.86.23-.86.22-.86.22-.86.22-.86.22-.86.22-.87.22-.86.22-.87.22-.87" style="stroke-width:2;stroke:#900;stroke-opacity:1"/></g></g><path stroke="none" d="M1 1h355.5v247.35H1z" class="real" style="fill:transparent;stroke:none" transform="translate(-182 15.85)"/></g><g class="arrow-line"><path d="M18 166.3v-156m-4.5 124h9m-9-32h9m-9-32h9m-9-32h9" class="connection real" style="stroke:#000;stroke-width:1;fill:none;fill-opacity:1"/><path d="M10.93-3.29Q4.96-.45 0 0q4.96.45 10.93 3.29" style="stroke:#000;stroke-width:1" transform="rotate(90 4.85 13.15)"/></g><g class="arrow-line"><path d="M18 166.3h155m-123-4.5v9m32-9v9m32-9v9m32-9v9" class="connection real" style="stroke:#000;stroke-width:1;fill:none;fill-opacity:1"/><path d="M10.93-3.29Q4.96-.45 0 0q4.96.45 10.93 3.29" style="stroke:#000;stroke-width:1" transform="matrix(-1 0 0 -1 175 166.3)"/></g><g class="arrow-line"><path d="m17.13 134.23 151.7-109.09" class="connection real" style="stroke:#900;stroke-opacity:1;stroke-width:2;fill:none;fill-opacity:1"/><path fill="#900" stroke="none" d="M13.4-6.43 0 0l13.4 6.44L8.9 0Z" style="stroke:none;fill:#900;stroke-width:2" transform="rotate(144.28 82.367 39.124)"/></g><g class="arrow-line"><path d="m124.93 22.23 3.21-10.55" class="connection real" style="stroke:#900;stroke-opacity:1;stroke-width:2;fill:none;fill-opacity:1"/><path fill="#900" stroke="none" d="M13.4-6.43 0 0l13.4 6.44L8.9 0Z" style="stroke:none;fill:#900;stroke-width:2" transform="rotate(106.89 61.74 51.86)"/></g></g></svg><svg xmlns="http://www.w3.org/2000/svg" xmlns:xlink="http://www.w3.org/1999/xlink" width="200" height="194.2" style="width:200px;height:194.1999969482422px;font-family:Asana-Math,Asana;background:0 0"><path fill="#000" stroke="#000" stroke-width=".12" d="M177.085 176.9h1.275v4.14c0 1.845 1.395 2.025 1.935 2.025 1.065 0 1.485-1.065 1.485-2.025v-.855h-.375v.825c0 1.11-.45 1.68-1.005 1.68-1.005 0-1.005-1.365-1.005-1.62v-4.17h2.145v-.465h-2.145v-2.76h-.375c-.015 1.23-.465 2.835-1.935 2.895Zm-152.11-152c.39-.03.855-.045 1.245-.045.435 0 1.065.03 1.425.045v-.465c-.33-.045-.435-.24-.435-.465 0-.33.435-.825 1.35-1.905l1.14 1.5c.12.165.315.405.315.495 0 .135-.135.36-.54.375v.465c.45-.015 1.29-.045 1.62-.045.405 0 .99.015 1.44.045v-.465c-.81 0-1.08-.03-1.425-.465l-2.01-2.595c.45-.57 1.02-1.305 1.38-1.695.465-.54 1.08-.765 1.785-.78v-.465c-.39.03-.84.045-1.23.045-.45 0-1.245-.03-1.44-.045v.465c.315.03.435.225.435.465s-.15.435-.225.525l-.93 1.17-1.17-1.515c-.135-.15-.135-.18-.135-.27 0-.225.225-.36.525-.375v-.465c-.39.015-1.38.045-1.62.045-.315 0-1.02-.015-1.425-.045v.465c1.05 0 1.065.015 1.77.915l1.485 1.935-1.41 1.785a2.4 2.4 0 0 1-1.92.9Z"/></svg></svg>