<svg xmlns="http://www.w3.org/2000/svg" width="201.6" height="159.588" style="width:201.60000610351562px;height:159.58750915527344px;background:0 0;fill:none"><svg xmlns="http://www.w3.org/2000/svg"/><svg xmlns="http://www.w3.org/2000/svg" class="role-diagram-draw-area" style="overflow:visible"><g class="shapes-region" style="stroke:#000;fill:none"><g class="composite-shape" data-amt="diagram/shapes/plot"><g class="test-plot-expression" transform="translate(-176.667 -48.433)"><defs><clipPath id="cp53rdxa24hdg-full-view"><path d="M1 1h428v193.6H1z"/></clipPath></defs><g clip-path="url(#cp53rdxa24hdg-full-view)"><path d="M200 69.6h.8l.27.01h.27l.27.01.26.01.27.01h.27l.27.02.27.01.26.01.27.01.27.02.27.01.26.02.27.02.27.02.27.02.27.02.26.02.27.03.27.02.27.03.26.02.27.03.27.03.27.03.26.03.27.04.27.03.27.03.27.04.26.04.27.04.27.03.27.04.26.05.27.04.27.04.27.05.27.04.26.05.27.05.27.05.27.05.26.05.27.05.27.05.27.06.27.05.26.06.27.06.27.06.27.06.26.06.27.06.27.07.27.06.27.07.26.06.27.07.27.07.27.07.26.07.27.07.27.08.27.07.26.08.27.07.27.08.27.08.27.08.26.08.27.08.27.09.27.08.26.09.27.08.27.09.27.09.27.09.26.09.27.09.27.09.27.1.26.09.27.1.27.1.27.1.27.1.26.1.27.1.27.1.27.11.26.1.27.11.27.11.27.11.27.1.26.12.27.11.27.11.27.11.26.12.27.12.27.11.27.12.27.12.26.12.27.12.27.13.27.12.26.13.27.12.27.13.27.13.26.13.27.13.27.13.27.13.27.14.26.13.27.14.27.14.27.14.26.13.27.15.27.14.27.14.27.14.26.15.27.15.27.14.27.15.26.15.27.15.27.15.27.16.27.15.26.15.27.16.27.16.27.16.26.15.27.17.27.16.27.16.27.16.26.17.27.16.27.17.27.17.26.17.27.17.27.17.27.17.27.18.26.17.27.18.27.17.27.18.26.18.27.18.27.18.27.19.26.18.27.18.27.19.27.19.27.19.26.18.27.2.27.19.27.19.26.19.27.2.27.19.27.2.27.2.26.2.27.2.27.2.27.2.26.2.27.21.27.2.27.21.27.21.26.21.27.21.27.21.27.21.26.22.27.21.27.22.27.21.27.22.26.22.27.22.27.22.27.22.26.23.27.22.27.23.27.22.26.23.27.23.27.23.27.23.27.23.26.24.27.23.27.24.27.23.26.24.27.24.27.24.27.24.27.24.26.24.27.25.27.24.27.25.26.25.27.25.27.25.27.25.27.25.26.25.27.26.27.25.27.26.26.26.27.26.27.25.27.27.27.26.26.26.27.26.27.27.27.27.26.26.27.27.27.27.27.27.27.27.26.28.27.27.27.28.27.27.26.28.27.28.27.28.27.28.26.28.27.28.27.29.27.28.27.29.26.29.27.29.27.28.27.3.26.29.27.29.27.29.27.3.27.3.26.29.27.3.27.3.27.3.26.3.27.31.27.3.27.3.27.31.26.31.27.31.27.31.27.31.26.31.27.31.27.31.27.32.27.31.26.32.27.32.27.32.27.32.26.32.27.32.27.33.27.32.26.33.27.33.27.32.27.33.27.33.26.33.27.34.27.33.27.34.26.33.27.34.27.34.27.34.27.34.26.34.27.34.27.34.27.35.26.34.27.35.27.35.27.35.27.35.26.35.27.35.27.35.27.36.26.35.27.36.27.36.27.36.27.36.26.36.27.36.27.37.27.36.26.37.27.36.27.37.27.37.27.37.26.37.27.37.27.38.27.37.26.38.27.37.27.38.27.38.26.38.27.38.27.38.27.39.27.38.26.39.27.38.27.39.27.39.26.39.27.39.27.39.27.39.27.4.26.39.27.4.27.4.27.4.26.4.27.4.27.4.27.4.27.41.26.4.27.41.27.41.27.41.26.41.27.41.27.41.27.41.27.42.26.41.27.42.27.41.27.42.26.42.27.42.27.43.27.42.26.42.27.43.27.42.27.43.27.43.26.43.27.43.27.43.27.43.26.44.27.43.27.44.27.44.27.44.26.44.27.44.27.44.27.44.26.44.27.45.27.45.27.44.27.45.26.45.27.45.27.45.27.46.26.45.27.45.27.46.27.46.27.46.26.46.27.46.27.46.27.46.26.46.27.47.27.46.27.47.27.47.26.47.27.47.27.47.27.47.26.48.27.47.27.48.27.48.26.47.27.48.27.48.27.48.27.49.26.48.27.49.27.48.27.49.26.49.27.49.27.49.27.49.27.49.26.49.27.5.27.49.27.5.26.5.27.5.27.5.27.5.27.5.26.51.27.5.27.51.27.5.26.51.27.51.27.51.27.51.27.51.26.52.27.51.27.52.27.51.26.52.27.52.27.52.27.52.27.52.26.53.27.52.27.53.27.52.26.53.27.53.27.53.27.53.26.53.27.54.27.53.27.54.27.53.26.54.27.54.27.54.27.54.26.54.27.55.27.54.27.55.27.54.26.55.27.55.27.55.27.55.26.55.27.55.27.56.27.55.27.56.26.56.27.56.27.56.27.56.26.56.27.56.27.57.27.56.27.57.26.57.27.56.27.57.27.57.26.58.27.57.27.57.27.58.26.57.27.58.27.58.27.58.27.58.26.58.27.59.27.58.27.58.26.59.27.59.27.59.27.59.27.59.26.59.27.59.27.6.27.59.26.6.27.59.27.6.27.6.27.6.26.6.27.61.27.6.27.61.26.6.27.61.27.61.27.61.27.61.26.61.27.61.27.61.27.62.26.62.27.61.27.62.27.62.27.62.26.62.27.62.27.63.27.62.26.63.27.63.27.62.27.63.26.63.27.64.27.63.27.63.27.64.26.63.27.64.27.64.27.64.26.64.27.64.27.64.27.64.27.65.26.64.27.65.27.65.27.65.26.65.27.65.27.65.27.66.27.65.26.66.27.65.27.66.27.66.26.66.27.66.27.66.27.67.27.66.26.67.27.66.27.67.27.67.26.67.27.67.27.67.27.68.26.67.27.68.27.67.27.68.27.68.26.68.27.68.27.68.27.69.26.68.27.69.27.68.27.69.27.69.26.69.27.69.27.69.27.7.26.69.27.7.27.69.27.7.27.7.26.7.27.7.27.7.27.7.26.71.27.7.27.71.27.71.27.71.26.71.27.71.27.71.27.71.26.72.27.71.27.72.27.72.27.71.26.72.27.72.27.73.27.72.26.72.27.73.27.73.27.72.26.73.27.73.27.73.27.73.27.74.26.73.27.74.27.73.27.74.26.74.27.74.27.74.27.74.27.74.26.75.27.74.27.75.27.74.26.75.27.75.27.75.27.75.27.76.26.75.27.76.27.75.27.76.26.76.27.76.27.76.27.76.27.76.26.77.27.76.27.77.27.76.26.77.27.77.27.77.27.77.26.78.27.77.27.77.27.78.27.78.26.78.27.77.27.78.27.79.26.78.27.78.27.79.27.78.27.79.26.79.27.79.27.79.27.79.26.79.27.79.27.8.27.8.27.79.26.8.27.8.27.8.27.8.26.8.27.81.27.8.27.81.27.8.26.81.27.81.27.81.27.81.26.81.27.82.27.81.27.82.27.81.26.82.27.82.27.82.27.82.26.82.27.83.27.82.27.83.26.82.27.83.27.83.27.83.27.83.26.83.27.84.27.83.27.84.26.83.27.84.27.84.27.84.27.84.26.55H430" style="stroke-width:1;stroke:#900;stroke-opacity:1;stroke-dasharray:3"/></g></g><path stroke="none" d="M1 1h428v193.6H1z" class="real" style="fill:transparent;stroke:none" transform="translate(-176.667 -48.433)"/></g><g class="composite-shape"><path d="M18.88 22.26c0-4.91 3.99-8.9 8.9-8.9 4.92 0 8.9 3.99 8.9 8.9 0 4.92-3.98 8.9-8.9 8.9-4.91 0-8.9-3.98-8.9-8.9Z" class="real" style="stroke-width:1;stroke:#900;stroke-opacity:1;fill:#900;fill-opacity:1"/></g><g class="arrow-line"><path d="M27.78 22.26h43.9" class="connection real" style="stroke:#900;stroke-opacity:1;stroke-width:2;fill:none;fill-opacity:1"/><path fill="#900" stroke="none" d="M13.4-6.43 0 0l13.4 6.44L8.9 0Z" style="stroke:none;fill:#900;stroke-width:2" transform="matrix(-1 0 0 -1 75.68 22.264)"/></g><g class="composite-shape"><defs><pattern id="_pgfdgndf9w4fdg-full-view" width="11.314" height="11.314" x="0" y="0" patternTransform="rotate(45 0 0)" patternUnits="userSpaceOnUse"><path d="M0 0v11.314M5.657 0v11.314M11.314 0v11.314" style="stroke:#000;stroke-opacity:1;stroke-width:1;fill:none"/></pattern></defs><path d="M-47.53 148.05h287v27.06h-287Z" class="real" style="stroke-width:1;stroke:#000;fill:url(#_pgfdgndf9w4fdg-full-view);fill-opacity:1"/></g><g class="arrow-line"><path d="M27.78 146.28V33.16" class="connection real" style="stroke:#000;stroke-opacity:1;stroke-width:1;fill:none;fill-opacity:1"/><path d="M10.93-3.29Q4.96-.45 0 0q4.96.45 10.93 3.29" style="stroke:#000;stroke-width:1" transform="rotate(90 -1.692 29.473)"/><path d="M10.93-3.29Q4.96-.45 0 0q4.96.45 10.93 3.29" style="stroke:#000;stroke-width:1" transform="rotate(-90 88.032 60.251)"/></g></g></svg><svg xmlns="http://www.w3.org/2000/svg" xmlns:xlink="http://www.w3.org/1999/xlink" width="200" height="157.988" style="width:200px;height:157.9875030517578px;font-family:Asana-Math,Asana;background:0 0"><path fill="#000" stroke="#000" stroke-width=".136" d="M38.706 97.438v-.51l-.884-.05c-.935-.052-1.105-.239-1.105-1.123V85.487l-4.097 1.734.119.85 2.55-1.122v8.806c0 .884-.187 1.071-1.105 1.122l-.952.051v.51c2.618-.05 2.618-.05 2.805-.05.527 0 2.397.05 2.669.05Zm3.485-1.938c-.51 0-.969.476-.969.986s.459.986.952.986c.544 0 1.02-.459 1.02-.986 0-.51-.476-.986-1.003-.986Zm9.928-2.414c0-1.92-1.377-3.28-3.315-3.28-.816 0-1.428.05-2.329.85v-3.554l5.185.017v-1.445l-6.069-.017v6.256l.34.102c.799-.799 1.258-1.037 2.091-1.037 1.632 0 2.652 1.156 2.652 2.992 0 1.887-1.088 2.992-2.941 2.992-.918 0-1.768-.306-2.006-.748l-.782-1.394-.408.238c.391.97.595 1.513.833 2.261.476.255 1.156.408 1.887.408 2.176 0 4.862-1.853 4.862-4.64Zm13.09 2.55-.442.29c-.493.322-.867.51-1.037.51-.119 0-.221-.154-.221-.34 0-.17.034-.324.119-.68l1.275-5.05c.068-.289.119-.56.119-.697 0-.289-.17-.476-.442-.476-.493 0-1.139.306-2.176 1.037-1.071.765-1.666 1.36-2.499 2.533l.51-2.329c.068-.34.119-.595.119-.714 0-.323-.17-.527-.442-.527-.51 0-1.292.374-2.227 1.088-.748.578-1.088.935-2.193 2.431l.561-2.26a3 3 0 0 0 .102-.732c0-.323-.153-.527-.391-.527-.357 0-1.003.357-2.261 1.258l-.476.34.119.34c.629-.39 1.224-.782 1.343-.782.187 0 .306.17.306.425 0 .867-.697 4.148-1.394 6.58l.051.186 1.156-.255.374-1.734c.408-1.887.867-2.89 1.802-3.91.714-.782 1.479-1.292 1.955-1.292.119 0 .187.136.187.357 0 .595-.374 2.533-1.071 5.508l-.272 1.14.085.186 1.173-.255.357-1.819c.272-1.377.85-2.652 1.598-3.485.935-1.037 1.785-1.632 2.329-1.632.136 0 .221.153.221.425 0 .408-.051.646-.425 2.125-.68 2.703-.952 3.06-.952 3.961 0 .425.187.68.51.68.442 0 1.054-.357 2.72-1.598Z"/><path fill="#900" stroke="#900" stroke-width=".136" d="M78.672 28.397v.442c3.179 0 3.179-.051 3.791-.051s.612.05 3.893.05v-1.444c-1.955.085-2.737.017-5.882.085l3.094-3.281c1.649-1.751 2.159-2.686 2.159-3.961 0-1.955-1.326-3.162-3.485-3.162-1.224 0-2.057.34-2.89 1.19l-.289 2.312h.493l.221-.782c.272-.986.884-1.411 2.023-1.411 1.462 0 2.397.918 2.397 2.363 0 1.275-.714 2.533-2.635 4.573Zm12.682-11.322c-2.635 0-3.978 2.09-3.978 6.205 0 1.989.357 3.706.952 4.539s1.547 1.309 2.601 1.309c2.567 0 3.859-2.21 3.859-6.562 0-3.723-1.105-5.491-3.434-5.491Zm-.306.595c1.649 0 2.312 1.666 2.312 5.746 0 3.62-.646 5.117-2.21 5.117-1.649 0-2.346-1.717-2.346-5.865 0-3.587.629-4.998 2.244-4.998Zm8.789-.595c-2.635 0-3.978 2.09-3.978 6.205 0 1.989.357 3.706.952 4.539s1.547 1.309 2.601 1.309c2.567 0 3.859-2.21 3.859-6.562 0-3.723-1.105-5.491-3.434-5.491Zm-.306.595c1.649 0 2.312 1.666 2.312 5.746 0 3.62-.646 5.117-2.21 5.117-1.649 0-2.346-1.717-2.346-5.865 0-3.587.629-4.998 2.244-4.998Zm16.728 9.367-.442.289c-.493.323-.867.51-1.037.51-.119 0-.221-.153-.221-.34 0-.17.034-.323.119-.68l1.275-5.05c.068-.288.119-.56.119-.696 0-.29-.17-.476-.442-.476-.493 0-1.139.306-2.176 1.037-1.071.765-1.666 1.36-2.499 2.533l.51-2.33c.068-.34.119-.594.119-.713 0-.323-.17-.527-.442-.527-.51 0-1.292.374-2.227 1.088-.748.578-1.088.935-2.193 2.43l.561-2.26c.068-.272.102-.527.102-.731 0-.323-.153-.527-.391-.527-.357 0-1.003.357-2.261 1.258l-.476.34.119.34c.629-.391 1.224-.782 1.343-.782.187 0 .306.17.306.425 0 .867-.697 4.148-1.394 6.579l.051.187 1.156-.255.374-1.734c.408-1.887.867-2.89 1.802-3.91.714-.782 1.479-1.292 1.955-1.292.119 0 .187.136.187.357 0 .595-.374 2.533-1.071 5.508l-.272 1.139.085.187 1.173-.255.357-1.82c.272-1.376.85-2.651 1.598-3.484.935-1.037 1.785-1.632 2.329-1.632.136 0 .221.153.221.425 0 .408-.051.646-.425 2.125-.68 2.703-.952 3.06-.952 3.96 0 .426.187.68.51.68.442 0 1.054-.356 2.72-1.597Zm9.253-10.387h-.935l-4.743 15.01h.935Zm3.74 9.622a15 15 0 0 1-.374 2.244c.646.306 1.224.459 1.819.459.833 0 1.615-.306 2.482-.986s1.224-1.31 1.224-2.16c0-.917-.544-1.41-1.802-1.648l-.731-.136c-1.02-.187-1.343-.476-1.343-1.173 0-.901.765-1.598 1.734-1.598.697 0 1.343.306 1.615.765v.935h.391c.068-.595.136-1.054.323-1.921-.663-.323-1.139-.46-1.7-.46-.884 0-1.921.51-2.737 1.327-.442.459-.629.884-.629 1.496 0 .952.527 1.496 1.649 1.717l1.071.204c.748.136 1.02.442 1.02 1.105 0 1.105-.782 1.853-1.989 1.853a2.37 2.37 0 0 1-1.598-.595v-1.428Z"/></svg></svg>