<svg xmlns="http://www.w3.org/2000/svg" xmlns:xlink="http://www.w3.org/1999/xlink" x="0" y="0" width="309.6000061035156" height="248.40000915527344" style="
        width:309.6000061035156px;
        height:248.40000915527344px;
        background: transparent;
        fill: none;
">
        <svg xmlns="http://www.w3.org/2000/svg"/>
        
        <svg xmlns="http://www.w3.org/2000/svg" class="role-diagram-draw-area" style="overflow: visible;"><g class="shapes-region" style="stroke: black; fill: none;"><g class="composite-shape" data-amt="diagram/shapes/plot" transform="matrix(1,0,0,1,-100.2,-7.5)"><g><g/><g><g class="test-plot-expression"><defs><clipPath id="cpds54koz1bdg-full-view"><rect x="1" y="1" width="428" height="292.5"/></clipPath></defs><g clip-path="url(#cpds54koz1bdg-full-view)"><path d=" M123.36,194.50 L123.65,193.92 L123.94,193.34 L124.23,192.76 L124.53,192.18 L124.82,191.60 L125.11,191.01 L125.40,190.43 L125.69,189.85 L125.98,189.27 L126.27,188.69 L126.56,188.11 L126.85,187.53 L127.14,186.95 L127.43,186.37 L127.72,185.79 L128.01,185.21 L128.30,184.63 L128.59,184.05 L128.88,183.47 L129.17,182.89 L129.46,182.31 L129.75,181.73 L130.04,181.16 L130.33,180.58 L130.62,180.00 L130.92,179.42 L131.21,178.84 L131.50,178.26 L131.79,177.69 L132.08,177.11 L132.37,176.53 L132.66,175.95 L132.95,175.38 L133.24,174.80 L133.53,174.22 L133.82,173.65 L134.11,173.07 L134.40,172.50 L134.69,171.92 L134.98,171.35 L135.27,170.77 L135.56,170.20 L135.85,169.62 L136.14,169.05 L136.43,168.48 L136.72,167.90 L137.01,167.33 L137.30,166.76 L137.60,166.19 L137.89,165.62 L138.18,165.05 L138.47,164.48 L138.76,163.91 L139.05,163.34 L139.34,162.77 L139.63,162.20 L139.92,161.63 L140.21,161.06 L140.50,160.49 L140.79,159.93 L141.08,159.36 L141.37,158.79 L141.66,158.23 L141.95,157.66 L142.24,157.10 L142.53,156.53 L142.82,155.97 L143.11,155.41 L143.40,154.84 L143.69,154.28 L143.99,153.72 L144.28,153.16 L144.57,152.60 L144.86,152.04 L145.15,151.48 L145.44,150.92 L145.73,150.36 L146.02,149.80 L146.31,149.25 L146.60,148.69 L146.89,148.13 L147.18,147.58 L147.47,147.02 L147.76,146.47 L148.05,145.92 L148.34,145.36 L148.63,144.81 L148.92,144.26 L149.21,143.71 L149.50,143.16 L149.79,142.61 L150.08,142.06 L150.38,141.51 L150.67,140.97 L150.96,140.42 L151.25,139.87 L151.54,139.33 L151.83,138.78 L152.12,138.24 L152.41,137.70 L152.70,137.16 L152.99,136.61 L153.28,136.07 L153.57,135.53 L153.86,134.99 L154.15,134.46 L154.44,133.92 L154.73,133.38 L155.02,132.85 L155.31,132.31 L155.60,131.78 L155.89,131.24 L156.18,130.71 L156.47,130.18 L156.76,129.65 L157.06,129.12 L157.35,128.59 L157.64,128.06 L157.93,127.54 L158.22,127.01 L158.51,126.48 L158.80,125.96 L159.09,125.44 L159.38,124.91 L159.67,124.39 L159.96,123.87 L160.25,123.35 L160.54,122.83 L160.83,122.31 L161.12,121.80 L161.41,121.28 L161.70,120.77 L161.99,120.25 L162.28,119.74 L162.57,119.23 L162.86,118.72 L163.15,118.21 L163.45,117.70 L163.74,117.19 L164.03,116.68 L164.32,116.18 L164.61,115.67 L164.90,115.17 L165.19,114.67 L165.48,114.16 L165.77,113.66 L166.06,113.16 L166.35,112.66 L166.64,112.17 L166.93,111.67 L167.22,111.18 L167.51,110.68 L167.80,110.19 L168.09,109.70 L168.38,109.21 L168.67,108.72 L168.96,108.23 L169.25,107.74 L169.54,107.26 L169.83,106.77 L170.13,106.29 L170.42,105.81 L170.71,105.32 L171.00,104.84 L171.29,104.36 L171.58,103.89 L171.87,103.41 L172.16,102.94 L172.45,102.46 L172.74,101.99 L173.03,101.52 L173.32,101.05 L173.61,100.58 L173.90,100.11 L174.19,99.64 L174.48,99.18 L174.77,98.71 L175.06,98.25 L175.35,97.79 L175.64,97.33 L175.93,96.87 L176.22,96.41 L176.52,95.96 L176.81,95.50 L177.10,95.05 L177.39,94.60 L177.68,94.15 L177.97,93.70 L178.26,93.25 L178.55,92.80 L178.84,92.36 L179.13,91.91 L179.42,91.47 L179.71,91.03 L180.00,90.59 L180.29,90.15 L180.58,89.71 L180.87,89.27 L181.16,88.84 L181.45,88.41 L181.74,87.98 L182.03,87.55 L182.32,87.12 L182.61,86.69 L182.90,86.26 L183.20,85.84 L183.49,85.42 L183.78,84.99 L184.07,84.57 L184.36,84.16 L184.65,83.74 L184.94,83.32 L185.23,82.91 L185.52,82.50 L185.81,82.09 L186.10,81.68 L186.39,81.27 L186.68,80.86 L186.97,80.46 L187.26,80.05 L187.55,79.65 L187.84,79.25 L188.13,78.85 L188.42,78.45 L188.71,78.06 L189.00,77.66 L189.29,77.27 L189.59,76.88 L189.88,76.49 L190.17,76.10 L190.46,75.72 L190.75,75.33 L191.04,74.95 L191.33,74.57 L191.62,74.19 L191.91,73.81 L192.20,73.43 L192.49,73.06 L192.78,72.68 L193.07,72.31 L193.36,71.94 L193.65,71.57 L193.94,71.20 L194.23,70.84 L194.52,70.47 L194.81,70.11 L195.10,69.75 L195.39,69.39 L195.68,69.04 L195.97,68.68 L196.27,68.33 L196.56,67.98 L196.85,67.63 L197.14,67.28 L197.43,66.93 L197.72,66.58 L198.01,66.24 L198.30,65.90 L198.59,65.56 L198.88,65.22 L199.17,64.88 L199.46,64.55 L199.75,64.22 L200.04,63.88 L200.33,63.55 L200.62,63.23 L200.91,62.90 L201.20,62.58 L201.49,62.25 L201.78,61.93 L202.07,61.61 L202.36,61.30 L202.66,60.98 L202.95,60.67 L203.24,60.36 L203.53,60.05 L203.82,59.74 L204.11,59.43 L204.40,59.13 L204.69,58.82 L204.98,58.52 L205.27,58.22 L205.56,57.92 L205.85,57.63 L206.14,57.34 L206.43,57.04 L206.72,56.75 L207.01,56.46 L207.30,56.18 L207.59,55.89 L207.88,55.61 L208.17,55.33 L208.46,55.05 L208.75,54.77 L209.04,54.50 L209.34,54.22 L209.63,53.95 L209.92,53.68 L210.21,53.42 L210.50,53.15 L210.79,52.89 L211.08,52.62 L211.37,52.36 L211.66,52.11 L211.95,51.85 L212.24,51.59 L212.53,51.34 L212.82,51.09 L213.11,50.84 L213.40,50.60 L213.69,50.35 L213.98,50.11 L214.27,49.87 L214.56,49.63 L214.85,49.39 L215.14,49.15 L215.43,48.92 L215.73,48.69 L216.02,48.46 L216.31,48.23 L216.60,48.01 L216.89,47.78 L217.18,47.56 L217.47,47.34 L217.76,47.13 L218.05,46.91 L218.34,46.70 L218.63,46.48 L218.92,46.27 L219.21,46.07 L219.50,45.86 L219.79,45.66 L220.08,45.46 L220.37,45.26 L220.66,45.06 L220.95,44.86 L221.24,44.67 L221.53,44.48 L221.82,44.29 L222.11,44.10 L222.41,43.91 L222.70,43.73 L222.99,43.55 L223.28,43.37 L223.57,43.19 L223.86,43.01 L224.15,42.84 L224.44,42.67 L224.73,42.50 L225.02,42.33 L225.31,42.17 L225.60,42.00 L225.89,41.84 L226.18,41.68 L226.47,41.52 L226.76,41.37 L227.05,41.22 L227.34,41.06 L227.63,40.92 L227.92,40.77 L228.21,40.62 L228.50,40.48 L228.80,40.34 L229.09,40.20 L229.38,40.06 L229.67,39.93 L229.96,39.80 L230.25,39.67 L230.54,39.54 L230.83,39.41 L231.12,39.29 L231.41,39.16 L231.70,39.04 L231.99,38.93 L232.28,38.81 L232.57,38.70 L232.86,38.58 L233.15,38.47 L233.44,38.37 L233.73,38.26 L234.02,38.16 L234.31,38.06 L234.60,37.96 L234.89,37.86 L235.18,37.76 L235.48,37.67 L235.77,37.58 L236.06,37.49 L236.35,37.40 L236.64,37.32 L236.93,37.24 L237.22,37.16 L237.51,37.08 L237.80,37.00 L238.09,36.93 L238.38,36.86 L238.67,36.79 L238.96,36.72 L239.25,36.65 L239.54,36.59 L239.83,36.53 L240.12,36.47 L240.41,36.41 L240.70,36.35 L240.99,36.30 L241.28,36.25 L241.57,36.20 L241.87,36.15 L242.16,36.11 L242.45,36.07 L242.74,36.03 L243.03,35.99 L243.32,35.95 L243.61,35.92 L243.90,35.89 L244.19,35.86 L244.48,35.83 L244.77,35.80 L245.06,35.78 L245.35,35.76 L245.64,35.74 L245.93,35.72 L246.22,35.71 L246.51,35.70 L246.80,35.69 L247.09,35.68 L247.38,35.67 L247.67,35.67 L247.96,35.66 L248.25,35.66 L248.55,35.67 L248.84,35.67 L249.13,35.68 L249.42,35.69 L249.71,35.70 L250.00,35.71 L250.29,35.72 L250.58,35.74 L250.87,35.76 L251.16,35.78 L251.45,35.80 L251.74,35.83 L252.03,35.86 L252.32,35.89 L252.61,35.92 L252.90,35.95 L253.19,35.99 L253.48,36.03 L253.77,36.07 L254.06,36.11 L254.35,36.15 L254.64,36.20 L254.94,36.25 L255.23,36.30 L255.52,36.35 L255.81,36.41 L256.10,36.47 L256.39,36.52 L256.68,36.59 L256.97,36.65 L257.26,36.72 L257.55,36.78 L257.84,36.85 L258.13,36.93 L258.42,37.00 L258.71,37.08 L259.00,37.15 L259.29,37.23 L259.58,37.32 L259.87,37.40 L260.16,37.49 L260.45,37.58 L260.74,37.67 L261.03,37.76 L261.32,37.86 L261.62,37.95 L261.91,38.05 L262.20,38.15 L262.49,38.26 L262.78,38.36 L263.07,38.47 L263.36,38.58 L263.65,38.69 L263.94,38.81 L264.23,38.92 L264.52,39.04 L264.81,39.16 L265.10,39.28 L265.39,39.41 L265.68,39.53 L265.97,39.66 L266.26,39.79 L266.55,39.93 L266.84,40.06 L267.13,40.20 L267.42,40.34 L267.71,40.48 L268.01,40.62 L268.30,40.76 L268.59,40.91 L268.88,41.06 L269.17,41.21 L269.46,41.37 L269.75,41.52 L270.04,41.68 L270.33,41.84 L270.62,42.00 L270.91,42.16 L271.20,42.33 L271.49,42.50 L271.78,42.66 L272.07,42.84 L272.36,43.01 L272.65,43.19 L272.94,43.36 L273.23,43.54 L273.52,43.72 L273.81,43.91 L274.10,44.09 L274.40,44.28 L274.69,44.47 L274.98,44.66 L275.27,44.86 L275.56,45.05 L275.85,45.25 L276.14,45.45 L276.43,45.65 L276.72,45.86 L277.01,46.06 L277.30,46.27 L277.59,46.48 L277.88,46.69 L278.17,46.90 L278.46,47.12 L278.75,47.34 L279.04,47.56 L279.33,47.78 L279.62,48.00 L279.91,48.23 L280.20,48.45 L280.49,48.68 L280.78,48.92 L281.08,49.15 L281.37,49.38 L281.66,49.62 L281.95,49.86 L282.24,50.10 L282.53,50.34 L282.82,50.59 L283.11,50.84 L283.40,51.08 L283.69,51.34 L283.98,51.59 L284.27,51.84 L284.56,52.10 L284.85,52.36 L285.14,52.62 L285.43,52.88 L285.72,53.14 L286.01,53.41 L286.30,53.68 L286.59,53.95 L286.88,54.22 L287.17,54.49 L287.47,54.77 L287.76,55.04 L288.05,55.32 L288.34,55.60 L288.63,55.89 L288.92,56.17 L289.21,56.46 L289.50,56.75 L289.79,57.04 L290.08,57.33 L290.37,57.62 L290.66,57.92 L290.95,58.21 L291.24,58.51 L291.53,58.81 L291.82,59.12 L292.11,59.42 L292.40,59.73 L292.69,60.04 L292.98,60.35 L293.27,60.66 L293.56,60.97 L293.85,61.29 L294.15,61.61 L294.44,61.92 L294.73,62.25 L295.02,62.57 L295.31,62.89 L295.60,63.22 L295.89,63.55 L296.18,63.88 L296.47,64.21 L296.76,64.54 L297.05,64.88 L297.34,65.21 L297.63,65.55 L297.92,65.89 L298.21,66.23 L298.50,66.58 L298.79,66.92 L299.08,67.27 L299.37,67.62 L299.66,67.97 L299.95,68.32 L300.24,68.67 L300.54,69.03 L300.83,69.38 L301.12,69.74 L301.41,70.10 L301.70,70.47 L301.99,70.83 L302.28,71.19 L302.57,71.56 L302.86,71.93 L303.15,72.30 L303.44,72.67 L303.73,73.05 L304.02,73.42 L304.31,73.80 L304.60,74.18 L304.89,74.56 L305.18,74.94 L305.47,75.32 L305.76,75.71 L306.05,76.09 L306.34,76.48 L306.63,76.87 L306.92,77.26 L307.22,77.65 L307.51,78.05 L307.80,78.44 L308.09,78.84 L308.38,79.24 L308.67,79.64 L308.96,80.04 L309.25,80.45 L309.54,80.85 L309.83,81.26 L310.12,81.67 L310.41,82.08 L310.70,82.49 L310.99,82.90 L311.28,83.31 L311.57,83.73 L311.86,84.15 L312.15,84.56 L312.44,84.98 L312.73,85.41 L313.02,85.83 L313.31,86.25 L313.61,86.68 L313.90,87.11 L314.19,87.53 L314.48,87.96 L314.77,88.40 L315.06,88.83 L315.35,89.26 L315.64,89.70 L315.93,90.14 L316.22,90.58 L316.51,91.02 L316.80,91.46 L317.09,91.90 L317.38,92.34 L317.67,92.79 L317.96,93.24 L318.25,93.68 L318.54,94.13 L318.83,94.58 L319.12,95.04 L319.41,95.49 L319.70,95.95 L319.99,96.40 L320.29,96.86 L320.58,97.32 L320.87,97.78 L321.16,98.24 L321.45,98.70 L321.74,99.17 L322.03,99.63 L322.32,100.10 L322.61,100.57 L322.90,101.03 L323.19,101.51 L323.48,101.98 L323.77,102.45 L324.06,102.92 L324.35,103.40 L324.64,103.88 L324.93,104.35 L325.22,104.83 L325.51,105.31 L325.80,105.79 L326.09,106.28 L326.38,106.76 L326.68,107.24 L326.97,107.73 L327.26,108.22 L327.55,108.71 L327.84,109.19 L328.13,109.69 L328.42,110.18 L328.71,110.67 L329.00,111.16 L329.29,111.66 L329.58,112.16 L329.87,112.65 L330.16,113.15 L330.45,113.65 L330.74,114.15 L331.03,114.65 L331.32,115.16 L331.61,115.66 L331.90,116.16 L332.19,116.67 L332.48,117.18 L332.77,117.68 L333.06,118.19 L333.36,118.70 L333.65,119.21 L333.94,119.73 L334.23,120.24 L334.52,120.75 L334.81,121.27 L335.10,121.78 L335.39,122.30 L335.68,122.82 L335.97,123.34 L336.26,123.86 L336.55,124.38 L336.84,124.90 L337.13,125.42 L337.42,125.95 L337.71,126.47 L338.00,127.00 L338.29,127.52 L338.58,128.05 L338.87,128.58 L339.16,129.11 L339.45,129.64 L339.75,130.17 L340.04,130.70 L340.33,131.23 L340.62,131.76 L340.91,132.30 L341.20,132.83 L341.49,133.37 L341.78,133.91 L342.07,134.44 L342.36,134.98 L342.65,135.52 L342.94,136.06 L343.23,136.60 L343.52,137.14 L343.81,137.68 L344.10,138.23 L344.39,138.77 L344.68,139.31 L344.97,139.86 L345.26,140.41 L345.55,140.95 L345.84,141.50 L346.13,142.05 L346.43,142.60 L346.72,143.14 L347.01,143.69 L347.30,144.25 L347.59,144.80 L347.88,145.35 L348.17,145.90 L348.46,146.46 L348.75,147.01 L349.04,147.56 L349.33,148.12 L349.62,148.67 L349.91,149.23 L350.20,149.79 L350.49,150.35 L350.78,150.90 L351.07,151.46 L351.36,152.02 L351.65,152.58 L351.94,153.14 L352.23,153.70 L352.52,154.27 L352.82,154.83 L353.11,155.39 L353.40,155.95 L353.69,156.52 L353.98,157.08 L354.27,157.65 L354.56,158.21 L354.85,158.78 L355.14,159.34 L355.43,159.91 L355.72,160.48 L356.01,161.05 L356.30,161.61 L356.59,162.18 L356.88,162.75 L357.17,163.32 L357.46,163.89 L357.75,164.46 L358.04,165.03 L358.33,165.60 L358.62,166.17 L358.91,166.75 L359.20,167.32 L359.50,167.89 L359.79,168.46 L360.08,169.04 L360.37,169.61 L360.66,170.18 L360.95,170.76 L361.24,171.33 L361.53,171.91 L361.82,172.48 L362.11,173.06 L362.40,173.63 L362.69,174.21 L362.98,174.79 L363.27,175.36 L363.56,175.94 L363.85,176.52 L364.14,177.09 L364.43,177.67 L364.72,178.25 L365.01,178.83 L365.30,179.40 L365.59,179.98 L365.89,180.56 L366.18,181.14 L366.47,181.72 L366.76,182.30 L367.05,182.88 L367.34,183.46 L367.63,184.04 L367.92,184.62 L368.21,185.20 L368.50,185.78 L368.79,186.36 L369.08,186.94 L369.37,187.52 L369.66,188.10 L369.95,188.68 L370.24,189.26 L370.53,189.84 L370.82,190.42 L371.11,191.00 L371.40,191.58 L371.69,192.16 L371.98,192.74 L372.27,193.32 L372.57,193.90 L372.86,194.49" style="stroke-width: 2; stroke: rgb(153, 0, 0); stroke-opacity: 1;"/></g></g><rect class="real" x="1" y="1" width="428" height="292.5" style="fill: transparent; stroke: none;"/></g></g></g><g class="arrow-line"><path class="connection real" stroke-dasharray="" d="  M22.8,187.5 L271.28,187.5  M47.8,183.5 L47.8,191.5 M72.8,183.5 L72.8,191.5 M97.8,183.5 L97.8,191.5 M122.8,183.5 L122.8,191.5 M147.8,183.5 L147.8,191.5 M172.8,183.5 L172.8,191.5 M197.8,183.5 L197.8,191.5 M222.8,183.5 L222.8,191.5 M247.8,183.5 L247.8,191.5" style="stroke: rgb(0, 0, 0); stroke-width: 1; fill: none; fill-opacity: 1;"/><g stroke="#000" transform="matrix(-1,1.2246467991473532e-16,-1.2246467991473532e-16,-1,273.2799926757812,187.50000000000003)" style="stroke: rgb(0, 0, 0); stroke-width: 1;"><path d=" M10.93,-3.29 Q4.96,-0.45 0,0 Q4.96,0.45 10.93,3.29"/></g></g><g class="arrow-line"><path class="connection real" stroke-dasharray="" d="  M22.8,187.5 L22.8,22.5" style="stroke: rgb(0, 0, 0); stroke-width: 1; fill: none; fill-opacity: 1;"/><g stroke="#000" transform="matrix(3.061616997868383e-16,1,-1,3.061616997868383e-16,22.79998779296875,20.5)" style="stroke: rgb(0, 0, 0); stroke-width: 1;"><path d=" M10.93,-3.29 Q4.96,-0.45 0,0 Q4.96,0.45 10.93,3.29"/></g></g><g class="arrow-line"><path class="connection real" stroke-dasharray="3" d="  M147.6,219.68 L147.6,28.88" style="stroke: rgb(153, 0, 0); stroke-opacity: 1; stroke-width: 1; fill: none; fill-opacity: 1;"/></g><g class="arrow-line"><path class="connection real" stroke-dasharray="3" d="  M273.28,187.5 L273.28,123.44" style="stroke: rgb(153, 0, 0); stroke-opacity: 1; stroke-width: 1; fill: none; fill-opacity: 1;"/></g><g/></g><g/><g/><g/></svg>
        <svg xmlns="http://www.w3.org/2000/svg" xmlns:xlink="http://www.w3.org/1999/xlink" width="308" height="246.8000030517578" style="width:308px;height:246.8000030517578px;font-family:Asana-Math, Asana;background:transparent;"><g><g><g><g transform="matrix(1,0,0,1,136.4000244140625,236.71249389648438)"><path transform="matrix(0.017,0,0,-0.017,0,0)" d="M280 181L280 106C280 46 269 32 220 30L158 27L158 -3C291 0 291 0 315 0C339 0 339 0 472 -3L472 27L424 30C375 33 364 46 364 106L364 181C423 181 444 180 472 177L472 248L364 245L365 697L285 667L2 204L2 181ZM280 245L65 245L280 597ZM958 253C958 366 877 446 763 446C715 446 679 443 626 396L626 605L931 604L931 689L574 690L574 322L594 316C641 363 668 377 717 377C813 377 873 309 873 201C873 90 809 25 700 25C646 25 596 43 582 69L536 151L512 137C535 80 547 48 561 4C589 -11 629 -20 672 -20C800 -20 958 89 958 253ZM1197 689C1115 689 1048 622 1048 539C1048 456 1115 389 1198 389C1279 389 1348 457 1348 537C1348 621 1281 689 1197 689ZM1197 649C1258 649 1308 599 1308 537C1308 479 1258 429 1198 429C1137 429 1088 478 1088 539C1088 600 1137 649 1197 649Z" stroke="rgb(153,0,0)" stroke-opacity="1" stroke-width="8" fill="rgb(153,0,0)" fill-opacity="1"></path></g></g></g></g><g><g><g><g transform="matrix(1,0,0,1,16.4000244140625,205.51251220703125)"><path transform="matrix(0.017,0,0,-0.017,0,0)" d="M263 689C108 689 29 566 29 324C29 207 50 106 85 57C120 8 176 -20 238 -20C389 -20 465 110 465 366C465 585 400 689 263 689ZM245 654C342 654 381 556 381 316C381 103 343 15 251 15C154 15 113 116 113 360C113 571 150 654 245 654ZM698 689C616 689 549 622 549 539C549 456 616 389 699 389C780 389 849 457 849 537C849 621 782 689 698 689ZM698 649C759 649 809 599 809 537C809 479 759 429 699 429C638 429 589 478 589 539C589 600 638 649 698 649Z" stroke="rgb(153,0,0)" stroke-opacity="1" stroke-width="8" fill="rgb(153,0,0)" fill-opacity="1"></path></g></g></g></g><g><g><g><g transform="matrix(1,0,0,1,262.4000244140625,119.91250610351562)"><path transform="matrix(0.017,0,0,-0.017,0,0)" d="M96 -20C207 16 255 39 309 85C406 168 457 283 457 417C457 586 376 689 244 689C116 689 20 589 20 455C20 340 95 256 199 256C233 256 272 267 290 282L360 340C352 172 243 49 62 5L62 -3ZM240 656C285 656 318 637 340 597C358 565 370 516 370 471C370 379 317 317 240 317C160 317 106 388 106 492C106 593 158 656 240 656ZM762 689C607 689 528 566 528 324C528 207 549 106 584 57C619 8 675 -20 737 -20C888 -20 964 110 964 366C964 585 899 689 762 689ZM744 654C841 654 880 556 880 316C880 103 842 15 750 15C653 15 612 116 612 360C612 571 649 654 744 654ZM1197 689C1115 689 1048 622 1048 539C1048 456 1115 389 1198 389C1279 389 1348 457 1348 537C1348 621 1281 689 1197 689ZM1197 649C1258 649 1308 599 1308 537C1308 479 1258 429 1198 429C1137 429 1088 478 1088 539C1088 600 1137 649 1197 649Z" stroke="rgb(153,0,0)" stroke-opacity="1" stroke-width="8" fill="rgb(153,0,0)" fill-opacity="1"></path></g></g></g></g><g><g><g><g transform="matrix(1,0,0,1,25.5875244140625,38.300018310546875)"><path transform="matrix(0.017,0,0,-0.017,0,0)" d="M354 664L410 662C434 661 445 653 445 635C445 621 441 589 436 559L361 125C345 34 343 32 303 28L262 25L258 -3L300 -2C347 0 366 0 390 0L487 -3L513 -3L516 25L467 28C440 30 431 38 431 58C431 67 432 76 435 93L536 648C565 654 585 656 612 656C699 656 745 617 745 543C745 448 667 378 563 378L519 378L516 367C650 172 681 124 756 -3C756 -3 841 0 841 0C842 0 856 -1 875 -3L888 -3L888 24C848 29 837 37 808 79L624 354C679 364 708 376 744 402C802 444 833 499 833 560C833 646 769 693 658 691L357 691Z" stroke="rgb(0,0,0)" stroke-opacity="1" stroke-width="8" fill="rgb(0,0,0)" fill-opacity="1"></path></g></g></g></g><g><g><g><g transform="matrix(1,0,0,1,276.07501220703125,205.30001831054688)"><path transform="matrix(0.017,0,0,-0.017,0,0)" d="M796 504C778 618 732 702 605 702C345 702 309 412 343 199C362 80 413 -16 549 -16C785 -16 825 316 796 504ZM727 381L411 381C418 485 462 676 591 676C677 676 710 585 721 517C728 472 727 426 727 381ZM727 349C722 237 703 13 560 13C458 13 430 125 418 203C410 252 411 301 411 349Z" stroke="rgb(0,0,0)" stroke-opacity="1" stroke-width="8" fill="rgb(0,0,0)" fill-opacity="1"></path></g></g></g></g></svg>
</svg>
