<svg xmlns="http://www.w3.org/2000/svg" xmlns:xlink="http://www.w3.org/1999/xlink" x="0" y="0" width="319.6000061035156" height="407.3999938964844" style="
        width:319.6000061035156px;
        height:407.3999938964844px;
        background: #FFF;
        fill: none;
">
        <svg xmlns="http://www.w3.org/2000/svg"/>
        
        <svg xmlns="http://www.w3.org/2000/svg" class="role-diagram-draw-area" style="overflow: visible;"><g class="shapes-region" style="stroke: black; fill: none;"><g class="composite-shape" data-amt="diagram/shapes/plot" transform="matrix(1,0,0,1,-90,-51.09999694824213)"><g><g/><g><g class="test-plot-expression"><defs><clipPath id="cpn4b1lkt4jdg-full-view"><rect x="1" y="1" width="428" height="430.566655476888"/></clipPath></defs><g clip-path="url(#cpn4b1lkt4jdg-full-view)"><path d=" M200.00,72.57 L200.27,72.57 L200.54,72.57 L200.80,72.58 L201.07,72.58 L201.34,72.59 L201.61,72.61 L201.87,72.62 L202.14,72.64 L202.41,72.66 L202.68,72.68 L202.95,72.70 L203.21,72.73 L203.48,72.75 L203.75,72.78 L204.02,72.81 L204.28,72.85 L204.55,72.89 L204.82,72.92 L205.09,72.96 L205.36,73.01 L205.62,73.05 L205.89,73.10 L206.16,73.15 L206.43,73.20 L206.69,73.26 L206.96,73.31 L207.23,73.37 L207.50,73.43 L207.76,73.49 L208.03,73.56 L208.30,73.63 L208.57,73.70 L208.84,73.77 L209.10,73.84 L209.37,73.92 L209.64,74.00 L209.91,74.08 L210.17,74.16 L210.44,74.24 L210.71,74.33 L210.98,74.42 L211.25,74.51 L211.51,74.61 L211.78,74.70 L212.05,74.80 L212.32,74.90 L212.58,75.00 L212.85,75.11 L213.12,75.21 L213.39,75.32 L213.66,75.44 L213.92,75.55 L214.19,75.66 L214.46,75.78 L214.73,75.90 L214.99,76.03 L215.26,76.15 L215.53,76.28 L215.80,76.41 L216.07,76.54 L216.33,76.67 L216.60,76.81 L216.87,76.94 L217.14,77.08 L217.40,77.23 L217.67,77.37 L217.94,77.52 L218.21,77.67 L218.47,77.82 L218.74,77.97 L219.01,78.13 L219.28,78.28 L219.55,78.44 L219.81,78.61 L220.08,78.77 L220.35,78.94 L220.62,79.11 L220.88,79.28 L221.15,79.45 L221.42,79.63 L221.69,79.80 L221.96,79.98 L222.22,80.16 L222.49,80.35 L222.76,80.54 L223.03,80.72 L223.29,80.91 L223.56,81.11 L223.83,81.30 L224.10,81.50 L224.37,81.70 L224.63,81.90 L224.90,82.11 L225.17,82.31 L225.44,82.52 L225.70,82.73 L225.97,82.94 L226.24,83.16 L226.51,83.38 L226.78,83.60 L227.04,83.82 L227.31,84.04 L227.58,84.27 L227.85,84.50 L228.11,84.73 L228.38,84.96 L228.65,85.19 L228.92,85.43 L229.19,85.67 L229.45,85.91 L229.72,86.16 L229.99,86.40 L230.26,86.65 L230.52,86.90 L230.79,87.15 L231.06,87.41 L231.33,87.66 L231.59,87.92 L231.86,88.19 L232.13,88.45 L232.40,88.71 L232.67,88.98 L232.93,89.25 L233.20,89.53 L233.47,89.80 L233.74,90.08 L234.00,90.36 L234.27,90.64 L234.54,90.92 L234.81,91.21 L235.08,91.49 L235.34,91.78 L235.61,92.08 L235.88,92.37 L236.15,92.67 L236.41,92.97 L236.68,93.27 L236.95,93.57 L237.22,93.88 L237.49,94.18 L237.75,94.49 L238.02,94.81 L238.29,95.12 L238.56,95.44 L238.82,95.76 L239.09,96.08 L239.36,96.40 L239.63,96.73 L239.90,97.05 L240.16,97.38 L240.43,97.72 L240.70,98.05 L240.97,98.39 L241.23,98.72 L241.50,99.07 L241.77,99.41 L242.04,99.75 L242.31,100.10 L242.57,100.45 L242.84,100.80 L243.11,101.16 L243.38,101.51 L243.64,101.87 L243.91,102.23 L244.18,102.59 L244.45,102.96 L244.71,103.33 L244.98,103.70 L245.25,104.07 L245.52,104.44 L245.79,104.82 L246.05,105.20 L246.32,105.58 L246.59,105.96 L246.86,106.34 L247.12,106.73 L247.39,107.12 L247.66,107.51 L247.93,107.91 L248.20,108.30 L248.46,108.70 L248.73,109.10 L249.00,109.50 L249.27,109.91 L249.53,110.32 L249.80,110.72 L250.07,111.14 L250.34,111.55 L250.61,111.97 L250.87,112.38 L251.14,112.80 L251.41,113.23 L251.68,113.65 L251.94,114.08 L252.21,114.51 L252.48,114.94 L252.75,115.37 L253.02,115.81 L253.28,116.24 L253.55,116.68 L253.82,117.13 L254.09,117.57 L254.35,118.02 L254.62,118.47 L254.89,118.92 L255.16,119.37 L255.42,119.83 L255.69,120.28 L255.96,120.74 L256.23,121.21 L256.50,121.67 L256.76,122.14 L257.03,122.61 L257.30,123.08 L257.57,123.55 L257.83,124.03 L258.10,124.50 L258.37,124.98 L258.64,125.47 L258.91,125.95 L259.17,126.44 L259.44,126.92 L259.71,127.42 L259.98,127.91 L260.24,128.40 L260.51,128.90 L260.78,129.40 L261.05,129.90 L261.32,130.41 L261.58,130.91 L261.85,131.42 L262.12,131.93 L262.39,132.44 L262.65,132.96 L262.92,133.48 L263.19,134.00 L263.46,134.52 L263.73,135.04 L263.99,135.57 L264.26,136.10 L264.53,136.63 L264.80,137.16 L265.06,137.69 L265.33,138.23 L265.60,138.77 L265.87,139.31 L266.14,139.86 L266.40,140.40 L266.67,140.95 L266.94,141.50 L267.21,142.05 L267.47,142.61 L267.74,143.17 L268.01,143.72 L268.28,144.29 L268.54,144.85 L268.81,145.42 L269.08,145.98 L269.35,146.55 L269.62,147.13 L269.88,147.70 L270.15,148.28 L270.42,148.86 L270.69,149.44 L270.95,150.02 L271.22,150.61 L271.49,151.19 L271.76,151.78 L272.03,152.38 L272.29,152.97 L272.56,153.57 L272.83,154.17 L273.10,154.77 L273.36,155.37 L273.63,155.98 L273.90,156.59 L274.17,157.19 L274.44,157.81 L274.70,158.42 L274.97,159.04 L275.24,159.66 L275.51,160.28 L275.77,160.90 L276.04,161.53 L276.31,162.15 L276.58,162.78 L276.85,163.42 L277.11,164.05 L277.38,164.69 L277.65,165.32 L277.92,165.97 L278.18,166.61 L278.45,167.25 L278.72,167.90 L278.99,168.55 L279.25,169.20 L279.52,169.86 L279.79,170.51 L280.06,171.17 L280.33,171.83 L280.59,172.50 L280.86,173.16 L281.13,173.83 L281.40,174.50 L281.66,175.17 L281.93,175.84 L282.20,176.52 L282.47,177.20 L282.74,177.88 L283.00,178.56 L283.27,179.25 L283.54,179.93 L283.81,180.62 L284.07,181.31 L284.34,182.01 L284.61,182.70 L284.88,183.40 L285.15,184.10 L285.41,184.80 L285.68,185.51 L285.95,186.22 L286.22,186.92 L286.48,187.64 L286.75,188.35 L287.02,189.07 L287.29,189.78 L287.56,190.50 L287.82,191.23 L288.09,191.95 L288.36,192.68 L288.63,193.41 L288.89,194.14 L289.16,194.87 L289.43,195.61 L289.70,196.35 L289.97,197.09 L290.23,197.83 L290.50,198.57 L290.77,199.32 L291.04,200.07 L291.30,200.82 L291.57,201.57 L291.84,202.33 L292.11,203.09 L292.37,203.85 L292.64,204.61 L292.91,205.37 L293.18,206.14 L293.45,206.91 L293.71,207.68 L293.98,208.45 L294.25,209.23 L294.52,210.00 L294.78,210.78 L295.05,211.57 L295.32,212.35 L295.59,213.14 L295.86,213.93 L296.12,214.72 L296.39,215.51 L296.66,216.30 L296.93,217.10 L297.19,217.90 L297.46,218.70 L297.73,219.51 L298.00,220.31 L298.27,221.12 L298.53,221.93 L298.80,222.75 L299.07,223.56 L299.34,224.38 L299.60,225.20 L299.87,226.02 L300.14,226.84 L300.41,227.67 L300.68,228.50 L300.94,229.33 L301.21,230.16 L301.48,231.00 L301.75,231.83 L302.01,232.67 L302.28,233.51 L302.55,234.36 L302.82,235.20 L303.08,236.05 L303.35,236.90 L303.62,237.75 L303.89,238.61 L304.16,239.47 L304.42,240.33 L304.69,241.19 L304.96,242.05 L305.23,242.92 L305.49,243.78 L305.76,244.65 L306.03,245.53 L306.30,246.40 L306.57,247.28 L306.83,248.16 L307.10,249.04 L307.37,249.92 L307.64,250.81 L307.90,251.70 L308.17,252.59 L308.44,253.48 L308.71,254.37 L308.98,255.27 L309.24,256.17 L309.51,257.07 L309.78,257.97 L310.05,258.88 L310.31,259.79 L310.58,260.70 L310.85,261.61 L311.12,262.52 L311.39,263.44 L311.65,264.36 L311.92,265.28 L312.19,266.20 L312.46,267.13 L312.72,268.05 L312.99,268.98 L313.26,269.92 L313.53,270.85 L313.80,271.79 L314.06,272.73 L314.33,273.67 L314.60,274.61 L314.87,275.55 L315.13,276.50 L315.40,277.45 L315.67,278.40 L315.94,279.36 L316.20,280.31 L316.47,281.27 L316.74,282.23 L317.01,283.20 L317.28,284.16 L317.54,285.13 L317.81,286.10 L318.08,287.07 L318.35,288.04 L318.61,289.02 L318.88,290.00 L319.15,290.98 L319.42,291.96 L319.69,292.95 L319.95,293.93 L320.22,294.92 L320.49,295.91 L320.76,296.91 L321.02,297.90 L321.29,298.90 L321.56,299.90 L321.83,300.90 L322.10,301.91 L322.36,302.92 L322.63,303.93 L322.90,304.94 L323.17,305.95 L323.43,306.97 L323.70,307.98 L323.97,309.01 L324.24,310.03 L324.51,311.05 L324.77,312.08 L325.04,313.11 L325.31,314.14 L325.58,315.17 L325.84,316.21 L326.11,317.25 L326.38,318.29 L326.65,319.33 L326.92,320.37 L327.18,321.42 L327.45,322.47 L327.72,323.52 L327.99,324.57 L328.25,325.63 L328.52,326.69 L328.79,327.75 L329.06,328.81 L329.32,329.87 L329.59,330.94 L329.86,332.01 L330.13,333.08 L330.40,334.15 L330.66,335.23 L330.93,336.31 L331.20,337.39 L331.47,338.47 L331.73,339.55 L332.00,340.64 L332.27,341.73 L332.54,342.82 L332.81,343.91 L333.07,345.01 L333.34,346.10 L333.61,347.20 L333.88,348.30 L334.14,349.41 L334.41,350.51 L334.68,351.62 L334.95,352.73 L335.22,353.85 L335.48,354.96 L335.75,356.08 L336.02,357.20 L336.29,358.32 L336.55,359.44 L336.82,360.57 L337.09,361.70 L337.36,362.83 L337.63,363.96 L337.89,365.10 L338.16,366.23 L338.43,367.37 L338.70,368.51 L338.96,369.66 L339.23,370.80 L339.50,371.95 L339.77,373.10 L340.03,374.26 L340.30,375.41 L340.57,376.57 L340.84,377.73 L341.11,378.89 L341.37,380.05 L341.64,381.22 L341.91,382.39 L342.18,383.56 L342.44,384.73 L342.71,385.90 L342.98,387.08 L343.25,388.26 L343.52,389.44 L343.78,390.62 L344.05,391.81 L344.32,393.00 L344.59,394.19 L344.85,395.38 L345.12,396.57 L345.39,397.77 L345.66,398.97 L345.93,400.17 L346.19,401.37 L346.46,402.58 L346.73,403.79 L347.00,405.00 L347.26,406.21 L347.53,407.42 L347.80,408.64 L348.07,409.86 L348.34,411.08 L348.60,412.30 L348.87,413.53 L349.14,414.76 L349.41,415.99 L349.67,417.22 L349.94,418.45 L350.21,419.69 L350.48,420.93 L350.75,422.17 L351.01,423.41 L351.28,424.66 L351.55,425.90 L351.82,427.15 L352.08,428.40 L352.35,429.66 L352.62,430.92 L352.89,432.17 L353.15,433.43 L353.42,434.70 L353.69,435.96 L353.96,437.23 L354.23,438.50 L354.49,439.77 L354.76,441.04 L355.03,442.32 L355.30,443.60 L355.56,444.88 L355.83,446.16 L356.10,447.45 L356.37,448.73 L356.64,450.02 L356.90,451.32 L357.17,452.61 L357.44,453.91 L357.71,455.20 L357.97,456.50 L358.24,457.81 L358.51,459.11 L358.78,460.42 L359.05,461.73 L359.31,463.04 L359.58,464.35 L359.85,465.67 L360.12,466.99 L360.38,468.31 L360.65,469.63 L360.92,470.95 L361.19,472.28 L361.46,473.61 L361.72,474.94 L361.99,476.27 L362.26,477.61 L362.53,478.95 L362.79,480.29 L363.06,481.63 L363.33,482.97 L363.60,484.32 L363.86,485.67 L364.13,487.02 L364.40,488.37 L364.67,489.73 L364.94,491.09 L365.20,492.45 L365.47,493.81 L365.74,495.17 L366.01,496.54 L366.27,497.91 L366.54,499.28 L366.81,500.65 L367.08,502.03 L367.35,503.41 L367.61,504.79 L367.88,506.17 L368.15,507.55 L368.42,508.94 L368.68,510.33 L368.95,511.72 L369.22,513.11 L369.49,514.51 L369.76,515.90 L370.02,517.30 L370.29,518.71 L370.56,520.11 L370.83,521.52 L371.09,522.92 L371.36,524.34 L371.63,525.75 L371.90,527.16 L372.17,528.58 L372.43,530.00 L372.70,531.42 L372.97,532.85 L373.24,534.27 L373.50,535.70 L373.77,537.13 L374.04,538.56 L374.31,540.00 L374.58,541.44 L374.84,542.87 L375.11,544.32 L375.38,545.76 L375.65,547.21 L375.91,548.65 L376.18,550.10 L376.45,551.56 L376.72,553.01 L376.98,554.47 L377.25,555.93 L377.52,557.39 L377.79,558.85 L378.06,560.32 L378.32,561.79 L378.59,563.26 L378.86,564.73 L379.13,566.20 L379.39,567.68 L379.66,569.16 L379.93,570.64 L380.20,572.12 L380.47,573.61 L380.73,575.10 L381.00,576.59 L381.27,578.08 L381.54,579.58 L381.80,581.07 L382.07,582.57 L382.34,584.07 L382.61,585.58 L382.88,587.08 L383.14,588.59 L383.41,590.10 L383.68,591.61 L383.95,593.13 L384.21,594.64 L384.48,596.16 L384.75,597.68 L385.02,599.20 L385.29,600.73 L385.55,602.26 L385.82,603.79 L386.09,605.32 L386.36,606.85 L386.62,608.39 L386.89,609.93 L387.16,611.47 L387.43,613.01 L387.69,614.56 L387.96,616.11 L388.23,617.65 L388.50,619.21 L388.77,620.76 L389.03,622.32 L389.30,623.88 L389.57,625.44 L389.84,627.00 L390.10,628.56 L390.37,630.13 L390.64,631.70 L390.91,633.27 L391.18,634.85 L391.44,636.42 L391.71,638.00 L391.98,639.58 L392.25,641.16 L392.51,642.75 L392.78,644.34 L393.05,645.93 L393.32,647.52 L393.59,649.11 L393.85,650.71 L394.12,652.30 L394.39,653.91 L394.66,655.51 L394.92,657.11 L395.19,658.72 L395.46,660.33 L395.73,661.94 L396.00,663.55 L396.26,665.17 L396.53,666.79 L396.80,668.41 L397.07,670.03 L397.33,671.66 L397.60,673.28 L397.87,674.91 L398.14,676.54 L398.41,678.18 L398.67,679.81 L398.94,681.45 L399.21,683.09 L399.48,684.73 L399.74,686.38 L400.01,688.02 L400.28,689.67 L400.55,691.32 L400.81,692.98 L401.08,694.63 L401.35,696.29 L401.62,697.95 L401.89,699.61 L402.15,701.28 L402.42,702.94 L402.69,704.61 L402.96,706.28 L403.22,707.96 L403.49,709.63 L403.76,711.31 L404.03,712.99 L404.30,714.67 L404.56,716.35 L404.83,718.04 L405.10,719.73 L405.37,721.42 L405.63,723.11 L405.90,724.81 L406.17,726.51 L406.44,728.21 L406.71,729.91 L406.97,731.61 L407.24,733.32 L407.51,735.03 L407.78,736.74 L408.04,738.45 L408.31,740.16 L408.58,741.88 L408.85,743.60 L409.12,745.32 L409.38,747.05 L409.65,748.77 L409.92,750.50 L410.19,752.23 L410.45,753.97 L410.72,755.70 L410.99,757.44 L411.26,759.18 L411.53,760.92 L411.79,762.66 L412.06,764.41 L412.33,766.16 L412.60,767.91 L412.86,769.66 L413.13,771.41 L413.40,773.17 L413.67,774.93 L413.93,776.69 L414.20,778.45 L414.47,780.22 L414.74,781.99 L415.01,783.76 L415.27,785.53 L415.54,787.31 L415.81,789.08 L416.08,790.86 L416.34,792.64 L416.61,794.43 L416.88,796.21 L417.15,798.00 L417.42,799.79 L417.68,801.58 L417.95,803.38 L418.22,805.17 L418.49,806.97 L418.75,808.77 L419.02,810.58 L419.29,812.38 L419.56,814.19 L419.83,816.00 L420.09,817.81 L420.36,819.63 L420.63,821.44 L420.90,823.26 L421.16,825.08 L421.43,826.91 L421.70,828.73 L421.97,830.56 L422.24,832.39 L422.50,834.22 L422.77,836.06 L423.04,837.89 L423.31,839.73 L423.57,841.57 L423.84,843.41 L424.11,845.26 L424.38,847.11 L424.64,848.96 L424.91,850.81 L425.18,852.66 L425.45,854.52 L425.72,856.38 L425.98,858.24 L426.25,860.10 L426.52,861.97 L426.79,863.83 L427.05,865.13 L427.32,865.13 L427.59,865.13 L427.86,865.13 L428.13,865.13 L428.39,865.13 L428.66,865.13 L428.93,865.13 L429.20,865.13 L429.46,865.13 L429.73,865.13 L430.00,865.13" style="stroke-width: 1; stroke: rgb(153, 0, 0); stroke-opacity: 1; stroke-dasharray: 3;"/></g></g><rect class="real" x="1" y="1" width="428" height="430.566655476888" style="fill: transparent; stroke: none;"/></g></g></g><g class="arrow-line"><path class="connection real" stroke-dasharray="3" d="  M78.47,22.55 L78.47,382.8" style="stroke: rgb(153, 0, 0); stroke-opacity: 1; stroke-width: 1; fill: none; fill-opacity: 1;"/></g><g class="composite-shape"><path class="real" d=" M69.57,22.55 C69.57,17.63 73.55,13.65 78.47,13.65 C83.38,13.65 87.37,17.63 87.37,22.55 C87.37,27.47 83.38,31.45 78.47,31.45 C73.55,31.45 69.57,27.47 69.57,22.55 Z" style="stroke-width: 1; stroke: rgb(153, 0, 0); stroke-opacity: 1; fill: rgb(153, 0, 0); fill-opacity: 1;"/></g><g class="composite-shape"><path class="real" d=" M102.88,22.26 C102.88,17.35 106.87,13.36 111.78,13.36 C116.7,13.36 120.68,17.35 120.68,22.26 C120.68,27.18 116.7,31.16 111.78,31.16 C106.87,31.16 102.88,27.18 102.88,22.26 Z" style="stroke-width: 1; stroke: rgb(153, 0, 0); stroke-opacity: 1; fill: rgb(153, 0, 0); fill-opacity: 1;"/></g><g class="arrow-line"><path class="connection real" stroke-dasharray="" d="  M111.78,22.26 L155.68,22.26" style="stroke: rgb(153, 0, 0); stroke-opacity: 1; stroke-width: 2; fill: none; fill-opacity: 1;"/><g stroke="none" fill="rgb(153,0,0)" fill-opacity="1" transform="matrix(-1,1.2246467991473532e-16,-1.2246467991473532e-16,-1,159.67999267578125,22.264286477225173)" style="stroke: none; fill: rgb(153, 0, 0); stroke-width: 2;"><path d=" M13.4,-6.43 L0,0 L13.4,6.44 L8.9,0 Z"/></g></g><g class="composite-shape"><path class="real" d=" M150.78,58.9 C150.78,53.98 154.76,50 159.68,50 C164.6,50 168.58,53.98 168.58,58.9 C168.58,63.82 164.6,67.8 159.68,67.8 C154.76,67.8 150.78,63.82 150.78,58.9 Z" style="stroke-width: 1; stroke: rgb(153, 0, 0); stroke-opacity: 1; fill: rgb(153, 0, 0); fill-opacity: 1;"/></g><g class="arrow-line"><path class="connection real" stroke-dasharray="" d="  M159.68,58.9 L203.58,58.9" style="stroke: rgb(153, 0, 0); stroke-opacity: 1; stroke-width: 2; fill: none; fill-opacity: 1;"/><g stroke="none" fill="rgb(153,0,0)" fill-opacity="1" transform="matrix(-1,1.2246467991473532e-16,-1.2246467991473532e-16,-1,207.57903297061011,58.900000000000006)" style="stroke: none; fill: rgb(153, 0, 0); stroke-width: 2;"><path d=" M13.4,-6.43 L0,0 L13.4,6.44 L8.9,0 Z"/></g></g><g class="composite-shape"><path class="real" d=" M198.68,168.9 C198.68,163.98 202.66,160 207.58,160 C212.49,160 216.48,163.98 216.48,168.9 C216.48,173.82 212.49,177.8 207.58,177.8 C202.66,177.8 198.68,173.82 198.68,168.9 Z" style="stroke-width: 1; stroke: rgb(153, 0, 0); stroke-opacity: 1; fill: rgb(153, 0, 0); fill-opacity: 1;"/></g><g class="arrow-line"><path class="connection real" stroke-dasharray="" d="  M207.58,168.9 L251.48,168.9" style="stroke: rgb(153, 0, 0); stroke-opacity: 1; stroke-width: 2; fill: none; fill-opacity: 1;"/><g stroke="none" fill="rgb(153,0,0)" fill-opacity="1" transform="matrix(-1,1.2246467991473532e-16,-1.2246467991473532e-16,-1,255.47807326543895,168.9)" style="stroke: none; fill: rgb(153, 0, 0); stroke-width: 2;"><path d=" M13.4,-6.43 L0,0 L13.4,6.44 L8.9,0 Z"/></g></g><g class="composite-shape"><path class="real" d=" M246.58,348.9 C246.58,343.98 250.56,340 255.48,340 C260.39,340 264.38,343.98 264.38,348.9 C264.38,353.82 260.39,357.8 255.48,357.8 C250.56,357.8 246.58,353.82 246.58,348.9 Z" style="stroke-width: 1; stroke: rgb(153, 0, 0); stroke-opacity: 1; fill: rgb(153, 0, 0); fill-opacity: 1;"/></g><g class="composite-shape"><path class="real" d=" M69.57,58.9 C69.57,53.98 73.55,50 78.47,50 C83.38,50 87.37,53.98 87.37,58.9 C87.37,63.82 83.38,67.8 78.47,67.8 C73.55,67.8 69.57,63.82 69.57,58.9 Z" style="stroke-width: 1; stroke: rgb(153, 0, 0); stroke-opacity: 1; fill: rgb(153, 0, 0); fill-opacity: 1;"/></g><g class="composite-shape"><path class="real" d=" M69.57,168.9 C69.57,163.98 73.55,160 78.47,160 C83.38,160 87.37,163.98 87.37,168.9 C87.37,173.82 83.38,177.8 78.47,177.8 C73.55,177.8 69.57,173.82 69.57,168.9 Z" style="stroke-width: 1; stroke: rgb(153, 0, 0); stroke-opacity: 1; fill: rgb(153, 0, 0); fill-opacity: 1;"/></g><g class="composite-shape"><path class="real" d=" M69.57,348.9 C69.57,343.98 73.55,340 78.47,340 C83.38,340 87.37,343.98 87.37,348.9 C87.37,353.82 83.38,357.8 78.47,357.8 C73.55,357.8 69.57,353.82 69.57,348.9 Z" style="stroke-width: 1; stroke: rgb(153, 0, 0); stroke-opacity: 1; fill: rgb(153, 0, 0); fill-opacity: 1;"/></g><g class="arrow-line"><path class="connection real" stroke-dasharray="" d="  M255.48,348.9 L299.38,348.9" style="stroke: rgb(153, 0, 0); stroke-opacity: 1; stroke-width: 2; fill: none; fill-opacity: 1;"/><g stroke="none" fill="rgb(153,0,0)" fill-opacity="1" transform="matrix(-1,1.2246467991473532e-16,-1.2246467991473532e-16,-1,303.3771135602678,348.90000000000015)" style="stroke: none; fill: rgb(153, 0, 0); stroke-width: 2;"><path d=" M13.4,-6.43 L0,0 L13.4,6.44 L8.9,0 Z"/></g></g><g/></g><g/><g/><g/></svg>
        <svg xmlns="http://www.w3.org/2000/svg" xmlns:xlink="http://www.w3.org/1999/xlink" width="318" height="405.8000183105469" style="width:318px;height:405.8000183105469px;font-family:Asana-Math, Asana;background:#FFF;"><g><g><g><g transform="matrix(1,0,0,1,20.79998779296875,28.800003051757812)"><path transform="matrix(0.017,0,0,-0.017,0,0)" d="M125 390L69 107C68 99 56 61 56 31C56 6 67 -9 86 -9C121 -9 156 11 234 74L265 99L255 117L210 86C181 66 161 56 150 56C141 56 136 64 136 76C136 102 150 183 179 328L192 390L299 390L310 440C272 436 238 434 200 434C216 528 227 577 245 631L234 646C214 634 187 622 156 610L131 440C87 419 61 408 43 403L41 390Z" stroke="rgb(0,0,0)" stroke-opacity="1" stroke-width="8" fill="rgb(0,0,0)" fill-opacity="1"></path></g></g><g><g transform="matrix(1,0,0,1,31.54998779296875,28.800003051757812)"><path transform="matrix(0.017,0,0,-0.017,0,0)" d="M604 347L604 406L65 406L65 347ZM604 134L604 193L65 193L65 134Z" stroke="rgb(0,0,0)" stroke-opacity="1" stroke-width="8" fill="rgb(0,0,0)" fill-opacity="1"></path></g></g><g><g transform="matrix(1,0,0,1,48.01251220703125,28.800003051757812)"><path transform="matrix(0.017,0,0,-0.017,0,0)" d="M263 689C108 689 29 566 29 324C29 207 50 106 85 57C120 8 176 -20 238 -20C389 -20 465 110 465 366C465 585 400 689 263 689ZM245 654C342 654 381 556 381 316C381 103 343 15 251 15C154 15 113 116 113 360C113 571 150 654 245 654Z" stroke="rgb(0,0,0)" stroke-opacity="1" stroke-width="8" fill="rgb(0,0,0)" fill-opacity="1"></path></g></g></g></g><g><g><g><g transform="matrix(1,0,0,1,20.79998779296875,67.80000305175781)"><path transform="matrix(0.017,0,0,-0.017,0,0)" d="M125 390L69 107C68 99 56 61 56 31C56 6 67 -9 86 -9C121 -9 156 11 234 74L265 99L255 117L210 86C181 66 161 56 150 56C141 56 136 64 136 76C136 102 150 183 179 328L192 390L299 390L310 440C272 436 238 434 200 434C216 528 227 577 245 631L234 646C214 634 187 622 156 610L131 440C87 419 61 408 43 403L41 390Z" stroke="rgb(0,0,0)" stroke-opacity="1" stroke-width="8" fill="rgb(0,0,0)" fill-opacity="1"></path></g></g><g><g transform="matrix(1,0,0,1,31.54998779296875,67.80000305175781)"><path transform="matrix(0.017,0,0,-0.017,0,0)" d="M604 347L604 406L65 406L65 347ZM604 134L604 193L65 193L65 134Z" stroke="rgb(0,0,0)" stroke-opacity="1" stroke-width="8" fill="rgb(0,0,0)" fill-opacity="1"></path></g></g><g><g transform="matrix(1,0,0,1,48.01251220703125,67.80000305175781)"><path transform="matrix(0.017,0,0,-0.017,0,0)" d="M418 -3L418 27L366 30C311 33 301 44 301 96L301 700L60 598L67 548L217 614L217 96C217 44 206 33 152 30L96 27L96 -3C250 0 250 0 261 0C292 0 402 -3 418 -3Z" stroke="rgb(0,0,0)" stroke-opacity="1" stroke-width="8" fill="rgb(0,0,0)" fill-opacity="1"></path></g></g></g></g><g><g><g><g transform="matrix(1,0,0,1,20.79998779296875,177.8000030517578)"><path transform="matrix(0.017,0,0,-0.017,0,0)" d="M125 390L69 107C68 99 56 61 56 31C56 6 67 -9 86 -9C121 -9 156 11 234 74L265 99L255 117L210 86C181 66 161 56 150 56C141 56 136 64 136 76C136 102 150 183 179 328L192 390L299 390L310 440C272 436 238 434 200 434C216 528 227 577 245 631L234 646C214 634 187 622 156 610L131 440C87 419 61 408 43 403L41 390Z" stroke="rgb(0,0,0)" stroke-opacity="1" stroke-width="8" fill="rgb(0,0,0)" fill-opacity="1"></path></g></g><g><g transform="matrix(1,0,0,1,31.54998779296875,177.8000030517578)"><path transform="matrix(0.017,0,0,-0.017,0,0)" d="M604 347L604 406L65 406L65 347ZM604 134L604 193L65 193L65 134Z" stroke="rgb(0,0,0)" stroke-opacity="1" stroke-width="8" fill="rgb(0,0,0)" fill-opacity="1"></path></g></g><g><g transform="matrix(1,0,0,1,48.01251220703125,177.8000030517578)"><path transform="matrix(0.017,0,0,-0.017,0,0)" d="M16 23L16 -3C203 -3 203 0 239 0C275 0 275 -3 468 -3L468 82C353 77 307 81 122 77L304 270C401 373 431 428 431 503C431 618 353 689 226 689C154 689 105 669 56 619L39 483L68 483L81 529C97 587 133 612 200 612C286 612 341 558 341 473C341 398 299 324 186 204Z" stroke="rgb(0,0,0)" stroke-opacity="1" stroke-width="8" fill="rgb(0,0,0)" fill-opacity="1"></path></g></g></g></g><g><g><g><g transform="matrix(1,0,0,1,20.79998779296875,357.80003356933594)"><path transform="matrix(0.017,0,0,-0.017,0,0)" d="M125 390L69 107C68 99 56 61 56 31C56 6 67 -9 86 -9C121 -9 156 11 234 74L265 99L255 117L210 86C181 66 161 56 150 56C141 56 136 64 136 76C136 102 150 183 179 328L192 390L299 390L310 440C272 436 238 434 200 434C216 528 227 577 245 631L234 646C214 634 187 622 156 610L131 440C87 419 61 408 43 403L41 390Z" stroke="rgb(0,0,0)" stroke-opacity="1" stroke-width="8" fill="rgb(0,0,0)" fill-opacity="1"></path></g></g><g><g transform="matrix(1,0,0,1,31.54998779296875,357.80003356933594)"><path transform="matrix(0.017,0,0,-0.017,0,0)" d="M604 347L604 406L65 406L65 347ZM604 134L604 193L65 193L65 134Z" stroke="rgb(0,0,0)" stroke-opacity="1" stroke-width="8" fill="rgb(0,0,0)" fill-opacity="1"></path></g></g><g><g transform="matrix(1,0,0,1,48.01251220703125,357.80003356933594)"><path transform="matrix(0.017,0,0,-0.017,0,0)" d="M462 224C462 345 355 366 308 374C388 436 418 482 418 541C418 630 344 689 233 689C165 689 120 670 72 622L43 498L74 498L92 554C103 588 166 622 218 622C283 622 336 569 336 506C336 431 277 368 206 368C198 368 187 369 174 370L159 371L147 318L154 312C192 329 211 334 238 334C321 334 369 281 369 190C369 88 308 21 215 21C169 21 128 36 98 64C74 86 61 109 42 163L15 153C36 92 44 56 50 6C103 -12 147 -20 184 -20C307 -20 462 87 462 224Z" stroke="rgb(0,0,0)" stroke-opacity="1" stroke-width="8" fill="rgb(0,0,0)" fill-opacity="1"></path></g></g></g></g></svg>
</svg>
