<svg xmlns="http://www.w3.org/2000/svg" xmlns:xlink="http://www.w3.org/1999/xlink" x="0" y="0" width="369.6000061035156" height="194.60000610351562" style="
        width:369.6000061035156px;
        height:194.60000610351562px;
        background: transparent;
        fill: none;
">
        <svg xmlns="http://www.w3.org/2000/svg"/>
        
        <svg xmlns="http://www.w3.org/2000/svg" class="role-diagram-draw-area" style="overflow: visible;"><g class="shapes-region" style="stroke: black; fill: none;"><g class="composite-shape" data-amt="diagram/shapes/plot" transform="matrix(1,0,0,1,-48.166666666666686,-30.999999999999986)"><g><g/><g><g class="test-plot-expression"><defs><clipPath id="cpcwbq8ukpvdg-full-view"><rect x="1" y="1" width="428" height="335"/></clipPath></defs><g clip-path="url(#cpcwbq8ukpvdg-full-view)"><path d=" M70.00,159.00 L70.30,158.70 L70.61,158.40 L70.91,158.10 L71.21,157.79 L71.51,157.50 L71.82,157.20 L72.12,156.90 L72.42,156.60 L72.72,156.30 L73.03,156.01 L73.33,155.71 L73.63,155.42 L73.93,155.12 L74.24,154.83 L74.54,154.54 L74.84,154.25 L75.15,153.96 L75.45,153.67 L75.75,153.38 L76.05,153.09 L76.36,152.80 L76.66,152.51 L76.96,152.22 L77.26,151.94 L77.57,151.65 L77.87,151.37 L78.17,151.08 L78.47,150.80 L78.78,150.52 L79.08,150.24 L79.38,149.96 L79.69,149.68 L79.99,149.40 L80.29,149.12 L80.59,148.84 L80.90,148.56 L81.20,148.28 L81.50,148.01 L81.80,147.73 L82.11,147.46 L82.41,147.18 L82.71,146.91 L83.02,146.64 L83.32,146.36 L83.62,146.09 L83.92,145.82 L84.23,145.55 L84.53,145.28 L84.83,145.01 L85.13,144.75 L85.44,144.48 L85.74,144.21 L86.04,143.95 L86.34,143.68 L86.65,143.42 L86.95,143.16 L87.25,142.89 L87.56,142.63 L87.86,142.37 L88.16,142.11 L88.46,141.85 L88.77,141.59 L89.07,141.33 L89.37,141.07 L89.67,140.81 L89.98,140.56 L90.28,140.30 L90.58,140.05 L90.88,139.79 L91.19,139.54 L91.49,139.29 L91.79,139.03 L92.10,138.78 L92.40,138.53 L92.70,138.28 L93.00,138.03 L93.31,137.78 L93.61,137.53 L93.91,137.29 L94.21,137.04 L94.52,136.79 L94.82,136.55 L95.12,136.31 L95.42,136.06 L95.73,135.82 L96.03,135.58 L96.33,135.33 L96.64,135.09 L96.94,134.85 L97.24,134.61 L97.54,134.37 L97.85,134.14 L98.15,133.90 L98.45,133.66 L98.75,133.43 L99.06,133.19 L99.36,132.96 L99.66,132.72 L99.97,132.49 L100.27,132.26 L100.57,132.02 L100.87,131.79 L101.18,131.56 L101.48,131.33 L101.78,131.10 L102.08,130.88 L102.39,130.65 L102.69,130.42 L102.99,130.19 L103.29,129.97 L103.60,129.74 L103.90,129.52 L104.20,129.30 L104.51,129.07 L104.81,128.85 L105.11,128.63 L105.41,128.41 L105.72,128.19 L106.02,127.97 L106.32,127.75 L106.62,127.53 L106.93,127.32 L107.23,127.10 L107.53,126.89 L107.83,126.67 L108.14,126.46 L108.44,126.24 L108.74,126.03 L109.05,125.82 L109.35,125.61 L109.65,125.40 L109.95,125.19 L110.26,124.98 L110.56,124.77 L110.86,124.56 L111.16,124.35 L111.47,124.15 L111.77,123.94 L112.07,123.74 L112.37,123.53 L112.68,123.33 L112.98,123.12 L113.28,122.92 L113.59,122.72 L113.89,122.52 L114.19,122.32 L114.49,122.12 L114.80,121.92 L115.10,121.72 L115.40,121.53 L115.70,121.33 L116.01,121.13 L116.31,120.94 L116.61,120.74 L116.92,120.55 L117.22,120.36 L117.52,120.16 L117.82,119.97 L118.13,119.78 L118.43,119.59 L118.73,119.40 L119.03,119.21 L119.34,119.03 L119.64,118.84 L119.94,118.65 L120.24,118.47 L120.55,118.28 L120.85,118.10 L121.15,117.91 L121.46,117.73 L121.76,117.55 L122.06,117.36 L122.36,117.18 L122.67,117.00 L122.97,116.82 L123.27,116.64 L123.57,116.47 L123.88,116.29 L124.18,116.11 L124.48,115.93 L124.78,115.76 L125.09,115.58 L125.39,115.41 L125.69,115.24 L126.00,115.06 L126.30,114.89 L126.60,114.72 L126.90,114.55 L127.21,114.38 L127.51,114.21 L127.81,114.04 L128.11,113.88 L128.42,113.71 L128.72,113.54 L129.02,113.38 L129.32,113.21 L129.63,113.05 L129.93,112.88 L130.23,112.72 L130.54,112.56 L130.84,112.40 L131.14,112.24 L131.44,112.08 L131.75,111.92 L132.05,111.76 L132.35,111.60 L132.65,111.44 L132.96,111.29 L133.26,111.13 L133.56,110.98 L133.86,110.82 L134.17,110.67 L134.47,110.52 L134.77,110.36 L135.08,110.21 L135.38,110.06 L135.68,109.91 L135.98,109.76 L136.29,109.61 L136.59,109.47 L136.89,109.32 L137.19,109.17 L137.50,109.03 L137.80,108.88 L138.10,108.74 L138.41,108.59 L138.71,108.45 L139.01,108.31 L139.31,108.16 L139.62,108.02 L139.92,107.88 L140.22,107.74 L140.52,107.61 L140.83,107.47 L141.13,107.33 L141.43,107.19 L141.73,107.06 L142.04,106.92 L142.34,106.79 L142.64,106.65 L142.95,106.52 L143.25,106.39 L143.55,106.26 L143.85,106.12 L144.16,105.99 L144.46,105.86 L144.76,105.74 L145.06,105.61 L145.37,105.48 L145.67,105.35 L145.97,105.23 L146.27,105.10 L146.58,104.98 L146.88,104.85 L147.18,104.73 L147.49,104.61 L147.79,104.48 L148.09,104.36 L148.39,104.24 L148.70,104.12 L149.00,104.00 L149.30,103.89 L149.60,103.77 L149.91,103.65 L150.21,103.53 L150.51,103.42 L150.81,103.30 L151.12,103.19 L151.42,103.08 L151.72,102.96 L152.03,102.85 L152.33,102.74 L152.63,102.63 L152.93,102.52 L153.24,102.41 L153.54,102.30 L153.84,102.19 L154.14,102.09 L154.45,101.98 L154.75,101.88 L155.05,101.77 L155.36,101.67 L155.66,101.56 L155.96,101.46 L156.26,101.36 L156.57,101.26 L156.87,101.16 L157.17,101.06 L157.47,100.96 L157.78,100.86 L158.08,100.76 L158.38,100.66 L158.68,100.57 L158.99,100.47 L159.29,100.37 L159.59,100.28 L159.90,100.19 L160.20,100.09 L160.50,100.00 L160.80,99.91 L161.11,99.82 L161.41,99.73 L161.71,99.64 L162.01,99.55 L162.32,99.46 L162.62,99.37 L162.92,99.29 L163.22,99.20 L163.53,99.12 L163.83,99.03 L164.13,98.95 L164.44,98.86 L164.74,98.78 L165.04,98.70 L165.34,98.62 L165.65,98.54 L165.95,98.46 L166.25,98.38 L166.55,98.30 L166.86,98.22 L167.16,98.15 L167.46,98.07 L167.76,98.00 L168.07,97.92 L168.37,97.85 L168.67,97.77 L168.98,97.70 L169.28,97.63 L169.58,97.56 L169.88,97.49 L170.19,97.42 L170.49,97.35 L170.79,97.28 L171.09,97.21 L171.40,97.15 L171.70,97.08 L172.00,97.01 L172.31,96.95 L172.61,96.89 L172.91,96.82 L173.21,96.76 L173.52,96.70 L173.82,96.64 L174.12,96.58 L174.42,96.52 L174.73,96.46 L175.03,96.40 L175.33,96.34 L175.63,96.28 L175.94,96.23 L176.24,96.17 L176.54,96.12 L176.85,96.06 L177.15,96.01 L177.45,95.96 L177.75,95.90 L178.06,95.85 L178.36,95.80 L178.66,95.75 L178.96,95.70 L179.27,95.65 L179.57,95.61 L179.87,95.56 L180.17,95.51 L180.48,95.47 L180.78,95.42 L181.08,95.38 L181.39,95.33 L181.69,95.29 L181.99,95.25 L182.29,95.21 L182.60,95.16 L182.90,95.12 L183.20,95.09 L183.50,95.05 L183.81,95.01 L184.11,94.97 L184.41,94.93 L184.71,94.90 L185.02,94.86 L185.32,94.83 L185.62,94.80 L185.93,94.76 L186.23,94.73 L186.53,94.70 L186.83,94.67 L187.14,94.64 L187.44,94.61 L187.74,94.58 L188.04,94.55 L188.35,94.52 L188.65,94.50 L188.95,94.47 L189.25,94.44 L189.56,94.42 L189.86,94.40 L190.16,94.37 L190.47,94.35 L190.77,94.33 L191.07,94.31 L191.37,94.29 L191.68,94.27 L191.98,94.25 L192.28,94.23 L192.58,94.21 L192.89,94.19 L193.19,94.18 L193.49,94.16 L193.80,94.15 L194.10,94.13 L194.40,94.12 L194.70,94.11 L195.01,94.10 L195.31,94.08 L195.61,94.07 L195.91,94.06 L196.22,94.06 L196.52,94.05 L196.82,94.04 L197.12,94.03 L197.43,94.03 L197.73,94.02 L198.03,94.01 L198.34,94.01 L198.64,94.01 L198.94,94.00 L199.24,94.00 L199.55,94.00 L199.85,94.00 L200.15,94.00 L200.45,94.00 L200.76,94.00 L201.06,94.00 L201.36,94.01 L201.66,94.01 L201.97,94.01 L202.27,94.02 L202.57,94.03 L202.88,94.03 L203.18,94.04 L203.48,94.05 L203.78,94.06 L204.09,94.06 L204.39,94.07 L204.69,94.08 L204.99,94.10 L205.30,94.11 L205.60,94.12 L205.90,94.13 L206.20,94.15 L206.51,94.16 L206.81,94.18 L207.11,94.19 L207.42,94.21 L207.72,94.23 L208.02,94.25 L208.32,94.27 L208.63,94.29 L208.93,94.31 L209.23,94.33 L209.53,94.35 L209.84,94.37 L210.14,94.40 L210.44,94.42 L210.75,94.44 L211.05,94.47 L211.35,94.50 L211.65,94.52 L211.96,94.55 L212.26,94.58 L212.56,94.61 L212.86,94.64 L213.17,94.67 L213.47,94.70 L213.77,94.73 L214.07,94.76 L214.38,94.80 L214.68,94.83 L214.98,94.86 L215.29,94.90 L215.59,94.93 L215.89,94.97 L216.19,95.01 L216.50,95.05 L216.80,95.09 L217.10,95.12 L217.40,95.16 L217.71,95.21 L218.01,95.25 L218.31,95.29 L218.61,95.33 L218.92,95.38 L219.22,95.42 L219.52,95.47 L219.83,95.51 L220.13,95.56 L220.43,95.61 L220.73,95.65 L221.04,95.70 L221.34,95.75 L221.64,95.80 L221.94,95.85 L222.25,95.90 L222.55,95.96 L222.85,96.01 L223.15,96.06 L223.46,96.12 L223.76,96.17 L224.06,96.23 L224.37,96.28 L224.67,96.34 L224.97,96.40 L225.27,96.46 L225.58,96.52 L225.88,96.58 L226.18,96.64 L226.48,96.70 L226.79,96.76 L227.09,96.82 L227.39,96.89 L227.69,96.95 L228.00,97.01 L228.30,97.08 L228.60,97.15 L228.91,97.21 L229.21,97.28 L229.51,97.35 L229.81,97.42 L230.12,97.49 L230.42,97.56 L230.72,97.63 L231.02,97.70 L231.33,97.77 L231.63,97.85 L231.93,97.92 L232.24,98.00 L232.54,98.07 L232.84,98.15 L233.14,98.22 L233.45,98.30 L233.75,98.38 L234.05,98.46 L234.35,98.54 L234.66,98.62 L234.96,98.70 L235.26,98.78 L235.56,98.86 L235.87,98.95 L236.17,99.03 L236.47,99.12 L236.78,99.20 L237.08,99.29 L237.38,99.37 L237.68,99.46 L237.99,99.55 L238.29,99.64 L238.59,99.73 L238.89,99.82 L239.20,99.91 L239.50,100.00 L239.80,100.09 L240.10,100.19 L240.41,100.28 L240.71,100.37 L241.01,100.47 L241.32,100.57 L241.62,100.66 L241.92,100.76 L242.22,100.86 L242.53,100.96 L242.83,101.06 L243.13,101.16 L243.43,101.26 L243.74,101.36 L244.04,101.46 L244.34,101.56 L244.64,101.67 L244.95,101.77 L245.25,101.88 L245.55,101.98 L245.86,102.09 L246.16,102.19 L246.46,102.30 L246.76,102.41 L247.07,102.52 L247.37,102.63 L247.67,102.74 L247.97,102.85 L248.28,102.96 L248.58,103.08 L248.88,103.19 L249.19,103.30 L249.49,103.42 L249.79,103.53 L250.09,103.65 L250.40,103.77 L250.70,103.89 L251.00,104.00 L251.30,104.12 L251.61,104.24 L251.91,104.36 L252.21,104.48 L252.51,104.61 L252.82,104.73 L253.12,104.85 L253.42,104.98 L253.73,105.10 L254.03,105.23 L254.33,105.35 L254.63,105.48 L254.94,105.61 L255.24,105.74 L255.54,105.86 L255.84,105.99 L256.15,106.12 L256.45,106.26 L256.75,106.39 L257.05,106.52 L257.36,106.65 L257.66,106.79 L257.96,106.92 L258.27,107.06 L258.57,107.19 L258.87,107.33 L259.17,107.47 L259.48,107.61 L259.78,107.74 L260.08,107.88 L260.38,108.02 L260.69,108.16 L260.99,108.31 L261.29,108.45 L261.59,108.59 L261.90,108.74 L262.20,108.88 L262.50,109.03 L262.81,109.17 L263.11,109.32 L263.41,109.47 L263.71,109.61 L264.02,109.76 L264.32,109.91 L264.62,110.06 L264.92,110.21 L265.23,110.36 L265.53,110.52 L265.83,110.67 L266.14,110.82 L266.44,110.98 L266.74,111.13 L267.04,111.29 L267.35,111.44 L267.65,111.60 L267.95,111.76 L268.25,111.92 L268.56,112.08 L268.86,112.24 L269.16,112.40 L269.46,112.56 L269.77,112.72 L270.07,112.88 L270.37,113.05 L270.68,113.21 L270.98,113.38 L271.28,113.54 L271.58,113.71 L271.89,113.88 L272.19,114.04 L272.49,114.21 L272.79,114.38 L273.10,114.55 L273.40,114.72 L273.70,114.89 L274.00,115.06 L274.31,115.24 L274.61,115.41 L274.91,115.58 L275.22,115.76 L275.52,115.93 L275.82,116.11 L276.12,116.29 L276.43,116.47 L276.73,116.64 L277.03,116.82 L277.33,117.00 L277.64,117.18 L277.94,117.36 L278.24,117.55 L278.54,117.73 L278.85,117.91 L279.15,118.10 L279.45,118.28 L279.76,118.47 L280.06,118.65 L280.36,118.84 L280.66,119.03 L280.97,119.21 L281.27,119.40 L281.57,119.59 L281.87,119.78 L282.18,119.97 L282.48,120.16 L282.78,120.36 L283.08,120.55 L283.39,120.74 L283.69,120.94 L283.99,121.13 L284.30,121.33 L284.60,121.53 L284.90,121.72 L285.20,121.92 L285.51,122.12 L285.81,122.32 L286.11,122.52 L286.41,122.72 L286.72,122.92 L287.02,123.12 L287.32,123.33 L287.63,123.53 L287.93,123.74 L288.23,123.94 L288.53,124.15 L288.84,124.35 L289.14,124.56 L289.44,124.77 L289.74,124.98 L290.05,125.19 L290.35,125.40 L290.65,125.61 L290.95,125.82 L291.26,126.03 L291.56,126.24 L291.86,126.46 L292.17,126.67 L292.47,126.89 L292.77,127.10 L293.07,127.32 L293.38,127.53 L293.68,127.75 L293.98,127.97 L294.28,128.19 L294.59,128.41 L294.89,128.63 L295.19,128.85 L295.49,129.07 L295.80,129.30 L296.10,129.52 L296.40,129.74 L296.71,129.97 L297.01,130.19 L297.31,130.42 L297.61,130.65 L297.92,130.88 L298.22,131.10 L298.52,131.33 L298.82,131.56 L299.13,131.79 L299.43,132.02 L299.73,132.26 L300.03,132.49 L300.34,132.72 L300.64,132.96 L300.94,133.19 L301.25,133.43 L301.55,133.66 L301.85,133.90 L302.15,134.14 L302.46,134.37 L302.76,134.61 L303.06,134.85 L303.36,135.09 L303.67,135.33 L303.97,135.58 L304.27,135.82 L304.58,136.06 L304.88,136.31 L305.18,136.55 L305.48,136.79 L305.79,137.04 L306.09,137.29 L306.39,137.53 L306.69,137.78 L307.00,138.03 L307.30,138.28 L307.60,138.53 L307.90,138.78 L308.21,139.03 L308.51,139.29 L308.81,139.54 L309.12,139.79 L309.42,140.05 L309.72,140.30 L310.02,140.56 L310.33,140.81 L310.63,141.07 L310.93,141.33 L311.23,141.59 L311.54,141.85 L311.84,142.11 L312.14,142.37 L312.44,142.63 L312.75,142.89 L313.05,143.16 L313.35,143.42 L313.66,143.68 L313.96,143.95 L314.26,144.21 L314.56,144.48 L314.87,144.75 L315.17,145.01 L315.47,145.28 L315.77,145.55 L316.08,145.82 L316.38,146.09 L316.68,146.36 L316.98,146.64 L317.29,146.91 L317.59,147.18 L317.89,147.46 L318.20,147.73 L318.50,148.01 L318.80,148.28 L319.10,148.56 L319.41,148.84 L319.71,149.12 L320.01,149.40 L320.31,149.68 L320.62,149.96 L320.92,150.24 L321.22,150.52 L321.53,150.80 L321.83,151.08 L322.13,151.37 L322.43,151.65 L322.74,151.94 L323.04,152.22 L323.34,152.51 L323.64,152.80 L323.95,153.09 L324.25,153.38 L324.55,153.67 L324.85,153.96 L325.16,154.25 L325.46,154.54 L325.76,154.83 L326.07,155.12 L326.37,155.42 L326.67,155.71 L326.97,156.01 L327.28,156.30 L327.58,156.60 L327.88,156.90 L328.18,157.20 L328.49,157.50 L328.79,157.79 L329.09,158.10 L329.39,158.40 L329.70,158.70 L330.00,159.00" style="stroke-width: 1; stroke: rgb(0, 0, 0); stroke-opacity: 1; stroke-dasharray: 3;"/></g></g><rect class="real" x="1" y="1" width="428" height="335" style="fill: transparent; stroke: none;"/></g></g></g><g class="arrow-line"><path class="connection real" stroke-dasharray="" d="  M20.49,130.22 L343.2,130.22" style="stroke: rgb(0, 0, 0); stroke-width: 1; fill: none; fill-opacity: 1;"/><g stroke="#000" transform="matrix(-1,1.2246467991473532e-16,-1.2246467991473532e-16,-1,345.1999969482422,130.21999664306642)" style="stroke: rgb(0, 0, 0); stroke-width: 1;"><path d=" M10.93,-3.29 Q4.96,-0.45 0,0 Q4.96,0.45 10.93,3.29"/></g></g><g class="arrow-line"><path class="connection real" stroke-dasharray="" d="  M20.49,130.22 L20.49,13.67" style="stroke: rgb(0, 0, 0); stroke-width: 1; fill: none; fill-opacity: 1;"/><g stroke="#000" transform="matrix(3.061616997868383e-16,1,-1,3.061616997868383e-16,20.493330891927044,11.666666666666671)" style="stroke: rgb(0, 0, 0); stroke-width: 1;"><path d=" M10.93,-3.29 Q4.96,-0.45 0,0 Q4.96,0.45 10.93,3.29"/></g></g><g class="composite-shape"><path class="real" d=" M12.87,130.22 C12.87,126.01 16.28,122.59 20.49,122.59 C24.71,122.59 28.12,126.01 28.12,130.22 C28.12,134.43 24.71,137.85 20.49,137.85 C16.28,137.85 12.87,134.43 12.87,130.22 Z" style="stroke-width: 1; stroke: rgb(153, 0, 0); stroke-opacity: 1; fill: rgb(153, 0, 0); fill-opacity: 1;"/></g><g class="composite-shape"><path class="real" d=" M142.68,63.63 C142.68,59.42 146.09,56 150.31,56 C154.52,56 157.93,59.42 157.93,63.63 C157.93,67.84 154.52,71.26 150.31,71.26 C146.09,71.26 142.68,67.84 142.68,63.63 Z" style="stroke-width: 1; stroke: rgb(153, 0, 0); stroke-opacity: 1; fill: rgb(153, 0, 0); fill-opacity: 1;"/></g><g class="composite-shape"><path class="real" d=" M272.49,130.22 C272.49,126.01 275.91,122.59 280.12,122.59 C284.33,122.59 287.75,126.01 287.75,130.22 C287.75,134.43 284.33,137.85 280.12,137.85 C275.91,137.85 272.49,134.43 272.49,130.22 Z" style="stroke-width: 1; stroke: rgb(153, 0, 0); stroke-opacity: 1; fill: rgb(153, 0, 0); fill-opacity: 1;"/></g><g class="arrow-line"><path class="connection real" stroke-dasharray="" d="  M20.49,130.22 L20.49,79.35" style="stroke: rgb(153, 0, 0); stroke-opacity: 1; stroke-width: 2; fill: none; fill-opacity: 1;"/><g stroke="none" fill="rgb(153,0,0)" fill-opacity="1" transform="matrix(3.061616997868383e-16,1,-1,3.061616997868383e-16,20.49333089192706,75.34999847412111)" style="stroke: none; fill: rgb(153, 0, 0); stroke-width: 2;"><path d=" M13.4,-6.43 L0,0 L13.4,6.44 L8.9,0 Z"/></g></g><g class="arrow-line"><path class="connection real" stroke-dasharray="" d="  M20.49,130.22 L71.4,130.22" style="stroke: rgb(153, 0, 0); stroke-opacity: 1; stroke-width: 2; fill: none; fill-opacity: 1;"/><g stroke="none" fill="rgb(153,0,0)" fill-opacity="1" transform="matrix(-1,1.2246467991473532e-16,-1.2246467991473532e-16,-1,75.39999389648436,130.2199966430664)" style="stroke: none; fill: rgb(153, 0, 0); stroke-width: 2;"><path d=" M13.4,-6.43 L0,0 L13.4,6.44 L8.9,0 Z"/></g></g><g class="arrow-line"><path class="connection real" stroke-dasharray="" d="  M20.49,130.22 L72.03,78.68" style="stroke: rgb(153, 0, 0); stroke-opacity: 1; stroke-width: 2; fill: none; fill-opacity: 1;"/><g stroke="none" fill="rgb(153,0,0)" fill-opacity="1" transform="matrix(-0.7071067811865479,0.7071067811865471,-0.7071067811865471,-0.7071067811865479,74.86332906087232,75.84999847412111)" style="stroke: none; fill: rgb(153, 0, 0); stroke-width: 2;"><path d=" M13.4,-6.43 L0,0 L13.4,6.44 L8.9,0 Z"/></g></g><g class="arrow-line"><path class="connection real" stroke-dasharray="" d="  M150.31,63.63 L201.21,63.63" style="stroke: rgb(153, 0, 0); stroke-opacity: 1; stroke-width: 2; fill: none; fill-opacity: 1;"/><g stroke="none" fill="rgb(153,0,0)" fill-opacity="1" transform="matrix(-1,1.2246467991473532e-16,-1.2246467991473532e-16,-1,205.21332600911467,63.62832768758132)" style="stroke: none; fill: rgb(153, 0, 0); stroke-width: 2;"><path d=" M13.4,-6.43 L0,0 L13.4,6.44 L8.9,0 Z"/></g></g><g class="arrow-line"><path class="connection real" stroke-dasharray="" d="  M280.12,130.22 L331.03,130.22" style="stroke: rgb(153, 0, 0); stroke-opacity: 1; stroke-width: 2; fill: none; fill-opacity: 1;"/><g stroke="none" fill="rgb(153,0,0)" fill-opacity="1" transform="matrix(-1,1.2246467991473532e-16,-1.2246467991473532e-16,-1,335.02665812174484,130.21999664306642)" style="stroke: none; fill: rgb(153, 0, 0); stroke-width: 2;"><path d=" M13.4,-6.43 L0,0 L13.4,6.44 L8.9,0 Z"/></g></g><g class="arrow-line"><path class="connection real" stroke-dasharray="" d="  M280.12,181.09 L280.12,130.22" style="stroke: rgb(153, 0, 0); stroke-opacity: 1; stroke-width: 2; fill: none; fill-opacity: 1;"/><g stroke="none" fill="rgb(153,0,0)" fill-opacity="1" transform="matrix(-1.8369701987210297e-16,-1,1,-1.8369701987210297e-16,280.1199951171875,185.08999481201164)" style="stroke: none; fill: rgb(153, 0, 0); stroke-width: 2;"><path d=" M13.4,-6.43 L0,0 L13.4,6.44 L8.9,0 Z"/></g></g><g class="composite-shape"><path class="real" d=" M35.05,115.66 C38.78,119.39 41.08,124.54 41.08,130.22 L20.49,130.22 Z" style="stroke-width: 1; stroke: none; stroke-opacity: 1; fill: none; fill-opacity: 1;"/><path class="real" d=" M35.05,115.66 C38.78,119.39 41.08,124.54 41.08,130.22" style="stroke-width: 1; stroke: rgb(153, 0, 0); stroke-opacity: 1; fill: none; fill-opacity: 1;"/></g><g class="arrow-line"><path class="connection real" stroke-dasharray="" d="  M86.67,96.33 C31.89,109.53 105.83,114.89 41.65,121.69" style="stroke: rgb(153, 0, 0); stroke-opacity: 1; stroke-width: 1; fill: none; fill-opacity: 1;"/><g stroke="rgb(153,0,0)" stroke-opacity="1" transform="matrix(0.9948453729155919,-0.10140356989986511,0.10140356989986511,0.9948453729155919,39.66666666666667,121.90000025431316)" style="stroke: rgb(153, 0, 0); stroke-width: 1;"><path d=" M10.93,-3.29 Q4.96,-0.45 0,0 Q4.96,0.45 10.93,3.29"/></g></g><g/></g><g/><g/><g/></svg>
        <svg xmlns="http://www.w3.org/2000/svg" xmlns:xlink="http://www.w3.org/1999/xlink" width="368" height="193" style="width:368px;height:193px;font-family:Asana-Math, Asana;background:transparent;"><g><g><g><g transform="matrix(1,0,0,1,348.00006103515625,148.01251220703125)"><path transform="matrix(0.017,0,0,-0.017,0,0)" d="M9 1C24 -7 40 -11 52 -11C85 -11 124 18 155 65L231 182L242 113C255 28 278 -11 314 -11C336 -11 368 6 400 35L449 79L440 98C404 68 379 53 363 53C348 53 335 63 325 83C316 102 305 139 300 168L282 269L317 318C364 383 391 406 422 406C438 406 450 398 455 383L469 387L484 472C472 479 463 482 454 482C414 482 374 446 312 354L275 299L269 347C257 446 230 482 171 482C145 482 123 474 114 461L56 378L73 368C103 402 123 416 142 416C175 416 197 375 214 277L225 215L185 153C142 86 108 54 80 54C65 54 54 58 52 63L41 91L21 88C21 53 13 27 9 1Z" stroke="rgb(0,0,0)" stroke-opacity="1" stroke-width="8" fill="rgb(0,0,0)" fill-opacity="1"></path></g></g></g></g><g><g><g><g transform="matrix(1,0,0,1,23.2874755859375,29.4625244140625)"><path transform="matrix(0.017,0,0,-0.017,0,0)" d="M242 -180C241 -187 241 -193 241 -198C241 -241 278 -276 323 -276C429 -276 539 -152 598 33L739 473L728 482C699 471 676 465 654 463L619 331C607 284 572 211 539 162C504 111 455 67 433 67C421 67 412 90 413 115L429 322C431 353 433 391 433 419C433 464 426 482 409 482C396 482 382 475 334 442L252 386L263 368L313 398C318 401 329 410 338 410C352 410 360 391 360 358C360 357 360 351 359 343L342 100L341 60C341 18 359 -11 384 -11C421 -11 505 74 580 187L531 16C480 -161 430 -234 360 -234C325 -234 298 -207 298 -172C298 -167 299 -159 300 -150L290 -146Z" stroke="rgb(0,0,0)" stroke-opacity="1" stroke-width="8" fill="rgb(0,0,0)" fill-opacity="1"></path></g></g></g></g><g><g><g><g transform="matrix(1,0,0,1,90.125,99.4875244140625)"><path transform="matrix(0.0119,0,0,-0.0119,0,0)" d="M280 181L280 106C280 46 269 32 220 30L158 27L158 -3C291 0 291 0 315 0C339 0 339 0 472 -3L472 27L424 30C375 33 364 46 364 106L364 181C423 181 444 180 472 177L472 248L364 245L365 697L285 667L2 204L2 181ZM280 245L65 245L280 597ZM958 253C958 366 877 446 763 446C715 446 679 443 626 396L626 605L931 604L931 689L574 690L574 322L594 316C641 363 668 377 717 377C813 377 873 309 873 201C873 90 809 25 700 25C646 25 596 43 582 69L536 151L512 137C535 80 547 48 561 4C589 -11 629 -20 672 -20C800 -20 958 89 958 253ZM1197 689C1115 689 1048 622 1048 539C1048 456 1115 389 1198 389C1279 389 1348 457 1348 537C1348 621 1281 689 1197 689ZM1197 649C1258 649 1308 599 1308 537C1308 479 1258 429 1198 429C1137 429 1088 478 1088 539C1088 600 1137 649 1197 649Z" stroke="rgb(153,0,0)" stroke-opacity="1" stroke-width="8" fill="rgb(153,0,0)" fill-opacity="1"></path></g></g></g></g><g><g><g><g transform="matrix(1,0,0,1,55.79998779296875,73.4875244140625)"><path transform="matrix(0.0119,0,0,-0.0119,0,0)" d="M418 -3L418 27L366 30C311 33 301 44 301 96L301 700L60 598L67 548L217 614L217 96C217 44 206 33 152 30L96 27L96 -3C250 0 250 0 261 0C292 0 402 -3 418 -3ZM958 253C958 366 877 446 763 446C715 446 679 443 626 396L626 605L931 604L931 689L574 690L574 322L594 316C641 363 668 377 717 377C813 377 873 309 873 201C873 90 809 25 700 25C646 25 596 43 582 69L536 151L512 137C535 80 547 48 561 4C589 -11 629 -20 672 -20C800 -20 958 89 958 253ZM1728 103L1702 86C1673 67 1651 56 1641 56C1634 56 1628 65 1628 76C1628 86 1630 95 1635 116L1710 413C1714 430 1717 446 1717 454C1717 471 1707 482 1691 482C1662 482 1624 464 1563 421C1500 376 1465 341 1416 272L1446 409C1450 429 1453 444 1453 451C1453 470 1443 482 1427 482C1397 482 1351 460 1296 418C1252 384 1232 363 1167 275L1200 408C1204 424 1206 439 1206 451C1206 470 1197 482 1183 482C1162 482 1124 461 1050 408L1022 388L1029 368C1066 391 1101 414 1108 414C1119 414 1126 404 1126 389C1126 338 1085 145 1044 2L1047 -9L1115 6L1137 108C1161 219 1188 278 1243 338C1285 384 1330 414 1358 414C1365 414 1369 406 1369 393C1369 358 1347 244 1306 69L1290 2L1295 -9L1364 6L1385 113C1401 194 1435 269 1479 318C1534 379 1584 414 1616 414C1624 414 1629 405 1629 389C1629 365 1626 351 1604 264C1564 105 1548 84 1548 31C1548 6 1559 -9 1578 -9C1604 -9 1640 12 1738 85Z" stroke="rgb(153,0,0)" stroke-opacity="1" stroke-width="8" fill="rgb(153,0,0)" fill-opacity="1"></path></g></g><g><g transform="matrix(1,0,0,1,79.29998779296875,73.4875244140625)"><path transform="matrix(0.0119,0,0,-0.0119,0,0)" d="M297 714L242 714L-37 -169L18 -169Z" stroke="rgb(153,0,0)" stroke-opacity="1" stroke-width="8" fill="rgb(153,0,0)" fill-opacity="1"></path></g></g><g><g transform="matrix(1,0,0,1,85.0875244140625,73.4875244140625)"><path transform="matrix(0.0119,0,0,-0.0119,0,0)" d="M31 148C26 97 20 62 9 16C47 -2 81 -11 116 -11C165 -11 211 7 262 47C313 87 334 124 334 174C334 228 302 257 228 271L185 279C125 290 106 307 106 348C106 401 151 442 208 442C249 442 287 424 303 397L303 342L326 342C330 377 334 404 345 455C306 474 278 482 245 482C193 482 132 452 84 404C58 377 47 352 47 316C47 260 78 228 144 215L207 203C251 195 267 177 267 138C267 73 221 29 150 29C115 29 84 40 56 64L56 148Z" stroke="rgb(153,0,0)" stroke-opacity="1" stroke-width="8" fill="rgb(153,0,0)" fill-opacity="1"></path></g></g></g></g></svg>
</svg>
