<svg xmlns="http://www.w3.org/2000/svg" width="369.6" height="194.6" style="width:369.6000061035156px;height:194.60000610351562px;background:0 0;fill:none"><svg xmlns="http://www.w3.org/2000/svg"/><svg xmlns="http://www.w3.org/2000/svg" class="role-diagram-draw-area" style="overflow:visible"><g class="shapes-region" style="stroke:#000;fill:none"><g class="composite-shape" data-amt="diagram/shapes/plot"><g class="test-plot-expression" transform="translate(-48.167 -31)"><defs><clipPath id="cpcwbq8ukpvdg-full-view"><path d="M1 1h428v335H1z"/></clipPath></defs><g clip-path="url(#cpcwbq8ukpvdg-full-view)"><path d="m70 159 .3-.3.31-.3.3-.3.3-.31.3-.29.31-.3.3-.3.3-.3.3-.3.31-.29.3-.3.3-.29.3-.3.31-.29.3-.29.3-.29.31-.29.3-.29.3-.29.3-.29.31-.29.3-.29.3-.29.3-.28.31-.29.3-.28.3-.29.3-.28.31-.28.3-.28.3-.28.31-.28.3-.28.3-.28.3-.28.31-.28.3-.28.3-.27.3-.28.31-.27.3-.28.3-.27.31-.27.3-.28.3-.27.3-.27.31-.27.3-.27.3-.27.3-.26.31-.27.3-.27.3-.26.3-.27.31-.26.3-.26.3-.27.31-.26.3-.26.3-.26.3-.26.31-.26.3-.26.3-.26.3-.26.31-.25.3-.26.3-.25.3-.26.31-.25.3-.25.3-.26.31-.25.3-.25.3-.25.3-.25.31-.25.3-.25.3-.24.3-.25.31-.25.3-.24.3-.24.3-.25.31-.24.3-.24.3-.25.31-.24.3-.24.3-.24.3-.24.31-.23.3-.24.3-.24.3-.23.31-.24.3-.23.3-.24.31-.23.3-.23.3-.24.3-.23.31-.23.3-.23.3-.23.3-.22.31-.23.3-.23.3-.23.3-.22.31-.23.3-.22.3-.22.31-.23.3-.22.3-.22.3-.22.31-.22.3-.22.3-.22.3-.22.31-.21.3-.22.3-.21.3-.22.31-.21.3-.22.3-.21.31-.21.3-.21.3-.21.3-.21.31-.21.3-.21.3-.21.3-.21.31-.2.3-.21.3-.2.3-.21.31-.2.3-.21.3-.2.31-.2.3-.2.3-.2.3-.2.31-.2.3-.2.3-.19.3-.2.31-.2.3-.19.3-.2.31-.19.3-.19.3-.2.3-.19.31-.19.3-.19.3-.19.3-.19.31-.18.3-.19.3-.19.3-.18.31-.19.3-.18.3-.19.31-.18.3-.18.3-.19.3-.18.31-.18.3-.18.3-.18.3-.17.31-.18.3-.18.3-.18.3-.17.31-.18.3-.17.3-.17.31-.18.3-.17.3-.17.3-.17.31-.17.3-.17.3-.17.3-.16.31-.17.3-.17.3-.16.3-.17.31-.16.3-.17.3-.16.31-.16.3-.16.3-.16.3-.16.31-.16.3-.16.3-.16.3-.16.31-.15.3-.16.3-.15.3-.16.31-.15.3-.15.3-.16.31-.15.3-.15.3-.15.3-.15.31-.15.3-.14.3-.15.3-.15.31-.14.3-.15.3-.14.31-.15.3-.14.3-.14.3-.15.31-.14.3-.14.3-.14.3-.13.31-.14.3-.14.3-.14.3-.13.31-.14.3-.13.3-.14.31-.13.3-.13.3-.13.3-.14.31-.13.3-.13.3-.12.3-.13.31-.13.3-.13.3-.12.3-.13.31-.12.3-.13.3-.12.31-.12.3-.13.3-.12.3-.12.31-.12.3-.12.3-.11.3-.12.31-.12.3-.12.3-.11.3-.12.31-.11.3-.11.3-.12.31-.11.3-.11.3-.11.3-.11.31-.11.3-.11.3-.11.3-.1.31-.11.3-.1.3-.11.31-.1.3-.11.3-.1.3-.1.31-.1.3-.1.3-.1.3-.1.31-.1.3-.1.3-.1.3-.09.31-.1.3-.1.3-.09.31-.09.3-.1.3-.09.3-.09.31-.09.3-.09.3-.09.3-.09.31-.09.3-.09.3-.08.3-.09.31-.08.3-.09.3-.08.31-.09.3-.08.3-.08.3-.08.31-.08.3-.08.3-.08.3-.08.31-.08.3-.07.3-.08.3-.07.31-.08.3-.07.3-.08.31-.07.3-.07.3-.07.3-.07.31-.07.3-.07.3-.07.3-.07.31-.06.3-.07.3-.07.31-.06.3-.06.3-.07.3-.06.31-.06.3-.06.3-.06.3-.06.31-.06.3-.06.3-.06.3-.06.31-.05.3-.06.3-.05.31-.06.3-.05.3-.05.3-.06.31-.05.3-.05.3-.05.3-.05.31-.05.3-.04.3-.05.3-.05.31-.04.3-.05.3-.04.31-.05.3-.04.3-.04.3-.04.31-.05.3-.04.3-.03.3-.04.31-.04.3-.04.3-.04.3-.03.31-.04.3-.03.3-.03.31-.04.3-.03.3-.03.3-.03.31-.03.3-.03.3-.03.3-.03.31-.03.3-.02.3-.03.3-.03.31-.02.3-.02.3-.03.31-.02.3-.02.3-.02.3-.02.31-.02.3-.02.3-.02.3-.02.31-.02.3-.01.3-.02.31-.01.3-.02.3-.01.3-.01.31-.01.3-.02.3-.01.3-.01h.31l.3-.01.3-.01.3-.01h.31l.3-.01.3-.01h.61l.3-.01h2.12l.3.01h.61l.3.01.3.01h.31l.3.01.3.01.3.01h.31l.3.01.3.01.3.02.31.01.3.01.3.01.3.02.31.01.3.02.3.01.31.02.3.02.3.02.3.02.31.02.3.02.3.02.3.02.31.02.3.03.3.02.31.02.3.03.3.03.3.02.31.03.3.03.3.03.3.03.31.03.3.03.3.03.3.03.31.04.3.03.3.03.31.04.3.03.3.04.3.04.31.04.3.04.3.03.3.04.31.05.3.04.3.04.3.04.31.05.3.04.3.05.31.04.3.05.3.05.3.04.31.05.3.05.3.05.3.05.31.05.3.06.3.05.3.05.31.06.3.05.3.06.31.05.3.06.3.06.3.06.31.06.3.06.3.06.3.06.31.06.3.06.3.07.3.06.31.06.3.07.3.07.31.06.3.07.3.07.3.07.31.07.3.07.3.07.3.07.31.07.3.08.3.07.31.08.3.07.3.08.3.07.31.08.3.08.3.08.3.08.31.08.3.08.3.08.3.08.31.09.3.08.3.09.31.08.3.09.3.08.3.09.31.09.3.09.3.09.3.09.31.09.3.09.3.09.3.1.31.09.3.09.3.1.31.1.3.09.3.1.3.1.31.1.3.1.3.1.3.1.31.1.3.1.3.1.3.11.31.1.3.11.3.1.31.11.3.1.3.11.3.11.31.11.3.11.3.11.3.11.31.11.3.12.3.11.31.11.3.12.3.11.3.12.31.12.3.12.3.11.3.12.31.12.3.12.3.12.3.13.31.12.3.12.3.13.31.12.3.13.3.12.3.13.31.13.3.13.3.12.3.13.31.13.3.14.3.13.3.13.31.13.3.14.3.13.31.14.3.13.3.14.3.14.31.14.3.13.3.14.3.14.31.14.3.15.3.14.3.14.31.15.3.14.3.15.31.14.3.15.3.15.3.14.31.15.3.15.3.15.3.15.31.15.3.16.3.15.31.15.3.16.3.15.3.16.31.15.3.16.3.16.3.16.31.16.3.16.3.16.3.16.31.16.3.16.3.17.31.16.3.17.3.16.3.17.31.17.3.16.3.17.3.17.31.17.3.17.3.17.3.17.31.18.3.17.3.17.31.18.3.17.3.18.3.18.31.18.3.17.3.18.3.18.31.18.3.18.3.19.3.18.31.18.3.19.3.18.31.19.3.18.3.19.3.19.31.18.3.19.3.19.3.19.31.19.3.19.3.2.3.19.31.19.3.2.3.19.31.2.3.2.3.19.3.2.31.2.3.2.3.2.3.2.31.2.3.2.3.21.31.2.3.21.3.2.3.21.31.2.3.21.3.21.3.21.31.21.3.21.3.21.3.21.31.21.3.21.3.22.31.21.3.22.3.21.3.22.31.21.3.22.3.22.3.22.31.22.3.22.3.22.3.22.31.23.3.22.3.22.31.23.3.22.3.23.3.23.31.23.3.22.3.23.3.23.31.23.3.23.3.24.3.23.31.23.3.24.3.23.31.24.3.23.3.24.3.24.31.23.3.24.3.24.3.24.31.24.3.25.3.24.31.24.3.25.3.24.3.24.31.25.3.25.3.24.3.25.31.25.3.25.3.25.3.25.31.25.3.26.3.25.31.25.3.26.3.25.3.26.31.25.3.26.3.26.3.26.31.26.3.26.3.26.3.26.31.26.3.27.3.26.31.26.3.27.3.26.3.27.31.27.3.26.3.27.3.27.31.27.3.27.3.27.3.28.31.27.3.27.3.28.31.27.3.28.3.27.3.28.31.28.3.28.3.28.3.28.31.28.3.28.3.28.31.28.3.28.3.29.3.28.31.29.3.28.3.29.3.29.31.29.3.29.3.29.3.29.31.29.3.29.3.29.31.29.3.3.3.29.3.3.31.29.3.3.3.3.3.3.31.3.3.29.3.31.3.3.31.3.3.3" style="stroke-width:1;stroke:#000;stroke-opacity:1;stroke-dasharray:3"/></g></g><path stroke="none" d="M1 1h428v335H1z" class="real" style="fill:transparent;stroke:none" transform="translate(-48.167 -31)"/></g><g class="arrow-line"><path d="M20.49 130.22H343.2" class="connection real" style="stroke:#000;stroke-width:1;fill:none;fill-opacity:1"/><path d="M10.93-3.29Q4.96-.45 0 0q4.96.45 10.93 3.29" style="stroke:#000;stroke-width:1" transform="matrix(-1 0 0 -1 345.2 130.22)"/></g><g class="arrow-line"><path d="M20.49 130.22V13.67" class="connection real" style="stroke:#000;stroke-width:1;fill:none;fill-opacity:1"/><path d="M10.93-3.29Q4.96-.45 0 0q4.96.45 10.93 3.29" style="stroke:#000;stroke-width:1" transform="rotate(90 4.413 16.08)"/></g><g class="composite-shape"><path d="M12.87 130.22c0-4.21 3.41-7.63 7.62-7.63 4.22 0 7.63 3.42 7.63 7.63s-3.41 7.63-7.63 7.63c-4.21 0-7.62-3.42-7.62-7.63Z" class="real" style="stroke-width:1;stroke:#900;stroke-opacity:1;fill:#900;fill-opacity:1"/></g><g class="composite-shape"><path d="M142.68 63.63c0-4.21 3.41-7.63 7.63-7.63 4.21 0 7.62 3.42 7.62 7.63s-3.41 7.63-7.62 7.63c-4.22 0-7.63-3.42-7.63-7.63Z" class="real" style="stroke-width:1;stroke:#900;stroke-opacity:1;fill:#900;fill-opacity:1"/></g><g class="composite-shape"><path d="M272.49 130.22c0-4.21 3.42-7.63 7.63-7.63s7.63 3.42 7.63 7.63-3.42 7.63-7.63 7.63-7.63-3.42-7.63-7.63Z" class="real" style="stroke-width:1;stroke:#900;stroke-opacity:1;fill:#900;fill-opacity:1"/></g><g class="arrow-line"><path d="M20.49 130.22V79.35" class="connection real" style="stroke:#900;stroke-opacity:1;stroke-width:2;fill:none;fill-opacity:1"/><path fill="#900" stroke="none" d="M13.4-6.43 0 0l13.4 6.44L8.9 0Z" style="stroke:none;fill:#900;stroke-width:2" transform="rotate(90 -27.428 47.922)"/></g><g class="arrow-line"><path d="M20.49 130.22H71.4" class="connection real" style="stroke:#900;stroke-opacity:1;stroke-width:2;fill:none;fill-opacity:1"/><path fill="#900" stroke="none" d="M13.4-6.43 0 0l13.4 6.44L8.9 0Z" style="stroke:none;fill:#900;stroke-width:2" transform="matrix(-1 0 0 -1 75.4 130.22)"/></g><g class="arrow-line"><path d="m20.49 130.22 51.54-51.54" class="connection real" style="stroke:#900;stroke-opacity:1;stroke-width:2;fill:none;fill-opacity:1"/><path fill="#900" stroke="none" d="M13.4-6.43 0 0l13.4 6.44L8.9 0Z" style="stroke:none;fill:#900;stroke-width:2" transform="rotate(135 21.723 53.43)"/></g><g class="arrow-line"><path d="M150.31 63.63h50.9" class="connection real" style="stroke:#900;stroke-opacity:1;stroke-width:2;fill:none;fill-opacity:1"/><path fill="#900" stroke="none" d="M13.4-6.43 0 0l13.4 6.44L8.9 0Z" style="stroke:none;fill:#900;stroke-width:2" transform="matrix(-1 0 0 -1 205.213 63.628)"/></g><g class="arrow-line"><path d="M280.12 130.22h50.91" class="connection real" style="stroke:#900;stroke-opacity:1;stroke-width:2;fill:none;fill-opacity:1"/><path fill="#900" stroke="none" d="M13.4-6.43 0 0l13.4 6.44L8.9 0Z" style="stroke:none;fill:#900;stroke-width:2" transform="matrix(-1 0 0 -1 335.027 130.22)"/></g><g class="arrow-line"><path d="M280.12 181.09v-50.87" class="connection real" style="stroke:#900;stroke-opacity:1;stroke-width:2;fill:none;fill-opacity:1"/><path fill="#900" stroke="none" d="M13.4-6.43 0 0l13.4 6.44L8.9 0Z" style="stroke:none;fill:#900;stroke-width:2" transform="rotate(-90 232.605 -47.515)"/></g><g class="composite-shape"><path stroke="none" d="M35.05 115.66c3.73 3.73 6.03 8.88 6.03 14.56H20.49Z" class="real" style="stroke-width:1;stroke:none;stroke-opacity:1;fill:none;fill-opacity:1"/><path d="M35.05 115.66c3.73 3.73 6.03 8.88 6.03 14.56" class="real" style="stroke-width:1;stroke:#900;stroke-opacity:1;fill:none;fill-opacity:1"/></g><g class="arrow-line"><path d="M86.67 96.33c-54.78 13.2 19.16 18.56-45.02 25.36" class="connection real" style="stroke:#900;stroke-opacity:1;stroke-width:1;fill:none;fill-opacity:1"/><path stroke="#900" d="M10.93-3.29Q4.96-.45 0 0q4.96.45 10.93 3.29" style="stroke:#900;stroke-width:1" transform="rotate(-5.82 1218.862 -329.218)"/></g></g></svg><svg xmlns="http://www.w3.org/2000/svg" xmlns:xlink="http://www.w3.org/1999/xlink" width="368" height="193" style="width:368px;height:193px;font-family:Asana-Math,Asana;background:0 0"><path fill="#000" stroke="#000" stroke-width=".136" d="M348.153 147.996c.255.136.527.204.731.204.561 0 1.224-.493 1.751-1.292l1.292-1.99.187 1.174c.221 1.445.612 2.108 1.224 2.108.374 0 .918-.29 1.462-.782l.833-.748-.153-.323c-.612.51-1.037.765-1.309.765-.255 0-.476-.17-.646-.51-.153-.323-.34-.952-.425-1.445l-.306-1.717.595-.833c.8-1.105 1.258-1.496 1.785-1.496.272 0 .476.136.561.39l.238-.067.255-1.445c-.204-.12-.357-.17-.51-.17-.68 0-1.36.612-2.414 2.176l-.629.935-.102-.816c-.204-1.683-.663-2.295-1.666-2.295-.442 0-.816.136-.969.357l-.986 1.41.29.17c.51-.577.85-.815 1.172-.815.561 0 .935.697 1.224 2.363l.187 1.054-.68 1.054c-.73 1.139-1.309 1.683-1.785 1.683-.255 0-.442-.068-.476-.153l-.187-.476-.34.05c0 .596-.136 1.038-.204 1.48ZM27.401 32.523c-.017.119-.017.22-.017.306 0 .73.63 1.326 1.394 1.326 1.802 0 3.672-2.108 4.675-5.253l2.397-7.48-.187-.153c-.493.187-.884.289-1.258.323l-.595 2.244c-.204.799-.799 2.04-1.36 2.873-.595.867-1.428 1.615-1.802 1.615-.204 0-.357-.391-.34-.816l.272-3.52a28 28 0 0 0 .068-1.648c0-.765-.119-1.071-.408-1.071-.22 0-.459.119-1.275.68l-1.394.952.187.306.85-.51c.085-.051.272-.204.425-.204.238 0 .374.323.374.884 0 .017 0 .119-.017.255l-.289 4.13-.017.68c0 .715.306 1.208.731 1.208.63 0 2.057-1.445 3.332-3.366l-.833 2.907c-.867 3.009-1.717 4.25-2.907 4.25a1.04 1.04 0 0 1-1.054-1.054c0-.085.017-.221.034-.374l-.17-.068Z"/><path fill="#900" stroke="#900" stroke-width=".095" d="M93.457 97.334v.892c0 .714-.13.88-.714.905l-.738.035v.357c1.583-.035 1.583-.035 1.869-.035.285 0 .285 0 1.868.035v-.357l-.571-.035c-.584-.036-.714-.19-.714-.905v-.892c.702 0 .952.012 1.285.047v-.845l-1.285.036.012-5.379-.953.357-3.367 5.51v.274Zm0-.762h-2.558l2.558-4.189Zm8.068-.095c0-1.345-.964-2.297-2.32-2.297-.572 0-1 .036-1.63.595v-2.487l3.629.012v-1.012l-4.248-.011v4.379l.238.071c.559-.56.88-.726 1.463-.726 1.143 0 1.857.81 1.857 2.095 0 1.32-.762 2.094-2.059 2.094-.643 0-1.238-.214-1.404-.524l-.548-.975-.285.166c.273.679.416 1.06.583 1.583.333.178.81.286 1.32.286 1.524 0 3.404-1.298 3.404-3.25Zm2.844-5.189a1.78 1.78 0 0 0-1.773 1.785c0 .988.797 1.785 1.785 1.785.964 0 1.785-.809 1.785-1.76 0-1-.797-1.81-1.797-1.81Zm0 .476c.726 0 1.321.595 1.321 1.333 0 .69-.595 1.285-1.309 1.285a1.305 1.305 0 0 1-1.309-1.309c0-.725.583-1.309 1.297-1.309ZM60.774 73.523v-.357l-.619-.035c-.654-.036-.773-.167-.773-.786v-7.187l-2.868 1.213.083.595 1.785-.785v6.164c0 .619-.13.75-.773.786l-.667.035v.357c1.833-.035 1.833-.035 1.964-.035.369 0 1.678.035 1.868.035Zm6.426-3.046c0-1.345-.964-2.297-2.32-2.297-.572 0-1 .036-1.63.595v-2.487l3.629.012v-1.012l-4.248-.011v4.379l.238.071c.559-.56.88-.726 1.463-.726 1.143 0 1.857.81 1.857 2.095 0 1.32-.762 2.094-2.059 2.094-.643 0-1.238-.214-1.404-.524l-.548-.975-.285.166c.273.679.416 1.06.583 1.583.333.178.81.286 1.32.286 1.524 0 3.404-1.298 3.404-3.25Zm9.163 1.785-.31.202c-.344.226-.606.357-.725.357-.083 0-.155-.107-.155-.238 0-.119.024-.226.083-.476l.893-3.534c.048-.202.083-.393.083-.488 0-.202-.119-.333-.31-.333-.344 0-.796.214-1.522.726-.75.535-1.167.952-1.75 1.773l.357-1.63c.048-.239.084-.417.084-.5 0-.226-.12-.37-.31-.37-.357 0-.904.263-1.559.762-.523.405-.761.655-1.535 1.702l.393-1.583c.048-.19.071-.369.071-.511 0-.226-.107-.37-.273-.37-.25 0-.702.25-1.583.881l-.333.238.083.238c.44-.273.857-.547.94-.547.131 0 .214.119.214.297 0 .607-.488 2.904-.975 4.606l.035.13.81-.178.261-1.214c.286-1.32.607-2.023 1.262-2.737.5-.547 1.035-.904 1.368-.904.083 0 .131.095.131.25 0 .416-.262 1.773-.75 3.855l-.19.798.06.13.82-.178.25-1.273c.19-.964.595-1.857 1.12-2.44.654-.726 1.249-1.142 1.63-1.142.095 0 .154.107.154.297 0 .286-.036.453-.297 1.488-.476 1.892-.667 2.142-.667 2.773 0 .297.131.476.357.476.31 0 .738-.25 1.904-1.119Zm6.471-7.272h-.654L78.86 75.5h.654Zm2.622 6.736c-.06.607-.13 1.024-.261 1.571.452.214.856.321 1.273.321.583 0 1.13-.214 1.737-.69s.857-.916.857-1.511c0-.643-.38-.988-1.261-1.154l-.512-.096c-.714-.13-.94-.333-.94-.82 0-.631.535-1.12 1.214-1.12.488 0 .94.215 1.13.536v.655h.274c.048-.417.095-.738.226-1.345-.464-.226-.797-.321-1.19-.321-.619 0-1.345.357-1.916.928-.31.321-.44.619-.44 1.047 0 .667.369 1.047 1.154 1.202l.75.143c.523.095.714.31.714.773 0 .774-.548 1.297-1.392 1.297-.417 0-.786-.13-1.12-.416v-1Z"/></svg></svg>