<svg xmlns="http://www.w3.org/2000/svg" width="379.6" height="298.4" style="width:379.6000061035156px;height:298.3999938964844px;background:#fff;fill:none"><svg xmlns="http://www.w3.org/2000/svg"/><svg xmlns="http://www.w3.org/2000/svg" class="role-diagram-draw-area" style="overflow:visible"><g class="shapes-region" style="stroke:#000;fill:none"><g class="composite-shape" data-amt="diagram/shapes/plot"><g class="test-plot-expression" transform="translate(-44.167 -46)"><defs><clipPath id="cpjlvzivcuudg-full-view"><path d="M1 1h428v335H1z"/></clipPath></defs><g clip-path="url(#cpjlvzivcuudg-full-view)"><path d="m70 237 .3-.6.31-.61.3-.6.3-.6.3-.6.31-.6.3-.59.3-.6.3-.59.31-.59.3-.59.3-.59.3-.59.31-.59.3-.58.3-.59.31-.58.3-.58.3-.58.3-.58.31-.57.3-.58.3-.57.3-.57.31-.57.3-.57.3-.57.3-.57.31-.56.3-.57.3-.56.31-.56.3-.56.3-.56.3-.55.31-.56.3-.55.3-.56.3-.55.31-.55.3-.54.3-.55.31-.55.3-.54.3-.54.3-.55.31-.53.3-.54.3-.54.3-.54.31-.53.3-.53.3-.53.3-.53.31-.53.3-.53.3-.53.31-.52.3-.52.3-.52.3-.52.31-.52.3-.52.3-.52.3-.51.31-.51.3-.52.3-.51.3-.5.31-.51.3-.51.3-.5.31-.51.3-.5.3-.5.3-.5.31-.49.3-.5.3-.49.3-.5.31-.49.3-.49.3-.49.3-.49.31-.48.3-.49.3-.48.31-.48.3-.48.3-.48.3-.48.31-.48.3-.47.3-.48.3-.47.31-.47.3-.47.3-.47.31-.46.3-.47.3-.46.3-.46.31-.47.3-.45.3-.46.3-.46.31-.45.3-.46.3-.45.3-.45.31-.45.3-.45.3-.45.31-.44.3-.45.3-.44.3-.44.31-.44.3-.44.3-.43.3-.44.31-.43.3-.44.3-.43.3-.43.31-.43.3-.42.3-.43.31-.42.3-.43.3-.42.3-.42.31-.42.3-.41.3-.42.3-.41.31-.42.3-.41.3-.41.3-.41.31-.4.3-.41.3-.4.31-.41.3-.4.3-.4.3-.4.31-.4.3-.39.3-.4.3-.39.31-.39.3-.39.3-.39.31-.39.3-.39.3-.38.3-.38.31-.39.3-.38.3-.38.3-.37.31-.38.3-.37.3-.38.3-.37.31-.37.3-.37.3-.37.31-.36.3-.37.3-.36.3-.36.31-.37.3-.36.3-.35.3-.36.31-.35.3-.36.3-.35.3-.35.31-.35.3-.35.3-.35.31-.34.3-.35.3-.34.3-.34.31-.34.3-.34.3-.33.3-.34.31-.33.3-.34.3-.33.3-.33.31-.33.3-.32.3-.33.31-.32.3-.32.3-.33.3-.32.31-.31.3-.32.3-.32.3-.31.31-.31.3-.32.3-.31.3-.31.31-.3.3-.31.3-.3.31-.31.3-.3.3-.3.3-.3.31-.29.3-.3.3-.29.3-.3.31-.29.3-.29.3-.29.31-.29.3-.28.3-.29.3-.28.31-.28.3-.28.3-.28.3-.28.31-.28.3-.27.3-.27.3-.28.31-.27.3-.27.3-.26.31-.27.3-.26.3-.27.3-.26.31-.26.3-.26.3-.26.3-.25.31-.26.3-.25.3-.26.3-.25.31-.25.3-.24.3-.25.31-.25.3-.24.3-.24.3-.24.31-.24.3-.24.3-.24.3-.23.31-.24.3-.23.3-.23.3-.23.31-.23.3-.23.3-.22.31-.23.3-.22.3-.22.3-.22.31-.22.3-.22.3-.21.3-.22.31-.21.3-.21.3-.21.31-.21.3-.21.3-.2.3-.21.31-.2.3-.2.3-.2.3-.2.31-.2.3-.19.3-.2.3-.19.31-.19.3-.19.3-.19.31-.19.3-.18.3-.19.3-.18.31-.18.3-.18.3-.18.3-.18.31-.18.3-.17.3-.17.3-.18.31-.17.3-.17.3-.16.31-.17.3-.17.3-.16.3-.16.31-.16.3-.16.3-.16.3-.16.31-.15.3-.15.3-.16.3-.15.31-.15.3-.14.3-.15.31-.15.3-.14.3-.14.3-.14.31-.14.3-.14.3-.14.3-.13.31-.14.3-.13.3-.13.31-.13.3-.13.3-.13.3-.12.31-.12.3-.13.3-.12.3-.12.31-.12.3-.11.3-.12.3-.11.31-.12.3-.11.3-.11.31-.11.3-.1.3-.11.3-.1.31-.11.3-.1.3-.1.3-.1.31-.09.3-.1.3-.09.3-.1.31-.09.3-.09.3-.09.31-.08.3-.09.3-.09.3-.08.31-.08.3-.08.3-.08.3-.08.31-.07.3-.08.3-.07.3-.07.31-.07.3-.07.3-.07.31-.07.3-.06.3-.06.3-.07.31-.06.3-.06.3-.05.3-.06.31-.06.3-.05.3-.05.3-.05.31-.05.3-.05.3-.05.31-.04.3-.04.3-.05.3-.04.31-.04.3-.04.3-.03.3-.04.31-.03.3-.03.3-.03.31-.03.3-.03.3-.03.3-.02.31-.03.3-.02.3-.02.3-.02.31-.02.3-.02.3-.01.3-.02.31-.01.3-.01.3-.01.31-.01.3-.01h.3l.3-.01h1.52l.3.01h.3l.3.01.31.01.3.01.3.01.31.01.3.02.3.01.3.02.31.02.3.02.3.02.3.02.31.03.3.02.3.03.3.03.31.03.3.03.3.03.31.03.3.04.3.03.3.04.31.04.3.04.3.05.3.04.31.04.3.05.3.05.31.05.3.05.3.05.3.05.31.06.3.06.3.05.3.06.31.06.3.07.3.06.3.06.31.07.3.07.3.07.31.07.3.07.3.07.3.08.31.07.3.08.3.08.3.08.31.08.3.08.3.09.3.09.31.08.3.09.3.09.31.09.3.1.3.09.3.1.31.09.3.1.3.1.3.1.31.11.3.1.3.11.3.1.31.11.3.11.3.11.31.12.3.11.3.12.3.11.31.12.3.12.3.12.3.13.31.12.3.12.3.13.3.13.31.13.3.13.3.13.31.14.3.13.3.14.3.14.31.14.3.14.3.14.3.14.31.15.3.15.3.14.31.15.3.15.3.16.3.15.31.15.3.16.3.16.3.16.31.16.3.16.3.16.3.17.31.17.3.16.3.17.31.17.3.18.3.17.3.17.31.18.3.18.3.18.3.18.31.18.3.18.3.19.3.18.31.19.3.19.3.19.31.19.3.19.3.2.3.19.31.2.3.2.3.2.3.2.31.2.3.21.3.2.3.21.31.21.3.21.3.21.31.21.3.22.3.21.3.22.31.22.3.22.3.22.3.22.31.23.3.22.3.23.31.23.3.23.3.23.3.23.31.24.3.23.3.24.3.24.31.24.3.24.3.24.3.24.31.25.3.25.3.24.31.25.3.25.3.26.3.25.31.26.3.25.3.26.3.26.31.26.3.26.3.27.3.26.31.27.3.26.3.27.31.27.3.28.3.27.3.27.31.28.3.28.3.28.3.28.31.28.3.28.3.29.3.28.31.29.3.29.3.29.31.29.3.3.3.29.3.3.31.29.3.3.3.3.3.3.31.31.3.3.3.31.31.3.3.31.3.31.3.32.31.31.3.31.3.32.3.32.31.31.3.32.3.33.3.32.31.32.3.33.3.32.31.33.3.33.3.33.3.34.31.33.3.34.3.33.3.34.31.34.3.34.3.34.3.35.31.34.3.35.3.35.31.35.3.35.3.35.3.36.31.35.3.36.3.35.3.36.31.37.3.36.3.36.3.37.31.36.3.37.3.37.31.37.3.37.3.38.3.37.31.38.3.37.3.38.3.38.31.39.3.38.3.38.3.39.31.39.3.39.3.39.31.39.3.39.3.4.3.39.31.4.3.4.3.4.3.4.31.41.3.4.3.41.31.4.3.41.3.41.3.41.31.42.3.41.3.42.3.41.31.42.3.42.3.42.3.43.31.42.3.43.3.42.31.43.3.43.3.43.3.44.31.43.3.44.3.43.3.44.31.44.3.44.3.44.3.45.31.44.3.45.3.45.31.45.3.45.3.45.3.46.31.45.3.46.3.46.3.45.31.47.3.46.3.46.3.47.31.46.3.47.3.47.31.47.3.47.3.48.3.47.31.48.3.48.3.48.3.48.31.48.3.48.3.49.31.48.3.49.3.49.3.49.31.49.3.5.3.49.3.5.31.49.3.5.3.5.3.5.31.51.3.5.3.51.31.51.3.5.3.51.3.52.31.51.3.51.3.52.3.52.31.52.3.52.3.52.3.52.31.52.3.53.3.53.31.53.3.53.3.53.3.53.31.53.3.54.3.54.3.54.31.53.3.55.3.54.3.54.31.55.3.55.3.54.31.55.3.55.3.56.3.55.31.56.3.55.3.56.3.56.31.56.3.56.3.57.31.56.3.57.3.57.3.57.31.57.3.57.3.57.3.58.31.57.3.58.3.58.3.58.31.58.3.59.3.58.31.59.3.59.3.59.3.59.31.59.3.59.3.6.3.59.31.6.3.6.3.6.3.6.31.61.3.6" style="stroke-width:1;stroke:#000;stroke-opacity:1;stroke-dasharray:3"/></g></g><path stroke="none" d="M1 1h428v335H1z" class="real" style="fill:transparent;stroke:none" transform="translate(-44.167 -46)"/></g><g class="composite-shape"><path d="M18.87 281.39c0-4.21 3.41-7.62 7.62-7.62a7.62 7.62 0 0 1 7.63 7.62c0 4.22-3.41 7.63-7.63 7.63a7.62 7.62 0 0 1-7.62-7.63Z" class="real" style="stroke-width:1;stroke:#900;stroke-opacity:1;fill:#900;fill-opacity:1"/></g><g class="composite-shape"><path d="M83.77 281.39c0-4.21 3.42-7.62 7.63-7.62s7.63 3.41 7.63 7.62c0 4.22-3.42 7.63-7.63 7.63s-7.63-3.41-7.63-7.63Z" class="real" style="stroke-width:1;stroke:#900;stroke-opacity:1;fill:#900;fill-opacity:1"/></g><g class="composite-shape"><path d="M148.68 281.39a7.62 7.62 0 0 1 7.63-7.62c4.21 0 7.62 3.41 7.62 7.62a7.62 7.62 0 0 1-7.62 7.63c-4.22 0-7.63-3.41-7.63-7.63Z" class="real" style="stroke-width:1;stroke:#900;stroke-opacity:1;fill:#900;fill-opacity:1"/></g><g class="composite-shape"><path d="M213.59 281.39c0-4.21 3.41-7.62 7.62-7.62a7.62 7.62 0 0 1 7.63 7.62c0 4.22-3.41 7.63-7.63 7.63a7.62 7.62 0 0 1-7.62-7.63Z" class="real" style="stroke-width:1;stroke:#900;stroke-opacity:1;fill:#900;fill-opacity:1"/></g><g class="composite-shape"><path d="M278.49 281.39c0-4.21 3.42-7.62 7.63-7.62s7.63 3.41 7.63 7.62c0 4.22-3.42 7.63-7.63 7.63s-7.63-3.41-7.63-7.63Z" class="real" style="stroke-width:1;stroke:#900;stroke-opacity:1;fill:#900;fill-opacity:1"/></g><g class="arrow-line"><path d="M26.49 281.39h39.44" class="connection real" style="stroke:#900;stroke-opacity:1;stroke-width:2;fill:none;fill-opacity:1"/><path fill="#900" stroke="none" d="M13.4-6.43 0 0l13.4 6.44L8.9 0Z" style="stroke:none;fill:#900;stroke-width:2" transform="matrix(-1 0 0 -1 69.933 281.395)"/></g><g class="arrow-line"><path d="M91.4 281.39h39.44" class="connection real" style="stroke:#900;stroke-opacity:1;stroke-width:2;fill:none;fill-opacity:1"/><path fill="#900" stroke="none" d="M13.4-6.43 0 0l13.4 6.44L8.9 0Z" style="stroke:none;fill:#900;stroke-width:2" transform="matrix(-1 0 0 -1 134.84 281.395)"/></g><g class="arrow-line"><path d="M156.31 281.39h39.44" class="connection real" style="stroke:#900;stroke-opacity:1;stroke-width:2;fill:none;fill-opacity:1"/><path fill="#900" stroke="none" d="M13.4-6.43 0 0l13.4 6.44L8.9 0Z" style="stroke:none;fill:#900;stroke-width:2" transform="matrix(-1 0 0 -1 199.747 281.395)"/></g><g class="arrow-line"><path d="M221.21 281.39h39.44" class="connection real" style="stroke:#900;stroke-opacity:1;stroke-width:2;fill:none;fill-opacity:1"/><path fill="#900" stroke="none" d="M13.4-6.43 0 0l13.4 6.44L8.9 0Z" style="stroke:none;fill:#900;stroke-width:2" transform="matrix(-1 0 0 -1 264.653 281.395)"/></g><g class="arrow-line"><path d="M286.12 281.39h39.44" class="connection real" style="stroke:#900;stroke-opacity:1;stroke-width:2;fill:none;fill-opacity:1"/><path fill="#900" stroke="none" d="M13.4-6.43 0 0l13.4 6.44L8.9 0Z" style="stroke:none;fill:#900;stroke-width:2" transform="matrix(-1 0 0 -1 329.56 281.395)"/></g><g class="arrow-line"><path d="M26.49 191.22H349.2" class="connection real" style="stroke:#000;stroke-width:1;fill:none;fill-opacity:1"/><path d="M10.93-3.29Q4.96-.45 0 0q4.96.45 10.93 3.29" style="stroke:#000;stroke-width:1" transform="matrix(-1 0 0 -1 351.2 191.22)"/></g><g class="arrow-line"><path d="M26.49 191.22v-172" class="connection real" style="stroke:#000;stroke-width:1;fill:none;fill-opacity:1"/><path d="M10.93-3.29Q4.96-.45 0 0q4.96.45 10.93 3.29" style="stroke:#000;stroke-width:1" transform="rotate(90 4.637 21.857)"/></g><g class="composite-shape"><path d="M18.87 191.22c0-4.21 3.41-7.63 7.62-7.63 4.22 0 7.63 3.42 7.63 7.63s-3.41 7.63-7.63 7.63c-4.21 0-7.62-3.42-7.62-7.63Z" class="real" style="stroke-width:1;stroke:#900;stroke-opacity:1;fill:#900;fill-opacity:1"/></g><g class="composite-shape"><path d="M148.68 61.39a7.62 7.62 0 0 1 7.63-7.62c4.21 0 7.62 3.41 7.62 7.62a7.62 7.62 0 0 1-7.62 7.63c-4.22 0-7.63-3.41-7.63-7.63Z" class="real" style="stroke-width:1;stroke:#900;stroke-opacity:1;fill:#900;fill-opacity:1"/></g><g class="composite-shape"><path d="M278.49 191.22c0-4.21 3.42-7.63 7.63-7.63s7.63 3.42 7.63 7.63-3.42 7.63-7.63 7.63-7.63-3.42-7.63-7.63Z" class="real" style="stroke-width:1;stroke:#900;stroke-opacity:1;fill:#900;fill-opacity:1"/></g><g class="arrow-line"><path d="M26.49 191.22V132.1" class="connection real" style="stroke:#900;stroke-opacity:1;stroke-width:2;fill:none;fill-opacity:1"/><path fill="#900" stroke="none" d="M13.4-6.43 0 0l13.4 6.44L8.9 0Z" style="stroke:none;fill:#900;stroke-width:2" transform="rotate(90 -50.803 77.297)"/></g><g class="arrow-line"><path d="M26.49 191.22h39.44" class="connection real" style="stroke:#900;stroke-opacity:1;stroke-width:2;fill:none;fill-opacity:1"/><path fill="#900" stroke="none" d="M13.4-6.43 0 0l13.4 6.44L8.9 0Z" style="stroke:none;fill:#900;stroke-width:2" transform="matrix(-1 0 0 -1 69.933 191.22)"/></g><g class="composite-shape"><path d="M213.59 95.39c0-4.21 3.41-7.62 7.62-7.62a7.62 7.62 0 0 1 7.63 7.62c0 4.22-3.41 7.63-7.63 7.63a7.62 7.62 0 0 1-7.62-7.63Z" class="real" style="stroke-width:1;stroke:#900;stroke-opacity:1;fill:#900;fill-opacity:1"/></g><g class="composite-shape"><path d="M83.77 96.39c0-4.21 3.42-7.62 7.63-7.62s7.63 3.41 7.63 7.62c0 4.22-3.42 7.63-7.63 7.63s-7.63-3.41-7.63-7.63Z" class="real" style="stroke-width:1;stroke:#900;stroke-opacity:1;fill:#900;fill-opacity:1"/></g><g class="arrow-line"><path d="M91.4 96.39V74.1" class="connection real" style="stroke:#900;stroke-opacity:1;stroke-width:2;fill:none;fill-opacity:1"/><path fill="#900" stroke="none" d="M13.4-6.43 0 0l13.4 6.44L8.9 0Z" style="stroke:none;fill:#900;stroke-width:2" transform="rotate(90 10.65 80.75)"/></g><g class="arrow-line"><path d="M91.4 96.39h39.44" class="connection real" style="stroke:#900;stroke-opacity:1;stroke-width:2;fill:none;fill-opacity:1"/><path fill="#900" stroke="none" d="M13.4-6.43 0 0l13.4 6.44L8.9 0Z" style="stroke:none;fill:#900;stroke-width:2" transform="matrix(-1 0 0 -1 134.84 96.395)"/></g><g class="arrow-line"><path d="M156.31 61.39h39.44" class="connection real" style="stroke:#900;stroke-opacity:1;stroke-width:2;fill:none;fill-opacity:1"/><path fill="#900" stroke="none" d="M13.4-6.43 0 0l13.4 6.44L8.9 0Z" style="stroke:none;fill:#900;stroke-width:2" transform="matrix(-1 0 0 -1 199.747 61.395)"/></g><g class="arrow-line"><path d="M221.21 95.39h39.44" class="connection real" style="stroke:#900;stroke-opacity:1;stroke-width:2;fill:none;fill-opacity:1"/><path fill="#900" stroke="none" d="M13.4-6.43 0 0l13.4 6.44L8.9 0Z" style="stroke:none;fill:#900;stroke-width:2" transform="matrix(-1 0 0 -1 264.653 95.395)"/></g><g class="arrow-line"><path d="M286.12 191.22h39.44" class="connection real" style="stroke:#900;stroke-opacity:1;stroke-width:2;fill:none;fill-opacity:1"/><path fill="#900" stroke="none" d="M13.4-6.43 0 0l13.4 6.44L8.9 0Z" style="stroke:none;fill:#900;stroke-width:2" transform="matrix(-1 0 0 -1 329.56 191.22)"/></g><g class="arrow-line"><path d="M286.12 250.34v-59.12" class="connection real" style="stroke:#900;stroke-opacity:1;stroke-width:2;fill:none;fill-opacity:1"/><path fill="#900" stroke="none" d="M13.4-6.43 0 0l13.4 6.44L8.9 0Z" style="stroke:none;fill:#900;stroke-width:2" transform="rotate(-90 270.23 -15.89)"/></g><g class="arrow-line"><path d="M221.21 117.69v-22.3" class="connection real" style="stroke:#900;stroke-opacity:1;stroke-width:2;fill:none;fill-opacity:1"/><path fill="#900" stroke="none" d="M13.4-6.43 0 0l13.4 6.44L8.9 0Z" style="stroke:none;fill:#900;stroke-width:2" transform="rotate(-90 171.452 -49.762)"/></g></g></svg><svg xmlns="http://www.w3.org/2000/svg" xmlns:xlink="http://www.w3.org/1999/xlink" width="378" height="296.8" style="width:378px;height:296.8000183105469px;font-family:Asana-Math,Asana;background:#fff"><path fill="#000" stroke="#000" stroke-width=".136" d="M354.153 208.995c.255.136.527.204.731.204.561 0 1.224-.493 1.751-1.292l1.292-1.989.187 1.173c.221 1.445.612 2.108 1.224 2.108.374 0 .918-.289 1.462-.782l.833-.748-.153-.323c-.612.51-1.037.765-1.309.765-.255 0-.476-.17-.646-.51-.153-.323-.34-.952-.425-1.445l-.306-1.717.595-.833c.8-1.105 1.258-1.496 1.785-1.496.272 0 .476.136.561.391l.238-.068.255-1.445c-.204-.119-.357-.17-.51-.17-.68 0-1.36.612-2.414 2.176l-.629.935-.102-.816c-.204-1.683-.663-2.295-1.666-2.295-.442 0-.816.136-.969.357l-.986 1.411.29.17c.51-.578.85-.816 1.172-.816.561 0 .935.697 1.224 2.363l.187 1.054-.68 1.054c-.73 1.14-1.309 1.683-1.785 1.683-.255 0-.442-.068-.476-.153l-.187-.476-.34.051c0 .595-.136 1.037-.204 1.48ZM33.401 38.072c-.017.12-.017.221-.017.306 0 .731.63 1.326 1.394 1.326 1.802 0 3.672-2.108 4.675-5.253l2.397-7.48-.187-.153c-.493.187-.884.29-1.258.323l-.595 2.244c-.204.8-.799 2.04-1.36 2.873-.595.867-1.428 1.615-1.802 1.615-.204 0-.357-.39-.34-.816l.272-3.519c.034-.527.068-1.173.068-1.649 0-.765-.119-1.07-.408-1.07-.22 0-.459.118-1.275.68l-1.394.951.187.306.85-.51c.085-.05.272-.204.425-.204.238 0 .374.323.374.884 0 .017 0 .12-.017.255l-.289 4.131-.017.68c0 .714.306 1.207.731 1.207.63 0 2.057-1.445 3.332-3.366l-.833 2.907c-.867 3.01-1.717 4.25-2.907 4.25a1.04 1.04 0 0 1-1.054-1.054c0-.085.017-.22.034-.374l-.17-.068Z"/></svg></svg>