<svg xmlns="http://www.w3.org/2000/svg" width="309.6" height="248.4" style="width:309.6000061035156px;height:248.40000915527344px;background:0 0;fill:none"><svg xmlns="http://www.w3.org/2000/svg"/><svg xmlns="http://www.w3.org/2000/svg" class="role-diagram-draw-area" style="overflow:visible"><g class="shapes-region" style="stroke:#000;fill:none"><g class="composite-shape" data-amt="diagram/shapes/plot"><g class="test-plot-expression" transform="translate(-100.2 -7.5)"><defs><clipPath id="cpds54koz1bdg-full-view"><path d="M1 1h428v292.5H1z"/></clipPath></defs><g clip-path="url(#cpds54koz1bdg-full-view)"><path d="m123.36 194.5.29-.58.29-.58.29-.58.3-.58.29-.58.29-.59.29-.58.29-.58.29-.58.29-.58.29-.58.29-.58.29-.58.29-.58.29-.58.29-.58.29-.58.29-.58.29-.58.29-.58.29-.58.29-.58.29-.57.29-.58.29-.58.3-.58.29-.58.29-.58.29-.57.29-.58.29-.58.29-.58.29-.57.29-.58.29-.58.29-.57.29-.58.29-.57.29-.58.29-.57.29-.58.29-.57.29-.58.29-.57.29-.57.29-.58.29-.57.29-.57.3-.57.29-.57.29-.57.29-.57.29-.57.29-.57.29-.57.29-.57.29-.57.29-.57.29-.57.29-.56.29-.57.29-.57.29-.56.29-.57.29-.56.29-.57.29-.56.29-.56.29-.57.29-.56.3-.56.29-.56.29-.56.29-.56.29-.56.29-.56.29-.56.29-.56.29-.55.29-.56.29-.56.29-.55.29-.56.29-.55.29-.55.29-.56.29-.55.29-.55.29-.55.29-.55.29-.55.29-.55.3-.55.29-.54.29-.55.29-.55.29-.54.29-.55.29-.54.29-.54.29-.54.29-.55.29-.54.29-.54.29-.54.29-.53.29-.54.29-.54.29-.53.29-.54.29-.53.29-.54.29-.53.29-.53.29-.53.3-.53.29-.53.29-.53.29-.52.29-.53.29-.53.29-.52.29-.52.29-.53.29-.52.29-.52.29-.52.29-.52.29-.52.29-.51.29-.52.29-.51.29-.52.29-.51.29-.51.29-.51.29-.51.3-.51.29-.51.29-.51.29-.5.29-.51.29-.5.29-.5.29-.51.29-.5.29-.5.29-.5.29-.49.29-.5.29-.49.29-.5.29-.49.29-.49.29-.49.29-.49.29-.49.29-.49.29-.48.29-.49.3-.48.29-.48.29-.49.29-.48.29-.48.29-.47.29-.48.29-.47.29-.48.29-.47.29-.47.29-.47.29-.47.29-.47.29-.47.29-.46.29-.47.29-.46.29-.46.29-.46.29-.46.29-.46.3-.45.29-.46.29-.45.29-.45.29-.45.29-.45.29-.45.29-.45.29-.44.29-.45.29-.44.29-.44.29-.44.29-.44.29-.44.29-.44.29-.43.29-.43.29-.43.29-.43.29-.43.29-.43.29-.43.3-.42.29-.42.29-.43.29-.42.29-.41.29-.42.29-.42.29-.41.29-.41.29-.41.29-.41.29-.41.29-.41.29-.4.29-.41.29-.4.29-.4.29-.4.29-.4.29-.39.29-.4.29-.39.3-.39.29-.39.29-.39.29-.38.29-.39.29-.38.29-.38.29-.38.29-.38.29-.38.29-.37.29-.38.29-.37.29-.37.29-.37.29-.37.29-.36.29-.37.29-.36.29-.36.29-.36.29-.35.29-.36.3-.35.29-.35.29-.35.29-.35.29-.35.29-.35.29-.34.29-.34.29-.34.29-.34.29-.34.29-.33.29-.33.29-.34.29-.33.29-.32.29-.33.29-.32.29-.33.29-.32.29-.32.29-.31.3-.32.29-.31.29-.31.29-.31.29-.31.29-.31.29-.3.29-.31.29-.3.29-.3.29-.3.29-.29.29-.29.29-.3.29-.29.29-.29.29-.28.29-.29.29-.28.29-.28.29-.28.29-.28.29-.27.3-.28.29-.27.29-.27.29-.26.29-.27.29-.26.29-.27.29-.26.29-.25.29-.26.29-.26.29-.25.29-.25.29-.25.29-.24.29-.25.29-.24.29-.24.29-.24.29-.24.29-.24.29-.23.3-.23.29-.23.29-.23.29-.22.29-.23.29-.22.29-.22.29-.21.29-.22.29-.21.29-.22.29-.21.29-.2.29-.21.29-.2.29-.2.29-.2.29-.2.29-.2.29-.19.29-.19.29-.19.29-.19.3-.19.29-.18.29-.18.29-.18.29-.18.29-.18.29-.17.29-.17.29-.17.29-.17.29-.16.29-.17.29-.16.29-.16.29-.16.29-.15.29-.15.29-.16.29-.14.29-.15.29-.15.29-.14.3-.14.29-.14.29-.14.29-.13.29-.13.29-.13.29-.13.29-.13.29-.12.29-.13.29-.12.29-.11.29-.12.29-.11.29-.12.29-.11.29-.1.29-.11.29-.1.29-.1.29-.1.29-.1.29-.1.3-.09.29-.09.29-.09.29-.09.29-.08.29-.08.29-.08.29-.08.29-.08.29-.07.29-.07.29-.07.29-.07.29-.07.29-.06.29-.06.29-.06.29-.06.29-.06.29-.05.29-.05.29-.05.3-.05.29-.04.29-.04.29-.04.29-.04.29-.04.29-.03.29-.03.29-.03.29-.03.29-.03.29-.02.29-.02.29-.02.29-.02.29-.01.29-.01.29-.01.29-.01.29-.01h.29l.29-.01h.29l.3.01h.29l.29.01.29.01.29.01.29.01.29.01.29.02.29.02.29.02.29.02.29.03.29.03.29.03.29.03.29.03.29.04.29.04.29.04.29.04.29.04.29.05.3.05.29.05.29.05.29.06.29.06.29.05.29.07.29.06.29.07.29.06.29.07.29.08.29.07.29.08.29.07.29.08.29.09.29.08.29.09.29.09.29.09.29.09.29.1.3.09.29.1.29.1.29.11.29.1.29.11.29.11.29.11.29.12.29.11.29.12.29.12.29.12.29.13.29.12.29.13.29.13.29.14.29.13.29.14.29.14.29.14.3.14.29.14.29.15.29.15.29.15.29.16.29.15.29.16.29.16.29.16.29.16.29.17.29.17.29.16.29.18.29.17.29.18.29.17.29.18.29.18.29.19.29.18.3.19.29.19.29.19.29.2.29.19.29.2.29.2.29.2.29.21.29.2.29.21.29.21.29.21.29.21.29.22.29.22.29.22.29.22.29.22.29.23.29.22.29.23.29.24.3.23.29.23.29.24.29.24.29.24.29.24.29.25.29.25.29.24.29.26.29.25.29.25.29.26.29.26.29.26.29.26.29.26.29.27.29.27.29.27.29.27.29.27.3.28.29.27.29.28.29.28.29.29.29.28.29.29.29.29.29.29.29.29.29.29.29.3.29.29.29.3.29.3.29.31.29.3.29.31.29.31.29.31.29.31.29.31.29.32.3.32.29.31.29.33.29.32.29.32.29.33.29.33.29.33.29.33.29.33.29.34.29.33.29.34.29.34.29.34.29.35.29.34.29.35.29.35.29.35.29.35.29.35.3.36.29.35.29.36.29.36.29.37.29.36.29.36.29.37.29.37.29.37.29.37.29.38.29.37.29.38.29.38.29.38.29.38.29.38.29.39.29.38.29.39.29.39.29.39.3.39.29.4.29.39.29.4.29.4.29.4.29.4.29.41.29.4.29.41.29.41.29.41.29.41.29.41.29.41.29.42.29.42.29.41.29.42.29.43.29.42.29.42.3.43.29.43.29.42.29.43.29.44.29.43.29.43.29.44.29.44.29.44.29.44.29.44.29.44.29.44.29.45.29.45.29.44.29.45.29.45.29.46.29.45.29.46.29.45.3.46.29.46.29.46.29.46.29.46.29.47.29.46.29.47.29.47.29.46.29.48.29.47.29.47.29.47.29.48.29.48.29.47.29.48.29.48.29.48.29.49.29.48.3.48.29.49.29.49.29.49.29.48.29.5.29.49.29.49.29.49.29.5.29.5.29.49.29.5.29.5.29.5.29.5.29.51.29.5.29.5.29.51.29.51.29.5.29.51.3.51.29.51.29.52.29.51.29.51.29.52.29.51.29.52.29.52.29.52.29.52.29.52.29.52.29.52.29.53.29.52.29.53.29.52.29.53.29.53.29.53.29.53.3.53.29.53.29.53.29.53.29.54.29.53.29.54.29.54.29.53.29.54.29.54.29.54.29.54.29.54.29.54.29.55.29.54.29.54.29.55.29.55.29.54.29.55.29.55.3.55.29.54.29.55.29.56.29.55.29.55.29.55.29.56.29.55.29.55.29.56.29.55.29.56.29.56.29.56.29.55.29.56.29.56.29.56.29.56.29.56.29.57.3.56.29.56.29.56.29.57.29.56.29.57.29.56.29.57.29.56.29.57.29.57.29.57.29.56.29.57.29.57.29.57.29.57.29.57.29.57.29.57.29.57.29.58.29.57.3.57.29.57.29.58.29.57.29.57.29.58.29.57.29.58.29.57.29.58.29.57.29.58.29.58.29.57.29.58.29.58.29.57.29.58.29.58.29.58.29.57.29.58.3.58.29.58.29.58.29.58.29.58.29.58.29.58.29.58.29.58.29.58.29.58.29.58.29.58.29.58.29.58.29.58.29.58.29.58.29.58.29.58.29.58.29.58.29.58.3.58.29.59" style="stroke-width:2;stroke:#900;stroke-opacity:1"/></g></g><path stroke="none" d="M1 1h428v292.5H1z" class="real" style="fill:transparent;stroke:none" transform="translate(-100.2 -7.5)"/></g><g class="arrow-line"><path d="M22.8 187.5h248.48m-223.48-4v8m25-8v8m25-8v8m25-8v8m25-8v8m25-8v8m25-8v8m25-8v8m25-8v8" class="connection real" style="stroke:#000;stroke-width:1;fill:none;fill-opacity:1"/><path d="M10.93-3.29Q4.96-.45 0 0q4.96.45 10.93 3.29" style="stroke:#000;stroke-width:1" transform="matrix(-1 0 0 -1 273.28 187.5)"/></g><g class="arrow-line"><path d="M22.8 187.5v-165" class="connection real" style="stroke:#000;stroke-width:1;fill:none;fill-opacity:1"/><path d="M10.93-3.29Q4.96-.45 0 0q4.96.45 10.93 3.29" style="stroke:#000;stroke-width:1" transform="rotate(90 1.15 21.65)"/></g><g class="arrow-line"><path stroke-dasharray="3" d="M147.6 219.68V28.88" class="connection real" style="stroke:#900;stroke-opacity:1;stroke-width:1;fill:none;fill-opacity:1"/></g><g class="arrow-line"><path stroke-dasharray="3" d="M273.28 187.5v-64.06" class="connection real" style="stroke:#900;stroke-opacity:1;stroke-width:1;fill:none;fill-opacity:1"/></g></g></svg><svg xmlns="http://www.w3.org/2000/svg" xmlns:xlink="http://www.w3.org/1999/xlink" width="308" height="246.8" style="width:308px;height:246.8000030517578px;font-family:Asana-Math,Asana;background:0 0"><path fill="#900" stroke="#900" stroke-width=".136" d="M141.16 233.635v1.275c0 1.02-.187 1.258-1.02 1.292l-1.054.051v.51c2.261-.05 2.261-.05 2.669-.05s.408 0 2.669.05v-.51l-.816-.05c-.833-.052-1.02-.273-1.02-1.293v-1.275c1.003 0 1.36.017 1.836.068v-1.207l-1.836.051.017-7.684-1.36.51-4.811 7.871v.391Zm0-1.088h-3.655l3.655-5.984Zm11.526-.136c0-1.92-1.377-3.28-3.315-3.28-.816 0-1.428.05-2.329.85v-3.554l5.185.017V225l-6.069-.017v6.256l.34.102c.799-.799 1.258-1.037 2.091-1.037 1.632 0 2.652 1.156 2.652 2.992 0 1.887-1.088 2.992-2.941 2.992-.918 0-1.768-.306-2.006-.748l-.782-1.394-.408.238c.391.97.595 1.513.833 2.261.476.255 1.156.408 1.887.408 2.176 0 4.862-1.853 4.862-4.64Zm4.063-7.412a2.543 2.543 0 0 0-2.533 2.55 2.547 2.547 0 0 0 2.55 2.55c1.377 0 2.55-1.156 2.55-2.516a2.57 2.57 0 0 0-2.567-2.584Zm0 .68c1.037 0 1.887.85 1.887 1.904 0 .986-.85 1.836-1.87 1.836a1.865 1.865 0 0 1-1.87-1.87c0-1.037.833-1.87 1.853-1.87ZM20.871 193.8c-2.635 0-3.978 2.09-3.978 6.205 0 1.989.357 3.706.952 4.539s1.547 1.309 2.601 1.309c2.567 0 3.859-2.21 3.859-6.562 0-3.723-1.105-5.491-3.434-5.491Zm-.306.595c1.649 0 2.312 1.666 2.312 5.746 0 3.62-.646 5.117-2.21 5.117-1.649 0-2.346-1.717-2.346-5.865 0-3.587.629-4.998 2.244-4.998Zm7.701-.595a2.543 2.543 0 0 0-2.533 2.55 2.547 2.547 0 0 0 2.55 2.55c1.377 0 2.55-1.156 2.55-2.516a2.57 2.57 0 0 0-2.567-2.584Zm0 .68c1.037 0 1.887.85 1.887 1.904 0 .986-.85 1.836-1.87 1.836a1.865 1.865 0 0 1-1.87-1.87c0-1.037.833-1.87 1.853-1.87Zm235.766-74.227c1.887-.612 2.703-1.003 3.621-1.785 1.649-1.411 2.516-3.366 2.516-5.644 0-2.873-1.377-4.624-3.621-4.624-2.176 0-3.808 1.7-3.808 3.978 0 1.955 1.275 3.383 3.043 3.383.578 0 1.241-.187 1.547-.442l1.19-.986c-.136 2.856-1.989 4.947-5.066 5.695v.136Zm2.448-11.492c.765 0 1.326.323 1.7 1.003.306.544.51 1.377.51 2.142 0 1.564-.901 2.618-2.21 2.618-1.36 0-2.278-1.207-2.278-2.975 0-1.717.884-2.788 2.278-2.788Zm8.874-.561c-2.635 0-3.978 2.09-3.978 6.205 0 1.989.357 3.706.952 4.539s1.547 1.309 2.601 1.309c2.567 0 3.859-2.21 3.859-6.562 0-3.723-1.105-5.491-3.434-5.491Zm-.306.595c1.649 0 2.312 1.666 2.312 5.746 0 3.62-.646 5.117-2.21 5.117-1.649 0-2.346-1.717-2.346-5.865 0-3.587.629-4.998 2.244-4.998Zm7.701-.595a2.543 2.543 0 0 0-2.533 2.55 2.547 2.547 0 0 0 2.55 2.55c1.377 0 2.55-1.156 2.55-2.516a2.57 2.57 0 0 0-2.567-2.584Zm0 .68c1.037 0 1.887.85 1.887 1.904 0 .986-.85 1.836-1.87 1.836a1.865 1.865 0 0 1-1.87-1.87c0-1.037.833-1.87 1.853-1.87Z"/><path fill="#000" stroke="#000" stroke-width=".136" d="m31.606 27.012.952.034c.408.017.595.153.595.459 0 .238-.068.782-.153 1.292l-1.275 7.378c-.272 1.547-.306 1.581-.986 1.649l-.697.051-.068.476.714-.017c.799-.034 1.122-.034 1.53-.034l1.649.051h.442l.05-.476-.832-.051c-.46-.034-.612-.17-.612-.51 0-.153.017-.306.068-.595l1.717-9.435a5.8 5.8 0 0 1 1.292-.136c1.479 0 2.26.663 2.26 1.921 0 1.615-1.325 2.805-3.093 2.805h-.748l-.051.187c2.278 3.315 2.805 4.131 4.08 6.29l1.445-.051c.017 0 .255.017.578.051h.22v-.459c-.68-.085-.866-.221-1.36-.935l-3.127-4.675c.935-.17 1.428-.374 2.04-.816.986-.714 1.513-1.649 1.513-2.686 0-1.462-1.088-2.261-2.975-2.227h-5.117Zm258.001 169.72c-.306-1.938-1.088-3.366-3.247-3.366-4.42 0-5.032 4.93-4.454 8.551.323 2.023 1.19 3.655 3.502 3.655 4.012 0 4.692-5.644 4.199-8.84Zm-1.173 2.091h-5.372c.119-1.768.867-5.015 3.06-5.015 1.462 0 2.023 1.547 2.21 2.703.119.765.102 1.547.102 2.312Zm0 .544c-.085 1.904-.408 5.712-2.839 5.712-1.734 0-2.21-1.904-2.414-3.23-.136-.833-.119-1.666-.119-2.482Z"/></svg></svg>