<svg xmlns="http://www.w3.org/2000/svg" width="300.6" height="179.2" style="width:300.6000061035156px;height:179.1999969482422px;background:#fff;fill:none"><svg xmlns="http://www.w3.org/2000/svg"/><svg xmlns="http://www.w3.org/2000/svg" class="role-diagram-draw-area"><g class="shapes-region" style="stroke:#000;fill:none"><g class="composite-shape"><path d="M112.06 129.88h10.33v11.03h-10.33Z" class="real" style="stroke-width:1;stroke:#000;fill:none;fill-opacity:1"/></g><g class="arrow-line"><path d="M11.71 140.91 119.86 8.15" class="connection real" style="stroke:#000;stroke-opacity:1;stroke-width:2;fill:none;fill-opacity:1"/><path fill="#000" stroke="none" d="M13.4-6.43 0 0l13.4 6.44L8.9 0Z" style="stroke:none;fill:#000;stroke-width:2" transform="rotate(129.17 59.994 31.601)"/></g><g class="arrow-line"><path stroke-dasharray="3" d="M11.71 140.91h108.68" class="connection real" style="stroke:#900;stroke-opacity:1;stroke-width:1;fill:none;fill-opacity:1"/><path stroke="#900" d="M10.93-3.29Q4.96-.45 0 0q4.96.45 10.93 3.29" style="stroke:#900;stroke-width:1" transform="matrix(-1 0 0 -1 122.387 140.91)"/></g><g class="arrow-line"><path stroke-dasharray="3" d="M122.39 140.91V7.05" class="connection real" style="stroke:#900;stroke-opacity:1;stroke-width:1;fill:none;fill-opacity:1"/><path stroke="#900" d="M10.93-3.29Q4.96-.45 0 0q4.96.45 10.93 3.29" style="stroke:#900;stroke-width:1" transform="rotate(90 58.668 63.718)"/></g><g class="composite-shape"><path stroke="none" d="M21.6 129.13c3.36 2.82 5.5 7.05 5.5 11.78H11.71Z" class="real" style="stroke-width:1;stroke:none;fill:none;fill-opacity:1"/><path d="M21.6 129.13c3.36 2.82 5.5 7.05 5.5 11.78" class="real" style="stroke-width:1;stroke:#000;fill:none;fill-opacity:1"/></g></g></svg><svg xmlns="http://www.w3.org/2000/svg" xmlns:xlink="http://www.w3.org/1999/xlink" width="299" height="177.6" style="width:299px;height:177.60000610351562px;font-family:Asana-Math,Asana;background:#fff"><path fill="#900" stroke="#900" stroke-width=".136" d="M57.96 159.173c.357 0 .629-.017 1.07-.068-1.886 2.04-2.6 3.45-2.6 5.15 0 1.31.782 2.245 1.87 2.245 2.346 0 4.947-4.2 4.947-6.715 0-.97-.442-1.666-1.054-1.666-.221 0-.425.068-.561.204l-.85.799.187.323a.8.8 0 0 1 .459-.153c.459 0 .73.39.73 1.07 0 2.517-1.648 5.288-3.144 5.288-.833 0-1.36-.714-1.36-1.82 0-1.784.663-3.331 2.329-5.405l-.17-.306c-.34.153-.561.204-1.037.204s-1.19-.034-1.683-.085l-.204-.017c-.102-.017-.187-.017-.204-.017-.204 0-.357.034-.544.119-.238.459-.425 1.07-.646 2.006h.374l.289-.714c.119-.29.459-.476.867-.476.56 0 .289.034.935.034Z"/><path fill="#900" stroke="#900" stroke-width=".095" d="M67.255 160.326c-1.845 0-2.785 1.464-2.785 4.343 0 1.393.25 2.595.666 3.178a2.2 2.2 0 0 0 1.821.916c1.797 0 2.702-1.547 2.702-4.593 0-2.606-.774-3.844-2.404-3.844Zm-.215.416c1.155 0 1.619 1.167 1.619 4.023 0 2.534-.452 3.582-1.547 3.582-1.154 0-1.642-1.202-1.642-4.106 0-2.51.44-3.499 1.57-3.499Zm3.13 7.771c.179.095.37.143.512.143.393 0 .857-.345 1.226-.904l.904-1.393.13.821c.156 1.012.43 1.476.858 1.476.261 0 .642-.202 1.023-.547l.583-.524-.107-.226c-.428.357-.726.535-.916.535-.179 0-.333-.119-.452-.357a4.7 4.7 0 0 1-.298-1.011l-.214-1.202.416-.583c.56-.774.881-1.047 1.25-1.047.19 0 .333.095.393.273l.166-.047.179-1.012c-.143-.083-.25-.119-.357-.119-.476 0-.952.429-1.69 1.523l-.44.655-.072-.571c-.143-1.178-.464-1.607-1.166-1.607-.31 0-.571.095-.678.25l-.69.988.202.119c.357-.405.595-.571.82-.571.394 0 .655.488.858 1.654l.13.738-.475.737c-.512.798-.917 1.178-1.25 1.178-.178 0-.31-.047-.333-.107l-.131-.333-.238.036c0 .416-.095.726-.143 1.035Z"/><svg width="22.725" height="10" x="55.138" y="143.313" overflow="visible"><path d="m22.73 5.39-3.5-3.69-.54.58 2.14 2.58h-.17v1h.17l-2.14 2.58.54.58zm-20.86.42h20.35v-1H1.87z" style="fill:#900;fill-opacity:1;stroke-width:1px;stroke:none;stroke-opacity:1"/></svg><path fill="#900" stroke="#900" stroke-width=".136" d="M141.01 79.61c.357 0 .629-.017 1.07-.068-1.887 2.04-2.6 3.451-2.6 5.151 0 1.309.782 2.244 1.87 2.244 2.346 0 4.947-4.199 4.947-6.715 0-.969-.442-1.666-1.054-1.666-.221 0-.425.068-.561.204l-.85.799.186.323a.8.8 0 0 1 .46-.153c.458 0 .73.391.73 1.071 0 2.516-1.648 5.287-3.144 5.287-.833 0-1.36-.714-1.36-1.819 0-1.785.662-3.332 2.328-5.406l-.17-.306c-.34.153-.56.204-1.036.204s-1.19-.034-1.683-.085l-.204-.017c-.102-.017-.187-.017-.204-.017a1.2 1.2 0 0 0-.545.119c-.238.459-.424 1.071-.645 2.006h.374l.288-.714c.12-.289.46-.476.868-.476.56 0 .288.034.935.034Z"/><path fill="#900" stroke="#900" stroke-width=".095" d="M150.305 80.763c-1.845 0-2.785 1.464-2.785 4.344 0 1.392.25 2.594.666 3.177a2.2 2.2 0 0 0 1.821.916c1.797 0 2.701-1.546 2.701-4.593 0-2.606-.773-3.844-2.403-3.844Zm-.215.417c1.155 0 1.619 1.166 1.619 4.022 0 2.535-.452 3.582-1.547 3.582-1.154 0-1.642-1.202-1.642-4.106 0-2.51.44-3.498 1.57-3.498Zm2.94 9.924c-.012.084-.012.155-.012.215 0 .511.44.928.976.928 1.261 0 2.57-1.476 3.272-3.677l1.678-5.236-.13-.107c-.346.13-.62.202-.881.226l-.417 1.57c-.143.56-.56 1.429-.952 2.012-.416.607-1 1.13-1.261 1.13-.143 0-.25-.273-.238-.571l.19-2.463c.024-.37.048-.821.048-1.155 0-.535-.084-.75-.286-.75-.155 0-.321.084-.892.477l-.976.666.13.214.596-.357c.06-.035.19-.142.297-.142.167 0 .262.226.262.618 0 .012 0 .084-.012.179l-.202 2.892-.012.476c0 .5.214.844.512.844.44 0 1.44-1.011 2.332-2.356l-.583 2.035c-.607 2.106-1.202 2.975-2.035 2.975a.727.727 0 0 1-.738-.738c0-.06.012-.154.024-.261l-.119-.048Z"/><svg width="22.725" height="10" x="138.188" y="63.75" overflow="visible"><path d="m22.73 5.39-3.5-3.69-.54.58 2.14 2.58h-.17v1h.17l-2.14 2.58.54.58zm-20.86.42h20.35v-1H1.87z" style="fill:#900;fill-opacity:1;stroke-width:1px;stroke:none;stroke-opacity:1"/></svg><path fill="#000" stroke="#000" stroke-width=".136" d="M42.36 59.747c.357 0 .629-.017 1.07-.068-1.886 2.04-2.6 3.451-2.6 5.151 0 1.31.782 2.244 1.87 2.244 2.346 0 4.947-4.199 4.947-6.715 0-.969-.442-1.666-1.054-1.666-.221 0-.425.068-.561.204l-.85.8.187.322a.8.8 0 0 1 .459-.153c.459 0 .73.391.73 1.071 0 2.516-1.648 5.287-3.144 5.287-.833 0-1.36-.714-1.36-1.819 0-1.785.663-3.332 2.329-5.406l-.17-.306c-.34.153-.561.204-1.037.204s-1.19-.034-1.683-.085l-.204-.017c-.102-.017-.187-.017-.204-.017-.204 0-.357.034-.544.12-.238.458-.425 1.07-.646 2.005h.374l.289-.714c.119-.289.459-.476.867-.476.56 0 .289.034.935.034Z"/><path fill="#000" stroke="#000" stroke-width=".095" d="M51.655 61.7c-1.845 0-2.785 1.465-2.785 4.344 0 1.393.25 2.595.667 3.178a2.2 2.2 0 0 0 1.82.916c1.797 0 2.702-1.547 2.702-4.593 0-2.606-.774-3.844-2.404-3.844Zm-.214.417c1.154 0 1.618 1.167 1.618 4.023 0 2.534-.452 3.582-1.547 3.582-1.154 0-1.642-1.202-1.642-4.106 0-2.51.44-3.499 1.57-3.499Z"/><svg width="16.788" height="10" x="39.538" y="43.887" overflow="visible"><path d="m16.79 5.39-3.5-3.69-.54.58 2.14 2.58h-.17v1h.17l-2.14 2.58.54.58zm-14.92.42h14.41v-1H1.87z" style="fill:#000;fill-opacity:1;stroke-width:1px;stroke:none;stroke-opacity:1"/></svg><path fill="#000" stroke="#000" stroke-width=".136" d="M31.567 135.672c4.012 0 5.695-5.644 5.763-8.84.034-1.938-.51-3.366-2.67-3.366-4.42 0-5.898 4.93-5.95 8.551-.033 2.023.545 3.655 2.857 3.655Zm2.788-11.764c2.295 0 1.785 3.145 1.428 5.015H30.41c.425-1.768 1.75-5.015 3.944-5.015Zm-2.516 11.271c-2.567 0-1.802-4.216-1.53-5.712h5.372c-.425 1.904-1.411 5.712-3.842 5.712Z"/><path fill="#900" stroke="#900" stroke-width=".136" d="M187.96 75.86c.357 0 .629-.017 1.07-.068-1.886 2.04-2.6 3.451-2.6 5.151 0 1.309.782 2.244 1.87 2.244 2.346 0 4.947-4.199 4.947-6.715 0-.969-.442-1.666-1.054-1.666-.221 0-.425.068-.561.204l-.85.799.187.323a.8.8 0 0 1 .459-.153c.459 0 .73.391.73 1.071 0 2.516-1.648 5.287-3.144 5.287-.833 0-1.36-.714-1.36-1.819 0-1.785.663-3.332 2.329-5.406l-.17-.306c-.34.153-.561.204-1.037.204s-1.19-.034-1.683-.085l-.204-.017c-.102-.017-.187-.017-.204-.017-.204 0-.357.034-.544.119-.238.459-.425 1.071-.646 2.006h.374l.289-.714c.119-.289.459-.476.867-.476.56 0 .289.034.935.034Z"/><path fill="#900" stroke="#900" stroke-width=".095" d="M197.255 77.013c-1.845 0-2.785 1.464-2.785 4.344 0 1.392.25 2.594.667 3.177a2.2 2.2 0 0 0 1.82.916c1.797 0 2.702-1.546 2.702-4.593 0-2.606-.774-3.844-2.404-3.844Zm-.214.417c1.154 0 1.618 1.166 1.618 4.022 0 2.535-.452 3.582-1.547 3.582-1.154 0-1.642-1.202-1.642-4.106 0-2.51.44-3.498 1.57-3.498Zm2.939 9.924c-.012.084-.012.155-.012.215 0 .511.44.928.976.928 1.261 0 2.57-1.476 3.272-3.677l1.678-5.236-.13-.107c-.346.13-.62.202-.881.226l-.417 1.57c-.143.56-.56 1.429-.952 2.012-.416.607-1 1.13-1.261 1.13-.143 0-.25-.273-.238-.571l.19-2.463c.024-.37.048-.821.048-1.155 0-.535-.084-.75-.286-.75-.155 0-.321.084-.892.477l-.976.666.13.214.596-.357c.06-.035.19-.142.297-.142.167 0 .262.226.262.618 0 .012 0 .084-.012.179l-.202 2.892-.012.476c0 .5.214.844.512.844.44 0 1.44-1.011 2.332-2.356l-.583 2.035c-.607 2.106-1.202 2.975-2.035 2.975a.727.727 0 0 1-.738-.738c0-.06.012-.154.024-.261l-.119-.048Z"/><path fill="#900" stroke="#900" stroke-width=".136" d="M222.38 77.101v-1.003h-9.163v1.003Zm0 3.621v-1.003h-9.163v1.003Z"/><path fill="#000" stroke="#000" stroke-width=".136" d="M231.397 75.86c.357 0 .629-.017 1.071-.068-1.887 2.04-2.601 3.451-2.601 5.151 0 1.309.782 2.244 1.87 2.244 2.346 0 4.947-4.199 4.947-6.715 0-.969-.442-1.666-1.054-1.666-.221 0-.425.068-.561.204l-.85.799.187.323a.8.8 0 0 1 .459-.153c.459 0 .731.391.731 1.071 0 2.516-1.649 5.287-3.145 5.287-.833 0-1.36-.714-1.36-1.819 0-1.785.663-3.332 2.329-5.406l-.17-.306c-.34.153-.561.204-1.037.204s-1.19-.034-1.683-.085l-.204-.017c-.102-.017-.187-.017-.204-.017-.204 0-.357.034-.544.119-.238.459-.425 1.071-.646 2.006h.374l.289-.714c.119-.289.459-.476.867-.476.561 0 .289.034.935.034Z"/><path fill="#000" stroke="#000" stroke-width=".095" d="M240.692 77.813c-1.844 0-2.784 1.464-2.784 4.344 0 1.392.25 2.594.666 3.177a2.2 2.2 0 0 0 1.82.917c1.798 0 2.702-1.547 2.702-4.594 0-2.606-.774-3.844-2.404-3.844Zm-.214.417c1.154 0 1.618 1.166 1.618 4.022 0 2.535-.452 3.582-1.547 3.582-1.154 0-1.642-1.202-1.642-4.105 0-2.511.44-3.5 1.571-3.5Z"/><path fill="#900" stroke="#900" stroke-width=".136" d="M245.21 80.569c0 1.173-.051 1.683-.187 2.363.884.289 1.547.408 2.329.408 2.227 0 3.808-1.19 3.808-2.856 0-2.941-4.828-1.36-4.828-3.57 0-.85.595-1.326 1.632-1.326 1.139 0 2.006.595 2.006 1.394v.391h.476c.017-.986.034-1.394.085-1.921-.901-.306-1.513-.425-2.21-.425-1.972 0-3.18.935-3.18 2.465 0 .816.375 1.394 1.157 1.751 2.006.884 3.604.442 3.604 1.904 0 .918-.85 1.564-2.057 1.564-1.241 0-2.125-.595-2.125-1.445v-.697Zm9.69-5.474-.153-.068a10 10 0 0 1-2.652.697v.476h.629c.68 0 .748.119.748 1.241v3.825c0 1.071-.051 1.19-.63 1.224l-.781.051v.51c1.7-.051 1.7-.051 2.125-.051s.425 0 2.125.051v-.51l-.782-.051c-.578-.034-.63-.153-.63-1.224Zm-.782-3.774a.973.973 0 0 0-.952.952c0 .493.442.935.935.935s.952-.442.952-.935c0-.476-.46-.952-.935-.952Zm9.486 11.73C264.64 83 264.658 83 264.947 83c.238 0 .238 0 1.41.051v-.51l-.696-.051c-.578-.034-.63-.136-.63-1.224v-3.281c0-1.989-.934-2.958-2.838-2.958-.63 0-.986.119-1.343.425l-1.292 1.122v-1.479l-.153-.068a10 10 0 0 1-2.652.697v.476h.629c.68 0 .748.119.748 1.241v3.825c0 1.071-.051 1.19-.63 1.224l-.764.051v.51c1.156-.034 1.615-.051 2.108-.051s.952.017 2.108.051v-.51l-.765-.051c-.578-.034-.63-.153-.63-1.224v-3.604c0-.765 1.123-1.598 2.16-1.598 1.139 0 1.887.85 1.887 2.159Zm5.391-4.573c0-4.42 1.649-6.222 2.635-7.378l-.323-.442c-.97.867-3.774 3.128-3.774 7.82 0 1.819.425 3.536 1.24 5.066.596 1.139 1.14 1.802 2.534 3.111l.323-.357c-.782-.969-2.635-3.043-2.635-7.82Z"/><path fill="#000" stroke="#000" stroke-width=".136" d="M281.462 74.432c-.306-1.938-1.088-3.366-3.247-3.366-4.42 0-5.032 4.93-4.454 8.551.323 2.023 1.19 3.655 3.502 3.655 4.012 0 4.692-5.644 4.199-8.84Zm-1.173 2.091h-5.372c.119-1.768.867-5.015 3.06-5.015 1.462 0 2.023 1.547 2.21 2.703.119.765.102 1.547.102 2.312Zm0 .544c-.085 1.904-.408 5.712-2.84 5.712-1.733 0-2.21-1.904-2.413-3.23-.136-.833-.12-1.666-.12-2.482Z"/><path fill="#900" stroke="#900" stroke-width=".136" d="m283.455 70.658-.323.442c.935 1.088 2.635 2.958 2.635 7.378 0 4.692-1.768 6.749-2.635 7.82l.323.357c.9-.85 3.774-3.264 3.774-8.16 0-4.709-2.805-6.97-3.774-7.837ZM187.56 102.66c.356 0 .628-.017 1.07-.068-1.887 2.04-2.6 3.451-2.6 5.151 0 1.309.781 2.244 1.87 2.244 2.345 0 4.946-4.199 4.946-6.715 0-.969-.442-1.666-1.054-1.666-.22 0-.425.068-.56.204l-.85.799.186.323a.8.8 0 0 1 .46-.153c.458 0 .73.391.73 1.071 0 2.516-1.649 5.287-3.145 5.287-.833 0-1.36-.714-1.36-1.819 0-1.785.663-3.332 2.33-5.406l-.17-.306c-.34.153-.562.204-1.038.204s-1.19-.034-1.683-.085l-.204-.017c-.102-.017-.187-.017-.204-.017-.204 0-.357.034-.544.119-.238.459-.425 1.071-.646 2.006h.374l.29-.714c.118-.289.458-.476.866-.476.561 0 .29.034.935.034Z"/><path fill="#900" stroke="#900" stroke-width=".095" d="M196.855 103.813c-1.845 0-2.785 1.464-2.785 4.344 0 1.392.25 2.594.667 3.177a2.2 2.2 0 0 0 1.82.917c1.797 0 2.702-1.547 2.702-4.594 0-2.606-.774-3.844-2.404-3.844Zm-.214.417c1.154 0 1.618 1.166 1.618 4.022 0 2.535-.452 3.582-1.547 3.582-1.154 0-1.642-1.202-1.642-4.105 0-2.511.44-3.5 1.57-3.5Zm3.13 7.77c.178.096.368.143.51.143.394 0 .858-.345 1.227-.904l.904-1.392.13.82c.156 1.012.43 1.476.858 1.476.262 0 .642-.202 1.023-.547l.583-.524-.107-.226c-.428.357-.726.536-.916.536-.179 0-.333-.12-.452-.357a4.7 4.7 0 0 1-.298-1.012l-.214-1.202.416-.583c.56-.773.881-1.047 1.25-1.047.19 0 .333.095.393.274l.166-.048.179-1.011c-.143-.084-.25-.12-.357-.12-.476 0-.952.43-1.69 1.524l-.44.654-.072-.57c-.143-1.179-.464-1.607-1.166-1.607-.31 0-.571.095-.678.25l-.69.987.202.12c.357-.405.595-.572.82-.572.394 0 .655.488.858 1.654l.13.738-.475.738c-.512.797-.917 1.178-1.25 1.178-.178 0-.31-.048-.333-.107l-.131-.333-.238.035c0 .417-.095.726-.143 1.036Z"/><path fill="#900" stroke="#900" stroke-width=".136" d="M221.98 103.901v-1.003h-9.162v1.003Zm0 3.621v-1.003h-9.162v1.003Z"/><path fill="#000" stroke="#000" stroke-width=".136" d="M230.997 102.66c.357 0 .629-.017 1.071-.068-1.887 2.04-2.601 3.451-2.601 5.151 0 1.309.782 2.244 1.87 2.244 2.346 0 4.947-4.199 4.947-6.715 0-.969-.442-1.666-1.054-1.666-.221 0-.425.068-.561.204l-.85.799.187.323a.8.8 0 0 1 .459-.153c.459 0 .731.391.731 1.071 0 2.516-1.649 5.287-3.145 5.287-.833 0-1.36-.714-1.36-1.819 0-1.785.663-3.332 2.329-5.406l-.17-.306c-.34.153-.561.204-1.037.204s-1.19-.034-1.683-.085l-.204-.017c-.102-.017-.187-.017-.204-.017-.204 0-.357.034-.544.119-.238.459-.425 1.071-.646 2.006h.374l.289-.714c.119-.289.459-.476.867-.476.561 0 .289.034.935.034Z"/><path fill="#000" stroke="#000" stroke-width=".095" d="M240.292 104.613c-1.844 0-2.784 1.464-2.784 4.344 0 1.392.25 2.594.666 3.177a2.2 2.2 0 0 0 1.82.916c1.798 0 2.702-1.547 2.702-4.593 0-2.606-.773-3.844-2.404-3.844Zm-.214.417c1.154 0 1.618 1.166 1.618 4.022 0 2.535-.452 3.582-1.547 3.582-1.154 0-1.642-1.202-1.642-4.106 0-2.51.44-3.498 1.571-3.498Z"/><path fill="#900" stroke="#900" stroke-width=".136" d="M250.895 104.513c0-.782.085-1.479.238-2.091-.544-.748-1.275-1.071-2.04-1.071-2.108 0-4.556 2.312-4.556 4.641 0 .085.017.153.017.238 0 2.295 1.615 3.91 3.893 3.91.884 0 2.16-.323 2.33-.578l.356-.544-.17-.255c-.629.34-1.173.493-1.785.493-1.887 0-3.128-1.462-3.128-3.706 0-1.819.85-2.839 2.38-2.839.748 0 1.564.34 1.87.765l.12 1.037Zm5.491-2.686c-2.482 0-4.199 1.751-4.199 4.284 0 2.397 1.513 4.029 3.706 4.029 2.618 0 4.488-1.819 4.488-4.369 0-2.295-1.666-3.944-3.995-3.944Zm-.306.561c1.564 0 2.72 1.7 2.72 4.012 0 1.955-.867 3.179-2.244 3.179-1.666 0-2.788-1.632-2.788-4.046 0-2.04.816-3.145 2.312-3.145Zm5.525 4.981c0 1.173-.05 1.683-.187 2.363.884.289 1.547.408 2.33.408 2.226 0 3.807-1.19 3.807-2.856 0-2.941-4.828-1.36-4.828-3.57 0-.85.595-1.326 1.632-1.326 1.14 0 2.006.595 2.006 1.394v.391h.476c.017-.986.034-1.394.085-1.921-.9-.306-1.513-.425-2.21-.425-1.972 0-3.179.935-3.179 2.465 0 .816.374 1.394 1.156 1.751 2.006.884 3.604.442 3.604 1.904 0 .918-.85 1.564-2.057 1.564-1.24 0-2.125-.595-2.125-1.445v-.697Zm8.977-2.091c0-4.42 1.649-6.222 2.635-7.378l-.323-.442c-.969.867-3.774 3.128-3.774 7.82 0 1.819.425 3.536 1.241 5.066.595 1.139 1.139 1.802 2.533 3.111l.323-.357c-.782-.969-2.635-3.043-2.635-7.82Z"/><path fill="#000" stroke="#000" stroke-width=".136" d="M283.049 101.232c-.306-1.938-1.088-3.366-3.247-3.366-4.42 0-5.032 4.93-4.454 8.551.323 2.023 1.19 3.655 3.502 3.655 4.012 0 4.692-5.644 4.199-8.84Zm-1.173 2.091h-5.372c.119-1.768.867-5.015 3.06-5.015 1.462 0 2.023 1.547 2.21 2.703.119.765.102 1.547.102 2.312Zm0 .544c-.085 1.904-.408 5.712-2.839 5.712-1.734 0-2.21-1.904-2.414-3.23-.136-.833-.119-1.666-.119-2.482Z"/><path fill="#900" stroke="#900" stroke-width=".136" d="m285.042 97.458-.323.442c.935 1.088 2.635 2.958 2.635 7.378 0 4.692-1.768 6.749-2.635 7.82l.323.357c.901-.85 3.774-3.264 3.774-8.16 0-4.709-2.805-6.97-3.774-7.837Z"/></svg></svg>