<svg xmlns="http://www.w3.org/2000/svg" width="319.6" height="407.4" style="width:319.6000061035156px;height:407.3999938964844px;background:#fff;fill:none"><svg xmlns="http://www.w3.org/2000/svg"/><svg xmlns="http://www.w3.org/2000/svg" class="role-diagram-draw-area" style="overflow:visible"><g class="shapes-region" style="stroke:#000;fill:none"><g class="composite-shape" data-amt="diagram/shapes/plot"><g class="test-plot-expression" transform="translate(-90 -51.1)"><defs><clipPath id="cpn4b1lkt4jdg-full-view"><path d="M1 1h428v430.567H1z"/></clipPath></defs><g clip-path="url(#cpn4b1lkt4jdg-full-view)"><path d="M200 72.57h.54l.26.01h.27l.27.01.27.02.26.01.27.02.27.02.27.02.27.02.26.03.27.02.27.03.27.03.26.04.27.04.27.03.27.04.27.05.26.04.27.05.27.05.27.05.26.06.27.05.27.06.27.06.26.06.27.07.27.07.27.07.27.07.26.07.27.08.27.08.27.08.26.08.27.08.27.09.27.09.27.09.26.1.27.09.27.1.27.1.26.1.27.11.27.1.27.11.27.12.26.11.27.11.27.12.27.12.26.13.27.12.27.13.27.13.27.13.26.13.27.14.27.13.27.14.26.15.27.14.27.15.27.15.26.15.27.15.27.16.27.15.27.16.26.17.27.16.27.17.27.17.26.17.27.17.27.18.27.17.27.18.26.18.27.19.27.19.27.18.26.19.27.2.27.19.27.2.27.2.26.2.27.21.27.2.27.21.26.21.27.21.27.22.27.22.27.22.26.22.27.22.27.23.27.23.26.23.27.23.27.23.27.24.27.24.26.24.27.25.27.24.27.25.26.25.27.25.27.26.27.25.26.26.27.27.27.26.27.26.27.27.26.27.27.28.27.27.27.28.26.28.27.28.27.28.27.29.27.28.26.29.27.3.27.29.27.3.26.3.27.3.27.3.27.31.27.3.26.31.27.32.27.31.27.32.26.32.27.32.27.32.27.33.27.32.26.33.27.34.27.33.27.34.26.33.27.35.27.34.27.34.27.35.26.35.27.35.27.36.27.35.26.36.27.36.27.36.27.37.26.37.27.37.27.37.27.37.27.38.26.38.27.38.27.38.27.38.26.39.27.39.27.39.27.4.27.39.26.4.27.4.27.4.27.41.26.41.27.4.27.42.27.41.27.42.26.41.27.42.27.43.27.42.26.43.27.43.27.43.27.43.27.44.26.43.27.44.27.45.27.44.26.45.27.45.27.45.27.45.26.46.27.45.27.46.27.47.27.46.26.47.27.47.27.47.27.47.26.48.27.47.27.48.27.49.27.48.26.49.27.48.27.5.27.49.26.49.27.5.27.5.27.5.27.51.26.5.27.51.27.51.27.51.26.52.27.52.27.52.27.52.27.52.26.53.27.53.27.53.27.53.26.53.27.54.27.54.27.54.27.55.26.54.27.55.27.55.27.55.26.56.27.56.27.55.27.57.26.56.27.57.27.56.27.57.27.58.26.57.27.58.27.58.27.58.26.58.27.59.27.58.27.59.27.6.26.59.27.6.27.6.27.6.26.6.27.61.27.61.27.6.27.62.26.61.27.62.27.62.27.62.26.62.27.63.27.62.27.63.27.64.26.63.27.64.27.63.27.65.26.64.27.64.27.65.27.65.26.65.27.66.27.65.27.66.27.66.26.67.27.66.27.67.27.67.26.67.27.67.27.68.27.68.27.68.26.68.27.69.27.68.27.69.26.69.27.7.27.69.27.7.27.7.26.7.27.71.27.71.27.7.26.72.27.71.27.72.27.71.27.72.26.73.27.72.27.73.27.73.26.73.27.73.27.74.27.74.27.74.26.74.27.74.27.75.27.75.26.75.27.75.27.76.27.76.26.76.27.76.27.76.27.77.27.77.26.77.27.77.27.78.27.77.26.78.27.79.27.78.27.79.27.79.26.79.27.79.27.79.27.8.26.8.27.8.27.81.27.8.27.81.26.81.27.82.27.81.27.82.26.82.27.82.27.82.27.83.27.83.26.83.27.83.27.84.27.83.26.84.27.84.27.85.27.84.26.85.27.85.27.85.27.86.27.86.26.86.27.86.27.86.27.87.26.86.27.87.27.88.27.87.27.88.26.88.27.88.27.88.27.89.26.89.27.89.27.89.27.89.27.9.26.9.27.9.27.9.27.91.26.91.27.91.27.91.27.91.27.92.26.92.27.92.27.92.27.93.26.92.27.93.27.94.27.93.27.94.26.94.27.94.27.94.27.94.26.95.27.95.27.95.27.96.26.95.27.96.27.96.27.97.27.96.26.97.27.97.27.97.27.97.26.98.27.98.27.98.27.98.27.99.26.98.27.99.27.99.27 1 .26.99.27 1 .27 1 .27 1 .27 1.01.26 1.01.27 1.01.27 1.01.27 1.01.26 1.02.27 1.01.27 1.03.27 1.02.27 1.02.26 1.03.27 1.03.27 1.03.27 1.03.26 1.04.27 1.04.27 1.04.27 1.04.27 1.04.26 1.05.27 1.05.27 1.05.27 1.05.26 1.06.27 1.06.27 1.06.27 1.06.26 1.06.27 1.07.27 1.07.27 1.07.27 1.07.26 1.08.27 1.08.27 1.08.27 1.08.26 1.08.27 1.09.27 1.09.27 1.09.27 1.09.26 1.1.27 1.09.27 1.1.27 1.1.26 1.11.27 1.1.27 1.11.27 1.11.27 1.12.26 1.11.27 1.12.27 1.12.27 1.12.26 1.12.27 1.13.27 1.13.27 1.13.27 1.13.26 1.14.27 1.13.27 1.14.27 1.14.26 1.15.27 1.14.27 1.15.27 1.15.26 1.16.27 1.15.27 1.16.27 1.16.27 1.16.26 1.16.27 1.17.27 1.17.27 1.17.26 1.17.27 1.17.27 1.18.27 1.18.27 1.18.26 1.18.27 1.19.27 1.19.27 1.19.26 1.19.27 1.19.27 1.2.27 1.2.27 1.2.26 1.2.27 1.21.27 1.21.27 1.21.26 1.21.27 1.21.27 1.22.27 1.22.27 1.22.26 1.22.27 1.23.27 1.23.27 1.23.26 1.23.27 1.23.27 1.24.27 1.24.27 1.24.26 1.24.27 1.25.27 1.24.27 1.25.26 1.25.27 1.26.27 1.26.27 1.25.26 1.26.27 1.27.27 1.26.27 1.27.27 1.27.26 1.27.27 1.27.27 1.28.27 1.28.26 1.28.27 1.28.27 1.29.27 1.28.27 1.29.26 1.3.27 1.29.27 1.3.27 1.29.26 1.3.27 1.31.27 1.3.27 1.31.27 1.31.26 1.31.27 1.31.27 1.32.27 1.32.26 1.32.27 1.32.27 1.32.27 1.33.27 1.33.26 1.33.27 1.33.27 1.34.27 1.34.26 1.34.27 1.34.27 1.34.27 1.35.26 1.35.27 1.35.27 1.35.27 1.36.27 1.36.26 1.36.27 1.36.27 1.36.27 1.37.26 1.37.27 1.37.27 1.37.27 1.38.27 1.38.26 1.38.27 1.38.27 1.38.27 1.39.26 1.39.27 1.39.27 1.39.27 1.4.27 1.39.26 1.4.27 1.41.27 1.4.27 1.41.26 1.4.27 1.42.27 1.41.27 1.41.27 1.42.26 1.42.27 1.42.27 1.43.27 1.42.26 1.43.27 1.43.27 1.43.27 1.44.27 1.44.26 1.43.27 1.45.27 1.44.27 1.45.26 1.44.27 1.45.27 1.46.27 1.45.26 1.46.27 1.46.27 1.46.27 1.46.27 1.47.26 1.47.27 1.47.27 1.47.27 1.47.26 1.48.27 1.48.27 1.48.27 1.48.27 1.49.26 1.49.27 1.49.27 1.49.27 1.5.26 1.49.27 1.5.27 1.5.27 1.51.27 1.5.26 1.51.27 1.51.27 1.51.27 1.52.26 1.51.27 1.52.27 1.52.27 1.52.27 1.53.26 1.53.27 1.53.27 1.53.27 1.53.26 1.54.27 1.54.27 1.54.27 1.54.26 1.55.27 1.55.27 1.54.27 1.56.27 1.55.26 1.56.27 1.56.27 1.56.27 1.56.26 1.56.27 1.57.27 1.57.27 1.57.27 1.58.26 1.57.27 1.58.27 1.58.27 1.58.26 1.59.27 1.59.27 1.59.27 1.59.27 1.59.26 1.6.27 1.59.27 1.61.27 1.6.26 1.6.27 1.61.27 1.61.27 1.61.27 1.61.26 1.62.27 1.62.27 1.62.27 1.62.26 1.63.27 1.62.27 1.63.27 1.63.27 1.64.26 1.63.27 1.64.27 1.64.27 1.64.26 1.65.27 1.64.27 1.65.27 1.65.26 1.66.27 1.65.27 1.66.27 1.66.27 1.66.26 1.67.27 1.66.27 1.67.27 1.67.26 1.68.27 1.67.27 1.68.27 1.68.27 1.68.26 1.68.27 1.69.27 1.69.27 1.69.26 1.69.27 1.7.27 1.7.27 1.7.27 1.7.26 1.7.27 1.71.27 1.71.27 1.71.26 1.71.27 1.71.27 1.72.27 1.72.27 1.72.26 1.73.27 1.72.27 1.73.27 1.73.26 1.74.27 1.73.27 1.74.27 1.74.27 1.74.26 1.74.27 1.75.27 1.75.27 1.75.26 1.75.27 1.75.27 1.76.27 1.76.26 1.76.27 1.76.27 1.77.27 1.77.27 1.77.26 1.77.27 1.78.27 1.77.27 1.78.26 1.78.27 1.79.27 1.78.27 1.79.27 1.79.26 1.79.27 1.8.27 1.79.27 1.8.26 1.8.27 1.81.27 1.8.27 1.81.27 1.81.26 1.81.27 1.82.27 1.81.27 1.82.26 1.82.27 1.83.27 1.82.27 1.83.27 1.83.26 1.83.27 1.84.27 1.83.27 1.84.26 1.84.27 1.84.27 1.85.27 1.85.26 1.85.27 1.85.27 1.85.27 1.86.27 1.86.26 1.86.27 1.86.27 1.87.27 1.86.26 1.3H430" style="stroke-width:1;stroke:#900;stroke-opacity:1;stroke-dasharray:3"/></g></g><path stroke="none" d="M1 1h428v430.567H1z" class="real" style="fill:transparent;stroke:none" transform="translate(-90 -51.1)"/></g><g class="arrow-line"><path stroke-dasharray="3" d="M78.47 22.55V382.8" class="connection real" style="stroke:#900;stroke-opacity:1;stroke-width:1;fill:none;fill-opacity:1"/></g><g class="composite-shape"><path d="M69.57 22.55c0-4.92 3.98-8.9 8.9-8.9 4.91 0 8.9 3.98 8.9 8.9s-3.99 8.9-8.9 8.9c-4.92 0-8.9-3.98-8.9-8.9Z" class="real" style="stroke-width:1;stroke:#900;stroke-opacity:1;fill:#900;fill-opacity:1"/></g><g class="composite-shape"><path d="M102.88 22.26c0-4.91 3.99-8.9 8.9-8.9 4.92 0 8.9 3.99 8.9 8.9 0 4.92-3.98 8.9-8.9 8.9-4.91 0-8.9-3.98-8.9-8.9Z" class="real" style="stroke-width:1;stroke:#900;stroke-opacity:1;fill:#900;fill-opacity:1"/></g><g class="arrow-line"><path d="M111.78 22.26h43.9" class="connection real" style="stroke:#900;stroke-opacity:1;stroke-width:2;fill:none;fill-opacity:1"/><path fill="#900" stroke="none" d="M13.4-6.43 0 0l13.4 6.44L8.9 0Z" style="stroke:none;fill:#900;stroke-width:2" transform="matrix(-1 0 0 -1 159.68 22.264)"/></g><g class="composite-shape"><path d="M150.78 58.9c0-4.92 3.98-8.9 8.9-8.9s8.9 3.98 8.9 8.9-3.98 8.9-8.9 8.9-8.9-3.98-8.9-8.9Z" class="real" style="stroke-width:1;stroke:#900;stroke-opacity:1;fill:#900;fill-opacity:1"/></g><g class="arrow-line"><path d="M159.68 58.9h43.9" class="connection real" style="stroke:#900;stroke-opacity:1;stroke-width:2;fill:none;fill-opacity:1"/><path fill="#900" stroke="none" d="M13.4-6.43 0 0l13.4 6.44L8.9 0Z" style="stroke:none;fill:#900;stroke-width:2" transform="matrix(-1 0 0 -1 207.579 58.9)"/></g><g class="composite-shape"><path d="M198.68 168.9c0-4.92 3.98-8.9 8.9-8.9 4.91 0 8.9 3.98 8.9 8.9s-3.99 8.9-8.9 8.9c-4.92 0-8.9-3.98-8.9-8.9Z" class="real" style="stroke-width:1;stroke:#900;stroke-opacity:1;fill:#900;fill-opacity:1"/></g><g class="arrow-line"><path d="M207.58 168.9h43.9" class="connection real" style="stroke:#900;stroke-opacity:1;stroke-width:2;fill:none;fill-opacity:1"/><path fill="#900" stroke="none" d="M13.4-6.43 0 0l13.4 6.44L8.9 0Z" style="stroke:none;fill:#900;stroke-width:2" transform="matrix(-1 0 0 -1 255.478 168.9)"/></g><g class="composite-shape"><path d="M246.58 348.9c0-4.92 3.98-8.9 8.9-8.9 4.91 0 8.9 3.98 8.9 8.9s-3.99 8.9-8.9 8.9c-4.92 0-8.9-3.98-8.9-8.9Z" class="real" style="stroke-width:1;stroke:#900;stroke-opacity:1;fill:#900;fill-opacity:1"/></g><g class="composite-shape"><path d="M69.57 58.9c0-4.92 3.98-8.9 8.9-8.9 4.91 0 8.9 3.98 8.9 8.9s-3.99 8.9-8.9 8.9c-4.92 0-8.9-3.98-8.9-8.9Z" class="real" style="stroke-width:1;stroke:#900;stroke-opacity:1;fill:#900;fill-opacity:1"/></g><g class="composite-shape"><path d="M69.57 168.9c0-4.92 3.98-8.9 8.9-8.9 4.91 0 8.9 3.98 8.9 8.9s-3.99 8.9-8.9 8.9c-4.92 0-8.9-3.98-8.9-8.9Z" class="real" style="stroke-width:1;stroke:#900;stroke-opacity:1;fill:#900;fill-opacity:1"/></g><g class="composite-shape"><path d="M69.57 348.9c0-4.92 3.98-8.9 8.9-8.9 4.91 0 8.9 3.98 8.9 8.9s-3.99 8.9-8.9 8.9c-4.92 0-8.9-3.98-8.9-8.9Z" class="real" style="stroke-width:1;stroke:#900;stroke-opacity:1;fill:#900;fill-opacity:1"/></g><g class="arrow-line"><path d="M255.48 348.9h43.9" class="connection real" style="stroke:#900;stroke-opacity:1;stroke-width:2;fill:none;fill-opacity:1"/><path fill="#900" stroke="none" d="M13.4-6.43 0 0l13.4 6.44L8.9 0Z" style="stroke:none;fill:#900;stroke-width:2" transform="matrix(-1 0 0 -1 303.377 348.9)"/></g></g></svg><svg xmlns="http://www.w3.org/2000/svg" xmlns:xlink="http://www.w3.org/1999/xlink" width="318" height="405.8" style="width:318px;height:405.8000183105469px;font-family:Asana-Math,Asana;background:#fff"><path fill="#000" stroke="#000" stroke-width=".136" d="m22.925 22.17-.952 4.811c-.017.136-.221.782-.221 1.292 0 .425.187.68.51.68.595 0 1.19-.34 2.516-1.411l.527-.425-.17-.306-.765.527q-.74.51-1.02.51c-.153 0-.238-.136-.238-.34 0-.442.238-1.819.731-4.284l.221-1.054h1.819l.187-.85a17 17 0 0 1-1.87.102c.272-1.598.459-2.431.765-3.349l-.187-.255c-.34.204-.799.408-1.326.612l-.425 2.89c-.748.357-1.19.544-1.496.629l-.034.221Zm18.893.731v-1.003h-9.163v1.003Zm0 3.621v-1.003h-9.163v1.003Zm10.666-9.435c-2.635 0-3.978 2.091-3.978 6.205 0 1.989.357 3.706.952 4.539s1.547 1.309 2.6 1.309c2.568 0 3.86-2.21 3.86-6.562 0-3.723-1.105-5.491-3.434-5.491Zm-.306.595c1.649 0 2.312 1.666 2.312 5.746 0 3.621-.646 5.117-2.21 5.117-1.65 0-2.346-1.717-2.346-5.865 0-3.587.629-4.998 2.244-4.998ZM22.925 61.17l-.952 4.811c-.017.136-.221.782-.221 1.292 0 .425.187.68.51.68.595 0 1.19-.34 2.516-1.411l.527-.425-.17-.306-.765.527q-.74.51-1.02.51c-.153 0-.238-.136-.238-.34 0-.442.238-1.819.731-4.284l.221-1.054h1.819l.187-.85a17 17 0 0 1-1.87.102c.272-1.598.459-2.431.765-3.349l-.187-.255c-.34.204-.799.408-1.326.612l-.425 2.89c-.748.357-1.19.544-1.496.629l-.034.221Zm18.893.731v-1.003h-9.163v1.003Zm0 3.621v-1.003h-9.163v1.003Zm13.301 2.329v-.51l-.884-.051c-.935-.051-1.105-.238-1.105-1.122V55.9l-4.097 1.734.119.85 2.55-1.122v8.806c0 .884-.187 1.071-1.105 1.122l-.952.051v.51c2.618-.051 2.618-.051 2.805-.051.527 0 2.397.051 2.669.051ZM22.925 171.17l-.952 4.811c-.017.136-.221.782-.221 1.292 0 .425.187.68.51.68.595 0 1.19-.34 2.516-1.411l.527-.425-.17-.306-.765.527q-.74.51-1.02.51c-.153 0-.238-.136-.238-.34 0-.442.238-1.819.731-4.284l.221-1.054h1.819l.187-.85a17 17 0 0 1-1.87.102c.272-1.598.459-2.431.765-3.349l-.187-.255c-.34.204-.799.408-1.326.612l-.425 2.89c-.748.357-1.19.544-1.496.629l-.034.221Zm18.893.731v-1.003h-9.163v1.003Zm0 3.621v-1.003h-9.163v1.003Zm6.467 1.887v.442c3.179 0 3.179-.051 3.79-.051.613 0 .613.051 3.894.051v-1.445c-1.955.085-2.737.017-5.882.085l3.094-3.281c1.649-1.751 2.159-2.686 2.159-3.961 0-1.955-1.326-3.162-3.485-3.162-1.224 0-2.057.34-2.89 1.19l-.29 2.312h.494l.22-.782c.273-.986.885-1.411 2.024-1.411 1.462 0 2.397.918 2.397 2.363 0 1.275-.714 2.533-2.635 4.573ZM22.925 351.17l-.952 4.811c-.017.136-.221.782-.221 1.292 0 .425.187.68.51.68.595 0 1.19-.34 2.516-1.411l.527-.425-.17-.306-.765.527q-.74.51-1.02.51c-.153 0-.238-.136-.238-.34 0-.442.238-1.819.731-4.284l.221-1.054h1.819l.187-.85a17 17 0 0 1-1.87.102c.272-1.598.459-2.431.765-3.349l-.187-.255c-.34.204-.799.408-1.326.612l-.425 2.89c-.748.357-1.19.544-1.496.629l-.034.221Zm18.893.731v-1.003h-9.163v1.003Zm0 3.621v-1.003h-9.163v1.003Zm14.049-1.53c0-2.057-1.82-2.414-2.618-2.55 1.36-1.054 1.87-1.836 1.87-2.839 0-1.513-1.258-2.516-3.145-2.516-1.156 0-1.921.323-2.737 1.139l-.493 2.108h.527l.306-.952c.187-.578 1.258-1.156 2.142-1.156 1.105 0 2.006.901 2.006 1.972 0 1.275-1.003 2.346-2.21 2.346-.136 0-.323-.017-.544-.034l-.255-.017-.204.901.119.102c.646-.289.969-.374 1.428-.374 1.41 0 2.227.901 2.227 2.448 0 1.734-1.037 2.873-2.618 2.873-.782 0-1.48-.255-1.99-.731-.407-.374-.628-.765-.951-1.683l-.46.17c.358 1.037.494 1.649.596 2.499.9.306 1.649.442 2.278.442 2.09 0 4.726-1.819 4.726-4.148Z"/></svg></svg>