<svg xmlns="http://www.w3.org/2000/svg" xmlns:xlink="http://www.w3.org/1999/xlink" x="0" y="0" width="201.60000610351562" height="159.58750915527344" style="
        width:201.60000610351562px;
        height:159.58750915527344px;
        background: transparent;
        fill: none;
">
        <svg xmlns="http://www.w3.org/2000/svg"/>
        
        <svg xmlns="http://www.w3.org/2000/svg" class="role-diagram-draw-area" style="overflow: visible;"><g class="shapes-region" style="stroke: black; fill: none;"><g class="composite-shape" data-amt="diagram/shapes/plot" transform="matrix(1,0,0,1,-176.66666666666669,-48.433330281575465)"><g><g/><g><g class="test-plot-expression"><defs><clipPath id="cp53rdxa24hdg-full-view"><rect x="1" y="1" width="428" height="193.5999969482421"/></clipPath></defs><g clip-path="url(#cp53rdxa24hdg-full-view)"><path d=" M200.00,69.60 L200.27,69.60 L200.54,69.60 L200.80,69.60 L201.07,69.61 L201.34,69.61 L201.61,69.62 L201.87,69.63 L202.14,69.64 L202.41,69.64 L202.68,69.66 L202.95,69.67 L203.21,69.68 L203.48,69.69 L203.75,69.71 L204.02,69.72 L204.28,69.74 L204.55,69.76 L204.82,69.78 L205.09,69.80 L205.36,69.82 L205.62,69.84 L205.89,69.87 L206.16,69.89 L206.43,69.92 L206.69,69.94 L206.96,69.97 L207.23,70.00 L207.50,70.03 L207.76,70.06 L208.03,70.10 L208.30,70.13 L208.57,70.16 L208.84,70.20 L209.10,70.24 L209.37,70.28 L209.64,70.31 L209.91,70.35 L210.17,70.40 L210.44,70.44 L210.71,70.48 L210.98,70.53 L211.25,70.57 L211.51,70.62 L211.78,70.67 L212.05,70.72 L212.32,70.77 L212.58,70.82 L212.85,70.87 L213.12,70.92 L213.39,70.98 L213.66,71.03 L213.92,71.09 L214.19,71.15 L214.46,71.21 L214.73,71.27 L214.99,71.33 L215.26,71.39 L215.53,71.46 L215.80,71.52 L216.07,71.59 L216.33,71.65 L216.60,71.72 L216.87,71.79 L217.14,71.86 L217.40,71.93 L217.67,72.00 L217.94,72.08 L218.21,72.15 L218.47,72.23 L218.74,72.30 L219.01,72.38 L219.28,72.46 L219.55,72.54 L219.81,72.62 L220.08,72.70 L220.35,72.79 L220.62,72.87 L220.88,72.96 L221.15,73.04 L221.42,73.13 L221.69,73.22 L221.96,73.31 L222.22,73.40 L222.49,73.49 L222.76,73.58 L223.03,73.68 L223.29,73.77 L223.56,73.87 L223.83,73.97 L224.10,74.07 L224.37,74.17 L224.63,74.27 L224.90,74.37 L225.17,74.47 L225.44,74.58 L225.70,74.68 L225.97,74.79 L226.24,74.90 L226.51,75.01 L226.78,75.11 L227.04,75.23 L227.31,75.34 L227.58,75.45 L227.85,75.56 L228.11,75.68 L228.38,75.80 L228.65,75.91 L228.92,76.03 L229.19,76.15 L229.45,76.27 L229.72,76.39 L229.99,76.52 L230.26,76.64 L230.52,76.77 L230.79,76.89 L231.06,77.02 L231.33,77.15 L231.59,77.28 L231.86,77.41 L232.13,77.54 L232.40,77.67 L232.67,77.81 L232.93,77.94 L233.20,78.08 L233.47,78.22 L233.74,78.36 L234.00,78.49 L234.27,78.64 L234.54,78.78 L234.81,78.92 L235.08,79.06 L235.34,79.21 L235.61,79.36 L235.88,79.50 L236.15,79.65 L236.41,79.80 L236.68,79.95 L236.95,80.10 L237.22,80.26 L237.49,80.41 L237.75,80.56 L238.02,80.72 L238.29,80.88 L238.56,81.04 L238.82,81.19 L239.09,81.36 L239.36,81.52 L239.63,81.68 L239.90,81.84 L240.16,82.01 L240.43,82.17 L240.70,82.34 L240.97,82.51 L241.23,82.68 L241.50,82.85 L241.77,83.02 L242.04,83.19 L242.31,83.37 L242.57,83.54 L242.84,83.72 L243.11,83.89 L243.38,84.07 L243.64,84.25 L243.91,84.43 L244.18,84.61 L244.45,84.80 L244.71,84.98 L244.98,85.16 L245.25,85.35 L245.52,85.54 L245.79,85.73 L246.05,85.91 L246.32,86.11 L246.59,86.30 L246.86,86.49 L247.12,86.68 L247.39,86.88 L247.66,87.07 L247.93,87.27 L248.20,87.47 L248.46,87.67 L248.73,87.87 L249.00,88.07 L249.27,88.27 L249.53,88.47 L249.80,88.68 L250.07,88.88 L250.34,89.09 L250.61,89.30 L250.87,89.51 L251.14,89.72 L251.41,89.93 L251.68,90.14 L251.94,90.36 L252.21,90.57 L252.48,90.79 L252.75,91.00 L253.02,91.22 L253.28,91.44 L253.55,91.66 L253.82,91.88 L254.09,92.10 L254.35,92.33 L254.62,92.55 L254.89,92.78 L255.16,93.00 L255.42,93.23 L255.69,93.46 L255.96,93.69 L256.23,93.92 L256.50,94.15 L256.76,94.39 L257.03,94.62 L257.30,94.86 L257.57,95.09 L257.83,95.33 L258.10,95.57 L258.37,95.81 L258.64,96.05 L258.91,96.29 L259.17,96.53 L259.44,96.78 L259.71,97.02 L259.98,97.27 L260.24,97.52 L260.51,97.77 L260.78,98.02 L261.05,98.27 L261.32,98.52 L261.58,98.77 L261.85,99.03 L262.12,99.28 L262.39,99.54 L262.65,99.80 L262.92,100.06 L263.19,100.31 L263.46,100.58 L263.73,100.84 L263.99,101.10 L264.26,101.36 L264.53,101.63 L264.80,101.90 L265.06,102.16 L265.33,102.43 L265.60,102.70 L265.87,102.97 L266.14,103.24 L266.40,103.52 L266.67,103.79 L266.94,104.07 L267.21,104.34 L267.47,104.62 L267.74,104.90 L268.01,105.18 L268.28,105.46 L268.54,105.74 L268.81,106.02 L269.08,106.31 L269.35,106.59 L269.62,106.88 L269.88,107.17 L270.15,107.46 L270.42,107.74 L270.69,108.04 L270.95,108.33 L271.22,108.62 L271.49,108.91 L271.76,109.21 L272.03,109.51 L272.29,109.80 L272.56,110.10 L272.83,110.40 L273.10,110.70 L273.36,111.00 L273.63,111.31 L273.90,111.61 L274.17,111.91 L274.44,112.22 L274.70,112.53 L274.97,112.84 L275.24,113.15 L275.51,113.46 L275.77,113.77 L276.04,114.08 L276.31,114.39 L276.58,114.71 L276.85,115.02 L277.11,115.34 L277.38,115.66 L277.65,115.98 L277.92,116.30 L278.18,116.62 L278.45,116.94 L278.72,117.27 L278.99,117.59 L279.25,117.92 L279.52,118.25 L279.79,118.57 L280.06,118.90 L280.33,119.23 L280.59,119.56 L280.86,119.90 L281.13,120.23 L281.40,120.57 L281.66,120.90 L281.93,121.24 L282.20,121.58 L282.47,121.92 L282.74,122.26 L283.00,122.60 L283.27,122.94 L283.54,123.28 L283.81,123.63 L284.07,123.97 L284.34,124.32 L284.61,124.67 L284.88,125.02 L285.15,125.37 L285.41,125.72 L285.68,126.07 L285.95,126.42 L286.22,126.78 L286.48,127.13 L286.75,127.49 L287.02,127.85 L287.29,128.21 L287.56,128.57 L287.82,128.93 L288.09,129.29 L288.36,129.66 L288.63,130.02 L288.89,130.39 L289.16,130.75 L289.43,131.12 L289.70,131.49 L289.97,131.86 L290.23,132.23 L290.50,132.60 L290.77,132.98 L291.04,133.35 L291.30,133.73 L291.57,134.10 L291.84,134.48 L292.11,134.86 L292.37,135.24 L292.64,135.62 L292.91,136.00 L293.18,136.39 L293.45,136.77 L293.71,137.16 L293.98,137.54 L294.25,137.93 L294.52,138.32 L294.78,138.71 L295.05,139.10 L295.32,139.49 L295.59,139.88 L295.86,140.28 L296.12,140.67 L296.39,141.07 L296.66,141.47 L296.93,141.87 L297.19,142.27 L297.46,142.67 L297.73,143.07 L298.00,143.47 L298.27,143.88 L298.53,144.28 L298.80,144.69 L299.07,145.10 L299.34,145.51 L299.60,145.92 L299.87,146.33 L300.14,146.74 L300.41,147.15 L300.68,147.57 L300.94,147.98 L301.21,148.40 L301.48,148.81 L301.75,149.23 L302.01,149.65 L302.28,150.07 L302.55,150.50 L302.82,150.92 L303.08,151.34 L303.35,151.77 L303.62,152.19 L303.89,152.62 L304.16,153.05 L304.42,153.48 L304.69,153.91 L304.96,154.34 L305.23,154.77 L305.49,155.21 L305.76,155.64 L306.03,156.08 L306.30,156.52 L306.57,156.96 L306.83,157.40 L307.10,157.84 L307.37,158.28 L307.64,158.72 L307.90,159.16 L308.17,159.61 L308.44,160.06 L308.71,160.50 L308.98,160.95 L309.24,161.40 L309.51,161.85 L309.78,162.30 L310.05,162.76 L310.31,163.21 L310.58,163.66 L310.85,164.12 L311.12,164.58 L311.39,165.04 L311.65,165.50 L311.92,165.96 L312.19,166.42 L312.46,166.88 L312.72,167.34 L312.99,167.81 L313.26,168.27 L313.53,168.74 L313.80,169.21 L314.06,169.68 L314.33,170.15 L314.60,170.62 L314.87,171.09 L315.13,171.57 L315.40,172.04 L315.67,172.52 L315.94,173.00 L316.20,173.47 L316.47,173.95 L316.74,174.43 L317.01,174.91 L317.28,175.40 L317.54,175.88 L317.81,176.37 L318.08,176.85 L318.35,177.34 L318.61,177.83 L318.88,178.32 L319.15,178.81 L319.42,179.30 L319.69,179.79 L319.95,180.28 L320.22,180.78 L320.49,181.27 L320.76,181.77 L321.02,182.27 L321.29,182.77 L321.56,183.27 L321.83,183.77 L322.10,184.27 L322.36,184.78 L322.63,185.28 L322.90,185.79 L323.17,186.29 L323.43,186.80 L323.70,187.31 L323.97,187.82 L324.24,188.33 L324.51,188.84 L324.77,189.36 L325.04,189.87 L325.31,190.39 L325.58,190.90 L325.84,191.42 L326.11,191.94 L326.38,192.46 L326.65,192.98 L326.92,193.50 L327.18,194.03 L327.45,194.55 L327.72,195.08 L327.99,195.60 L328.25,196.13 L328.52,196.66 L328.79,197.19 L329.06,197.72 L329.32,198.25 L329.59,198.79 L329.86,199.32 L330.13,199.86 L330.40,200.39 L330.66,200.93 L330.93,201.47 L331.20,202.01 L331.47,202.55 L331.73,203.09 L332.00,203.64 L332.27,204.18 L332.54,204.73 L332.81,205.27 L333.07,205.82 L333.34,206.37 L333.61,206.92 L333.88,207.47 L334.14,208.02 L334.41,208.57 L334.68,209.13 L334.95,209.68 L335.22,210.24 L335.48,210.80 L335.75,211.36 L336.02,211.92 L336.29,212.48 L336.55,213.04 L336.82,213.60 L337.09,214.17 L337.36,214.73 L337.63,215.30 L337.89,215.87 L338.16,216.43 L338.43,217.00 L338.70,217.57 L338.96,218.15 L339.23,218.72 L339.50,219.29 L339.77,219.87 L340.03,220.44 L340.30,221.02 L340.57,221.60 L340.84,222.18 L341.11,222.76 L341.37,223.34 L341.64,223.93 L341.91,224.51 L342.18,225.09 L342.44,225.68 L342.71,226.27 L342.98,226.86 L343.25,227.45 L343.52,228.04 L343.78,228.63 L344.05,229.22 L344.32,229.82 L344.59,230.41 L344.85,231.01 L345.12,231.60 L345.39,232.20 L345.66,232.80 L345.93,233.40 L346.19,234.00 L346.46,234.61 L346.73,235.21 L347.00,235.82 L347.26,236.42 L347.53,237.03 L347.80,237.64 L348.07,238.25 L348.34,238.86 L348.60,239.47 L348.87,240.08 L349.14,240.69 L349.41,241.31 L349.67,241.93 L349.94,242.54 L350.21,243.16 L350.48,243.78 L350.75,244.40 L351.01,245.02 L351.28,245.64 L351.55,246.27 L351.82,246.89 L352.08,247.52 L352.35,248.15 L352.62,248.77 L352.89,249.40 L353.15,250.03 L353.42,250.67 L353.69,251.30 L353.96,251.93 L354.23,252.57 L354.49,253.20 L354.76,253.84 L355.03,254.48 L355.30,255.12 L355.56,255.76 L355.83,256.40 L356.10,257.04 L356.37,257.68 L356.64,258.33 L356.90,258.97 L357.17,259.62 L357.44,260.27 L357.71,260.92 L357.97,261.57 L358.24,262.22 L358.51,262.87 L358.78,263.53 L359.05,264.18 L359.31,264.84 L359.58,265.49 L359.85,266.15 L360.12,266.81 L360.38,267.47 L360.65,268.13 L360.92,268.79 L361.19,269.46 L361.46,270.12 L361.72,270.79 L361.99,271.45 L362.26,272.12 L362.53,272.79 L362.79,273.46 L363.06,274.13 L363.33,274.80 L363.60,275.48 L363.86,276.15 L364.13,276.83 L364.40,277.50 L364.67,278.18 L364.94,278.86 L365.20,279.54 L365.47,280.22 L365.74,280.90 L366.01,281.59 L366.27,282.27 L366.54,282.96 L366.81,283.64 L367.08,284.33 L367.35,285.02 L367.61,285.71 L367.88,286.40 L368.15,287.09 L368.42,287.79 L368.68,288.48 L368.95,289.18 L369.22,289.87 L369.49,290.57 L369.76,291.27 L370.02,291.97 L370.29,292.67 L370.56,293.37 L370.83,294.07 L371.09,294.78 L371.36,295.48 L371.63,296.19 L371.90,296.90 L372.17,297.61 L372.43,298.32 L372.70,299.03 L372.97,299.74 L373.24,300.45 L373.50,301.17 L373.77,301.88 L374.04,302.60 L374.31,303.32 L374.58,304.03 L374.84,304.75 L375.11,305.47 L375.38,306.20 L375.65,306.92 L375.91,307.64 L376.18,308.37 L376.45,309.10 L376.72,309.82 L376.98,310.55 L377.25,311.28 L377.52,312.01 L377.79,312.74 L378.06,313.48 L378.32,314.21 L378.59,314.95 L378.86,315.68 L379.13,316.42 L379.39,317.16 L379.66,317.90 L379.93,318.64 L380.20,319.38 L380.47,320.12 L380.73,320.87 L381.00,321.61 L381.27,322.36 L381.54,323.10 L381.80,323.85 L382.07,324.60 L382.34,325.35 L382.61,326.10 L382.88,326.86 L383.14,327.61 L383.41,328.37 L383.68,329.12 L383.95,329.88 L384.21,330.64 L384.48,331.40 L384.75,332.16 L385.02,332.92 L385.29,333.68 L385.55,334.45 L385.82,335.21 L386.09,335.98 L386.36,336.74 L386.62,337.51 L386.89,338.28 L387.16,339.05 L387.43,339.82 L387.69,340.60 L387.96,341.37 L388.23,342.14 L388.50,342.92 L388.77,343.70 L389.03,344.48 L389.30,345.25 L389.57,346.03 L389.84,346.82 L390.10,347.60 L390.37,348.38 L390.64,349.17 L390.91,349.95 L391.18,350.74 L391.44,351.53 L391.71,352.32 L391.98,353.11 L392.25,353.90 L392.51,354.69 L392.78,355.48 L393.05,356.28 L393.32,357.08 L393.59,357.87 L393.85,358.67 L394.12,359.47 L394.39,360.27 L394.66,361.07 L394.92,361.87 L395.19,362.68 L395.46,363.48 L395.73,364.29 L396.00,365.09 L396.26,365.90 L396.53,366.71 L396.80,367.52 L397.07,368.33 L397.33,369.14 L397.60,369.96 L397.87,370.77 L398.14,371.59 L398.41,372.40 L398.67,373.22 L398.94,374.04 L399.21,374.86 L399.48,375.68 L399.74,376.50 L400.01,377.33 L400.28,378.15 L400.55,378.98 L400.81,379.80 L401.08,380.63 L401.35,381.46 L401.62,382.29 L401.89,383.12 L402.15,383.95 L402.42,384.79 L402.69,385.62 L402.96,386.46 L403.22,387.29 L403.49,388.13 L403.76,388.97 L404.03,389.81 L404.30,390.65 L404.56,391.20 L404.83,391.20 L405.10,391.20 L405.37,391.20 L405.63,391.20 L405.90,391.20 L406.17,391.20 L406.44,391.20 L406.71,391.20 L406.97,391.20 L407.24,391.20 L407.51,391.20 L407.78,391.20 L408.04,391.20 L408.31,391.20 L408.58,391.20 L408.85,391.20 L409.12,391.20 L409.38,391.20 L409.65,391.20 L409.92,391.20 L410.19,391.20 L410.45,391.20 L410.72,391.20 L410.99,391.20 L411.26,391.20 L411.53,391.20 L411.79,391.20 L412.06,391.20 L412.33,391.20 L412.60,391.20 L412.86,391.20 L413.13,391.20 L413.40,391.20 L413.67,391.20 L413.93,391.20 L414.20,391.20 L414.47,391.20 L414.74,391.20 L415.01,391.20 L415.27,391.20 L415.54,391.20 L415.81,391.20 L416.08,391.20 L416.34,391.20 L416.61,391.20 L416.88,391.20 L417.15,391.20 L417.42,391.20 L417.68,391.20 L417.95,391.20 L418.22,391.20 L418.49,391.20 L418.75,391.20 L419.02,391.20 L419.29,391.20 L419.56,391.20 L419.83,391.20 L420.09,391.20 L420.36,391.20 L420.63,391.20 L420.90,391.20 L421.16,391.20 L421.43,391.20 L421.70,391.20 L421.97,391.20 L422.24,391.20 L422.50,391.20 L422.77,391.20 L423.04,391.20 L423.31,391.20 L423.57,391.20 L423.84,391.20 L424.11,391.20 L424.38,391.20 L424.64,391.20 L424.91,391.20 L425.18,391.20 L425.45,391.20 L425.72,391.20 L425.98,391.20 L426.25,391.20 L426.52,391.20 L426.79,391.20 L427.05,391.20 L427.32,391.20 L427.59,391.20 L427.86,391.20 L428.13,391.20 L428.39,391.20 L428.66,391.20 L428.93,391.20 L429.20,391.20 L429.46,391.20 L429.73,391.20 L430.00,391.20" style="stroke-width: 1; stroke: rgb(153, 0, 0); stroke-opacity: 1; stroke-dasharray: 3;"/></g></g><rect class="real" x="1" y="1" width="428" height="193.5999969482421" style="fill: transparent; stroke: none;"/></g></g></g><g class="composite-shape"><path class="real" d=" M18.88,22.26 C18.88,17.35 22.87,13.36 27.78,13.36 C32.7,13.36 36.68,17.35 36.68,22.26 C36.68,27.18 32.7,31.16 27.78,31.16 C22.87,31.16 18.88,27.18 18.88,22.26 Z" style="stroke-width: 1; stroke: rgb(153, 0, 0); stroke-opacity: 1; fill: rgb(153, 0, 0); fill-opacity: 1;"/></g><g class="arrow-line"><path class="connection real" stroke-dasharray="" d="  M27.78,22.26 L71.68,22.26" style="stroke: rgb(153, 0, 0); stroke-opacity: 1; stroke-width: 2; fill: none; fill-opacity: 1;"/><g stroke="none" fill="rgb(153,0,0)" fill-opacity="1" transform="matrix(-1,1.2246467991473532e-16,-1.2246467991473532e-16,-1,75.67999267578125,22.264286477225177)" style="stroke: none; fill: rgb(153, 0, 0); stroke-width: 2;"><path d=" M13.4,-6.43 L0,0 L13.4,6.44 L8.9,0 Z"/></g></g><g class="composite-shape"><defs><!-- react-text: 105523 --> <!-- /react-text --><pattern id="_pgfdgndf9w4fdg-full-view" x="0" y="0" width="11.313708498984761" height="11.313708498984761" patternTransform="rotate(45,0,0)" patternUnits="userSpaceOnUse"><path d="M0,0 L0,11.313708498984761" style="stroke: rgb(0, 0, 0); stroke-opacity: 1; stroke-width: 1; fill: none;"/><path d="M5.656854249492381,0 L5.656854249492381,11.313708498984761" style="stroke: rgb(0, 0, 0); stroke-opacity: 1; stroke-width: 1; fill: none;"/><path d="M11.313708498984761,0 L11.313708498984761,11.313708498984761" style="stroke: rgb(0, 0, 0); stroke-opacity: 1; stroke-width: 1; fill: none;"/></pattern></defs><path class="real" d=" M-47.53,148.05 L239.47,148.05 L239.47,175.11 L-47.53,175.11 Z" style="stroke-width: 1; stroke: rgb(0, 0, 0); fill: url(&quot;#_pgfdgndf9w4fdg-full-view&quot;); fill-opacity: 1;"/></g><g class="arrow-line"><path class="connection real" stroke-dasharray="" d="  M27.78,146.28 L27.78,33.16" style="stroke: rgb(0, 0, 0); stroke-opacity: 1; stroke-width: 1; fill: none; fill-opacity: 1;"/><g stroke="rgb(0,0,0)" stroke-opacity="1" transform="matrix(3.061616997868383e-16,1,-1,3.061616997868383e-16,27.78095238095238,31.164286477225172)" style="stroke: rgb(0, 0, 0); stroke-width: 1;"><path d=" M10.93,-3.29 Q4.96,-0.45 0,0 Q4.96,0.45 10.93,3.29"/></g><g stroke="rgb(0,0,0)" stroke-opacity="1" transform="matrix(-1.8369701987210297e-16,-1,1,-1.8369701987210297e-16,27.780952380952385,148.28333536783856)" style="stroke: rgb(0, 0, 0); stroke-width: 1;"><path d=" M10.93,-3.29 Q4.96,-0.45 0,0 Q4.96,0.45 10.93,3.29"/></g></g><g/></g><g/><g/><g/></svg>
        <svg xmlns="http://www.w3.org/2000/svg" xmlns:xlink="http://www.w3.org/1999/xlink" width="200" height="157.9875030517578" style="width:200px;height:157.9875030517578px;font-family:Asana-Math, Asana;background:transparent;"><g><g><g><g transform="matrix(1,0,0,1,31.5999755859375,97.38749694824219)"><path transform="matrix(0.017,0,0,-0.017,0,0)" d="M418 -3L418 27L366 30C311 33 301 44 301 96L301 700L60 598L67 548L217 614L217 96C217 44 206 33 152 30L96 27L96 -3C250 0 250 0 261 0C292 0 402 -3 418 -3ZM623 111C593 111 566 83 566 53C566 23 593 -5 622 -5C654 -5 682 22 682 53C682 83 654 111 623 111ZM1207 253C1207 366 1126 446 1012 446C964 446 928 443 875 396L875 605L1180 604L1180 689L823 690L823 322L843 316C890 363 917 377 966 377C1062 377 1122 309 1122 201C1122 90 1058 25 949 25C895 25 845 43 831 69L785 151L761 137C784 80 796 48 810 4C838 -11 878 -20 921 -20C1049 -20 1207 89 1207 253ZM1977 103L1951 86C1922 67 1900 56 1890 56C1883 56 1877 65 1877 76C1877 86 1879 95 1884 116L1959 413C1963 430 1966 446 1966 454C1966 471 1956 482 1940 482C1911 482 1873 464 1812 421C1749 376 1714 341 1665 272L1695 409C1699 429 1702 444 1702 451C1702 470 1692 482 1676 482C1646 482 1600 460 1545 418C1501 384 1481 363 1416 275L1449 408C1453 424 1455 439 1455 451C1455 470 1446 482 1432 482C1411 482 1373 461 1299 408L1271 388L1278 368C1315 391 1350 414 1357 414C1368 414 1375 404 1375 389C1375 338 1334 145 1293 2L1296 -9L1364 6L1386 108C1410 219 1437 278 1492 338C1534 384 1579 414 1607 414C1614 414 1618 406 1618 393C1618 358 1596 244 1555 69L1539 2L1544 -9L1613 6L1634 113C1650 194 1684 269 1728 318C1783 379 1833 414 1865 414C1873 414 1878 405 1878 389C1878 365 1875 351 1853 264C1813 105 1797 84 1797 31C1797 6 1808 -9 1827 -9C1853 -9 1889 12 1987 85Z" stroke="rgb(0,0,0)" stroke-opacity="1" stroke-width="8" fill="rgb(0,0,0)" fill-opacity="1"></path></g></g></g></g><g><g><g><g transform="matrix(1,0,0,1,78.4000244140625,28.787521362304688)"><path transform="matrix(0.017,0,0,-0.017,0,0)" d="M16 23L16 -3C203 -3 203 0 239 0C275 0 275 -3 468 -3L468 82C353 77 307 81 122 77L304 270C401 373 431 428 431 503C431 618 353 689 226 689C154 689 105 669 56 619L39 483L68 483L81 529C97 587 133 612 200 612C286 612 341 558 341 473C341 398 299 324 186 204ZM762 689C607 689 528 566 528 324C528 207 549 106 584 57C619 8 675 -20 737 -20C888 -20 964 110 964 366C964 585 899 689 762 689ZM744 654C841 654 880 556 880 316C880 103 842 15 750 15C653 15 612 116 612 360C612 571 649 654 744 654ZM1261 689C1106 689 1027 566 1027 324C1027 207 1048 106 1083 57C1118 8 1174 -20 1236 -20C1387 -20 1463 110 1463 366C1463 585 1398 689 1261 689ZM1243 654C1340 654 1379 556 1379 316C1379 103 1341 15 1249 15C1152 15 1111 116 1111 360C1111 571 1148 654 1243 654ZM2227 103L2201 86C2172 67 2150 56 2140 56C2133 56 2127 65 2127 76C2127 86 2129 95 2134 116L2209 413C2213 430 2216 446 2216 454C2216 471 2206 482 2190 482C2161 482 2123 464 2062 421C1999 376 1964 341 1915 272L1945 409C1949 429 1952 444 1952 451C1952 470 1942 482 1926 482C1896 482 1850 460 1795 418C1751 384 1731 363 1666 275L1699 408C1703 424 1705 439 1705 451C1705 470 1696 482 1682 482C1661 482 1623 461 1549 408L1521 388L1528 368C1565 391 1600 414 1607 414C1618 414 1625 404 1625 389C1625 338 1584 145 1543 2L1546 -9L1614 6L1636 108C1660 219 1687 278 1742 338C1784 384 1829 414 1857 414C1864 414 1868 406 1868 393C1868 358 1846 244 1805 69L1789 2L1794 -9L1863 6L1884 113C1900 194 1934 269 1978 318C2033 379 2083 414 2115 414C2123 414 2128 405 2128 389C2128 365 2125 351 2103 264C2063 105 2047 84 2047 31C2047 6 2058 -9 2077 -9C2103 -9 2139 12 2237 85Z" stroke="rgb(153,0,0)" stroke-opacity="1" stroke-width="8" fill="rgb(153,0,0)" fill-opacity="1"></path></g></g><g><g transform="matrix(1,0,0,1,120.4625244140625,28.787521362304688)"><path transform="matrix(0.017,0,0,-0.017,0,0)" d="M297 714L242 714L-37 -169L18 -169Z" stroke="rgb(153,0,0)" stroke-opacity="1" stroke-width="8" fill="rgb(153,0,0)" fill-opacity="1"></path></g></g><g><g transform="matrix(1,0,0,1,128.7249755859375,28.787521362304688)"><path transform="matrix(0.017,0,0,-0.017,0,0)" d="M31 148C26 97 20 62 9 16C47 -2 81 -11 116 -11C165 -11 211 7 262 47C313 87 334 124 334 174C334 228 302 257 228 271L185 279C125 290 106 307 106 348C106 401 151 442 208 442C249 442 287 424 303 397L303 342L326 342C330 377 334 404 345 455C306 474 278 482 245 482C193 482 132 452 84 404C58 377 47 352 47 316C47 260 78 228 144 215L207 203C251 195 267 177 267 138C267 73 221 29 150 29C115 29 84 40 56 64L56 148Z" stroke="rgb(153,0,0)" stroke-opacity="1" stroke-width="8" fill="rgb(153,0,0)" fill-opacity="1"></path></g></g></g></g></svg>
</svg>
