<svg xmlns="http://www.w3.org/2000/svg" xmlns:xlink="http://www.w3.org/1999/xlink" x="0" y="0" width="379.6000061035156" height="298.3999938964844" style="
        width:379.6000061035156px;
        height:298.3999938964844px;
        background: #FFF;
        fill: none;
">
        <svg xmlns="http://www.w3.org/2000/svg"/>
        
        <svg xmlns="http://www.w3.org/2000/svg" class="role-diagram-draw-area" style="overflow: visible;"><g class="shapes-region" style="stroke: black; fill: none;"><g class="composite-shape" data-amt="diagram/shapes/plot" transform="matrix(1,0,0,1,-44.166666666666686,-46)"><g><g/><g><g class="test-plot-expression"><defs><clipPath id="cpjlvzivcuudg-full-view"><rect x="1" y="1" width="428" height="335"/></clipPath></defs><g clip-path="url(#cpjlvzivcuudg-full-view)"><path d=" M70.00,237.00 L70.30,236.40 L70.61,235.79 L70.91,235.19 L71.21,234.59 L71.51,233.99 L71.82,233.39 L72.12,232.80 L72.42,232.20 L72.72,231.61 L73.03,231.02 L73.33,230.43 L73.63,229.84 L73.93,229.25 L74.24,228.66 L74.54,228.08 L74.84,227.49 L75.15,226.91 L75.45,226.33 L75.75,225.75 L76.05,225.17 L76.36,224.60 L76.66,224.02 L76.96,223.45 L77.26,222.88 L77.57,222.31 L77.87,221.74 L78.17,221.17 L78.47,220.60 L78.78,220.04 L79.08,219.47 L79.38,218.91 L79.69,218.35 L79.99,217.79 L80.29,217.23 L80.59,216.68 L80.90,216.12 L81.20,215.57 L81.50,215.01 L81.80,214.46 L82.11,213.91 L82.41,213.37 L82.71,212.82 L83.02,212.27 L83.32,211.73 L83.62,211.19 L83.92,210.64 L84.23,210.11 L84.53,209.57 L84.83,209.03 L85.13,208.49 L85.44,207.96 L85.74,207.43 L86.04,206.90 L86.34,206.37 L86.65,205.84 L86.95,205.31 L87.25,204.78 L87.56,204.26 L87.86,203.74 L88.16,203.22 L88.46,202.70 L88.77,202.18 L89.07,201.66 L89.37,201.14 L89.67,200.63 L89.98,200.12 L90.28,199.60 L90.58,199.09 L90.88,198.59 L91.19,198.08 L91.49,197.57 L91.79,197.07 L92.10,196.56 L92.40,196.06 L92.70,195.56 L93.00,195.06 L93.31,194.57 L93.61,194.07 L93.91,193.58 L94.21,193.08 L94.52,192.59 L94.82,192.10 L95.12,191.61 L95.42,191.12 L95.73,190.64 L96.03,190.15 L96.33,189.67 L96.64,189.19 L96.94,188.71 L97.24,188.23 L97.54,187.75 L97.85,187.27 L98.15,186.80 L98.45,186.32 L98.75,185.85 L99.06,185.38 L99.36,184.91 L99.66,184.44 L99.97,183.98 L100.27,183.51 L100.57,183.05 L100.87,182.59 L101.18,182.12 L101.48,181.67 L101.78,181.21 L102.08,180.75 L102.39,180.30 L102.69,179.84 L102.99,179.39 L103.29,178.94 L103.60,178.49 L103.90,178.04 L104.20,177.59 L104.51,177.15 L104.81,176.70 L105.11,176.26 L105.41,175.82 L105.72,175.38 L106.02,174.94 L106.32,174.51 L106.62,174.07 L106.93,173.64 L107.23,173.20 L107.53,172.77 L107.83,172.34 L108.14,171.91 L108.44,171.49 L108.74,171.06 L109.05,170.64 L109.35,170.21 L109.65,169.79 L109.95,169.37 L110.26,168.95 L110.56,168.54 L110.86,168.12 L111.16,167.71 L111.47,167.29 L111.77,166.88 L112.07,166.47 L112.37,166.06 L112.68,165.66 L112.98,165.25 L113.28,164.85 L113.59,164.44 L113.89,164.04 L114.19,163.64 L114.49,163.24 L114.80,162.84 L115.10,162.45 L115.40,162.05 L115.70,161.66 L116.01,161.27 L116.31,160.88 L116.61,160.49 L116.92,160.10 L117.22,159.71 L117.52,159.33 L117.82,158.95 L118.13,158.56 L118.43,158.18 L118.73,157.80 L119.03,157.43 L119.34,157.05 L119.64,156.68 L119.94,156.30 L120.24,155.93 L120.55,155.56 L120.85,155.19 L121.15,154.82 L121.46,154.46 L121.76,154.09 L122.06,153.73 L122.36,153.37 L122.67,153.00 L122.97,152.64 L123.27,152.29 L123.57,151.93 L123.88,151.58 L124.18,151.22 L124.48,150.87 L124.78,150.52 L125.09,150.17 L125.39,149.82 L125.69,149.47 L126.00,149.13 L126.30,148.78 L126.60,148.44 L126.90,148.10 L127.21,147.76 L127.51,147.42 L127.81,147.09 L128.11,146.75 L128.42,146.42 L128.72,146.08 L129.02,145.75 L129.32,145.42 L129.63,145.09 L129.93,144.77 L130.23,144.44 L130.54,144.12 L130.84,143.80 L131.14,143.47 L131.44,143.15 L131.75,142.84 L132.05,142.52 L132.35,142.20 L132.65,141.89 L132.96,141.58 L133.26,141.26 L133.56,140.95 L133.86,140.64 L134.17,140.34 L134.47,140.03 L134.77,139.73 L135.08,139.42 L135.38,139.12 L135.68,138.82 L135.98,138.52 L136.29,138.23 L136.59,137.93 L136.89,137.64 L137.19,137.34 L137.50,137.05 L137.80,136.76 L138.10,136.47 L138.41,136.18 L138.71,135.90 L139.01,135.61 L139.31,135.33 L139.62,135.05 L139.92,134.77 L140.22,134.49 L140.52,134.21 L140.83,133.93 L141.13,133.66 L141.43,133.39 L141.73,133.11 L142.04,132.84 L142.34,132.57 L142.64,132.31 L142.95,132.04 L143.25,131.78 L143.55,131.51 L143.85,131.25 L144.16,130.99 L144.46,130.73 L144.76,130.47 L145.06,130.22 L145.37,129.96 L145.67,129.71 L145.97,129.45 L146.27,129.20 L146.58,128.95 L146.88,128.71 L147.18,128.46 L147.49,128.21 L147.79,127.97 L148.09,127.73 L148.39,127.49 L148.70,127.25 L149.00,127.01 L149.30,126.77 L149.60,126.54 L149.91,126.30 L150.21,126.07 L150.51,125.84 L150.81,125.61 L151.12,125.38 L151.42,125.15 L151.72,124.93 L152.03,124.70 L152.33,124.48 L152.63,124.26 L152.93,124.04 L153.24,123.82 L153.54,123.60 L153.84,123.39 L154.14,123.17 L154.45,122.96 L154.75,122.75 L155.05,122.54 L155.36,122.33 L155.66,122.12 L155.96,121.92 L156.26,121.71 L156.57,121.51 L156.87,121.31 L157.17,121.11 L157.47,120.91 L157.78,120.71 L158.08,120.52 L158.38,120.32 L158.68,120.13 L158.99,119.94 L159.29,119.75 L159.59,119.56 L159.90,119.37 L160.20,119.19 L160.50,119.00 L160.80,118.82 L161.11,118.64 L161.41,118.46 L161.71,118.28 L162.01,118.10 L162.32,117.92 L162.62,117.75 L162.92,117.58 L163.22,117.40 L163.53,117.23 L163.83,117.06 L164.13,116.90 L164.44,116.73 L164.74,116.56 L165.04,116.40 L165.34,116.24 L165.65,116.08 L165.95,115.92 L166.25,115.76 L166.55,115.60 L166.86,115.45 L167.16,115.30 L167.46,115.14 L167.76,114.99 L168.07,114.84 L168.37,114.70 L168.67,114.55 L168.98,114.40 L169.28,114.26 L169.58,114.12 L169.88,113.98 L170.19,113.84 L170.49,113.70 L170.79,113.56 L171.09,113.43 L171.40,113.29 L171.70,113.16 L172.00,113.03 L172.31,112.90 L172.61,112.77 L172.91,112.64 L173.21,112.52 L173.52,112.40 L173.82,112.27 L174.12,112.15 L174.42,112.03 L174.73,111.91 L175.03,111.80 L175.33,111.68 L175.63,111.57 L175.94,111.45 L176.24,111.34 L176.54,111.23 L176.85,111.12 L177.15,111.02 L177.45,110.91 L177.75,110.81 L178.06,110.70 L178.36,110.60 L178.66,110.50 L178.96,110.40 L179.27,110.31 L179.57,110.21 L179.87,110.12 L180.17,110.02 L180.48,109.93 L180.78,109.84 L181.08,109.75 L181.39,109.67 L181.69,109.58 L181.99,109.49 L182.29,109.41 L182.60,109.33 L182.90,109.25 L183.20,109.17 L183.50,109.09 L183.81,109.02 L184.11,108.94 L184.41,108.87 L184.71,108.80 L185.02,108.73 L185.32,108.66 L185.62,108.59 L185.93,108.52 L186.23,108.46 L186.53,108.40 L186.83,108.33 L187.14,108.27 L187.44,108.21 L187.74,108.16 L188.04,108.10 L188.35,108.04 L188.65,107.99 L188.95,107.94 L189.25,107.89 L189.56,107.84 L189.86,107.79 L190.16,107.74 L190.47,107.70 L190.77,107.66 L191.07,107.61 L191.37,107.57 L191.68,107.53 L191.98,107.49 L192.28,107.46 L192.58,107.42 L192.89,107.39 L193.19,107.36 L193.49,107.33 L193.80,107.30 L194.10,107.27 L194.40,107.24 L194.70,107.22 L195.01,107.19 L195.31,107.17 L195.61,107.15 L195.91,107.13 L196.22,107.11 L196.52,107.09 L196.82,107.08 L197.12,107.06 L197.43,107.05 L197.73,107.04 L198.03,107.03 L198.34,107.02 L198.64,107.01 L198.94,107.01 L199.24,107.00 L199.55,107.00 L199.85,107.00 L200.15,107.00 L200.45,107.00 L200.76,107.00 L201.06,107.01 L201.36,107.01 L201.66,107.02 L201.97,107.03 L202.27,107.04 L202.57,107.05 L202.88,107.06 L203.18,107.08 L203.48,107.09 L203.78,107.11 L204.09,107.13 L204.39,107.15 L204.69,107.17 L204.99,107.19 L205.30,107.22 L205.60,107.24 L205.90,107.27 L206.20,107.30 L206.51,107.33 L206.81,107.36 L207.11,107.39 L207.42,107.42 L207.72,107.46 L208.02,107.49 L208.32,107.53 L208.63,107.57 L208.93,107.61 L209.23,107.66 L209.53,107.70 L209.84,107.74 L210.14,107.79 L210.44,107.84 L210.75,107.89 L211.05,107.94 L211.35,107.99 L211.65,108.04 L211.96,108.10 L212.26,108.16 L212.56,108.21 L212.86,108.27 L213.17,108.33 L213.47,108.40 L213.77,108.46 L214.07,108.52 L214.38,108.59 L214.68,108.66 L214.98,108.73 L215.29,108.80 L215.59,108.87 L215.89,108.94 L216.19,109.02 L216.50,109.09 L216.80,109.17 L217.10,109.25 L217.40,109.33 L217.71,109.41 L218.01,109.49 L218.31,109.58 L218.61,109.67 L218.92,109.75 L219.22,109.84 L219.52,109.93 L219.83,110.02 L220.13,110.12 L220.43,110.21 L220.73,110.31 L221.04,110.40 L221.34,110.50 L221.64,110.60 L221.94,110.70 L222.25,110.81 L222.55,110.91 L222.85,111.02 L223.15,111.12 L223.46,111.23 L223.76,111.34 L224.06,111.45 L224.37,111.57 L224.67,111.68 L224.97,111.80 L225.27,111.91 L225.58,112.03 L225.88,112.15 L226.18,112.27 L226.48,112.40 L226.79,112.52 L227.09,112.64 L227.39,112.77 L227.69,112.90 L228.00,113.03 L228.30,113.16 L228.60,113.29 L228.91,113.43 L229.21,113.56 L229.51,113.70 L229.81,113.84 L230.12,113.98 L230.42,114.12 L230.72,114.26 L231.02,114.40 L231.33,114.55 L231.63,114.70 L231.93,114.84 L232.24,114.99 L232.54,115.14 L232.84,115.30 L233.14,115.45 L233.45,115.60 L233.75,115.76 L234.05,115.92 L234.35,116.08 L234.66,116.24 L234.96,116.40 L235.26,116.56 L235.56,116.73 L235.87,116.90 L236.17,117.06 L236.47,117.23 L236.78,117.40 L237.08,117.58 L237.38,117.75 L237.68,117.92 L237.99,118.10 L238.29,118.28 L238.59,118.46 L238.89,118.64 L239.20,118.82 L239.50,119.00 L239.80,119.19 L240.10,119.37 L240.41,119.56 L240.71,119.75 L241.01,119.94 L241.32,120.13 L241.62,120.32 L241.92,120.52 L242.22,120.71 L242.53,120.91 L242.83,121.11 L243.13,121.31 L243.43,121.51 L243.74,121.71 L244.04,121.92 L244.34,122.12 L244.64,122.33 L244.95,122.54 L245.25,122.75 L245.55,122.96 L245.86,123.17 L246.16,123.39 L246.46,123.60 L246.76,123.82 L247.07,124.04 L247.37,124.26 L247.67,124.48 L247.97,124.70 L248.28,124.93 L248.58,125.15 L248.88,125.38 L249.19,125.61 L249.49,125.84 L249.79,126.07 L250.09,126.30 L250.40,126.54 L250.70,126.77 L251.00,127.01 L251.30,127.25 L251.61,127.49 L251.91,127.73 L252.21,127.97 L252.51,128.21 L252.82,128.46 L253.12,128.71 L253.42,128.95 L253.73,129.20 L254.03,129.45 L254.33,129.71 L254.63,129.96 L254.94,130.22 L255.24,130.47 L255.54,130.73 L255.84,130.99 L256.15,131.25 L256.45,131.51 L256.75,131.78 L257.05,132.04 L257.36,132.31 L257.66,132.57 L257.96,132.84 L258.27,133.11 L258.57,133.39 L258.87,133.66 L259.17,133.93 L259.48,134.21 L259.78,134.49 L260.08,134.77 L260.38,135.05 L260.69,135.33 L260.99,135.61 L261.29,135.90 L261.59,136.18 L261.90,136.47 L262.20,136.76 L262.50,137.05 L262.81,137.34 L263.11,137.64 L263.41,137.93 L263.71,138.23 L264.02,138.52 L264.32,138.82 L264.62,139.12 L264.92,139.42 L265.23,139.73 L265.53,140.03 L265.83,140.34 L266.14,140.64 L266.44,140.95 L266.74,141.26 L267.04,141.58 L267.35,141.89 L267.65,142.20 L267.95,142.52 L268.25,142.84 L268.56,143.15 L268.86,143.47 L269.16,143.80 L269.46,144.12 L269.77,144.44 L270.07,144.77 L270.37,145.09 L270.68,145.42 L270.98,145.75 L271.28,146.08 L271.58,146.42 L271.89,146.75 L272.19,147.09 L272.49,147.42 L272.79,147.76 L273.10,148.10 L273.40,148.44 L273.70,148.78 L274.00,149.13 L274.31,149.47 L274.61,149.82 L274.91,150.17 L275.22,150.52 L275.52,150.87 L275.82,151.22 L276.12,151.58 L276.43,151.93 L276.73,152.29 L277.03,152.64 L277.33,153.00 L277.64,153.37 L277.94,153.73 L278.24,154.09 L278.54,154.46 L278.85,154.82 L279.15,155.19 L279.45,155.56 L279.76,155.93 L280.06,156.30 L280.36,156.68 L280.66,157.05 L280.97,157.43 L281.27,157.80 L281.57,158.18 L281.87,158.56 L282.18,158.95 L282.48,159.33 L282.78,159.71 L283.08,160.10 L283.39,160.49 L283.69,160.88 L283.99,161.27 L284.30,161.66 L284.60,162.05 L284.90,162.45 L285.20,162.84 L285.51,163.24 L285.81,163.64 L286.11,164.04 L286.41,164.44 L286.72,164.85 L287.02,165.25 L287.32,165.66 L287.63,166.06 L287.93,166.47 L288.23,166.88 L288.53,167.29 L288.84,167.71 L289.14,168.12 L289.44,168.54 L289.74,168.95 L290.05,169.37 L290.35,169.79 L290.65,170.21 L290.95,170.64 L291.26,171.06 L291.56,171.49 L291.86,171.91 L292.17,172.34 L292.47,172.77 L292.77,173.20 L293.07,173.64 L293.38,174.07 L293.68,174.51 L293.98,174.94 L294.28,175.38 L294.59,175.82 L294.89,176.26 L295.19,176.70 L295.49,177.15 L295.80,177.59 L296.10,178.04 L296.40,178.49 L296.71,178.94 L297.01,179.39 L297.31,179.84 L297.61,180.30 L297.92,180.75 L298.22,181.21 L298.52,181.67 L298.82,182.12 L299.13,182.59 L299.43,183.05 L299.73,183.51 L300.03,183.98 L300.34,184.44 L300.64,184.91 L300.94,185.38 L301.25,185.85 L301.55,186.32 L301.85,186.80 L302.15,187.27 L302.46,187.75 L302.76,188.23 L303.06,188.71 L303.36,189.19 L303.67,189.67 L303.97,190.15 L304.27,190.64 L304.58,191.12 L304.88,191.61 L305.18,192.10 L305.48,192.59 L305.79,193.08 L306.09,193.58 L306.39,194.07 L306.69,194.57 L307.00,195.06 L307.30,195.56 L307.60,196.06 L307.90,196.56 L308.21,197.07 L308.51,197.57 L308.81,198.08 L309.12,198.59 L309.42,199.09 L309.72,199.60 L310.02,200.12 L310.33,200.63 L310.63,201.14 L310.93,201.66 L311.23,202.18 L311.54,202.70 L311.84,203.22 L312.14,203.74 L312.44,204.26 L312.75,204.78 L313.05,205.31 L313.35,205.84 L313.66,206.37 L313.96,206.90 L314.26,207.43 L314.56,207.96 L314.87,208.49 L315.17,209.03 L315.47,209.57 L315.77,210.11 L316.08,210.64 L316.38,211.19 L316.68,211.73 L316.98,212.27 L317.29,212.82 L317.59,213.37 L317.89,213.91 L318.20,214.46 L318.50,215.01 L318.80,215.57 L319.10,216.12 L319.41,216.68 L319.71,217.23 L320.01,217.79 L320.31,218.35 L320.62,218.91 L320.92,219.47 L321.22,220.04 L321.53,220.60 L321.83,221.17 L322.13,221.74 L322.43,222.31 L322.74,222.88 L323.04,223.45 L323.34,224.02 L323.64,224.60 L323.95,225.17 L324.25,225.75 L324.55,226.33 L324.85,226.91 L325.16,227.49 L325.46,228.08 L325.76,228.66 L326.07,229.25 L326.37,229.84 L326.67,230.43 L326.97,231.02 L327.28,231.61 L327.58,232.20 L327.88,232.80 L328.18,233.39 L328.49,233.99 L328.79,234.59 L329.09,235.19 L329.39,235.79 L329.70,236.40 L330.00,237.00" style="stroke-width: 1; stroke: rgb(0, 0, 0); stroke-opacity: 1; stroke-dasharray: 3;"/></g></g><rect class="real" x="1" y="1" width="428" height="335" style="fill: transparent; stroke: none;"/></g></g></g><g class="composite-shape"><path class="real" d=" M18.87,281.39 C18.87,277.18 22.28,273.77 26.49,273.77 C30.71,273.77 34.12,277.18 34.12,281.39 C34.12,285.61 30.71,289.02 26.49,289.02 C22.28,289.02 18.87,285.61 18.87,281.39 Z" style="stroke-width: 1; stroke: rgb(153, 0, 0); stroke-opacity: 1; fill: rgb(153, 0, 0); fill-opacity: 1;"/></g><g class="composite-shape"><path class="real" d=" M83.77,281.39 C83.77,277.18 87.19,273.77 91.4,273.77 C95.61,273.77 99.03,277.18 99.03,281.39 C99.03,285.61 95.61,289.02 91.4,289.02 C87.19,289.02 83.77,285.61 83.77,281.39 Z" style="stroke-width: 1; stroke: rgb(153, 0, 0); stroke-opacity: 1; fill: rgb(153, 0, 0); fill-opacity: 1;"/></g><g class="composite-shape"><path class="real" d=" M148.68,281.39 C148.68,277.18 152.09,273.77 156.31,273.77 C160.52,273.77 163.93,277.18 163.93,281.39 C163.93,285.61 160.52,289.02 156.31,289.02 C152.09,289.02 148.68,285.61 148.68,281.39 Z" style="stroke-width: 1; stroke: rgb(153, 0, 0); stroke-opacity: 1; fill: rgb(153, 0, 0); fill-opacity: 1;"/></g><g class="composite-shape"><path class="real" d=" M213.59,281.39 C213.59,277.18 217,273.77 221.21,273.77 C225.43,273.77 228.84,277.18 228.84,281.39 C228.84,285.61 225.43,289.02 221.21,289.02 C217,289.02 213.59,285.61 213.59,281.39 Z" style="stroke-width: 1; stroke: rgb(153, 0, 0); stroke-opacity: 1; fill: rgb(153, 0, 0); fill-opacity: 1;"/></g><g class="composite-shape"><path class="real" d=" M278.49,281.39 C278.49,277.18 281.91,273.77 286.12,273.77 C290.33,273.77 293.75,277.18 293.75,281.39 C293.75,285.61 290.33,289.02 286.12,289.02 C281.91,289.02 278.49,285.61 278.49,281.39 Z" style="stroke-width: 1; stroke: rgb(153, 0, 0); stroke-opacity: 1; fill: rgb(153, 0, 0); fill-opacity: 1;"/></g><g class="arrow-line"><path class="connection real" stroke-dasharray="" d="  M26.49,281.39 L65.93,281.39" style="stroke: rgb(153, 0, 0); stroke-opacity: 1; stroke-width: 2; fill: none; fill-opacity: 1;"/><g stroke="none" fill="rgb(153,0,0)" fill-opacity="1" transform="matrix(-1,1.2246467991473532e-16,-1.2246467991473532e-16,-1,69.9333089192708,281.39499130249015)" style="stroke: none; fill: rgb(153, 0, 0); stroke-width: 2;"><path d=" M13.4,-6.43 L0,0 L13.4,6.44 L8.9,0 Z"/></g></g><g class="arrow-line"><path class="connection real" stroke-dasharray="" d="  M91.4,281.39 L130.84,281.39" style="stroke: rgb(153, 0, 0); stroke-opacity: 1; stroke-width: 2; fill: none; fill-opacity: 1;"/><g stroke="none" fill="rgb(153,0,0)" fill-opacity="1" transform="matrix(-1,1.2246467991473532e-16,-1.2246467991473532e-16,-1,134.83997497558593,281.3949913024902)" style="stroke: none; fill: rgb(153, 0, 0); stroke-width: 2;"><path d=" M13.4,-6.43 L0,0 L13.4,6.44 L8.9,0 Z"/></g></g><g class="arrow-line"><path class="connection real" stroke-dasharray="" d="  M156.31,281.39 L195.75,281.39" style="stroke: rgb(153, 0, 0); stroke-opacity: 1; stroke-width: 2; fill: none; fill-opacity: 1;"/><g stroke="none" fill="rgb(153,0,0)" fill-opacity="1" transform="matrix(-1,1.2246467991473532e-16,-1.2246467991473532e-16,-1,199.74664103190102,281.3949913024902)" style="stroke: none; fill: rgb(153, 0, 0); stroke-width: 2;"><path d=" M13.4,-6.43 L0,0 L13.4,6.44 L8.9,0 Z"/></g></g><g class="arrow-line"><path class="connection real" stroke-dasharray="" d="  M221.21,281.39 L260.65,281.39" style="stroke: rgb(153, 0, 0); stroke-opacity: 1; stroke-width: 2; fill: none; fill-opacity: 1;"/><g stroke="none" fill="rgb(153,0,0)" fill-opacity="1" transform="matrix(-1,1.2246467991473532e-16,-1.2246467991473532e-16,-1,264.6533070882161,281.39499130249027)" style="stroke: none; fill: rgb(153, 0, 0); stroke-width: 2;"><path d=" M13.4,-6.43 L0,0 L13.4,6.44 L8.9,0 Z"/></g></g><g class="arrow-line"><path class="connection real" stroke-dasharray="" d="  M286.12,281.39 L325.56,281.39" style="stroke: rgb(153, 0, 0); stroke-opacity: 1; stroke-width: 2; fill: none; fill-opacity: 1;"/><g stroke="none" fill="rgb(153,0,0)" fill-opacity="1" transform="matrix(-1,1.2246467991473532e-16,-1.2246467991473532e-16,-1,329.55997314453117,281.39499130249027)" style="stroke: none; fill: rgb(153, 0, 0); stroke-width: 2;"><path d=" M13.4,-6.43 L0,0 L13.4,6.44 L8.9,0 Z"/></g></g><g class="arrow-line"><path class="connection real" stroke-dasharray="" d="  M26.49,191.22 L349.2,191.22" style="stroke: rgb(0, 0, 0); stroke-width: 1; fill: none; fill-opacity: 1;"/><g stroke="#000" transform="matrix(-1,1.2246467991473532e-16,-1.2246467991473532e-16,-1,351.1999969482422,191.21999664306637)" style="stroke: rgb(0, 0, 0); stroke-width: 1;"><path d=" M10.93,-3.29 Q4.96,-0.45 0,0 Q4.96,0.45 10.93,3.29"/></g></g><g class="arrow-line"><path class="connection real" stroke-dasharray="" d="  M26.49,191.22 L26.49,19.22" style="stroke: rgb(0, 0, 0); stroke-width: 1; fill: none; fill-opacity: 1;"/><g stroke="#000" transform="matrix(3.061616997868383e-16,1,-1,3.061616997868383e-16,26.49333089192706,17.219996643066395)" style="stroke: rgb(0, 0, 0); stroke-width: 1;"><path d=" M10.93,-3.29 Q4.96,-0.45 0,0 Q4.96,0.45 10.93,3.29"/></g></g><g class="composite-shape"><path class="real" d=" M18.87,191.22 C18.87,187.01 22.28,183.59 26.49,183.59 C30.71,183.59 34.12,187.01 34.12,191.22 C34.12,195.43 30.71,198.85 26.49,198.85 C22.28,198.85 18.87,195.43 18.87,191.22 Z" style="stroke-width: 1; stroke: rgb(153, 0, 0); stroke-opacity: 1; fill: rgb(153, 0, 0); fill-opacity: 1;"/></g><g class="composite-shape"><path class="real" d=" M148.68,61.39 C148.68,57.18 152.09,53.77 156.31,53.77 C160.52,53.77 163.93,57.18 163.93,61.39 C163.93,65.61 160.52,69.02 156.31,69.02 C152.09,69.02 148.68,65.61 148.68,61.39 Z" style="stroke-width: 1; stroke: rgb(153, 0, 0); stroke-opacity: 1; fill: rgb(153, 0, 0); fill-opacity: 1;"/></g><g class="composite-shape"><path class="real" d=" M278.49,191.22 C278.49,187.01 281.91,183.59 286.12,183.59 C290.33,183.59 293.75,187.01 293.75,191.22 C293.75,195.43 290.33,198.85 286.12,198.85 C281.91,198.85 278.49,195.43 278.49,191.22 Z" style="stroke-width: 1; stroke: rgb(153, 0, 0); stroke-opacity: 1; fill: rgb(153, 0, 0); fill-opacity: 1;"/></g><g class="arrow-line"><path class="connection real" stroke-dasharray="" d="  M26.49,191.22 L26.49,132.1" style="stroke: rgb(153, 0, 0); stroke-opacity: 1; stroke-width: 2; fill: none; fill-opacity: 1;"/><g stroke="none" fill="rgb(153,0,0)" fill-opacity="1" transform="matrix(3.061616997868383e-16,1,-1,3.061616997868383e-16,26.49333089192706,128.0999969482422)" style="stroke: none; fill: rgb(153, 0, 0); stroke-width: 2;"><path d=" M13.4,-6.43 L0,0 L13.4,6.44 L8.9,0 Z"/></g></g><g class="arrow-line"><path class="connection real" stroke-dasharray="" d="  M26.49,191.22 L65.93,191.22" style="stroke: rgb(153, 0, 0); stroke-opacity: 1; stroke-width: 2; fill: none; fill-opacity: 1;"/><g stroke="none" fill="rgb(153,0,0)" fill-opacity="1" transform="matrix(-1,1.2246467991473532e-16,-1.2246467991473532e-16,-1,69.93330891927081,191.21999664306637)" style="stroke: none; fill: rgb(153, 0, 0); stroke-width: 2;"><path d=" M13.4,-6.43 L0,0 L13.4,6.44 L8.9,0 Z"/></g></g><g class="composite-shape"><path class="real" d=" M213.59,95.39 C213.59,91.18 217,87.77 221.21,87.77 C225.43,87.77 228.84,91.18 228.84,95.39 C228.84,99.61 225.43,103.02 221.21,103.02 C217,103.02 213.59,99.61 213.59,95.39 Z" style="stroke-width: 1; stroke: rgb(153, 0, 0); stroke-opacity: 1; fill: rgb(153, 0, 0); fill-opacity: 1;"/></g><g class="composite-shape"><path class="real" d=" M83.77,96.39 C83.77,92.18 87.19,88.77 91.4,88.77 C95.61,88.77 99.03,92.18 99.03,96.39 C99.03,100.61 95.61,104.02 91.4,104.02 C87.19,104.02 83.77,100.61 83.77,96.39 Z" style="stroke-width: 1; stroke: rgb(153, 0, 0); stroke-opacity: 1; fill: rgb(153, 0, 0); fill-opacity: 1;"/></g><g class="arrow-line"><path class="connection real" stroke-dasharray="" d="  M91.4,96.39 L91.4,74.1" style="stroke: rgb(153, 0, 0); stroke-opacity: 1; stroke-width: 2; fill: none; fill-opacity: 1;"/><g stroke="none" fill="rgb(153,0,0)" fill-opacity="1" transform="matrix(3.061616997868383e-16,1,-1,3.061616997868383e-16,91.39999694824219,70.09999694824218)" style="stroke: none; fill: rgb(153, 0, 0); stroke-width: 2;"><path d=" M13.4,-6.43 L0,0 L13.4,6.44 L8.9,0 Z"/></g></g><g class="arrow-line"><path class="connection real" stroke-dasharray="" d="  M91.4,96.39 L130.84,96.39" style="stroke: rgb(153, 0, 0); stroke-opacity: 1; stroke-width: 2; fill: none; fill-opacity: 1;"/><g stroke="none" fill="rgb(153,0,0)" fill-opacity="1" transform="matrix(-1,1.2246467991473532e-16,-1.2246467991473532e-16,-1,134.83997497558596,96.39499130249023)" style="stroke: none; fill: rgb(153, 0, 0); stroke-width: 2;"><path d=" M13.4,-6.43 L0,0 L13.4,6.44 L8.9,0 Z"/></g></g><g class="arrow-line"><path class="connection real" stroke-dasharray="" d="  M156.31,61.39 L195.75,61.39" style="stroke: rgb(153, 0, 0); stroke-opacity: 1; stroke-width: 2; fill: none; fill-opacity: 1;"/><g stroke="none" fill="rgb(153,0,0)" fill-opacity="1" transform="matrix(-1,1.2246467991473532e-16,-1.2246467991473532e-16,-1,199.7466410319011,61.394991302490205)" style="stroke: none; fill: rgb(153, 0, 0); stroke-width: 2;"><path d=" M13.4,-6.43 L0,0 L13.4,6.44 L8.9,0 Z"/></g></g><g class="arrow-line"><path class="connection real" stroke-dasharray="" d="  M221.21,95.39 L260.65,95.39" style="stroke: rgb(153, 0, 0); stroke-opacity: 1; stroke-width: 2; fill: none; fill-opacity: 1;"/><g stroke="none" fill="rgb(153,0,0)" fill-opacity="1" transform="matrix(-1,1.2246467991473532e-16,-1.2246467991473532e-16,-1,264.65330708821614,95.39499130249021)" style="stroke: none; fill: rgb(153, 0, 0); stroke-width: 2;"><path d=" M13.4,-6.43 L0,0 L13.4,6.44 L8.9,0 Z"/></g></g><g class="arrow-line"><path class="connection real" stroke-dasharray="" d="  M286.12,191.22 L325.56,191.22" style="stroke: rgb(153, 0, 0); stroke-opacity: 1; stroke-width: 2; fill: none; fill-opacity: 1;"/><g stroke="none" fill="rgb(153,0,0)" fill-opacity="1" transform="matrix(-1,1.2246467991473532e-16,-1.2246467991473532e-16,-1,329.5599731445312,191.21999664306637)" style="stroke: none; fill: rgb(153, 0, 0); stroke-width: 2;"><path d=" M13.4,-6.43 L0,0 L13.4,6.44 L8.9,0 Z"/></g></g><g class="arrow-line"><path class="connection real" stroke-dasharray="" d="  M286.12,250.34 L286.12,191.22" style="stroke: rgb(153, 0, 0); stroke-opacity: 1; stroke-width: 2; fill: none; fill-opacity: 1;"/><g stroke="none" fill="rgb(153,0,0)" fill-opacity="1" transform="matrix(-1.8369701987210297e-16,-1,1,-1.8369701987210297e-16,286.1199951171875,254.33999633789057)" style="stroke: none; fill: rgb(153, 0, 0); stroke-width: 2;"><path d=" M13.4,-6.43 L0,0 L13.4,6.44 L8.9,0 Z"/></g></g><g class="arrow-line"><path class="connection real" stroke-dasharray="" d="  M221.21,117.69 L221.21,95.39" style="stroke: rgb(153, 0, 0); stroke-opacity: 1; stroke-width: 2; fill: none; fill-opacity: 1;"/><g stroke="none" fill="rgb(153,0,0)" fill-opacity="1" transform="matrix(-1.8369701987210297e-16,-1,1,-1.8369701987210297e-16,221.2133290608724,121.68998565673823)" style="stroke: none; fill: rgb(153, 0, 0); stroke-width: 2;"><path d=" M13.4,-6.43 L0,0 L13.4,6.44 L8.9,0 Z"/></g></g><g/></g><g/><g/><g/></svg>
        <svg xmlns="http://www.w3.org/2000/svg" xmlns:xlink="http://www.w3.org/1999/xlink" width="378" height="296.8000183105469" style="width:378px;height:296.8000183105469px;font-family:Asana-Math, Asana;background:#FFF;"><g><g><g><g transform="matrix(1,0,0,1,354.00006103515625,209.0124969482422)"><path transform="matrix(0.017,0,0,-0.017,0,0)" d="M9 1C24 -7 40 -11 52 -11C85 -11 124 18 155 65L231 182L242 113C255 28 278 -11 314 -11C336 -11 368 6 400 35L449 79L440 98C404 68 379 53 363 53C348 53 335 63 325 83C316 102 305 139 300 168L282 269L317 318C364 383 391 406 422 406C438 406 450 398 455 383L469 387L484 472C472 479 463 482 454 482C414 482 374 446 312 354L275 299L269 347C257 446 230 482 171 482C145 482 123 474 114 461L56 378L73 368C103 402 123 416 142 416C175 416 197 375 214 277L225 215L185 153C142 86 108 54 80 54C65 54 54 58 52 63L41 91L21 88C21 53 13 27 9 1Z" stroke="rgb(0,0,0)" stroke-opacity="1" stroke-width="8" fill="rgb(0,0,0)" fill-opacity="1"></path></g></g></g></g><g><g><g><g transform="matrix(1,0,0,1,29.2874755859375,35.01249694824219)"><path transform="matrix(0.017,0,0,-0.017,0,0)" d="M242 -180C241 -187 241 -193 241 -198C241 -241 278 -276 323 -276C429 -276 539 -152 598 33L739 473L728 482C699 471 676 465 654 463L619 331C607 284 572 211 539 162C504 111 455 67 433 67C421 67 412 90 413 115L429 322C431 353 433 391 433 419C433 464 426 482 409 482C396 482 382 475 334 442L252 386L263 368L313 398C318 401 329 410 338 410C352 410 360 391 360 358C360 357 360 351 359 343L342 100L341 60C341 18 359 -11 384 -11C421 -11 505 74 580 187L531 16C480 -161 430 -234 360 -234C325 -234 298 -207 298 -172C298 -167 299 -159 300 -150L290 -146Z" stroke="rgb(0,0,0)" stroke-opacity="1" stroke-width="8" fill="rgb(0,0,0)" fill-opacity="1"></path></g></g></g></g></svg>
</svg>
