<svg xmlns="http://www.w3.org/2000/svg" xmlns:xlink="http://www.w3.org/1999/xlink" x="0" y="0" width="282.6000061035156" height="242.6999969482422" style="
        width:282.6000061035156px;
        height:242.6999969482422px;
        background: #FFF;
        fill: none;
">
        <svg xmlns="http://www.w3.org/2000/svg"/>
        
        <svg xmlns="http://www.w3.org/2000/svg" class="role-diagram-draw-area"><g class="shapes-region" style="stroke: black; fill: none;"><g class="arrow-line"><path class="connection real" stroke-dasharray="" d="  M22.85,42 L22.85,9.9" style="stroke: rgb(0, 0, 0); stroke-width: 1; fill: none; fill-opacity: 1;"/><g stroke="none" fill="#000" transform="matrix(3.061616997868383e-16,1,-1,3.061616997868383e-16,22.849998474121094,6.899997711181641)" style="stroke: none; fill: rgb(0, 0, 0); stroke-width: 1;"><path d=" M10.72,-5.15 L0,0 L10.72,5.15 L7.12,0 Z"/></g></g><g class="composite-shape"><path class="real" d=" M14.7,50.15 C14.7,45.65 18.35,42 22.85,42 C27.35,42 31,45.65 31,50.15 C31,54.65 27.35,58.3 22.85,58.3 C18.35,58.3 14.7,54.65 14.7,50.15 Z" style="stroke-width: 1; stroke: rgb(153, 0, 0); stroke-opacity: 1; fill: rgb(153, 0, 0); fill-opacity: 1;"/></g><g class="arrow-line"><path class="connection real" stroke-dasharray="" d="  M22.85,58.3 L22.85,147.7" style="stroke: rgb(153, 0, 0); stroke-opacity: 1; stroke-width: 1; fill: none; fill-opacity: 1;"/><g stroke="none" fill="rgb(153,0,0)" fill-opacity="1" transform="matrix(-1.8369701987210297e-16,-1,1,-1.8369701987210297e-16,22.849998474121094,150.70000076293945)" style="stroke: none; fill: rgb(153, 0, 0); stroke-width: 1;"><path d=" M10.72,-5.15 L0,0 L10.72,5.15 L7.12,0 Z"/></g></g><g class="arrow-line"><path class="connection real" stroke-dasharray="" d="  M58.15,42 L58.15,9.9" style="stroke: rgb(0, 0, 0); stroke-width: 1; fill: none; fill-opacity: 1;"/><g stroke="none" fill="#000" transform="matrix(3.061616997868383e-16,1,-1,3.061616997868383e-16,58.150001525878906,6.899997711181641)" style="stroke: none; fill: rgb(0, 0, 0); stroke-width: 1;"><path d=" M10.72,-5.15 L0,0 L10.72,5.15 L7.12,0 Z"/></g></g><g class="composite-shape"><path class="real" d=" M50,50.15 C50,45.65 53.65,42 58.15,42 C62.65,42 66.3,45.65 66.3,50.15 C66.3,54.65 62.65,58.3 58.15,58.3 C53.65,58.3 50,54.65 50,50.15 Z" style="stroke-width: 1; stroke: rgb(153, 0, 0); stroke-opacity: 1; fill: rgb(153, 0, 0); fill-opacity: 1;"/></g><g class="arrow-line"><path class="connection real" stroke-dasharray="" d="  M58.15,58.15 L58.15,112.45" style="stroke: rgb(153, 0, 0); stroke-opacity: 1; stroke-width: 1; fill: none; fill-opacity: 1;"/><g stroke="none" fill="rgb(153,0,0)" fill-opacity="1" transform="matrix(-1.8369701987210297e-16,-1,1,-1.8369701987210297e-16,58.150001525878906,115.44999694824219)" style="stroke: none; fill: rgb(153, 0, 0); stroke-width: 1;"><path d=" M10.72,-5.15 L0,0 L10.72,5.15 L7.12,0 Z"/></g></g><g class="arrow-line"><path class="connection real" stroke-dasharray="3" d="  M22.9,115.45 L58.15,115.45" style="stroke: rgb(0, 0, 0); stroke-width: 1; fill: none; fill-opacity: 1;"/></g><g class="arrow-line"><path class="connection real" stroke-dasharray="" d="  M93.15,42.5 L93.15,10.4" style="stroke: rgb(0, 0, 0); stroke-width: 1; fill: none; fill-opacity: 1;"/><g stroke="none" fill="#000" transform="matrix(3.061616997868383e-16,1,-1,3.061616997868383e-16,93.1500015258789,7.399997711181641)" style="stroke: none; fill: rgb(0, 0, 0); stroke-width: 1;"><path d=" M10.72,-5.15 L0,0 L10.72,5.15 L7.12,0 Z"/></g></g><g class="composite-shape"><path class="real" d=" M85,50.65 C85,46.15 88.65,42.5 93.15,42.5 C97.65,42.5 101.3,46.15 101.3,50.65 C101.3,55.15 97.65,58.8 93.15,58.8 C88.65,58.8 85,55.15 85,50.65 Z" style="stroke-width: 1; stroke: rgb(153, 0, 0); stroke-opacity: 1; fill: rgb(153, 0, 0); fill-opacity: 1;"/></g><g class="arrow-line"><path class="connection real" stroke-dasharray="" d="  M93.15,58.65 L93.15,77.35" style="stroke: rgb(153, 0, 0); stroke-opacity: 1; stroke-width: 1; fill: none; fill-opacity: 1;"/><g stroke="none" fill="rgb(153,0,0)" fill-opacity="1" transform="matrix(-1.8369701987210297e-16,-1,1,-1.8369701987210297e-16,93.1500015258789,80.34999465942381)" style="stroke: none; fill: rgb(153, 0, 0); stroke-width: 1;"><path d=" M10.72,-5.15 L0,0 L10.72,5.15 L7.12,0 Z"/></g></g><g class="arrow-line"><path class="connection real" stroke-dasharray="3" d="  M58.15,80.35 L93.4,80.35" style="stroke: rgb(0, 0, 0); stroke-width: 1; fill: none; fill-opacity: 1;"/></g><g class="composite-shape"><path class="real" d=" M160,50.15 C160,45.65 163.65,42 168.15,42 C172.65,42 176.3,45.65 176.3,50.15 C176.3,54.65 172.65,58.3 168.15,58.3 C163.65,58.3 160,54.65 160,50.15 Z" style="stroke-width: 1; stroke: rgb(153, 0, 0); stroke-opacity: 1; fill: rgb(153, 0, 0); fill-opacity: 1;"/></g><g class="arrow-line"><path class="connection real" stroke-dasharray="" d="  M168.15,58.3 L168.15,147.7" style="stroke: rgb(153, 0, 0); stroke-opacity: 1; stroke-width: 1; fill: none; fill-opacity: 1;"/><g stroke="none" fill="rgb(153,0,0)" fill-opacity="1" transform="matrix(-1.8369701987210297e-16,-1,1,-1.8369701987210297e-16,168.1500015258789,150.70000076293942)" style="stroke: none; fill: rgb(153, 0, 0); stroke-width: 1;"><path d=" M10.72,-5.15 L0,0 L10.72,5.15 L7.12,0 Z"/></g></g><g class="composite-shape"><path class="real" d=" M195.3,50.15 C195.3,45.65 198.95,42 203.45,42 C207.95,42 211.6,45.65 211.6,50.15 C211.6,54.65 207.95,58.3 203.45,58.3 C198.95,58.3 195.3,54.65 195.3,50.15 Z" style="stroke-width: 1; stroke: rgb(153, 0, 0); stroke-opacity: 1; fill: rgb(153, 0, 0); fill-opacity: 1;"/></g><g class="arrow-line"><path class="connection real" stroke-dasharray="3" d="  M168.15,176.45 L203.4,176.45" style="stroke: rgb(0, 0, 0); stroke-width: 1; fill: none; fill-opacity: 1;"/></g><g class="composite-shape"><path class="real" d=" M230.3,50.65 C230.3,46.15 233.95,42.5 238.45,42.5 C242.95,42.5 246.6,46.15 246.6,50.65 C246.6,55.15 242.95,58.8 238.45,58.8 C233.95,58.8 230.3,55.15 230.3,50.65 Z" style="stroke-width: 1; stroke: rgb(153, 0, 0); stroke-opacity: 1; fill: rgb(153, 0, 0); fill-opacity: 1;"/></g><g class="arrow-line"><path class="connection real" stroke-dasharray="" d="  M168.15,58.3 L168.15,81.05" style="stroke: rgb(0, 0, 0); stroke-width: 1; fill: none; fill-opacity: 1;"/><g stroke="none" fill="#000" transform="matrix(-1.8369701987210297e-16,-1,1,-1.8369701987210297e-16,168.1500015258789,84.04999923706055)" style="stroke: none; fill: rgb(0, 0, 0); stroke-width: 1;"><path d=" M10.72,-5.15 L0,0 L10.72,5.15 L7.12,0 Z"/></g></g><g class="arrow-line"><path class="connection real" stroke-dasharray="" d="  M168.15,150.7 L168.15,173.45" style="stroke: rgb(0, 0, 0); stroke-width: 1; fill: none; fill-opacity: 1;"/><g stroke="none" fill="#000" transform="matrix(-1.8369701987210297e-16,-1,1,-1.8369701987210297e-16,168.1500015258789,176.44999694824216)" style="stroke: none; fill: rgb(0, 0, 0); stroke-width: 1;"><path d=" M10.72,-5.15 L0,0 L10.72,5.15 L7.12,0 Z"/></g></g><g class="arrow-line"><path class="connection real" stroke-dasharray="" d="  M203.4,58.3 L203.4,173.45" style="stroke: rgb(153, 0, 0); stroke-opacity: 1; stroke-width: 1; fill: none; fill-opacity: 1;"/><g stroke="none" fill="rgb(153,0,0)" fill-opacity="1" transform="matrix(-1.8369701987210297e-16,-1,1,-1.8369701987210297e-16,203.40000915527344,176.44999694824216)" style="stroke: none; fill: rgb(153, 0, 0); stroke-width: 1;"><path d=" M10.72,-5.15 L0,0 L10.72,5.15 L7.12,0 Z"/></g></g><g class="arrow-line"><path class="connection real" stroke-dasharray="" d="  M203.4,176.45 L203.4,199.2" style="stroke: rgb(0, 0, 0); stroke-width: 1; fill: none; fill-opacity: 1;"/><g stroke="none" fill="#000" transform="matrix(-1.8369701987210297e-16,-1,1,-1.8369701987210297e-16,203.40000915527344,202.1999931335449)" style="stroke: none; fill: rgb(0, 0, 0); stroke-width: 1;"><path d=" M10.72,-5.15 L0,0 L10.72,5.15 L7.12,0 Z"/></g></g><g class="arrow-line"><path class="connection real" stroke-dasharray="3" d="  M203.4,202.2 L238.45,202.2" style="stroke: rgb(0, 0, 0); stroke-width: 1; fill: none; fill-opacity: 1;"/></g><g class="arrow-line"><path class="connection real" stroke-dasharray="" d="  M238.45,58.8 L238.45,199.2" style="stroke: rgb(153, 0, 0); stroke-opacity: 1; stroke-width: 1; fill: none; fill-opacity: 1;"/><g stroke="none" fill="rgb(153,0,0)" fill-opacity="1" transform="matrix(-1.8369701987210297e-16,-1,1,-1.8369701987210297e-16,238.45000457763672,202.1999931335449)" style="stroke: none; fill: rgb(153, 0, 0); stroke-width: 1;"><path d=" M10.72,-5.15 L0,0 L10.72,5.15 L7.12,0 Z"/></g></g><g class="arrow-line"><path class="connection real" stroke-dasharray="" d="  M203.45,58.3 L203.45,81.05" style="stroke: rgb(0, 0, 0); stroke-width: 1; fill: none; fill-opacity: 1;"/><g stroke="none" fill="#000" transform="matrix(-1.8369701987210297e-16,-1,1,-1.8369701987210297e-16,203.45000457763672,84.04999923706052)" style="stroke: none; fill: rgb(0, 0, 0); stroke-width: 1;"><path d=" M10.72,-5.15 L0,0 L10.72,5.15 L7.12,0 Z"/></g></g><g class="arrow-line"><path class="connection real" stroke-dasharray="" d="  M238.45,58.8 L238.45,81.55" style="stroke: rgb(0, 0, 0); stroke-width: 1; fill: none; fill-opacity: 1;"/><g stroke="none" fill="#000" transform="matrix(-1.8369701987210297e-16,-1,1,-1.8369701987210297e-16,238.45000457763672,84.54999923706052)" style="stroke: none; fill: rgb(0, 0, 0); stroke-width: 1;"><path d=" M10.72,-5.15 L0,0 L10.72,5.15 L7.12,0 Z"/></g></g><g class="arrow-line"><path class="connection real" stroke-dasharray="" d="  M22.9,150.55 L22.9,118.45" style="stroke: rgb(0, 0, 0); stroke-width: 1; fill: none; fill-opacity: 1;"/><g stroke="none" fill="#000" transform="matrix(3.061616997868383e-16,1,-1,3.061616997868383e-16,22.899993896484375,115.44999694824219)" style="stroke: none; fill: rgb(0, 0, 0); stroke-width: 1;"><path d=" M10.72,-5.15 L0,0 L10.72,5.15 L7.12,0 Z"/></g></g><g class="arrow-line"><path class="connection real" stroke-dasharray="" d="  M58.15,115.45 L58.15,83.35" style="stroke: rgb(0, 0, 0); stroke-width: 1; fill: none; fill-opacity: 1;"/><g stroke="none" fill="#000" transform="matrix(3.061616997868383e-16,1,-1,3.061616997868383e-16,58.15000152587892,80.34999465942383)" style="stroke: none; fill: rgb(0, 0, 0); stroke-width: 1;"><path d=" M10.72,-5.15 L0,0 L10.72,5.15 L7.12,0 Z"/></g></g><g/></g><g/><g/><g/></svg>
        <svg xmlns="http://www.w3.org/2000/svg" xmlns:xlink="http://www.w3.org/1999/xlink" width="281" height="241.10000610351562" style="width:281px;height:241.10000610351562px;font-family:Asana-Math, Asana;background:#FFF;"><g><g><g><g transform="matrix(1,0,0,1,103.29998779296875,26.79998779296875)"><path transform="matrix(0.017,0,0,-0.017,0,0)" d="M555 243L555 299L51 299L51 243Z" stroke="rgb(0,0,0)" stroke-opacity="1" stroke-width="8" fill="rgb(0,0,0)" fill-opacity="1"></path></g></g><g><g><g><g><g transform="matrix(1,0,0,1,114.0625,26.79998779296875)"><path transform="matrix(0.017,0,0,-0.017,0,0)" d="M271 204L242 77C238 60 236 42 236 26C236 4 245 -9 260 -9C283 -9 324 17 406 85L399 106C375 86 346 59 324 59C315 59 309 68 309 82C309 87 309 90 310 93L402 472L392 481L359 463C318 478 301 482 274 482C246 482 226 477 199 464C137 433 104 403 79 354C35 265 4 145 4 67C4 23 19 -11 38 -11C75 -11 155 41 271 204ZM319 414C297 305 278 253 244 201C187 117 126 59 94 59C82 59 76 72 76 99C76 163 104 280 139 360C163 415 186 433 234 433C257 433 275 429 319 414Z" stroke="rgb(0,0,0)" stroke-opacity="1" stroke-width="8" fill="rgb(0,0,0)" fill-opacity="1"></path></g></g></g></g><svg x="113.5875244140625" overflow="visible" y="7.79998779296875" height="10" width="9.350000381469727"><path d=" M 9.35 4.85 l -3.15 -3.32 l -0.49 0.52 l 1.93 2.33 h -0.15 v 0.90 h 0.15 l -1.93 2.33 l 0.49 0.52 z  M 1.68 5.23 h 7.21 v -0.90 h -7.21 z" style="fill:rgb(0,0,0);fill-opacity:1;stroke-width:1px;stroke:none;stroke-opacity:1;"></path></svg></g></g></g><g><g><g><g><g><g><g transform="matrix(1,0,0,1,253.07501220703125,80.79998779296875)"><path transform="matrix(0.017,0,0,-0.017,0,0)" d="M271 204L242 77C238 60 236 42 236 26C236 4 245 -9 260 -9C283 -9 324 17 406 85L399 106C375 86 346 59 324 59C315 59 309 68 309 82C309 87 309 90 310 93L402 472L392 481L359 463C318 478 301 482 274 482C246 482 226 477 199 464C137 433 104 403 79 354C35 265 4 145 4 67C4 23 19 -11 38 -11C75 -11 155 41 271 204ZM319 414C297 305 278 253 244 201C187 117 126 59 94 59C82 59 76 72 76 99C76 163 104 280 139 360C163 415 186 433 234 433C257 433 275 429 319 414Z" stroke="rgb(0,0,0)" stroke-opacity="1" stroke-width="8" fill="rgb(0,0,0)" fill-opacity="1"></path></g></g></g></g><svg x="252.60003662109375" overflow="visible" y="61.79998779296875" height="10" width="9.350000381469727"><path d=" M 9.35 4.85 l -3.15 -3.32 l -0.49 0.52 l 1.93 2.33 h -0.15 v 0.90 h 0.15 l -1.93 2.33 l 0.49 0.52 z  M 1.68 5.23 h 7.21 v -0.90 h -7.21 z" style="fill:rgb(0,0,0);fill-opacity:1;stroke-width:1px;stroke:none;stroke-opacity:1;"></path></svg></g></g></g><g><g><g><g transform="matrix(1,0,0,1,166.29998779296875,228.60000610351562)"><path transform="matrix(0.015,0,0,-0.015,0,0)" d="M42 95C42 14 139 -11 202 -11C268 -11 314 29 333 76C337 36 364 -6 411 -6C432 -6 493 8 493 89L493 145L468 145L468 89C468 31 443 25 432 25C399 25 395 70 395 75L395 275C395 317 395 356 359 393C320 432 270 448 222 448C140 448 71 401 71 335C71 305 91 288 117 288C145 288 163 308 163 334C163 346 158 379 112 380C139 415 188 426 220 426C269 426 326 387 326 298L326 261C275 258 205 255 142 225C67 191 42 139 42 95ZM119 96C119 151 161 234 326 240L326 140C326 45 254 11 209 11C160 11 119 46 119 96ZM534 216C534 88 633 -11 749 -11C883 -11 915 109 915 119C915 129 905 129 902 129C893 129 891 125 889 119C860 26 795 14 758 14C705 14 617 57 617 218C617 381 699 423 752 423C761 423 824 422 859 386C818 383 812 353 812 340C812 314 830 294 858 294C884 294 904 311 904 341C904 409 828 448 751 448C626 448 534 340 534 216ZM978 216C978 88 1077 -11 1193 -11C1327 -11 1359 109 1359 119C1359 129 1349 129 1346 129C1337 129 1335 125 1333 119C1304 26 1239 14 1202 14C1149 14 1061 57 1061 218C1061 381 1143 423 1196 423C1205 423 1268 422 1303 386C1262 383 1256 353 1256 340C1256 314 1274 294 1302 294C1328 294 1348 311 1348 341C1348 409 1272 448 1195 448C1070 448 978 340 978 216ZM1416 220C1416 86 1521 -11 1636 -11C1758 -11 1803 100 1803 119C1803 129 1795 131 1790 131C1781 131 1779 125 1777 117C1742 14 1652 14 1642 14C1592 14 1552 44 1529 81C1499 129 1499 195 1499 231L1778 231C1800 231 1803 231 1803 252C1803 351 1749 448 1624 448C1508 448 1416 345 1416 220ZM1500 252C1506 401 1590 426 1624 426C1727 426 1737 291 1737 252ZM1865 0C1898 1 1951 3 1976 3C2001 3 2050 1 2087 0L2087 31C2020 31 2009 31 2009 76L2009 694L1865 683L1865 652C1935 652 1943 645 1943 596L1943 76C1943 31 1932 31 1865 31ZM2137 220C2137 86 2242 -11 2357 -11C2479 -11 2524 100 2524 119C2524 129 2516 131 2511 131C2502 131 2500 125 2498 117C2463 14 2373 14 2363 14C2313 14 2273 44 2250 81C2220 129 2220 195 2220 231L2499 231C2521 231 2524 231 2524 252C2524 351 2470 448 2345 448C2229 448 2137 345 2137 220ZM2221 252C2227 401 2311 426 2345 426C2448 426 2458 291 2458 252ZM2581 0C2620 1 2667 3 2695 3C2735 3 2782 3 2822 0L2822 31L2801 31C2727 31 2725 42 2725 78L2725 232C2725 331 2767 420 2843 420C2850 420 2852 420 2854 419C2851 418 2831 406 2831 380C2831 352 2852 337 2874 337C2892 337 2917 349 2917 381C2917 413 2886 442 2843 442C2770 442 2734 375 2720 332L2720 442L2581 431L2581 400C2651 400 2659 393 2659 344L2659 76C2659 31 2648 31 2581 31ZM2986 95C2986 14 3083 -11 3146 -11C3212 -11 3258 29 3277 76C3281 36 3308 -6 3355 -6C3376 -6 3437 8 3437 89L3437 145L3412 145L3412 89C3412 31 3387 25 3376 25C3343 25 3339 70 3339 75L3339 275C3339 317 3339 356 3303 393C3264 432 3214 448 3166 448C3084 448 3015 401 3015 335C3015 305 3035 288 3061 288C3089 288 3107 308 3107 334C3107 346 3102 379 3056 380C3083 415 3132 426 3164 426C3213 426 3270 387 3270 298L3270 261C3219 258 3149 255 3086 225C3011 191 2986 139 2986 95ZM3063 96C3063 151 3105 234 3270 240L3270 140C3270 45 3198 11 3153 11C3104 11 3063 46 3063 96ZM3463 400L3548 400L3548 124C3548 1 3641 -11 3677 -11C3748 -11 3776 60 3776 124L3776 181L3751 181L3751 126C3751 52 3721 14 3684 14C3617 14 3617 105 3617 122L3617 400L3760 400L3760 431L3617 431L3617 615L3592 615C3591 533 3561 426 3463 422ZM3907 616C3907 589 3929 563 3960 563C3988 563 4013 584 4013 616C4013 648 3988 669 3960 669C3929 669 3907 642 3907 616ZM3865 0C3897 1 3951 3 3975 3C4010 3 4045 1 4079 0L4079 31C4013 31 4009 36 4009 75L4009 442L3869 431L3869 400C3934 400 3943 394 3943 345L3943 76C3943 31 3932 31 3865 31ZM4137 214C4137 85 4241 -11 4358 -11C4479 -11 4580 87 4580 214C4580 342 4480 448 4359 448C4234 448 4137 339 4137 214ZM4220 222C4220 261 4220 315 4244 359C4271 405 4318 426 4358 426C4402 426 4445 404 4471 361C4497 318 4497 260 4497 222C4497 186 4497 132 4475 88C4453 43 4409 14 4359 14C4316 14 4272 35 4245 81C4220 125 4220 186 4220 222ZM4641 0C4676 1 4727 3 4754 3C4780 3 4832 1 4866 0L4866 31C4799 31 4788 31 4788 76L4788 260C4788 364 4859 420 4923 420C4986 420 4997 366 4997 309L4997 76C4997 31 4986 31 4919 31L4919 0C4954 1 5005 3 5032 3C5058 3 5110 1 5144 0L5144 31C5092 31 5067 31 5066 61L5066 252C5066 338 5066 369 5035 405C5021 422 4988 442 4930 442C4857 442 4810 399 4782 337L4782 442L4641 431L4641 400C4711 400 4719 393 4719 344L4719 76C4719 31 4708 31 4641 31Z" stroke="rgb(0,0,0)" stroke-opacity="1" stroke-width="8" fill="rgb(0,0,0)" fill-opacity="1"></path></g></g></g></g><g><g><g><g transform="matrix(1,0,0,1,18.79998779296875,228.60000610351562)"><path transform="matrix(0.015,0,0,-0.015,0,0)" d="M34 215C34 88 132 -11 246 -11C310 -11 355 23 380 55L380 -11L527 0L527 31C457 31 449 38 449 87L449 694L305 683L305 652C375 652 383 645 383 596L383 380C354 416 311 442 257 442C139 442 34 344 34 215ZM117 214C117 251 119 311 148 356C169 387 207 420 261 420C296 420 338 405 369 360C380 343 380 341 380 323L380 118C380 100 380 98 369 81C339 33 294 11 251 11C206 11 170 37 146 75C120 116 117 173 117 214ZM583 220C583 86 688 -11 803 -11C925 -11 970 100 970 119C970 129 962 131 957 131C948 131 946 125 944 117C909 14 819 14 809 14C759 14 719 44 696 81C666 129 666 195 666 231L945 231C967 231 970 231 970 252C970 351 916 448 791 448C675 448 583 345 583 220ZM667 252C673 401 757 426 791 426C894 426 904 291 904 252ZM1033 216C1033 88 1132 -11 1248 -11C1382 -11 1414 109 1414 119C1414 129 1404 129 1401 129C1392 129 1390 125 1388 119C1359 26 1294 14 1257 14C1204 14 1116 57 1116 218C1116 381 1198 423 1251 423C1260 423 1323 422 1358 386C1317 383 1311 353 1311 340C1311 314 1329 294 1357 294C1383 294 1403 311 1403 341C1403 409 1327 448 1250 448C1125 448 1033 340 1033 216ZM1471 220C1471 86 1576 -11 1691 -11C1813 -11 1858 100 1858 119C1858 129 1850 131 1845 131C1836 131 1834 125 1832 117C1797 14 1707 14 1697 14C1647 14 1607 44 1584 81C1554 129 1554 195 1554 231L1833 231C1855 231 1858 231 1858 252C1858 351 1804 448 1679 448C1563 448 1471 345 1471 220ZM1555 252C1561 401 1645 426 1679 426C1782 426 1792 291 1792 252ZM1920 0C1953 1 2006 3 2031 3C2056 3 2105 1 2142 0L2142 31C2075 31 2064 31 2064 76L2064 694L1920 683L1920 652C1990 652 1998 645 1998 596L1998 76C1998 31 1987 31 1920 31ZM2192 220C2192 86 2297 -11 2412 -11C2534 -11 2579 100 2579 119C2579 129 2571 131 2566 131C2557 131 2555 125 2553 117C2518 14 2428 14 2418 14C2368 14 2328 44 2305 81C2275 129 2275 195 2275 231L2554 231C2576 231 2579 231 2579 252C2579 351 2525 448 2400 448C2284 448 2192 345 2192 220ZM2276 252C2282 401 2366 426 2400 426C2503 426 2513 291 2513 252ZM2636 0C2675 1 2722 3 2750 3C2790 3 2837 3 2877 0L2877 31L2856 31C2782 31 2780 42 2780 78L2780 232C2780 331 2822 420 2898 420C2905 420 2907 420 2909 419C2906 418 2886 406 2886 380C2886 352 2907 337 2929 337C2947 337 2972 349 2972 381C2972 413 2941 442 2898 442C2825 442 2789 375 2775 332L2775 442L2636 431L2636 400C2706 400 2714 393 2714 344L2714 76C2714 31 2703 31 2636 31ZM3041 95C3041 14 3138 -11 3201 -11C3267 -11 3313 29 3332 76C3336 36 3363 -6 3410 -6C3431 -6 3492 8 3492 89L3492 145L3467 145L3467 89C3467 31 3442 25 3431 25C3398 25 3394 70 3394 75L3394 275C3394 317 3394 356 3358 393C3319 432 3269 448 3221 448C3139 448 3070 401 3070 335C3070 305 3090 288 3116 288C3144 288 3162 308 3162 334C3162 346 3157 379 3111 380C3138 415 3187 426 3219 426C3268 426 3325 387 3325 298L3325 261C3274 258 3204 255 3141 225C3066 191 3041 139 3041 95ZM3118 96C3118 151 3160 234 3325 240L3325 140C3325 45 3253 11 3208 11C3159 11 3118 46 3118 96ZM3518 400L3603 400L3603 124C3603 1 3696 -11 3732 -11C3803 -11 3831 60 3831 124L3831 181L3806 181L3806 126C3806 52 3776 14 3739 14C3672 14 3672 105 3672 122L3672 400L3815 400L3815 431L3672 431L3672 615L3647 615C3646 533 3616 426 3518 422ZM3962 616C3962 589 3984 563 4015 563C4043 563 4068 584 4068 616C4068 648 4043 669 4015 669C3984 669 3962 642 3962 616ZM3920 0C3952 1 4006 3 4030 3C4065 3 4100 1 4134 0L4134 31C4068 31 4064 36 4064 75L4064 442L3924 431L3924 400C3989 400 3998 394 3998 345L3998 76C3998 31 3987 31 3920 31ZM4192 214C4192 85 4296 -11 4413 -11C4534 -11 4635 87 4635 214C4635 342 4535 448 4414 448C4289 448 4192 339 4192 214ZM4275 222C4275 261 4275 315 4299 359C4326 405 4373 426 4413 426C4457 426 4500 404 4526 361C4552 318 4552 260 4552 222C4552 186 4552 132 4530 88C4508 43 4464 14 4414 14C4371 14 4327 35 4300 81C4275 125 4275 186 4275 222ZM4696 0C4731 1 4782 3 4809 3C4835 3 4887 1 4921 0L4921 31C4854 31 4843 31 4843 76L4843 260C4843 364 4914 420 4978 420C5041 420 5052 366 5052 309L5052 76C5052 31 5041 31 4974 31L4974 0C5009 1 5060 3 5087 3C5113 3 5165 1 5199 0L5199 31C5147 31 5122 31 5121 61L5121 252C5121 338 5121 369 5090 405C5076 422 5043 442 4985 442C4912 442 4865 399 4837 337L4837 442L4696 431L4696 400C4766 400 4774 393 4774 344L4774 76C4774 31 4763 31 4696 31Z" stroke="rgb(0,0,0)" stroke-opacity="1" stroke-width="8" fill="rgb(0,0,0)" fill-opacity="1"></path></g></g></g></g></svg>
</svg>
