<svg xmlns="http://www.w3.org/2000/svg" width="419.6" height="301.6" style="width:419.6000061035156px;height:301.6000061035156px;background:0 0;fill:none"><svg xmlns="http://www.w3.org/2000/svg"/><svg xmlns="http://www.w3.org/2000/svg" class="role-diagram-draw-area"><g class="shapes-region" style="stroke:#000;fill:none"><g class="arrow-line"><path d="M12 288h397" class="connection real" style="stroke:#000;stroke-width:1;fill:none;fill-opacity:1"/><path d="M10.93-3.29Q4.96-.45 0 0q4.96.45 10.93 3.29" style="stroke:#000;stroke-width:1" transform="matrix(-1 0 0 -1 411 288)"/></g><g class="arrow-line"><path d="M12 288V27.3" class="connection real" style="stroke:#000;stroke-width:1;fill:none;fill-opacity:1"/><path d="M10.93-3.29Q4.96-.45 0 0q4.96.45 10.93 3.29" style="stroke:#000;stroke-width:1" transform="rotate(90 -6.65 18.65)"/></g><g class="composite-shape"><path stroke="none" d="M12 263c5.34 0 10.28 1.67 14.34 4.52L12 288Z" class="real" style="stroke-width:1;stroke:none;stroke-opacity:1;fill:none;fill-opacity:1"/><path d="M12 263c5.34 0 10.28 1.67 14.34 4.52" class="real" style="stroke-width:1;stroke:#000;stroke-opacity:1;fill:none;fill-opacity:1"/></g><g class="arrow-line"><path d="M155.39 83.21h167" class="connection real" style="stroke:#900;stroke-opacity:1;stroke-width:1;fill:none;fill-opacity:1"/><path fill="#900" stroke="none" d="M10.72-5.15 0 0l10.72 5.15L7.12 0Z" style="stroke:none;fill:#900;stroke-width:1" transform="matrix(-1 0 0 -1 325.394 83.212)"/></g><g class="arrow-line"><path d="M12 288 153.67 85.67" class="connection real" style="stroke:#900;stroke-opacity:1;stroke-width:1;fill:none;fill-opacity:1"/><path fill="#900" stroke="none" d="M10.72-5.15 0 0l10.72 5.15L7.12 0Z" style="stroke:none;fill:#900;stroke-width:1" transform="rotate(125 56.038 82.053)"/></g><g class="arrow-line"><path stroke-dasharray="3" d="M12 288 322.88 84.85" class="connection real" style="stroke:#000;stroke-width:1;fill:none;fill-opacity:1"/><path fill="#000" stroke="none" d="M10.72-5.15 0 0l10.72 5.15L7.12 0Z" style="stroke:none;fill:#000;stroke-width:1" transform="rotate(146.84 150.31 90.046)"/></g><g class="arrow-line"><path d="M46.2 195.95c-3.17 44.9-21.82 13.98-27.34 66.39" class="connection real" style="stroke:#000;stroke-width:1;fill:none;fill-opacity:1"/><path d="M10.93-3.29Q4.96-.45 0 0q4.96.45 10.93 3.29" style="stroke:#000;stroke-width:1" transform="rotate(-84.46 154.745 121.674)"/></g><g class="arrow-line"><path stroke-dasharray="3" d="M155.39 83.21H11.8" class="connection real" style="stroke:#900;stroke-opacity:1;stroke-width:1;fill:none;fill-opacity:1"/></g><g class="composite-shape"><path d="M11.8 83.21h14v14h-14Z" class="real" style="stroke-width:1;stroke:#900;stroke-opacity:1;fill:none;fill-opacity:1"/></g></g></svg><svg xmlns="http://www.w3.org/2000/svg" xmlns:xlink="http://www.w3.org/1999/xlink" width="418" height="300" style="width:418px;height:300px;font-family:Asana-Math,Asana;background:0 0"><path fill="#000" stroke="#000" stroke-width=".12" d="M171.997 198.975c0 1.905 1.47 3.39 3.18 3.39.96 0 1.635-.51 2.01-.99v.99l2.205-.165v-.465c-1.05 0-1.17-.105-1.17-.84v-9.105l-2.16.165v.465c1.05 0 1.17.105 1.17.84v3.24c-.435-.54-1.08-.93-1.89-.93-1.77 0-3.345 1.47-3.345 3.405Zm1.245.015c0-.555.03-1.455.465-2.13.315-.465.885-.96 1.695-.96.525 0 1.155.225 1.62.9.165.255.165.285.165.555v3.075c0 .27 0 .3-.165.555-.45.72-1.125 1.05-1.77 1.05-.675 0-1.215-.39-1.575-.96-.39-.615-.435-1.47-.435-2.085Zm7.695-6.03a.8.8 0 0 0 .795.795c.42 0 .795-.315.795-.795a.78.78 0 0 0-.795-.795c-.465 0-.795.405-.795.795Zm-.63 9.24c.48-.015 1.29-.045 1.65-.045.525 0 1.05.03 1.56.045v-.465c-.99 0-1.05-.075-1.05-.66v-5.505l-2.1.165v.465c.975 0 1.11.09 1.11.825v4.035c0 .675-.165.675-1.17.675Zm4.155-.195c0 .255 0 .36.165.36.075 0 .09-.015.375-.3.03-.03.03-.06.3-.345.66.63 1.335.645 1.65.645 1.725 0 2.415-1.005 2.415-2.085 0-.795-.45-1.245-.63-1.425-.495-.48-1.08-.6-1.71-.72-.84-.165-1.845-.36-1.845-1.23 0-.525.39-1.14 1.68-1.14 1.65 0 1.725 1.35 1.755 1.815.015.135.15.135.18.135.195 0 .195-.075.195-.36v-1.515c0-.255 0-.36-.165-.36-.075 0-.105 0-.3.18-.045.06-.195.195-.255.24-.57-.42-1.185-.42-1.41-.42-1.83 0-2.4 1.005-2.4 1.845 0 .525.24.945.645 1.275.48.39.9.48 1.98.69.33.06 1.56.3 1.56 1.38 0 .765-.525 1.365-1.695 1.365-1.26 0-1.8-.855-2.085-2.13-.045-.195-.06-.255-.21-.255-.195 0-.195.105-.195.375Zm5.835 2.64v.465c.51-.015 1.29-.045 1.68-.045.405 0 1.17.03 1.695.045v-.465c-1.005 0-1.17 0-1.17-.675v-2.655c.075.24.705 1.05 1.845 1.05 1.785 0 3.345-1.47 3.345-3.405 0-1.905-1.455-3.39-3.135-3.39-1.17 0-1.8.66-2.1.99v-.99l-2.16.165v.465c1.065 0 1.17.09 1.17.75v7.02c0 .675-.165.675-1.17.675Zm2.205-4.155v-3.345c.435-.765 1.17-1.2 1.935-1.2 1.095 0 2.01 1.32 2.01 3.015 0 1.815-1.05 3.075-2.16 3.075-.6 0-1.17-.3-1.575-.915-.21-.315-.21-.33-.21-.63Zm6.195 1.71c.495-.015 1.29-.045 1.665-.045s1.11.03 1.665.045v-.465c-1.005 0-1.17 0-1.17-.675v-9.27l-2.16.165v.465c1.05 0 1.17.105 1.17.84v7.8c0 .675-.165.675-1.17.675Zm4.29-1.425c0 1.215 1.455 1.59 2.4 1.59.99 0 1.68-.6 1.965-1.305.06.6.465 1.23 1.17 1.23.315 0 1.23-.21 1.23-1.425v-.84h-.375v.84c0 .87-.375.96-.54.96-.495 0-.555-.675-.555-.75v-3c0-.63 0-1.215-.54-1.77-.585-.585-1.335-.825-2.055-.825-1.23 0-2.265.705-2.265 1.695 0 .45.3.705.69.705.42 0 .69-.3.69-.69 0-.18-.075-.675-.765-.69.405-.525 1.14-.69 1.62-.69.735 0 1.59.585 1.59 1.92v.555c-.765.045-1.815.09-2.76.54-1.125.51-1.5 1.29-1.5 1.95Zm1.155-.015c0-.825.63-2.07 3.105-2.16v1.5c0 1.425-1.08 1.935-1.755 1.935-.735 0-1.35-.525-1.35-1.275Zm6.225-1.8c0 1.92 1.485 3.405 3.225 3.405 2.01 0 2.49-1.8 2.49-1.95s-.15-.15-.195-.15c-.135 0-.165.06-.195.15-.435 1.395-1.41 1.575-1.965 1.575-.795 0-2.115-.645-2.115-3.06 0-2.445 1.23-3.075 2.025-3.075.135 0 1.08.015 1.605.555-.615.045-.705.495-.705.69 0 .39.27.69.69.69.39 0 .69-.255.69-.705 0-1.02-1.14-1.605-2.295-1.605-1.875 0-3.255 1.62-3.255 3.48Zm6.57-.06c0 2.01 1.575 3.465 3.3 3.465 1.83 0 2.505-1.665 2.505-1.95 0-.15-.12-.18-.195-.18-.135 0-.165.09-.195.21-.525 1.545-1.875 1.545-2.025 1.545-.75 0-1.35-.45-1.695-1.005-.45-.72-.45-1.71-.45-2.25h4.185c.33 0 .375 0 .375-.315 0-1.485-.81-2.94-2.685-2.94-1.74 0-3.12 1.545-3.12 3.42Zm1.26-.48c.09-2.235 1.35-2.61 1.86-2.61 1.545 0 1.695 2.025 1.695 2.61Zm5.46 3.78c.525-.015 1.29-.045 1.695-.045.39 0 1.17.03 1.68.045v-.465c-1.005 0-1.17 0-1.17-.675v-2.76c0-1.56 1.065-2.4 2.025-2.4.945 0 1.11.81 1.11 1.665v3.495c0 .675-.165.675-1.17.675v.465c.525-.015 1.29-.045 1.695-.045.39 0 1.17.03 1.68.045v-.465c-1.005 0-1.17 0-1.17-.675v-2.76c0-1.56 1.065-2.4 2.025-2.4.945 0 1.11.81 1.11 1.665v3.495c0 .675-.165.675-1.17.675v.465c.525-.015 1.29-.045 1.695-.045.39 0 1.17.03 1.68.045v-.465c-.78 0-1.155 0-1.17-.45v-2.865c0-1.29 0-1.755-.465-2.295-.21-.255-.705-.555-1.575-.555-1.26 0-1.92.9-2.175 1.47-.21-1.305-1.32-1.47-1.995-1.47-1.095 0-1.8.645-2.22 1.575v-1.575l-2.115.165v.465c1.05 0 1.17.105 1.17.84v4.02c0 .675-.165.675-1.17.675Zm12.435-3.3c0 2.01 1.575 3.465 3.3 3.465 1.83 0 2.505-1.665 2.505-1.95 0-.15-.12-.18-.195-.18-.135 0-.165.09-.195.21-.525 1.545-1.875 1.545-2.025 1.545-.75 0-1.35-.45-1.695-1.005-.45-.72-.45-1.71-.45-2.25h4.185c.33 0 .375 0 .375-.315 0-1.485-.81-2.94-2.685-2.94-1.74 0-3.12 1.545-3.12 3.42Zm1.26-.48c.09-2.235 1.35-2.61 1.86-2.61 1.545 0 1.695 2.025 1.695 2.61Zm5.46 3.78c.525-.015 1.29-.045 1.695-.045.39 0 1.17.03 1.68.045v-.465c-1.005 0-1.17 0-1.17-.675v-2.76c0-1.56 1.065-2.4 2.025-2.4.945 0 1.11.81 1.11 1.665v3.495c0 .675-.165.675-1.17.675v.465c.525-.015 1.29-.045 1.695-.045.39 0 1.17.03 1.68.045v-.465c-.78 0-1.155 0-1.17-.45v-2.865c0-1.29 0-1.755-.465-2.295-.21-.255-.705-.555-1.575-.555-1.095 0-1.8.645-2.22 1.575v-1.575l-2.115.165v.465c1.05 0 1.17.105 1.17.84v4.02c0 .675-.165.675-1.17.675Zm7.71-6h1.275v4.14c0 1.845 1.395 2.025 1.935 2.025 1.065 0 1.485-1.065 1.485-2.025v-.855h-.375v.825c0 1.11-.45 1.68-1.005 1.68-1.005 0-1.005-1.365-1.005-1.62v-4.17h2.145v-.465h-2.145v-2.76h-.375c-.015 1.23-.465 2.835-1.935 2.895Z"/><path fill="#900" stroke="#900" stroke-width=".12" d="M180.81 73.875c0 1.905 1.47 3.39 3.18 3.39.96 0 1.635-.51 2.01-.99v.99l2.205-.165v-.465c-1.05 0-1.17-.105-1.17-.84V66.69l-2.16.165v.465c1.05 0 1.17.105 1.17.84v3.24c-.435-.54-1.08-.93-1.89-.93-1.77 0-3.345 1.47-3.345 3.405Zm1.245.015c0-.555.03-1.455.465-2.13.315-.465.885-.96 1.695-.96.525 0 1.155.225 1.62.9.165.255.165.285.165.555v3.075c0 .27 0 .3-.165.555-.45.72-1.125 1.05-1.77 1.05-.675 0-1.215-.39-1.575-.96-.39-.615-.435-1.47-.435-2.085Zm7.695-6.03a.8.8 0 0 0 .795.795c.42 0 .795-.315.795-.795a.78.78 0 0 0-.795-.795c-.465 0-.795.405-.795.795Zm-.63 9.24c.48-.015 1.29-.045 1.65-.045.525 0 1.05.03 1.56.045v-.465c-.99 0-1.05-.075-1.05-.66V70.47l-2.1.165v.465c.975 0 1.11.09 1.11.825v4.035c0 .675-.165.675-1.17.675Zm4.155-.195c0 .255 0 .36.165.36.075 0 .09-.015.375-.3.03-.03.03-.06.3-.345.66.63 1.335.645 1.65.645 1.725 0 2.415-1.005 2.415-2.085 0-.795-.45-1.245-.63-1.425-.495-.48-1.08-.6-1.71-.72-.84-.165-1.845-.36-1.845-1.23 0-.525.39-1.14 1.68-1.14 1.65 0 1.725 1.35 1.755 1.815.015.135.15.135.18.135.195 0 .195-.075.195-.36V70.74c0-.255 0-.36-.165-.36-.075 0-.105 0-.3.18-.045.06-.195.195-.255.24-.57-.42-1.185-.42-1.41-.42-1.83 0-2.4 1.005-2.4 1.845 0 .525.24.945.645 1.275.48.39.9.48 1.98.69.33.06 1.56.3 1.56 1.38 0 .765-.525 1.365-1.695 1.365-1.26 0-1.8-.855-2.085-2.13-.045-.195-.06-.255-.21-.255-.195 0-.195.105-.195.375Zm5.7-5.805h1.275v4.14c0 1.845 1.395 2.025 1.935 2.025 1.065 0 1.485-1.065 1.485-2.025v-.855h-.375v.825c0 1.11-.45 1.68-1.005 1.68-1.005 0-1.005-1.365-1.005-1.62V71.1h2.145v-.465h-2.145v-2.76h-.375c-.015 1.23-.465 2.835-1.935 2.895Zm6.165 4.575c0 1.215 1.455 1.59 2.4 1.59.99 0 1.68-.6 1.965-1.305.06.6.465 1.23 1.17 1.23.315 0 1.23-.21 1.23-1.425v-.84h-.375v.84c0 .87-.375.96-.54.96-.495 0-.555-.675-.555-.75v-3c0-.63 0-1.215-.54-1.77-.585-.585-1.335-.825-2.055-.825-1.23 0-2.265.705-2.265 1.695 0 .45.3.705.69.705.42 0 .69-.3.69-.69 0-.18-.075-.675-.765-.69.405-.525 1.14-.69 1.62-.69.735 0 1.59.585 1.59 1.92v.555c-.765.045-1.815.09-2.76.54-1.125.51-1.5 1.29-1.5 1.95Zm1.155-.015c0-.825.63-2.07 3.105-2.16V75c0 1.425-1.08 1.935-1.755 1.935-.735 0-1.35-.525-1.35-1.275Zm6.195 1.44c.525-.015 1.29-.045 1.695-.045.39 0 1.17.03 1.68.045v-.465c-1.005 0-1.17 0-1.17-.675V73.2c0-1.56 1.065-2.4 2.025-2.4.945 0 1.11.81 1.11 1.665v3.495c0 .675-.165.675-1.17.675v.465c.525-.015 1.29-.045 1.695-.045.39 0 1.17.03 1.68.045v-.465c-.78 0-1.155 0-1.17-.45V73.32c0-1.29 0-1.755-.465-2.295-.21-.255-.705-.555-1.575-.555-1.095 0-1.8.645-2.22 1.575V70.47l-2.115.165v.465c1.05 0 1.17.105 1.17.84v4.02c0 .675-.165.675-1.17.675Zm8.355-3.24c0 1.92 1.485 3.405 3.225 3.405 2.01 0 2.49-1.8 2.49-1.95s-.15-.15-.195-.15c-.135 0-.165.06-.195.15-.435 1.395-1.41 1.575-1.965 1.575-.795 0-2.115-.645-2.115-3.06 0-2.445 1.23-3.075 2.025-3.075.135 0 1.08.015 1.605.555-.615.045-.705.495-.705.69 0 .39.27.69.69.69.39 0 .69-.255.69-.705 0-1.02-1.14-1.605-2.295-1.605-1.875 0-3.255 1.62-3.255 3.48Zm6.57-.06c0 2.01 1.575 3.465 3.3 3.465 1.83 0 2.505-1.665 2.505-1.95 0-.15-.12-.18-.195-.18-.135 0-.165.09-.195.21-.525 1.545-1.875 1.545-2.025 1.545-.75 0-1.35-.45-1.695-1.005-.45-.72-.45-1.71-.45-2.25h4.185c.33 0 .375 0 .375-.315 0-1.485-.81-2.94-2.685-2.94-1.74 0-3.12 1.545-3.12 3.42Zm1.26-.48c.09-2.235 1.35-2.61 1.86-2.61 1.545 0 1.695 2.025 1.695 2.61Z"/><path fill="#000" stroke="#000" stroke-width=".12" d="M390.343 273.45c0 .15.18.18.345.18.075 0 .18-.015.225-.015h4.23v4.245c0 .045-.015.12-.015.195 0 .165.03.36.18.36s.18-.18.18-.345v-4.455h4.23c.045 0 .12.015.195.015.165 0 .36-.03.36-.18s-.18-.18-.345-.18c-.075 0-.165.015-.21.015h-4.23v-4.44c0-.165-.03-.36-.18-.36s-.18.195-.18.36c0 .075.015.15.015.195v4.245h-4.23c-.045 0-.135-.015-.21-.015-.165 0-.36.03-.36.18Zm10.995 3.75c.39-.03.855-.045 1.245-.045.435 0 1.065.03 1.425.045v-.465c-.33-.045-.435-.24-.435-.465 0-.33.435-.825 1.35-1.905l1.14 1.5c.12.165.315.405.315.495 0 .135-.135.36-.54.375v.465c.45-.015 1.29-.045 1.62-.045.405 0 .99.015 1.44.045v-.465c-.81 0-1.08-.03-1.425-.465l-2.01-2.595c.45-.57 1.02-1.305 1.38-1.695.465-.54 1.08-.765 1.785-.78v-.465c-.39.03-.84.045-1.23.045-.45 0-1.245-.03-1.44-.045v.465c.315.03.435.225.435.465s-.15.435-.225.525l-.93 1.17-1.17-1.515c-.135-.15-.135-.18-.135-.27 0-.225.225-.36.525-.375v-.465c-.39.015-1.38.045-1.62.045-.315 0-1.02-.015-1.425-.045v.465c1.05 0 1.065.015 1.77.915l1.485 1.935-1.41 1.785a2.4 2.4 0 0 1-1.92.9ZM19.342 27.85c0 .15.18.18.345.18.075 0 .18-.015.225-.015h4.23v4.245c0 .045-.015.12-.015.195 0 .165.03.36.18.36s.18-.18.18-.345v-4.455h4.23c.045 0 .12.015.195.015.165 0 .36-.03.36-.18s-.18-.18-.345-.18c-.075 0-.165.015-.21.015h-4.23v-4.44c0-.165-.03-.36-.18-.36s-.18.195-.18.36c0 .075.015.15.015.195v4.245h-4.23c-.045 0-.135-.015-.21-.015-.165 0-.36.03-.36.18Zm11.1 5.61c0 .675.63 1.215 1.38 1.215.945 0 1.56-.855 1.92-1.71l2.64-6.405c.39-.945 1.155-.96 1.395-.96v-.465c-.345.03-.78.045-1.125.045-.27 0-.975-.03-1.305-.045v.465c.465.015.705.27.705.645 0 .15-.015.18-.09.36l-1.515 3.69-1.665-4.035c-.06-.15-.09-.21-.09-.27 0-.39.555-.39.84-.39v-.465c-.39.015-1.38.045-1.635.045-.405 0-1.005-.015-1.455-.045v.465c.72 0 1.005 0 1.215.525l2.25 5.475a22 22 0 0 1-.375.885c-.33.825-.75 1.86-1.71 1.86-.075 0-.42 0-.705-.27.465-.06.585-.39.585-.63 0-.39-.285-.63-.63-.63-.3 0-.63.195-.63.645Zm1.175 157.715c0 1.365 1.395 2.355 3.03 2.355 1.83 0 3.195-1.365 3.195-2.895 0-1.23-.945-2.4-2.505-2.715 1.23-.405 2.1-1.455 2.1-2.64 0-1.23-1.32-2.07-2.76-2.07-1.515 0-2.655.9-2.655 2.04 0 .495.33.78.765.78.465 0 .765-.33.765-.765 0-.75-.705-.75-.93-.75.465-.735 1.455-.93 1.995-.93.615 0 1.44.33 1.44 1.68 0 .18-.03 1.05-.42 1.71-.45.72-.96.765-1.335.78-.12.015-.48.045-.585.045-.12.015-.225.03-.225.18 0 .165.105.165.36.165h.66c1.23 0 1.785 1.02 1.785 2.49 0 2.04-1.035 2.475-1.695 2.475-.645 0-1.77-.255-2.295-1.14.525.075.99-.255.99-.825 0-.54-.405-.84-.84-.84-.36 0-.84.21-.84.87Zm7.62-.39c0 1.29 1.035 2.745 2.715 2.745 1.74 0 3.27-1.44 3.27-3.345 0-1.785-1.23-3.285-2.85-3.285-.72 0-1.365.24-1.905.765v-2.925c.3.09.795.195 1.275.195 1.845 0 2.895-1.365 2.895-1.56 0-.09-.045-.165-.15-.165-.015 0-.045 0-.12.045-.3.135-1.035.435-2.04.435-.6 0-1.29-.105-1.995-.42-.12-.045-.15-.045-.18-.045-.15 0-.15.12-.15.36v4.44c0 .27 0 .39.21.39.105 0 .135-.045.195-.135.165-.24.72-1.05 1.935-1.05.78 0 1.155.69 1.275.96.24.555.27 1.14.27 1.89 0 .525 0 1.425-.36 2.055-.36.585-.915.975-1.605.975-1.095 0-1.95-.795-2.205-1.68.045.015.09.03.255.03a.72.72 0 0 0 .75-.735.72.72 0 0 0-.75-.735c-.21 0-.735.105-.735.795Z"/><text x="45.987" y="179.8" style="white-space:pre;stroke:none;fill:#000;fill-opacity:1;font-size:15px;font-family:Arial,Helvetica,sans-serif;font-weight:400;font-style:normal;dominant-baseline:text-before-edge;text-decoration:none">°</text></svg></svg>