<svg xmlns="http://www.w3.org/2000/svg" width="322.6" height="187" style="width:322.6000061035156px;height:187px;background:#fff;fill:none"><svg xmlns="http://www.w3.org/2000/svg"/><svg xmlns="http://www.w3.org/2000/svg" class="role-diagram-draw-area"><g class="shapes-region" style="stroke:#000;fill:none"><g class="arrow-line"><path d="M8 181.6 313.31 31.92" class="connection real" style="stroke:#000;stroke-width:1;fill:none;fill-opacity:1"/><path fill="#000" stroke="none" d="M10.72-5.15 0 0l10.72 5.15L7.12 0Z" style="stroke:none;fill:#000;stroke-width:1" transform="rotate(153.88 154.45 51.951)"/></g><g class="arrow-line"><path d="M8 181.6c20.9-76.62 84.36-29.48 132.28-134.41" class="connection real" style="stroke:#900;stroke-opacity:1;stroke-width:1;fill:none;fill-opacity:1"/><path fill="#900" stroke="none" d="M10.72-5.15 0 0l10.72 5.15L7.12 0Z" style="stroke:none;fill:#900;stroke-width:1" transform="rotate(151.91 26.095 68.427)"/><path fill="#900" stroke="none" d="M10.72-5.15 0 0l10.72 5.15L7.12 0Z" style="stroke:none;fill:#900;stroke-width:1" transform="rotate(114.16 55.739 68.443)"/></g><g class="arrow-line"><path d="M141 45.6C188.52-.93 248.78-7.28 314.02 29.47" class="connection real" style="stroke:#900;stroke-opacity:1;stroke-width:1;fill:none;fill-opacity:1"/><path fill="#900" stroke="none" d="M10.72-5.15 0 0l10.72 5.15L7.12 0Z" style="stroke:none;fill:#900;stroke-width:1" transform="rotate(177.17 114.768 5.725)"/><path fill="#900" stroke="none" d="M10.72-5.15 0 0l10.72 5.15L7.12 0Z" style="stroke:none;fill:#900;stroke-width:1" transform="rotate(209.93 162.09 -26.933)"/></g></g></svg><svg xmlns="http://www.w3.org/2000/svg" xmlns:xlink="http://www.w3.org/1999/xlink" width="321" height="185.4" style="width:321px;height:185.40000915527344px;font-family:Asana-Math,Asana;background:#fff"><path fill="#000" stroke="#000" stroke-width=".12" d="M165.31 119.462c0 1.905 1.47 3.39 3.18 3.39.96 0 1.635-.51 2.01-.99v.99l2.205-.165v-.465c-1.05 0-1.17-.105-1.17-.84v-9.105l-2.16.165v.465c1.05 0 1.17.105 1.17.84v3.24c-.435-.54-1.08-.93-1.89-.93-1.77 0-3.345 1.47-3.345 3.405Zm1.245.015c0-.555.03-1.455.465-2.13.315-.465.885-.96 1.695-.96.525 0 1.155.225 1.62.9.165.255.165.285.165.555v3.075c0 .27 0 .3-.165.555-.45.72-1.125 1.05-1.77 1.05-.675 0-1.215-.39-1.575-.96-.39-.615-.435-1.47-.435-2.085Zm7.695-6.03a.8.8 0 0 0 .795.795c.42 0 .795-.315.795-.795a.78.78 0 0 0-.795-.795c-.465 0-.795.405-.795.795Zm-.63 9.24c.48-.015 1.29-.045 1.65-.045.525 0 1.05.03 1.56.045v-.465c-.99 0-1.05-.075-1.05-.66v-5.505l-2.1.165v.465c.975 0 1.11.09 1.11.825v4.035c0 .675-.165.675-1.17.675Zm4.155-.195c0 .255 0 .36.165.36.075 0 .09-.015.375-.3.03-.03.03-.06.3-.345.66.63 1.335.645 1.65.645 1.725 0 2.415-1.005 2.415-2.085 0-.795-.45-1.245-.63-1.425-.495-.48-1.08-.6-1.71-.72-.84-.165-1.845-.36-1.845-1.23 0-.525.39-1.14 1.68-1.14 1.65 0 1.725 1.35 1.755 1.815.015.135.15.135.18.135.195 0 .195-.075.195-.36v-1.515c0-.255 0-.36-.165-.36-.075 0-.105 0-.3.18-.045.06-.195.195-.255.24-.57-.42-1.185-.42-1.41-.42-1.83 0-2.4 1.005-2.4 1.845 0 .525.24.945.645 1.275.48.39.9.48 1.98.69.33.06 1.56.3 1.56 1.38 0 .765-.525 1.365-1.695 1.365-1.26 0-1.8-.855-2.085-2.13-.045-.195-.06-.255-.21-.255-.195 0-.195.105-.195.375Zm5.835 2.64v.465c.51-.015 1.29-.045 1.68-.045.405 0 1.17.03 1.695.045v-.465c-1.005 0-1.17 0-1.17-.675v-2.655c.075.24.705 1.05 1.845 1.05 1.785 0 3.345-1.47 3.345-3.405 0-1.905-1.455-3.39-3.135-3.39-1.17 0-1.8.66-2.1.99v-.99l-2.16.165v.465c1.065 0 1.17.09 1.17.75v7.02c0 .675-.165.675-1.17.675Zm2.205-4.155v-3.345c.435-.765 1.17-1.2 1.935-1.2 1.095 0 2.01 1.32 2.01 3.015 0 1.815-1.05 3.075-2.16 3.075-.6 0-1.17-.3-1.575-.915-.21-.315-.21-.33-.21-.63Zm6.195 1.71c.495-.015 1.29-.045 1.665-.045s1.11.03 1.665.045v-.465c-1.005 0-1.17 0-1.17-.675v-9.27l-2.16.165v.465c1.05 0 1.17.105 1.17.84v7.8c0 .675-.165.675-1.17.675Zm4.29-1.425c0 1.215 1.455 1.59 2.4 1.59.99 0 1.68-.6 1.965-1.305.06.6.465 1.23 1.17 1.23.315 0 1.23-.21 1.23-1.425v-.84h-.375v.84c0 .87-.375.96-.54.96-.495 0-.555-.675-.555-.75v-3c0-.63 0-1.215-.54-1.77-.585-.585-1.335-.825-2.055-.825-1.23 0-2.265.705-2.265 1.695 0 .45.3.705.69.705.42 0 .69-.3.69-.69 0-.18-.075-.675-.765-.69.405-.525 1.14-.69 1.62-.69.735 0 1.59.585 1.59 1.92v.555c-.765.045-1.815.09-2.76.54-1.125.51-1.5 1.29-1.5 1.95Zm1.155-.015c0-.825.63-2.07 3.105-2.16v1.5c0 1.425-1.08 1.935-1.755 1.935-.735 0-1.35-.525-1.35-1.275Zm6.225-1.8c0 1.92 1.485 3.405 3.225 3.405 2.01 0 2.49-1.8 2.49-1.95s-.15-.15-.195-.15c-.135 0-.165.06-.195.15-.435 1.395-1.41 1.575-1.965 1.575-.795 0-2.115-.645-2.115-3.06 0-2.445 1.23-3.075 2.025-3.075.135 0 1.08.015 1.605.555-.615.045-.705.495-.705.69 0 .39.27.69.69.69.39 0 .69-.255.69-.705 0-1.02-1.14-1.605-2.295-1.605-1.875 0-3.255 1.62-3.255 3.48Zm6.57-.06c0 2.01 1.575 3.465 3.3 3.465 1.83 0 2.505-1.665 2.505-1.95 0-.15-.12-.18-.195-.18-.135 0-.165.09-.195.21-.525 1.545-1.875 1.545-2.025 1.545-.75 0-1.35-.45-1.695-1.005-.45-.72-.45-1.71-.45-2.25h4.185c.33 0 .375 0 .375-.315 0-1.485-.81-2.94-2.685-2.94-1.74 0-3.12 1.545-3.12 3.42Zm1.26-.48c.09-2.235 1.35-2.61 1.86-2.61 1.545 0 1.695 2.025 1.695 2.61Zm5.46 3.78c.525-.015 1.29-.045 1.695-.045.39 0 1.17.03 1.68.045v-.465c-1.005 0-1.17 0-1.17-.675v-2.76c0-1.56 1.065-2.4 2.025-2.4.945 0 1.11.81 1.11 1.665v3.495c0 .675-.165.675-1.17.675v.465c.525-.015 1.29-.045 1.695-.045.39 0 1.17.03 1.68.045v-.465c-1.005 0-1.17 0-1.17-.675v-2.76c0-1.56 1.065-2.4 2.025-2.4.945 0 1.11.81 1.11 1.665v3.495c0 .675-.165.675-1.17.675v.465c.525-.015 1.29-.045 1.695-.045.39 0 1.17.03 1.68.045v-.465c-.78 0-1.155 0-1.17-.45v-2.865c0-1.29 0-1.755-.465-2.295-.21-.255-.705-.555-1.575-.555-1.26 0-1.92.9-2.175 1.47-.21-1.305-1.32-1.47-1.995-1.47-1.095 0-1.8.645-2.22 1.575v-1.575l-2.115.165v.465c1.05 0 1.17.105 1.17.84v4.02c0 .675-.165.675-1.17.675Zm12.435-3.3c0 2.01 1.575 3.465 3.3 3.465 1.83 0 2.505-1.665 2.505-1.95 0-.15-.12-.18-.195-.18-.135 0-.165.09-.195.21-.525 1.545-1.875 1.545-2.025 1.545-.75 0-1.35-.45-1.695-1.005-.45-.72-.45-1.71-.45-2.25h4.185c.33 0 .375 0 .375-.315 0-1.485-.81-2.94-2.685-2.94-1.74 0-3.12 1.545-3.12 3.42Zm1.26-.48c.09-2.235 1.35-2.61 1.86-2.61 1.545 0 1.695 2.025 1.695 2.61Zm5.46 3.78c.525-.015 1.29-.045 1.695-.045.39 0 1.17.03 1.68.045v-.465c-1.005 0-1.17 0-1.17-.675v-2.76c0-1.56 1.065-2.4 2.025-2.4.945 0 1.11.81 1.11 1.665v3.495c0 .675-.165.675-1.17.675v.465c.525-.015 1.29-.045 1.695-.045.39 0 1.17.03 1.68.045v-.465c-.78 0-1.155 0-1.17-.45v-2.865c0-1.29 0-1.755-.465-2.295-.21-.255-.705-.555-1.575-.555-1.095 0-1.8.645-2.22 1.575v-1.575l-2.115.165v.465c1.05 0 1.17.105 1.17.84v4.02c0 .675-.165.675-1.17.675Zm7.71-6h1.275v4.14c0 1.845 1.395 2.025 1.935 2.025 1.065 0 1.485-1.065 1.485-2.025v-.855h-.375v.825c0 1.11-.45 1.68-1.005 1.68-1.005 0-1.005-1.365-1.005-1.62v-4.17h2.145v-.465h-2.145v-2.76h-.375c-.015 1.23-.465 2.835-1.935 2.895Z"/><path fill="#900" stroke="#900" stroke-width=".12" d="M74.31 46.375c0 1.905 1.47 3.39 3.18 3.39.96 0 1.635-.51 2.01-.99v.99l2.205-.165v-.465c-1.05 0-1.17-.105-1.17-.84V39.19l-2.16.165v.465c1.05 0 1.17.105 1.17.84v3.24c-.435-.54-1.08-.93-1.89-.93-1.77 0-3.345 1.47-3.345 3.405Zm1.245.015c0-.555.03-1.455.465-2.13.315-.465.885-.96 1.695-.96.525 0 1.155.225 1.62.9.165.255.165.285.165.555v3.075c0 .27 0 .3-.165.555-.45.72-1.125 1.05-1.77 1.05-.675 0-1.215-.39-1.575-.96-.39-.615-.435-1.47-.435-2.085Zm7.695-6.03a.8.8 0 0 0 .795.795c.42 0 .795-.315.795-.795a.78.78 0 0 0-.795-.795c-.465 0-.795.405-.795.795Zm-.63 9.24c.48-.015 1.29-.045 1.65-.045.525 0 1.05.03 1.56.045v-.465c-.99 0-1.05-.075-1.05-.66V42.97l-2.1.165v.465c.975 0 1.11.09 1.11.825v4.035c0 .675-.165.675-1.17.675Zm4.155-.195c0 .255 0 .36.165.36.075 0 .09-.015.375-.3.03-.03.03-.06.3-.345.66.63 1.335.645 1.65.645 1.725 0 2.415-1.005 2.415-2.085 0-.795-.45-1.245-.63-1.425-.495-.48-1.08-.6-1.71-.72-.84-.165-1.845-.36-1.845-1.23 0-.525.39-1.14 1.68-1.14 1.65 0 1.725 1.35 1.755 1.815.015.135.15.135.18.135.195 0 .195-.075.195-.36V43.24c0-.255 0-.36-.165-.36-.075 0-.105 0-.3.18-.045.06-.195.195-.255.24-.57-.42-1.185-.42-1.41-.42-1.83 0-2.4 1.005-2.4 1.845 0 .525.24.945.645 1.275.48.39.9.48 1.98.69.33.06 1.56.3 1.56 1.38 0 .765-.525 1.365-1.695 1.365-1.26 0-1.8-.855-2.085-2.13-.045-.195-.06-.255-.21-.255-.195 0-.195.105-.195.375Zm5.7-5.805h1.275v4.14c0 1.845 1.395 2.025 1.935 2.025 1.065 0 1.485-1.065 1.485-2.025v-.855h-.375v.825c0 1.11-.45 1.68-1.005 1.68-1.005 0-1.005-1.365-1.005-1.62V43.6h2.145v-.465h-2.145v-2.76h-.375c-.015 1.23-.465 2.835-1.935 2.895Zm6.165 4.575c0 1.215 1.455 1.59 2.4 1.59.99 0 1.68-.6 1.965-1.305.06.6.465 1.23 1.17 1.23.315 0 1.23-.21 1.23-1.425v-.84h-.375v.84c0 .87-.375.96-.54.96-.495 0-.555-.675-.555-.75v-3c0-.63 0-1.215-.54-1.77-.585-.585-1.335-.825-2.055-.825-1.23 0-2.265.705-2.265 1.695 0 .45.3.705.69.705.42 0 .69-.3.69-.69 0-.18-.075-.675-.765-.69.405-.525 1.14-.69 1.62-.69.735 0 1.59.585 1.59 1.92v.555c-.765.045-1.815.09-2.76.54-1.125.51-1.5 1.29-1.5 1.95Zm1.155-.015c0-.825.63-2.07 3.105-2.16v1.5c0 1.425-1.08 1.935-1.755 1.935-.735 0-1.35-.525-1.35-1.275Zm6.195 1.44c.525-.015 1.29-.045 1.695-.045.39 0 1.17.03 1.68.045v-.465c-1.005 0-1.17 0-1.17-.675V45.7c0-1.56 1.065-2.4 2.025-2.4.945 0 1.11.81 1.11 1.665v3.495c0 .675-.165.675-1.17.675v.465c.525-.015 1.29-.045 1.695-.045.39 0 1.17.03 1.68.045v-.465c-.78 0-1.155 0-1.17-.45V45.82c0-1.29 0-1.755-.465-2.295-.21-.255-.705-.555-1.575-.555-1.095 0-1.8.645-2.22 1.575V42.97l-2.115.165v.465c1.05 0 1.17.105 1.17.84v4.02c0 .675-.165.675-1.17.675Zm8.355-3.24c0 1.92 1.485 3.405 3.225 3.405 2.01 0 2.49-1.8 2.49-1.95s-.15-.15-.195-.15c-.135 0-.165.06-.195.15-.435 1.395-1.41 1.575-1.965 1.575-.795 0-2.115-.645-2.115-3.06 0-2.445 1.23-3.075 2.025-3.075.135 0 1.08.015 1.605.555-.615.045-.705.495-.705.69 0 .39.27.69.69.69.39 0 .69-.255.69-.705 0-1.02-1.14-1.605-2.295-1.605-1.875 0-3.255 1.62-3.255 3.48Zm6.57-.06c0 2.01 1.575 3.465 3.3 3.465 1.83 0 2.505-1.665 2.505-1.95 0-.15-.12-.18-.195-.18-.135 0-.165.09-.195.21-.525 1.545-1.875 1.545-2.025 1.545-.75 0-1.35-.45-1.695-1.005-.45-.72-.45-1.71-.45-2.25h4.185c.33 0 .375 0 .375-.315 0-1.485-.81-2.94-2.685-2.94-1.74 0-3.12 1.545-3.12 3.42Zm1.26-.48c.09-2.235 1.35-2.61 1.86-2.61 1.545 0 1.695 2.025 1.695 2.61Z"/></svg></svg>