<svg xmlns="http://www.w3.org/2000/svg" xmlns:xlink="http://www.w3.org/1999/xlink" x="0" y="0" width="435.6000061035156" height="199.1999969482422" style="
        width:435.6000061035156px;
        height:199.1999969482422px;
        background: #FFF;
        fill: none;
">
        <svg xmlns="http://www.w3.org/2000/svg"/>
        
        <svg xmlns="http://www.w3.org/2000/svg" class="role-diagram-draw-area"><g class="shapes-region" style="stroke: black; fill: none;"><g class="grouped-shape"><g class="composite-shape"><path class="real" d=" M112.4,189.8 C61.37,189.8 20,148.43 20,97.4 C20,46.37 61.37,5 112.4,5 L112.4,97.4 Z" style="stroke-width: 1; stroke: none; stroke-opacity: 1; fill: none; fill-opacity: 1;"/><path class="real" d=" M112.4,189.8 C61.37,189.8 20,148.43 20,97.4 C20,47.13 60.14,6.24 110.11,5.03" style="stroke-width: 1; stroke: rgb(153, 0, 0); stroke-opacity: 1; fill: none; fill-opacity: 1;"/><g stroke="none" fill="rgb(153,0,0)" fill-opacity="1" transform="matrix(-0.9979043400605828,0.06470647640115049,-0.06470647640115049,-0.9979043400605828,112.39999389648439,5)" style="stroke: none; fill: rgb(153, 0, 0); stroke-width: 1;"><path d=" M10.72,-5.15 L0,0 L10.72,5.15 L7.12,0 Z"/></g></g><g class="composite-shape"><path class="real" d=" M112.4,5 C112.4,5 112.4,5 112.4,5 C163.43,5 204.8,46.37 204.8,97.4 C204.8,148.43 163.43,189.8 112.4,189.8 L112.4,97.4 Z" style="stroke-width: 1; stroke: none; stroke-opacity: 1; fill: none; fill-opacity: 1;"/><path class="real" d=" M112.4,5 C163.43,5 204.8,46.37 204.8,97.4 C204.8,147.67 164.66,188.56 114.69,189.77" style="stroke-width: 1; stroke: rgb(153, 0, 0); stroke-opacity: 1; fill: none; fill-opacity: 1;"/><g stroke="none" fill="rgb(153,0,0)" fill-opacity="1" transform="matrix(0.9979043400605828,-0.06470647640115036,0.06470647640115036,0.9979043400605828,112.39999389648438,189.79998779296875)" style="stroke: none; fill: rgb(153, 0, 0); stroke-width: 1;"><path d=" M10.72,-5.15 L0,0 L10.72,5.15 L7.12,0 Z"/></g></g><g class="arrow-line"><path class="connection real" stroke-dasharray="3" d="  M8,189.8 L112.4,189.8" style="stroke: rgb(0, 0, 0); stroke-width: 1; fill: none; fill-opacity: 1;"/></g><g class="arrow-line"><path class="connection real" stroke-dasharray="3" d="  M112.4,97.4 L112.4,5" style="stroke: rgb(153, 0, 0); stroke-opacity: 1; stroke-width: 1; fill: none; fill-opacity: 1;"/></g></g><g/></g><g/><g/><g/></svg>
        <svg xmlns="http://www.w3.org/2000/svg" xmlns:xlink="http://www.w3.org/1999/xlink" width="434" height="197.60000610351562" style="width:434px;height:197.60000610351562px;font-family:Asana-Math, Asana;background:#FFF;"><g><g><g><g transform="matrix(1,0,0,1,119.29998779296875,61.80000305175781)"><path transform="matrix(0.015,0,0,-0.015,0,0)" d="M89 571C109 571 168 571 220 597L220 79C220 43 217 31 127 31L95 31L95 0C130 3 217 3 257 3C297 3 384 3 419 0L419 31L387 31C297 31 294 42 294 79L294 640C294 664 294 666 271 666C209 602 121 602 89 602ZM585 53C585 26 607 0 638 0C664 0 690 22 690 53C690 84 666 105 638 105C607 105 585 80 585 53ZM817 320C817 245 821 155 862 79C905 -2 978 -22 1027 -22C1081 -22 1157 -1 1201 94C1233 163 1238 241 1238 320C1238 400 1233 480 1198 554C1152 650 1070 666 1028 666C968 666 895 640 854 547C822 478 817 400 817 320ZM900 332C900 396 900 462 908 516C927 635 1002 644 1027 644C1060 644 1126 626 1145 527C1155 471 1155 395 1155 332C1155 257 1155 189 1144 125C1129 30 1072 0 1027 0C988 0 929 25 911 121C900 181 900 273 900 332ZM1317 320C1317 245 1321 155 1362 79C1405 -2 1478 -22 1527 -22C1581 -22 1657 -1 1701 94C1733 163 1738 241 1738 320C1738 400 1733 480 1698 554C1652 650 1570 666 1528 666C1468 666 1395 640 1354 547C1322 478 1317 400 1317 320ZM1400 332C1400 396 1400 462 1408 516C1427 635 1502 644 1527 644C1560 644 1626 626 1645 527C1655 471 1655 395 1655 332C1655 257 1655 189 1644 125C1629 30 1572 0 1527 0C1488 0 1429 25 1411 121C1400 181 1400 273 1400 332ZM1810 0C1845 1 1896 3 1923 3C1949 3 2001 1 2035 0L2035 31C1968 31 1957 31 1957 76L1957 260C1957 364 2028 420 2092 420C2155 420 2166 366 2166 309L2166 76C2166 31 2155 31 2088 31L2088 0C2123 1 2174 3 2201 3C2227 3 2279 1 2313 0L2313 31C2246 31 2235 31 2235 76L2235 260C2235 364 2306 420 2370 420C2433 420 2444 366 2444 309L2444 76C2444 31 2433 31 2366 31L2366 0C2401 1 2452 3 2479 3C2505 3 2557 1 2591 0L2591 31C2539 31 2514 31 2513 61L2513 252C2513 338 2513 369 2482 405C2468 422 2435 442 2377 442C2293 442 2249 382 2232 344C2218 431 2144 442 2099 442C2026 442 1979 399 1951 337L1951 442L1810 431L1810 400C1880 400 1888 393 1888 344L1888 76C1888 31 1877 31 1810 31Z" stroke="rgb(153,0,0)" stroke-opacity="1" stroke-width="8" fill="rgb(153,0,0)" fill-opacity="1"></path></g></g></g></g><g><g><g><g transform="matrix(1,0,0,1,250.29998779296875,23.787490844726562)"><path transform="matrix(0.015,0,0,-0.015,0,0)" d="M34 215C34 88 132 -11 246 -11C310 -11 355 23 380 55L380 -11L527 0L527 31C457 31 449 38 449 87L449 694L305 683L305 652C375 652 383 645 383 596L383 380C354 416 311 442 257 442C139 442 34 344 34 215ZM117 214C117 251 119 311 148 356C169 387 207 420 261 420C296 420 338 405 369 360C380 343 380 341 380 323L380 118C380 100 380 98 369 81C339 33 294 11 251 11C206 11 170 37 146 75C120 116 117 173 117 214ZM630 616C630 589 652 563 683 563C711 563 736 584 736 616C736 648 711 669 683 669C652 669 630 642 630 616ZM588 0C620 1 674 3 698 3C733 3 768 1 802 0L802 31C736 31 732 36 732 75L732 442L592 431L592 400C657 400 666 394 666 345L666 76C666 31 655 31 588 31ZM865 13C865 -4 865 -11 876 -11C881 -11 882 -10 901 9C903 11 903 13 921 32C965 -10 1010 -11 1031 -11C1146 -11 1192 56 1192 128C1192 181 1162 211 1150 223C1117 255 1078 263 1036 271C980 282 913 295 913 353C913 388 939 429 1025 429C1135 429 1140 339 1142 308C1143 299 1152 299 1154 299C1167 299 1167 304 1167 323L1167 424C1167 441 1167 448 1156 448C1151 448 1149 448 1136 436C1133 432 1123 423 1119 420C1081 448 1040 448 1025 448C903 448 865 381 865 325C865 290 881 262 908 240C940 214 968 208 1040 194C1062 190 1144 174 1144 102C1144 51 1109 11 1031 11C947 11 911 68 892 153C889 166 888 170 878 170C865 170 865 163 865 145ZM1245 400L1330 400L1330 124C1330 1 1423 -11 1459 -11C1530 -11 1558 60 1558 124L1558 181L1533 181L1533 126C1533 52 1503 14 1466 14C1399 14 1399 105 1399 122L1399 400L1542 400L1542 431L1399 431L1399 615L1374 615C1373 533 1343 426 1245 422ZM1656 95C1656 14 1753 -11 1816 -11C1882 -11 1928 29 1947 76C1951 36 1978 -6 2025 -6C2046 -6 2107 8 2107 89L2107 145L2082 145L2082 89C2082 31 2057 25 2046 25C2013 25 2009 70 2009 75L2009 275C2009 317 2009 356 1973 393C1934 432 1884 448 1836 448C1754 448 1685 401 1685 335C1685 305 1705 288 1731 288C1759 288 1777 308 1777 334C1777 346 1772 379 1726 380C1753 415 1802 426 1834 426C1883 426 1940 387 1940 298L1940 261C1889 258 1819 255 1756 225C1681 191 1656 139 1656 95ZM1733 96C1733 151 1775 234 1940 240L1940 140C1940 45 1868 11 1823 11C1774 11 1733 46 1733 96ZM2146 0C2181 1 2232 3 2259 3C2285 3 2337 1 2371 0L2371 31C2304 31 2293 31 2293 76L2293 260C2293 364 2364 420 2428 420C2491 420 2502 366 2502 309L2502 76C2502 31 2491 31 2424 31L2424 0C2459 1 2510 3 2537 3C2563 3 2615 1 2649 0L2649 31C2597 31 2572 31 2571 61L2571 252C2571 338 2571 369 2540 405C2526 422 2493 442 2435 442C2362 442 2315 399 2287 337L2287 442L2146 431L2146 400C2216 400 2224 393 2224 344L2224 76C2224 31 2213 31 2146 31ZM2703 216C2703 88 2802 -11 2918 -11C3052 -11 3084 109 3084 119C3084 129 3074 129 3071 129C3062 129 3060 125 3058 119C3029 26 2964 14 2927 14C2874 14 2786 57 2786 218C2786 381 2868 423 2921 423C2930 423 2993 422 3028 386C2987 383 2981 353 2981 340C2981 314 2999 294 3027 294C3053 294 3073 311 3073 341C3073 409 2997 448 2920 448C2795 448 2703 340 2703 216ZM3141 220C3141 86 3246 -11 3361 -11C3483 -11 3528 100 3528 119C3528 129 3520 131 3515 131C3506 131 3504 125 3502 117C3467 14 3377 14 3367 14C3317 14 3277 44 3254 81C3224 129 3224 195 3224 231L3503 231C3525 231 3528 231 3528 252C3528 351 3474 448 3349 448C3233 448 3141 345 3141 220ZM3225 252C3231 401 3315 426 3349 426C3452 426 3462 291 3462 252ZM3643 378C3643 349 3667 325 3696 325C3725 325 3749 349 3749 378C3749 407 3725 431 3696 431C3667 431 3643 407 3643 378ZM3643 53C3643 24 3667 0 3696 0C3725 0 3749 24 3749 53C3749 82 3725 106 3696 106C3667 106 3643 82 3643 53ZM6540 316C6540 49 6656 -22 6749 -22C6860 -22 6955 72 6955 204C6955 331 6866 427 6755 427C6687 427 6650 376 6630 328L6630 352C6630 605 6754 641 6805 641C6829 641 6871 635 6893 601C6878 601 6838 601 6838 556C6838 525 6862 510 6884 510C6900 510 6930 519 6930 558C6930 618 6886 666 6803 666C6675 666 6540 537 6540 316ZM6632 226C6632 304 6664 404 6754 404C6770 404 6816 404 6847 342C6865 305 6865 254 6865 205C6865 157 6865 107 6848 71C6818 11 6772 6 6749 6C6686 6 6656 66 6650 81C6632 128 6632 208 6632 226ZM7083 53C7083 26 7105 0 7136 0C7162 0 7188 22 7188 53C7188 84 7164 105 7136 105C7105 105 7083 80 7083 53ZM7326 0L7697 0L7725 174L7700 174C7695 144 7688 100 7678 85C7671 77 7605 77 7583 77L7403 77L7509 180C7665 318 7725 372 7725 472C7725 586 7635 666 7513 666C7400 666 7326 574 7326 485C7326 429 7376 429 7379 429C7396 429 7431 441 7431 482C7431 508 7413 534 7378 534C7370 534 7368 534 7365 533C7388 598 7442 635 7500 635C7591 635 7634 554 7634 472C7634 392 7584 313 7529 251L7337 37C7326 26 7326 24 7326 0ZM7818 151C7818 45 7920 -22 8025 -22C8138 -22 8233 61 8233 168C8233 204 8222 249 8184 291C8165 312 8149 322 8085 362C8157 399 8206 451 8206 517C8206 609 8117 666 8026 666C7926 666 7845 592 7845 499C7845 481 7847 436 7889 389C7900 377 7937 352 7962 335C7904 306 7818 250 7818 151ZM7868 151C7868 209 7900 273 7985 320L8108 242C8136 223 8183 193 8183 132C8183 58 8108 6 8026 6C7940 6 7868 68 7868 151ZM7889 538C7889 599 7954 641 8025 641C8098 641 8162 589 8162 517C8162 460 8123 412 8063 377L7939 457C7893 487 7889 521 7889 538ZM8308 0C8343 1 8394 3 8421 3C8447 3 8499 1 8533 0L8533 31C8466 31 8455 31 8455 76L8455 260C8455 364 8526 420 8590 420C8653 420 8664 366 8664 309L8664 76C8664 31 8653 31 8586 31L8586 0C8621 1 8672 3 8699 3C8725 3 8777 1 8811 0L8811 31C8744 31 8733 31 8733 76L8733 260C8733 364 8804 420 8868 420C8931 420 8942 366 8942 309L8942 76C8942 31 8931 31 8864 31L8864 0C8899 1 8950 3 8977 3C9003 3 9055 1 9089 0L9089 31C9037 31 9012 31 9011 61L9011 252C9011 338 9011 369 8980 405C8966 422 8933 442 8875 442C8791 442 8747 382 8730 344C8716 431 8642 442 8597 442C8524 442 8477 399 8449 337L8449 442L8308 431L8308 400C8378 400 8386 393 8386 344L8386 76C8386 31 8375 31 8308 31Z" stroke="rgb(153,0,0)" stroke-opacity="1" stroke-width="8" fill="rgb(153,0,0)" fill-opacity="1"></path></g></g></g><g><g><g transform="matrix(1,0,0,1,250.29998779296875,45.587493896484375)"><path transform="matrix(0.015,0,0,-0.015,0,0)" d="M34 215C34 88 132 -11 246 -11C310 -11 355 23 380 55L380 -11L527 0L527 31C457 31 449 38 449 87L449 694L305 683L305 652C375 652 383 645 383 596L383 380C354 416 311 442 257 442C139 442 34 344 34 215ZM117 214C117 251 119 311 148 356C169 387 207 420 261 420C296 420 338 405 369 360C380 343 380 341 380 323L380 118C380 100 380 98 369 81C339 33 294 11 251 11C206 11 170 37 146 75C120 116 117 173 117 214ZM630 616C630 589 652 563 683 563C711 563 736 584 736 616C736 648 711 669 683 669C652 669 630 642 630 616ZM588 0C620 1 674 3 698 3C733 3 768 1 802 0L802 31C736 31 732 36 732 75L732 442L592 431L592 400C657 400 666 394 666 345L666 76C666 31 655 31 588 31ZM865 13C865 -4 865 -11 876 -11C881 -11 882 -10 901 9C903 11 903 13 921 32C965 -10 1010 -11 1031 -11C1146 -11 1192 56 1192 128C1192 181 1162 211 1150 223C1117 255 1078 263 1036 271C980 282 913 295 913 353C913 388 939 429 1025 429C1135 429 1140 339 1142 308C1143 299 1152 299 1154 299C1167 299 1167 304 1167 323L1167 424C1167 441 1167 448 1156 448C1151 448 1149 448 1136 436C1133 432 1123 423 1119 420C1081 448 1040 448 1025 448C903 448 865 381 865 325C865 290 881 262 908 240C940 214 968 208 1040 194C1062 190 1144 174 1144 102C1144 51 1109 11 1031 11C947 11 911 68 892 153C889 166 888 170 878 170C865 170 865 163 865 145ZM1254 -163L1254 -194C1288 -193 1340 -191 1366 -191C1393 -191 1444 -193 1479 -194L1479 -163C1412 -163 1401 -163 1401 -118L1401 50L1401 59C1406 43 1448 -11 1524 -11C1643 -11 1747 87 1747 216C1747 343 1650 442 1538 442C1460 442 1418 398 1398 376L1398 442L1254 431L1254 400C1325 400 1332 394 1332 350L1332 -118C1332 -163 1321 -163 1254 -163ZM1401 114L1401 337C1430 388 1479 417 1530 417C1603 417 1664 329 1664 216C1664 95 1594 11 1520 11C1480 11 1442 31 1415 72C1401 93 1401 94 1401 114ZM1814 0C1847 1 1900 3 1925 3C1950 3 1999 1 2036 0L2036 31C1969 31 1958 31 1958 76L1958 694L1814 683L1814 652C1884 652 1892 645 1892 596L1892 76C1892 31 1881 31 1814 31ZM2100 95C2100 14 2197 -11 2260 -11C2326 -11 2372 29 2391 76C2395 36 2422 -6 2469 -6C2490 -6 2551 8 2551 89L2551 145L2526 145L2526 89C2526 31 2501 25 2490 25C2457 25 2453 70 2453 75L2453 275C2453 317 2453 356 2417 393C2378 432 2328 448 2280 448C2198 448 2129 401 2129 335C2129 305 2149 288 2175 288C2203 288 2221 308 2221 334C2221 346 2216 379 2170 380C2197 415 2246 426 2278 426C2327 426 2384 387 2384 298L2384 261C2333 258 2263 255 2200 225C2125 191 2100 139 2100 95ZM2177 96C2177 151 2219 234 2384 240L2384 140C2384 45 2312 11 2267 11C2218 11 2177 46 2177 96ZM2592 216C2592 88 2691 -11 2807 -11C2941 -11 2973 109 2973 119C2973 129 2963 129 2960 129C2951 129 2949 125 2947 119C2918 26 2853 14 2816 14C2763 14 2675 57 2675 218C2675 381 2757 423 2810 423C2819 423 2882 422 2917 386C2876 383 2870 353 2870 340C2870 314 2888 294 2916 294C2942 294 2962 311 2962 341C2962 409 2886 448 2809 448C2684 448 2592 340 2592 216ZM3030 220C3030 86 3135 -11 3250 -11C3372 -11 3417 100 3417 119C3417 129 3409 131 3404 131C3395 131 3393 125 3391 117C3356 14 3266 14 3256 14C3206 14 3166 44 3143 81C3113 129 3113 195 3113 231L3392 231C3414 231 3417 231 3417 252C3417 351 3363 448 3238 448C3122 448 3030 345 3030 220ZM3114 252C3120 401 3204 426 3238 426C3341 426 3351 291 3351 252ZM3478 0C3513 1 3564 3 3591 3C3617 3 3669 1 3703 0L3703 31C3636 31 3625 31 3625 76L3625 260C3625 364 3696 420 3760 420C3823 420 3834 366 3834 309L3834 76C3834 31 3823 31 3756 31L3756 0C3791 1 3842 3 3869 3C3895 3 3947 1 3981 0L3981 31C3914 31 3903 31 3903 76L3903 260C3903 364 3974 420 4038 420C4101 420 4112 366 4112 309L4112 76C4112 31 4101 31 4034 31L4034 0C4069 1 4120 3 4147 3C4173 3 4225 1 4259 0L4259 31C4207 31 4182 31 4181 61L4181 252C4181 338 4181 369 4150 405C4136 422 4103 442 4045 442C3961 442 3917 382 3900 344C3886 431 3812 442 3767 442C3694 442 3647 399 3619 337L3619 442L3478 431L3478 400C3548 400 3556 393 3556 344L3556 76C3556 31 3545 31 3478 31ZM4307 220C4307 86 4412 -11 4527 -11C4649 -11 4694 100 4694 119C4694 129 4686 131 4681 131C4672 131 4670 125 4668 117C4633 14 4543 14 4533 14C4483 14 4443 44 4420 81C4390 129 4390 195 4390 231L4669 231C4691 231 4694 231 4694 252C4694 351 4640 448 4515 448C4399 448 4307 345 4307 220ZM4391 252C4397 401 4481 426 4515 426C4618 426 4628 291 4628 252ZM4755 0C4790 1 4841 3 4868 3C4894 3 4946 1 4980 0L4980 31C4913 31 4902 31 4902 76L4902 260C4902 364 4973 420 5037 420C5100 420 5111 366 5111 309L5111 76C5111 31 5100 31 5033 31L5033 0C5068 1 5119 3 5146 3C5172 3 5224 1 5258 0L5258 31C5206 31 5181 31 5180 61L5180 252C5180 338 5180 369 5149 405C5135 422 5102 442 5044 442C4971 442 4924 399 4896 337L4896 442L4755 431L4755 400C4825 400 4833 393 4833 344L4833 76C4833 31 4822 31 4755 31ZM5269 400L5354 400L5354 124C5354 1 5447 -11 5483 -11C5554 -11 5582 60 5582 124L5582 181L5557 181L5557 126C5557 52 5527 14 5490 14C5423 14 5423 105 5423 122L5423 400L5566 400L5566 431L5423 431L5423 615L5398 615C5397 533 5367 426 5269 422ZM5724 378C5724 349 5748 325 5777 325C5806 325 5830 349 5830 378C5830 407 5806 431 5777 431C5748 431 5724 407 5724 378ZM5724 53C5724 24 5748 0 5777 0C5806 0 5830 24 5830 53C5830 82 5806 106 5777 106C5748 106 5724 82 5724 53ZM6620 320C6620 245 6624 155 6665 79C6708 -2 6781 -22 6830 -22C6884 -22 6960 -1 7004 94C7036 163 7041 241 7041 320C7041 400 7036 480 7001 554C6955 650 6873 666 6831 666C6771 666 6698 640 6657 547C6625 478 6620 400 6620 320ZM6703 332C6703 396 6703 462 6711 516C6730 635 6805 644 6830 644C6863 644 6929 626 6948 527C6958 471 6958 395 6958 332C6958 257 6958 189 6947 125C6932 30 6875 0 6830 0C6791 0 6732 25 6714 121C6703 181 6703 273 6703 332ZM7113 0C7148 1 7199 3 7226 3C7252 3 7304 1 7338 0L7338 31C7271 31 7260 31 7260 76L7260 260C7260 364 7331 420 7395 420C7458 420 7469 366 7469 309L7469 76C7469 31 7458 31 7391 31L7391 0C7426 1 7477 3 7504 3C7530 3 7582 1 7616 0L7616 31C7549 31 7538 31 7538 76L7538 260C7538 364 7609 420 7673 420C7736 420 7747 366 7747 309L7747 76C7747 31 7736 31 7669 31L7669 0C7704 1 7755 3 7782 3C7808 3 7860 1 7894 0L7894 31C7842 31 7817 31 7816 61L7816 252C7816 338 7816 369 7785 405C7771 422 7738 442 7680 442C7596 442 7552 382 7535 344C7521 431 7447 442 7402 442C7329 442 7282 399 7254 337L7254 442L7113 431L7113 400C7183 400 7191 393 7191 344L7191 76C7191 31 7180 31 7113 31Z" stroke="rgb(0,0,0)" stroke-opacity="1" stroke-width="8" fill="rgb(0,0,0)" fill-opacity="1"></path></g></g></g></g><g><g><g><g transform="matrix(1,0,0,1,249.79998779296875,97.30000305175781)"><path transform="matrix(0.015,0,0,-0.015,0,0)" d="M34 215C34 88 132 -11 246 -11C310 -11 355 23 380 55L380 -11L527 0L527 31C457 31 449 38 449 87L449 694L305 683L305 652C375 652 383 645 383 596L383 380C354 416 311 442 257 442C139 442 34 344 34 215ZM117 214C117 251 119 311 148 356C169 387 207 420 261 420C296 420 338 405 369 360C380 343 380 341 380 323L380 118C380 100 380 98 369 81C339 33 294 11 251 11C206 11 170 37 146 75C120 116 117 173 117 214ZM630 616C630 589 652 563 683 563C711 563 736 584 736 616C736 648 711 669 683 669C652 669 630 642 630 616ZM588 0C620 1 674 3 698 3C733 3 768 1 802 0L802 31C736 31 732 36 732 75L732 442L592 431L592 400C657 400 666 394 666 345L666 76C666 31 655 31 588 31ZM865 13C865 -4 865 -11 876 -11C881 -11 882 -10 901 9C903 11 903 13 921 32C965 -10 1010 -11 1031 -11C1146 -11 1192 56 1192 128C1192 181 1162 211 1150 223C1117 255 1078 263 1036 271C980 282 913 295 913 353C913 388 939 429 1025 429C1135 429 1140 339 1142 308C1143 299 1152 299 1154 299C1167 299 1167 304 1167 323L1167 424C1167 441 1167 448 1156 448C1151 448 1149 448 1136 436C1133 432 1123 423 1119 420C1081 448 1040 448 1025 448C903 448 865 381 865 325C865 290 881 262 908 240C940 214 968 208 1040 194C1062 190 1144 174 1144 102C1144 51 1109 11 1031 11C947 11 911 68 892 153C889 166 888 170 878 170C865 170 865 163 865 145ZM1245 400L1330 400L1330 124C1330 1 1423 -11 1459 -11C1530 -11 1558 60 1558 124L1558 181L1533 181L1533 126C1533 52 1503 14 1466 14C1399 14 1399 105 1399 122L1399 400L1542 400L1542 431L1399 431L1399 615L1374 615C1373 533 1343 426 1245 422ZM1656 95C1656 14 1753 -11 1816 -11C1882 -11 1928 29 1947 76C1951 36 1978 -6 2025 -6C2046 -6 2107 8 2107 89L2107 145L2082 145L2082 89C2082 31 2057 25 2046 25C2013 25 2009 70 2009 75L2009 275C2009 317 2009 356 1973 393C1934 432 1884 448 1836 448C1754 448 1685 401 1685 335C1685 305 1705 288 1731 288C1759 288 1777 308 1777 334C1777 346 1772 379 1726 380C1753 415 1802 426 1834 426C1883 426 1940 387 1940 298L1940 261C1889 258 1819 255 1756 225C1681 191 1656 139 1656 95ZM1733 96C1733 151 1775 234 1940 240L1940 140C1940 45 1868 11 1823 11C1774 11 1733 46 1733 96ZM2146 0C2181 1 2232 3 2259 3C2285 3 2337 1 2371 0L2371 31C2304 31 2293 31 2293 76L2293 260C2293 364 2364 420 2428 420C2491 420 2502 366 2502 309L2502 76C2502 31 2491 31 2424 31L2424 0C2459 1 2510 3 2537 3C2563 3 2615 1 2649 0L2649 31C2597 31 2572 31 2571 61L2571 252C2571 338 2571 369 2540 405C2526 422 2493 442 2435 442C2362 442 2315 399 2287 337L2287 442L2146 431L2146 400C2216 400 2224 393 2224 344L2224 76C2224 31 2213 31 2146 31ZM2703 216C2703 88 2802 -11 2918 -11C3052 -11 3084 109 3084 119C3084 129 3074 129 3071 129C3062 129 3060 125 3058 119C3029 26 2964 14 2927 14C2874 14 2786 57 2786 218C2786 381 2868 423 2921 423C2930 423 2993 422 3028 386C2987 383 2981 353 2981 340C2981 314 2999 294 3027 294C3053 294 3073 311 3073 341C3073 409 2997 448 2920 448C2795 448 2703 340 2703 216ZM3141 220C3141 86 3246 -11 3361 -11C3483 -11 3528 100 3528 119C3528 129 3520 131 3515 131C3506 131 3504 125 3502 117C3467 14 3377 14 3367 14C3317 14 3277 44 3254 81C3224 129 3224 195 3224 231L3503 231C3525 231 3528 231 3528 252C3528 351 3474 448 3349 448C3233 448 3141 345 3141 220ZM3225 252C3231 401 3315 426 3349 426C3452 426 3462 291 3462 252ZM3643 378C3643 349 3667 325 3696 325C3725 325 3749 349 3749 378C3749 407 3725 431 3696 431C3667 431 3643 407 3643 378ZM3643 53C3643 24 3667 0 3696 0C3725 0 3749 24 3749 53C3749 82 3725 106 3696 106C3667 106 3643 82 3643 53Z" stroke="rgb(153,0,0)" stroke-opacity="1" stroke-width="8" fill="rgb(153,0,0)" fill-opacity="1"></path></g></g><g><g transform="matrix(1,0,0,1,307.3125,97.30000305175781)"><path transform="matrix(0.015,0,0,-0.015,0,0)" d="" stroke="rgb(0,0,0)" stroke-opacity="1" stroke-width="8" fill="rgb(0,0,0)" fill-opacity="1"></path></g></g></g><g></g><g><g><g transform="matrix(1,0,0,1,249.79998779296875,140.09999084472656)"><path transform="matrix(0.015,0,0,-0.015,0,0)" d="M34 215C34 88 132 -11 246 -11C310 -11 355 23 380 55L380 -11L527 0L527 31C457 31 449 38 449 87L449 694L305 683L305 652C375 652 383 645 383 596L383 380C354 416 311 442 257 442C139 442 34 344 34 215ZM117 214C117 251 119 311 148 356C169 387 207 420 261 420C296 420 338 405 369 360C380 343 380 341 380 323L380 118C380 100 380 98 369 81C339 33 294 11 251 11C206 11 170 37 146 75C120 116 117 173 117 214ZM630 616C630 589 652 563 683 563C711 563 736 584 736 616C736 648 711 669 683 669C652 669 630 642 630 616ZM588 0C620 1 674 3 698 3C733 3 768 1 802 0L802 31C736 31 732 36 732 75L732 442L592 431L592 400C657 400 666 394 666 345L666 76C666 31 655 31 588 31ZM865 13C865 -4 865 -11 876 -11C881 -11 882 -10 901 9C903 11 903 13 921 32C965 -10 1010 -11 1031 -11C1146 -11 1192 56 1192 128C1192 181 1162 211 1150 223C1117 255 1078 263 1036 271C980 282 913 295 913 353C913 388 939 429 1025 429C1135 429 1140 339 1142 308C1143 299 1152 299 1154 299C1167 299 1167 304 1167 323L1167 424C1167 441 1167 448 1156 448C1151 448 1149 448 1136 436C1133 432 1123 423 1119 420C1081 448 1040 448 1025 448C903 448 865 381 865 325C865 290 881 262 908 240C940 214 968 208 1040 194C1062 190 1144 174 1144 102C1144 51 1109 11 1031 11C947 11 911 68 892 153C889 166 888 170 878 170C865 170 865 163 865 145ZM1254 -163L1254 -194C1288 -193 1340 -191 1366 -191C1393 -191 1444 -193 1479 -194L1479 -163C1412 -163 1401 -163 1401 -118L1401 50L1401 59C1406 43 1448 -11 1524 -11C1643 -11 1747 87 1747 216C1747 343 1650 442 1538 442C1460 442 1418 398 1398 376L1398 442L1254 431L1254 400C1325 400 1332 394 1332 350L1332 -118C1332 -163 1321 -163 1254 -163ZM1401 114L1401 337C1430 388 1479 417 1530 417C1603 417 1664 329 1664 216C1664 95 1594 11 1520 11C1480 11 1442 31 1415 72C1401 93 1401 94 1401 114ZM1814 0C1847 1 1900 3 1925 3C1950 3 1999 1 2036 0L2036 31C1969 31 1958 31 1958 76L1958 694L1814 683L1814 652C1884 652 1892 645 1892 596L1892 76C1892 31 1881 31 1814 31ZM2100 95C2100 14 2197 -11 2260 -11C2326 -11 2372 29 2391 76C2395 36 2422 -6 2469 -6C2490 -6 2551 8 2551 89L2551 145L2526 145L2526 89C2526 31 2501 25 2490 25C2457 25 2453 70 2453 75L2453 275C2453 317 2453 356 2417 393C2378 432 2328 448 2280 448C2198 448 2129 401 2129 335C2129 305 2149 288 2175 288C2203 288 2221 308 2221 334C2221 346 2216 379 2170 380C2197 415 2246 426 2278 426C2327 426 2384 387 2384 298L2384 261C2333 258 2263 255 2200 225C2125 191 2100 139 2100 95ZM2177 96C2177 151 2219 234 2384 240L2384 140C2384 45 2312 11 2267 11C2218 11 2177 46 2177 96ZM2592 216C2592 88 2691 -11 2807 -11C2941 -11 2973 109 2973 119C2973 129 2963 129 2960 129C2951 129 2949 125 2947 119C2918 26 2853 14 2816 14C2763 14 2675 57 2675 218C2675 381 2757 423 2810 423C2819 423 2882 422 2917 386C2876 383 2870 353 2870 340C2870 314 2888 294 2916 294C2942 294 2962 311 2962 341C2962 409 2886 448 2809 448C2684 448 2592 340 2592 216ZM3030 220C3030 86 3135 -11 3250 -11C3372 -11 3417 100 3417 119C3417 129 3409 131 3404 131C3395 131 3393 125 3391 117C3356 14 3266 14 3256 14C3206 14 3166 44 3143 81C3113 129 3113 195 3113 231L3392 231C3414 231 3417 231 3417 252C3417 351 3363 448 3238 448C3122 448 3030 345 3030 220ZM3114 252C3120 401 3204 426 3238 426C3341 426 3351 291 3351 252ZM3478 0C3513 1 3564 3 3591 3C3617 3 3669 1 3703 0L3703 31C3636 31 3625 31 3625 76L3625 260C3625 364 3696 420 3760 420C3823 420 3834 366 3834 309L3834 76C3834 31 3823 31 3756 31L3756 0C3791 1 3842 3 3869 3C3895 3 3947 1 3981 0L3981 31C3914 31 3903 31 3903 76L3903 260C3903 364 3974 420 4038 420C4101 420 4112 366 4112 309L4112 76C4112 31 4101 31 4034 31L4034 0C4069 1 4120 3 4147 3C4173 3 4225 1 4259 0L4259 31C4207 31 4182 31 4181 61L4181 252C4181 338 4181 369 4150 405C4136 422 4103 442 4045 442C3961 442 3917 382 3900 344C3886 431 3812 442 3767 442C3694 442 3647 399 3619 337L3619 442L3478 431L3478 400C3548 400 3556 393 3556 344L3556 76C3556 31 3545 31 3478 31ZM4307 220C4307 86 4412 -11 4527 -11C4649 -11 4694 100 4694 119C4694 129 4686 131 4681 131C4672 131 4670 125 4668 117C4633 14 4543 14 4533 14C4483 14 4443 44 4420 81C4390 129 4390 195 4390 231L4669 231C4691 231 4694 231 4694 252C4694 351 4640 448 4515 448C4399 448 4307 345 4307 220ZM4391 252C4397 401 4481 426 4515 426C4618 426 4628 291 4628 252ZM4755 0C4790 1 4841 3 4868 3C4894 3 4946 1 4980 0L4980 31C4913 31 4902 31 4902 76L4902 260C4902 364 4973 420 5037 420C5100 420 5111 366 5111 309L5111 76C5111 31 5100 31 5033 31L5033 0C5068 1 5119 3 5146 3C5172 3 5224 1 5258 0L5258 31C5206 31 5181 31 5180 61L5180 252C5180 338 5180 369 5149 405C5135 422 5102 442 5044 442C4971 442 4924 399 4896 337L4896 442L4755 431L4755 400C4825 400 4833 393 4833 344L4833 76C4833 31 4822 31 4755 31ZM5269 400L5354 400L5354 124C5354 1 5447 -11 5483 -11C5554 -11 5582 60 5582 124L5582 181L5557 181L5557 126C5557 52 5527 14 5490 14C5423 14 5423 105 5423 122L5423 400L5566 400L5566 431L5423 431L5423 615L5398 615C5397 533 5367 426 5269 422ZM5724 378C5724 349 5748 325 5777 325C5806 325 5830 349 5830 378C5830 407 5806 431 5777 431C5748 431 5724 407 5724 378ZM5724 53C5724 24 5748 0 5777 0C5806 0 5830 24 5830 53C5830 82 5806 106 5777 106C5748 106 5724 82 5724 53ZM6620 320C6620 245 6624 155 6665 79C6708 -2 6781 -22 6830 -22C6884 -22 6960 -1 7004 94C7036 163 7041 241 7041 320C7041 400 7036 480 7001 554C6955 650 6873 666 6831 666C6771 666 6698 640 6657 547C6625 478 6620 400 6620 320ZM6703 332C6703 396 6703 462 6711 516C6730 635 6805 644 6830 644C6863 644 6929 626 6948 527C6958 471 6958 395 6958 332C6958 257 6958 189 6947 125C6932 30 6875 0 6830 0C6791 0 6732 25 6714 121C6703 181 6703 273 6703 332ZM7113 0C7148 1 7199 3 7226 3C7252 3 7304 1 7338 0L7338 31C7271 31 7260 31 7260 76L7260 260C7260 364 7331 420 7395 420C7458 420 7469 366 7469 309L7469 76C7469 31 7458 31 7391 31L7391 0C7426 1 7477 3 7504 3C7530 3 7582 1 7616 0L7616 31C7549 31 7538 31 7538 76L7538 260C7538 364 7609 420 7673 420C7736 420 7747 366 7747 309L7747 76C7747 31 7736 31 7669 31L7669 0C7704 1 7755 3 7782 3C7808 3 7860 1 7894 0L7894 31C7842 31 7817 31 7816 61L7816 252C7816 338 7816 369 7785 405C7771 422 7738 442 7680 442C7596 442 7552 382 7535 344C7521 431 7447 442 7402 442C7329 442 7282 399 7254 337L7254 442L7113 431L7113 400C7183 400 7191 393 7191 344L7191 76C7191 31 7180 31 7113 31ZM7971 -236C7971 -242 7974 -248 7980 -248C7988 -248 7991 -243 7999 -221L8353 723C8354 727 8356 732 8356 736C8356 744 8350 748 8346 748C8335 748 8331 730 8328 723L7975 -220C7971 -231 7971 -233 7971 -236ZM8447 13C8447 -4 8447 -11 8458 -11C8463 -11 8464 -10 8483 9C8485 11 8485 13 8503 32C8547 -10 8592 -11 8613 -11C8728 -11 8774 56 8774 128C8774 181 8744 211 8732 223C8699 255 8660 263 8618 271C8562 282 8495 295 8495 353C8495 388 8521 429 8607 429C8717 429 8722 339 8724 308C8725 299 8734 299 8736 299C8749 299 8749 304 8749 323L8749 424C8749 441 8749 448 8738 448C8733 448 8731 448 8718 436C8715 432 8705 423 8701 420C8663 448 8622 448 8607 448C8485 448 8447 381 8447 325C8447 290 8463 262 8490 240C8522 214 8550 208 8622 194C8644 190 8726 174 8726 102C8726 51 8691 11 8613 11C8529 11 8493 68 8474 153C8471 166 8470 170 8460 170C8447 170 8447 163 8447 145Z" stroke="rgb(0,0,0)" stroke-opacity="1" stroke-width="8" fill="rgb(0,0,0)" fill-opacity="1"></path></g></g></g></g><g><g><g><g transform="matrix(1,0,0,1,29.1875,99.48750305175781)"><path transform="matrix(0.015,0,0,-0.015,0,0)" d="M89 571C109 571 168 571 220 597L220 79C220 43 217 31 127 31L95 31L95 0C130 3 217 3 257 3C297 3 384 3 419 0L419 31L387 31C297 31 294 42 294 79L294 640C294 664 294 666 271 666C209 602 121 602 89 602ZM585 53C585 26 607 0 638 0C664 0 690 22 690 53C690 84 666 105 638 105C607 105 585 80 585 53ZM817 320C817 245 821 155 862 79C905 -2 978 -22 1027 -22C1081 -22 1157 -1 1201 94C1233 163 1238 241 1238 320C1238 400 1233 480 1198 554C1152 650 1070 666 1028 666C968 666 895 640 854 547C822 478 817 400 817 320ZM900 332C900 396 900 462 908 516C927 635 1002 644 1027 644C1060 644 1126 626 1145 527C1155 471 1155 395 1155 332C1155 257 1155 189 1144 125C1129 30 1072 0 1027 0C988 0 929 25 911 121C900 181 900 273 900 332ZM1317 320C1317 245 1321 155 1362 79C1405 -2 1478 -22 1527 -22C1581 -22 1657 -1 1701 94C1733 163 1738 241 1738 320C1738 400 1733 480 1698 554C1652 650 1570 666 1528 666C1468 666 1395 640 1354 547C1322 478 1317 400 1317 320ZM1400 332C1400 396 1400 462 1408 516C1427 635 1502 644 1527 644C1560 644 1626 626 1645 527C1655 471 1655 395 1655 332C1655 257 1655 189 1644 125C1629 30 1572 0 1527 0C1488 0 1429 25 1411 121C1400 181 1400 273 1400 332ZM1811 13C1811 -4 1811 -11 1822 -11C1827 -11 1828 -10 1847 9C1849 11 1849 13 1867 32C1911 -10 1956 -11 1977 -11C2092 -11 2138 56 2138 128C2138 181 2108 211 2096 223C2063 255 2024 263 1982 271C1926 282 1859 295 1859 353C1859 388 1885 429 1971 429C2081 429 2086 339 2088 308C2089 299 2098 299 2100 299C2113 299 2113 304 2113 323L2113 424C2113 441 2113 448 2102 448C2097 448 2095 448 2082 436C2079 432 2069 423 2065 420C2027 448 1986 448 1971 448C1849 448 1811 381 1811 325C1811 290 1827 262 1854 240C1886 214 1914 208 1986 194C2008 190 2090 174 2090 102C2090 51 2055 11 1977 11C1893 11 1857 68 1838 153C1835 166 1834 170 1824 170C1811 170 1811 163 1811 145Z" stroke="rgb(153,0,0)" stroke-opacity="1" stroke-width="8" fill="rgb(153,0,0)" fill-opacity="1"></path></g></g></g></g><g><g><g><g><g><g><g transform="matrix(1,0,0,1,317.6500244140625,89.59998474121093)"><path transform="matrix(0.0136,0,0,-0.0136,0,0)" d="M131 331C152 512 241 611 421 665L379 689C283 657 242 637 191 593C88 506 32 384 32 247C32 82 112 -20 241 -20C371 -20 468 83 468 219C468 334 399 409 293 409C216 409 184 370 131 331ZM255 349C331 349 382 283 382 184C382 80 331 13 254 13C169 13 123 86 123 220C123 255 127 274 138 291C160 325 207 349 255 349ZM623 111C593 111 566 83 566 53C566 23 593 -5 622 -5C654 -5 682 22 682 53C682 83 654 111 623 111ZM764 23L764 -3C951 -3 951 0 987 0C1023 0 1023 -3 1216 -3L1216 82C1101 77 1055 81 870 77L1052 270C1149 373 1179 428 1179 503C1179 618 1101 689 974 689C902 689 853 669 804 619L787 483L816 483L829 529C845 587 881 612 948 612C1034 612 1089 558 1089 473C1089 398 1047 324 934 204ZM1415 345C1374 326 1357 315 1335 294C1297 256 1277 211 1277 159C1277 56 1360 -20 1473 -20C1603 -20 1711 82 1711 206C1711 286 1674 329 1560 381C1651 443 1683 485 1683 545C1683 631 1612 689 1506 689C1387 689 1300 613 1300 508C1300 440 1327 402 1415 345ZM1531 295C1594 267 1632 218 1632 164C1632 80 1569 14 1488 14C1403 14 1348 74 1348 167C1348 240 1377 286 1451 331ZM1470 423C1407 454 1375 494 1375 544C1375 610 1423 655 1494 655C1567 655 1615 607 1615 534C1615 477 1590 438 1525 396ZM2476 103L2450 86C2421 67 2399 56 2389 56C2382 56 2376 65 2376 76C2376 86 2378 95 2383 116L2458 413C2462 430 2465 446 2465 454C2465 471 2455 482 2439 482C2410 482 2372 464 2311 421C2248 376 2213 341 2164 272L2194 409C2198 429 2201 444 2201 451C2201 470 2191 482 2175 482C2145 482 2099 460 2044 418C2000 384 1980 363 1915 275L1948 408C1952 424 1954 439 1954 451C1954 470 1945 482 1931 482C1910 482 1872 461 1798 408L1770 388L1777 368C1814 391 1849 414 1856 414C1867 414 1874 404 1874 389C1874 338 1833 145 1792 2L1795 -9L1863 6L1885 108C1909 219 1936 278 1991 338C2033 384 2078 414 2106 414C2113 414 2117 406 2117 393C2117 358 2095 244 2054 69L2038 2L2043 -9L2112 6L2133 113C2149 194 2183 269 2227 318C2282 379 2332 414 2364 414C2372 414 2377 405 2377 389C2377 365 2374 351 2352 264C2312 105 2296 84 2296 31C2296 6 2307 -9 2326 -9C2352 -9 2388 12 2486 85Z" stroke="rgb(153,0,0)" stroke-opacity="1" stroke-width="8" fill="rgb(153,0,0)" fill-opacity="1"></path></g></g></g></g><g><g><g><g transform="matrix(1,0,0,1,320.29998779296875,109.22498474121093)"><path transform="matrix(0.0136,0,0,-0.0136,0,0)" d="M418 -3L418 27L366 30C311 33 301 44 301 96L301 700L60 598L67 548L217 614L217 96C217 44 206 33 152 30L96 27L96 -3C250 0 250 0 261 0C292 0 402 -3 418 -3ZM623 111C593 111 566 83 566 53C566 23 593 -5 622 -5C654 -5 682 22 682 53C682 83 654 111 623 111ZM1011 689C856 689 777 566 777 324C777 207 798 106 833 57C868 8 924 -20 986 -20C1137 -20 1213 110 1213 366C1213 585 1148 689 1011 689ZM993 654C1090 654 1129 556 1129 316C1129 103 1091 15 999 15C902 15 861 116 861 360C861 571 898 654 993 654ZM1510 689C1355 689 1276 566 1276 324C1276 207 1297 106 1332 57C1367 8 1423 -20 1485 -20C1636 -20 1712 110 1712 366C1712 585 1647 689 1510 689ZM1492 654C1589 654 1628 556 1628 316C1628 103 1590 15 1498 15C1401 15 1360 116 1360 360C1360 571 1397 654 1492 654ZM1777 148C1772 97 1766 62 1755 16C1793 -2 1827 -11 1862 -11C1911 -11 1957 7 2008 47C2059 87 2080 124 2080 174C2080 228 2048 257 1974 271L1931 279C1871 290 1852 307 1852 348C1852 401 1897 442 1954 442C1995 442 2033 424 2049 397L2049 342L2072 342C2076 377 2080 404 2091 455C2052 474 2024 482 1991 482C1939 482 1878 452 1830 404C1804 377 1793 352 1793 316C1793 260 1824 228 1890 215L1953 203C1997 195 2013 177 2013 138C2013 73 1967 29 1896 29C1861 29 1830 40 1802 64L1802 148Z" stroke="rgb(153,0,0)" stroke-opacity="1" stroke-width="8" fill="rgb(153,0,0)" fill-opacity="1"></path></g></g></g></g><line style="fill:none;stroke-width:0.8px;stroke:rgb(153, 0, 0);" x1="317.6500244140625" y1="95.51250916719437" x2="351.97502517700195" y2="95.51250916719437"></line></g><g><g transform="matrix(1,0,0,1,357.4000244140625,98.91248474121093)"><path transform="matrix(0.0136,0,0,-0.0136,0,0)" d="M604 347L604 406L65 406L65 347ZM604 134L604 193L65 193L65 134Z" stroke="rgb(153,0,0)" stroke-opacity="1" stroke-width="8" fill="rgb(153,0,0)" fill-opacity="1"></path></g></g><g><g transform="matrix(1,0,0,1,370.5625,98.91248474121093)"><path transform="matrix(0.0136,0,0,-0.0136,0,0)" d="M131 331C152 512 241 611 421 665L379 689C283 657 242 637 191 593C88 506 32 384 32 247C32 82 112 -20 241 -20C371 -20 468 83 468 219C468 334 399 409 293 409C216 409 184 370 131 331ZM255 349C331 349 382 283 382 184C382 80 331 13 254 13C169 13 123 86 123 220C123 255 127 274 138 291C160 325 207 349 255 349ZM623 111C593 111 566 83 566 53C566 23 593 -5 622 -5C654 -5 682 22 682 53C682 83 654 111 623 111ZM764 23L764 -3C951 -3 951 0 987 0C1023 0 1023 -3 1216 -3L1216 82C1101 77 1055 81 870 77L1052 270C1149 373 1179 428 1179 503C1179 618 1101 689 974 689C902 689 853 669 804 619L787 483L816 483L829 529C845 587 881 612 948 612C1034 612 1089 558 1089 473C1089 398 1047 324 934 204ZM1415 345C1374 326 1357 315 1335 294C1297 256 1277 211 1277 159C1277 56 1360 -20 1473 -20C1603 -20 1711 82 1711 206C1711 286 1674 329 1560 381C1651 443 1683 485 1683 545C1683 631 1612 689 1506 689C1387 689 1300 613 1300 508C1300 440 1327 402 1415 345ZM1531 295C1594 267 1632 218 1632 164C1632 80 1569 14 1488 14C1403 14 1348 74 1348 167C1348 240 1377 286 1451 331ZM1470 423C1407 454 1375 494 1375 544C1375 610 1423 655 1494 655C1567 655 1615 607 1615 534C1615 477 1590 438 1525 396ZM2476 103L2450 86C2421 67 2399 56 2389 56C2382 56 2376 65 2376 76C2376 86 2378 95 2383 116L2458 413C2462 430 2465 446 2465 454C2465 471 2455 482 2439 482C2410 482 2372 464 2311 421C2248 376 2213 341 2164 272L2194 409C2198 429 2201 444 2201 451C2201 470 2191 482 2175 482C2145 482 2099 460 2044 418C2000 384 1980 363 1915 275L1948 408C1952 424 1954 439 1954 451C1954 470 1945 482 1931 482C1910 482 1872 461 1798 408L1770 388L1777 368C1814 391 1849 414 1856 414C1867 414 1874 404 1874 389C1874 338 1833 145 1792 2L1795 -9L1863 6L1885 108C1909 219 1936 278 1991 338C2033 384 2078 414 2106 414C2113 414 2117 406 2117 393C2117 358 2095 244 2054 69L2038 2L2043 -9L2112 6L2133 113C2149 194 2183 269 2227 318C2282 379 2332 414 2364 414C2372 414 2377 405 2377 389C2377 365 2374 351 2352 264C2312 105 2296 84 2296 31C2296 6 2307 -9 2326 -9C2352 -9 2388 12 2486 85Z" stroke="rgb(153,0,0)" stroke-opacity="1" stroke-width="8" fill="rgb(153,0,0)" fill-opacity="1"></path></g></g><g><g transform="matrix(1,0,0,1,407.5999755859375,98.91248474121093)"><path transform="matrix(0.0136,0,0,-0.0136,0,0)" d="M297 714L242 714L-37 -169L18 -169Z" stroke="rgb(153,0,0)" stroke-opacity="1" stroke-width="8" fill="rgb(153,0,0)" fill-opacity="1"></path></g></g><g><g transform="matrix(1,0,0,1,414.2125244140625,98.91248474121093)"><path transform="matrix(0.0136,0,0,-0.0136,0,0)" d="M31 148C26 97 20 62 9 16C47 -2 81 -11 116 -11C165 -11 211 7 262 47C313 87 334 124 334 174C334 228 302 257 228 271L185 279C125 290 106 307 106 348C106 401 151 442 208 442C249 442 287 424 303 397L303 342L326 342C330 377 334 404 345 455C306 474 278 482 245 482C193 482 132 452 84 404C58 377 47 352 47 316C47 260 78 228 144 215L207 203C251 195 267 177 267 138C267 73 221 29 150 29C115 29 84 40 56 64L56 148Z" stroke="rgb(153,0,0)" stroke-opacity="1" stroke-width="8" fill="rgb(153,0,0)" fill-opacity="1"></path></g></g></g></g></svg>
</svg>
