<svg xmlns="http://www.w3.org/2000/svg" width="435.6" height="199.2" style="width:435.6000061035156px;height:199.1999969482422px;background:#fff;fill:none"><svg xmlns="http://www.w3.org/2000/svg"/><svg xmlns="http://www.w3.org/2000/svg" class="role-diagram-draw-area"><g class="shapes-region" style="stroke:#000;fill:none"><g class="grouped-shape"><g class="composite-shape"><path stroke="none" d="M112.4 189.8c-51.03 0-92.4-41.37-92.4-92.4S61.37 5 112.4 5v92.4Z" class="real" style="stroke-width:1;stroke:none;stroke-opacity:1;fill:none;fill-opacity:1"/><path d="M112.4 189.8c-51.03 0-92.4-41.37-92.4-92.4 0-50.27 40.14-91.16 90.11-92.37" class="real" style="stroke-width:1;stroke:#900;stroke-opacity:1;fill:none;fill-opacity:1"/><path fill="#900" stroke="none" d="M10.72-5.15 0 0l10.72 5.15L7.12 0Z" style="stroke:none;fill:#900;stroke-width:1" transform="rotate(176.29 56.119 4.32)"/></g><g class="composite-shape"><path stroke="none" d="M112.4 5c51.03 0 92.4 41.37 92.4 92.4s-41.37 92.4-92.4 92.4V97.4Z" class="real" style="stroke-width:1;stroke:none;stroke-opacity:1;fill:none;fill-opacity:1"/><path d="M112.4 5c51.03 0 92.4 41.37 92.4 92.4 0 50.27-40.14 91.16-90.11 92.37" class="real" style="stroke-width:1;stroke:#900;stroke-opacity:1;fill:none;fill-opacity:1"/><path fill="#900" stroke="none" d="M10.72-5.15 0 0l10.72 5.15L7.12 0Z" style="stroke:none;fill:#900;stroke-width:1" transform="rotate(-3.71 2986.372 -1640.355)"/></g><g class="arrow-line"><path stroke-dasharray="3" d="M8 189.8h104.4" class="connection real" style="stroke:#000;stroke-width:1;fill:none;fill-opacity:1"/></g><g class="arrow-line"><path stroke-dasharray="3" d="M112.4 97.4V5" class="connection real" style="stroke:#900;stroke-opacity:1;stroke-width:1;fill:none;fill-opacity:1"/></g></g></g></svg><svg xmlns="http://www.w3.org/2000/svg" xmlns:xlink="http://www.w3.org/1999/xlink" width="434" height="197.6" style="width:434px;height:197.60000610351562px;font-family:Asana-Math,Asana;background:#fff"><path fill="#900" stroke="#900" stroke-width=".12" d="M120.635 53.235c.3 0 1.185 0 1.965-.39v7.77c0 .54-.045.72-1.395.72h-.48v.465c.525-.045 1.83-.045 2.43-.045s1.905 0 2.43.045v-.465h-.48c-1.35 0-1.395-.165-1.395-.72V52.2c0-.36 0-.39-.345-.39-.93.96-2.25.96-2.73.96Zm7.44 7.77a.8.8 0 0 0 .795.795c.39 0 .78-.33.78-.795s-.36-.78-.78-.78a.787.787 0 0 0-.795.78Zm3.48-4.005c0 1.125.06 2.475.675 3.615a2.75 2.75 0 0 0 2.475 1.515c.81 0 1.95-.315 2.61-1.74.48-1.035.555-2.205.555-3.39 0-1.2-.075-2.4-.6-3.51-.69-1.44-1.92-1.68-2.55-1.68-.9 0-1.995.39-2.61 1.785-.48 1.035-.555 2.205-.555 3.405Zm1.245-.18c0-.96 0-1.95.12-2.76.285-1.785 1.41-1.92 1.785-1.92.495 0 1.485.27 1.77 1.755.15.84.15 1.98.15 2.925 0 1.125 0 2.145-.165 3.105-.225 1.425-1.08 1.875-1.755 1.875-.585 0-1.47-.375-1.74-1.815-.165-.9-.165-2.28-.165-3.165Zm6.255.18c0 1.125.06 2.475.675 3.615a2.75 2.75 0 0 0 2.475 1.515c.81 0 1.95-.315 2.61-1.74.48-1.035.555-2.205.555-3.39 0-1.2-.075-2.4-.6-3.51-.69-1.44-1.92-1.68-2.55-1.68-.9 0-1.995.39-2.61 1.785-.48 1.035-.555 2.205-.555 3.405Zm1.245-.18c0-.96 0-1.95.12-2.76.285-1.785 1.41-1.92 1.785-1.92.495 0 1.485.27 1.77 1.755.15.84.15 1.98.15 2.925 0 1.125 0 2.145-.165 3.105-.225 1.425-1.08 1.875-1.755 1.875-.585 0-1.47-.375-1.74-1.815-.165-.9-.165-2.28-.165-3.165Zm6.15 4.98c.525-.015 1.29-.045 1.695-.045.39 0 1.17.03 1.68.045v-.465c-1.005 0-1.17 0-1.17-.675V57.9c0-1.56 1.065-2.4 2.025-2.4.945 0 1.11.81 1.11 1.665v3.495c0 .675-.165.675-1.17.675v.465c.525-.015 1.29-.045 1.695-.045.39 0 1.17.03 1.68.045v-.465c-1.005 0-1.17 0-1.17-.675V57.9c0-1.56 1.065-2.4 2.025-2.4.945 0 1.11.81 1.11 1.665v3.495c0 .675-.165.675-1.17.675v.465c.525-.015 1.29-.045 1.695-.045.39 0 1.17.03 1.68.045v-.465c-.78 0-1.155 0-1.17-.45V58.02c0-1.29 0-1.755-.465-2.295-.21-.255-.705-.555-1.575-.555-1.26 0-1.92.9-2.175 1.47-.21-1.305-1.32-1.47-1.995-1.47-1.095 0-1.8.645-2.22 1.575V55.17l-2.115.165v.465c1.05 0 1.17.105 1.17.84v4.02c0 .675-.165.675-1.17.675Zm104.36-41.238c0 1.905 1.47 3.39 3.18 3.39.96 0 1.635-.51 2.01-.99v.99l2.205-.165v-.465c-1.05 0-1.17-.105-1.17-.84v-9.105l-2.16.165v.465c1.05 0 1.17.105 1.17.84v3.24c-.435-.54-1.08-.93-1.89-.93-1.77 0-3.345 1.47-3.345 3.405Zm1.245.015c0-.555.03-1.455.465-2.13.315-.465.885-.96 1.695-.96.525 0 1.155.225 1.62.9.165.255.165.285.165.555v3.075c0 .27 0 .3-.165.555-.45.72-1.125 1.05-1.77 1.05-.675 0-1.215-.39-1.575-.96-.39-.615-.435-1.47-.435-2.085Zm7.695-6.03a.8.8 0 0 0 .795.795c.42 0 .795-.315.795-.795a.78.78 0 0 0-.795-.795c-.465 0-.795.405-.795.795Zm-.63 9.24c.48-.015 1.29-.045 1.65-.045.525 0 1.05.03 1.56.045v-.465c-.99 0-1.05-.075-1.05-.66v-5.505l-2.1.165v.465c.975 0 1.11.09 1.11.825v4.035c0 .675-.165.675-1.17.675Zm4.155-.195c0 .255 0 .36.165.36.075 0 .09-.015.375-.3.03-.03.03-.06.3-.345.66.63 1.335.645 1.65.645 1.725 0 2.415-1.005 2.415-2.085 0-.795-.45-1.245-.63-1.425-.495-.48-1.08-.6-1.71-.72-.84-.165-1.845-.36-1.845-1.23 0-.525.39-1.14 1.68-1.14 1.65 0 1.725 1.35 1.755 1.815.015.135.15.135.18.135.195 0 .195-.075.195-.36v-1.515c0-.255 0-.36-.165-.36-.075 0-.105 0-.3.18-.045.06-.195.195-.255.24-.57-.42-1.185-.42-1.41-.42-1.83 0-2.4 1.005-2.4 1.845 0 .525.24.945.645 1.275.48.39.9.48 1.98.69.33.06 1.56.3 1.56 1.38 0 .765-.525 1.365-1.695 1.365-1.26 0-1.8-.855-2.085-2.13-.045-.195-.06-.255-.21-.255-.195 0-.195.105-.195.375Zm5.7-5.805h1.275v4.14c0 1.845 1.395 2.025 1.935 2.025 1.065 0 1.485-1.065 1.485-2.025v-.855h-.375v.825c0 1.11-.45 1.68-1.005 1.68-1.005 0-1.005-1.365-1.005-1.62v-4.17h2.145v-.465h-2.145v-2.76h-.375c-.015 1.23-.465 2.835-1.935 2.895Zm6.165 4.575c0 1.215 1.455 1.59 2.4 1.59.99 0 1.68-.6 1.965-1.305.06.6.465 1.23 1.17 1.23.315 0 1.23-.21 1.23-1.425v-.84h-.375v.84c0 .87-.375.96-.54.96-.495 0-.555-.675-.555-.75v-3c0-.63 0-1.215-.54-1.77-.585-.585-1.335-.825-2.055-.825-1.23 0-2.265.705-2.265 1.695 0 .45.3.705.69.705.42 0 .69-.3.69-.69 0-.18-.075-.675-.765-.69.405-.525 1.14-.69 1.62-.69.735 0 1.59.585 1.59 1.92v.555c-.765.045-1.815.09-2.76.54-1.125.51-1.5 1.29-1.5 1.95Zm1.155-.015c0-.825.63-2.07 3.105-2.16v1.5c0 1.425-1.08 1.935-1.755 1.935-.735 0-1.35-.525-1.35-1.275Zm6.195 1.44c.525-.015 1.29-.045 1.695-.045.39 0 1.17.03 1.68.045v-.465c-1.005 0-1.17 0-1.17-.675v-2.76c0-1.56 1.065-2.4 2.025-2.4.945 0 1.11.81 1.11 1.665v3.495c0 .675-.165.675-1.17.675v.465c.525-.015 1.29-.045 1.695-.045.39 0 1.17.03 1.68.045v-.465c-.78 0-1.155 0-1.17-.45v-2.865c0-1.29 0-1.755-.465-2.295-.21-.255-.705-.555-1.575-.555-1.095 0-1.8.645-2.22 1.575v-1.575l-2.115.165v.465c1.05 0 1.17.105 1.17.84v4.02c0 .675-.165.675-1.17.675Zm8.355-3.24c0 1.92 1.485 3.405 3.225 3.405 2.01 0 2.49-1.8 2.49-1.95s-.15-.15-.195-.15c-.135 0-.165.06-.195.15-.435 1.395-1.41 1.575-1.965 1.575-.795 0-2.115-.645-2.115-3.06 0-2.445 1.23-3.075 2.025-3.075.135 0 1.08.015 1.605.555-.615.045-.705.495-.705.69 0 .39.27.69.69.69.39 0 .69-.255.69-.705 0-1.02-1.14-1.605-2.295-1.605-1.875 0-3.255 1.62-3.255 3.48Zm6.57-.06c0 2.01 1.575 3.465 3.3 3.465 1.83 0 2.505-1.665 2.505-1.95 0-.15-.12-.18-.195-.18-.135 0-.165.09-.195.21-.525 1.545-1.875 1.545-2.025 1.545-.75 0-1.35-.45-1.695-1.005-.45-.72-.45-1.71-.45-2.25h4.185c.33 0 .375 0 .375-.315 0-1.485-.81-2.94-2.685-2.94-1.74 0-3.12 1.545-3.12 3.42Zm1.26-.48c.09-2.235 1.35-2.61 1.86-2.61 1.545 0 1.695 2.025 1.695 2.61Zm6.27-1.89a.8.8 0 0 0 .795.795.8.8 0 0 0 .795-.795.8.8 0 0 0-.795-.795.8.8 0 0 0-.795.795Zm0 4.875a.8.8 0 0 0 .795.795.8.8 0 0 0 .795-.795.8.8 0 0 0-.795-.795.8.8 0 0 0-.795.795Zm43.455-3.945c0 4.005 1.74 5.07 3.135 5.07 1.665 0 3.09-1.41 3.09-3.39 0-1.905-1.335-3.345-3-3.345-1.02 0-1.575.765-1.875 1.485v-.36c0-3.795 1.86-4.335 2.625-4.335.36 0 .99.09 1.32.6-.225 0-.825 0-.825.675 0 .465.36.69.69.69.24 0 .69-.135.69-.72 0-.9-.66-1.62-1.905-1.62-1.92 0-3.945 1.935-3.945 5.25Zm1.38 1.35c0-1.17.48-2.67 1.83-2.67.24 0 .93 0 1.395.93.27.555.27 1.32.27 2.055 0 .72 0 1.47-.255 2.01-.45.9-1.14.975-1.485.975-.945 0-1.395-.9-1.485-1.125-.27-.705-.27-1.905-.27-2.175Zm6.765 2.595a.8.8 0 0 0 .795.795c.39 0 .78-.33.78-.795s-.36-.78-.78-.78a.787.787 0 0 0-.795.78Zm3.645.795h5.565l.42-2.61h-.375c-.075.45-.18 1.11-.33 1.335-.105.12-1.095.12-1.425.12h-2.7l1.59-1.545c2.34-2.07 3.24-2.88 3.24-4.38 0-1.71-1.35-2.91-3.18-2.91-1.695 0-2.805 1.38-2.805 2.715 0 .84.75.84.795.84.255 0 .78-.18.78-.795 0-.39-.27-.78-.795-.78-.12 0-.15 0-.195.015.345-.975 1.155-1.53 2.025-1.53 1.365 0 2.01 1.215 2.01 2.445 0 1.2-.75 2.385-1.575 3.315l-2.88 3.21c-.165.165-.165.195-.165.555Zm7.38-2.265c0 1.59 1.53 2.595 3.105 2.595 1.695 0 3.12-1.245 3.12-2.85 0-.54-.165-1.215-.735-1.845-.285-.315-.525-.465-1.485-1.065 1.08-.555 1.815-1.335 1.815-2.325 0-1.38-1.335-2.235-2.7-2.235-1.5 0-2.715 1.11-2.715 2.505 0 .27.03.945.66 1.65.165.18.72.555 1.095.81-.87.435-2.16 1.275-2.16 2.76Zm.75 0c0-.87.48-1.83 1.755-2.535l1.845 1.17c.42.285 1.125.735 1.125 1.65 0 1.11-1.125 1.89-2.355 1.89-1.29 0-2.37-.93-2.37-2.175Zm.315-5.805c0-.915.975-1.545 2.04-1.545 1.095 0 2.055.78 2.055 1.86 0 .855-.585 1.575-1.485 2.1l-1.86-1.2c-.69-.45-.75-.96-.75-1.215Zm6.285 8.07c.525-.015 1.29-.045 1.695-.045.39 0 1.17.03 1.68.045v-.465c-1.005 0-1.17 0-1.17-.675v-2.76c0-1.56 1.065-2.4 2.025-2.4.945 0 1.11.81 1.11 1.665v3.495c0 .675-.165.675-1.17.675v.465c.525-.015 1.29-.045 1.695-.045.39 0 1.17.03 1.68.045v-.465c-1.005 0-1.17 0-1.17-.675v-2.76c0-1.56 1.065-2.4 2.025-2.4.945 0 1.11.81 1.11 1.665v3.495c0 .675-.165.675-1.17.675v.465c.525-.015 1.29-.045 1.695-.045.39 0 1.17.03 1.68.045v-.465c-.78 0-1.155 0-1.17-.45v-2.865c0-1.29 0-1.755-.465-2.295-.21-.255-.705-.555-1.575-.555-1.26 0-1.92.9-2.175 1.47-.21-1.305-1.32-1.47-1.995-1.47-1.095 0-1.8.645-2.22 1.575v-1.575l-2.115.165v.465c1.05 0 1.17.105 1.17.84v4.02c0 .675-.165.675-1.17.675Z"/><path fill="#000" stroke="#000" stroke-width=".12" d="M250.81 42.362c0 1.905 1.47 3.39 3.18 3.39.96 0 1.635-.51 2.01-.99v.99l2.205-.165v-.465c-1.05 0-1.17-.105-1.17-.84v-9.105l-2.16.165v.465c1.05 0 1.17.105 1.17.84v3.24c-.435-.54-1.08-.93-1.89-.93-1.77 0-3.345 1.47-3.345 3.405Zm1.245.015c0-.555.03-1.455.465-2.13.315-.465.885-.96 1.695-.96.525 0 1.155.225 1.62.9.165.255.165.285.165.555v3.075c0 .27 0 .3-.165.555-.45.72-1.125 1.05-1.77 1.05-.675 0-1.215-.39-1.575-.96-.39-.615-.435-1.47-.435-2.085Zm7.695-6.03a.8.8 0 0 0 .795.795c.42 0 .795-.315.795-.795a.78.78 0 0 0-.795-.795c-.465 0-.795.405-.795.795Zm-.63 9.24c.48-.015 1.29-.045 1.65-.045.525 0 1.05.03 1.56.045v-.465c-.99 0-1.05-.075-1.05-.66v-5.505l-2.1.165v.465c.975 0 1.11.09 1.11.825v4.035c0 .675-.165.675-1.17.675Zm4.155-.195c0 .255 0 .36.165.36.075 0 .09-.015.375-.3.03-.03.03-.06.3-.345.66.63 1.335.645 1.65.645 1.725 0 2.415-1.005 2.415-2.085 0-.795-.45-1.245-.63-1.425-.495-.48-1.08-.6-1.71-.72-.84-.165-1.845-.36-1.845-1.23 0-.525.39-1.14 1.68-1.14 1.65 0 1.725 1.35 1.755 1.815.015.135.15.135.18.135.195 0 .195-.075.195-.36v-1.515c0-.255 0-.36-.165-.36-.075 0-.105 0-.3.18-.045.06-.195.195-.255.24-.57-.42-1.185-.42-1.41-.42-1.83 0-2.4 1.005-2.4 1.845 0 .525.24.945.645 1.275.48.39.9.48 1.98.69.33.06 1.56.3 1.56 1.38 0 .765-.525 1.365-1.695 1.365-1.26 0-1.8-.855-2.085-2.13-.045-.195-.06-.255-.21-.255-.195 0-.195.105-.195.375Zm5.835 2.64v.465c.51-.015 1.29-.045 1.68-.045.405 0 1.17.03 1.695.045v-.465c-1.005 0-1.17 0-1.17-.675v-2.655c.075.24.705 1.05 1.845 1.05 1.785 0 3.345-1.47 3.345-3.405 0-1.905-1.455-3.39-3.135-3.39-1.17 0-1.8.66-2.1.99v-.99l-2.16.165v.465c1.065 0 1.17.09 1.17.75v7.02c0 .675-.165.675-1.17.675Zm2.205-4.155v-3.345c.435-.765 1.17-1.2 1.935-1.2 1.095 0 2.01 1.32 2.01 3.015 0 1.815-1.05 3.075-2.16 3.075-.6 0-1.17-.3-1.575-.915-.21-.315-.21-.33-.21-.63Zm6.195 1.71c.495-.015 1.29-.045 1.665-.045s1.11.03 1.665.045v-.465c-1.005 0-1.17 0-1.17-.675v-9.27l-2.16.165v.465c1.05 0 1.17.105 1.17.84v7.8c0 .675-.165.675-1.17.675Zm4.29-1.425c0 1.215 1.455 1.59 2.4 1.59.99 0 1.68-.6 1.965-1.305.06.6.465 1.23 1.17 1.23.315 0 1.23-.21 1.23-1.425v-.84h-.375v.84c0 .87-.375.96-.54.96-.495 0-.555-.675-.555-.75v-3c0-.63 0-1.215-.54-1.77-.585-.585-1.335-.825-2.055-.825-1.23 0-2.265.705-2.265 1.695 0 .45.3.705.69.705.42 0 .69-.3.69-.69 0-.18-.075-.675-.765-.69.405-.525 1.14-.69 1.62-.69.735 0 1.59.585 1.59 1.92v.555c-.765.045-1.815.09-2.76.54-1.125.51-1.5 1.29-1.5 1.95Zm1.155-.015c0-.825.63-2.07 3.105-2.16v1.5c0 1.425-1.08 1.935-1.755 1.935-.735 0-1.35-.525-1.35-1.275Zm6.225-1.8c0 1.92 1.485 3.405 3.225 3.405 2.01 0 2.49-1.8 2.49-1.95s-.15-.15-.195-.15c-.135 0-.165.06-.195.15-.435 1.395-1.41 1.575-1.965 1.575-.795 0-2.115-.645-2.115-3.06 0-2.445 1.23-3.075 2.025-3.075.135 0 1.08.015 1.605.555-.615.045-.705.495-.705.69 0 .39.27.69.69.69.39 0 .69-.255.69-.705 0-1.02-1.14-1.605-2.295-1.605-1.875 0-3.255 1.62-3.255 3.48Zm6.57-.06c0 2.01 1.575 3.465 3.3 3.465 1.83 0 2.505-1.665 2.505-1.95 0-.15-.12-.18-.195-.18-.135 0-.165.09-.195.21-.525 1.545-1.875 1.545-2.025 1.545-.75 0-1.35-.45-1.695-1.005-.45-.72-.45-1.71-.45-2.25h4.185c.33 0 .375 0 .375-.315 0-1.485-.81-2.94-2.685-2.94-1.74 0-3.12 1.545-3.12 3.42Zm1.26-.48c.09-2.235 1.35-2.61 1.86-2.61 1.545 0 1.695 2.025 1.695 2.61Zm5.46 3.78c.525-.015 1.29-.045 1.695-.045.39 0 1.17.03 1.68.045v-.465c-1.005 0-1.17 0-1.17-.675v-2.76c0-1.56 1.065-2.4 2.025-2.4.945 0 1.11.81 1.11 1.665v3.495c0 .675-.165.675-1.17.675v.465c.525-.015 1.29-.045 1.695-.045.39 0 1.17.03 1.68.045v-.465c-1.005 0-1.17 0-1.17-.675v-2.76c0-1.56 1.065-2.4 2.025-2.4.945 0 1.11.81 1.11 1.665v3.495c0 .675-.165.675-1.17.675v.465c.525-.015 1.29-.045 1.695-.045.39 0 1.17.03 1.68.045v-.465c-.78 0-1.155 0-1.17-.45v-2.865c0-1.29 0-1.755-.465-2.295-.21-.255-.705-.555-1.575-.555-1.26 0-1.92.9-2.175 1.47-.21-1.305-1.32-1.47-1.995-1.47-1.095 0-1.8.645-2.22 1.575v-1.575l-2.115.165v.465c1.05 0 1.17.105 1.17.84v4.02c0 .675-.165.675-1.17.675Zm12.435-3.3c0 2.01 1.575 3.465 3.3 3.465 1.83 0 2.505-1.665 2.505-1.95 0-.15-.12-.18-.195-.18-.135 0-.165.09-.195.21-.525 1.545-1.875 1.545-2.025 1.545-.75 0-1.35-.45-1.695-1.005-.45-.72-.45-1.71-.45-2.25h4.185c.33 0 .375 0 .375-.315 0-1.485-.81-2.94-2.685-2.94-1.74 0-3.12 1.545-3.12 3.42Zm1.26-.48c.09-2.235 1.35-2.61 1.86-2.61 1.545 0 1.695 2.025 1.695 2.61Zm5.46 3.78c.525-.015 1.29-.045 1.695-.045.39 0 1.17.03 1.68.045v-.465c-1.005 0-1.17 0-1.17-.675v-2.76c0-1.56 1.065-2.4 2.025-2.4.945 0 1.11.81 1.11 1.665v3.495c0 .675-.165.675-1.17.675v.465c.525-.015 1.29-.045 1.695-.045.39 0 1.17.03 1.68.045v-.465c-.78 0-1.155 0-1.17-.45v-2.865c0-1.29 0-1.755-.465-2.295-.21-.255-.705-.555-1.575-.555-1.095 0-1.8.645-2.22 1.575v-1.575l-2.115.165v.465c1.05 0 1.17.105 1.17.84v4.02c0 .675-.165.675-1.17.675Zm7.71-6h1.275v4.14c0 1.845 1.395 2.025 1.935 2.025 1.065 0 1.485-1.065 1.485-2.025v-.855h-.375v.825c0 1.11-.45 1.68-1.005 1.68-1.005 0-1.005-1.365-1.005-1.62v-4.17h2.145v-.465h-2.145v-2.76h-.375c-.015 1.23-.465 2.835-1.935 2.895Zm6.825.33a.8.8 0 0 0 .795.795.8.8 0 0 0 .795-.795.8.8 0 0 0-.795-.795.8.8 0 0 0-.795.795Zm0 4.875a.8.8 0 0 0 .795.795.8.8 0 0 0 .795-.795.8.8 0 0 0-.795-.795.8.8 0 0 0-.795.795Zm13.44-4.005c0 1.125.06 2.475.675 3.615a2.75 2.75 0 0 0 2.475 1.515c.81 0 1.95-.315 2.61-1.74.48-1.035.555-2.205.555-3.39 0-1.2-.075-2.4-.6-3.51-.69-1.44-1.92-1.68-2.55-1.68-.9 0-1.995.39-2.61 1.785-.48 1.035-.555 2.205-.555 3.405Zm1.245-.18c0-.96 0-1.95.12-2.76.285-1.785 1.41-1.92 1.785-1.92.495 0 1.485.27 1.77 1.755.15.84.15 1.98.15 2.925 0 1.125 0 2.145-.165 3.105-.225 1.425-1.08 1.875-1.755 1.875-.585 0-1.47-.375-1.74-1.815-.165-.9-.165-2.28-.165-3.165Zm6.15 4.98c.525-.015 1.29-.045 1.695-.045.39 0 1.17.03 1.68.045v-.465c-1.005 0-1.17 0-1.17-.675v-2.76c0-1.56 1.065-2.4 2.025-2.4.945 0 1.11.81 1.11 1.665v3.495c0 .675-.165.675-1.17.675v.465c.525-.015 1.29-.045 1.695-.045.39 0 1.17.03 1.68.045v-.465c-1.005 0-1.17 0-1.17-.675v-2.76c0-1.56 1.065-2.4 2.025-2.4.945 0 1.11.81 1.11 1.665v3.495c0 .675-.165.675-1.17.675v.465c.525-.015 1.29-.045 1.695-.045.39 0 1.17.03 1.68.045v-.465c-.78 0-1.155 0-1.17-.45v-2.865c0-1.29 0-1.755-.465-2.295-.21-.255-.705-.555-1.575-.555-1.26 0-1.92.9-2.175 1.47-.21-1.305-1.32-1.47-1.995-1.47-1.095 0-1.8.645-2.22 1.575v-1.575l-2.115.165v.465c1.05 0 1.17.105 1.17.84v4.02c0 .675-.165.675-1.17.675Z"/><path fill="#900" stroke="#900" stroke-width=".12" d="M250.31 94.075c0 1.905 1.47 3.39 3.18 3.39.96 0 1.635-.51 2.01-.99v.99l2.205-.165v-.465c-1.05 0-1.17-.105-1.17-.84V86.89l-2.16.165v.465c1.05 0 1.17.105 1.17.84v3.24c-.435-.54-1.08-.93-1.89-.93-1.77 0-3.345 1.47-3.345 3.405Zm1.245.015c0-.555.03-1.455.465-2.13.315-.465.885-.96 1.695-.96.525 0 1.155.225 1.62.9.165.255.165.285.165.555v3.075c0 .27 0 .3-.165.555-.45.72-1.125 1.05-1.77 1.05-.675 0-1.215-.39-1.575-.96-.39-.615-.435-1.47-.435-2.085Zm7.695-6.03a.8.8 0 0 0 .795.795c.42 0 .795-.315.795-.795a.78.78 0 0 0-.795-.795c-.465 0-.795.405-.795.795Zm-.63 9.24c.48-.015 1.29-.045 1.65-.045.525 0 1.05.03 1.56.045v-.465c-.99 0-1.05-.075-1.05-.66V90.67l-2.1.165v.465c.975 0 1.11.09 1.11.825v4.035c0 .675-.165.675-1.17.675Zm4.155-.195c0 .255 0 .36.165.36.075 0 .09-.015.375-.3.03-.03.03-.06.3-.345.66.63 1.335.645 1.65.645 1.725 0 2.415-1.005 2.415-2.085 0-.795-.45-1.245-.63-1.425-.495-.48-1.08-.6-1.71-.72-.84-.165-1.845-.36-1.845-1.23 0-.525.39-1.14 1.68-1.14 1.65 0 1.725 1.35 1.755 1.815.015.135.15.135.18.135.195 0 .195-.075.195-.36V90.94c0-.255 0-.36-.165-.36-.075 0-.105 0-.3.18-.045.06-.195.195-.255.24-.57-.42-1.185-.42-1.41-.42-1.83 0-2.4 1.005-2.4 1.845 0 .525.24.945.645 1.275.48.39.9.48 1.98.69.33.06 1.56.3 1.56 1.38 0 .765-.525 1.365-1.695 1.365-1.26 0-1.8-.855-2.085-2.13-.045-.195-.06-.255-.21-.255-.195 0-.195.105-.195.375Zm5.7-5.805h1.275v4.14c0 1.845 1.395 2.025 1.935 2.025 1.065 0 1.485-1.065 1.485-2.025v-.855h-.375v.825c0 1.11-.45 1.68-1.005 1.68-1.005 0-1.005-1.365-1.005-1.62V91.3h2.145v-.465h-2.145v-2.76h-.375c-.015 1.23-.465 2.835-1.935 2.895Zm6.165 4.575c0 1.215 1.455 1.59 2.4 1.59.99 0 1.68-.6 1.965-1.305.06.6.465 1.23 1.17 1.23.315 0 1.23-.21 1.23-1.425v-.84h-.375v.84c0 .87-.375.96-.54.96-.495 0-.555-.675-.555-.75v-3c0-.63 0-1.215-.54-1.77-.585-.585-1.335-.825-2.055-.825-1.23 0-2.265.705-2.265 1.695 0 .45.3.705.69.705.42 0 .69-.3.69-.69 0-.18-.075-.675-.765-.69.405-.525 1.14-.69 1.62-.69.735 0 1.59.585 1.59 1.92v.555c-.765.045-1.815.09-2.76.54-1.125.51-1.5 1.29-1.5 1.95Zm1.155-.015c0-.825.63-2.07 3.105-2.16v1.5c0 1.425-1.08 1.935-1.755 1.935-.735 0-1.35-.525-1.35-1.275Zm6.195 1.44c.525-.015 1.29-.045 1.695-.045.39 0 1.17.03 1.68.045v-.465c-1.005 0-1.17 0-1.17-.675V93.4c0-1.56 1.065-2.4 2.025-2.4.945 0 1.11.81 1.11 1.665v3.495c0 .675-.165.675-1.17.675v.465c.525-.015 1.29-.045 1.695-.045.39 0 1.17.03 1.68.045v-.465c-.78 0-1.155 0-1.17-.45V93.52c0-1.29 0-1.755-.465-2.295-.21-.255-.705-.555-1.575-.555-1.095 0-1.8.645-2.22 1.575V90.67l-2.115.165v.465c1.05 0 1.17.105 1.17.84v4.02c0 .675-.165.675-1.17.675Zm8.355-3.24c0 1.92 1.485 3.405 3.225 3.405 2.01 0 2.49-1.8 2.49-1.95s-.15-.15-.195-.15c-.135 0-.165.06-.195.15-.435 1.395-1.41 1.575-1.965 1.575-.795 0-2.115-.645-2.115-3.06 0-2.445 1.23-3.075 2.025-3.075.135 0 1.08.015 1.605.555-.615.045-.705.495-.705.69 0 .39.27.69.69.69.39 0 .69-.255.69-.705 0-1.02-1.14-1.605-2.295-1.605-1.875 0-3.255 1.62-3.255 3.48Zm6.57-.06c0 2.01 1.575 3.465 3.3 3.465 1.83 0 2.505-1.665 2.505-1.95 0-.15-.12-.18-.195-.18-.135 0-.165.09-.195.21-.525 1.545-1.875 1.545-2.025 1.545-.75 0-1.35-.45-1.695-1.005-.45-.72-.45-1.71-.45-2.25h4.185c.33 0 .375 0 .375-.315 0-1.485-.81-2.94-2.685-2.94-1.74 0-3.12 1.545-3.12 3.42Zm1.26-.48c.09-2.235 1.35-2.61 1.86-2.61 1.545 0 1.695 2.025 1.695 2.61Zm6.27-1.89a.8.8 0 0 0 .795.795.8.8 0 0 0 .795-.795.8.8 0 0 0-.795-.795.8.8 0 0 0-.795.795Zm0 4.875a.8.8 0 0 0 .795.795.8.8 0 0 0 .795-.795.8.8 0 0 0-.795-.795.8.8 0 0 0-.795.795Z"/><path fill="#000" stroke="#000" stroke-width=".12"/><path fill="#000" stroke="#000" stroke-width=".12" d="M250.31 136.875c0 1.905 1.47 3.39 3.18 3.39.96 0 1.635-.51 2.01-.99v.99l2.205-.165v-.465c-1.05 0-1.17-.105-1.17-.84v-9.105l-2.16.165v.465c1.05 0 1.17.105 1.17.84v3.24c-.435-.54-1.08-.93-1.89-.93-1.77 0-3.345 1.47-3.345 3.405Zm1.245.015c0-.555.03-1.455.465-2.13.315-.465.885-.96 1.695-.96.525 0 1.155.225 1.62.9.165.255.165.285.165.555v3.075c0 .27 0 .3-.165.555-.45.72-1.125 1.05-1.77 1.05-.675 0-1.215-.39-1.575-.96-.39-.615-.435-1.47-.435-2.085Zm7.695-6.03a.8.8 0 0 0 .795.795c.42 0 .795-.315.795-.795a.78.78 0 0 0-.795-.795c-.465 0-.795.405-.795.795Zm-.63 9.24c.48-.015 1.29-.045 1.65-.045.525 0 1.05.03 1.56.045v-.465c-.99 0-1.05-.075-1.05-.66v-5.505l-2.1.165v.465c.975 0 1.11.09 1.11.825v4.035c0 .675-.165.675-1.17.675Zm4.155-.195c0 .255 0 .36.165.36.075 0 .09-.015.375-.3.03-.03.03-.06.3-.345.66.63 1.335.645 1.65.645 1.725 0 2.415-1.005 2.415-2.085 0-.795-.45-1.245-.63-1.425-.495-.48-1.08-.6-1.71-.72-.84-.165-1.845-.36-1.845-1.23 0-.525.39-1.14 1.68-1.14 1.65 0 1.725 1.35 1.755 1.815.015.135.15.135.18.135.195 0 .195-.075.195-.36v-1.515c0-.255 0-.36-.165-.36-.075 0-.105 0-.3.18-.045.06-.195.195-.255.24-.57-.42-1.185-.42-1.41-.42-1.83 0-2.4 1.005-2.4 1.845 0 .525.24.945.645 1.275.48.39.9.48 1.98.69.33.06 1.56.3 1.56 1.38 0 .765-.525 1.365-1.695 1.365-1.26 0-1.8-.855-2.085-2.13-.045-.195-.06-.255-.21-.255-.195 0-.195.105-.195.375Zm5.835 2.64v.465c.51-.015 1.29-.045 1.68-.045.405 0 1.17.03 1.695.045v-.465c-1.005 0-1.17 0-1.17-.675v-2.655c.075.24.705 1.05 1.845 1.05 1.785 0 3.345-1.47 3.345-3.405 0-1.905-1.455-3.39-3.135-3.39-1.17 0-1.8.66-2.1.99v-.99l-2.16.165v.465c1.065 0 1.17.09 1.17.75v7.02c0 .675-.165.675-1.17.675Zm2.205-4.155v-3.345c.435-.765 1.17-1.2 1.935-1.2 1.095 0 2.01 1.32 2.01 3.015 0 1.815-1.05 3.075-2.16 3.075-.6 0-1.17-.3-1.575-.915-.21-.315-.21-.33-.21-.63Zm6.195 1.71c.495-.015 1.29-.045 1.665-.045s1.11.03 1.665.045v-.465c-1.005 0-1.17 0-1.17-.675v-9.27l-2.16.165v.465c1.05 0 1.17.105 1.17.84v7.8c0 .675-.165.675-1.17.675Zm4.29-1.425c0 1.215 1.455 1.59 2.4 1.59.99 0 1.68-.6 1.965-1.305.06.6.465 1.23 1.17 1.23.315 0 1.23-.21 1.23-1.425v-.84h-.375v.84c0 .87-.375.96-.54.96-.495 0-.555-.675-.555-.75v-3c0-.63 0-1.215-.54-1.77-.585-.585-1.335-.825-2.055-.825-1.23 0-2.265.705-2.265 1.695 0 .45.3.705.69.705.42 0 .69-.3.69-.69 0-.18-.075-.675-.765-.69.405-.525 1.14-.69 1.62-.69.735 0 1.59.585 1.59 1.92v.555c-.765.045-1.815.09-2.76.54-1.125.51-1.5 1.29-1.5 1.95Zm1.155-.015c0-.825.63-2.07 3.105-2.16v1.5c0 1.425-1.08 1.935-1.755 1.935-.735 0-1.35-.525-1.35-1.275Zm6.225-1.8c0 1.92 1.485 3.405 3.225 3.405 2.01 0 2.49-1.8 2.49-1.95s-.15-.15-.195-.15c-.135 0-.165.06-.195.15-.435 1.395-1.41 1.575-1.965 1.575-.795 0-2.115-.645-2.115-3.06 0-2.445 1.23-3.075 2.025-3.075.135 0 1.08.015 1.605.555-.615.045-.705.495-.705.69 0 .39.27.69.69.69.39 0 .69-.255.69-.705 0-1.02-1.14-1.605-2.295-1.605-1.875 0-3.255 1.62-3.255 3.48Zm6.57-.06c0 2.01 1.575 3.465 3.3 3.465 1.83 0 2.505-1.665 2.505-1.95 0-.15-.12-.18-.195-.18-.135 0-.165.09-.195.21-.525 1.545-1.875 1.545-2.025 1.545-.75 0-1.35-.45-1.695-1.005-.45-.72-.45-1.71-.45-2.25h4.185c.33 0 .375 0 .375-.315 0-1.485-.81-2.94-2.685-2.94-1.74 0-3.12 1.545-3.12 3.42Zm1.26-.48c.09-2.235 1.35-2.61 1.86-2.61 1.545 0 1.695 2.025 1.695 2.61Zm5.46 3.78c.525-.015 1.29-.045 1.695-.045.39 0 1.17.03 1.68.045v-.465c-1.005 0-1.17 0-1.17-.675v-2.76c0-1.56 1.065-2.4 2.025-2.4.945 0 1.11.81 1.11 1.665v3.495c0 .675-.165.675-1.17.675v.465c.525-.015 1.29-.045 1.695-.045.39 0 1.17.03 1.68.045v-.465c-1.005 0-1.17 0-1.17-.675v-2.76c0-1.56 1.065-2.4 2.025-2.4.945 0 1.11.81 1.11 1.665v3.495c0 .675-.165.675-1.17.675v.465c.525-.015 1.29-.045 1.695-.045.39 0 1.17.03 1.68.045v-.465c-.78 0-1.155 0-1.17-.45v-2.865c0-1.29 0-1.755-.465-2.295-.21-.255-.705-.555-1.575-.555-1.26 0-1.92.9-2.175 1.47-.21-1.305-1.32-1.47-1.995-1.47-1.095 0-1.8.645-2.22 1.575v-1.575l-2.115.165v.465c1.05 0 1.17.105 1.17.84v4.02c0 .675-.165.675-1.17.675Zm12.435-3.3c0 2.01 1.575 3.465 3.3 3.465 1.83 0 2.505-1.665 2.505-1.95 0-.15-.12-.18-.195-.18-.135 0-.165.09-.195.21-.525 1.545-1.875 1.545-2.025 1.545-.75 0-1.35-.45-1.695-1.005-.45-.72-.45-1.71-.45-2.25h4.185c.33 0 .375 0 .375-.315 0-1.485-.81-2.94-2.685-2.94-1.74 0-3.12 1.545-3.12 3.42Zm1.26-.48c.09-2.235 1.35-2.61 1.86-2.61 1.545 0 1.695 2.025 1.695 2.61Zm5.46 3.78c.525-.015 1.29-.045 1.695-.045.39 0 1.17.03 1.68.045v-.465c-1.005 0-1.17 0-1.17-.675v-2.76c0-1.56 1.065-2.4 2.025-2.4.945 0 1.11.81 1.11 1.665v3.495c0 .675-.165.675-1.17.675v.465c.525-.015 1.29-.045 1.695-.045.39 0 1.17.03 1.68.045v-.465c-.78 0-1.155 0-1.17-.45v-2.865c0-1.29 0-1.755-.465-2.295-.21-.255-.705-.555-1.575-.555-1.095 0-1.8.645-2.22 1.575v-1.575l-2.115.165v.465c1.05 0 1.17.105 1.17.84v4.02c0 .675-.165.675-1.17.675Zm7.71-6h1.275v4.14c0 1.845 1.395 2.025 1.935 2.025 1.065 0 1.485-1.065 1.485-2.025v-.855h-.375v.825c0 1.11-.45 1.68-1.005 1.68-1.005 0-1.005-1.365-1.005-1.62v-4.17h2.145v-.465h-2.145v-2.76h-.375c-.015 1.23-.465 2.835-1.935 2.895Zm6.825.33a.8.8 0 0 0 .795.795.8.8 0 0 0 .795-.795.8.8 0 0 0-.795-.795.8.8 0 0 0-.795.795Zm0 4.875a.8.8 0 0 0 .795.795.8.8 0 0 0 .795-.795.8.8 0 0 0-.795-.795.8.8 0 0 0-.795.795Zm13.44-4.005c0 1.125.06 2.475.675 3.615a2.75 2.75 0 0 0 2.475 1.515c.81 0 1.95-.315 2.61-1.74.48-1.035.555-2.205.555-3.39 0-1.2-.075-2.4-.6-3.51-.69-1.44-1.92-1.68-2.55-1.68-.9 0-1.995.39-2.61 1.785-.48 1.035-.555 2.205-.555 3.405Zm1.245-.18c0-.96 0-1.95.12-2.76.285-1.785 1.41-1.92 1.785-1.92.495 0 1.485.27 1.77 1.755.15.84.15 1.98.15 2.925 0 1.125 0 2.145-.165 3.105-.225 1.425-1.08 1.875-1.755 1.875-.585 0-1.47-.375-1.74-1.815-.165-.9-.165-2.28-.165-3.165Zm6.15 4.98c.525-.015 1.29-.045 1.695-.045.39 0 1.17.03 1.68.045v-.465c-1.005 0-1.17 0-1.17-.675v-2.76c0-1.56 1.065-2.4 2.025-2.4.945 0 1.11.81 1.11 1.665v3.495c0 .675-.165.675-1.17.675v.465c.525-.015 1.29-.045 1.695-.045.39 0 1.17.03 1.68.045v-.465c-1.005 0-1.17 0-1.17-.675v-2.76c0-1.56 1.065-2.4 2.025-2.4.945 0 1.11.81 1.11 1.665v3.495c0 .675-.165.675-1.17.675v.465c.525-.015 1.29-.045 1.695-.045.39 0 1.17.03 1.68.045v-.465c-.78 0-1.155 0-1.17-.45v-2.865c0-1.29 0-1.755-.465-2.295-.21-.255-.705-.555-1.575-.555-1.26 0-1.92.9-2.175 1.47-.21-1.305-1.32-1.47-1.995-1.47-1.095 0-1.8.645-2.22 1.575v-1.575l-2.115.165v.465c1.05 0 1.17.105 1.17.84v4.02c0 .675-.165.675-1.17.675Zm12.87 3.54c0 .09.045.18.135.18.12 0 .165-.075.285-.405l5.31-14.16c.015-.06.045-.135.045-.195 0-.12-.09-.18-.15-.18-.165 0-.225.27-.27.375l-5.295 14.145c-.06.165-.06.195-.06.24Zm7.14-3.735c0 .255 0 .36.165.36.075 0 .09-.015.375-.3.03-.03.03-.06.3-.345.66.63 1.335.645 1.65.645 1.725 0 2.415-1.005 2.415-2.085 0-.795-.45-1.245-.63-1.425-.495-.48-1.08-.6-1.71-.72-.84-.165-1.845-.36-1.845-1.23 0-.525.39-1.14 1.68-1.14 1.65 0 1.725 1.35 1.755 1.815.015.135.15.135.18.135.195 0 .195-.075.195-.36v-1.515c0-.255 0-.36-.165-.36-.075 0-.105 0-.3.18-.045.06-.195.195-.255.24-.57-.42-1.185-.42-1.41-.42-1.83 0-2.4 1.005-2.4 1.845 0 .525.24.945.645 1.275.48.39.9.48 1.98.69.33.06 1.56.3 1.56 1.38 0 .765-.525 1.365-1.695 1.365-1.26 0-1.8-.855-2.085-2.13-.045-.195-.06-.255-.21-.255-.195 0-.195.105-.195.375Z"/><path fill="#900" stroke="#900" stroke-width=".12" d="M30.523 90.923c.3 0 1.185 0 1.964-.39v7.77c0 .54-.044.72-1.395.72h-.48v.465c.526-.045 1.83-.045 2.43-.045s1.905 0 2.43.045v-.465h-.48c-1.35 0-1.395-.165-1.395-.72v-8.415c0-.36 0-.39-.345-.39-.93.96-2.25.96-2.73.96Zm7.44 7.77a.8.8 0 0 0 .794.795c.39 0 .78-.33.78-.795s-.36-.78-.78-.78a.787.787 0 0 0-.794.78Zm3.48-4.005c0 1.125.06 2.475.675 3.615a2.75 2.75 0 0 0 2.474 1.515c.81 0 1.95-.315 2.61-1.74.48-1.035.556-2.205.556-3.39 0-1.2-.075-2.4-.6-3.51-.69-1.44-1.92-1.68-2.55-1.68-.9 0-1.995.39-2.61 1.785-.48 1.035-.556 2.205-.556 3.405Zm1.245-.18c0-.96 0-1.95.12-2.76.285-1.785 1.41-1.92 1.785-1.92.494 0 1.484.27 1.77 1.755.15.84.15 1.98.15 2.925 0 1.125 0 2.145-.166 3.105-.224 1.425-1.08 1.875-1.755 1.875-.584 0-1.47-.375-1.74-1.815-.164-.9-.164-2.28-.164-3.165Zm6.254.18c0 1.125.06 2.475.675 3.615a2.75 2.75 0 0 0 2.476 1.515c.81 0 1.95-.315 2.61-1.74.48-1.035.554-2.205.554-3.39 0-1.2-.075-2.4-.6-3.51-.69-1.44-1.92-1.68-2.55-1.68-.9 0-1.995.39-2.61 1.785-.48 1.035-.555 2.205-.555 3.405Zm1.245-.18c0-.96 0-1.95.12-2.76.285-1.785 1.41-1.92 1.785-1.92.495 0 1.486.27 1.77 1.755.15.84.15 1.98.15 2.925 0 1.125 0 2.145-.165 3.105-.224 1.425-1.08 1.875-1.755 1.875-.584 0-1.47-.375-1.74-1.815-.164-.9-.164-2.28-.164-3.165Zm6.166 4.785c0 .255 0 .36.164.36.075 0 .09-.015.375-.3.03-.03.03-.06.3-.345.66.63 1.336.645 1.65.645 1.725 0 2.416-1.005 2.416-2.085 0-.795-.45-1.245-.63-1.425-.495-.48-1.08-.6-1.71-.72-.84-.165-1.846-.36-1.846-1.23 0-.525.39-1.14 1.68-1.14 1.65 0 1.725 1.35 1.755 1.815.015.135.15.135.18.135.196 0 .196-.075.196-.36v-1.515c0-.255 0-.36-.166-.36-.075 0-.105 0-.3.18-.044.06-.195.195-.255.24-.57-.42-1.184-.42-1.41-.42-1.83 0-2.4 1.005-2.4 1.845 0 .525.24.945.646 1.275.48.39.9.48 1.98.69.33.06 1.56.3 1.56 1.38 0 .765-.525 1.365-1.695 1.365-1.26 0-1.8-.855-2.086-2.13-.044-.195-.06-.255-.21-.255-.194 0-.194.105-.194.375Z"/><path fill="#900" stroke="#900" stroke-width=".109" d="M319.432 85.098c.285-2.461 1.496-3.808 3.944-4.542l-.572-.326c-1.305.435-1.863.707-2.556 1.305-1.401 1.183-2.163 2.843-2.163 4.706 0 2.244 1.088 3.631 2.843 3.631 1.768 0 3.087-1.4 3.087-3.25 0-1.564-.939-2.584-2.38-2.584-1.047 0-1.483.53-2.203 1.06Zm1.686-.244c1.034 0 1.727.897 1.727 2.244 0 1.414-.693 2.325-1.74 2.325-1.157 0-1.782-.993-1.782-2.815 0-.476.054-.734.204-.966.299-.462.938-.788 1.591-.788Zm5.005 3.236c-.408 0-.775.381-.775.79 0 .407.367.788.761.788.435 0 .816-.367.816-.789 0-.408-.38-.789-.802-.789Zm1.917 1.197v.354c2.544 0 2.544-.041 3.033-.041.49 0 .49.04 3.115.04v-1.155c-1.564.068-2.19.013-4.706.068l2.475-2.625c1.32-1.4 1.727-2.149 1.727-3.169 0-1.564-1.06-2.53-2.788-2.53-.979 0-1.645.273-2.312.953l-.23 1.85h.394l.176-.626c.218-.79.708-1.13 1.619-1.13 1.17 0 1.917.735 1.917 1.891 0 1.02-.57 2.027-2.108 3.659Zm8.854-4.379c-.558.258-.789.408-1.088.694-.517.516-.789 1.128-.789 1.836 0 1.4 1.129 2.434 2.666 2.434 1.768 0 3.237-1.387 3.237-3.074 0-1.088-.504-1.672-2.054-2.38 1.238-.843 1.673-1.414 1.673-2.23 0-1.17-.966-1.958-2.407-1.958-1.619 0-2.802 1.033-2.802 2.461 0 .925.367 1.442 1.564 2.217Zm1.578.68c.856.38 1.373 1.047 1.373 1.782 0 1.142-.857 2.04-1.958 2.04-1.156 0-1.904-.816-1.904-2.081 0-.993.394-1.619 1.4-2.23Zm-.83-1.74c-.857-.422-1.292-.966-1.292-1.646 0-.898.653-1.51 1.618-1.51.993 0 1.646.653 1.646 1.646 0 .775-.34 1.305-1.224 1.876Zm13.682 4.351-.354.231c-.394.259-.694.408-.83.408-.095 0-.176-.122-.176-.272 0-.136.027-.258.095-.544l1.02-4.039a3 3 0 0 0 .095-.557c0-.232-.136-.381-.354-.381-.394 0-.91.245-1.74.83-.857.611-1.333 1.087-2 2.026l.408-1.863c.055-.272.096-.476.096-.572 0-.258-.136-.421-.354-.421-.408 0-1.034.299-1.782.87-.598.463-.87.748-1.754 1.945l.449-1.809a2.5 2.5 0 0 0 .081-.585c0-.258-.122-.421-.312-.421-.286 0-.803.285-1.81 1.006l-.38.272.095.272c.503-.313.98-.625 1.075-.625.15 0 .244.136.244.34 0 .693-.557 3.318-1.115 5.263l.041.15.925-.205.299-1.387c.326-1.51.694-2.312 1.442-3.128.57-.625 1.183-1.033 1.564-1.033.095 0 .15.108.15.285 0 .476-.3 2.027-.858 4.407l-.217.91.068.15.938-.204.286-1.455c.217-1.101.68-2.121 1.278-2.788.748-.83 1.428-1.305 1.863-1.305.11 0 .177.122.177.34 0 .326-.04.516-.34 1.7-.544 2.162-.761 2.448-.761 3.168 0 .34.15.544.408.544.353 0 .843-.285 2.176-1.278Zm-25.339 21.067v-.408l-.707-.041c-.748-.04-.884-.19-.884-.898v-8.214l-3.278 1.387.095.68 2.04-.897v7.044c0 .708-.15.857-.884.898l-.761.04v.409c2.094-.041 2.094-.041 2.244-.041.421 0 1.917.04 2.135.04Zm2.788-1.55c-.408 0-.775.38-.775.788s.367.789.761.789c.435 0 .816-.367.816-.789 0-.408-.38-.789-.802-.789Zm5.277-7.861c-2.108 0-3.183 1.672-3.183 4.964 0 1.59.286 2.964.762 3.63.476.667 1.237 1.048 2.08 1.048 2.054 0 3.088-1.768 3.088-5.25 0-2.978-.884-4.392-2.747-4.392Zm-.245.476c1.319 0 1.85 1.332 1.85 4.596 0 2.897-.517 4.094-1.769 4.094-1.319 0-1.876-1.374-1.876-4.692 0-2.87.503-3.998 1.795-3.998Zm7.031-.476c-2.108 0-3.182 1.672-3.182 4.964 0 1.59.285 2.964.761 3.63.476.667 1.238 1.048 2.081 1.048 2.054 0 3.087-1.768 3.087-5.25 0-2.978-.884-4.392-2.747-4.392Zm-.245.476c1.32 0 1.85 1.332 1.85 4.596 0 2.897-.517 4.094-1.768 4.094-1.32 0-1.877-1.374-1.877-4.692 0-2.87.503-3.998 1.795-3.998Zm3.876 6.881a12 12 0 0 1-.299 1.795c.517.245.98.368 1.455.368.667 0 1.292-.245 1.986-.79.693-.543.979-1.046.979-1.726 0-.735-.435-1.13-1.442-1.32l-.584-.108c-.816-.15-1.075-.381-1.075-.939 0-.72.612-1.278 1.387-1.278.558 0 1.075.245 1.292.612v.748h.313c.055-.476.109-.843.259-1.537-.53-.258-.912-.367-1.36-.367-.708 0-1.537.408-2.19 1.06-.354.368-.503.708-.503 1.197 0 .762.421 1.197 1.319 1.374l.857.163c.598.109.816.354.816.884 0 .884-.626 1.483-1.591 1.483-.476 0-.898-.15-1.279-.476v-1.143Z"/><path d="M317.65 95.513h34.325" style="fill:none;stroke-width:.8px;stroke:#900"/><path fill="#900" stroke="#900" stroke-width=".109" d="M365.614 94.193v-.802h-7.33v.802Zm0 2.897v-.802h-7.33v.802Zm6.73-2.68c.286-2.46 1.496-3.807 3.944-4.542l-.571-.326c-1.306.435-1.863.707-2.557 1.306-1.4 1.183-2.162 2.842-2.162 4.705 0 2.244 1.088 3.631 2.842 3.631 1.768 0 3.087-1.4 3.087-3.25 0-1.564-.938-2.584-2.38-2.584-1.047 0-1.482.53-2.203 1.06Zm1.687-.244c1.033 0 1.727.898 1.727 2.244 0 1.414-.694 2.326-1.741 2.326-1.156 0-1.782-.993-1.782-2.816 0-.476.055-.734.204-.965.3-.463.939-.789 1.591-.789Zm5.004 3.237c-.408 0-.775.38-.775.789 0 .408.367.788.762.788.435 0 .816-.367.816-.788 0-.408-.381-.79-.803-.79Zm1.918 1.197v.353c2.543 0 2.543-.04 3.033-.04s.49.04 3.114.04v-1.156c-1.564.068-2.19.014-4.706.068l2.476-2.625c1.319-1.4 1.727-2.148 1.727-3.168 0-1.564-1.06-2.53-2.788-2.53-.98 0-1.646.272-2.312.952l-.231 1.85h.394l.177-.626c.218-.789.707-1.129 1.618-1.129 1.17 0 1.918.735 1.918 1.89 0 1.02-.571 2.027-2.108 3.66Zm8.854-4.38c-.558.259-.79.408-1.089.694-.516.517-.788 1.129-.788 1.836 0 1.4 1.128 2.434 2.665 2.434 1.768 0 3.237-1.387 3.237-3.073 0-1.088-.503-1.673-2.053-2.38 1.237-.843 1.672-1.415 1.672-2.23 0-1.17-.965-1.959-2.407-1.959-1.618 0-2.801 1.034-2.801 2.462 0 .924.367 1.441 1.564 2.216Zm1.577.68c.857.381 1.374 1.048 1.374 1.782 0 1.142-.857 2.04-1.959 2.04-1.156 0-1.904-.816-1.904-2.08 0-.994.395-1.62 1.401-2.231Zm-.83-1.74c-.856-.422-1.291-.966-1.291-1.646 0-.898.652-1.51 1.618-1.51.993 0 1.646.653 1.646 1.646 0 .775-.34 1.306-1.224 1.877Zm13.682 4.352-.353.23c-.395.26-.694.409-.83.409-.095 0-.177-.123-.177-.272 0-.136.027-.259.095-.544l1.02-4.04a3 3 0 0 0 .096-.557c0-.231-.137-.38-.354-.38-.394 0-.911.244-1.74.829-.858.612-1.334 1.088-2 2.026l.408-1.863c.054-.272.095-.476.095-.571 0-.259-.136-.422-.353-.422-.408 0-1.034.3-1.782.87-.599.463-.87.749-1.755 1.945l.45-1.808a2.5 2.5 0 0 0 .08-.585c0-.259-.122-.422-.312-.422-.286 0-.802.286-1.809 1.007l-.38.272.095.272c.503-.313.979-.626 1.074-.626.15 0 .245.136.245.34 0 .694-.558 3.318-1.115 5.263l.04.15.925-.204.3-1.387c.326-1.51.693-2.312 1.441-3.128.571-.626 1.183-1.034 1.564-1.034.095 0 .15.109.15.286 0 .476-.3 2.026-.857 4.406l-.218.911.068.15.939-.204.285-1.455c.218-1.102.68-2.122 1.279-2.788.748-.83 1.428-1.306 1.863-1.306.109 0 .177.122.177.34 0 .326-.041.517-.34 1.7-.544 2.162-.762 2.448-.762 3.169 0 .34.15.544.408.544.354 0 .843-.286 2.176-1.279Zm7.404-8.31h-.749l-3.794 12.009h.748Zm2.994 7.698a12 12 0 0 1-.3 1.795c.518.245.98.367 1.456.367.667 0 1.292-.245 1.986-.789.693-.544.979-1.047.979-1.727 0-.734-.435-1.129-1.442-1.32l-.584-.108c-.816-.15-1.075-.38-1.075-.938 0-.721.612-1.279 1.387-1.279.558 0 1.075.245 1.292.612v.748h.313c.055-.476.109-.843.259-1.537-.53-.258-.912-.367-1.36-.367-.708 0-1.537.408-2.19 1.061-.354.367-.503.707-.503 1.197 0 .761.421 1.197 1.319 1.373l.857.164c.598.108.816.353.816.884 0 .884-.626 1.482-1.591 1.482-.476 0-.898-.15-1.279-.476V96.9Z"/></svg></svg>