<svg xmlns="http://www.w3.org/2000/svg" width="245.6" height="124" style="width:245.6px;height:124px;background:0 0;fill:none"><svg xmlns="http://www.w3.org/2000/svg"/><svg xmlns="http://www.w3.org/2000/svg" class="role-diagram-draw-area" style="overflow:visible"><g class="shapes-region" style="stroke:#000;fill:none"><g class="arrow-line"><path d="M25.2 39.7h193" class="connection real" style="stroke:#000;stroke-width:1;fill:none;fill-opacity:1"/><path d="M10.93-3.29Q4.96-.45 0 0q4.96.45 10.93 3.29" style="stroke:#000;stroke-width:1" transform="matrix(-1 0 0 -1 220.2 39.7)"/></g><g class="composite-shape"><path d="M18.3 39.7a6.901 6.901 0 0 1 13.8 0 6.901 6.901 0 0 1-13.8 0Z" class="real" style="stroke-width:1;stroke:#900;fill:#900;fill-opacity:1;stroke-opacity:1"/></g><g class="composite-shape"><path d="M122.7 39.7a6.901 6.901 0 0 1 13.8 0 6.901 6.901 0 0 1-13.8 0Z" class="real" style="stroke-width:1;stroke:#900;stroke-opacity:1;fill:#900;fill-opacity:1"/></g><g class="arrow-line"><path stroke-dasharray="3" d="M25.2 46.6v47.24" class="connection real" style="stroke:#000;stroke-width:1;fill:none;fill-opacity:1"/></g><g class="arrow-line"><path stroke-dasharray="3" d="M129.6 46.6v47.24" class="connection real" style="stroke:#000;stroke-width:1;fill:none;fill-opacity:1"/></g></g></svg><svg xmlns="http://www.w3.org/2000/svg" xmlns:xlink="http://www.w3.org/1999/xlink" width="244" height="122.4" style="width:244px;height:122.39999999999999px;font-family:Asana-Math,Asana;background:0 0"><path fill="#000" stroke="#000" stroke-width=".136" d="m10.125 101.97-.952 4.811c-.017.136-.221.782-.221 1.292 0 .425.187.68.51.68.595 0 1.19-.34 2.516-1.411l.527-.425-.17-.306-.765.527q-.74.51-1.02.51c-.153 0-.238-.136-.238-.34 0-.442.238-1.819.731-4.284l.221-1.054h1.819l.187-.85a17 17 0 0 1-1.87.102c.272-1.598.459-2.431.765-3.349l-.187-.255c-.34.204-.799.408-1.326.612l-.425 2.89c-.748.357-1.19.544-1.496.629l-.034.221Zm18.893.731v-1.003h-9.163v1.003Zm0 3.621v-1.003h-9.163v1.003Zm8.32-4.352-.952 4.811c-.017.136-.221.782-.221 1.292 0 .425.187.68.51.68.595 0 1.19-.34 2.516-1.411l.527-.425-.17-.306-.765.527q-.74.51-1.02.51c-.153 0-.238-.136-.238-.34 0-.442.238-1.819.73-4.284l.222-1.054h1.819l.187-.85a17 17 0 0 1-1.87.102c.272-1.598.459-2.431.765-3.349l-.187-.255c-.34.204-.8.408-1.326.612l-.425 2.89c-.748.357-1.19.544-1.496.629l-.034.221Zm60.387.4-.952 4.811c-.017.136-.221.782-.221 1.292 0 .425.187.68.51.68.595 0 1.19-.34 2.516-1.411l.527-.425-.17-.306-.765.527q-.74.51-1.02.51c-.153 0-.238-.136-.238-.34 0-.442.238-1.819.731-4.284l.221-1.054h1.819l.187-.85a17 17 0 0 1-1.87.102c.272-1.598.459-2.431.765-3.349l-.187-.255c-.34.204-.799.408-1.326.612l-.425 2.89c-.748.357-1.19.544-1.496.629l-.034.221Zm18.893.731v-1.003h-9.163v1.003Zm0 3.621v-1.003h-9.163v1.003Zm8.32-4.352-.952 4.811c-.017.136-.221.782-.221 1.292 0 .425.187.68.51.68.595 0 1.19-.34 2.516-1.411l.527-.425-.17-.306-.765.527q-.74.51-1.02.51c-.153 0-.238-.136-.238-.34 0-.442.238-1.819.73-4.284l.222-1.054h1.819l.187-.85a17 17 0 0 1-1.87.102c.272-1.598.459-2.431.765-3.349l-.187-.255c-.34.204-.8.408-1.326.612l-.425 2.89c-.748.357-1.19.544-1.496.629l-.034.221Zm17.192 2.533V103.9h-4.08v-4.046h-1.003v4.046h-4.08v1.003h4.08V109h1.003v-4.097Zm15.749 3.995-.119.17c-1.802-.068-3.604-.068-5.423-.068-1.717 0-3.434.017-5.151.068l-.102-.17c1.037-1.87 1.853-3.944 2.703-5.916.833-1.904 1.734-3.842 2.397-5.831h.425c.731 1.819 4.165 9.673 5.27 11.747Zm-1.326-.527a176 176 0 0 0-3.621-8.959h-.119c-1.275 2.941-2.499 5.933-3.604 8.959Zm3.897-6.001-.952 4.811c-.017.136-.221.782-.221 1.292 0 .425.187.68.51.68.595 0 1.19-.34 2.516-1.411l.527-.425-.17-.306-.765.527q-.74.51-1.02.51c-.153 0-.238-.136-.238-.34 0-.442.238-1.819.731-4.284l.221-1.054h1.819l.187-.85a17 17 0 0 1-1.87.102c.272-1.598.459-2.431.765-3.349l-.187-.255c-.34.204-.799.408-1.326.612l-.425 2.89c-.748.357-1.19.544-1.496.629l-.034.221Z"/><path fill="#900" stroke="#900" stroke-width=".136" d="M12.953 24.783c.255.136.527.204.731.204.561 0 1.224-.493 1.751-1.292l1.292-1.989.187 1.173c.221 1.445.612 2.108 1.224 2.108.374 0 .918-.289 1.462-.782l.833-.748-.153-.323c-.612.51-1.037.765-1.309.765-.255 0-.476-.17-.646-.51-.153-.323-.34-.952-.425-1.445l-.306-1.717.595-.833c.799-1.105 1.258-1.496 1.785-1.496.272 0 .476.136.561.391l.238-.068.255-1.445c-.204-.119-.357-.17-.51-.17-.68 0-1.36.612-2.414 2.176l-.629.935-.102-.816c-.204-1.683-.663-2.295-1.666-2.295-.442 0-.816.136-.969.357l-.986 1.411.289.17c.51-.578.85-.816 1.173-.816.561 0 .935.697 1.224 2.363l.187 1.054-.68 1.054c-.731 1.139-1.309 1.683-1.785 1.683-.255 0-.442-.068-.476-.153l-.187-.476-.34.051c0 .595-.136 1.037-.204 1.479Zm10.817-4.505c0-4.42 1.648-6.222 2.634-7.378l-.323-.442c-.969.867-3.774 3.128-3.774 7.82 0 1.819.425 3.536 1.241 5.066.596 1.139 1.14 1.802 2.534 3.111l.322-.357c-.782-.969-2.635-3.043-2.635-7.82Zm5.292-2.108-.952 4.811c-.017.136-.22.782-.22 1.292 0 .425.186.68.51.68.594 0 1.19-.34 2.515-1.411l.527-.425-.17-.306-.765.527q-.74.51-1.02.51c-.152 0-.238-.136-.238-.34 0-.442.238-1.819.731-4.284l.221-1.054h1.82l.186-.85a17 17 0 0 1-1.87.102c.272-1.598.46-2.431.765-3.349l-.187-.255c-.34.204-.799.408-1.326.612l-.425 2.89c-.748.357-1.19.544-1.496.629l-.034.221Zm4.393-5.712-.323.442c.935 1.088 2.635 2.958 2.635 7.378 0 4.692-1.768 6.749-2.636 7.82l.324.357c.9-.85 3.774-3.264 3.774-8.16 0-4.709-2.805-6.97-3.774-7.837Zm65.898 12.325c.255.136.527.204.731.204.561 0 1.224-.493 1.751-1.292l1.292-1.989.187 1.173c.221 1.445.612 2.108 1.224 2.108.374 0 .918-.289 1.462-.782l.833-.748-.153-.323c-.612.51-1.037.765-1.309.765-.255 0-.476-.17-.646-.51-.153-.323-.34-.952-.425-1.445l-.306-1.717.595-.833c.799-1.105 1.258-1.496 1.785-1.496.272 0 .476.136.561.391l.238-.068.255-1.445c-.204-.119-.357-.17-.51-.17-.68 0-1.36.612-2.414 2.176l-.629.935-.102-.816c-.204-1.683-.663-2.295-1.666-2.295-.442 0-.816.136-.969.357l-.986 1.411.289.17c.51-.578.85-.816 1.173-.816.561 0 .935.697 1.224 2.363l.187 1.054-.68 1.054c-.731 1.139-1.309 1.683-1.785 1.683-.255 0-.442-.068-.476-.153l-.187-.476-.34.051c0 .595-.136 1.037-.204 1.479Zm10.817-4.505c0-4.42 1.649-6.222 2.635-7.378l-.323-.442c-.97.867-3.774 3.128-3.774 7.82 0 1.819.425 3.536 1.24 5.066.596 1.139 1.14 1.802 2.534 3.111l.323-.357c-.782-.969-2.635-3.043-2.635-7.82Zm5.292-2.108-.952 4.811c-.017.136-.22.782-.22 1.292 0 .425.186.68.51.68.594 0 1.19-.34 2.515-1.411l.527-.425-.17-.306-.764.527q-.741.51-1.02.51c-.154 0-.239-.136-.239-.34 0-.442.238-1.819.731-4.284l.221-1.054h1.82l.186-.85a17 17 0 0 1-1.87.102c.272-1.598.46-2.431.766-3.349l-.188-.255c-.34.204-.799.408-1.326.612l-.425 2.89c-.748.357-1.19.544-1.496.629l-.034.221Zm17.194 2.533V19.7h-4.08v-4.046h-1.003V19.7h-4.08v1.003h4.08V24.8h1.003v-4.097Zm15.748 3.995-.119.17c-1.802-.068-3.604-.068-5.423-.068-1.717 0-3.434.017-5.151.068l-.102-.17c1.037-1.87 1.853-3.944 2.703-5.916.833-1.904 1.734-3.842 2.397-5.831h.425c.731 1.819 4.165 9.673 5.27 11.747Zm-1.326-.527a176 176 0 0 0-3.621-8.959h-.119c-1.275 2.941-2.499 5.933-3.604 8.959Zm3.897-6.001-.952 4.811c-.017.136-.221.782-.221 1.292 0 .425.187.68.51.68.595 0 1.19-.34 2.516-1.411l.527-.425-.17-.306-.765.527q-.74.51-1.02.51c-.153 0-.238-.136-.238-.34 0-.442.238-1.819.731-4.284l.221-1.054h1.819l.187-.85a17 17 0 0 1-1.87.102c.272-1.598.459-2.431.765-3.349l-.187-.255c-.34.204-.799.408-1.326.612l-.425 2.89c-.748.357-1.19.544-1.496.629l-.034.221Zm4.392-5.712-.323.442c.935 1.088 2.635 2.958 2.635 7.378 0 4.692-1.768 6.749-2.635 7.82l.323.357c.901-.85 3.774-3.264 3.774-8.16 0-4.709-2.805-6.97-3.774-7.837Z"/></svg></svg>