<svg xmlns="http://www.w3.org/2000/svg" width="282.6" height="242.7" style="width:282.6000061035156px;height:242.6999969482422px;background:#fff;fill:none"><svg xmlns="http://www.w3.org/2000/svg"/><svg xmlns="http://www.w3.org/2000/svg" class="role-diagram-draw-area"><g class="shapes-region" style="stroke:#000;fill:none"><g class="arrow-line"><path d="M22.85 42V9.9" class="connection real" style="stroke:#000;stroke-width:1;fill:none;fill-opacity:1"/><path fill="#000" stroke="none" d="M10.72-5.15 0 0l10.72 5.15L7.12 0Z" style="stroke:none;fill:#000;stroke-width:1" transform="rotate(90 7.975 14.875)"/></g><g class="composite-shape"><path d="M14.7 50.15c0-4.5 3.65-8.15 8.15-8.15S31 45.65 31 50.15s-3.65 8.15-8.15 8.15-8.15-3.65-8.15-8.15Z" class="real" style="stroke-width:1;stroke:#900;stroke-opacity:1;fill:#900;fill-opacity:1"/></g><g class="arrow-line"><path d="M22.85 58.3v89.4" class="connection real" style="stroke:#900;stroke-opacity:1;stroke-width:1;fill:none;fill-opacity:1"/><path fill="#900" stroke="none" d="M10.72-5.15 0 0l10.72 5.15L7.12 0Z" style="stroke:none;fill:#900;stroke-width:1" transform="rotate(-90 86.775 63.925)"/></g><g class="arrow-line"><path d="M58.15 42V9.9" class="connection real" style="stroke:#000;stroke-width:1;fill:none;fill-opacity:1"/><path fill="#000" stroke="none" d="M10.72-5.15 0 0l10.72 5.15L7.12 0Z" style="stroke:none;fill:#000;stroke-width:1" transform="rotate(90 25.625 32.525)"/></g><g class="composite-shape"><path d="M50 50.15c0-4.5 3.65-8.15 8.15-8.15s8.15 3.65 8.15 8.15-3.65 8.15-8.15 8.15S50 54.65 50 50.15Z" class="real" style="stroke-width:1;stroke:#900;stroke-opacity:1;fill:#900;fill-opacity:1"/></g><g class="arrow-line"><path d="M58.15 58.15v54.3" class="connection real" style="stroke:#900;stroke-opacity:1;stroke-width:1;fill:none;fill-opacity:1"/><path fill="#900" stroke="none" d="M10.72-5.15 0 0l10.72 5.15L7.12 0Z" style="stroke:none;fill:#900;stroke-width:1" transform="rotate(-90 86.8 28.65)"/></g><g class="arrow-line"><path stroke-dasharray="3" d="M22.9 115.45h35.25" class="connection real" style="stroke:#000;stroke-width:1;fill:none;fill-opacity:1"/></g><g class="arrow-line"><path d="M93.15 42.5V10.4" class="connection real" style="stroke:#000;stroke-width:1;fill:none;fill-opacity:1"/><path fill="#000" stroke="none" d="M10.72-5.15 0 0l10.72 5.15L7.12 0Z" style="stroke:none;fill:#000;stroke-width:1" transform="rotate(90 42.875 50.275)"/></g><g class="composite-shape"><path d="M85 50.65c0-4.5 3.65-8.15 8.15-8.15s8.15 3.65 8.15 8.15-3.65 8.15-8.15 8.15S85 55.15 85 50.65Z" class="real" style="stroke-width:1;stroke:#900;stroke-opacity:1;fill:#900;fill-opacity:1"/></g><g class="arrow-line"><path d="M93.15 58.65v18.7" class="connection real" style="stroke:#900;stroke-opacity:1;stroke-width:1;fill:none;fill-opacity:1"/><path fill="#900" stroke="none" d="M10.72-5.15 0 0l10.72 5.15L7.12 0Z" style="stroke:none;fill:#900;stroke-width:1" transform="rotate(-90 86.75 -6.4)"/></g><g class="arrow-line"><path stroke-dasharray="3" d="M58.15 80.35H93.4" class="connection real" style="stroke:#000;stroke-width:1;fill:none;fill-opacity:1"/></g><g class="composite-shape"><path d="M160 50.15c0-4.5 3.65-8.15 8.15-8.15s8.15 3.65 8.15 8.15-3.65 8.15-8.15 8.15-8.15-3.65-8.15-8.15Z" class="real" style="stroke-width:1;stroke:#900;stroke-opacity:1;fill:#900;fill-opacity:1"/></g><g class="arrow-line"><path d="M168.15 58.3v89.4" class="connection real" style="stroke:#900;stroke-opacity:1;stroke-width:1;fill:none;fill-opacity:1"/><path fill="#900" stroke="none" d="M10.72-5.15 0 0l10.72 5.15L7.12 0Z" style="stroke:none;fill:#900;stroke-width:1" transform="rotate(-90 159.425 -8.725)"/></g><g class="composite-shape"><path d="M195.3 50.15c0-4.5 3.65-8.15 8.15-8.15s8.15 3.65 8.15 8.15-3.65 8.15-8.15 8.15-8.15-3.65-8.15-8.15Z" class="real" style="stroke-width:1;stroke:#900;stroke-opacity:1;fill:#900;fill-opacity:1"/></g><g class="arrow-line"><path stroke-dasharray="3" d="M168.15 176.45h35.25" class="connection real" style="stroke:#000;stroke-width:1;fill:none;fill-opacity:1"/></g><g class="composite-shape"><path d="M230.3 50.65c0-4.5 3.65-8.15 8.15-8.15s8.15 3.65 8.15 8.15-3.65 8.15-8.15 8.15-8.15-3.65-8.15-8.15Z" class="real" style="stroke-width:1;stroke:#900;stroke-opacity:1;fill:#900;fill-opacity:1"/></g><g class="arrow-line"><path d="M168.15 58.3v22.75" class="connection real" style="stroke:#000;stroke-width:1;fill:none;fill-opacity:1"/><path fill="#000" stroke="none" d="M10.72-5.15 0 0l10.72 5.15L7.12 0Z" style="stroke:none;fill:#000;stroke-width:1" transform="rotate(-90 126.1 -42.05)"/></g><g class="arrow-line"><path d="M168.15 150.7v22.75" class="connection real" style="stroke:#000;stroke-width:1;fill:none;fill-opacity:1"/><path fill="#000" stroke="none" d="M10.72-5.15 0 0l10.72 5.15L7.12 0Z" style="stroke:none;fill:#000;stroke-width:1" transform="rotate(-90 172.3 4.15)"/></g><g class="arrow-line"><path d="M203.4 58.3v115.15" class="connection real" style="stroke:#900;stroke-opacity:1;stroke-width:1;fill:none;fill-opacity:1"/><path fill="#900" stroke="none" d="M10.72-5.15 0 0l10.72 5.15L7.12 0Z" style="stroke:none;fill:#900;stroke-width:1" transform="rotate(-90 189.925 -13.475)"/></g><g class="arrow-line"><path d="M203.4 176.45v22.75" class="connection real" style="stroke:#000;stroke-width:1;fill:none;fill-opacity:1"/><path fill="#000" stroke="none" d="M10.72-5.15 0 0l10.72 5.15L7.12 0Z" style="stroke:none;fill:#000;stroke-width:1" transform="rotate(-90 202.8 -.6)"/></g><g class="arrow-line"><path stroke-dasharray="3" d="M203.4 202.2h35.05" class="connection real" style="stroke:#000;stroke-width:1;fill:none;fill-opacity:1"/></g><g class="arrow-line"><path d="M238.45 58.8v140.4" class="connection real" style="stroke:#900;stroke-opacity:1;stroke-width:1;fill:none;fill-opacity:1"/><path fill="#900" stroke="none" d="M10.72-5.15 0 0l10.72 5.15L7.12 0Z" style="stroke:none;fill:#900;stroke-width:1" transform="rotate(-90 220.325 -18.125)"/></g><g class="arrow-line"><path d="M203.45 58.3v22.75" class="connection real" style="stroke:#000;stroke-width:1;fill:none;fill-opacity:1"/><path fill="#000" stroke="none" d="M10.72-5.15 0 0l10.72 5.15L7.12 0Z" style="stroke:none;fill:#000;stroke-width:1" transform="rotate(-90 143.75 -59.7)"/></g><g class="arrow-line"><path d="M238.45 58.8v22.75" class="connection real" style="stroke:#000;stroke-width:1;fill:none;fill-opacity:1"/><path fill="#000" stroke="none" d="M10.72-5.15 0 0l10.72 5.15L7.12 0Z" style="stroke:none;fill:#000;stroke-width:1" transform="rotate(-90 161.5 -76.95)"/></g><g class="arrow-line"><path d="M22.9 150.55v-32.1" class="connection real" style="stroke:#000;stroke-width:1;fill:none;fill-opacity:1"/><path fill="#000" stroke="none" d="M10.72-5.15 0 0l10.72 5.15L7.12 0Z" style="stroke:none;fill:#000;stroke-width:1" transform="rotate(90 -46.275 69.175)"/></g><g class="arrow-line"><path d="M58.15 115.45v-32.1" class="connection real" style="stroke:#000;stroke-width:1;fill:none;fill-opacity:1"/><path fill="#000" stroke="none" d="M10.72-5.15 0 0l10.72 5.15L7.12 0Z" style="stroke:none;fill:#000;stroke-width:1" transform="rotate(90 -11.1 69.25)"/></g></g></svg><svg xmlns="http://www.w3.org/2000/svg" xmlns:xlink="http://www.w3.org/1999/xlink" width="281" height="241.1" style="width:281px;height:241.10000610351562px;font-family:Asana-Math,Asana;background:#fff"><path fill="#000" stroke="#000" stroke-width=".136" d="M112.735 22.669v-.952h-8.568v.952Zm5.935.663-.493 2.159a4 4 0 0 0-.103.867c0 .374.154.595.409.595.39 0 1.087-.442 2.481-1.598l-.118-.357c-.409.34-.901.799-1.276.799-.152 0-.254-.153-.254-.391 0-.085 0-.136.016-.187l1.565-6.443-.17-.153-.562.306c-.697-.255-.986-.323-1.445-.323-.475 0-.816.085-1.275.306-1.053.527-1.614 1.037-2.04 1.87-.748 1.513-1.275 3.553-1.275 4.879 0 .748.255 1.326.579 1.326.629 0 1.989-.884 3.96-3.655Zm.816-3.57c-.374 1.853-.698 2.737-1.276 3.621-.968 1.428-2.005 2.414-2.55 2.414-.203 0-.305-.221-.305-.68 0-1.088.475-3.077 1.07-4.437.409-.935.8-1.241 1.615-1.241.391 0 .697.068 1.445.323Z"/><svg width="9.35" height="10" x="113.588" y="7.8" overflow="visible"><path d="M9.35 4.85 6.2 1.53l-.49.52 1.93 2.33h-.15v.9h.15L5.71 7.61l.49.52zm-7.67.38h7.21v-.9H1.68z" style="fill:#000;fill-opacity:1;stroke-width:1px;stroke:none;stroke-opacity:1"/></svg><path fill="#000" stroke="#000" stroke-width=".136" d="m257.682 77.332-.493 2.159a4 4 0 0 0-.102.867c0 .374.153.595.408.595.391 0 1.088-.442 2.482-1.598l-.119-.357c-.408.34-.901.799-1.275.799-.153 0-.255-.153-.255-.391 0-.085 0-.136.017-.187l1.564-6.443-.17-.153-.561.306c-.697-.255-.986-.323-1.445-.323-.476 0-.816.085-1.275.306-1.054.527-1.615 1.037-2.04 1.87-.748 1.513-1.275 3.553-1.275 4.879 0 .748.255 1.326.578 1.326.629 0 1.989-.884 3.961-3.655Zm.816-3.57c-.374 1.853-.697 2.737-1.275 3.621-.969 1.428-2.006 2.414-2.55 2.414-.204 0-.306-.221-.306-.68 0-1.088.476-3.077 1.071-4.437.408-.935.799-1.241 1.615-1.241.391 0 .697.068 1.445.323Z"/><svg width="9.35" height="10" x="252.6" y="61.8" overflow="visible"><path d="M9.35 4.85 6.2 1.53l-.49.52 1.93 2.33h-.15v.9h.15L5.71 7.61l.49.52zm-7.67.38h7.21v-.9H1.68z" style="fill:#000;fill-opacity:1;stroke-width:1px;stroke:none;stroke-opacity:1"/></svg><path fill="#000" stroke="#000" stroke-width=".12" d="M166.93 227.175c0 1.215 1.455 1.59 2.4 1.59.99 0 1.68-.6 1.965-1.305.06.6.465 1.23 1.17 1.23.315 0 1.23-.21 1.23-1.425v-.84h-.375v.84c0 .87-.375.96-.54.96-.495 0-.555-.675-.555-.75v-3c0-.63 0-1.215-.54-1.77-.585-.585-1.335-.825-2.055-.825-1.23 0-2.265.705-2.265 1.695 0 .45.3.705.69.705.42 0 .69-.3.69-.69 0-.18-.075-.675-.765-.69.405-.525 1.14-.69 1.62-.69.735 0 1.59.585 1.59 1.92v.555c-.765.045-1.815.09-2.76.54-1.125.51-1.5 1.29-1.5 1.95Zm1.155-.015c0-.825.63-2.07 3.105-2.16v1.5c0 1.425-1.08 1.935-1.755 1.935-.735 0-1.35-.525-1.35-1.275Zm6.225-1.8c0 1.92 1.485 3.405 3.225 3.405 2.01 0 2.49-1.8 2.49-1.95s-.15-.15-.195-.15c-.135 0-.165.06-.195.15-.435 1.395-1.41 1.575-1.965 1.575-.795 0-2.115-.645-2.115-3.06 0-2.445 1.23-3.075 2.025-3.075.135 0 1.08.015 1.605.555-.615.045-.705.495-.705.69 0 .39.27.69.69.69.39 0 .69-.255.69-.705 0-1.02-1.14-1.605-2.295-1.605-1.875 0-3.255 1.62-3.255 3.48Zm6.66 0c0 1.92 1.485 3.405 3.225 3.405 2.01 0 2.49-1.8 2.49-1.95s-.15-.15-.195-.15c-.135 0-.165.06-.195.15-.435 1.395-1.41 1.575-1.965 1.575-.795 0-2.115-.645-2.115-3.06 0-2.445 1.23-3.075 2.025-3.075.135 0 1.08.015 1.605.555-.615.045-.705.495-.705.69 0 .39.27.69.69.69.39 0 .69-.255.69-.705 0-1.02-1.14-1.605-2.295-1.605-1.875 0-3.255 1.62-3.255 3.48Zm6.57-.06c0 2.01 1.575 3.465 3.3 3.465 1.83 0 2.505-1.665 2.505-1.95 0-.15-.12-.18-.195-.18-.135 0-.165.09-.195.21-.525 1.545-1.875 1.545-2.025 1.545-.75 0-1.35-.45-1.695-1.005-.45-.72-.45-1.71-.45-2.25h4.185c.33 0 .375 0 .375-.315 0-1.485-.81-2.94-2.685-2.94-1.74 0-3.12 1.545-3.12 3.42Zm1.26-.48c.09-2.235 1.35-2.61 1.86-2.61 1.545 0 1.695 2.025 1.695 2.61Zm5.475 3.78c.495-.015 1.29-.045 1.665-.045s1.11.03 1.665.045v-.465c-1.005 0-1.17 0-1.17-.675v-9.27l-2.16.165v.465c1.05 0 1.17.105 1.17.84v7.8c0 .675-.165.675-1.17.675Zm4.08-3.3c0 2.01 1.575 3.465 3.3 3.465 1.83 0 2.505-1.665 2.505-1.95 0-.15-.12-.18-.195-.18-.135 0-.165.09-.195.21-.525 1.545-1.875 1.545-2.025 1.545-.75 0-1.35-.45-1.695-1.005-.45-.72-.45-1.71-.45-2.25h4.185c.33 0 .375 0 .375-.315 0-1.485-.81-2.94-2.685-2.94-1.74 0-3.12 1.545-3.12 3.42Zm1.26-.48c.09-2.235 1.35-2.61 1.86-2.61 1.545 0 1.695 2.025 1.695 2.61Zm5.4 3.78c.585-.015 1.29-.045 1.71-.045.6 0 1.305 0 1.905.045v-.465h-.315c-1.11 0-1.14-.165-1.14-.705v-2.31c0-1.485.63-2.82 1.77-2.82.105 0 .135 0 .165.015a.65.65 0 0 0-.345.585c0 .42.315.645.645.645.27 0 .645-.18.645-.66s-.465-.915-1.11-.915c-1.095 0-1.635 1.005-1.845 1.65v-1.65l-2.085.165v.465c1.05 0 1.17.105 1.17.84v4.02c0 .675-.165.675-1.17.675Zm6.075-1.425c0 1.215 1.455 1.59 2.4 1.59.99 0 1.68-.6 1.965-1.305.06.6.465 1.23 1.17 1.23.315 0 1.23-.21 1.23-1.425v-.84h-.375v.84c0 .87-.375.96-.54.96-.495 0-.555-.675-.555-.75v-3c0-.63 0-1.215-.54-1.77-.585-.585-1.335-.825-2.055-.825-1.23 0-2.265.705-2.265 1.695 0 .45.3.705.69.705.42 0 .69-.3.69-.69 0-.18-.075-.675-.765-.69.405-.525 1.14-.69 1.62-.69.735 0 1.59.585 1.59 1.92v.555c-.765.045-1.815.09-2.76.54-1.125.51-1.5 1.29-1.5 1.95Zm1.155-.015c0-.825.63-2.07 3.105-2.16v1.5c0 1.425-1.08 1.935-1.755 1.935-.735 0-1.35-.525-1.35-1.275Zm6-4.56h1.275v4.14c0 1.845 1.395 2.025 1.935 2.025 1.065 0 1.485-1.065 1.485-2.025v-.855h-.375v.825c0 1.11-.45 1.68-1.005 1.68-1.005 0-1.005-1.365-1.005-1.62v-4.17h2.145v-.465h-2.145v-2.76h-.375c-.015 1.23-.465 2.835-1.935 2.895Zm6.66-3.24a.8.8 0 0 0 .795.795c.42 0 .795-.315.795-.795a.78.78 0 0 0-.795-.795c-.465 0-.795.405-.795.795Zm-.63 9.24c.48-.015 1.29-.045 1.65-.045.525 0 1.05.03 1.56.045v-.465c-.99 0-1.05-.075-1.05-.66v-5.505l-2.1.165v.465c.975 0 1.11.09 1.11.825v4.035c0 .675-.165.675-1.17.675Zm4.08-3.21c0 1.935 1.56 3.375 3.315 3.375 1.815 0 3.33-1.47 3.33-3.375 0-1.92-1.5-3.51-3.315-3.51-1.875 0-3.33 1.635-3.33 3.51Zm1.245-.12c0-.585 0-1.395.36-2.055a2.01 2.01 0 0 1 1.71-1.005c.66 0 1.305.33 1.695.975s.39 1.515.39 2.085c0 .54 0 1.35-.33 2.01-.33.675-.99 1.11-1.74 1.11-.645 0-1.305-.315-1.71-1.005-.375-.66-.375-1.575-.375-2.115Zm6.315 3.33c.525-.015 1.29-.045 1.695-.045.39 0 1.17.03 1.68.045v-.465c-1.005 0-1.17 0-1.17-.675v-2.76c0-1.56 1.065-2.4 2.025-2.4.945 0 1.11.81 1.11 1.665v3.495c0 .675-.165.675-1.17.675v.465c.525-.015 1.29-.045 1.695-.045.39 0 1.17.03 1.68.045v-.465c-.78 0-1.155 0-1.17-.45v-2.865c0-1.29 0-1.755-.465-2.295-.21-.255-.705-.555-1.575-.555-1.095 0-1.8.645-2.22 1.575v-1.575l-2.115.165v.465c1.05 0 1.17.105 1.17.84v4.02c0 .675-.165.675-1.17.675ZM19.31 225.375c0 1.905 1.47 3.39 3.18 3.39.96 0 1.635-.51 2.01-.99v.99l2.205-.165v-.465c-1.05 0-1.17-.105-1.17-.84v-9.105l-2.16.165v.465c1.05 0 1.17.105 1.17.84v3.24c-.435-.54-1.08-.93-1.89-.93-1.77 0-3.345 1.47-3.345 3.405Zm1.245.015c0-.555.03-1.455.465-2.13.315-.465.885-.96 1.695-.96.525 0 1.155.225 1.62.9.165.255.165.285.165.555v3.075c0 .27 0 .3-.165.555-.45.72-1.125 1.05-1.77 1.05-.675 0-1.215-.39-1.575-.96-.39-.615-.435-1.47-.435-2.085Zm6.99-.09c0 2.01 1.575 3.465 3.3 3.465 1.83 0 2.505-1.665 2.505-1.95 0-.15-.12-.18-.195-.18-.135 0-.165.09-.195.21-.525 1.545-1.875 1.545-2.025 1.545-.75 0-1.35-.45-1.695-1.005-.45-.72-.45-1.71-.45-2.25h4.185c.33 0 .375 0 .375-.315 0-1.485-.81-2.94-2.685-2.94-1.74 0-3.12 1.545-3.12 3.42Zm1.26-.48c.09-2.235 1.35-2.61 1.86-2.61 1.545 0 1.695 2.025 1.695 2.61Zm5.49.54c0 1.92 1.485 3.405 3.225 3.405 2.01 0 2.49-1.8 2.49-1.95s-.15-.15-.195-.15c-.135 0-.165.06-.195.15-.435 1.395-1.41 1.575-1.965 1.575-.795 0-2.115-.645-2.115-3.06 0-2.445 1.23-3.075 2.025-3.075.135 0 1.08.015 1.605.555-.615.045-.705.495-.705.69 0 .39.27.69.69.69.39 0 .69-.255.69-.705 0-1.02-1.14-1.605-2.295-1.605-1.875 0-3.255 1.62-3.255 3.48Zm6.57-.06c0 2.01 1.575 3.465 3.3 3.465 1.83 0 2.505-1.665 2.505-1.95 0-.15-.12-.18-.195-.18-.135 0-.165.09-.195.21-.525 1.545-1.875 1.545-2.025 1.545-.75 0-1.35-.45-1.695-1.005-.45-.72-.45-1.71-.45-2.25h4.185c.33 0 .375 0 .375-.315 0-1.485-.81-2.94-2.685-2.94-1.74 0-3.12 1.545-3.12 3.42Zm1.26-.48c.09-2.235 1.35-2.61 1.86-2.61 1.545 0 1.695 2.025 1.695 2.61Zm5.475 3.78c.495-.015 1.29-.045 1.665-.045s1.11.03 1.665.045v-.465c-1.005 0-1.17 0-1.17-.675v-9.27l-2.16.165v.465c1.05 0 1.17.105 1.17.84v7.8c0 .675-.165.675-1.17.675Zm4.08-3.3c0 2.01 1.575 3.465 3.3 3.465 1.83 0 2.505-1.665 2.505-1.95 0-.15-.12-.18-.195-.18-.135 0-.165.09-.195.21-.525 1.545-1.875 1.545-2.025 1.545-.75 0-1.35-.45-1.695-1.005-.45-.72-.45-1.71-.45-2.25h4.185c.33 0 .375 0 .375-.315 0-1.485-.81-2.94-2.685-2.94-1.74 0-3.12 1.545-3.12 3.42Zm1.26-.48c.09-2.235 1.35-2.61 1.86-2.61 1.545 0 1.695 2.025 1.695 2.61Zm5.4 3.78c.585-.015 1.29-.045 1.71-.045.6 0 1.305 0 1.905.045v-.465h-.315c-1.11 0-1.14-.165-1.14-.705v-2.31c0-1.485.63-2.82 1.77-2.82.105 0 .135 0 .165.015a.65.65 0 0 0-.345.585c0 .42.315.645.645.645.27 0 .645-.18.645-.66s-.465-.915-1.11-.915c-1.095 0-1.635 1.005-1.845 1.65v-1.65l-2.085.165v.465c1.05 0 1.17.105 1.17.84v4.02c0 .675-.165.675-1.17.675Zm6.075-1.425c0 1.215 1.455 1.59 2.4 1.59.99 0 1.68-.6 1.965-1.305.06.6.465 1.23 1.17 1.23.315 0 1.23-.21 1.23-1.425v-.84h-.375v.84c0 .87-.375.96-.54.96-.495 0-.555-.675-.555-.75v-3c0-.63 0-1.215-.54-1.77-.585-.585-1.335-.825-2.055-.825-1.23 0-2.265.705-2.265 1.695 0 .45.3.705.69.705.42 0 .69-.3.69-.69 0-.18-.075-.675-.765-.69.405-.525 1.14-.69 1.62-.69.735 0 1.59.585 1.59 1.92v.555c-.765.045-1.815.09-2.76.54-1.125.51-1.5 1.29-1.5 1.95Zm1.155-.015c0-.825.63-2.07 3.105-2.16v1.5c0 1.425-1.08 1.935-1.755 1.935-.735 0-1.35-.525-1.35-1.275Zm6-4.56h1.275v4.14c0 1.845 1.395 2.025 1.935 2.025 1.065 0 1.485-1.065 1.485-2.025v-.855h-.375v.825c0 1.11-.45 1.68-1.005 1.68-1.005 0-1.005-1.365-1.005-1.62v-4.17h2.145v-.465H73.88v-2.76h-.375c-.015 1.23-.465 2.835-1.935 2.895Zm6.66-3.24a.8.8 0 0 0 .795.795c.42 0 .795-.315.795-.795a.78.78 0 0 0-.795-.795c-.465 0-.795.405-.795.795Zm-.63 9.24c.48-.015 1.29-.045 1.65-.045.525 0 1.05.03 1.56.045v-.465c-.99 0-1.05-.075-1.05-.66v-5.505l-2.1.165v.465c.975 0 1.11.09 1.11.825v4.035c0 .675-.165.675-1.17.675Zm4.08-3.21c0 1.935 1.56 3.375 3.315 3.375 1.815 0 3.33-1.47 3.33-3.375 0-1.92-1.5-3.51-3.315-3.51-1.875 0-3.33 1.635-3.33 3.51Zm1.245-.12c0-.585 0-1.395.36-2.055a2.01 2.01 0 0 1 1.71-1.005c.66 0 1.305.33 1.695.975s.39 1.515.39 2.085c0 .54 0 1.35-.33 2.01-.33.675-.99 1.11-1.74 1.11-.645 0-1.305-.315-1.71-1.005-.375-.66-.375-1.575-.375-2.115Zm6.315 3.33c.525-.015 1.29-.045 1.695-.045.39 0 1.17.03 1.68.045v-.465c-1.005 0-1.17 0-1.17-.675v-2.76c0-1.56 1.065-2.4 2.025-2.4.945 0 1.11.81 1.11 1.665v3.495c0 .675-.165.675-1.17.675v.465c.525-.015 1.29-.045 1.695-.045.39 0 1.17.03 1.68.045v-.465c-.78 0-1.155 0-1.17-.45v-2.865c0-1.29 0-1.755-.465-2.295-.21-.255-.705-.555-1.575-.555-1.095 0-1.8.645-2.22 1.575v-1.575l-2.115.165v.465c1.05 0 1.17.105 1.17.84v4.02c0 .675-.165.675-1.17.675Z"/></svg></svg>