<svg xmlns="http://www.w3.org/2000/svg" width="245.6" height="108" style="width:245.6px;height:108px;background:0 0;fill:none"><svg xmlns="http://www.w3.org/2000/svg"/><svg xmlns="http://www.w3.org/2000/svg" class="role-diagram-draw-area" style="overflow:visible"><g class="shapes-region" style="stroke:#000;fill:none"><g class="arrow-line"><path d="M24.8 27.3h193" class="connection real" style="stroke:#000;stroke-width:1;fill:none;fill-opacity:1"/><path d="M10.93-3.29Q4.96-.45 0 0q4.96.45 10.93 3.29" style="stroke:#000;stroke-width:1" transform="matrix(-1 0 0 -1 219.8 27.3)"/></g><g class="composite-shape"><path d="M17.9 27.3a6.901 6.901 0 0 1 13.8 0 6.901 6.901 0 0 1-13.8 0Z" class="real" style="stroke-width:1;stroke:#900;fill:#900;fill-opacity:1;stroke-opacity:1"/></g><g class="composite-shape"><path d="M98 27.3a6.901 6.901 0 0 1 13.8 0 6.901 6.901 0 0 1-13.8 0Z" class="real" style="stroke-width:1;stroke:#900;stroke-opacity:1;fill:#900;fill-opacity:1"/></g><g class="arrow-line"><path stroke-dasharray="3" d="M24.8 34.2v47.24" class="connection real" style="stroke:#000;stroke-width:1;fill:none;fill-opacity:1"/></g><g class="composite-shape"><path d="M178 27.3a6.901 6.901 0 0 1 13.8 0 6.901 6.901 0 0 1-13.8 0Z" class="real" style="stroke-width:1;stroke:#900;stroke-opacity:1;fill:#900;fill-opacity:1"/></g><g class="arrow-line"><path stroke-dasharray="3" d="M104.9 34.2v47.24" class="connection real" style="stroke:#000;stroke-width:1;fill:none;fill-opacity:1"/></g><g class="arrow-line"><path stroke-dasharray="3" d="M184.9 34.2v47.24" class="connection real" style="stroke:#000;stroke-width:1;fill:none;fill-opacity:1"/></g></g></svg><svg xmlns="http://www.w3.org/2000/svg" xmlns:xlink="http://www.w3.org/1999/xlink" width="244" height="106.4" style="width:244px;height:106.4px;font-family:Asana-Math,Asana;background:0 0"><path fill="#000" stroke="#000" stroke-width=".136" d="m9.725 89.57-.952 4.811c-.017.136-.221.782-.221 1.292 0 .425.187.68.51.68.595 0 1.19-.34 2.516-1.411l.527-.425-.17-.306-.765.527q-.74.51-1.02.51c-.153 0-.238-.136-.238-.34 0-.442.238-1.819.731-4.284l.221-1.054h1.819l.187-.85a17 17 0 0 1-1.87.102c.272-1.598.459-2.431.765-3.349l-.187-.255c-.34.204-.799.408-1.326.612l-.425 2.89c-.748.357-1.19.544-1.496.629l-.034.221Zm18.893.731v-1.003h-9.163v1.003Zm0 3.621v-1.003h-9.163v1.003Zm10.666-9.435c-2.636 0-3.978 2.091-3.978 6.205 0 1.989.357 3.706.952 4.539.594.833 1.546 1.309 2.6 1.309 2.568 0 3.86-2.21 3.86-6.562 0-3.723-1.106-5.491-3.434-5.491Zm-.306.595c1.648 0 2.312 1.666 2.312 5.746 0 3.621-.646 5.117-2.21 5.117-1.65 0-2.346-1.717-2.346-5.865 0-3.587.628-4.998 2.243-4.998Zm50.347 5.288-.952 4.811c-.017.136-.221.782-.221 1.292 0 .425.187.68.51.68.595 0 1.19-.34 2.516-1.411l.527-.425-.17-.306-.765.527q-.74.51-1.02.51c-.153 0-.238-.136-.238-.34 0-.442.238-1.819.731-4.284l.221-1.054h1.819l.187-.85a17 17 0 0 1-1.87.102c.272-1.598.459-2.431.765-3.349l-.187-.255c-.34.204-.799.408-1.326.612l-.425 2.89c-.748.357-1.19.544-1.496.629l-.034.221Zm18.893.731v-1.003h-9.163v1.003Zm0 3.621v-1.003h-9.163v1.003Zm13.301 2.329v-.51l-.885-.051c-.934-.051-1.104-.238-1.104-1.122V85.1l-4.097 1.734.118.85 2.55-1.122v8.806c0 .884-.186 1.071-1.104 1.122l-.952.051v.51C118.663 97 118.663 97 118.85 97c.527 0 2.397.051 2.669.051Zm47.406-7.081-.952 4.811c-.017.136-.221.782-.221 1.292 0 .425.187.68.51.68.595 0 1.19-.34 2.516-1.411l.527-.425-.17-.306-.765.527q-.74.51-1.02.51c-.153 0-.238-.136-.238-.34 0-.442.238-1.819.731-4.284l.221-1.054h1.819l.187-.85a17 17 0 0 1-1.87.102c.272-1.598.459-2.431.765-3.349l-.187-.255c-.34.204-.799.408-1.326.612l-.425 2.89c-.748.357-1.19.544-1.496.629l-.034.221Zm18.893.731v-1.003h-9.163v1.003Zm0 3.621v-1.003h-9.163v1.003Zm6.466 1.887v.442c3.18 0 3.18-.051 3.791-.051.613 0 .613.051 3.893.051v-1.445c-1.954.085-2.737.017-5.881.085l3.094-3.281c1.648-1.751 2.158-2.686 2.158-3.961 0-1.955-1.326-3.162-3.484-3.162-1.225 0-2.058.34-2.89 1.19l-.29 2.312h.493l.221-.782c.272-.986.884-1.411 2.023-1.411 1.462 0 2.397.918 2.397 2.363 0 1.275-.714 2.533-2.635 4.573Z"/></svg></svg>