<svg xmlns="http://www.w3.org/2000/svg" xmlns:xlink="http://www.w3.org/1999/xlink" x="0" y="0" width="322.6000061035156" height="187" style="
        width:322.6000061035156px;
        height:187px;
        background: #FFF;
        fill: none;
">
        <svg xmlns="http://www.w3.org/2000/svg"/>
        
        <svg xmlns="http://www.w3.org/2000/svg" class="role-diagram-draw-area"><g class="shapes-region" style="stroke: black; fill: none;"><g class="arrow-line"><path class="connection real" stroke-dasharray="" d="  M8,181.6 L313.31,31.92" style="stroke: rgb(0, 0, 0); stroke-width: 1; fill: none; fill-opacity: 1;"/><g stroke="none" fill="#000" transform="matrix(-0.8978739533123165,0.44025261380633746,-0.44025261380633746,-0.8978739533123165,316,30.599990844726562)" style="stroke: none; fill: rgb(0, 0, 0); stroke-width: 1;"><path d=" M10.72,-5.15 L0,0 L10.72,5.15 L7.12,0 Z"/></g></g><g class="arrow-line"><path class="connection real" stroke-dasharray="" d="  M8,181.6 C28.9,104.98 92.36,152.12 140.28,47.19" style="stroke: rgb(153, 0, 0); stroke-opacity: 1; stroke-width: 1; fill: none; fill-opacity: 1;"/><g><g stroke="none" fill="rgb(153,0,0)" fill-opacity="1" transform="matrix(-0.8822090596631232,0.47085791386394665,-0.47085791386394665,-0.8822090596631232,81.33654623592754,116.5066264945196)" style="stroke: none; fill: rgb(153, 0, 0); stroke-width: 1;"><path d=" M10.72,-5.15 L0,0 L10.72,5.15 L7.12,0 Z"/></g></g><g stroke="none" fill="rgb(153,0,0)" fill-opacity="1" transform="matrix(-0.4092861540295107,0.9124060741357061,-0.9124060741357061,-0.4092861540295107,141,45.59999084472656)" style="stroke: none; fill: rgb(153, 0, 0); stroke-width: 1;"><path d=" M10.72,-5.15 L0,0 L10.72,5.15 L7.12,0 Z"/></g></g><g class="arrow-line"><path class="connection real" stroke-dasharray="" d="  M141,45.6 C188.52,-0.93 248.78,-7.28 314.02,29.47" style="stroke: rgb(153, 0, 0); stroke-opacity: 1; stroke-width: 1; fill: none; fill-opacity: 1;"/><g><g stroke="none" fill="rgb(153,0,0)" fill-opacity="1" transform="matrix(-0.9987804227487659,0.04937273674606673,-0.04937273674606673,-0.9987804227487659,229.67926178100015,5.776862083101558)" style="stroke: none; fill: rgb(153, 0, 0); stroke-width: 1;"><path d=" M10.72,-5.15 L0,0 L10.72,5.15 L7.12,0 Z"/></g></g><g stroke="none" fill="rgb(153,0,0)" fill-opacity="1" transform="matrix(-0.8666356225450127,-0.49894157747778267,0.49894157747778267,-0.8666356225450127,316.00000000000006,30.599990844726562)" style="stroke: none; fill: rgb(153, 0, 0); stroke-width: 1;"><path d=" M10.72,-5.15 L0,0 L10.72,5.15 L7.12,0 Z"/></g></g><g/></g><g/><g/><g/></svg>
        <svg xmlns="http://www.w3.org/2000/svg" xmlns:xlink="http://www.w3.org/1999/xlink" width="321" height="185.40000915527344" style="width:321px;height:185.40000915527344px;font-family:Asana-Math, Asana;background:#FFF;"><g><g><g><g transform="matrix(1,0,0,1,164.79998779296875,122.68748474121094)"><path transform="matrix(0.015,0,0,-0.015,0,0)" d="M34 215C34 88 132 -11 246 -11C310 -11 355 23 380 55L380 -11L527 0L527 31C457 31 449 38 449 87L449 694L305 683L305 652C375 652 383 645 383 596L383 380C354 416 311 442 257 442C139 442 34 344 34 215ZM117 214C117 251 119 311 148 356C169 387 207 420 261 420C296 420 338 405 369 360C380 343 380 341 380 323L380 118C380 100 380 98 369 81C339 33 294 11 251 11C206 11 170 37 146 75C120 116 117 173 117 214ZM630 616C630 589 652 563 683 563C711 563 736 584 736 616C736 648 711 669 683 669C652 669 630 642 630 616ZM588 0C620 1 674 3 698 3C733 3 768 1 802 0L802 31C736 31 732 36 732 75L732 442L592 431L592 400C657 400 666 394 666 345L666 76C666 31 655 31 588 31ZM865 13C865 -4 865 -11 876 -11C881 -11 882 -10 901 9C903 11 903 13 921 32C965 -10 1010 -11 1031 -11C1146 -11 1192 56 1192 128C1192 181 1162 211 1150 223C1117 255 1078 263 1036 271C980 282 913 295 913 353C913 388 939 429 1025 429C1135 429 1140 339 1142 308C1143 299 1152 299 1154 299C1167 299 1167 304 1167 323L1167 424C1167 441 1167 448 1156 448C1151 448 1149 448 1136 436C1133 432 1123 423 1119 420C1081 448 1040 448 1025 448C903 448 865 381 865 325C865 290 881 262 908 240C940 214 968 208 1040 194C1062 190 1144 174 1144 102C1144 51 1109 11 1031 11C947 11 911 68 892 153C889 166 888 170 878 170C865 170 865 163 865 145ZM1254 -163L1254 -194C1288 -193 1340 -191 1366 -191C1393 -191 1444 -193 1479 -194L1479 -163C1412 -163 1401 -163 1401 -118L1401 50L1401 59C1406 43 1448 -11 1524 -11C1643 -11 1747 87 1747 216C1747 343 1650 442 1538 442C1460 442 1418 398 1398 376L1398 442L1254 431L1254 400C1325 400 1332 394 1332 350L1332 -118C1332 -163 1321 -163 1254 -163ZM1401 114L1401 337C1430 388 1479 417 1530 417C1603 417 1664 329 1664 216C1664 95 1594 11 1520 11C1480 11 1442 31 1415 72C1401 93 1401 94 1401 114ZM1814 0C1847 1 1900 3 1925 3C1950 3 1999 1 2036 0L2036 31C1969 31 1958 31 1958 76L1958 694L1814 683L1814 652C1884 652 1892 645 1892 596L1892 76C1892 31 1881 31 1814 31ZM2100 95C2100 14 2197 -11 2260 -11C2326 -11 2372 29 2391 76C2395 36 2422 -6 2469 -6C2490 -6 2551 8 2551 89L2551 145L2526 145L2526 89C2526 31 2501 25 2490 25C2457 25 2453 70 2453 75L2453 275C2453 317 2453 356 2417 393C2378 432 2328 448 2280 448C2198 448 2129 401 2129 335C2129 305 2149 288 2175 288C2203 288 2221 308 2221 334C2221 346 2216 379 2170 380C2197 415 2246 426 2278 426C2327 426 2384 387 2384 298L2384 261C2333 258 2263 255 2200 225C2125 191 2100 139 2100 95ZM2177 96C2177 151 2219 234 2384 240L2384 140C2384 45 2312 11 2267 11C2218 11 2177 46 2177 96ZM2592 216C2592 88 2691 -11 2807 -11C2941 -11 2973 109 2973 119C2973 129 2963 129 2960 129C2951 129 2949 125 2947 119C2918 26 2853 14 2816 14C2763 14 2675 57 2675 218C2675 381 2757 423 2810 423C2819 423 2882 422 2917 386C2876 383 2870 353 2870 340C2870 314 2888 294 2916 294C2942 294 2962 311 2962 341C2962 409 2886 448 2809 448C2684 448 2592 340 2592 216ZM3030 220C3030 86 3135 -11 3250 -11C3372 -11 3417 100 3417 119C3417 129 3409 131 3404 131C3395 131 3393 125 3391 117C3356 14 3266 14 3256 14C3206 14 3166 44 3143 81C3113 129 3113 195 3113 231L3392 231C3414 231 3417 231 3417 252C3417 351 3363 448 3238 448C3122 448 3030 345 3030 220ZM3114 252C3120 401 3204 426 3238 426C3341 426 3351 291 3351 252ZM3478 0C3513 1 3564 3 3591 3C3617 3 3669 1 3703 0L3703 31C3636 31 3625 31 3625 76L3625 260C3625 364 3696 420 3760 420C3823 420 3834 366 3834 309L3834 76C3834 31 3823 31 3756 31L3756 0C3791 1 3842 3 3869 3C3895 3 3947 1 3981 0L3981 31C3914 31 3903 31 3903 76L3903 260C3903 364 3974 420 4038 420C4101 420 4112 366 4112 309L4112 76C4112 31 4101 31 4034 31L4034 0C4069 1 4120 3 4147 3C4173 3 4225 1 4259 0L4259 31C4207 31 4182 31 4181 61L4181 252C4181 338 4181 369 4150 405C4136 422 4103 442 4045 442C3961 442 3917 382 3900 344C3886 431 3812 442 3767 442C3694 442 3647 399 3619 337L3619 442L3478 431L3478 400C3548 400 3556 393 3556 344L3556 76C3556 31 3545 31 3478 31ZM4307 220C4307 86 4412 -11 4527 -11C4649 -11 4694 100 4694 119C4694 129 4686 131 4681 131C4672 131 4670 125 4668 117C4633 14 4543 14 4533 14C4483 14 4443 44 4420 81C4390 129 4390 195 4390 231L4669 231C4691 231 4694 231 4694 252C4694 351 4640 448 4515 448C4399 448 4307 345 4307 220ZM4391 252C4397 401 4481 426 4515 426C4618 426 4628 291 4628 252ZM4755 0C4790 1 4841 3 4868 3C4894 3 4946 1 4980 0L4980 31C4913 31 4902 31 4902 76L4902 260C4902 364 4973 420 5037 420C5100 420 5111 366 5111 309L5111 76C5111 31 5100 31 5033 31L5033 0C5068 1 5119 3 5146 3C5172 3 5224 1 5258 0L5258 31C5206 31 5181 31 5180 61L5180 252C5180 338 5180 369 5149 405C5135 422 5102 442 5044 442C4971 442 4924 399 4896 337L4896 442L4755 431L4755 400C4825 400 4833 393 4833 344L4833 76C4833 31 4822 31 4755 31ZM5269 400L5354 400L5354 124C5354 1 5447 -11 5483 -11C5554 -11 5582 60 5582 124L5582 181L5557 181L5557 126C5557 52 5527 14 5490 14C5423 14 5423 105 5423 122L5423 400L5566 400L5566 431L5423 431L5423 615L5398 615C5397 533 5367 426 5269 422Z" stroke="rgb(0,0,0)" stroke-opacity="1" stroke-width="8" fill="rgb(0,0,0)" fill-opacity="1"></path></g></g></g></g><g><g><g><g transform="matrix(1,0,0,1,73.79998779296875,49.59999084472656)"><path transform="matrix(0.015,0,0,-0.015,0,0)" d="M34 215C34 88 132 -11 246 -11C310 -11 355 23 380 55L380 -11L527 0L527 31C457 31 449 38 449 87L449 694L305 683L305 652C375 652 383 645 383 596L383 380C354 416 311 442 257 442C139 442 34 344 34 215ZM117 214C117 251 119 311 148 356C169 387 207 420 261 420C296 420 338 405 369 360C380 343 380 341 380 323L380 118C380 100 380 98 369 81C339 33 294 11 251 11C206 11 170 37 146 75C120 116 117 173 117 214ZM630 616C630 589 652 563 683 563C711 563 736 584 736 616C736 648 711 669 683 669C652 669 630 642 630 616ZM588 0C620 1 674 3 698 3C733 3 768 1 802 0L802 31C736 31 732 36 732 75L732 442L592 431L592 400C657 400 666 394 666 345L666 76C666 31 655 31 588 31ZM865 13C865 -4 865 -11 876 -11C881 -11 882 -10 901 9C903 11 903 13 921 32C965 -10 1010 -11 1031 -11C1146 -11 1192 56 1192 128C1192 181 1162 211 1150 223C1117 255 1078 263 1036 271C980 282 913 295 913 353C913 388 939 429 1025 429C1135 429 1140 339 1142 308C1143 299 1152 299 1154 299C1167 299 1167 304 1167 323L1167 424C1167 441 1167 448 1156 448C1151 448 1149 448 1136 436C1133 432 1123 423 1119 420C1081 448 1040 448 1025 448C903 448 865 381 865 325C865 290 881 262 908 240C940 214 968 208 1040 194C1062 190 1144 174 1144 102C1144 51 1109 11 1031 11C947 11 911 68 892 153C889 166 888 170 878 170C865 170 865 163 865 145ZM1245 400L1330 400L1330 124C1330 1 1423 -11 1459 -11C1530 -11 1558 60 1558 124L1558 181L1533 181L1533 126C1533 52 1503 14 1466 14C1399 14 1399 105 1399 122L1399 400L1542 400L1542 431L1399 431L1399 615L1374 615C1373 533 1343 426 1245 422ZM1656 95C1656 14 1753 -11 1816 -11C1882 -11 1928 29 1947 76C1951 36 1978 -6 2025 -6C2046 -6 2107 8 2107 89L2107 145L2082 145L2082 89C2082 31 2057 25 2046 25C2013 25 2009 70 2009 75L2009 275C2009 317 2009 356 1973 393C1934 432 1884 448 1836 448C1754 448 1685 401 1685 335C1685 305 1705 288 1731 288C1759 288 1777 308 1777 334C1777 346 1772 379 1726 380C1753 415 1802 426 1834 426C1883 426 1940 387 1940 298L1940 261C1889 258 1819 255 1756 225C1681 191 1656 139 1656 95ZM1733 96C1733 151 1775 234 1940 240L1940 140C1940 45 1868 11 1823 11C1774 11 1733 46 1733 96ZM2146 0C2181 1 2232 3 2259 3C2285 3 2337 1 2371 0L2371 31C2304 31 2293 31 2293 76L2293 260C2293 364 2364 420 2428 420C2491 420 2502 366 2502 309L2502 76C2502 31 2491 31 2424 31L2424 0C2459 1 2510 3 2537 3C2563 3 2615 1 2649 0L2649 31C2597 31 2572 31 2571 61L2571 252C2571 338 2571 369 2540 405C2526 422 2493 442 2435 442C2362 442 2315 399 2287 337L2287 442L2146 431L2146 400C2216 400 2224 393 2224 344L2224 76C2224 31 2213 31 2146 31ZM2703 216C2703 88 2802 -11 2918 -11C3052 -11 3084 109 3084 119C3084 129 3074 129 3071 129C3062 129 3060 125 3058 119C3029 26 2964 14 2927 14C2874 14 2786 57 2786 218C2786 381 2868 423 2921 423C2930 423 2993 422 3028 386C2987 383 2981 353 2981 340C2981 314 2999 294 3027 294C3053 294 3073 311 3073 341C3073 409 2997 448 2920 448C2795 448 2703 340 2703 216ZM3141 220C3141 86 3246 -11 3361 -11C3483 -11 3528 100 3528 119C3528 129 3520 131 3515 131C3506 131 3504 125 3502 117C3467 14 3377 14 3367 14C3317 14 3277 44 3254 81C3224 129 3224 195 3224 231L3503 231C3525 231 3528 231 3528 252C3528 351 3474 448 3349 448C3233 448 3141 345 3141 220ZM3225 252C3231 401 3315 426 3349 426C3452 426 3462 291 3462 252Z" stroke="rgb(153,0,0)" stroke-opacity="1" stroke-width="8" fill="rgb(153,0,0)" fill-opacity="1"></path></g></g></g></g></svg>
</svg>
