<svg xmlns="http://www.w3.org/2000/svg" xmlns:xlink="http://www.w3.org/1999/xlink" x="0" y="0" width="462.6000162760417" height="147.79999796549478" style="
        width:462.6000162760417px;
        height:147.79999796549478px;
        background: #FFF;
        fill: none;
">
        <svg xmlns="http://www.w3.org/2000/svg"/>
        
        <svg xmlns="http://www.w3.org/2000/svg" class="role-diagram-draw-area" style="overflow: visible;"><g class="shapes-region" style="stroke: black; fill: none;"><g class="composite-shape"><path class="real" d=" M-3,-4.95 L231.6,-4.95 L231.6,148.45 L-3,148.45 Z" style="stroke-width: 1; stroke: none; stroke-opacity: 1; fill: rgb(245, 234, 234); fill-opacity: 1;"/></g><g class="composite-shape"><path class="real" d=" M50,21 L179.4,21 L179.4,113 L50,113 Z" style="stroke-width: 1; stroke: rgb(153, 0, 0); stroke-opacity: 1; fill: rgb(255, 255, 255); fill-opacity: 1;"/></g><g class="composite-shape"><path class="real" d=" M142.8,37.16 L178.36,112.06 L108.36,112.06 Z" style="stroke-width: 1; stroke: rgb(238, 238, 238); stroke-opacity: 1; fill: rgb(238, 238, 238); fill-opacity: 1;"/></g><g class="composite-shape"><path class="real" d=" M297.13,82.27 C297.13,77.85 300.72,74.27 305.13,74.27 L359.13,74.27 C363.55,74.27 367.13,77.85 367.13,82.27 L367.13,106.27 C367.13,110.68 363.55,114.27 359.13,114.27 L305.13,114.27 C300.72,114.27 297.13,110.68 297.13,106.27 Z" style="stroke-width: 1; stroke: rgb(153, 0, 0); stroke-opacity: 1; fill: rgb(245, 234, 234); fill-opacity: 1;"/></g><g class="arrow-line"><path class="connection real" stroke-dasharray="" d="  M398.98,32.32 L368.03,32.32" style="stroke: rgb(153, 0, 0); stroke-opacity: 1; stroke-width: 1; fill: none; fill-opacity: 1;"/><g stroke="none" fill="rgb(153,0,0)" fill-opacity="1" transform="matrix(-1,1.2246467991473532e-16,-1.2246467991473532e-16,-1,401.9833233333334,32.31665666666664)" style="stroke: none; fill: rgb(153, 0, 0); stroke-width: 1;"><path d=" M10.72,-5.15 L0,0 L10.72,5.15 L7.12,0 Z"/></g></g><g class="composite-shape"><path class="real" d=" M86.96,72.2 L121.96,112.2 L51.96,112.2 Z" style="stroke-width: 1; stroke: rgb(238, 238, 238); stroke-opacity: 1; fill: rgb(238, 238, 238); fill-opacity: 1;"/></g><g class="composite-shape"><path class="real" d=" M325.24,100.5 C321.6,97.13 321.6,91.45 325.24,87.81 C328.88,84.17 334.79,83.95 338.43,87.31 C342.07,90.68 342.07,96.36 338.43,100 C334.03,104.4 331.84,106.6 331.83,106.59 C331.84,106.6 329.64,104.56 325.24,100.5 Z" style="stroke-width: 1; stroke: rgb(0, 0, 0); fill: rgb(255, 255, 255); fill-opacity: 1;"/></g><g class="composite-shape"><path class="real" d=" M326.26,88.3 C326.26,86.47 328.83,85 332,85 C335.17,85 337.74,86.47 337.74,88.3 C337.74,90.12 335.17,91.59 332,91.59 C328.83,91.59 326.26,90.12 326.26,88.3 Z" style="stroke-width: 1; stroke: rgb(0, 0, 0); fill: rgb(0, 0, 0); fill-opacity: 1;"/></g><g class="arrow-line"><path class="connection real" stroke-dasharray="3" d="  M332,85 L332,51.12" style="stroke: rgb(0, 0, 0); stroke-width: 1; fill: none; fill-opacity: 1;"/></g><g class="arrow-line"><path class="connection real" stroke-dasharray="" d="  M281.78,80.4 C321.38,50.7 284.45,127.08 322.52,99.5" style="stroke: rgb(0, 0, 0); stroke-opacity: 1; stroke-width: 1; fill: none; fill-opacity: 1;"/><g stroke="rgb(0,0,0)" stroke-opacity="1" transform="matrix(-0.7999989281485084,0.6000014291326627,-0.6000014291326627,-0.7999989281485084,323.69999694824224,98.63333384195963)" style="stroke: rgb(0, 0, 0); stroke-width: 1;"><path d=" M10.93,-3.29 Q4.96,-0.45 0,0 Q4.96,0.45 10.93,3.29"/></g></g><g class="composite-shape"><path class="real" d=" M297.13,20.27 C297.13,15.85 300.72,12.27 305.13,12.27 L359.13,12.27 C363.55,12.27 367.13,15.85 367.13,20.27 L367.13,44.27 C367.13,48.68 363.55,52.27 359.13,52.27 L305.13,52.27 C300.72,52.27 297.13,48.68 297.13,44.27 Z" style="stroke-width: 1; stroke: rgb(0, 0, 0); stroke-opacity: 1; fill: rgb(0, 0, 0); fill-opacity: 0.5;"/></g><g class="composite-shape"><path class="real" d=" M80.4,75.51 L86.81,69.1 L141.85,69.1 L148.27,75.51 L148.27,104.63 L148.27,104.63 L80.4,104.63 L80.4,104.63 Z" style="stroke-width: 1; stroke: rgb(0, 0, 0); fill: rgb(102, 102, 102); fill-opacity: 1;"/></g><g class="composite-shape"><path class="real" d=" M87.56,112.79 C87.29,112.13 87.14,111.4 87.14,110.64 C87.15,107.32 89.99,104.64 93.5,104.65 C97.01,104.65 99.84,107.35 99.84,110.66 C99.84,111.42 99.69,112.15 99.41,112.82 Z" style="stroke-width: 1; stroke: rgb(0, 0, 0); fill: rgb(155, 155, 155); fill-opacity: 1;"/></g><g class="composite-shape"><path class="real" d=" M130.18,112.64 C129.91,111.97 129.76,111.24 129.76,110.48 C129.77,107.17 132.61,104.49 136.12,104.49 C139.63,104.5 142.46,107.19 142.46,110.51 C142.46,111.27 142.31,111.99 142.03,112.66 Z" style="stroke-width: 1; stroke: rgb(0, 0, 0); fill: rgb(155, 155, 155); fill-opacity: 1;"/></g><g class="arrow-line"><path class="connection real" stroke-dasharray="" d="  M398.98,94.32 L368.03,94.32" style="stroke: rgb(153, 0, 0); stroke-opacity: 1; stroke-width: 1; fill: none; fill-opacity: 1;"/><g stroke="none" fill="rgb(153,0,0)" fill-opacity="1" transform="matrix(-1,1.2246467991473532e-16,-1.2246467991473532e-16,-1,401.9833233333334,94.31665666666662)" style="stroke: none; fill: rgb(153, 0, 0); stroke-width: 1;"><path d=" M10.72,-5.15 L0,0 L10.72,5.15 L7.12,0 Z"/></g></g><g/></g><g/><g/><g/></svg>
        <svg xmlns="http://www.w3.org/2000/svg" xmlns:xlink="http://www.w3.org/1999/xlink" width="461" height="146.20000203450522" style="width:461px;height:146.20000203450522px;font-family:Asana-Math, Asana;background:#FFF;"><g><g><g><g><g><g><g transform="matrix(1,0,0,1,403.62495930989587,93.22499593098958)"><path transform="matrix(0.017,0,0,-0.017,0,0)" d="M166 420C187 420 203 421 229 424C118 304 76 221 76 121C76 44 122 -11 186 -11C324 -11 477 236 477 384C477 441 451 482 415 482C402 482 390 478 382 470L332 423L343 404C352 410 361 413 370 413C397 413 413 390 413 350C413 202 316 39 228 39C179 39 148 81 148 146C148 251 187 342 285 464L275 482C255 473 242 470 214 470C186 470 144 472 115 475L103 476C97 477 92 477 91 477C79 477 70 475 59 470C45 443 34 407 21 352L43 352L60 394C67 411 87 422 111 422C144 422 128 420 166 420Z" stroke="rgb(153,0,0)" stroke-opacity="1" stroke-width="8" fill="rgb(153,0,0)" fill-opacity="1"></path></g></g></g></g><svg x="403.62495930989587" overflow="visible" y="74.22499593098958" height="10" width="9.350000381469727"><path d=" M 9.35 4.85 l -3.15 -3.32 l -0.49 0.52 l 1.93 2.33 h -0.15 v 0.90 h 0.15 l -1.93 2.33 l 0.49 0.52 z  M 1.68 5.23 h 7.21 v -0.90 h -7.21 z" style="fill:rgb(153,0,0);fill-opacity:1;stroke-width:1px;stroke:none;stroke-opacity:1;"></path></svg></g><g><g><g><g><g transform="matrix(1,0,0,1,412.62495930989587,98.92500406901041)"><path transform="matrix(0.0119,0,0,-0.0119,0,0)" d="M52 647L55 623C78 632 89 635 100 635C147 635 183 589 224 477C248 410 287 273 286 257C286 257 286 254 285 251L264 125C247 34 246 31 206 28L158 25L154 -3L207 -2C254 -1 277 0 293 0L390 -3L416 -3L419 25L370 28C343 30 334 37 334 57C334 63 335 73 336 78L362 246C371 301 436 419 510 512C568 586 610 616 669 626L675 697C602 678 549 636 474 536C413 452 374 384 346 310C271 616 223 704 131 705C128 702 90 672 67 658ZM887 334L1004 334L1136 330L1155 375L1151 382C1070 378 1010 376 932 376L895 376L942 646C974 647 1057 650 1079 650C1141 650 1182 641 1183 626L1191 537L1215 537C1218 601 1225 651 1236 689C1215 691 1185 692 1167 692C1164 692 1153 692 1129 691L1009 690C1000 689 826 691 816 691L771 692L768 664L822 662C846 661 857 653 857 635C857 621 853 589 848 559L761 55C757 37 745 30 701 23L696 -3L737 -2C768 -1 830 0 850 0L1075 -3C1089 -3 1114 -2 1147 -1L1180 0L1184 36C1186 56 1191 86 1200 135L1205 161L1178 161L1162 101C1152 65 1143 53 1121 48C1101 44 1028 39 974 39C933 39 906 40 837 46Z" stroke="rgb(153,0,0)" stroke-opacity="1" stroke-width="8" fill="rgb(153,0,0)" fill-opacity="1"></path></g></g></g></g></g></g></g><g><g><g><g transform="matrix(1,0,0,1,252.26249186197916,87.32499186197916)"><path transform="matrix(0.017,0,0,-0.017,0,0)" d="M-7 -180C-8 -187 -8 -193 -8 -198C-8 -241 29 -276 74 -276C180 -276 290 -152 349 33L490 473L479 482C450 471 427 465 405 463L370 331C358 284 323 211 290 162C255 111 206 67 184 67C172 67 163 90 164 115L180 322C182 353 184 391 184 419C184 464 177 482 160 482C147 482 133 475 85 442L3 386L14 368L64 398C69 401 80 410 89 410C103 410 111 391 111 358C111 357 111 351 110 343L93 100L92 60C92 18 110 -11 135 -11C172 -11 256 74 331 187L282 16C231 -161 181 -234 111 -234C76 -234 49 -207 49 -172C49 -167 50 -159 51 -150L41 -146ZM516 152C516 46 561 -11 644 -11C699 -11 759 15 804 57C866 116 910 230 910 331C910 425 860 482 777 482C673 482 516 382 516 152ZM740 444C801 444 834 399 834 315C834 219 803 113 759 60C741 39 715 27 684 27C626 27 592 72 592 151C592 264 631 387 680 427C693 438 716 444 740 444ZM1434 473L1427 482L1359 465L1349 414C1334 336 1309 268 1278 221C1219 130 1141 59 1101 59C1093 59 1088 68 1088 85C1088 99 1090 112 1095 137L1152 408C1155 424 1157 438 1157 451C1157 470 1148 482 1134 482C1114 482 1076 461 1002 408L974 388L981 368L1013 389C1041 407 1052 412 1061 412C1070 412 1078 403 1078 392C1078 388 1077 378 1076 374L1013 77C1011 68 1009 44 1009 30C1009 7 1024 -11 1044 -11C1107 -11 1228 101 1312 239L1275 97C1268 73 1264 46 1264 31C1264 6 1275 -9 1294 -9C1320 -9 1356 12 1454 85L1444 103L1418 86C1394 70 1368 59 1357 59C1349 59 1344 66 1344 76C1344 112 1419 416 1434 473Z" stroke="rgb(0,0,0)" stroke-opacity="1" stroke-width="8" fill="rgb(0,0,0)" fill-opacity="1"></path></g></g></g></g><g><g><g><g transform="matrix(1,0,0,1,89.19999186197917,138.40000406901044)"><path transform="matrix(0.012,0,0,-0.012,0,0)" d="M19 -124C19 -169 61 -205 111 -205C174 -205 215 -148 239 -91L415 336C441 399 492 400 508 400L508 431C485 429 456 428 433 428C415 428 368 430 346 431L346 400C377 399 393 382 393 357C393 347 392 345 387 333L286 87L175 356C171 366 169 370 169 374C169 400 206 400 225 400L225 431C199 430 133 428 116 428C89 428 49 429 19 431L19 400C67 400 86 400 100 365L250 0C245 -13 231 -46 225 -59C203 -114 175 -183 111 -183C106 -183 83 -183 64 -165C95 -161 103 -139 103 -123C103 -97 84 -81 61 -81C41 -81 19 -94 19 -124ZM527 214C527 85 631 -11 748 -11C869 -11 970 87 970 214C970 342 870 448 749 448C624 448 527 339 527 214ZM610 222C610 261 610 315 634 359C661 405 708 426 748 426C792 426 835 404 861 361C887 318 887 260 887 222C887 186 887 132 865 88C843 43 799 14 749 14C706 14 662 35 635 81C610 125 610 186 610 222ZM1031 400C1109 400 1109 397 1109 308L1109 158C1109 80 1109 -11 1261 -11C1317 -11 1361 17 1390 79L1390 -11L1534 0L1534 31C1464 31 1456 38 1456 87L1456 442L1309 431L1309 400C1379 400 1387 393 1387 344L1387 166C1387 79 1339 11 1266 11C1182 11 1178 58 1178 110L1178 442L1031 431ZM1582 0C1621 1 1668 3 1696 3C1736 3 1783 3 1823 0L1823 31L1802 31C1728 31 1726 42 1726 78L1726 232C1726 331 1768 420 1844 420C1851 420 1853 420 1855 419C1852 418 1832 406 1832 380C1832 352 1853 337 1875 337C1893 337 1918 349 1918 381C1918 413 1887 442 1844 442C1771 442 1735 375 1721 332L1721 442L1582 431L1582 400C1652 400 1660 393 1660 344L1660 76C1660 31 1649 31 1582 31ZM2297 400C2360 400 2364 394 2377 363L2521 8C2527 -6 2529 -11 2542 -11C2555 -11 2559 -2 2563 8L2694 333C2703 356 2720 399 2786 400L2786 431C2763 429 2734 428 2711 428C2687 428 2641 430 2624 431L2624 400C2661 399 2672 376 2672 357C2672 348 2670 344 2666 333L2564 78L2452 357C2446 370 2446 372 2446 374C2446 400 2485 400 2503 400L2503 431C2473 430 2417 428 2394 428C2367 428 2327 429 2297 431ZM2880 616C2880 589 2902 563 2933 563C2961 563 2986 584 2986 616C2986 648 2961 669 2933 669C2902 669 2880 642 2880 616ZM2838 0C2870 1 2924 3 2948 3C2983 3 3018 1 3052 0L3052 31C2986 31 2982 36 2982 75L2982 442L2842 431L2842 400C2907 400 2916 394 2916 345L2916 76C2916 31 2905 31 2838 31ZM3110 220C3110 86 3215 -11 3330 -11C3452 -11 3497 100 3497 119C3497 129 3489 131 3484 131C3475 131 3473 125 3471 117C3436 14 3346 14 3336 14C3286 14 3246 44 3223 81C3193 129 3193 195 3193 231L3472 231C3494 231 3497 231 3497 252C3497 351 3443 448 3318 448C3202 448 3110 345 3110 220ZM3194 252C3200 401 3284 426 3318 426C3421 426 3431 291 3431 252ZM3544 400C3594 400 3606 397 3618 365L3744 11C3749 -3 3752 -11 3765 -11C3778 -11 3780 -5 3785 9L3886 292L3988 8C3992 -3 3995 -11 4008 -11C4021 -11 4024 -2 4028 8L4145 336C4163 386 4194 399 4229 400L4229 431C4207 429 4178 428 4156 428C4127 428 4082 430 4063 431L4063 400C4099 399 4121 381 4121 352C4121 346 4121 344 4116 331L4025 75L3926 354C3922 366 3921 368 3921 373C3921 400 3960 400 3980 400L3980 431C3951 430 3900 428 3876 428C3846 428 3817 429 3787 431L3787 400C3824 400 3840 398 3850 385C3855 379 3866 349 3873 330L3787 88L3692 355C3687 367 3687 369 3687 373C3687 400 3726 400 3746 400L3746 431C3716 430 3660 428 3637 428C3633 428 3580 429 3544 431Z" stroke="rgb(153,0,0)" stroke-opacity="1" stroke-width="8" fill="rgb(153,0,0)" fill-opacity="1"></path></g></g></g></g><g><g><g><g transform="matrix(1,0,0,1,306.80000813802087,139)"><path transform="matrix(0.012,0,0,-0.012,0,0)" d="M19 400L104 400L104 124C104 1 197 -11 233 -11C304 -11 332 60 332 124L332 181L307 181L307 126C307 52 277 14 240 14C173 14 173 105 173 122L173 400L316 400L316 431L173 431L173 615L148 615C147 533 117 426 19 422ZM416 214C416 85 520 -11 637 -11C758 -11 859 87 859 214C859 342 759 448 638 448C513 448 416 339 416 214ZM499 222C499 261 499 315 523 359C550 405 597 426 637 426C681 426 724 404 750 361C776 318 776 260 776 222C776 186 776 132 754 88C732 43 688 14 638 14C595 14 551 35 524 81C499 125 499 186 499 222ZM916 -163L916 -194C950 -193 1002 -191 1028 -191C1055 -191 1106 -193 1141 -194L1141 -163C1074 -163 1063 -163 1063 -118L1063 50L1063 59C1068 43 1110 -11 1186 -11C1305 -11 1409 87 1409 216C1409 343 1312 442 1200 442C1122 442 1080 398 1060 376L1060 442L916 431L916 400C987 400 994 394 994 350L994 -118C994 -163 983 -163 916 -163ZM1063 114L1063 337C1092 388 1141 417 1192 417C1265 417 1326 329 1326 216C1326 95 1256 11 1182 11C1142 11 1104 31 1077 72C1063 93 1063 94 1063 114ZM1453 186L1719 186L1719 245L1453 245ZM1810 215C1810 88 1908 -11 2022 -11C2086 -11 2131 23 2156 55L2156 -11L2303 0L2303 31C2233 31 2225 38 2225 87L2225 694L2081 683L2081 652C2151 652 2159 645 2159 596L2159 380C2130 416 2087 442 2033 442C1915 442 1810 344 1810 215ZM1893 214C1893 251 1895 311 1924 356C1945 387 1983 420 2037 420C2072 420 2114 405 2145 360C2156 343 2156 341 2156 323L2156 118C2156 100 2156 98 2145 81C2115 33 2070 11 2027 11C1982 11 1946 37 1922 75C1896 116 1893 173 1893 214ZM2359 214C2359 85 2463 -11 2580 -11C2701 -11 2802 87 2802 214C2802 342 2702 448 2581 448C2456 448 2359 339 2359 214ZM2442 222C2442 261 2442 315 2466 359C2493 405 2540 426 2580 426C2624 426 2667 404 2693 361C2719 318 2719 260 2719 222C2719 186 2719 132 2697 88C2675 43 2631 14 2581 14C2538 14 2494 35 2467 81C2442 125 2442 186 2442 222ZM2821 400C2871 400 2883 397 2895 365L3021 11C3026 -3 3029 -11 3042 -11C3055 -11 3057 -5 3062 9L3163 292L3265 8C3269 -3 3272 -11 3285 -11C3298 -11 3301 -2 3305 8L3422 336C3440 386 3471 399 3506 400L3506 431C3484 429 3455 428 3433 428C3404 428 3359 430 3340 431L3340 400C3376 399 3398 381 3398 352C3398 346 3398 344 3393 331L3302 75L3203 354C3199 366 3198 368 3198 373C3198 400 3237 400 3257 400L3257 431C3228 430 3177 428 3153 428C3123 428 3094 429 3064 431L3064 400C3101 400 3117 398 3127 385C3132 379 3143 349 3150 330L3064 88L2969 355C2964 367 2964 369 2964 373C2964 400 3003 400 3023 400L3023 431C2993 430 2937 428 2914 428C2910 428 2857 429 2821 431ZM3557 0C3592 1 3643 3 3670 3C3696 3 3748 1 3782 0L3782 31C3715 31 3704 31 3704 76L3704 260C3704 364 3775 420 3839 420C3902 420 3913 366 3913 309L3913 76C3913 31 3902 31 3835 31L3835 0C3870 1 3921 3 3948 3C3974 3 4026 1 4060 0L4060 31C4008 31 3983 31 3982 61L3982 252C3982 338 3982 369 3951 405C3937 422 3904 442 3846 442C3773 442 3726 399 3698 337L3698 442L3557 431L3557 400C3627 400 3635 393 3635 344L3635 76C3635 31 3624 31 3557 31ZM4432 400C4495 400 4499 394 4512 363L4656 8C4662 -6 4664 -11 4677 -11C4690 -11 4694 -2 4698 8L4829 333C4838 356 4855 399 4921 400L4921 431C4898 429 4869 428 4846 428C4822 428 4776 430 4759 431L4759 400C4796 399 4807 376 4807 357C4807 348 4805 344 4801 333L4699 78L4587 357C4581 370 4581 372 4581 374C4581 400 4620 400 4638 400L4638 431C4608 430 4552 428 4529 428C4502 428 4462 429 4432 431ZM5015 616C5015 589 5037 563 5068 563C5096 563 5121 584 5121 616C5121 648 5096 669 5068 669C5037 669 5015 642 5015 616ZM4973 0C5005 1 5059 3 5083 3C5118 3 5153 1 5187 0L5187 31C5121 31 5117 36 5117 75L5117 442L4977 431L4977 400C5042 400 5051 394 5051 345L5051 76C5051 31 5040 31 4973 31ZM5245 220C5245 86 5350 -11 5465 -11C5587 -11 5632 100 5632 119C5632 129 5624 131 5619 131C5610 131 5608 125 5606 117C5571 14 5481 14 5471 14C5421 14 5381 44 5358 81C5328 129 5328 195 5328 231L5607 231C5629 231 5632 231 5632 252C5632 351 5578 448 5453 448C5337 448 5245 345 5245 220ZM5329 252C5335 401 5419 426 5453 426C5556 426 5566 291 5566 252ZM5679 400C5729 400 5741 397 5753 365L5879 11C5884 -3 5887 -11 5900 -11C5913 -11 5915 -5 5920 9L6021 292L6123 8C6127 -3 6130 -11 6143 -11C6156 -11 6159 -2 6163 8L6280 336C6298 386 6329 399 6364 400L6364 431C6342 429 6313 428 6291 428C6262 428 6217 430 6198 431L6198 400C6234 399 6256 381 6256 352C6256 346 6256 344 6251 331L6160 75L6061 354C6057 366 6056 368 6056 373C6056 400 6095 400 6115 400L6115 431C6086 430 6035 428 6011 428C5981 428 5952 429 5922 431L5922 400C5959 400 5975 398 5985 385C5990 379 6001 349 6008 330L5922 88L5827 355C5822 367 5822 369 5822 373C5822 400 5861 400 5881 400L5881 431C5851 430 5795 428 5772 428C5768 428 5715 429 5679 431Z" stroke="rgb(153,0,0)" stroke-opacity="1" stroke-width="8" fill="rgb(153,0,0)" fill-opacity="1"></path></g></g></g></g><g><g><g><g><g><g><g transform="matrix(1,0,0,1,401.80000813802087,30.0625)"><path transform="matrix(0.017,0,0,-0.017,0,0)" d="M166 420C187 420 203 421 229 424C118 304 76 221 76 121C76 44 122 -11 186 -11C324 -11 477 236 477 384C477 441 451 482 415 482C402 482 390 478 382 470L332 423L343 404C352 410 361 413 370 413C397 413 413 390 413 350C413 202 316 39 228 39C179 39 148 81 148 146C148 251 187 342 285 464L275 482C255 473 242 470 214 470C186 470 144 472 115 475L103 476C97 477 92 477 91 477C79 477 70 475 59 470C45 443 34 407 21 352L43 352L60 394C67 411 87 422 111 422C144 422 128 420 166 420Z" stroke="rgb(153,0,0)" stroke-opacity="1" stroke-width="8" fill="rgb(153,0,0)" fill-opacity="1"></path></g></g></g></g><svg x="401.80000813802087" overflow="visible" y="11.062500000000002" height="9.999999999999998" width="9.350000381469727"><path d=" M 9.35 4.85 l -3.15 -3.32 l -0.49 0.52 l 1.93 2.33 h -0.15 v 0.90 h 0.15 l -1.93 2.33 l 0.49 0.52 z  M 1.68 5.23 h 7.21 v -0.90 h -7.21 z" style="fill:rgb(153,0,0);fill-opacity:1;stroke-width:1px;stroke:none;stroke-opacity:1;"></path></svg></g><g><g><g><g><g transform="matrix(1,0,0,1,410.80000813802087,35.762497965494795)"><path transform="matrix(0.0119,0,0,-0.0119,0,0)" d="M45 284C45 90 152 -18 343 -18C439 -18 510 5 600 67C600 67 610 103 610 103C610 103 600 110 600 110C506 53 454 35 376 35C219 35 133 131 133 309C133 447 190 653 418 653C489 653 541 639 597 603L597 519L624 519C629 576 637 619 651 665C575 694 518 706 456 706C276 706 45 578 45 284ZM908 334L1025 334L1157 330L1176 375L1172 382C1091 378 1031 376 953 376L916 376L963 646C995 647 1078 650 1100 650C1162 650 1203 641 1204 626L1212 537L1236 537C1239 601 1246 651 1257 689C1236 691 1206 692 1188 692C1185 692 1174 692 1150 691L1030 690C1021 689 847 691 837 691L792 692L789 664L843 662C867 661 878 653 878 635C878 621 874 589 869 559L782 55C778 37 766 30 722 23L717 -3L758 -2C789 -1 851 0 871 0L1096 -3C1110 -3 1135 -2 1168 -1L1201 0L1205 36C1207 56 1212 86 1221 135L1226 161L1199 161L1183 101C1173 65 1164 53 1142 48C1122 44 1049 39 995 39C954 39 927 40 858 46Z" stroke="rgb(153,0,0)" stroke-opacity="1" stroke-width="8" fill="rgb(153,0,0)" fill-opacity="1"></path></g></g></g></g></g></g></g></svg>
</svg>
