<svg xmlns="http://www.w3.org/2000/svg" xmlns:xlink="http://www.w3.org/1999/xlink" x="0" y="0" width="302.6" height="208.3" style="
        width:302.6px;
        height:208.3px;
        background: transparent;
        fill: none;
">
        <svg xmlns="http://www.w3.org/2000/svg"/>
        
        <svg xmlns="http://www.w3.org/2000/svg" class="role-diagram-draw-area" style="overflow: visible;"><g class="shapes-region" style="stroke: black; fill: none;"><g class="arrow-line"><path class="connection real" stroke-dasharray="" d="  M237.93,161.15 L257.64,161.15" style="stroke: rgb(0, 0, 0); stroke-width: 1; fill: none; fill-opacity: 1;"/><g stroke="none" fill="#000" transform="matrix(1,0,0,1,234.925365767544,161.148434075058)" style="stroke: none; fill: rgb(0, 0, 0); stroke-width: 1;"><path d=" M10.72,-5.15 L0,0 L10.72,5.15 L7.12,0 Z"/></g></g><g class="composite-shape"><path class="real" d=" M204.78,9.32 C204.78,8.25 205.65,7.38 206.72,7.38 C207.79,7.38 208.66,8.25 208.66,9.32 C208.66,10.4 207.79,11.26 206.72,11.26 C205.65,11.26 204.78,10.4 204.78,9.32 Z" style="stroke-width: 1; stroke: rgb(0, 0, 0); fill: rgb(0, 0, 0); fill-opacity: 1;"/></g><g class="arrow-line"><path class="connection real" stroke-dasharray="" d="  M257.64,161.15 L277.36,161.15" style="stroke: rgb(0, 0, 0); stroke-width: 1; fill: none; fill-opacity: 1;"/><g stroke="none" fill="#000" transform="matrix(-1,1.2246467991473532e-16,-1.2246467991473532e-16,-1,280.36155456687464,161.14843407505802)" style="stroke: none; fill: rgb(0, 0, 0); stroke-width: 1;"><path d=" M8.93,-4.29 L0,0 L8.93,4.29 Z"/></g></g><g class="arrow-line"><path class="connection real" stroke-dasharray="" d="  M257.64,182.09 L257.64,161.15" style="stroke: rgb(0, 0, 0); stroke-width: 1; fill: none; fill-opacity: 1;"/><g stroke="none" fill="#000" transform="matrix(-1.8369701987210297e-16,-1,1,-1.8369701987210297e-16,257.64346016720935,185.09453328462865)" style="stroke: none; fill: rgb(0, 0, 0); stroke-width: 1;"><path d=" M8.93,-4.29 L0,0 L8.93,4.29 Z"/></g></g><g class="arrow-line"><path class="connection real" stroke-dasharray="3" d="  M206.72,9.32 L45.77,170.28" style="stroke: rgb(153, 0, 0); stroke-opacity: 1; stroke-width: 1; fill: none; fill-opacity: 1;"/><g stroke="none" fill="rgb(153,0,0)" fill-opacity="1" transform="matrix(0.7071067811865474,-0.7071067811865477,0.7071067811865477,0.7071067811865474,43.64441849909427,172.39659699374246)" style="stroke: none; fill: rgb(153, 0, 0); stroke-width: 1;"><path d=" M10.72,-5.15 L0,0 L10.72,5.15 L7.12,0 Z"/></g></g><g class="arrow-line"><path class="connection real" stroke-dasharray="" d="  M206.72,9.32 L269.83,72.43" style="stroke: rgb(153, 0, 0); stroke-opacity: 1; stroke-width: 1; fill: none; fill-opacity: 1;"/><g stroke="none" fill="rgb(153,0,0)" fill-opacity="1" transform="matrix(-0.7071067811865477,-0.7071067811865475,0.7071067811865475,-0.7071067811865477,271.94815247237307,74.55213957662303)" style="stroke: none; fill: rgb(153, 0, 0); stroke-width: 1;"><path d=" M10.72,-5.15 L0,0 L10.72,5.15 L7.12,0 Z"/></g></g><g class="arrow-line"><path class="connection real" stroke-dasharray="" d="  M271.95,74.55 L46.4,171.21" style="stroke: rgb(153, 0, 0); stroke-opacity: 1; stroke-width: 1; fill: none; fill-opacity: 1;"/><g stroke="none" fill="rgb(153,0,0)" fill-opacity="1" transform="matrix(0.9191353392552342,-0.3939419095909519,0.3939419095909519,0.9191353392552342,43.64441849909427,172.39659699374246)" style="stroke: none; fill: rgb(153, 0, 0); stroke-width: 1;"><path d=" M10.72,-5.15 L0,0 L10.72,5.15 L7.12,0 Z"/></g></g><g/></g><g/><g/><g/></svg>
        <svg xmlns="http://www.w3.org/2000/svg" xmlns:xlink="http://www.w3.org/1999/xlink" width="301" height="206.7" style="width:301px;height:206.7px;font-family:Asana-Math, Asana;background:transparent;"><g><g><g><g transform="matrix(1,0,0,1,219.30001220703124,166.5812561035156)"><path transform="matrix(0.0136,0,0,-0.0136,0,0)" d="M303 692L264 691C226 689 202 689 182 689C170 689 148 690 110 691L71 692L71 664L89 662C130 656 138 645 142 588L174 158C179 92 181 44 182 -8L232 -8C246 27 264 66 282 102L506 546L618 154C633 102 644 53 657 -8L708 -8L715 18C725 58 733 85 746 124L917 631C923 648 938 660 960 662L980 664L980 692L948 691C919 690 897 689 883 689C870 689 848 690 818 691L785 692L780 664L819 662C848 661 860 653 860 639C860 626 857 608 851 590L704 128L546 700L528 700C516 673 494 624 476 588L252 132L221 616C221 646 234 660 266 662L303 664Z" stroke="rgb(0,0,0)" stroke-opacity="1" stroke-width="8" fill="rgb(0,0,0)" fill-opacity="1"></path></g></g></g></g><g><g><g><g transform="matrix(1,0,0,1,283.15001220703124,166.5812561035156)"><path transform="matrix(0.0136,0,0,-0.0136,0,0)" d="M221 334L338 334L470 330L489 375L485 382C404 378 344 376 266 376L229 376L276 646C308 647 391 650 413 650C475 650 516 641 517 626L525 537L549 537C552 601 559 651 570 689C549 691 519 692 501 692C498 692 487 692 463 691L343 690C334 689 160 691 150 691L105 692L102 664L156 662C180 661 191 653 191 635C191 621 187 589 182 559L95 55C91 37 79 30 35 23L30 -3L71 -2C102 -1 164 0 184 0L409 -3C423 -3 448 -2 481 -1L514 0L518 36C520 56 525 86 534 135L539 161L512 161L496 101C486 65 477 53 455 48C435 44 362 39 308 39C267 39 240 40 171 46Z" stroke="rgb(0,0,0)" stroke-opacity="1" stroke-width="8" fill="rgb(0,0,0)" fill-opacity="1"></path></g></g></g></g><g><g><g><g transform="matrix(1,0,0,1,252.41251220703123,199.48749389648435)"><path transform="matrix(0.0136,0,0,-0.0136,0,0)" d="M108 471C108 386 146 339 230 319L325 296C379 283 406 248 406 191C406 96 335 30 232 30C178 30 140 42 96 73L96 172L66 172C60 117 53 72 42 20C91 -5 144 -18 197 -18C352 -18 485 99 485 234C485 313 442 355 341 377L276 391C210 405 180 442 180 508C180 595 247 658 339 658C388 658 421 645 451 613L451 537L481 537C485 591 492 629 506 672C461 696 421 706 374 706C250 706 108 614 108 471Z" stroke="rgb(0,0,0)" stroke-opacity="1" stroke-width="8" fill="rgb(0,0,0)" fill-opacity="1"></path></g></g></g></g><g><g><g><g><g><g><g transform="matrix(1,0,0,1,103.12501220703125,77.30000000000001)"><path transform="matrix(0.017,0,0,-0.017,0,0)" d="M166 420C187 420 203 421 229 424C118 304 76 221 76 121C76 44 122 -11 186 -11C324 -11 477 236 477 384C477 441 451 482 415 482C402 482 390 478 382 470L332 423L343 404C352 410 361 413 370 413C397 413 413 390 413 350C413 202 316 39 228 39C179 39 148 81 148 146C148 251 187 342 285 464L275 482C255 473 242 470 214 470C186 470 144 472 115 475L103 476C97 477 92 477 91 477C79 477 70 475 59 470C45 443 34 407 21 352L43 352L60 394C67 411 87 422 111 422C144 422 128 420 166 420Z" stroke="rgb(153,0,0)" stroke-opacity="1" stroke-width="8" fill="rgb(153,0,0)" fill-opacity="1"></path></g></g></g></g><svg x="103.12501220703125" overflow="visible" y="58.300000000000004" height="9.999999999999993" width="9.349999999999994"><path d=" M 9.35 4.85 l -3.15 -3.32 l -0.49 0.52 l 1.93 2.33 h -0.15 v 0.90 h 0.15 l -1.93 2.33 l 0.49 0.52 z  M 1.68 5.23 h 7.21 v -0.90 h -7.21 z" style="fill:rgb(153,0,0);fill-opacity:1;stroke-width:1px;stroke:none;stroke-opacity:1;"></path></svg></g><g><g><g><g><g transform="matrix(1,0,0,1,112.12501220703125,83.00000610351563)"><path transform="matrix(0.0119,0,0,-0.0119,0,0)" d="M303 692L264 691C226 689 202 689 182 689C170 689 148 690 110 691L71 692L71 664L89 662C130 656 138 645 142 588L174 158C179 92 181 44 182 -8L232 -8C246 27 264 66 282 102L506 546L618 154C633 102 644 53 657 -8L708 -8L715 18C725 58 733 85 746 124L917 631C923 648 938 660 960 662L980 664L980 692L948 691C919 690 897 689 883 689C870 689 848 690 818 691L785 692L780 664L819 662C848 661 860 653 860 639C860 626 857 608 851 590L704 128L546 700L528 700C516 673 494 624 476 588L252 132L221 616C221 646 234 660 266 662L303 664ZM988 284C988 90 1095 -18 1286 -18C1382 -18 1453 5 1543 67C1543 67 1553 103 1553 103C1553 103 1543 110 1543 110C1449 53 1397 35 1319 35C1162 35 1076 131 1076 309C1076 447 1133 653 1361 653C1432 653 1484 639 1540 603L1540 519L1567 519C1572 576 1580 619 1594 665C1518 694 1461 706 1399 706C1219 706 988 578 988 284Z" stroke="rgb(153,0,0)" stroke-opacity="1" stroke-width="8" fill="rgb(153,0,0)" fill-opacity="1"></path></g></g></g></g></g></g></g><g><g><g><g><g><g><g transform="matrix(1,0,0,1,227.12501220703123,26.299999999999997)"><path transform="matrix(0.017,0,0,-0.017,0,0)" d="M166 420C187 420 203 421 229 424C118 304 76 221 76 121C76 44 122 -11 186 -11C324 -11 477 236 477 384C477 441 451 482 415 482C402 482 390 478 382 470L332 423L343 404C352 410 361 413 370 413C397 413 413 390 413 350C413 202 316 39 228 39C179 39 148 81 148 146C148 251 187 342 285 464L275 482C255 473 242 470 214 470C186 470 144 472 115 475L103 476C97 477 92 477 91 477C79 477 70 475 59 470C45 443 34 407 21 352L43 352L60 394C67 411 87 422 111 422C144 422 128 420 166 420Z" stroke="rgb(153,0,0)" stroke-opacity="1" stroke-width="8" fill="rgb(153,0,0)" fill-opacity="1"></path></g></g></g></g><svg x="227.12501220703123" overflow="visible" y="7.299999999999999" height="10.000000000000005" width="9.349999999999994"><path d=" M 9.35 4.85 l -3.15 -3.32 l -0.49 0.52 l 1.93 2.33 h -0.15 v 0.90 h 0.15 l -1.93 2.33 l 0.49 0.52 z  M 1.68 5.23 h 7.21 v -0.90 h -7.21 z" style="fill:rgb(153,0,0);fill-opacity:1;stroke-width:1px;stroke:none;stroke-opacity:1;"></path></svg></g><g><g><g><g><g transform="matrix(1,0,0,1,236.12501220703126,32)"><path transform="matrix(0.0119,0,0,-0.0119,0,0)" d="M45 284C45 90 152 -18 343 -18C439 -18 510 5 600 67C600 67 610 103 610 103C610 103 600 110 600 110C506 53 454 35 376 35C219 35 133 131 133 309C133 447 190 653 418 653C489 653 541 639 597 603L597 519L624 519C629 576 637 619 651 665C575 694 518 706 456 706C276 706 45 578 45 284ZM908 334L1025 334L1157 330L1176 375L1172 382C1091 378 1031 376 953 376L916 376L963 646C995 647 1078 650 1100 650C1162 650 1203 641 1204 626L1212 537L1236 537C1239 601 1246 651 1257 689C1236 691 1206 692 1188 692C1185 692 1174 692 1150 691L1030 690C1021 689 847 691 837 691L792 692L789 664L843 662C867 661 878 653 878 635C878 621 874 589 869 559L782 55C778 37 766 30 722 23L717 -3L758 -2C789 -1 851 0 871 0L1096 -3C1110 -3 1135 -2 1168 -1L1201 0L1205 36C1207 56 1212 86 1221 135L1226 161L1199 161L1183 101C1173 65 1164 53 1142 48C1122 44 1049 39 995 39C954 39 927 40 858 46Z" stroke="rgb(153,0,0)" stroke-opacity="1" stroke-width="8" fill="rgb(153,0,0)" fill-opacity="1"></path></g></g></g></g></g></g></g><g><g><g><g><g><g><g transform="matrix(1,0,0,1,10.925,172.8000061035156)"><path transform="matrix(0.017,0,0,-0.017,0,0)" d="M166 420C187 420 203 421 229 424C118 304 76 221 76 121C76 44 122 -11 186 -11C324 -11 477 236 477 384C477 441 451 482 415 482C402 482 390 478 382 470L332 423L343 404C352 410 361 413 370 413C397 413 413 390 413 350C413 202 316 39 228 39C179 39 148 81 148 146C148 251 187 342 285 464L275 482C255 473 242 470 214 470C186 470 144 472 115 475L103 476C97 477 92 477 91 477C79 477 70 475 59 470C45 443 34 407 21 352L43 352L60 394C67 411 87 422 111 422C144 422 128 420 166 420Z" stroke="rgb(153,0,0)" stroke-opacity="1" stroke-width="8" fill="rgb(153,0,0)" fill-opacity="1"></path></g></g></g></g><svg x="10.925" overflow="visible" y="153.8000061035156" height="10" width="9.350000000000001"><path d=" M 9.35 4.85 l -3.15 -3.32 l -0.49 0.52 l 1.93 2.33 h -0.15 v 0.90 h 0.15 l -1.93 2.33 l 0.49 0.52 z  M 1.68 5.23 h 7.21 v -0.90 h -7.21 z" style="fill:rgb(153,0,0);fill-opacity:1;stroke-width:1px;stroke:none;stroke-opacity:1;"></path></svg></g><g><g><g><g><g transform="matrix(1,0,0,1,19.925,178.50000610351563)"><path transform="matrix(0.0119,0,0,-0.0119,0,0)" d="M303 692L264 691C226 689 202 689 182 689C170 689 148 690 110 691L71 692L71 664L89 662C130 656 138 645 142 588L174 158C179 92 181 44 182 -8L232 -8C246 27 264 66 282 102L506 546L618 154C633 102 644 53 657 -8L708 -8L715 18C725 58 733 85 746 124L917 631C923 648 938 660 960 662L980 664L980 692L948 691C919 690 897 689 883 689C870 689 848 690 818 691L785 692L780 664L819 662C848 661 860 653 860 639C860 626 857 608 851 590L704 128L546 700L528 700C516 673 494 624 476 588L252 132L221 616C221 646 234 660 266 662L303 664ZM1164 334L1281 334L1413 330L1432 375L1428 382C1347 378 1287 376 1209 376L1172 376L1219 646C1251 647 1334 650 1356 650C1418 650 1459 641 1460 626L1468 537L1492 537C1495 601 1502 651 1513 689C1492 691 1462 692 1444 692C1441 692 1430 692 1406 691L1286 690C1277 689 1103 691 1093 691L1048 692L1045 664L1099 662C1123 661 1134 653 1134 635C1134 621 1130 589 1125 559L1038 55C1034 37 1022 30 978 23L973 -3L1014 -2C1045 -1 1107 0 1127 0L1352 -3C1366 -3 1391 -2 1424 -1L1457 0L1461 36C1463 56 1468 86 1477 135L1482 161L1455 161L1439 101C1429 65 1420 53 1398 48C1378 44 1305 39 1251 39C1210 39 1183 40 1114 46Z" stroke="rgb(153,0,0)" stroke-opacity="1" stroke-width="8" fill="rgb(153,0,0)" fill-opacity="1"></path></g></g></g></g></g></g></g></svg>
</svg>
