<svg xmlns="http://www.w3.org/2000/svg" width="202.6" height="130.463" style="width:202.60000610351562px;height:130.46250915527344px;background:0 0;fill:none"><svg xmlns="http://www.w3.org/2000/svg"/><svg xmlns="http://www.w3.org/2000/svg" class="role-diagram-draw-area" style="overflow:visible"><g class="shapes-region" style="stroke:#000;fill:none"><g class="arrow-line"><path d="M55.18 89.15h86.83" class="connection real" style="stroke:#000;stroke-opacity:1;stroke-width:1;fill:none;fill-opacity:1"/><path d="M10.93-3.29Q4.96-.45 0 0q4.96.45 10.93 3.29" style="stroke:#000;stroke-width:1" transform="matrix(-1 0 0 -1 144.014 89.147)"/></g><g class="arrow-line"><path stroke-dasharray="3" d="M13.88 114.31 189.3 7.44" class="connection real" style="stroke:#000;stroke-width:1;fill:none;fill-opacity:1"/></g><g class="arrow-line"><path d="m55.18 89.15 85.42-52.04" class="connection real" style="stroke:#900;stroke-opacity:1;stroke-width:2;fill:none;fill-opacity:1"/><path fill="#900" stroke="none" d="M13.4-6.43 0 0l13.4 6.44L8.9 0Z" style="stroke:none;fill:#900;stroke-width:2" transform="rotate(148.65 67.092 37.722)"/></g><g class="composite-shape"><path d="M47.54 87.29c1.03-4.22 5.28-6.81 9.5-5.78A7.847 7.847 0 0 1 62.82 91c-1.02 4.22-5.27 6.81-9.49 5.79a7.876 7.876 0 0 1-5.79-9.5Z" class="real" style="stroke-width:1;stroke:#900;stroke-opacity:1;fill:#900;fill-opacity:1"/></g><g class="arrow-line"><path d="M144.01 89.15V37.03" class="connection real" style="stroke:#000;stroke-opacity:1;stroke-width:1;fill:none;fill-opacity:1"/><path d="M10.93-3.29Q4.96-.45 0 0q4.96.45 10.93 3.29" style="stroke:#000;stroke-width:1" transform="rotate(90 54.491 89.522)"/></g></g></svg><svg xmlns="http://www.w3.org/2000/svg" xmlns:xlink="http://www.w3.org/1999/xlink" width="201" height="128.863" style="width:201px;height:128.8625030517578px;font-family:Asana-Math,Asana;background:0 0"><path fill="#000" stroke="#000" stroke-width=".136" d="m94.733 112.168-1.207-8.976c-.034-.374.034-.629.714-.646l.714-.034v-.476l-.697.017c-.63.017-1.105.034-1.411.034s-.782-.017-1.411-.034l-.697-.017v.476l.425.034c.748.051.884.187 1.003.816l1.496 10.574h.833l6.426-10.523c.425-.68.56-.799 1.054-.867l.306-.034v-.476l-.51.017c-.46.017-.85.034-1.122.034-.17 0-.63-.017-1.326-.034l-.782-.017v.476l.442.034c.646.051.969.221.969.544 0 .187-.068.374-.272.714Z"/><path fill="#000" stroke="#000" stroke-width=".095" d="M102.332 116.8c.179.096.369.143.512.143.392 0 .857-.345 1.225-.904l.905-1.392.13.82c.155 1.012.43 1.476.858 1.476.261 0 .642-.202 1.023-.547l.583-.524-.107-.226c-.428.357-.726.536-.916.536-.179 0-.334-.12-.453-.357a4.7 4.7 0 0 1-.297-1.012l-.214-1.202.416-.583c.56-.773.88-1.047 1.25-1.047.19 0 .333.095.392.274l.167-.048.179-1.011c-.143-.084-.25-.12-.357-.12-.476 0-.952.43-1.69 1.524l-.44.654-.072-.57c-.143-1.179-.464-1.607-1.166-1.607-.31 0-.571.095-.678.25l-.69.987.202.12c.357-.405.595-.572.82-.572.393 0 .655.488.858 1.654l.13.738-.476.738c-.511.797-.916 1.178-1.249 1.178-.179 0-.31-.048-.333-.107l-.131-.333-.238.035c0 .417-.095.726-.143 1.036Z"/><svg width="20.563" height="10" x="89.463" y="90.8" overflow="visible"><path d="m20.56 5.39-3.5-3.69-.54.58 2.14 2.58h-.17v1h.17l-2.14 2.58.54.58zm-18.69.42h18.18v-1H1.87z" style="fill:#000;fill-opacity:1;stroke-width:1px;stroke:none;stroke-opacity:1"/></svg><path fill="#000" stroke="#000" stroke-width=".136" d="m160.733 68.168-1.207-8.976c-.034-.374.034-.629.714-.646l.714-.034v-.476l-.697.017c-.63.017-1.105.034-1.411.034s-.782-.017-1.411-.034l-.697-.017v.476l.425.034c.748.051.884.187 1.003.816l1.496 10.574h.833l6.426-10.523c.425-.68.56-.799 1.054-.867l.306-.034v-.476l-.51.017c-.46.017-.85.034-1.122.034-.17 0-.63-.017-1.326-.034l-.782-.017v.476l.442.034c.646.051.969.221.969.544 0 .187-.068.374-.272.714Z"/><path fill="#000" stroke="#000" stroke-width=".095" d="M168.142 74.955c-.012.083-.012.154-.012.214 0 .511.44.928.976.928 1.261 0 2.57-1.476 3.272-3.677l1.678-5.236-.13-.107c-.346.13-.62.202-.882.226l-.416 1.57c-.143.56-.56 1.429-.952 2.012-.417.607-1 1.13-1.261 1.13-.143 0-.25-.273-.238-.571l.19-2.463c.024-.37.048-.821.048-1.155 0-.535-.084-.75-.286-.75-.155 0-.321.084-.893.477l-.975.666.13.214.596-.357c.06-.035.19-.142.297-.142.167 0 .262.226.262.618 0 .012 0 .084-.012.179l-.202 2.892-.012.476c0 .5.214.844.511.844.44 0 1.44-1.011 2.333-2.356l-.583 2.035c-.607 2.106-1.202 2.975-2.035 2.975a.727.727 0 0 1-.738-.738c0-.06.012-.154.024-.261l-.12-.048Z"/><svg width="20.563" height="10" x="155.463" y="46.8" overflow="visible"><path d="m20.56 5.39-3.5-3.69-.54.58 2.14 2.58h-.17v1h.17l-2.14 2.58.54.58zm-18.69.42h18.18v-1H1.87z" style="fill:#000;fill-opacity:1;stroke-width:1px;stroke:none;stroke-opacity:1"/></svg><path fill="#900" stroke="#900" stroke-width=".136" d="m92.733 50.168-1.207-8.976c-.034-.374.034-.629.714-.646l.714-.034v-.476l-.697.017c-.63.017-1.105.034-1.411.034s-.782-.017-1.411-.034l-.697-.017v.476l.425.034c.748.051.884.187 1.003.816l1.496 10.574h.833l6.426-10.523c.425-.68.56-.799 1.054-.867l.306-.034v-.476l-.51.017c-.46.017-.85.034-1.122.034-.17 0-.63-.017-1.326-.034l-.782-.017v.476l.442.034c.646.051.969.221.969.544 0 .187-.068.374-.272.714Z"/><svg width="13.113" height="10" x="87.463" y="28.8" overflow="visible"><path d="M13.11 4.85 9.96 1.53l-.49.52 1.93 2.33h-.15v.9h.15L9.47 7.61l.49.52zm-11.43.38h10.97v-.9H1.68z" style="fill:#900;fill-opacity:1;stroke-width:1px;stroke:none;stroke-opacity:1"/></svg></svg></svg>