<svg xmlns="http://www.w3.org/2000/svg" width="202.6" height="155.963" style="width:202.60000610351562px;height:155.96250915527344px;background:#fff;fill:none"><svg xmlns="http://www.w3.org/2000/svg"/><svg xmlns="http://www.w3.org/2000/svg" class="role-diagram-draw-area" style="overflow:visible"><g class="shapes-region" style="stroke:#000;fill:none"><g class="arrow-line"><path d="M11.88 126.09V11.99" class="connection real" style="stroke:#000;stroke-opacity:1;stroke-width:1;fill:none;fill-opacity:1"/><path d="M10.93-3.29Q4.96-.45 0 0q4.96.45 10.93 3.29" style="stroke:#000;stroke-width:1" transform="rotate(90 .946 10.933)"/></g><g class="arrow-line"><path d="M11.88 126.09H174.5" class="connection real" style="stroke:#000;stroke-opacity:1;stroke-width:1;fill:none;fill-opacity:1"/><path d="M10.93-3.29Q4.96-.45 0 0q4.96.45 10.93 3.29" style="stroke:#000;stroke-width:1" transform="matrix(-1 0 0 -1 176.5 126.088)"/></g><g class="arrow-line"><path stroke-dasharray="3" d="m23 108.49 127-52" class="connection real" style="stroke:#000;stroke-width:1;fill:none;fill-opacity:1"/></g><g class="arrow-line"><path d="m50.33 97.54 60.98-25.51" class="connection real" style="stroke:#900;stroke-opacity:1;stroke-width:2;fill:none;fill-opacity:1"/><path fill="#900" stroke="none" d="M13.4-6.43 0 0l13.4 6.44L8.9 0Z" style="stroke:none;fill:#900;stroke-width:2" transform="rotate(157.3 50.426 46.786)"/></g><g class="composite-shape"><path d="M43.08 94.51a7.857 7.857 0 0 1 10.28-4.23 7.87 7.87 0 0 1 4.23 10.29c-1.67 4-6.28 5.9-10.29 4.23-4-1.68-5.9-6.28-4.22-10.29Z" class="real" style="stroke-width:1;stroke:#900;stroke-opacity:1;fill:#900;fill-opacity:1"/></g></g></svg><svg xmlns="http://www.w3.org/2000/svg" xmlns:xlink="http://www.w3.org/1999/xlink" width="201" height="154.363" style="width:201px;height:154.3625030517578px;font-family:Asana-Math,Asana;background:#fff"><path fill="#000" stroke="#000" stroke-width=".136" d="M179.453 143.87c.255.137.527.205.731.205.561 0 1.224-.493 1.751-1.292l1.292-1.99.187 1.174c.221 1.445.612 2.108 1.224 2.108.374 0 .918-.29 1.462-.782l.833-.748-.153-.323c-.612.51-1.037.765-1.309.765-.255 0-.476-.17-.646-.51-.153-.323-.34-.952-.425-1.445l-.306-1.717.595-.833c.799-1.105 1.258-1.496 1.785-1.496.272 0 .476.136.561.39l.238-.067.255-1.445c-.204-.12-.357-.17-.51-.17-.68 0-1.36.612-2.414 2.176l-.629.935-.102-.816c-.204-1.683-.663-2.295-1.666-2.295-.442 0-.816.136-.969.357l-.986 1.41.289.17c.51-.577.85-.815 1.173-.815.561 0 .935.697 1.224 2.363l.187 1.054-.68 1.054c-.731 1.139-1.309 1.683-1.785 1.683-.255 0-.442-.068-.476-.153l-.187-.476-.34.05c0 .596-.136 1.038-.204 1.48ZM18.789 30.835c-.017.119-.017.221-.017.306 0 .731.629 1.326 1.394 1.326 1.802 0 3.672-2.108 4.675-5.253l2.397-7.48-.187-.153c-.493.187-.884.289-1.258.323l-.595 2.244c-.204.799-.799 2.04-1.36 2.873-.595.867-1.428 1.615-1.802 1.615-.204 0-.357-.391-.34-.816l.272-3.519c.034-.527.068-1.173.068-1.649 0-.765-.119-1.071-.408-1.071-.221 0-.459.119-1.275.68l-1.394.952.187.306.85-.51c.085-.051.272-.204.425-.204.238 0 .374.323.374.884 0 .017 0 .119-.017.255l-.289 4.131-.017.68c0 .714.306 1.207.731 1.207.629 0 2.057-1.445 3.332-3.366l-.833 2.907c-.867 3.009-1.717 4.25-2.907 4.25a1.04 1.04 0 0 1-1.054-1.054c0-.085.017-.221.034-.374l-.17-.068Z"/><path fill="#900" stroke="#900" stroke-width=".136" d="m110.982 63.605-1.207-8.976c-.034-.374.034-.629.714-.646l.714-.034v-.476l-.697.017c-.629.017-1.105.034-1.41.034-.307 0-.783-.017-1.412-.034l-.697-.017v.476l.425.034c.748.051.884.187 1.003.816l1.496 10.574h.833l6.426-10.523c.425-.68.561-.799 1.054-.867l.306-.034v-.476l-.51.017c-.459.017-.85.034-1.122.034-.17 0-.629-.017-1.326-.034l-.782-.017v.476l.442.034c.646.051.97.221.97.544 0 .187-.069.374-.273.714Z"/><svg width="13.113" height="10" x="105.712" y="42.237" overflow="visible"><path d="M13.11 4.85 9.96 1.53l-.49.52 1.93 2.33h-.15v.9h.15L9.47 7.61l.49.52zm-11.43.38h10.97v-.9H1.68z" style="fill:#900;fill-opacity:1;stroke-width:1px;stroke:none;stroke-opacity:1"/></svg></svg></svg>