<svg xmlns="http://www.w3.org/2000/svg" width="201.6" height="74.5" style="width:201.6px;height:74.5px;background:#fff;fill:none"><svg xmlns="http://www.w3.org/2000/svg"/><svg xmlns="http://www.w3.org/2000/svg" class="role-diagram-draw-area" style="overflow:visible"><g class="shapes-region" style="stroke:#000;fill:none"><g class="arrow-line"><path d="M8.6 15h50.2" class="connection real" style="stroke:#900;stroke-opacity:1;stroke-width:2;fill:none;fill-opacity:1"/><path fill="#900" stroke="none" d="M13.4-6.43 0 0l13.4 6.44L8.9 0Z" style="stroke:none;fill:#900;stroke-width:2" transform="matrix(-1 0 0 -1 62.8 15)"/></g><g class="arrow-line"><path d="M181.8 30H8.6" class="connection real" style="stroke:#000;stroke-opacity:1;stroke-width:2;fill:none;fill-opacity:1"/><path fill="#000" stroke="none" d="M13.4-6.43 0 0l13.4 6.44L8.9 0Z" style="stroke:none;fill:#000;stroke-width:2" transform="matrix(-1 0 0 -1 185.8 30)"/></g><g class="arrow-line"><path d="M62.8 15h73.28" class="connection real" style="stroke:#900;stroke-opacity:1;stroke-width:2;fill:none;fill-opacity:1"/><path fill="#900" stroke="none" d="M13.4-6.43 0 0l13.4 6.44L8.9 0Z" style="stroke:none;fill:#900;stroke-width:2" transform="matrix(-1 0 0 -1 140.08 15)"/></g><g class="arrow-line"><path d="M140.08 15h41.72" class="connection real" style="stroke:#900;stroke-opacity:1;stroke-width:2;fill:none;fill-opacity:1"/><path fill="#900" stroke="none" d="M13.4-6.43 0 0l13.4 6.44L8.9 0Z" style="stroke:none;fill:#900;stroke-width:2" transform="matrix(-1 0 0 -1 185.8 15)"/></g></g></svg><svg xmlns="http://www.w3.org/2000/svg" xmlns:xlink="http://www.w3.org/1999/xlink" width="200" height="72.9" style="width:200px;height:72.89999999999999px;font-family:Asana-Math,Asana;background:#fff"><path fill="#000" stroke="#000" stroke-width=".136" d="m44.685 47.812.952.034c.408.017.595.153.595.459 0 .238-.068.782-.153 1.292l-1.275 7.378c-.272 1.547-.306 1.581-.986 1.649l-.697.051-.068.476.714-.017c.799-.034 1.122-.034 1.53-.034l1.649.051h.442l.051-.476-.833-.051c-.459-.034-.612-.17-.612-.51 0-.153.017-.306.068-.595l1.717-9.435a5.8 5.8 0 0 1 1.292-.136c1.479 0 2.261.663 2.261 1.921 0 1.615-1.326 2.805-3.094 2.805h-.748l-.051.187c2.278 3.315 2.805 4.131 4.08 6.29l1.445-.051c.017 0 .255.017.578.051h.221v-.459c-.68-.085-.867-.221-1.36-.935l-3.128-4.675c.935-.17 1.428-.374 2.04-.816.986-.714 1.513-1.649 1.513-2.686 0-1.462-1.088-2.261-2.975-2.227h-5.117Z"/><svg width="12.175" height="10" x="42.9" y="36.1" overflow="visible"><path d="M12.18 4.85 9.03 1.53l-.49.52 1.93 2.33h-.15v.9h.15L8.54 7.61l.49.52zm-10.5.38h10.03v-.9H1.68z" style="fill:#000;fill-opacity:1;stroke-width:1px;stroke:none;stroke-opacity:1"/></svg><path fill="#900" stroke="#900" stroke-width=".136" d="M69.593 53.201v-1.003H60.43v1.003Zm0 3.621v-1.003H60.43v1.003Zm9.017-4.862c.357 0 .629-.017 1.07-.068-1.886 2.04-2.6 3.451-2.6 5.151 0 1.309.782 2.244 1.87 2.244 2.346 0 4.947-4.199 4.947-6.715 0-.969-.442-1.666-1.054-1.666-.221 0-.425.068-.561.204l-.85.799.187.323a.8.8 0 0 1 .459-.153c.459 0 .73.391.73 1.071 0 2.516-1.648 5.287-3.144 5.287-.833 0-1.36-.714-1.36-1.819 0-1.785.663-3.332 2.329-5.406l-.17-.306c-.34.153-.561.204-1.037.204s-1.19-.034-1.683-.085l-.204-.017c-.102-.017-.187-.017-.204-.017-.204 0-.357.034-.544.119-.238.459-.425 1.071-.646 2.006h.374l.288-.714c.12-.289.46-.476.868-.476.56 0 .289.034.935.034Z"/><svg width="9.35" height="10" x="75.788" y="40.1" overflow="visible"><path d="M9.35 4.85 6.2 1.53l-.49.52 1.93 2.33h-.15v.9h.15L5.71 7.61l.49.52zm-7.67.38h7.21v-.9H1.68z" style="fill:#900;fill-opacity:1;stroke-width:1px;stroke:none;stroke-opacity:1"/></svg><path fill="#900" stroke="#900" stroke-width=".095" d="M89.762 65.636v-.357l-.62-.036c-.654-.036-.773-.167-.773-.785V57.27l-2.867 1.214.083.595 1.785-.786v6.165c0 .618-.131.75-.774.785l-.666.036v.357c1.832-.036 1.832-.036 1.963-.036.37 0 1.678.036 1.869.036Z"/><path fill="#900" stroke="#900" stroke-width=".136" d="M105.406 55.003V54h-4.08v-4.046h-1.003V54h-4.08v1.003h4.08V59.1h1.003v-4.097Zm7.316-3.043c.357 0 .629-.017 1.071-.068-1.887 2.04-2.601 3.451-2.601 5.151 0 1.309.782 2.244 1.87 2.244 2.346 0 4.947-4.199 4.947-6.715 0-.969-.442-1.666-1.054-1.666-.221 0-.425.068-.561.204l-.85.799.187.323a.8.8 0 0 1 .459-.153c.459 0 .731.391.731 1.071 0 2.516-1.649 5.287-3.145 5.287-.833 0-1.36-.714-1.36-1.819 0-1.785.663-3.332 2.329-5.406l-.17-.306c-.34.153-.561.204-1.037.204s-1.19-.034-1.683-.085l-.204-.017c-.102-.017-.187-.017-.204-.017-.204 0-.357.034-.544.119-.238.459-.425 1.071-.646 2.006h.374l.289-.714c.119-.289.459-.476.867-.476.561 0 .289.034.935.034Z"/><svg width="9.35" height="10" x="109.9" y="40.1" overflow="visible"><path d="M9.35 4.85 6.2 1.53l-.49.52 1.93 2.33h-.15v.9h.15L5.71 7.61l.49.52zm-7.67.38h7.21v-.9H1.68z" style="fill:#900;fill-opacity:1;stroke-width:1px;stroke:none;stroke-opacity:1"/></svg><path fill="#900" stroke="#900" stroke-width=".095" d="M119.09 65.326v.31c2.226 0 2.226-.036 2.654-.036s.428.036 2.725.036v-1.012c-1.368.06-1.916.012-4.117.06l2.166-2.297c1.154-1.226 1.51-1.88 1.51-2.773 0-1.368-.927-2.213-2.439-2.213-.856 0-1.44.238-2.023.833l-.202 1.618h.345l.155-.547c.19-.69.619-.988 1.416-.988 1.023 0 1.678.643 1.678 1.654 0 .893-.5 1.773-1.845 3.201Z"/><path fill="#900" stroke="#900" stroke-width=".136" d="M139.518 55.003V54h-4.08v-4.046h-1.003V54h-4.08v1.003h4.08V59.1h1.003v-4.097Zm7.317-3.043c.357 0 .629-.017 1.07-.068-1.886 2.04-2.6 3.451-2.6 5.151 0 1.309.782 2.244 1.87 2.244 2.346 0 4.947-4.199 4.947-6.715 0-.969-.442-1.666-1.054-1.666-.221 0-.425.068-.561.204l-.85.799.187.323a.8.8 0 0 1 .459-.153c.459 0 .73.391.73 1.071 0 2.516-1.648 5.287-3.144 5.287-.833 0-1.36-.714-1.36-1.819 0-1.785.663-3.332 2.329-5.406l-.17-.306c-.34.153-.561.204-1.037.204s-1.19-.034-1.683-.085l-.204-.017c-.102-.017-.187-.017-.204-.017-.204 0-.357.034-.544.119-.238.459-.425 1.071-.646 2.006h.374l.289-.714c.119-.289.459-.476.867-.476.56 0 .289.034.935.034Z"/><svg width="9.35" height="10" x="144.013" y="40.1" overflow="visible"><path d="M9.35 4.85 6.2 1.53l-.49.52 1.93 2.33h-.15v.9h.15L5.71 7.61l.49.52zm-7.67.38h7.21v-.9H1.68z" style="fill:#900;fill-opacity:1;stroke-width:1px;stroke:none;stroke-opacity:1"/></svg><path fill="#900" stroke="#900" stroke-width=".095" d="M158.51 62.934c0-1.44-1.273-1.69-1.832-1.785.952-.737 1.309-1.285 1.309-1.987 0-1.059-.88-1.761-2.202-1.761-.809 0-1.344.226-1.916.797l-.345 1.476h.37l.213-.667c.131-.404.88-.809 1.5-.809.773 0 1.404.63 1.404 1.38 0 .893-.702 1.643-1.547 1.643-.095 0-.226-.012-.38-.024l-.18-.012-.142.63.083.072c.452-.202.678-.262 1-.262.987 0 1.559.631 1.559 1.714 0 1.214-.726 2.011-1.833 2.011-.547 0-1.035-.178-1.392-.512-.286-.261-.44-.535-.667-1.178l-.321.12c.25.725.345 1.154.417 1.749.63.214 1.154.309 1.594.309 1.464 0 3.308-1.273 3.308-2.904Z"/></svg></svg>