<svg xmlns="http://www.w3.org/2000/svg" width="245.6" height="162.688" style="width:245.60000610351562px;height:162.6875px;background:#fff;fill:none"><svg xmlns="http://www.w3.org/2000/svg"/><svg xmlns="http://www.w3.org/2000/svg" class="role-diagram-draw-area" style="overflow:visible"><g class="shapes-region" style="stroke:#000;fill:none"><g class="composite-shape"><path d="M80.3 108.95h14.5v14.4H80.3Z" class="real" style="stroke-width:1;stroke:#000;fill:none;fill-opacity:1"/></g><g class="arrow-line"><path stroke-dasharray="3" d="M92.8 123.35h-82" class="connection real" style="stroke:#900;stroke-opacity:1;stroke-width:1;fill:none;fill-opacity:1"/><path stroke="#900" d="M10.93-3.29Q4.96-.45 0 0q4.96.45 10.93 3.29" style="stroke:#900;stroke-width:1" transform="matrix(-1 0 0 -1 94.8 123.35)"/></g><g class="arrow-line"><path stroke-dasharray="3" d="M94.8 13.35v110" class="connection real" style="stroke:#900;stroke-opacity:1;stroke-width:1;fill:none;fill-opacity:1"/><path stroke="#900" d="M10.93-3.29Q4.96-.45 0 0q4.96.45 10.93 3.29" style="stroke:#900;stroke-width:1" transform="rotate(90 41.725 53.075)"/></g><g class="arrow-line"><path d="m92.4 14.55-81.6 108.8" class="connection real" style="stroke:#000;stroke-opacity:1;stroke-width:2;fill:none;fill-opacity:1"/><path fill="#000" stroke="none" d="M13.4-6.43 0 0l13.4 6.44L8.9 0Z" style="stroke:none;fill:#000;stroke-width:2" transform="rotate(126.87 44.563 29.375)"/></g><g class="composite-shape"><path stroke="none" d="M25.06 103.22c5.96 4.46 9.87 11.64 9.99 19.76l-24.25.37Z" class="real" style="stroke-width:1;stroke:none;fill:none;fill-opacity:1"/><path d="M25.06 103.22c5.96 4.46 9.87 11.64 9.99 19.76" class="real" style="stroke-width:1;stroke:#000;fill:none;fill-opacity:1"/></g></g></svg><svg xmlns="http://www.w3.org/2000/svg" xmlns:xlink="http://www.w3.org/1999/xlink" width="244" height="161.088" style="width:244px;height:161.08750915527344px;font-family:Asana-Math,Asana;background:#fff"><path fill="#900" stroke="#900" stroke-width=".136" d="M50.622 139.26c.357 0 .629-.017 1.071-.068-1.887 2.04-2.601 3.451-2.601 5.151 0 1.309.782 2.244 1.87 2.244 2.346 0 4.947-4.199 4.947-6.715 0-.969-.442-1.666-1.054-1.666-.221 0-.425.068-.561.204l-.85.799.187.323a.8.8 0 0 1 .459-.153c.459 0 .731.391.731 1.071 0 2.516-1.649 5.287-3.145 5.287-.833 0-1.36-.714-1.36-1.819 0-1.785.663-3.332 2.329-5.406l-.17-.306c-.34.153-.561.204-1.037.204s-1.19-.034-1.683-.085l-.204-.017c-.102-.017-.187-.017-.204-.017-.204 0-.357.034-.544.119-.238.459-.425 1.071-.646 2.006h.374l.289-.714c.119-.289.459-.476.867-.476.561 0 .289.034.935.034Z"/><svg width="9.35" height="10" x="47.8" y="127.4" overflow="visible"><path d="M9.35 4.85 6.2 1.53l-.49.52 1.93 2.33h-.15v.9h.15L5.71 7.61l.49.52zm-7.67.38h7.21v-.9H1.68z" style="fill:#900;fill-opacity:1;stroke-width:1px;stroke:none;stroke-opacity:1"/></svg><path fill="#900" stroke="#900" stroke-width=".095" d="M56.907 152.888c.179.095.369.143.512.143.392 0 .857-.345 1.225-.904l.905-1.393.13.821c.155 1.012.43 1.476.858 1.476.261 0 .642-.202 1.023-.547l.583-.524-.107-.226c-.428.357-.726.535-.916.535-.179 0-.334-.119-.453-.357a4.7 4.7 0 0 1-.297-1.011l-.214-1.202.416-.583c.56-.774.88-1.047 1.25-1.047.19 0 .333.095.392.273l.167-.047.179-1.012c-.143-.083-.25-.119-.357-.119-.476 0-.952.429-1.69 1.523l-.44.655-.072-.571c-.143-1.178-.464-1.607-1.166-1.607-.31 0-.571.095-.678.25l-.69.988.202.119c.357-.405.595-.571.82-.571.393 0 .655.488.858 1.654l.13.738-.476.737c-.511.798-.916 1.178-1.249 1.178-.179 0-.31-.047-.333-.107l-.131-.333-.238.036c0 .416-.095.726-.143 1.035Z"/><path fill="#000" stroke="#000" stroke-width=".136" d="M38.829 112.572c4.012 0 5.695-5.644 5.763-8.84.034-1.938-.51-3.366-2.669-3.366-4.42 0-5.899 4.93-5.95 8.551-.034 2.023.544 3.655 2.856 3.655Zm2.788-11.764c2.295 0 1.785 3.145 1.428 5.015h-5.372c.425-1.768 1.751-5.015 3.944-5.015Zm-2.516 11.271c-2.567 0-1.802-4.216-1.53-5.712h5.372c-.425 1.904-1.411 5.712-3.842 5.712Z"/><path fill="#900" stroke="#900" stroke-width=".136" d="M104.622 67.66c.357 0 .629-.017 1.071-.068-1.887 2.04-2.601 3.451-2.601 5.151 0 1.309.782 2.244 1.87 2.244 2.346 0 4.947-4.199 4.947-6.715 0-.969-.442-1.666-1.054-1.666-.221 0-.425.068-.561.204l-.85.799.187.323a.8.8 0 0 1 .459-.153c.459 0 .731.391.731 1.071 0 2.516-1.649 5.287-3.145 5.287-.833 0-1.36-.714-1.36-1.819 0-1.785.663-3.332 2.329-5.406l-.17-.306c-.34.153-.561.204-1.037.204s-1.19-.034-1.683-.085l-.204-.017c-.102-.017-.187-.017-.204-.017-.204 0-.357.034-.544.119-.238.459-.425 1.071-.646 2.006h.374l.289-.714c.119-.289.459-.476.867-.476.561 0 .289.034.935.034Z"/><svg width="9.35" height="10" x="101.8" y="55.8" overflow="visible"><path d="M9.35 4.85 6.2 1.53l-.49.52 1.93 2.33h-.15v.9h.15L5.71 7.61l.49.52zm-7.67.38h7.21v-.9H1.68z" style="fill:#900;fill-opacity:1;stroke-width:1px;stroke:none;stroke-opacity:1"/></svg><path fill="#900" stroke="#900" stroke-width=".095" d="M110.717 83.442c-.012.083-.012.155-.012.214 0 .512.44.928.976.928 1.261 0 2.57-1.475 3.272-3.677l1.678-5.236-.13-.107c-.346.131-.62.203-.882.226l-.416 1.571c-.143.56-.56 1.428-.952 2.011-.417.607-1 1.13-1.261 1.13-.143 0-.25-.273-.238-.57l.19-2.464c.024-.369.048-.82.048-1.154 0-.536-.084-.75-.286-.75-.155 0-.321.084-.893.476l-.975.667.13.214.596-.357c.06-.036.19-.143.297-.143.167 0 .262.226.262.619 0 .012 0 .083-.012.178l-.202 2.892-.012.476c0 .5.214.845.511.845.44 0 1.44-1.012 2.333-2.356l-.583 2.035c-.607 2.106-1.202 2.975-2.035 2.975a.727.727 0 0 1-.738-.738c0-.06.012-.155.024-.262l-.12-.048Z"/><path fill="#000" stroke="#000" stroke-width=".136" d="M40.122 56.76c.357 0 .629-.017 1.071-.068-1.887 2.04-2.601 3.451-2.601 5.151 0 1.309.782 2.244 1.87 2.244 2.346 0 4.947-4.199 4.947-6.715 0-.969-.442-1.666-1.054-1.666-.221 0-.425.068-.561.204l-.85.799.187.323a.8.8 0 0 1 .459-.153c.459 0 .731.391.731 1.071 0 2.516-1.649 5.287-3.145 5.287-.833 0-1.36-.714-1.36-1.819 0-1.785.663-3.332 2.329-5.406l-.17-.306c-.34.153-.561.204-1.037.204s-1.19-.034-1.683-.085l-.204-.017c-.102-.017-.187-.017-.204-.017-.204 0-.357.034-.544.119-.238.459-.425 1.071-.646 2.006h.374l.289-.714c.119-.289.459-.476.867-.476.561 0 .289.034.935.034Z"/><svg width="9.35" height="10" x="37.3" y="44.9" overflow="visible"><path d="M9.35 4.85 6.2 1.53l-.49.52 1.93 2.33h-.15v.9h.15L5.71 7.61l.49.52zm-7.67.38h7.21v-.9H1.68z" style="fill:#000;fill-opacity:1;stroke-width:1px;stroke:none;stroke-opacity:1"/></svg><path fill="#900" stroke="#900" stroke-width=".136" d="M145.622 27.885c.357 0 .629-.017 1.071-.068-1.887 2.04-2.601 3.451-2.601 5.151 0 1.309.782 2.244 1.87 2.244 2.346 0 4.947-4.199 4.947-6.715 0-.969-.442-1.666-1.054-1.666-.221 0-.425.068-.561.204l-.85.799.187.323a.8.8 0 0 1 .459-.153c.459 0 .731.391.731 1.071 0 2.516-1.649 5.287-3.145 5.287-.833 0-1.36-.714-1.36-1.819 0-1.785.663-3.332 2.329-5.406l-.17-.306c-.34.153-.561.204-1.037.204s-1.19-.034-1.683-.085l-.204-.017c-.102-.017-.187-.017-.204-.017-.204 0-.357.034-.544.119-.238.459-.425 1.071-.646 2.006h.374l.289-.714c.119-.289.459-.476.867-.476.561 0 .289.034.935.034Z"/><path fill="#900" stroke="#900" stroke-width=".095" d="M151.704 40.18c-.012.083-.012.154-.012.214 0 .511.44.928.976.928 1.261 0 2.57-1.476 3.273-3.677l1.677-5.236-.13-.107c-.346.13-.62.202-.881.226l-.417 1.57c-.142.56-.559 1.429-.952 2.012-.416.607-1 1.13-1.26 1.13-.144 0-.25-.274-.239-.571l.19-2.463c.024-.37.048-.821.048-1.155 0-.535-.083-.75-.286-.75-.154 0-.32.084-.892.477l-.976.666.131.214.595-.357c.06-.035.19-.143.298-.143.166 0 .261.227.261.62 0 .011 0 .083-.012.178l-.202 2.891-.012.476c0 .5.214.845.512.845.44 0 1.44-1.011 2.332-2.356l-.583 2.035c-.607 2.106-1.202 2.975-2.035 2.975a.727.727 0 0 1-.737-.738c0-.06.011-.154.023-.262l-.119-.047Z"/><path fill="#900" stroke="#900" stroke-width=".136" d="M174.106 29.126v-1.003h-9.163v1.003Zm0 3.621v-1.003h-9.163v1.003Z"/><path fill="#000" stroke="#000" stroke-width=".136" d="M183.122 27.885c.357 0 .629-.017 1.071-.068-1.887 2.04-2.601 3.451-2.601 5.151 0 1.309.782 2.244 1.87 2.244 2.346 0 4.947-4.199 4.947-6.715 0-.969-.442-1.666-1.054-1.666-.221 0-.425.068-.561.204l-.85.799.187.323a.8.8 0 0 1 .459-.153c.459 0 .731.391.731 1.071 0 2.516-1.649 5.287-3.145 5.287-.833 0-1.36-.714-1.36-1.819 0-1.785.663-3.332 2.329-5.406l-.17-.306c-.34.153-.561.204-1.037.204s-1.19-.034-1.683-.085l-.204-.017c-.102-.017-.187-.017-.204-.017-.204 0-.357.034-.544.119-.238.459-.425 1.071-.646 2.006h.374l.289-.714c.119-.289.459-.476.867-.476.561 0 .289.034.935.034Zm6.362 4.709c0 1.173-.05 1.683-.187 2.363.884.289 1.547.408 2.33.408 2.226 0 3.807-1.19 3.807-2.856 0-2.941-4.828-1.36-4.828-3.57 0-.85.595-1.326 1.632-1.326 1.14 0 2.006.595 2.006 1.394v.391h.476c.017-.986.034-1.394.085-1.921-.9-.306-1.513-.425-2.21-.425-1.972 0-3.179.935-3.179 2.465 0 .816.374 1.394 1.156 1.751 2.006.884 3.604.442 3.604 1.904 0 .918-.85 1.564-2.057 1.564-1.24 0-2.125-.595-2.125-1.445v-.697Zm9.69-5.474-.153-.068a10 10 0 0 1-2.652.697v.476h.63c.68 0 .747.119.747 1.241v3.825c0 1.071-.05 1.19-.629 1.224l-.782.051v.51c1.7-.051 1.7-.051 2.125-.051s.425 0 2.125.051v-.51l-.782-.051c-.578-.034-.629-.153-.629-1.224Zm-.782-3.774a.973.973 0 0 0-.952.952c0 .493.442.935.935.935s.952-.442.952-.935c0-.476-.459-.952-.935-.952Zm9.486 11.73c1.037-.051 1.054-.051 1.343-.051.238 0 .238 0 1.411.051v-.51l-.697-.051c-.578-.034-.629-.136-.629-1.224V30.01c0-1.989-.935-2.958-2.839-2.958-.629 0-.986.119-1.343.425l-1.292 1.122V27.12l-.153-.068a10 10 0 0 1-2.652.697v.476h.63c.68 0 .747.119.747 1.241v3.825c0 1.071-.05 1.19-.629 1.224l-.765.051v.51c1.156-.034 1.615-.051 2.108-.051s.952.017 2.108.051v-.51l-.765-.051c-.578-.034-.629-.153-.629-1.224v-3.604c0-.765 1.122-1.598 2.16-1.598 1.138 0 1.886.85 1.886 2.159Zm5.392-4.573c0-4.42 1.648-6.222 2.634-7.378l-.323-.442c-.969.867-3.774 3.128-3.774 7.82 0 1.819.425 3.536 1.241 5.066.595 1.139 1.14 1.802 2.533 3.111l.323-.357c-.782-.969-2.635-3.043-2.635-7.82Zm7.197 4.794c4.011 0 5.694-5.644 5.762-8.84.034-1.938-.51-3.366-2.669-3.366-4.42 0-5.899 4.93-5.95 8.551-.034 2.023.544 3.655 2.856 3.655Zm2.787-11.764c2.296 0 1.786 3.145 1.429 5.015h-5.373c.425-1.768 1.751-5.015 3.945-5.015Zm-2.516 11.271c-2.566 0-1.802-4.216-1.53-5.712h5.373c-.425 1.904-1.411 5.712-3.843 5.712Zm6.992-12.121-.324.442c.935 1.088 2.635 2.958 2.635 7.378 0 4.692-1.768 6.749-2.635 7.82l.323.357c.901-.85 3.774-3.264 3.774-8.16 0-4.709-2.805-6.97-3.774-7.837Z"/><path fill="#900" stroke="#900" stroke-width=".136" d="M146.285 56.985c.357 0 .629-.017 1.07-.068-1.886 2.04-2.6 3.451-2.6 5.151 0 1.309.782 2.244 1.87 2.244 2.346 0 4.947-4.199 4.947-6.715 0-.969-.442-1.666-1.054-1.666-.221 0-.425.068-.561.204l-.85.799.187.323a.8.8 0 0 1 .459-.153c.459 0 .73.391.73 1.071 0 2.516-1.648 5.287-3.144 5.287-.833 0-1.36-.714-1.36-1.819 0-1.785.663-3.332 2.329-5.406l-.17-.306c-.34.153-.561.204-1.037.204s-1.19-.034-1.683-.085l-.204-.017c-.102-.017-.187-.017-.204-.017-.204 0-.357.034-.544.119-.238.459-.425 1.071-.646 2.006h.374l.289-.714c.119-.289.459-.476.867-.476.56 0 .289.034.935.034Z"/><path fill="#900" stroke="#900" stroke-width=".095" d="M152.557 67.126c.179.095.369.142.512.142.393 0 .857-.345 1.226-.904l.904-1.392.13.82c.156 1.012.43 1.476.858 1.476.261 0 .642-.202 1.023-.547l.583-.524-.107-.226c-.428.357-.726.536-.916.536-.179 0-.333-.12-.452-.357a4.7 4.7 0 0 1-.298-1.012l-.214-1.202.416-.583c.56-.773.88-1.047 1.25-1.047.19 0 .333.095.393.274l.166-.048.179-1.011c-.143-.084-.25-.12-.357-.12-.476 0-.952.43-1.69 1.524l-.44.654-.072-.57c-.143-1.179-.464-1.607-1.166-1.607-.31 0-.571.095-.678.25l-.69.987.202.12c.357-.405.595-.572.82-.572.394 0 .655.488.858 1.654l.13.738-.475.738c-.512.797-.917 1.178-1.25 1.178-.178 0-.31-.048-.333-.107l-.131-.333-.238.035c0 .417-.095.726-.143 1.036Z"/><path fill="#900" stroke="#900" stroke-width=".136" d="M174.768 58.226v-1.003h-9.163v1.003Zm0 3.621v-1.003h-9.163v1.003Z"/><path fill="#000" stroke="#000" stroke-width=".136" d="M183.785 56.985c.357 0 .629-.017 1.07-.068-1.886 2.04-2.6 3.451-2.6 5.151 0 1.309.782 2.244 1.87 2.244 2.346 0 4.947-4.199 4.947-6.715 0-.969-.442-1.666-1.054-1.666-.221 0-.425.068-.561.204l-.85.799.187.323a.8.8 0 0 1 .459-.153c.459 0 .73.391.73 1.071 0 2.516-1.648 5.287-3.144 5.287-.833 0-1.36-.714-1.36-1.819 0-1.785.663-3.332 2.329-5.406l-.17-.306c-.34.153-.561.204-1.037.204s-1.19-.034-1.683-.085l-.204-.017c-.102-.017-.187-.017-.204-.017-.204 0-.357.034-.544.119-.238.459-.425 1.071-.646 2.006h.374l.289-.714c.119-.289.459-.476.867-.476.56 0 .289.034.935.034Zm11.475 1.53h.39c.137-1.105.256-1.734.409-2.176-.408-.255-1.003-.408-1.632-.408-.765-.017-2.006.323-2.975 1.394-.918.816-1.581 2.703-1.581 4.488 0 1.632.714 2.499 2.074 2.499.918 0 1.734-.34 2.669-1.105l.85-.697-.136-.34-.255.17c-1.224.816-1.87 1.105-2.465 1.105-.952 0-1.445-.68-1.445-2.023 0-1.836.595-3.604 1.428-4.25.357-.272.765-.408 1.292-.408.765 0 1.377.323 1.377.731Zm1.377 3.026c0 1.802.765 2.771 2.176 2.771.935 0 1.955-.442 2.72-1.156 1.054-1.003 1.802-2.941 1.802-4.658 0-1.598-.85-2.567-2.261-2.567-1.768 0-4.437 1.7-4.437 5.61Zm3.808-4.964c1.037 0 1.598.765 1.598 2.193 0 1.632-.527 3.434-1.275 4.335-.306.357-.748.561-1.275.561-.986 0-1.564-.765-1.564-2.108 0-1.921.663-4.012 1.496-4.692.22-.187.612-.289 1.02-.289Zm3.96 5.032a15 15 0 0 1-.373 2.244c.646.306 1.224.459 1.819.459.833 0 1.615-.306 2.482-.986s1.224-1.309 1.224-2.159c0-.918-.544-1.411-1.802-1.649l-.731-.136c-1.02-.187-1.343-.476-1.343-1.173 0-.901.765-1.598 1.734-1.598.697 0 1.343.306 1.615.765v.935h.39c.069-.595.137-1.054.324-1.921-.663-.323-1.14-.459-1.7-.459-.884 0-1.921.51-2.737 1.326-.442.459-.63.884-.63 1.496 0 .952.528 1.496 1.65 1.717l1.07.204c.749.136 1.02.442 1.02 1.105 0 1.105-.781 1.853-1.988 1.853a2.37 2.37 0 0 1-1.598-.595v-1.428Zm8.552-2.006c0-4.42 1.649-6.222 2.635-7.378l-.323-.442c-.969.867-3.774 3.128-3.774 7.82 0 1.819.425 3.536 1.241 5.066.595 1.139 1.139 1.802 2.533 3.111l.323-.357c-.782-.969-2.635-3.043-2.635-7.82Zm7.197 4.794c4.012 0 5.695-5.644 5.763-8.84.034-1.938-.51-3.366-2.669-3.366-4.42 0-5.899 4.93-5.95 8.551-.034 2.023.544 3.655 2.856 3.655Zm2.788-11.764c2.295 0 1.785 3.145 1.428 5.015h-5.372c.425-1.768 1.751-5.015 3.944-5.015Zm-2.516 11.271c-2.567 0-1.802-4.216-1.53-5.712h5.372c-.425 1.904-1.411 5.712-3.842 5.712Zm6.991-12.121-.323.442c.935 1.088 2.635 2.958 2.635 7.378 0 4.692-1.768 6.749-2.635 7.82l.323.357c.901-.85 3.774-3.264 3.774-8.16 0-4.709-2.805-6.97-3.774-7.837Z"/></svg></svg>