<svg xmlns="http://www.w3.org/2000/svg" width="308.6" height="301.6" style="width:308.6000061035156px;height:301.6000061035156px;background:0 0;fill:none"><svg xmlns="http://www.w3.org/2000/svg"/><svg xmlns="http://www.w3.org/2000/svg" class="role-diagram-draw-area" style="overflow:visible"><g class="shapes-region" style="stroke:#000;fill:none"><g class="arrow-line"><path d="M153.71 152h140.8" class="connection real" style="stroke:#000;stroke-width:1;fill:none;fill-opacity:1"/><path d="M10.93-3.29Q4.96-.45 0 0q4.96.45 10.93 3.29" style="stroke:#000;stroke-width:1" transform="matrix(-1 0 0 -1 296.514 152)"/></g><g class="arrow-line"><path d="M153.71 152H12.91" class="connection real" style="stroke:#000;stroke-width:1;fill:none;fill-opacity:1"/><path d="M10.93-3.29Q4.96-.45 0 0q4.96.45 10.93 3.29" style="stroke:#000;stroke-width:1" transform="translate(10.914 152)"/></g><g class="arrow-line"><path d="M153.71 152v140.8" class="connection real" style="stroke:#000;stroke-width:1;fill:none;fill-opacity:1"/><path d="M10.93-3.29Q4.96-.45 0 0q4.96.45 10.93 3.29" style="stroke:#000;stroke-width:1" transform="rotate(-90 224.257 70.543)"/></g><g class="arrow-line"><path d="M153.71 152V11.2" class="connection real" style="stroke:#000;stroke-width:1;fill:none;fill-opacity:1"/><path d="M10.93-3.29Q4.96-.45 0 0q4.96.45 10.93 3.29" style="stroke:#000;stroke-width:1" transform="rotate(90 72.257 81.457)"/></g><g class="arrow-line"><path d="m153.71 152-35.47 109.18" class="connection real" style="stroke:#900;stroke-opacity:1;stroke-width:2;fill:none;fill-opacity:1"/><path fill="#900" stroke="none" d="M10.72-5.15 0 0l10.72 5.15L7.12 0Z" style="stroke:none;fill:#900;stroke-width:2" transform="rotate(-72 240.362 51.284)"/></g><g class="composite-shape"><path stroke="none" d="M148.99 166.53c-6.12-1.99-10.55-7.74-10.55-14.53 0-8.43 6.84-15.27 15.27-15.27 8.44 0 15.28 6.84 15.28 15.27h-15.28Z" class="real" style="stroke-width:1;stroke:none;stroke-opacity:1;fill:none;fill-opacity:1"/><path d="M148.99 166.53c-6.12-1.99-10.55-7.74-10.55-14.53 0-8.43 6.84-15.27 15.27-15.27 8.44 0 15.28 6.84 15.28 15.27" class="real" style="stroke-width:1;stroke:#900;stroke-opacity:1;fill:none;fill-opacity:1"/></g><g class="arrow-line"><path d="M197.43 107.31c-24.64.56-3.46 20.06-30.3 34.01" class="connection real" style="stroke:#900;stroke-opacity:1;stroke-width:1;fill:none;fill-opacity:1"/><path stroke="#900" d="M10.93-3.29Q4.96-.45 0 0q4.96.45 10.93 3.29" style="stroke:#900;stroke-width:1" transform="rotate(-25.44 397.634 -295.35)"/></g><g class="arrow-line"><path stroke-dasharray="3" d="M117.31 152.17v111.86" class="connection real" style="stroke:#900;stroke-opacity:1;stroke-width:1;fill:none;fill-opacity:1"/></g><g class="arrow-line"><path stroke-dasharray="3" d="m153.71 152-36.4.17" class="connection real" style="stroke:#900;stroke-opacity:1;stroke-width:1;fill:none;fill-opacity:1"/></g><g class="composite-shape"><path d="M117.31 152.17h9.83v9.89h-9.83Z" class="real" style="stroke-width:1;stroke:#000;fill:none;fill-opacity:1"/></g></g></svg><svg xmlns="http://www.w3.org/2000/svg" xmlns:xlink="http://www.w3.org/1999/xlink" width="307" height="300" style="width:307px;height:300px;font-family:Asana-Math,Asana;background:0 0"><path fill="#900" stroke="#900" stroke-width=".136" d="M200.835 113.172v.442c3.178 0 3.178-.051 3.79-.051s.613.05 3.893.05v-1.444c-1.954.085-2.737.017-5.881.085l3.094-3.281c1.649-1.751 2.159-2.686 2.159-3.961 0-1.955-1.326-3.162-3.485-3.162-1.225 0-2.058.34-2.89 1.19l-.29 2.312h.494l.22-.782c.273-.986.885-1.411 2.024-1.411 1.462 0 2.397.918 2.397 2.363 0 1.275-.715 2.533-2.636 4.573Zm16.013-3.91c0-1.921-1.377-3.281-3.315-3.281-.815 0-1.427.05-2.328.85v-3.553l5.184.017v-1.445l-6.068-.017v6.256l.34.102c.798-.8 1.257-1.037 2.09-1.037 1.632 0 2.653 1.156 2.653 2.992 0 1.887-1.089 2.992-2.941 2.992-.918 0-1.768-.306-2.006-.748l-.782-1.394-.409.238c.392.969.596 1.513.834 2.26.476.256 1.156.409 1.887.409 2.175 0 4.862-1.853 4.862-4.641Zm.952 3.91v.442c3.18 0 3.18-.051 3.791-.051.612 0 .612.05 3.893.05v-1.444c-1.954.085-2.737.017-5.882.085l3.095-3.281c1.649-1.751 2.159-2.686 2.159-3.961 0-1.955-1.326-3.162-3.486-3.162-1.224 0-2.056.34-2.89 1.19l-.288 2.312h.493l.22-.782c.273-.986.885-1.411 2.024-1.411 1.462 0 2.397.918 2.397 2.363 0 1.275-.714 2.533-2.636 4.573Zm11.594-11.322a2.543 2.543 0 0 0-2.532 2.55 2.547 2.547 0 0 0 2.55 2.55c1.376 0 2.55-1.156 2.55-2.516a2.57 2.57 0 0 0-2.567-2.584Zm0 .68c1.037 0 1.887.85 1.887 1.904 0 .986-.85 1.836-1.87 1.836a1.865 1.865 0 0 1-1.87-1.87c0-1.037.834-1.87 1.853-1.87Z"/></svg></svg>