<svg xmlns="http://www.w3.org/2000/svg" width="308.6" height="301.6" style="width:308.6000061035156px;height:301.6000061035156px;background:0 0;fill:none"><svg xmlns="http://www.w3.org/2000/svg"/><svg xmlns="http://www.w3.org/2000/svg" class="role-diagram-draw-area" style="overflow:visible"><g class="shapes-region" style="stroke:#000;fill:none"><g class="arrow-line"><path d="M153.71 152h140.8" class="connection real" style="stroke:#000;stroke-width:1;fill:none;fill-opacity:1"/><path d="M10.93-3.29Q4.96-.45 0 0q4.96.45 10.93 3.29" style="stroke:#000;stroke-width:1" transform="matrix(-1 0 0 -1 296.514 152)"/></g><g class="arrow-line"><path d="M153.71 152H12.91" class="connection real" style="stroke:#000;stroke-width:1;fill:none;fill-opacity:1"/><path d="M10.93-3.29Q4.96-.45 0 0q4.96.45 10.93 3.29" style="stroke:#000;stroke-width:1" transform="translate(10.914 152)"/></g><g class="arrow-line"><path d="M153.71 152v140.8" class="connection real" style="stroke:#000;stroke-width:1;fill:none;fill-opacity:1"/><path d="M10.93-3.29Q4.96-.45 0 0q4.96.45 10.93 3.29" style="stroke:#000;stroke-width:1" transform="rotate(-90 224.257 70.543)"/></g><g class="arrow-line"><path d="M153.71 152V11.2" class="connection real" style="stroke:#000;stroke-width:1;fill:none;fill-opacity:1"/><path d="M10.93-3.29Q4.96-.45 0 0q4.96.45 10.93 3.29" style="stroke:#000;stroke-width:1" transform="rotate(90 72.257 81.457)"/></g><g class="arrow-line"><path d="M153.71 152H266" class="connection real" style="stroke:#900;stroke-opacity:1;stroke-width:2;fill:none;fill-opacity:1"/><path fill="#900" stroke="none" d="M13.4-6.43 0 0l13.4 6.44L8.9 0Z" style="stroke:none;fill:#900;stroke-width:2" transform="matrix(-1 0 0 -1 270 152)"/></g><g class="arrow-line"><path d="m270.09 152.29-66.52-95.01" class="connection real" style="stroke:#900;stroke-opacity:1;stroke-width:2;fill:none;fill-opacity:1"/><path fill="#900" stroke="none" d="M13.4-6.43 0 0l13.4 6.44L8.9 0Z" style="stroke:none;fill:#900;stroke-width:2" transform="rotate(55 48.763 220.326)"/></g><g class="composite-shape"><path stroke="none" d="M255.66 131.52c4.06-2.85 9-4.52 14.34-4.52v25Z" class="real" style="stroke-width:1;stroke:none;fill:none;fill-opacity:1;stroke-opacity:1"/><path d="M255.66 131.52c4.06-2.85 9-4.52 14.34-4.52" class="real" style="stroke-width:1;stroke:#900;fill:none;fill-opacity:1;stroke-opacity:1"/></g><g class="arrow-line"><path d="m153.71 152 45.82-94.39" class="connection real" style="stroke:#000;stroke-opacity:1;stroke-width:2;fill:none;fill-opacity:1"/><path fill="#000" stroke="none" d="M13.4-6.43 0 0l13.4 6.44L8.9 0Z" style="stroke:none;fill:#000;stroke-width:2" transform="rotate(115.89 83.727 90.023)"/></g><g class="arrow-line"><path stroke-dasharray="3" d="M201.27 54.01H270" class="connection real" style="stroke:#900;stroke-width:1;fill:none;fill-opacity:1;stroke-opacity:1"/></g><g class="composite-shape"><path d="M259.27 54.01H270v10h-10.73Z" class="real" style="stroke-width:1;stroke:#000;fill:none;fill-opacity:1"/></g><g class="arrow-line"><path d="M253 92.55c19.99 20.96-4.7 13.41 8.88 33.41" class="connection real" style="stroke:#000;stroke-width:1;fill:none;fill-opacity:1"/><path d="M10.93-3.29Q4.96-.45 0 0q4.96.45 10.93 3.29" style="stroke:#000;stroke-width:1" transform="rotate(233.97 163.974 -3.184)"/></g><g class="arrow-line"><path stroke-dasharray="3" d="M270 152V54.01" class="connection real" style="stroke:#900;stroke-width:1;fill:none;fill-opacity:1;stroke-opacity:1"/></g></g></svg><svg xmlns="http://www.w3.org/2000/svg" xmlns:xlink="http://www.w3.org/1999/xlink" width="307" height="300" style="width:307px;height:300px;font-family:Asana-Math,Asana;background:0 0"><path fill="#000" stroke="#000" stroke-width=".136" d="M240.654 85.492c0-2.057-1.819-2.414-2.618-2.55 1.36-1.054 1.87-1.836 1.87-2.839 0-1.513-1.258-2.516-3.145-2.516-1.156 0-1.921.323-2.737 1.139l-.493 2.108h.527l.306-.952c.187-.578 1.258-1.156 2.142-1.156 1.105 0 2.006.901 2.006 1.972 0 1.275-1.003 2.346-2.21 2.346-.136 0-.323-.017-.544-.034l-.255-.017-.204.901.119.102c.646-.289.969-.374 1.428-.374 1.411 0 2.227.901 2.227 2.448 0 1.734-1.037 2.873-2.618 2.873-.782 0-1.479-.255-1.989-.731-.408-.374-.629-.765-.952-1.683l-.459.17c.357 1.037.493 1.649.595 2.499.901.306 1.649.442 2.278.442 2.091 0 4.726-1.819 4.726-4.148Zm8.432-.493c0-1.921-1.377-3.281-3.315-3.281-.816 0-1.428.051-2.329.85v-3.553l5.185.017v-1.445l-6.069-.017v6.256l.34.102c.799-.799 1.258-1.037 2.091-1.037 1.632 0 2.652 1.156 2.652 2.992 0 1.887-1.088 2.992-2.941 2.992-.918 0-1.768-.306-2.006-.748l-.782-1.394-.408.238c.391.969.595 1.513.833 2.261.476.255 1.156.408 1.887.408 2.176 0 4.862-1.853 4.862-4.641Zm4.063-7.412a2.543 2.543 0 0 0-2.533 2.55 2.547 2.547 0 0 0 2.55 2.55c1.377 0 2.55-1.156 2.55-2.516a2.57 2.57 0 0 0-2.567-2.584Zm0 .68c1.037 0 1.887.85 1.887 1.904 0 .986-.85 1.836-1.87 1.836a1.865 1.865 0 0 1-1.87-1.87c0-1.037.833-1.87 1.853-1.87Z"/></svg></svg>