<svg xmlns="http://www.w3.org/2000/svg" width="201.6" height="179.2" style="width:201.5999959309896px;height:179.20001220703125px;background:0 0;fill:none"><svg xmlns="http://www.w3.org/2000/svg"/><svg xmlns="http://www.w3.org/2000/svg" class="role-diagram-draw-area" style="overflow:visible"><g class="shapes-region" style="stroke:#000;fill:none"><g class="composite-shape"><path d="M112.06 129.88h10.33v11.03h-10.33Z" class="real" style="stroke-width:1;stroke:#000;fill:none;fill-opacity:1"/></g><g class="arrow-line"><path d="M11.71 140.91 119.86 8.15" class="connection real" style="stroke:#000;stroke-opacity:1;stroke-width:2;fill:none;fill-opacity:1"/><path fill="#000" stroke="none" d="M13.4-6.43 0 0l13.4 6.44L8.9 0Z" style="stroke:none;fill:#000;stroke-width:2" transform="rotate(129.17 59.994 31.601)"/></g><g class="arrow-line"><path stroke-dasharray="3" d="M11.71 140.91h108.68" class="connection real" style="stroke:#900;stroke-opacity:1;stroke-width:1;fill:none;fill-opacity:1"/><path stroke="#900" d="M10.93-3.29Q4.96-.45 0 0q4.96.45 10.93 3.29" style="stroke:#900;stroke-width:1" transform="matrix(-1 0 0 -1 122.387 140.91)"/></g><g class="arrow-line"><path stroke-dasharray="3" d="M122.39 140.91V7.05" class="connection real" style="stroke:#900;stroke-opacity:1;stroke-width:1;fill:none;fill-opacity:1"/><path stroke="#900" d="M10.93-3.29Q4.96-.45 0 0q4.96.45 10.93 3.29" style="stroke:#900;stroke-width:1" transform="rotate(90 58.668 63.718)"/></g></g></svg><svg xmlns="http://www.w3.org/2000/svg" xmlns:xlink="http://www.w3.org/1999/xlink" width="200" height="177.6" style="width:200px;height:177.59999593098956px;font-family:Asana-Math,Asana;background:0 0"><path fill="#900" stroke="#900" stroke-width=".136" d="M48.86 160.673c.356 0 .628-.018 1.07-.069-1.887 2.04-2.6 3.451-2.6 5.151 0 1.31.781 2.245 1.87 2.245 2.345 0 4.946-4.2 4.946-6.715 0-.97-.442-1.666-1.054-1.666-.22 0-.425.067-.56.203l-.85.8.186.322a.8.8 0 0 1 .46-.153c.458 0 .73.392.73 1.072 0 2.516-1.649 5.286-3.145 5.286-.833 0-1.36-.714-1.36-1.819 0-1.785.663-3.332 2.33-5.406l-.17-.305c-.34.153-.562.203-1.038.203s-1.19-.034-1.683-.084l-.204-.018c-.102-.017-.187-.017-.204-.017a1.2 1.2 0 0 0-.544.12c-.238.458-.425 1.07-.646 2.005h.374l.29-.714c.118-.288.458-.476.866-.476.561 0 .29.035.935.035Z"/><path fill="#900" stroke="#900" stroke-width=".095" d="M55.132 170.813c.179.095.369.143.512.143.393 0 .857-.345 1.226-.904l.904-1.393.13.821c.156 1.012.43 1.476.858 1.476.261 0 .642-.202 1.023-.547l.583-.524-.107-.226c-.428.357-.726.535-.916.535-.179 0-.333-.119-.452-.357a4.7 4.7 0 0 1-.298-1.011l-.214-1.202.416-.583c.56-.774.88-1.047 1.25-1.047.19 0 .333.095.393.273l.166-.047.179-1.012c-.143-.083-.25-.119-.357-.119-.476 0-.952.429-1.69 1.523l-.44.655-.072-.571c-.143-1.178-.464-1.607-1.166-1.607-.31 0-.571.095-.678.25l-.69.988.202.119c.357-.405.595-.571.82-.571.394 0 .655.488.858 1.654l.13.738-.475.737c-.512.798-.917 1.178-1.25 1.178-.178 0-.31-.047-.333-.107l-.131-.333-.238.036c0 .416-.095.726-.143 1.035Z"/><svg width="16.787" height="10" x="46.037" y="144.813" overflow="visible"><path d="m16.79 5.39-3.5-3.69-.54.58 2.14 2.58h-.17v1h.17l-2.14 2.58.54.58zm-14.92.42h14.41v-1H1.87z" style="fill:#900;fill-opacity:1;stroke-width:1px;stroke:none;stroke-opacity:1"/></svg><path fill="#900" stroke="#900" stroke-width=".136" d="M77.343 161.914v-1.003H68.18v1.002Zm0 3.62v-1.002H68.18v1.002Zm14.048-1.529c0-2.058-1.819-2.415-2.618-2.55 1.36-1.055 1.87-1.837 1.87-2.84 0-1.513-1.258-2.516-3.145-2.516-1.156 0-1.92.324-2.737 1.14l-.493 2.107h.527l.306-.952c.187-.578 1.258-1.156 2.142-1.156 1.105 0 2.006.901 2.006 1.972 0 1.275-1.003 2.346-2.21 2.346-.136 0-.323-.017-.544-.034l-.255-.016-.204.9.12.102c.645-.288.968-.374 1.427-.374 1.411 0 2.227.902 2.227 2.449 0 1.733-1.037 2.873-2.618 2.873-.782 0-1.479-.255-1.989-.731-.408-.374-.629-.766-.952-1.683l-.459.17c.357 1.037.493 1.649.595 2.499.901.305 1.65.441 2.278.441 2.091 0 4.726-1.819 4.726-4.147Zm1.212-2.788.119.34.544-.357c.629-.391.68-.425.799-.425.17 0 .306.17.306.39 0 .12-.068.51-.136.749l-1.122 4.08c-.136.526-.221.986-.221 1.309 0 .407.187.662.51.662.442 0 1.054-.357 2.72-1.597l-.17-.306-.442.288c-.493.323-.884.51-1.037.51-.119 0-.221-.17-.221-.34s.034-.323.119-.68l1.309-5.167c.068-.29.102-.477.102-.613 0-.288-.153-.441-.425-.441-.374 0-1.003.357-2.278 1.257Zm3.298-5.509c-.493 0-.986.561-.986 1.14 0 .424.255.696.663.696.527 0 .935-.493.935-1.139 0-.407-.255-.697-.612-.697Z"/><svg width="5.1" height="9" x="92.025" y="144.813" overflow="visible"><path d="m0 8.06 2.55-1.7 2.55 1.7" style="fill:none;fill-opacity:1;stroke-width:1px;stroke:#900;stroke-opacity:1"/></svg><path fill="#900" stroke="#900" stroke-width=".136" d="M141.01 79.61c.357 0 .629-.017 1.07-.068-1.887 2.04-2.6 3.451-2.6 5.151 0 1.309.782 2.244 1.87 2.244 2.346 0 4.947-4.199 4.947-6.715 0-.969-.442-1.666-1.054-1.666-.221 0-.425.068-.561.204l-.85.799.186.323a.8.8 0 0 1 .46-.153c.458 0 .73.391.73 1.071 0 2.516-1.648 5.287-3.144 5.287-.833 0-1.36-.714-1.36-1.819 0-1.785.662-3.332 2.328-5.406l-.17-.306c-.34.153-.56.204-1.036.204s-1.19-.034-1.683-.085l-.204-.017c-.102-.017-.187-.017-.204-.017a1.2 1.2 0 0 0-.545.119c-.238.459-.424 1.071-.645 2.006h.374l.288-.714c.12-.289.46-.476.868-.476.56 0 .288.034.935.034Z"/><path fill="#900" stroke="#900" stroke-width=".095" d="M147.092 91.904c-.012.084-.012.155-.012.215 0 .511.44.928.976.928 1.261 0 2.57-1.476 3.272-3.677l1.678-5.236-.13-.107c-.346.13-.62.202-.881.226l-.417 1.57c-.143.56-.56 1.429-.952 2.012-.416.607-1 1.13-1.261 1.13-.143 0-.25-.274-.238-.571l.19-2.463c.024-.37.048-.821.048-1.155 0-.535-.084-.75-.286-.75-.155 0-.321.084-.892.477l-.976.666.13.214.596-.357c.06-.035.19-.143.297-.143.167 0 .262.227.262.62 0 .011 0 .083-.012.178l-.202 2.891-.012.476c0 .5.214.845.512.845.44 0 1.44-1.011 2.332-2.356l-.583 2.035c-.607 2.106-1.202 2.975-2.035 2.975a.727.727 0 0 1-.738-.738c0-.06.012-.154.024-.262l-.12-.047Z"/><svg width="16.787" height="10" x="138.188" y="63.75" overflow="visible"><path d="m16.79 5.39-3.5-3.69-.54.58 2.14 2.58h-.17v1h.17l-2.14 2.58.54.58zm-14.92.42h14.41v-1H1.87z" style="fill:#900;fill-opacity:1;stroke-width:1px;stroke:none;stroke-opacity:1"/></svg><path fill="#900" stroke="#900" stroke-width=".136" d="M169.493 80.851v-1.003h-9.163v1.003Zm0 3.621v-1.003h-9.163v1.003Zm10.955-.799v1.275c0 1.02-.187 1.258-1.02 1.292l-1.054.051v.51c2.26-.051 2.26-.051 2.668-.051s.409 0 2.67.051v-.51l-.816-.051c-.833-.051-1.02-.272-1.02-1.292v-1.275c1.002 0 1.36.017 1.835.068v-1.207l-1.836.051.018-7.684-1.36.51-4.811 7.871v.391Zm0-1.088h-3.656l3.655-5.984Zm7.025-1.802-1.7 8.415c-.187.884-.493 1.479-.799 1.479-.238 0-.544-.102-.901-.323l-.136.969c.17.085.391.119.646.119.68 0 1.36-.731 1.972-2.108.34-.765.578-1.615 1.054-3.774l1.292-5.95c.068-.306.102-.527.102-.629 0-.272-.153-.425-.425-.425-.374 0-1.003.357-2.278 1.258l-.476.34.119.34.544-.357c.629-.391.68-.425.799-.425.17 0 .306.17.306.391 0 .153-.119.595-.119.68Zm1.547-6.137c-.493 0-.986.561-.986 1.139 0 .425.255.697.663.697.527 0 .935-.493.935-1.139 0-.408-.255-.697-.612-.697Z"/><svg width="6.8" height="9" x="187.575" y="63.75" overflow="visible"><path d="m0 8.06 3.4-2.27 3.4 2.27" style="fill:none;fill-opacity:1;stroke-width:1px;stroke:#900;stroke-opacity:1"/></svg><g transform="rotate(-49.96 49.325 63.775)"><path fill="#000" stroke="#000" stroke-width=".136" d="M14.216 66.435c.357 0 .629-.017 1.07-.068-1.886 2.04-2.6 3.451-2.6 5.151 0 1.309.782 2.244 1.87 2.244 2.346 0 4.947-4.199 4.947-6.715 0-.969-.442-1.666-1.054-1.666-.221 0-.425.068-.561.204l-.85.799.187.323a.8.8 0 0 1 .459-.153c.459 0 .73.391.73 1.071 0 2.516-1.648 5.287-3.144 5.287-.833 0-1.36-.714-1.36-1.819 0-1.785.663-3.332 2.329-5.406l-.17-.306c-.34.153-.561.204-1.037.204s-1.19-.034-1.683-.085l-.204-.017c-.102-.017-.187-.017-.204-.017-.204 0-.357.034-.544.119-.238.459-.425 1.071-.646 2.006h.374l.289-.714c.119-.289.459-.476.867-.476.56 0 .289.034.935.034Z"/><svg width="9.35" height="10" x="11.394" y="54.575" overflow="visible"><path d="M9.35 4.85 6.2 1.53l-.49.52 1.93 2.33h-.15v.9h.15L5.71 7.61l.49.52zm-7.67.38h7.21v-.9H1.68z" style="fill:#000;fill-opacity:1;stroke-width:1px;stroke:none;stroke-opacity:1"/></svg></g><path fill="#000" stroke="#000" stroke-width=".136" d="m43.264 77.051-.768-.645-5.894 7.015.768.646Zm2.773 2.33-.768-.645-5.895 7.015.768.645Z"/><path fill="#900" stroke="#900" stroke-width=".136" d="M53.903 67.641c-1.575-1.323-3.018-.16-3.637.364.068-1.72-.202-2.613-.97-3.258-1.158-.973-2.736-.656-3.95.79-.743.884-.988 1.678-.888 2.827l1.296 1.734.34-.404-.533-.846c-.322-.515-.075-1.707.493-2.384.711-.846 1.98-.956 2.8-.267.977.82 1.152 2.277.375 3.201-.087.104-.22.236-.376.395l-.177.184.559.736.154-.026c.195-.68.337-.982.633-1.334.907-1.08 2.122-1.125 3.306-.13 1.328 1.116 1.533 2.643.516 3.853-.503.599-1.147.968-1.84 1.052-.548.072-.99-.01-1.9-.353l-.166.46c1.024.394 1.58.684 2.296 1.152.814-.492 1.4-.978 1.804-1.46 1.346-1.6 1.648-4.788-.135-6.286Z"/><g transform="rotate(-49.96 49.325 63.775)"><path fill="#900" stroke="#900" stroke-width=".136" d="m50.522 66.979.119.34.544-.357c.629-.391.68-.425.799-.425.17 0 .306.17.306.391 0 .119-.068.51-.136.748l-1.122 4.08c-.136.527-.221.986-.221 1.309 0 .408.187.663.51.663.442 0 1.054-.357 2.72-1.598l-.17-.306-.442.289c-.493.323-.884.51-1.037.51-.12 0-.221-.17-.221-.34s.034-.323.119-.68l1.309-5.168c.068-.289.102-.476.102-.612 0-.289-.153-.442-.425-.442-.374 0-1.003.357-2.278 1.258Zm3.298-5.508c-.493 0-.986.561-.986 1.139 0 .425.255.697.663.697.527 0 .935-.493.935-1.139 0-.408-.255-.697-.612-.697Z"/><svg width="5.1" height="9" x="49.944" y="50.575" overflow="visible"><path d="m0 8.06 2.55-1.7 2.55 1.7" style="fill:none;fill-opacity:1;stroke-width:1px;stroke:#900;stroke-opacity:1"/></svg></g><path fill="#900" stroke="#900" stroke-width=".136" d="m66.163 52.601-.768-.645-2.625 3.124-3.097-2.603-.645.768 3.097 2.603L59.5 58.97l.768.646 2.625-3.124 3.137 2.636.645-.768-3.137-2.636Zm6.735-6.429.976.82c.78.657.843.953.333 1.613l-.64.84.391.328c1.416-1.764 1.416-1.764 1.678-2.077.263-.312.263-.312 1.756-2.01l-.39-.328-.564.592c-.575.605-.865.606-1.646-.05l-.976-.82c.646-.769.888-1.031 1.234-1.363l-.925-.776-1.142 1.438-5.872-4.956-.484 1.37 2.931 8.746.3.252Zm-.833-.7-2.352 2.799-2.23-6.648Z"/><g transform="rotate(-49.96 49.325 63.775)"><path fill="#900" stroke="#900" stroke-width=".136" d="m84.992 67.608-1.7 8.415c-.187.884-.493 1.479-.8 1.479-.237 0-.543-.102-.9-.323l-.136.969c.17.085.39.119.646.119.68 0 1.36-.731 1.972-2.108.34-.765.578-1.615 1.054-3.774l1.292-5.95c.068-.306.102-.527.102-.629 0-.272-.153-.425-.425-.425-.374 0-1.003.357-2.278 1.258l-.476.34.119.34.544-.357c.629-.391.68-.425.799-.425.17 0 .306.17.306.391 0 .153-.12.595-.12.68Zm1.547-6.137c-.493 0-.986.561-.986 1.139 0 .425.255.697.663.697.527 0 .935-.493.935-1.139 0-.408-.255-.697-.612-.697Z"/><svg width="6.8" height="9" x="85.094" y="50.575" overflow="visible"><path d="m0 8.06 3.4-2.27 3.4 2.27" style="fill:none;fill-opacity:1;stroke-width:1px;stroke:#900;stroke-opacity:1"/></svg></g></svg></svg>