<svg xmlns="http://www.w3.org/2000/svg" width="302.6" height="301.6" style="width:302.6000061035156px;height:301.6000061035156px;background:0 0;fill:none"><svg xmlns="http://www.w3.org/2000/svg"/><svg xmlns="http://www.w3.org/2000/svg" class="role-diagram-draw-area" style="overflow:visible"><g class="shapes-region" style="stroke:#000;fill:none"><g class="arrow-line"><path d="M7.36 148.9h287.71m-271.71-4v8m16-8v8m16-8v8m16-8v8m16-8v8m16-8v8m16-8v8m16-8v8m16-8v8m16-8v8m16-8v8m16-8v8m16-8v8m16-8v8m16-8v8m16-8v8m16-8v8" class="connection real" style="stroke:#000;stroke-width:1;fill:none;fill-opacity:1"/><path d="M10.93-3.29Q4.96-.45 0 0q4.96.45 10.93 3.29" style="stroke:#000;stroke-width:1" transform="matrix(-1 0 0 -1 297.067 148.9)"/><path d="M10.93-3.29Q4.96-.45 0 0q4.96.45 10.93 3.29" style="stroke:#000;stroke-width:1" transform="translate(5.36 148.9)"/></g><g class="arrow-line"><path d="M151.21 5.05v287.7m4-271.7h-8m8 16h-8m8 16h-8m8 16h-8m8 16h-8m8 16h-8m8 16h-8m8 16h-8m8 16h-8m8 16h-8m8 16h-8m8 16h-8m8 16h-8m8 16h-8m8 16h-8m8 16h-8m8 16h-8" class="connection real" style="stroke:#000;stroke-width:1;fill:none;fill-opacity:1"/><path d="M10.93-3.29Q4.96-.45 0 0q4.96.45 10.93 3.29" style="stroke:#000;stroke-width:1" transform="rotate(-90 222.983 71.77)"/><path d="M10.93-3.29Q4.96-.45 0 0q4.96.45 10.93 3.29" style="stroke:#000;stroke-width:1" transform="rotate(90 74.083 77.13)"/></g><g class="arrow-line"><path stroke-dasharray="3" d="m151.21 148.9 29.99-45.89" class="connection real" style="stroke:#900;stroke-opacity:1;stroke-width:1;fill:none;fill-opacity:1"/><path stroke="#900" d="M10.93-3.29Q4.96-.45 0 0q4.96.45 10.93 3.29" style="stroke:#900;stroke-width:1" transform="rotate(123.16 63.726 99.99)"/></g><g class="arrow-line"><path stroke-dasharray="3" d="M151.21 148.9 87.9 102.3" class="connection real" style="stroke:#900;stroke-opacity:1;stroke-width:1;fill:none;fill-opacity:1"/><path stroke="#900" d="M10.93-3.29Q4.96-.45 0 0q4.96.45 10.93 3.29" style="stroke:#900;stroke-width:1" transform="rotate(36.36 -110.802 181.935)"/></g><g class="arrow-line"><path d="M182.29 101.11h-92" class="connection real" style="stroke:#900;stroke-opacity:1;stroke-width:2;fill:none;fill-opacity:1"/><path fill="#900" stroke="none" d="M13.4-6.43 0 0l13.4 6.44L8.9 0Z" style="stroke:none;fill:#900;stroke-width:2" transform="translate(86.289 101.111)"/></g></g></svg><svg xmlns="http://www.w3.org/2000/svg" xmlns:xlink="http://www.w3.org/1999/xlink" width="301" height="300" style="width:301px;height:300px;font-family:Asana-Math,Asana;background:0 0"/></svg>