<svg xmlns="http://www.w3.org/2000/svg" xmlns:xlink="http://www.w3.org/1999/xlink" x="0" y="0" width="201.60001046316964" height="149.47501046316964" style="
        width:201.60001046316964px;
        height:149.47501046316964px;
        background: transparent;
        fill: none;
">
        <svg xmlns="http://www.w3.org/2000/svg"/>
        
        <svg xmlns="http://www.w3.org/2000/svg" class="role-diagram-draw-area" style="overflow: visible;"><g class="shapes-region" style="stroke: black; fill: none;"><g class="composite-shape"><defs><!-- react-text: 25717 --> <!-- /react-text --><pattern id="_pgfwvorq2qbidg-full-view" x="0" y="0" width="11.313708498984761" height="11.313708498984761" patternTransform="rotate(45,0,0)" patternUnits="userSpaceOnUse"><path d="M0,0 L0,11.313708498984761" style="stroke: rgb(0, 0, 0); stroke-opacity: 1; stroke-width: 1; fill: none;"/><path d="M5.656854249492381,0 L5.656854249492381,11.313708498984761" style="stroke: rgb(0, 0, 0); stroke-opacity: 1; stroke-width: 1; fill: none;"/><path d="M11.313708498984761,0 L11.313708498984761,11.313708498984761" style="stroke: rgb(0, 0, 0); stroke-opacity: 1; stroke-width: 1; fill: none;"/></pattern></defs><path class="real" d=" M-14,-27 L218.8,-27 L218.8,13 L-14,13 Z" style="stroke-width: 1; stroke: rgb(0, 0, 0); fill: url(&quot;#_pgfwvorq2qbidg-full-view&quot;); fill-opacity: 1;"/></g><g class="composite-shape"><defs><!-- react-text: 25725 --> <!-- /react-text --><pattern id="_pgfxv0talgojdg-full-view" x="0" y="0" width="11.313708498984761" height="11.313708498984761" patternTransform="rotate(45,0,0)" patternUnits="userSpaceOnUse"><path d="M0,0 L0,11.313708498984761" style="stroke: rgb(0, 0, 0); stroke-opacity: 0.1; stroke-width: 1; fill: none;"/><path d="M5.656854249492381,0 L5.656854249492381,11.313708498984761" style="stroke: rgb(0, 0, 0); stroke-opacity: 0.1; stroke-width: 1; fill: none;"/><path d="M11.313708498984761,0 L11.313708498984761,11.313708498984761" style="stroke: rgb(0, 0, 0); stroke-opacity: 0.1; stroke-width: 1; fill: none;"/></pattern></defs><path class="real" d=" M34.7,13 L40.3,13 L40.3,73.25 L34.7,73.25 Z" style="stroke-width: 1; stroke: rgb(0, 0, 0); fill: url(&quot;#_pgfxv0talgojdg-full-view&quot;); fill-opacity: 1; stroke-opacity: 0.1;"/></g><g class="composite-shape"><path class="real" d=" M19.72,81.79 C19.72,71.96 27.69,64 37.51,64 C47.34,64 55.3,71.96 55.3,81.79 C55.3,91.61 47.34,99.57 37.51,99.57 C27.69,99.57 19.72,91.61 19.72,81.79 Z" style="stroke-width: 1; stroke: rgb(153, 0, 0); stroke-opacity: 1; fill: rgb(153, 0, 0); fill-opacity: 1;"/></g><g class="arrow-line"><path class="connection real" stroke-dasharray="" d="  M37.51,64 L37.51,29.78" style="stroke: rgb(153, 0, 0); stroke-width: 2; fill: none; fill-opacity: 1; stroke-opacity: 1;"/><g stroke="none" transform="matrix(3.061616997868383e-16,1,-1,3.061616997868383e-16,37.51248788833618,25.78214263916015)" style="stroke: none; stroke-width: 2; fill: rgb(153, 0, 0);" fill="rgb(153,0,0)" fill-opacity="1"><path d=" M13.4,-6.43 L0,0 L13.4,6.44 L8.9,0 Z"/></g></g><g class="arrow-line"><path class="connection real" stroke-dasharray="" d="  M37.51,133.79 L37.51,99.57" style="stroke: rgb(153, 0, 0); stroke-opacity: 1; stroke-width: 2; fill: none; fill-opacity: 1;"/><g stroke="none" fill="rgb(153,0,0)" fill-opacity="1" transform="matrix(-1.8369701987210297e-16,-1,1,-1.8369701987210297e-16,37.51248788833618,137.79285717010498)" style="stroke: none; fill: rgb(153, 0, 0); stroke-width: 2;"><path d=" M13.4,-6.43 L0,0 L13.4,6.44 L8.9,0 Z"/></g></g><g class="arrow-line"><path class="connection real" stroke-dasharray="" d="  M151.8,79.99 L151.8,45.77" style="stroke: rgb(153, 0, 0); stroke-opacity: 1; stroke-width: 2; fill: none; fill-opacity: 1;"/><g stroke="none" fill="rgb(153,0,0)" fill-opacity="1" transform="matrix(3.061616997868383e-16,1,-1,3.061616997868383e-16,151.79999651227678,41.76964603151593)" style="stroke: none; fill: rgb(153, 0, 0); stroke-width: 2;"><path d=" M13.4,-6.43 L0,0 L13.4,6.44 L8.9,0 Z"/></g></g><g class="arrow-line"><path class="connection real" stroke-dasharray="" d="  M151.8,117.81 L151.8,83.59" style="stroke: rgb(153, 0, 0); stroke-opacity: 1; stroke-width: 2; fill: none; fill-opacity: 1;"/><g stroke="none" fill="rgb(153,0,0)" fill-opacity="1" transform="matrix(-1.8369701987210297e-16,-1,1,-1.8369701987210297e-16,151.79999651227678,121.80535377774916)" style="stroke: none; fill: rgb(153, 0, 0); stroke-width: 2;"><path d=" M13.4,-6.43 L0,0 L13.4,6.44 L8.9,0 Z"/></g></g><g class="composite-shape"><path class="real" d=" M150,81.79 C150,80.79 150.81,79.99 151.8,79.99 C152.79,79.99 153.6,80.79 153.6,81.79 C153.6,82.78 152.79,83.59 151.8,83.59 C150.81,83.59 150,82.78 150,81.79 Z" style="stroke-width: 1; stroke: rgb(0, 0, 0); fill: rgb(0, 0, 0); fill-opacity: 1; stroke-opacity: 1;"/></g><g/></g><g/><g/><g/></svg>
        <svg xmlns="http://www.w3.org/2000/svg" xmlns:xlink="http://www.w3.org/1999/xlink" width="200" height="147.875" style="width:200px;height:147.875px;font-family:Asana-Math, Asana;background:transparent;"><g><g><g><g transform="matrix(1,0,0,1,31.18123953683036,86.01249803815568)"><path transform="matrix(0.017,0,0,-0.017,0,0)" d="M730 103L704 86C675 67 653 56 643 56C636 56 630 65 630 76C630 86 632 95 637 116L712 413C716 430 719 446 719 454C719 471 709 482 693 482C664 482 626 464 565 421C502 376 467 341 418 272L448 409C452 429 455 444 455 451C455 470 445 482 429 482C399 482 353 460 298 418C254 384 234 363 169 275L202 408C206 424 208 439 208 451C208 470 199 482 185 482C164 482 126 461 52 408L24 388L31 368C68 391 103 414 110 414C121 414 128 404 128 389C128 338 87 145 46 2L49 -9L117 6L139 108C163 219 190 278 245 338C287 384 332 414 360 414C367 414 371 406 371 393C371 358 349 244 308 69L292 2L297 -9L366 6L387 113C403 194 437 269 481 318C536 379 586 414 618 414C626 414 631 405 631 389C631 365 628 351 606 264C566 105 550 84 550 31C550 6 561 -9 580 -9C606 -9 642 12 740 85Z" stroke="rgb(255,255,255)" stroke-opacity="1" stroke-width="8" fill="rgb(255,255,255)" fill-opacity="1"></path></g></g></g></g><g><g><g><g><g><g><g transform="matrix(1,0,0,1,47.649989536830354,50.525001525878906)"><path transform="matrix(0.017,0,0,-0.017,0,0)" d="M286 646L392 650C454 650 494 641 495 626L503 537L527 537C530 600 537 651 548 689C526 691 498 692 481 692L440 691L275 689L246 689C221 689 181 690 143 691L94 692L91 664L147 662C171 661 182 652 182 635C182 621 178 589 173 559L98 125C81 33 81 32 40 28L4 25L0 -3L34 -2C74 -1 106 0 127 0C145 0 174 -1 213 -2L265 -3L268 25L204 28C177 29 168 37 168 57C168 63 169 74 170 78L206 301L323 301C350 301 381 300 429 298L455 297L474 342L470 349C389 345 329 343 251 343L214 343L260 614C263 630 264 635 269 646Z" stroke="rgb(153,0,0)" stroke-opacity="1" stroke-width="8" fill="rgb(153,0,0)" fill-opacity="1"></path></g></g></g></g><svg x="47.649989536830354" overflow="visible" y="27.525001525878906" height="10" width="10.2875006539481"><path d=" M 10.29 4.85 l -3.15 -3.32 l -0.49 0.52 l 1.93 2.33 h -0.15 v 0.90 h 0.15 l -1.93 2.33 l 0.49 0.52 z  M 1.68 5.23 h 8.15 v -0.90 h -8.15 z" style="fill:rgb(153,0,0);fill-opacity:1;stroke-width:1px;stroke:none;stroke-opacity:1;"></path></svg></g><g><g><g><g><g transform="matrix(1,0,0,1,57.587489536830354,56.22500239780971)"><path transform="matrix(0.0119,0,0,-0.0119,0,0)" d="M31 148C26 97 20 62 9 16C47 -2 81 -11 116 -11C165 -11 211 7 262 47C313 87 334 124 334 174C334 228 302 257 228 271L185 279C125 290 106 307 106 348C106 401 151 442 208 442C249 442 287 424 303 397L303 342L326 342C330 377 334 404 345 455C306 474 278 482 245 482C193 482 132 452 84 404C58 377 47 352 47 316C47 260 78 228 144 215L207 203C251 195 267 177 267 138C267 73 221 29 150 29C115 29 84 40 56 64L56 148ZM513 390L457 107C456 99 444 61 444 31C444 6 455 -9 474 -9C509 -9 544 11 622 74L653 99L643 117L598 86C569 66 549 56 538 56C529 56 524 64 524 76C524 102 538 183 567 328L580 390L687 390L698 440C660 436 626 434 588 434C604 528 615 577 633 631L622 646C602 634 575 622 544 610L519 440C475 419 449 408 431 403L429 390ZM1088 365C1091 403 1096 435 1104 476C1093 481 1089 482 1084 482C1053 482 1022 458 986 407C947 351 908 291 892 256L924 408C928 425 930 438 930 450C930 470 922 482 907 482C886 482 848 461 774 408L746 388L753 368L785 389C813 407 824 412 833 412C843 412 850 403 850 390C850 332 807 126 767 -2L777 -9C792 -4 808 -1 831 4L844 6L870 126C888 209 911 262 955 319C989 363 1016 384 1038 384C1053 384 1063 379 1074 365ZM1142 388L1149 368L1181 389C1218 412 1221 414 1228 414C1238 414 1246 404 1246 391C1246 384 1242 361 1238 347L1172 107C1164 76 1159 49 1159 30C1159 6 1170 -9 1189 -9C1215 -9 1251 12 1349 85L1339 103L1313 86C1284 67 1261 56 1252 56C1245 56 1239 66 1239 76C1239 86 1241 95 1246 116L1323 420C1327 437 1329 448 1329 456C1329 473 1320 482 1304 482C1282 482 1245 461 1170 408ZM1336 712C1307 712 1278 679 1278 645C1278 620 1293 604 1317 604C1348 604 1372 633 1372 671C1372 695 1357 712 1336 712ZM1409 388L1416 368L1448 389C1485 412 1488 414 1495 414C1506 414 1513 404 1513 389C1513 338 1472 145 1431 2L1438 -9C1463 -2 1486 4 1508 8C1527 134 1548 199 1594 268C1648 352 1723 414 1768 414C1779 414 1785 405 1785 390C1785 372 1782 351 1774 319L1722 107C1713 70 1709 47 1709 31C1709 6 1720 -9 1739 -9C1765 -9 1801 12 1899 85L1889 103L1863 86C1834 67 1812 56 1802 56C1795 56 1789 65 1789 76C1789 81 1790 92 1791 96L1857 372C1864 401 1868 429 1868 446C1868 469 1857 482 1837 482C1795 482 1726 444 1667 389C1629 354 1601 320 1549 247L1587 408C1591 426 1593 438 1593 449C1593 470 1585 482 1570 482C1549 482 1510 460 1437 408ZM2215 482C2148 482 1995 419 1995 259C1995 182 2040 136 2117 136C2125 136 2136 136 2147 137L2106 99C2090 84 2079 66 2079 52C2079 42 2086 31 2100 19C2031 -4 1903 -48 1903 -159C1903 -230 1973 -276 2082 -276C2211 -276 2324 -204 2324 -121C2324 -85 2303 -49 2260 -14L2200 35C2166 62 2153 81 2153 100C2153 114 2168 128 2180 146C2278 170 2349 253 2349 342C2349 357 2346 376 2345 380C2362 378 2370 378 2379 378C2396 378 2406 379 2429 382L2438 427L2435 433C2407 426 2387 424 2333 424C2333 425 2309 482 2215 482ZM2116 1L2193 -58C2239 -94 2258 -121 2258 -154C2258 -206 2189 -248 2106 -248C2024 -248 1967 -206 1967 -145C1967 -43 2077 -11 2116 1ZM2190 448C2248 448 2277 412 2277 341C2277 238 2229 168 2159 168C2098 168 2066 209 2066 288C2066 383 2117 448 2190 448Z" stroke="rgb(153,0,0)" stroke-opacity="1" stroke-width="8" fill="rgb(153,0,0)" fill-opacity="1"></path></g></g></g></g></g></g></g><g><g><g><g><g><g><g transform="matrix(1,0,0,1,48.22499302455358,132.1250032697405)"><path transform="matrix(0.017,0,0,-0.017,0,0)" d="M286 646L392 650C454 650 494 641 495 626L503 537L527 537C530 600 537 651 548 689C526 691 498 692 481 692L440 691L275 689L246 689C221 689 181 690 143 691L94 692L91 664L147 662C171 661 182 652 182 635C182 621 178 589 173 559L98 125C81 33 81 32 40 28L4 25L0 -3L34 -2C74 -1 106 0 127 0C145 0 174 -1 213 -2L265 -3L268 25L204 28C177 29 168 37 168 57C168 63 169 74 170 78L206 301L323 301C350 301 381 300 429 298L455 297L474 342L470 349C389 345 329 343 251 343L214 343L260 614C263 630 264 635 269 646Z" stroke="rgb(153,0,0)" stroke-opacity="1" stroke-width="8" fill="rgb(153,0,0)" fill-opacity="1"></path></g></g></g></g><svg x="48.22499302455358" overflow="visible" y="109.1250032697405" height="10" width="10.2875006539481"><path d=" M 10.29 4.85 l -3.15 -3.32 l -0.49 0.52 l 1.93 2.33 h -0.15 v 0.90 h 0.15 l -1.93 2.33 l 0.49 0.52 z  M 1.68 5.23 h 8.15 v -0.90 h -8.15 z" style="fill:rgb(153,0,0);fill-opacity:1;stroke-width:1px;stroke:none;stroke-opacity:1;"></path></svg></g><g><g><g><g><g transform="matrix(1,0,0,1,58.16249302455358,137.82499978201727)"><path transform="matrix(0.0119,0,0,-0.0119,0,0)" d="M275 482C208 482 55 419 55 259C55 182 100 136 177 136C185 136 196 136 207 137L166 99C150 84 139 66 139 52C139 42 146 31 160 19C91 -4 -37 -48 -37 -159C-37 -230 33 -276 142 -276C271 -276 384 -204 384 -121C384 -85 363 -49 320 -14L260 35C226 62 213 81 213 100C213 114 228 128 240 146C338 170 409 253 409 342C409 357 406 376 405 380C422 378 430 378 439 378C456 378 466 379 489 382L498 427L495 433C467 426 447 424 393 424C393 425 369 482 275 482ZM176 1L253 -58C299 -94 318 -121 318 -154C318 -206 249 -248 166 -248C84 -248 27 -206 27 -145C27 -43 137 -11 176 1ZM250 448C308 448 337 412 337 341C337 238 289 168 219 168C158 168 126 209 126 288C126 383 177 448 250 448ZM867 365C870 403 875 435 883 476C872 481 868 482 863 482C832 482 801 458 765 407C726 351 687 291 671 256L703 408C707 425 709 438 709 450C709 470 701 482 686 482C665 482 627 461 553 408L525 388L532 368L564 389C592 407 603 412 612 412C622 412 629 403 629 390C629 332 586 126 546 -2L556 -9C571 -4 587 -1 610 4L623 6L649 126C667 209 690 262 734 319C768 363 795 384 817 384C832 384 842 379 853 365ZM1158 204L1129 77C1125 60 1123 42 1123 26C1123 4 1132 -9 1147 -9C1170 -9 1211 17 1293 85L1286 106C1262 86 1233 59 1211 59C1202 59 1196 68 1196 82C1196 87 1196 90 1197 93L1289 472L1279 481L1246 463C1205 478 1188 482 1161 482C1133 482 1113 477 1086 464C1024 433 991 403 966 354C922 265 891 145 891 67C891 23 906 -11 925 -11C962 -11 1042 41 1158 204ZM1206 414C1184 305 1165 253 1131 201C1074 117 1013 59 981 59C969 59 963 72 963 99C963 163 991 280 1026 360C1050 415 1073 433 1121 433C1144 433 1162 429 1206 414ZM1496 420C1517 420 1533 421 1559 424C1448 304 1406 221 1406 121C1406 44 1452 -11 1516 -11C1654 -11 1807 236 1807 384C1807 441 1781 482 1745 482C1732 482 1720 478 1712 470L1662 423L1673 404C1682 410 1691 413 1700 413C1727 413 1743 390 1743 350C1743 202 1646 39 1558 39C1509 39 1478 81 1478 146C1478 251 1517 342 1615 464L1605 482C1585 473 1572 470 1544 470C1516 470 1474 472 1445 475L1433 476C1427 477 1422 477 1421 477C1409 477 1400 475 1389 470C1375 443 1364 407 1351 352L1373 352L1390 394C1397 411 1417 422 1441 422C1474 422 1458 420 1496 420ZM1863 388L1870 368L1902 389C1939 412 1942 414 1949 414C1959 414 1967 404 1967 391C1967 384 1963 361 1959 347L1893 107C1885 76 1880 49 1880 30C1880 6 1891 -9 1910 -9C1936 -9 1972 12 2070 85L2060 103L2034 86C2005 67 1982 56 1973 56C1966 56 1960 66 1960 76C1960 86 1962 95 1967 116L2044 420C2048 437 2050 448 2050 456C2050 473 2041 482 2025 482C2003 482 1966 461 1891 408ZM2057 712C2028 712 1999 679 1999 645C1999 620 2014 604 2038 604C2069 604 2093 633 2093 671C2093 695 2078 712 2057 712ZM2231 390L2175 107C2174 99 2162 61 2162 31C2162 6 2173 -9 2192 -9C2227 -9 2262 11 2340 74L2371 99L2361 117L2316 86C2287 66 2267 56 2256 56C2247 56 2242 64 2242 76C2242 102 2256 183 2285 328L2298 390L2405 390L2416 440C2378 436 2344 434 2306 434C2322 528 2333 577 2351 631L2340 646C2320 634 2293 622 2262 610L2237 440C2193 419 2167 408 2149 403L2147 390ZM2431 -180C2430 -187 2430 -193 2430 -198C2430 -241 2467 -276 2512 -276C2618 -276 2728 -152 2787 33L2928 473L2917 482C2888 471 2865 465 2843 463L2808 331C2796 284 2761 211 2728 162C2693 111 2644 67 2622 67C2610 67 2601 90 2602 115L2618 322C2620 353 2622 391 2622 419C2622 464 2615 482 2598 482C2585 482 2571 475 2523 442L2441 386L2452 368L2502 398C2507 401 2518 410 2527 410C2541 410 2549 391 2549 358C2549 357 2549 351 2548 343L2531 100L2530 60C2530 18 2548 -11 2573 -11C2610 -11 2694 74 2769 187L2720 16C2669 -161 2619 -234 2549 -234C2514 -234 2487 -207 2487 -172C2487 -167 2488 -159 2489 -150L2479 -146Z" stroke="rgb(153,0,0)" stroke-opacity="1" stroke-width="8" fill="rgb(153,0,0)" fill-opacity="1"></path></g></g></g></g></g></g></g></svg>
</svg>
