<svg xmlns="http://www.w3.org/2000/svg" width="405.6" height="77" style="width:405.6000061035156px;height:77px;background:0 0;fill:none"><svg xmlns="http://www.w3.org/2000/svg"/><svg xmlns="http://www.w3.org/2000/svg" class="role-diagram-draw-area" style="overflow:visible"><g class="shapes-region" style="stroke:#000;fill:none"><g class="composite-shape"><defs><pattern id="_pgfdi104ggardg-full-view" width="11.3" height="11.3" x="0" y="0" patternTransform="rotate(45 0 0)" patternUnits="userSpaceOnUse"><path d="M0 0v11.3M5.7 0v11.3M11.3 0v11.3" style="stroke:#070505;stroke-opacity:1;stroke-width:1;fill:none"/></pattern></defs><path d="M-32.5 63.3H432v40H-32.5Z" class="real" style="stroke-width:1;stroke:#000;fill:url(#_pgfdi104ggardg-full-view);fill-opacity:1"/></g><g class="grouped-shape"><g class="composite-shape"><path d="M9.9 56.2a6.7 6.7 0 1 1 13.4 0 6.7 6.7 0 0 1-13.4 0Z" class="real" style="stroke-width:1;stroke:#000;fill:#000;fill-opacity:.5"/></g><g class="composite-shape"><path d="M61.9 56.3a6.7 6.7 0 1 1 13.4 0 6.7 6.7 0 0 1-13.4 0Z" class="real" style="stroke-width:1;stroke:#000;fill:#000;fill-opacity:.5"/></g><g class="composite-shape"><path d="m7.5 23.5 14-14h42l14 14v26h-70Z" class="real" style="stroke-width:1;stroke:#900;stroke-opacity:1;fill:#900;fill-opacity:.5"/></g></g><g class="grouped-shape"><g class="composite-shape"><path d="M101.4 56.2a6.7 6.7 0 1 1 13.4 0 6.7 6.7 0 0 1-13.4 0Z" class="real" style="stroke-width:1;stroke:#000;fill:#000;fill-opacity:.5"/></g><g class="composite-shape"><path d="M153.4 56.3a6.7 6.7 0 1 1 13.4 0 6.7 6.7 0 0 1-13.4 0Z" class="real" style="stroke-width:1;stroke:#000;fill:#000;fill-opacity:.5"/></g><g class="composite-shape"><path d="m99 23.5 14-14h42l14 14v26H99Z" class="real" style="stroke-width:1;stroke:#900;stroke-opacity:1;fill:#900;fill-opacity:.5"/></g></g><g class="grouped-shape"><g class="composite-shape"><path d="M193.4 55.9a6.7 6.7 0 1 1 13.4 0 6.7 6.7 0 0 1-13.4 0Z" class="real" style="stroke-width:1;stroke:#000;fill:#000;fill-opacity:.5"/></g><g class="composite-shape"><path d="M245.4 56a6.7 6.7 0 1 1 13.4 0 6.7 6.7 0 0 1-13.4 0Z" class="real" style="stroke-width:1;stroke:#000;fill:#000;fill-opacity:.5"/></g><g class="composite-shape"><path d="m191 23.2 14-14h42l14 14v26h-70Z" class="real" style="stroke-width:1;stroke:#900;stroke-opacity:1;fill:#900;fill-opacity:.5"/></g></g><g class="arrow-line"><path d="M77.8 35.8q2.5-2.5 5 0t5 0 5 0 5 0h1.5" class="connection real" style="stroke:#000;stroke-width:1;fill:none;fill-opacity:1"/></g><g class="arrow-line"><path d="M169.5 36.5q2.5-2.5 5 0t5 0 5 0 5 0h1.5" class="connection real" style="stroke:#000;stroke-width:1;fill:none;fill-opacity:1"/></g><g class="arrow-line"><path d="M265.7 36.2q2.5-2.5 5 0t5 0 5 0 5 0 5 0h.3" class="connection real" style="stroke:#000;stroke-width:1;fill:none;fill-opacity:1"/></g><g class="arrow-line"><path d="M261.8 36.2h3.9" class="connection real" style="stroke:#000;stroke-width:1;fill:none;fill-opacity:1"/></g><g class="arrow-line"><path d="M291 36.2h34.3" class="connection real" style="stroke:#900;stroke-width:2;fill:none;fill-opacity:1;stroke-opacity:1"/><path fill="#900" stroke="none" d="M13.4-6.4 0 0l13.4 6.4L8.9 0Z" style="stroke:none;fill:#900;stroke-width:2" transform="matrix(-1 0 0 -1 329.3 36.2)"/></g></g></svg><svg xmlns="http://www.w3.org/2000/svg" xmlns:xlink="http://www.w3.org/1999/xlink" width="404" height="75.4" style="width:404px;height:75.4000015258789px;font-family:Asana-Math,Asana;background:0 0"><path fill="#900" stroke="#900" stroke-width=".1" d="M334.6 23.7h1.8q1.6 0 1.7.4l.2 1.5h.4q0-1.7.3-2.6h-7.7v.4h1q.5 0 .5.5l-.1 1.3-1.3 7.4c-.3 1.5-.3 1.6-1 1.6h-.6v.6h.5l1.6-.1h2.4v-.4h-1.1q-.7 0-.6-.6v-.3l.6-3.8h4.3l.3-.7v-.1h-4.4l.7-4.5.2-.6Z"/><svg width="10.3" height="10" x="329.7" y="11.7" overflow="visible"><path d="M10.3 4.9 7 1.4l-.5.5 2 2.4h-.2v.9h.2l-2 2.3.5.5zm-8.6.3h8.1v-.9H1.7z" style="fill:#900;fill-opacity:1;stroke-width:1px;stroke:none;stroke-opacity:1"/></svg><path fill="#fff" stroke="#fff" stroke-width=".1" d="M215 32.2c0-2.1-1.8-2.5-2.6-2.6q2-1.4 1.9-2.8-.2-2.4-3.2-2.6-1.6 0-2.7 1.2l-.5 2.1h.5l.3-1c.2-.5 1.3-1.1 2.2-1.1a2 2 0 0 1 2 2c0 1.2-1 2.3-2.2 2.3h-.8l-.2.9 1.5-.3q2.1 0 2.2 2.4-.1 2.8-2.6 3-1.2 0-2-.8-.5-.5-1-1.7l-.4.2q.5 1.3.6 2.5 1.4.4 2.3.4c2 0 4.7-1.8 4.7-4.1Zm2.8 1.9a1 1 0 0 0-1 1q.1.9 1 1 .9-.1 1-1-.1-.9-1-1Zm9.2 2v-.6h-.9c-1-.1-1-.3-1-1.2V24.1l-4.2 1.7.1.8 2.6-1v8.7c0 1-.2 1.1-1.1 1.2h-1v.5h5.5Zm5.5-12.4-.3-.2c-.8.4-1.4.6-2.7.7v.4h.8q.6-.1.6.4v.4l-.9 4.5-1.4 6 .2.2 1.1-.3.4-2q.2-1.4 1.1-2.2c1.2 3.4 1.8 4.5 2.2 4.5l1.4-.7.7-.6-.1-.3-.7.4-.5.2q-.2 0-.5-.4c-.6-1.1-1-2-1.6-4.1l.2-.2q1.5-1.5 2.7-1.5h.6l.3-1-.8-.1q-1.5-.1-4.7 4.3Zm8.5 4c-1.1 0-3.7 1.1-3.7 3.9q0 2 2 2h.5l-.6.7q-.5.3-.5.8l.3.5c-1.1.4-3.3 1.2-3.3 3q.1 2 3 2c2.2 0 4.2-1.2 4.2-2.6q0-.9-1.1-1.8l-1-.8q-.9-.7-.8-1.1t.4-.8q2.7-.8 2.9-3.4v-.6h1.3l.2-.8v-.1l-1.8.2s-.4-1-2-1Zm-1.7 8.2 1.3 1q1.1 1 1.1 1.7-.2 1.5-2.5 1.6-2.2 0-2.4-1.8c0-1.7 1.9-2.3 2.5-2.5Zm1.3-7.6q1.5 0 1.5 1.9c0 1.7-.9 3-2 3q-1.6 0-1.6-2.1.1-2.6 2-2.8ZM115.4 36v.4l3.8-.1h4V35h-6l3.1-3.2c1.7-1.7 2.2-2.7 2.2-4q-.1-3-3.5-3.1-1.7 0-2.9 1.2l-.3 2.3h.5l.3-.8q.2-1.5 2-1.4 2.3.1 2.4 2.4.2 1.6-2.7 4.5Zm10.4-1.6a1 1 0 0 0-1 1q.1.9 1 1 .9-.1 1-1-.1-.9-1-1Zm6.9-1.2v1.3q.1 1.4-1 1.3h-1.1v.6l2.6-.1h2.7v-.5h-.8q-1.1.1-1-1.3v-1.3h1.8v-1.1h-1.8v-7.6l-1.4.5-4.8 7.8v.4Zm0-1H129l3.7-6Zm7.8-8.2-.3-.2c-.8.5-1.4.6-2.7.8v.3h.8q.6 0 .6.4v.4l-.9 4.6-1.4 6 .2.2 1.1-.3.4-2.1q.2-1.3 1.1-2.2c1.2 3.4 1.8 4.6 2.2 4.6l1.4-.8.7-.5-.1-.4-.7.4-.5.2q-.2.1-.5-.4c-.6-1-1-2-1.6-4l.2-.3q1.5-1.5 2.7-1.5l.6.1.3-1-.8-.2q-1.5-.1-4.7 4.3Zm8.5 4.1c-1.1 0-3.7 1-3.7 3.8q0 2 2 2h.5l-.6.7q-.5.5-.5.8l.3.6c-1.1.4-3.3 1.1-3.3 3q.1 1.9 3 2c2.2 0 4.2-1.2 4.2-2.6q0-1-1.1-1.9l-1-.8q-.9-.7-.8-1.1l.4-.8c1.7-.4 2.9-1.8 2.9-3.3v-.7h1.3l.2-.8H151s-.4-.9-2-.9Zm-1.7 8.2 1.3 1q1.1.8 1.1 1.6-.2 1.5-2.5 1.6-2.2-.1-2.4-1.7c0-1.8 1.9-2.3 2.5-2.5Zm1.3-7.6q1.5 0 1.5 1.8-.2 2.8-2 3-1.6 0-1.6-2.1.1-2.5 2-2.7ZM30.8 36.4v-.6h-.9c-1 0-1.1-.2-1.1-1.1V24.4l-4.1 1.7.1.9 2.6-1.1v8.8q.1 1.2-1.1 1l-1 .1v.6l2.8-.1zm3.5-2a1 1 0 0 0-1 1q.1.9 1 1 .9-.1 1-1-.1-.9-1-1Zm2.4 1.5v.5l3.8-.1h3.8V35h-5.8l3-3.2c1.7-1.7 2.2-2.7 2.2-4q-.1-3-3.5-3.1-1.7 0-2.9 1.2l-.2 2.3h.4l.3-.8q.3-1.5 2-1.4 2.3.1 2.4 2.4.1 1.6-2.6 4.5ZM49 24l-.3-.2c-.8.5-1.4.6-2.7.8v.3h.8q.6 0 .6.4v.4l-.9 4.6-1.4 6 .2.2 1.1-.3.4-2.1q.3-1.3 1.1-2.2c1.2 3.4 1.8 4.6 2.2 4.6l1.4-.8.7-.5-.1-.4-.7.4-.5.2q-.2.1-.5-.4c-.6-1-1-2-1.6-4l.2-.3q1.5-1.5 2.7-1.5l.6.1.3-1-.8-.2q-1.5-.1-4.7 4.3Zm8.5 4.1c-1.1 0-3.7 1-3.7 3.8q0 2 2 2h.5l-.6.7q-.5.5-.5.8l.3.6c-1.1.4-3.3 1.1-3.3 3q.1 1.9 3 2c2.2 0 4.2-1.2 4.2-2.6q0-1-1.1-1.9l-1-.8q-.8-.7-.8-1.1l.4-.8c1.7-.4 2.9-1.8 2.9-3.3v-.7H61l.2-.8h-1.8s-.4-.9-2-.9Zm-1.7 8.2 1.3 1q1.1.8 1.1 1.6c0 .9-1.1 1.6-2.5 1.6q-2.2-.1-2.4-1.7c0-1.8 1.9-2.3 2.5-2.5Zm1.3-7.6q1.5 0 1.5 1.8-.2 2.8-2 3-1.5 0-1.6-2.1.1-2.5 2-2.7Z"/></svg></svg>