<svg xmlns="http://www.w3.org/2000/svg" width="201.6" height="149.5" style="width:201.60001046316964px;height:149.47501046316964px;background:0 0;fill:none"><svg xmlns="http://www.w3.org/2000/svg"/><svg xmlns="http://www.w3.org/2000/svg" class="role-diagram-draw-area" style="overflow:visible"><g class="shapes-region" style="stroke:#000;fill:none"><g class="composite-shape"><defs><pattern id="_pgfwvorq2qbidg-full-view" width="11.3" height="11.3" x="0" y="0" patternTransform="rotate(45 0 0)" patternUnits="userSpaceOnUse"><path d="M0 0v11.3M5.7 0v11.3M11.3 0v11.3" style="stroke:#000;stroke-opacity:1;stroke-width:1;fill:none"/></pattern></defs><path d="M-14-27h232.8v40H-14Z" class="real" style="stroke-width:1;stroke:#000;fill:url(#_pgfwvorq2qbidg-full-view);fill-opacity:1"/></g><g class="composite-shape"><defs><pattern id="_pgfxv0talgojdg-full-view" width="11.3" height="11.3" x="0" y="0" patternTransform="rotate(45 0 0)" patternUnits="userSpaceOnUse"><path d="M0 0v11.3M5.7 0v11.3M11.3 0v11.3" style="stroke:#000;stroke-opacity:.1;stroke-width:1;fill:none"/></pattern></defs><path d="M34.7 13h5.6v60.3h-5.6Z" class="real" style="stroke-width:1;stroke:#000;fill:url(#_pgfxv0talgojdg-full-view);fill-opacity:1;stroke-opacity:.1"/></g><g class="composite-shape"><path d="M19.7 81.8a17.8 17.8 0 1 1 35.6 0 17.8 17.8 0 0 1-35.6 0Z" class="real" style="stroke-width:1;stroke:#900;stroke-opacity:1;fill:#900;fill-opacity:1"/></g><g class="arrow-line"><path d="M37.5 64V29.8" class="connection real" style="stroke:#900;stroke-width:2;fill:none;fill-opacity:1;stroke-opacity:1"/><path fill="#900" stroke="none" d="M13.4-6.4 0 0l13.4 6.4L8.9 0Z" style="stroke:none;stroke-width:2;fill:#900" transform="rotate(90 5.9 31.6)"/></g><g class="arrow-line"><path d="M37.5 133.8V99.6" class="connection real" style="stroke:#900;stroke-opacity:1;stroke-width:2;fill:none;fill-opacity:1"/><path fill="#900" stroke="none" d="M13.4-6.4 0 0l13.4 6.4L8.9 0Z" style="stroke:none;fill:#900;stroke-width:2" transform="rotate(-90 87.7 50.1)"/></g><g class="arrow-line"><path d="M151.8 80V45.8" class="connection real" style="stroke:#900;stroke-opacity:1;stroke-width:2;fill:none;fill-opacity:1"/><path fill="#900" stroke="none" d="M13.4-6.4 0 0l13.4 6.4L8.9 0Z" style="stroke:none;fill:#900;stroke-width:2" transform="rotate(90 55 96.8)"/></g><g class="arrow-line"><path d="M151.8 117.8V83.6" class="connection real" style="stroke:#900;stroke-opacity:1;stroke-width:2;fill:none;fill-opacity:1"/><path fill="#900" stroke="none" d="M13.4-6.4 0 0l13.4 6.4L8.9 0Z" style="stroke:none;fill:#900;stroke-width:2" transform="rotate(-90 136.8 -15)"/></g><g class="composite-shape"><path d="M150 81.8a1.8 1.8 0 1 1 3.6 0 1.8 1.8 0 0 1-3.6 0Z" class="real" style="stroke-width:1;stroke:#000;fill:#000;fill-opacity:1;stroke-opacity:1"/></g></g></svg><svg xmlns="http://www.w3.org/2000/svg" xmlns:xlink="http://www.w3.org/1999/xlink" width="200" height="147.9" style="width:200px;height:147.875px;font-family:Asana-Math,Asana;background:0 0"><path fill="#fff" stroke="#fff" stroke-width=".1" d="m43.6 84.3-.5.3-1 .5-.2-.4.1-.7 1.3-5 .1-.7q0-.5-.4-.5-.7 0-2.2 1-1.4 1-2.5 2.6l.5-2.3.1-.8q0-.5-.4-.5-.8 0-2.3 1.1c-.7.6-1 1-2.1 2.4l.5-2.2.1-.8q0-.5-.4-.5t-2.2 1.3l-.5.3.1.4 1.4-.8q.2 0 .3.4c0 .9-.7 4.1-1.4 6.6v.2l1.2-.3.3-1.7c.5-2 1-3 1.8-4q1.2-1.1 2-1.2.2 0 .2.3 0 1-1 5.5L36 86l.1.2 1.2-.3.4-1.8q.4-2.2 1.6-3.5 1.4-1.5 2.3-1.6.2 0 .2.4c0 .4 0 .6-.4 2.1-.7 2.7-1 3-1 4q0 .7.5.7c.5 0 1.1-.4 2.8-1.6Z"/><path fill="#900" stroke="#900" stroke-width=".1" d="M52.5 39.5h1.8q1.6 0 1.8.4l.1 1.5h.4q0-1.6.4-2.6h-7.8v.4h1q.5 0 .5.5l-.1 1.3-1.3 7.4C49 50 49 50 48.3 50l-.6.1v.5h4.5V50h-1q-.7 0-.7-.5v-.4l.7-3.8h4.2l.3-.7v-.1h-4.4l.8-4.5.1-.6Z"/><svg width="10.3" height="10" x="47.6" y="27.5" overflow="visible"><path d="M10.3 4.9 7 1.4l-.5.5 2 2.4h-.2v.9h.2l-2 2.3.5.5zm-8.6.3h8.1v-.9H1.7z" style="fill:#900;fill-opacity:1;stroke-width:1px;stroke:none;stroke-opacity:1"/></svg><path fill="#900" stroke="#900" stroke-width=".1" d="m58 54.5-.3 1.5q.6.4 1.3.4t1.7-.7q.9-.7.9-1.5 0-1-1.3-1.2l-.5-.1q-1-.1-1-.8.1-1 1.3-1.1.8 0 1 .5v.7h.4l.2-1.4-1.2-.3a3 3 0 0 0-2 1q-.4.3-.4 1 0 .9 1.2 1.2l.8.1q.7.1.7.8-.1 1.2-1.4 1.3-.6 0-1.1-.4v-1Zm5.7-3L63 55l-.1.9q0 .4.3.4.5.1 1.8-1l.4-.3-.2-.2-.5.4-.7.4q-.2 0-.2-.3l.5-3 .2-.7h1.3V51h-1.2l.5-2.3-.1-.2-1 .5-.2 2-1 .4-.1.2Zm6.8.4.2-1.3-.2-.1q-.6 0-1.2.9-.8 1-1.1 1.8l.4-1.8v-.5q0-.4-.2-.4t-1.6.9l-.3.2v.2l.4-.2.6-.3q.2 0 .2.3c0 .7-.5 3.1-1 4.6l.1.1.7-.1h.1l.3-1.5q.4-1.4 1-2.3.7-.7 1-.7t.5.2Zm.7-.3v.2l.4-.2.6-.3q.2 0 .2.3v.5l-.9 2.9-.1.9q0 .4.3.4.3.1 2-1l-.2-.3-.3.2-.7.4-.2-.3.1-.5 1-3.6v-.4q0-.3-.3-.3t-1.6.9Zm2.3-3.8q-.7 0-.7.7 0 .5.5.5t.6-.8q0-.4-.4-.4Zm.9 3.8v.2l.4-.2.6-.3q.2 0 .2.3c0 .6-.5 2.9-1 4.6l.1.1.8-.2a8 8 0 0 1 1-3q1.2-1.6 2.1-1.8.3 0 .2.3l-.1.8-.6 2.6-.2.9q0 .4.4.4.3.1 1.9-1L80 55l-.3.2-.8.4-.1-.3v-.2l.8-3.3.1-.9q0-.4-.4-.4-.8 0-2 1.1l-1.4 1.7.5-2V51q0-.4-.2-.4t-1.6.9Zm9.5-1.1c-.8 0-2.6.7-2.6 2.6q0 1.5 1.5 1.5h.3l-.5.4-.3.6.3.4c-.8.3-2.4.8-2.4 2.1q.1 1.4 2.2 1.4c1.5 0 2.8-.8 2.8-1.8q0-.7-.7-1.3l-.7-.6q-.6-.4-.6-.8l.3-.5q1.9-.6 2-2.3v-.5h1l.1-.6h-1.2s-.3-.6-1.5-.6Zm-1.1 5.7.9.7q.8.6.8 1.2c0 .6-.9 1-1.9 1q-1.5 0-1.6-1.1c0-1.3 1.3-1.6 1.8-1.8Zm.8-5.3q1 0 1 1.3 0 1.9-1.3 2-1 0-1.1-1.4.1-1.8 1.4-2ZM53 121.1h2q1.6 0 1.7.4l.2 1.5h.4q0-1.6.3-2.6h-7.7v.4h1q.5 0 .5.5l-.1 1.3L50 130c-.3 1.6-.3 1.6-1 1.6l-.6.1v.5h4.5v-.5h-1.1q-.7 0-.6-.5v-.4l.6-3.8H56l.3-.7v-.1h-4.4l.7-4.5.2-.6Z"/><svg width="10.3" height="10" x="48.2" y="109.1" overflow="visible"><path d="M10.3 4.9 7 1.4l-.5.5 2 2.4h-.2v.9h.2l-2 2.3.5.5zm-8.6.3h8.1v-.9H1.7z" style="fill:#900;fill-opacity:1;stroke-width:1px;stroke:none;stroke-opacity:1"/></svg><path fill="#900" stroke="#900" stroke-width=".1" d="M61.4 132c-.8 0-2.6.8-2.6 2.7q0 1.5 1.5 1.5h.3l-.5.4-.3.6.3.4c-.9.3-2.4.8-2.4 2.1q.1 1.4 2.2 1.4c1.5 0 2.8-.8 2.8-1.8q0-.7-.7-1.3l-.7-.6q-.6-.4-.6-.8l.3-.5q1.9-.6 2-2.3v-.5h1v-.6h-1.2s-.2-.6-1.4-.6Zm-1.1 5.8.9.7q.7.6.7 1.2-.1 1-1.8 1-1.5 0-1.6-1.1c0-1.3 1.3-1.6 1.8-1.8Zm.8-5.3q1 0 1 1.3 0 1.9-1.3 2-1.1 0-1.1-1.4.1-1.8 1.4-2Zm7.4 1q0-.7.2-1.3l-.3-.1q-.5 0-1.1.9l-1.2 1.8.4-1.8.1-.5q0-.4-.3-.4t-1.6.9l-.3.2v.2l.5-.2.5-.3q.3 0 .2.3c0 .7-.5 3.1-1 4.6l.2.1.6-.1h.2l.3-1.5q.3-1.4 1-2.3.6-.7 1-.7.3 0 .4.2Zm3.4 1.9-.3 1.5v.6q0 .4.2.4.4 0 1.7-1v-.3q-.5.4-1 .5l-.1-.3 1.1-4.6-.1-.1-.4.2-1-.2-1 .2q-1 .5-1.3 1.3c-.6 1-1 2.5-1 3.4q0 1 .5 1 .7.1 2.7-2.6Zm.6-2.5q-.3 1.9-.9 2.5-1.1 1.6-1.8 1.7-.2 0-.2-.5c0-.7.4-2.1.8-3q.3-1 1.1-1zm3.5 0 .7-.1q-1.9 2-1.8 3.6 0 1.5 1.3 1.6c1.6 0 3.5-3 3.5-4.7q0-1.1-.8-1.2l-.4.1-.6.6.2.2h.3q.5 0 .5.7c0 1.7-1.2 3.7-2.2 3.7q-1 0-1-1.3c0-1.3.5-2.3 1.7-3.8l-.1-.2-.8.1h-1.8l-.5 1.4h.3l.2-.5q0-.3.6-.3zm4.3.3.1.2.4-.2.6-.3.2.3-.1.5-.8 2.9-.2.9q0 .4.4.4.3.1 1.9-1l-.1-.3-.3.2-.8.4-.1-.3v-.5l1-3.6v-.4q0-.3-.2-.3t-1.6.9Zm2.3-3.8q-.5 0-.6.7 0 .5.4.5.7 0 .7-.8 0-.3-.5-.4Zm2.1 3.8-.7 3.4-.1.9q0 .4.3.4.6.1 1.8-1l.4-.3-.1-.2-.6.4-.7.4q-.2 0-.2-.3l.6-3 .1-.7h1.3l.1-.6h-1.3l.5-2.3v-.2l-1 .5-.3 2-1 .4v.2Zm2.4 6.8v.2q0 .9 1 1c1.2 0 2.5-1.6 3.2-3.8l1.7-5.2-.1-.1-1 .2-.3 1.6-1 2q-.8 1-1.2 1.1-.3 0-.3-.5l.2-2.5v-1.2q0-.7-.2-.7-.1-.1-1 .5l-.9.6.1.2.6-.3.3-.2q.3 0 .3.7v.1l-.2 3v.4q0 .8.5.9.8-.1 2.3-2.4l-.6 2q-.8 3-2 3a1 1 0 0 1-.7-.7v-.3h-.1Z"/></svg></svg>