<svg xmlns="http://www.w3.org/2000/svg" xmlns:xlink="http://www.w3.org/1999/xlink" x="0" y="0" width="405.6000061035156" height="77" style="
        width:405.6000061035156px;
        height:77px;
        background: transparent;
        fill: none;
">
        <svg xmlns="http://www.w3.org/2000/svg"/>
        
        <svg xmlns="http://www.w3.org/2000/svg" class="role-diagram-draw-area" style="overflow: visible;"><g class="shapes-region" style="stroke: black; fill: none;"><g class="composite-shape"><defs><!-- react-text: 62524 --> <!-- /react-text --><pattern id="_pgfdi104ggardg-full-view" x="0" y="0" width="11.313708498984761" height="11.313708498984761" patternTransform="rotate(45,0,0)" patternUnits="userSpaceOnUse"><path d="M0,0 L0,11.313708498984761" style="stroke: rgb(7, 5, 5); stroke-opacity: 1; stroke-width: 1; fill: none;"/><path d="M5.656854249492381,0 L5.656854249492381,11.313708498984761" style="stroke: rgb(7, 5, 5); stroke-opacity: 1; stroke-width: 1; fill: none;"/><path d="M11.313708498984761,0 L11.313708498984761,11.313708498984761" style="stroke: rgb(7, 5, 5); stroke-opacity: 1; stroke-width: 1; fill: none;"/></pattern></defs><path class="real" d=" M-32.5,63.3 L432,63.3 L432,103.3 L-32.5,103.3 Z" style="stroke-width: 1; stroke: rgb(0, 0, 0); fill: url(&quot;#_pgfdi104ggardg-full-view&quot;); fill-opacity: 1;"/></g><g class="grouped-shape"><g class="composite-shape"><path class="real" d=" M9.9,56.22 C9.9,52.51 12.91,49.5 16.62,49.5 C20.33,49.5 23.33,52.51 23.33,56.22 C23.33,59.93 20.33,62.93 16.62,62.93 C12.91,62.93 9.9,59.93 9.9,56.22 Z" style="stroke-width: 1; stroke: rgb(0, 0, 0); fill: rgb(0, 0, 0); fill-opacity: 0.5;"/></g><g class="composite-shape"><path class="real" d=" M61.9,56.25 C61.9,52.54 64.91,49.53 68.62,49.53 C72.33,49.53 75.33,52.54 75.33,56.25 C75.33,59.96 72.33,62.97 68.62,62.97 C64.91,62.97 61.9,59.96 61.9,56.25 Z" style="stroke-width: 1; stroke: rgb(0, 0, 0); fill: rgb(0, 0, 0); fill-opacity: 0.5;"/></g><g class="composite-shape"><path class="real" d=" M7.5,23.5 L21.5,9.5 L63.5,9.5 L77.5,23.5 L77.5,49.5 L77.5,49.5 L7.5,49.5 L7.5,49.5 Z" style="stroke-width: 1; stroke: rgb(153, 0, 0); stroke-opacity: 1; fill: rgb(153, 0, 0); fill-opacity: 0.5;"/></g></g><g class="grouped-shape"><g class="composite-shape"><path class="real" d=" M101.4,56.22 C101.4,52.51 104.41,49.5 108.12,49.5 C111.83,49.5 114.83,52.51 114.83,56.22 C114.83,59.93 111.83,62.93 108.12,62.93 C104.41,62.93 101.4,59.93 101.4,56.22 Z" style="stroke-width: 1; stroke: rgb(0, 0, 0); fill: rgb(0, 0, 0); fill-opacity: 0.5;"/></g><g class="composite-shape"><path class="real" d=" M153.4,56.25 C153.4,52.54 156.41,49.53 160.12,49.53 C163.83,49.53 166.83,52.54 166.83,56.25 C166.83,59.96 163.83,62.97 160.12,62.97 C156.41,62.97 153.4,59.96 153.4,56.25 Z" style="stroke-width: 1; stroke: rgb(0, 0, 0); fill: rgb(0, 0, 0); fill-opacity: 0.5;"/></g><g class="composite-shape"><path class="real" d=" M99,23.5 L113,9.5 L155,9.5 L169,23.5 L169,49.5 L169,49.5 L99,49.5 L99,49.5 Z" style="stroke-width: 1; stroke: rgb(153, 0, 0); stroke-opacity: 1; fill: rgb(153, 0, 0); fill-opacity: 0.5;"/></g></g><g class="grouped-shape"><g class="composite-shape"><path class="real" d=" M193.4,55.88 C193.4,52.17 196.41,49.17 200.12,49.17 C203.83,49.17 206.83,52.17 206.83,55.88 C206.83,59.59 203.83,62.6 200.12,62.6 C196.41,62.6 193.4,59.59 193.4,55.88 Z" style="stroke-width: 1; stroke: rgb(0, 0, 0); fill: rgb(0, 0, 0); fill-opacity: 0.5;"/></g><g class="composite-shape"><path class="real" d=" M245.4,55.92 C245.4,52.21 248.41,49.2 252.12,49.2 C255.83,49.2 258.83,52.21 258.83,55.92 C258.83,59.63 255.83,62.63 252.12,62.63 C248.41,62.63 245.4,59.63 245.4,55.92 Z" style="stroke-width: 1; stroke: rgb(0, 0, 0); fill: rgb(0, 0, 0); fill-opacity: 0.5;"/></g><g class="composite-shape"><path class="real" d=" M191,23.17 L205,9.17 L247,9.17 L261,23.17 L261,49.17 L261,49.17 L191,49.17 L191,49.17 Z" style="stroke-width: 1; stroke: rgb(153, 0, 0); stroke-opacity: 1; fill: rgb(153, 0, 0); fill-opacity: 0.5;"/></g></g><g class="arrow-line"><path class="connection real" stroke-dasharray="" d="  M77.83,35.83 Q80.33,33.33 82.83,35.83 Q85.33,38.33 87.83,35.83 Q90.33,33.33 92.83,35.83 Q95.33,38.33 97.83,35.83 L99.33,35.83 L99.33,35.83" style="stroke: rgb(0, 0, 0); stroke-width: 1; fill: none; fill-opacity: 1;"/></g><g class="arrow-line"><path class="connection real" stroke-dasharray="" d="  M169.5,36.5 Q172,34 174.5,36.5 Q177,39 179.5,36.5 Q182,34 184.5,36.5 Q187,39 189.5,36.5 L191,36.5 L191,36.5" style="stroke: rgb(0, 0, 0); stroke-width: 1; fill: none; fill-opacity: 1;"/></g><g class="arrow-line"><path class="connection real" stroke-dasharray="" d="  M265.67,36.17 Q268.17,33.67 270.67,36.17 Q273.17,38.67 275.67,36.17 Q278.17,33.67 280.67,36.17 Q283.17,38.67 285.67,36.17 Q288.17,33.67 290.67,36.17 L291,36.17 L291,36.17" style="stroke: rgb(0, 0, 0); stroke-width: 1; fill: none; fill-opacity: 1;"/></g><g class="arrow-line"><path class="connection real" stroke-dasharray="" d="  M261.8,36.17 L265.67,36.17" style="stroke: rgb(0, 0, 0); stroke-width: 1; fill: none; fill-opacity: 1;"/></g><g class="arrow-line"><path class="connection real" stroke-dasharray="" d="  M291,36.17 L325.33,36.17" style="stroke: rgb(153, 0, 0); stroke-width: 2; fill: none; fill-opacity: 1; stroke-opacity: 1;"/><g stroke="none" fill="rgb(153,0,0)" fill-opacity="1" transform="matrix(-1,1.2246467991473532e-16,-1.2246467991473532e-16,-1,329.3333333333333,36.16666666666666)" style="stroke: none; fill: rgb(153, 0, 0); stroke-width: 2;"><path d=" M13.4,-6.43 L0,0 L13.4,6.44 L8.9,0 Z"/></g></g><g/></g><g/><g/><g/></svg>
        <svg xmlns="http://www.w3.org/2000/svg" xmlns:xlink="http://www.w3.org/1999/xlink" width="404" height="75.4000015258789" style="width:404px;height:75.4000015258789px;font-family:Asana-Math, Asana;background:transparent;"><g><g><g><g><g><g><g transform="matrix(1,0,0,1,329.7249755859375,34.69999694824219)"><path transform="matrix(0.017,0,0,-0.017,0,0)" d="M286 646L392 650C454 650 494 641 495 626L503 537L527 537C530 600 537 651 548 689C526 691 498 692 481 692L440 691L275 689L246 689C221 689 181 690 143 691L94 692L91 664L147 662C171 661 182 652 182 635C182 621 178 589 173 559L98 125C81 33 81 32 40 28L4 25L0 -3L34 -2C74 -1 106 0 127 0C145 0 174 -1 213 -2L265 -3L268 25L204 28C177 29 168 37 168 57C168 63 169 74 170 78L206 301L323 301C350 301 381 300 429 298L455 297L474 342L470 349C389 345 329 343 251 343L214 343L260 614C263 630 264 635 269 646Z" stroke="rgb(153,0,0)" stroke-opacity="1" stroke-width="8" fill="rgb(153,0,0)" fill-opacity="1"></path></g></g></g></g><svg x="329.7249755859375" overflow="visible" y="11.699996948242188" height="10" width="10.287500381469727"><path d=" M 10.29 4.85 l -3.15 -3.32 l -0.49 0.52 l 1.93 2.33 h -0.15 v 0.90 h 0.15 l -1.93 2.33 l 0.49 0.52 z  M 1.68 5.23 h 8.15 v -0.90 h -8.15 z" style="fill:rgb(153,0,0);fill-opacity:1;stroke-width:1px;stroke:none;stroke-opacity:1;"></path></svg></g></g></g><g><g><g><g transform="matrix(1,0,0,1,207.17498779296875,35.96250915527344)"><path transform="matrix(0.017,0,0,-0.017,0,0)" d="M462 224C462 345 355 366 308 374C388 436 418 482 418 541C418 630 344 689 233 689C165 689 120 670 72 622L43 498L74 498L92 554C103 588 166 622 218 622C283 622 336 569 336 506C336 431 277 368 206 368C198 368 187 369 174 370L159 371L147 318L154 312C192 329 211 334 238 334C321 334 369 281 369 190C369 88 308 21 215 21C169 21 128 36 98 64C74 86 61 109 42 163L15 153C36 92 44 56 50 6C103 -12 147 -20 184 -20C307 -20 462 87 462 224ZM623 111C593 111 566 83 566 53C566 23 593 -5 622 -5C654 -5 682 22 682 53C682 83 654 111 623 111ZM1166 -3L1166 27L1114 30C1059 33 1049 44 1049 96L1049 700L808 598L815 548L965 614L965 96C965 44 954 33 900 30L844 27L844 -3C998 0 998 0 1009 0C1040 0 1150 -3 1166 -3ZM1487 722L1475 733C1423 707 1387 698 1315 691L1311 670L1359 670C1383 670 1393 663 1393 646C1393 638 1392 629 1391 622L1343 354C1329 279 1313 210 1261 1L1270 -9L1337 8L1360 132C1369 180 1393 225 1427 259C1496 59 1528 -9 1553 -9C1566 -9 1590 4 1634 35L1680 67L1672 86L1629 62C1615 54 1608 52 1600 52C1590 52 1583 58 1574 75C1539 139 1517 193 1478 316L1492 330C1553 391 1599 416 1649 416C1657 416 1668 414 1685 410L1702 473C1684 479 1666 482 1654 482C1588 482 1505 405 1380 230ZM1990 482C1923 482 1770 419 1770 259C1770 182 1815 136 1892 136C1900 136 1911 136 1922 137L1881 99C1865 84 1854 66 1854 52C1854 42 1861 31 1875 19C1806 -4 1678 -48 1678 -159C1678 -230 1748 -276 1857 -276C1986 -276 2099 -204 2099 -121C2099 -85 2078 -49 2035 -14L1975 35C1941 62 1928 81 1928 100C1928 114 1943 128 1955 146C2053 170 2124 253 2124 342C2124 357 2121 376 2120 380C2137 378 2145 378 2154 378C2171 378 2181 379 2204 382L2213 427L2210 433C2182 426 2162 424 2108 424C2108 425 2084 482 1990 482ZM1891 1L1968 -58C2014 -94 2033 -121 2033 -154C2033 -206 1964 -248 1881 -248C1799 -248 1742 -206 1742 -145C1742 -43 1852 -11 1891 1ZM1965 448C2023 448 2052 412 2052 341C2052 238 2004 168 1934 168C1873 168 1841 209 1841 288C1841 383 1892 448 1965 448Z" stroke="rgb(255,255,255)" stroke-opacity="1" stroke-width="8" fill="rgb(255,255,255)" fill-opacity="1"></path></g></g></g></g><g><g><g><g transform="matrix(1,0,0,1,115.17498779296875,36.30000305175781)"><path transform="matrix(0.017,0,0,-0.017,0,0)" d="M16 23L16 -3C203 -3 203 0 239 0C275 0 275 -3 468 -3L468 82C353 77 307 81 122 77L304 270C401 373 431 428 431 503C431 618 353 689 226 689C154 689 105 669 56 619L39 483L68 483L81 529C97 587 133 612 200 612C286 612 341 558 341 473C341 398 299 324 186 204ZM623 111C593 111 566 83 566 53C566 23 593 -5 622 -5C654 -5 682 22 682 53C682 83 654 111 623 111ZM1028 181L1028 106C1028 46 1017 32 968 30L906 27L906 -3C1039 0 1039 0 1063 0C1087 0 1087 0 1220 -3L1220 27L1172 30C1123 33 1112 46 1112 106L1112 181C1171 181 1192 180 1220 177L1220 248L1112 245L1113 697L1033 667L750 204L750 181ZM1028 245L813 245L1028 597ZM1487 722L1475 733C1423 707 1387 698 1315 691L1311 670L1359 670C1383 670 1393 663 1393 646C1393 638 1392 629 1391 622L1343 354C1329 279 1313 210 1261 1L1270 -9L1337 8L1360 132C1369 180 1393 225 1427 259C1496 59 1528 -9 1553 -9C1566 -9 1590 4 1634 35L1680 67L1672 86L1629 62C1615 54 1608 52 1600 52C1590 52 1583 58 1574 75C1539 139 1517 193 1478 316L1492 330C1553 391 1599 416 1649 416C1657 416 1668 414 1685 410L1702 473C1684 479 1666 482 1654 482C1588 482 1505 405 1380 230ZM1990 482C1923 482 1770 419 1770 259C1770 182 1815 136 1892 136C1900 136 1911 136 1922 137L1881 99C1865 84 1854 66 1854 52C1854 42 1861 31 1875 19C1806 -4 1678 -48 1678 -159C1678 -230 1748 -276 1857 -276C1986 -276 2099 -204 2099 -121C2099 -85 2078 -49 2035 -14L1975 35C1941 62 1928 81 1928 100C1928 114 1943 128 1955 146C2053 170 2124 253 2124 342C2124 357 2121 376 2120 380C2137 378 2145 378 2154 378C2171 378 2181 379 2204 382L2213 427L2210 433C2182 426 2162 424 2108 424C2108 425 2084 482 1990 482ZM1891 1L1968 -58C2014 -94 2033 -121 2033 -154C2033 -206 1964 -248 1881 -248C1799 -248 1742 -206 1742 -145C1742 -43 1852 -11 1891 1ZM1965 448C2023 448 2052 412 2052 341C2052 238 2004 168 1934 168C1873 168 1841 209 1841 288C1841 383 1892 448 1965 448Z" stroke="rgb(255,255,255)" stroke-opacity="1" stroke-width="8" fill="rgb(255,255,255)" fill-opacity="1"></path></g></g></g></g><g><g><g><g transform="matrix(1,0,0,1,23.67498779296875,36.30000305175781)"><path transform="matrix(0.017,0,0,-0.017,0,0)" d="M418 -3L418 27L366 30C311 33 301 44 301 96L301 700L60 598L67 548L217 614L217 96C217 44 206 33 152 30L96 27L96 -3C250 0 250 0 261 0C292 0 402 -3 418 -3ZM623 111C593 111 566 83 566 53C566 23 593 -5 622 -5C654 -5 682 22 682 53C682 83 654 111 623 111ZM764 23L764 -3C951 -3 951 0 987 0C1023 0 1023 -3 1216 -3L1216 82C1101 77 1055 81 870 77L1052 270C1149 373 1179 428 1179 503C1179 618 1101 689 974 689C902 689 853 669 804 619L787 483L816 483L829 529C845 587 881 612 948 612C1034 612 1089 558 1089 473C1089 398 1047 324 934 204ZM1487 722L1475 733C1423 707 1387 698 1315 691L1311 670L1359 670C1383 670 1393 663 1393 646C1393 638 1392 629 1391 622L1343 354C1329 279 1313 210 1261 1L1270 -9L1337 8L1360 132C1369 180 1393 225 1427 259C1496 59 1528 -9 1553 -9C1566 -9 1590 4 1634 35L1680 67L1672 86L1629 62C1615 54 1608 52 1600 52C1590 52 1583 58 1574 75C1539 139 1517 193 1478 316L1492 330C1553 391 1599 416 1649 416C1657 416 1668 414 1685 410L1702 473C1684 479 1666 482 1654 482C1588 482 1505 405 1380 230ZM1990 482C1923 482 1770 419 1770 259C1770 182 1815 136 1892 136C1900 136 1911 136 1922 137L1881 99C1865 84 1854 66 1854 52C1854 42 1861 31 1875 19C1806 -4 1678 -48 1678 -159C1678 -230 1748 -276 1857 -276C1986 -276 2099 -204 2099 -121C2099 -85 2078 -49 2035 -14L1975 35C1941 62 1928 81 1928 100C1928 114 1943 128 1955 146C2053 170 2124 253 2124 342C2124 357 2121 376 2120 380C2137 378 2145 378 2154 378C2171 378 2181 379 2204 382L2213 427L2210 433C2182 426 2162 424 2108 424C2108 425 2084 482 1990 482ZM1891 1L1968 -58C2014 -94 2033 -121 2033 -154C2033 -206 1964 -248 1881 -248C1799 -248 1742 -206 1742 -145C1742 -43 1852 -11 1891 1ZM1965 448C2023 448 2052 412 2052 341C2052 238 2004 168 1934 168C1873 168 1841 209 1841 288C1841 383 1892 448 1965 448Z" stroke="rgb(255,255,255)" stroke-opacity="1" stroke-width="8" fill="rgb(255,255,255)" fill-opacity="1"></path></g></g></g></g></svg>
</svg>
