<svg xmlns="http://www.w3.org/2000/svg" width="201.6" height="113.375" style="width:201.60001046316964px;height:113.375px;background:0 0;fill:none"><svg xmlns="http://www.w3.org/2000/svg"/><svg xmlns="http://www.w3.org/2000/svg" class="role-diagram-draw-area" style="overflow:visible"><g class="shapes-region" style="stroke:#000;fill:none"><g class="composite-shape"><defs><pattern id="_pgfwvorq2qbidg-full-view" width="11.314" height="11.314" x="0" y="0" patternTransform="rotate(45 0 0)" patternUnits="userSpaceOnUse"><path d="M0 0v11.314M5.657 0v11.314M11.314 0v11.314" style="stroke:#000;stroke-opacity:1;stroke-width:1;fill:none"/></pattern></defs><path d="M-14-27h232.8v40H-14Z" class="real" style="stroke-width:1;stroke:#000;fill:url(#_pgfwvorq2qbidg-full-view);fill-opacity:1"/></g><g class="composite-shape"><defs><pattern id="_pgfxv0talgojdg-full-view" width="11.314" height="11.314" x="0" y="0" patternTransform="rotate(45 0 0)" patternUnits="userSpaceOnUse"><path d="M0 0v11.314M5.657 0v11.314M11.314 0v11.314" style="stroke:#000;stroke-opacity:.5;stroke-width:1;fill:none"/></pattern></defs><path d="M98.2 13h5.6v60.25h-5.6Z" class="real" style="stroke-width:1;stroke:#000;fill:url(#_pgfxv0talgojdg-full-view);fill-opacity:1;stroke-opacity:.5"/></g><g class="composite-shape"><path d="M83.22 81.79c0-9.83 7.97-17.79 17.79-17.79 9.83 0 17.79 7.96 17.79 17.79 0 9.82-7.96 17.78-17.79 17.78-9.82 0-17.79-7.96-17.79-17.78Z" class="real" style="stroke-width:1;stroke:#900;stroke-opacity:1;fill:#900;fill-opacity:1"/></g></g></svg><svg xmlns="http://www.w3.org/2000/svg" xmlns:xlink="http://www.w3.org/1999/xlink" width="200" height="111.775" style="width:200px;height:111.77499825613839px;font-family:Asana-Math,Asana;background:0 0"><path fill="#fff" stroke="#fff" stroke-width=".136" d="m107.091 84.261-.442.29c-.493.322-.867.51-1.037.51-.119 0-.22-.154-.22-.34 0-.17.033-.324.118-.68l1.275-5.05c.068-.289.12-.56.12-.697 0-.289-.17-.476-.443-.476-.493 0-1.139.306-2.176 1.037-1.07.765-1.666 1.36-2.499 2.533l.51-2.329c.068-.34.12-.595.12-.714 0-.323-.17-.527-.443-.527-.51 0-1.292.374-2.227 1.088-.748.578-1.088.935-2.193 2.431l.561-2.26a3 3 0 0 0 .102-.732c0-.323-.153-.527-.39-.527-.358 0-1.004.357-2.262 1.258l-.476.34.12.34c.628-.39 1.223-.782 1.342-.782.187 0 .306.17.306.425 0 .867-.697 4.148-1.394 6.58l.051.186 1.156-.255.374-1.734c.408-1.887.867-2.89 1.802-3.91.714-.782 1.48-1.292 1.955-1.292.12 0 .187.136.187.357 0 .595-.374 2.533-1.07 5.508l-.273 1.14.085.186 1.173-.255.357-1.819c.272-1.377.85-2.652 1.598-3.485.935-1.037 1.785-1.632 2.33-1.632.135 0 .22.153.22.425 0 .408-.05.646-.425 2.125-.68 2.703-.952 3.06-.952 3.961 0 .425.187.68.51.68.442 0 1.054-.357 2.72-1.598Z"/></svg></svg>