<svg xmlns="http://www.w3.org/2000/svg" width="283.6" height="76.2" style="width:283.6000061035156px;height:76.20000457763672px;background:0 0;fill:none"><svg xmlns="http://www.w3.org/2000/svg"/><svg xmlns="http://www.w3.org/2000/svg" class="role-diagram-draw-area"><g class="shapes-region" style="stroke:#000;fill:none"><g class="arrow-line"><path d="M130.21 57.1H14" class="connection real" style="stroke:#900;stroke-opacity:1;stroke-width:2;fill:none;fill-opacity:1"/><path fill="#900" stroke="none" d="M13.4-6.43 0 0l13.4 6.44L8.9 0Z" style="stroke:none;fill:#900;stroke-width:2" transform="translate(10 57.1)"/></g><g class="arrow-line"><path d="M130.21 14v43.1" class="connection real" style="stroke:#900;stroke-opacity:1;stroke-width:2;fill:none;fill-opacity:1"/><path fill="#900" stroke="none" d="M13.4-6.43 0 0l13.4 6.44L8.9 0Z" style="stroke:none;fill:#900;stroke-width:2" transform="rotate(90 60.107 70.107)"/></g><g class="arrow-line"><path d="M130.21 57.1H270" class="connection real" style="stroke:#900;stroke-opacity:1;stroke-width:2;fill:none;fill-opacity:1"/><path fill="#900" stroke="none" d="M13.4-6.43 0 0l13.4 6.44L8.9 0Z" style="stroke:none;fill:#900;stroke-width:2" transform="matrix(-1 0 0 -1 274 57.1)"/></g><g class="composite-shape"><path d="M127.58 57.1a2.635 2.635 0 0 1 5.27 0 2.635 2.635 0 0 1-5.27 0Z" class="real" style="stroke-width:1;stroke:#000;fill:#000;fill-opacity:1"/></g></g></svg><svg xmlns="http://www.w3.org/2000/svg" xmlns:xlink="http://www.w3.org/1999/xlink" width="282" height="74.6" style="width:282px;height:74.5999984741211px;font-family:Asana-Math,Asana;background:0 0"><path fill="#900" stroke="#900" stroke-width=".109" d="m248.627 38.564 1.442-.054c.843 0 1.387.122 1.4.326l.11 1.21h.326c.04-.856.136-1.55.285-2.066a11 11 0 0 0-.91-.041l-.559.013-2.244.028h-.394c-.34 0-.884-.014-1.4-.028l-.667-.013-.04.38.76.028c.327.013.477.136.477.367 0 .19-.055.626-.123 1.034l-1.02 5.902c-.23 1.251-.23 1.265-.789 1.32l-.49.04-.054.38.463-.013c.544-.013.98-.027 1.265-.027.244 0 .639.014 1.17.027l.706.014.041-.381-.87-.04c-.367-.014-.49-.123-.49-.395 0-.082.014-.231.027-.286l.49-3.033h1.591c.367 0 .79.014 1.442.041l.353.014.259-.612-.055-.095a56 56 0 0 1-2.978.081h-.503l.625-3.685c.041-.218.055-.286.123-.436Z"/><svg width="8.225" height="8" x="244.737" y="29.75" overflow="visible"><path d="M8.23 3.88 5.71 1.22l-.39.42L6.86 3.5h-.12v.72h.12L5.32 6.08l.39.42zm-6.88.31h6.51v-.72H1.35z" style="fill:#900;fill-opacity:1;stroke-width:1px;stroke:none;stroke-opacity:1"/></svg><path fill="#900" stroke="#900" stroke-width=".076" d="M256.667 52.411v-.286l-.495-.028c-.524-.029-.619-.133-.619-.628v-5.75l-2.294.97.066.477 1.428-.629v4.932c0 .495-.104.6-.618.628l-.534.028v.286c1.466-.028 1.466-.028 1.571-.028.295 0 1.343.028 1.495.028Z"/><path fill="#900" stroke="#900" stroke-width=".109" d="m143.602 21.202 1.442-.054c.843 0 1.387.122 1.4.326l.11 1.21h.326c.04-.856.136-1.55.285-2.067-.299-.027-.68-.04-.91-.04l-.558.013-2.244.027h-.395c-.34 0-.884-.013-1.4-.027l-.667-.014-.04.381.76.027c.327.014.477.136.477.368 0 .19-.055.625-.123 1.033l-1.02 5.903c-.23 1.25-.23 1.264-.788 1.319l-.49.04-.054.381.462-.013c.544-.014.98-.027 1.265-.027.245 0 .639.013 1.17.027l.707.013.04-.38-.87-.041c-.367-.014-.49-.123-.49-.395 0-.081.014-.23.028-.285l.49-3.033h1.59c.368 0 .79.014 1.442.04l.354.014.258-.612-.054-.095a56 56 0 0 1-2.979.082h-.503l.626-3.686c.04-.217.054-.285.122-.435Z"/><svg width="8.225" height="8" x="139.713" y="12.388" overflow="visible"><path d="M8.23 3.88 5.71 1.22l-.39.42L6.86 3.5h-.12v.72h.12L5.32 6.08l.39.42zm-6.88.31h6.51v-.72H1.35z" style="fill:#900;fill-opacity:1;stroke-width:1px;stroke:none;stroke-opacity:1"/></svg><path fill="#900" stroke="#900" stroke-width=".076" d="M152.06 32.888c0-1.152-1.018-1.352-1.465-1.428.761-.59 1.047-1.029 1.047-1.59 0-.848-.705-1.41-1.761-1.41-.648 0-1.076.182-1.533.639l-.276 1.18h.295l.171-.533c.105-.324.705-.647 1.2-.647a1.12 1.12 0 0 1 1.123 1.104c0 .714-.561 1.314-1.237 1.314-.077 0-.181-.01-.305-.02l-.143-.009-.114.505.067.057c.361-.162.542-.21.8-.21.79 0 1.246.505 1.246 1.371 0 .971-.58 1.61-1.466 1.61-.438 0-.828-.144-1.114-.41-.228-.21-.352-.429-.533-.943l-.257.095c.2.581.276.924.334 1.4.504.171.923.247 1.275.247 1.171 0 2.647-1.018 2.647-2.322Z"/><path fill="#900" stroke="#900" stroke-width=".109" d="m30.152 38.152 1.442-.055c.843 0 1.387.123 1.4.327l.11 1.21h.326c.04-.857.136-1.55.285-2.067-.299-.027-.68-.04-.91-.04l-.558.013-2.244.027h-.395c-.34 0-.884-.014-1.4-.027l-.667-.014-.04.381.76.027c.327.014.477.136.477.367 0 .19-.055.626-.123 1.034l-1.02 5.902c-.23 1.252-.23 1.265-.788 1.32l-.49.04-.054.381.462-.013c.544-.014.98-.028 1.265-.028.245 0 .639.014 1.17.028l.707.013.04-.38-.87-.041c-.367-.014-.49-.123-.49-.395 0-.081.014-.23.028-.285l.49-3.033h1.59c.368 0 .79.013 1.442.04l.354.014.258-.612-.054-.095a56 56 0 0 1-2.979.082h-.503l.626-3.686c.04-.218.054-.286.122-.435Z"/><svg width="8.225" height="8" x="26.263" y="29.337" overflow="visible"><path d="M8.23 3.88 5.71 1.22l-.39.42L6.86 3.5h-.12v.72h.12L5.32 6.08l.39.42zm-6.88.31h6.51v-.72H1.35z" style="fill:#900;fill-opacity:1;stroke-width:1px;stroke:none;stroke-opacity:1"/></svg><path fill="#900" stroke="#900" stroke-width=".076" d="M34.365 51.751V52c1.78 0 1.78-.029 2.123-.029s.343.029 2.18.029v-.81c-1.095.048-1.533.01-3.294.048l1.733-1.837c.923-.98 1.209-1.505 1.209-2.219 0-1.094-.743-1.77-1.952-1.77-.685 0-1.152.19-1.618.666l-.162 1.295h.276l.124-.438c.152-.552.495-.79 1.133-.79.818 0 1.342.514 1.342 1.323 0 .714-.4 1.419-1.476 2.56Z"/></svg></svg>