<svg xmlns="http://www.w3.org/2000/svg" width="416.6" height="142.2" style="width:416.6000061035156px;height:142.1999969482422px;background:#fff;fill:none"><svg xmlns="http://www.w3.org/2000/svg"/><svg xmlns="http://www.w3.org/2000/svg" class="role-diagram-draw-area"><g class="shapes-region" style="stroke:#000;fill:none"><g class="composite-shape"><defs><pattern id="_pgfm9bkdudsf" width="11.314" height="11.314" x="0" y="0" patternTransform="rotate(45 0 0)" patternUnits="userSpaceOnUse"><path d="M0 0v11.314M5.657 0v11.314M11.314 0v11.314" style="stroke:#000;stroke-opacity:1;stroke-width:1;fill:none"/></pattern></defs><path d="M126.16 10.1h50v50h-50Z" class="real" style="stroke-width:1;stroke:#000;fill:url(#_pgfm9bkdudsf);fill-opacity:1"/></g><g class="arrow-line"><path d="M81.29 34.98h41.51" class="connection real" style="stroke:#900;stroke-opacity:1;stroke-width:1;fill:none;fill-opacity:1"/><path fill="#900" stroke="none" d="M10.72-5.15 0 0l10.72 5.15L7.12 0Z" style="stroke:none;fill:#900;stroke-width:1" transform="matrix(-1 0 0 -1 125.8 34.98)"/></g><g class="composite-shape"><defs><pattern id="_pgfoh6zswn4y" width="11.314" height="11.314" x="0" y="0" patternTransform="rotate(45 0 0)" patternUnits="userSpaceOnUse"><path d="M0 0v11.314M5.657 0v11.314M11.314 0v11.314" style="stroke:#000;stroke-opacity:1;stroke-width:1;fill:none"/></pattern></defs><path d="M126.16 79.3h50v50h-50Z" class="real" style="stroke-width:1;stroke:#000;fill:url(#_pgfoh6zswn4y);fill-opacity:1"/></g><g class="arrow-line"><path d="M33 106.07h90.43" class="connection real" style="stroke:#900;stroke-opacity:1;stroke-width:1;fill:none;fill-opacity:1"/><path fill="#900" stroke="none" d="M10.72-5.15 0 0l10.72 5.15L7.12 0Z" style="stroke:none;fill:#900;stroke-width:1" transform="matrix(-1 0 0 -1 126.429 106.066)"/></g><g class="composite-shape"><defs><pattern id="_pgfq03twsb2p" width="11.314" height="11.314" x="0" y="0" patternTransform="rotate(45 0 0)" patternUnits="userSpaceOnUse"><path d="M0 0v11.314M5.657 0v11.314M11.314 0v11.314" style="stroke:#000;stroke-opacity:1;stroke-width:1;fill:none"/></pattern></defs><path d="M238.6 10h50v50h-50Z" class="real" style="stroke-width:1;stroke:#000;fill:url(#_pgfq03twsb2p);fill-opacity:1"/></g><g class="composite-shape"><defs><pattern id="_pgfsfb908ngs" width="11.314" height="11.314" x="0" y="0" patternTransform="rotate(45 0 0)" patternUnits="userSpaceOnUse"><path d="M0 0v11.314M5.657 0v11.314M11.314 0v11.314" style="stroke:#000;stroke-opacity:1;stroke-width:1;fill:none"/></pattern></defs><path d="M238.6 79.2h50v50h-50Z" class="real" style="stroke-width:1;stroke:#000;fill:url(#_pgfsfb908ngs);fill-opacity:1"/></g><g class="arrow-line"><path d="M289.6 35.48h39.29" class="connection real" style="stroke:#900;stroke-opacity:1;stroke-width:1;fill:none;fill-opacity:1"/><path stroke="#900" d="M10.93-3.29Q4.96-.45 0 0q4.96.45 10.93 3.29" style="stroke:#900;stroke-width:1" transform="matrix(-1 0 0 -1 330.886 35.48)"/></g><g class="arrow-line"><path d="M289 105.57h91.43" class="connection real" style="stroke:#900;stroke-opacity:1;stroke-width:1;fill:none;fill-opacity:1"/><path stroke="#900" d="M10.93-3.29Q4.96-.45 0 0q4.96.45 10.93 3.29" style="stroke:#900;stroke-width:1" transform="matrix(-1 0 0 -1 382.429 105.566)"/></g></g></svg><svg xmlns="http://www.w3.org/2000/svg" xmlns:xlink="http://www.w3.org/1999/xlink" width="415" height="140.6" style="width:415px;height:140.60000610351562px;font-family:Asana-Math,Asana;background:#fff"><path fill="#900" stroke="#900" stroke-width=".136" d="m72.887 33.793 1.802-.068c1.054 0 1.734.153 1.751.408l.136 1.513h.408c.051-1.071.17-1.938.357-2.584-.374-.034-.85-.051-1.139-.051l-.697.017-2.805.034h-.493c-.425 0-1.105-.017-1.751-.034l-.833-.017-.051.476.952.034c.408.017.595.17.595.459 0 .238-.068.782-.153 1.292l-1.275 7.378c-.289 1.564-.289 1.581-.986 1.649l-.612.051-.068.476.578-.017c.68-.017 1.224-.034 1.581-.034.306 0 .799.017 1.462.034l.884.017.051-.476-1.088-.051c-.459-.017-.612-.153-.612-.493 0-.102.017-.289.034-.357l.612-3.791h1.989c.459 0 .986.017 1.802.051l.442.017.323-.765-.068-.119a70 70 0 0 1-3.723.102h-.629l.782-4.607c.051-.272.068-.357.153-.544Z"/><svg width="10.288" height="10" x="68.025" y="21.775" overflow="visible"><path d="M10.29 4.85 7.14 1.53l-.49.52 1.93 2.33h-.15v.9h.15L6.65 7.61l.49.52zm-8.61.38h8.15v-.9H1.68z" style="fill:#900;fill-opacity:1;stroke-width:1px;stroke:none;stroke-opacity:1"/></svg><path fill="#900" stroke="#900" stroke-width=".136" d="M12.547 115.472v.442c3.179 0 3.179-.051 3.791-.051s.612.05 3.893.05v-1.444c-1.955.085-2.737.017-5.882.085l3.094-3.281c1.649-1.751 2.159-2.686 2.159-3.961 0-1.955-1.326-3.162-3.485-3.162-1.224 0-2.057.34-2.89 1.19l-.289 2.312h.493l.221-.782c.272-.986.884-1.411 2.023-1.411 1.462 0 2.397.918 2.397 2.363 0 1.275-.714 2.533-2.635 4.573Zm13.078-10.592 1.802-.067c1.054 0 1.734.153 1.75.408l.137 1.513h.408c.05-1.071.17-1.938.357-2.584-.374-.034-.85-.051-1.14-.051l-.696.017-2.805.034h-.493c-.425 0-1.105-.017-1.751-.034l-.833-.017-.051.476.952.034c.408.017.595.17.595.459 0 .238-.068.782-.153 1.292l-1.275 7.378c-.29 1.564-.29 1.58-.986 1.649l-.612.05-.068.477.578-.017c.68-.017 1.224-.034 1.58-.034.307 0 .8.017 1.463.034l.884.017.05-.476-1.087-.051c-.46-.017-.612-.153-.612-.493 0-.102.017-.29.034-.357l.612-3.791h1.989c.459 0 .986.017 1.802.05l.442.018.323-.765-.068-.12a70 70 0 0 1-3.723.103h-.63l.783-4.607c.05-.272.068-.357.153-.544Z"/><svg width="10.288" height="10" x="20.763" y="92.863" overflow="visible"><path d="M10.29 4.85 7.14 1.53l-.49.52 1.93 2.33h-.15v.9h.15L6.65 7.61l.49.52zm-8.61.38h8.15v-.9H1.68z" style="fill:#900;fill-opacity:1;stroke-width:1px;stroke:none;stroke-opacity:1"/></svg><path fill="#900" stroke="#900" stroke-width=".136" d="m338.757 39.807-.493 2.159a4 4 0 0 0-.102.867c0 .374.153.595.408.595.391 0 1.088-.442 2.482-1.598l-.119-.357c-.408.34-.901.799-1.275.799-.153 0-.255-.153-.255-.391 0-.085 0-.136.017-.187l1.564-6.443-.17-.153-.561.306c-.697-.255-.986-.323-1.445-.323-.476 0-.816.085-1.275.306-1.054.527-1.615 1.037-2.04 1.87-.748 1.513-1.275 3.553-1.275 4.879 0 .748.255 1.326.578 1.326.629 0 1.989-.884 3.961-3.655Zm.816-3.57c-.374 1.853-.697 2.737-1.275 3.621-.969 1.428-2.006 2.414-2.55 2.414-.204 0-.306-.221-.306-.68 0-1.088.476-3.077 1.071-4.437.408-.935.799-1.241 1.615-1.241.391 0 .697.068 1.445.323Z"/><svg width="9.35" height="10" x="333.675" y="24.275" overflow="visible"><path d="M9.35 4.85 6.2 1.53l-.49.52 1.93 2.33h-.15v.9h.15L5.71 7.61l.49.52zm-7.67.38h7.21v-.9H1.68z" style="fill:#900;fill-opacity:1;stroke-width:1px;stroke:none;stroke-opacity:1"/></svg><path fill="#900" stroke="#900" stroke-width=".136" d="M385.497 112.972v.442c3.179 0 3.179-.051 3.791-.051s.612.05 3.893.05v-1.444c-1.955.085-2.737.017-5.882.085l3.094-3.281c1.649-1.751 2.159-2.686 2.159-3.961 0-1.955-1.326-3.162-3.485-3.162-1.224 0-2.057.34-2.89 1.19l-.289 2.312h.493l.221-.782c.272-.986.884-1.411 2.023-1.411 1.462 0 2.397.918 2.397 2.363 0 1.275-.714 2.533-2.635 4.573Zm13.298-3.077-.494 2.159a4 4 0 0 0-.101.867c0 .374.153.595.408.595.39 0 1.087-.442 2.481-1.598l-.118-.357c-.409.34-.901.799-1.276.799-.152 0-.255-.153-.255-.391 0-.085 0-.136.017-.187l1.565-6.443-.17-.153-.561.306c-.697-.255-.986-.323-1.445-.323-.476 0-.817.085-1.276.306-1.053.527-1.615 1.037-2.04 1.87-.747 1.513-1.274 3.553-1.274 4.879 0 .748.255 1.326.578 1.326.628 0 1.988-.884 3.96-3.655Zm.815-3.57c-.374 1.853-.697 2.737-1.274 3.62-.97 1.429-2.007 2.415-2.55 2.415-.204 0-.307-.221-.307-.68 0-1.088.476-3.077 1.072-4.437.408-.935.798-1.241 1.615-1.241.39 0 .697.068 1.445.323Z"/><svg width="9.35" height="10" x="393.713" y="94.363" overflow="visible"><path d="M9.35 4.85 6.2 1.53l-.49.52 1.93 2.33h-.15v.9h.15L5.71 7.61l.49.52zm-7.67.38h7.21v-.9H1.68z" style="fill:#900;fill-opacity:1;stroke-width:1px;stroke:none;stroke-opacity:1"/></svg><path fill="#000" stroke="#000" stroke-width=".136" d="m215.008 68.759-4.301-4.522-.51.561 1.36 1.666H199.98v1.003h12.427l1.088 1.326-1.071 1.292H199.98v1.003h11.577l-1.36 1.666.51.527Z"/></svg></svg>