<svg xmlns="http://www.w3.org/2000/svg" width="201.6" height="96.1" style="width:201.60000610351562px;height:96.125px;background:0 0;fill:none"><svg xmlns="http://www.w3.org/2000/svg"/><svg xmlns="http://www.w3.org/2000/svg" class="role-diagram-draw-area"><g class="shapes-region" style="stroke:#000;fill:none"><g class="composite-shape"><defs><pattern id="_pgfnhkeu3k5t" width="11.3" height="11.3" x="0" y="0" patternTransform="rotate(45 0 0)" patternUnits="userSpaceOnUse"><path d="M0 0v11.3M5.7 0v11.3M11.3 0v11.3" style="stroke:#000;stroke-opacity:1;stroke-width:1;fill:none"/></pattern></defs><path d="M-11 75.6h231.2v96H-11Z" class="real" style="stroke-width:1;stroke:#000;fill:url(#_pgfnhkeu3k5t);fill-opacity:1"/></g><g class="composite-shape"><path d="M68 36h39.5v40H68Z" class="real" style="stroke-width:1;stroke:#900;stroke-opacity:1;fill:#900;fill-opacity:.5"/></g><g class="arrow-line"><path d="m10.6 9.2 54.7 25.5" class="connection real" style="stroke:#900;stroke-opacity:1;stroke-width:1;fill:none;fill-opacity:1"/><path fill="#900" stroke="none" d="M10.7-5.1 0 0l10.7 5.2L7.1 0Z" style="stroke:none;fill:#900;stroke-width:1" transform="rotate(205 38 10.5)"/></g><g class="arrow-line"><path stroke-dasharray="3" d="M47.1 9.2H10.6" class="connection real" style="stroke:#900;stroke-opacity:1;stroke-width:1;fill:none;fill-opacity:1"/></g><g class="composite-shape"><path stroke="none" d="M35.6 9.2q0 5.8-2.3 10.6L10.6 9.2Z" class="real" style="stroke-width:1;stroke:none;stroke-opacity:1;fill:none;fill-opacity:1"/><path d="M35.6 9.2q0 5.8-2.3 10.6" class="real" style="stroke-width:1;stroke:#000;stroke-opacity:1;fill:none;fill-opacity:1"/></g></g></svg><svg xmlns="http://www.w3.org/2000/svg" xmlns:xlink="http://www.w3.org/1999/xlink" width="200" height="94.5" style="width:200px;height:94.5250015258789px;font-family:Asana-Math,Asana;background:0 0"><path fill="#900" stroke="#900" stroke-width=".1" d="M75.3 17H77q1.6 0 1.7.3l.2 1.5h.4q0-1.5.3-2.5H72v.4h.9q.6 0 .6.5t-.2 1.3l-1.2 7.3c-.3 1.6-.3 1.6-1 1.7h-.6l-.1.5H75v-.5h-1.1q-.7 0-.6-.5v-.4l.6-3.7h4.2l.4-.7-.1-.2-3.7.1H74l.8-4.6.2-.5Z"/><svg width="10.3" height="10" x="70.4" y="5" overflow="visible"><path d="M10.3 4.9 7 1.4l-.5.5 2 2.4h-.2v.9h.2l-2 2.3.5.5zm-8.6.3h8.1v-.9H1.7z" style="fill:#900;fill-opacity:1;stroke-width:1px;stroke:none;stroke-opacity:1"/></svg><path fill="#fff" stroke="#fff" stroke-width=".1" d="m93.5 61-.4.3-1 .5q-.3 0-.3-.3l.2-.7 1.2-5 .2-.7q0-.5-.5-.5-.7 0-2.2 1-1.3 1-2.5 2.6l.5-2.4.2-.7q0-.5-.5-.5-.8 0-2.2 1c-.8.6-1 1-2.2 2.5l.6-2.3v-.7q0-.5-.3-.5-.5 0-2.3 1.2l-.5.4.2.3 1.3-.8q.3 0 .3.5c0 .8-.7 4.1-1.4 6.5v.2l1.2-.2.4-1.8q.5-2.5 1.8-3.9 1.1-1.2 2-1.3l.1.4q0 1-1 5.5l-.3 1.1v.2l1.3-.2.3-1.8q.5-2.2 1.6-3.5 1.5-1.6 2.3-1.7.3 0 .3.5c0 .4 0 .6-.5 2-.6 2.8-1 3.1-1 4q0 .7.6.7c.4 0 1-.3 2.7-1.6Z"/><path fill="#2d2e28" stroke="#2d2e28" stroke-width=".1" d="M44 22.4v.4h6.2v-1.2h-4.7l2.4-2.5q2-1.9 1.8-3.2-.1-2.4-2.8-2.5a3 3 0 0 0-2.3 1l-.3 1.8h.4l.2-.7q.3-1.2 1.6-1.1 1.9 0 2 1.9.1 1.3-2.2 3.7Zm12.8-3.1q-.1-2.5-2.6-2.6-1-.2-1.9.6v-2.8h4.2v-1.1h-4.9v5h.3q.8-.9 1.7-.8 2 .1 2 2.4t-2.3 2.4q-1.2 0-1.6-.6l-.6-1.1-.3.2.6 1.8q.7.3 1.5.3c1.8 0 4-1.5 4-3.7Zm3.3-6a2 2 0 1 0 0 4 2 2 0 0 0 0-4Zm0 .6q1.3.1 1.5 1.5-.1 1.3-1.5 1.5-1.3-.2-1.5-1.5.2-1.3 1.5-1.5Z"/></svg></svg>