<svg xmlns="http://www.w3.org/2000/svg" width="201.6" height="98.5" style="width:201.60000610351562px;height:98.5250015258789px;background:0 0;fill:none"><svg xmlns="http://www.w3.org/2000/svg"/><svg xmlns="http://www.w3.org/2000/svg" class="role-diagram-draw-area" style="overflow:visible"><g class="shapes-region" style="stroke:#000;fill:none"><g class="arrow-line"><path d="M87.4 79.2 63.4 43" class="connection real" style="stroke:#900;stroke-width:3;fill:none;fill-opacity:1;stroke-opacity:1"/></g><g class="composite-shape"><defs><pattern id="_pgf9nzb3xyyadg-full-view" width="11.3" height="11.3" x="0" y="0" patternTransform="rotate(45 0 0)" patternUnits="userSpaceOnUse"><path d="M0 0v11.3M5.7 0v11.3M11.3 0v11.3" style="stroke:#000;stroke-opacity:1;stroke-width:1;fill:none"/></pattern></defs><path d="M-12.7 79.6h217.9v96h-218Z" class="real" style="stroke-width:1;stroke:#000;fill:url(#_pgf9nzb3xyyadg-full-view);fill-opacity:1"/></g><g class="arrow-line"><path d="m61.8 40.4-22.4-34" class="connection real" style="stroke:#000;stroke-opacity:1;stroke-width:1;fill:none;fill-opacity:1"/><path fill="#000" stroke="none" d="M10.7-5.1 0 0l10.7 5.2L7.1 0Z" style="stroke:none;fill:#000;stroke-width:1" transform="rotate(236.6 43.2 4.3)"/></g><g class="arrow-line"><path stroke-dasharray="3" d="M87.4 79.2v-75" class="connection real" style="stroke:#900;stroke-opacity:1;stroke-width:1;fill:none;fill-opacity:1"/></g><g class="composite-shape"><path stroke="none" d="M73.7 58.3q6-4 13.7-4v25Z" class="real" style="stroke-width:1;stroke:none;stroke-opacity:1;fill:none;fill-opacity:1"/><path d="M73.7 58.3q6-4 13.7-4" class="real" style="stroke-width:1;stroke:#900;stroke-opacity:1;fill:none;fill-opacity:1"/></g><g class="composite-shape"><path stroke="none" d="M87.4 76.4c5 0 9 1.3 9 2.8q0 .4-.5 1 2.7.4 2.9 1.5c0 .9-2.1 1.7-4.7 1.7-2.2 0-4.1-.6-4.5-1.4H86c-.1.9-2.2 1.6-4.6 1.6-2.6 0-4.7-.7-4.7-1.7q.1-1 2.5-1.5-.8-.5-.8-1.2c0-1.5 4-2.8 9-2.8" class="real" style="stroke-width:1;stroke:none;stroke-opacity:1;fill:#900;fill-opacity:.5"/></g><g class="composite-shape"><path stroke="none" d="M87.2 76.8c3.6 0 6.6.8 6.6 1.9q0 .3-.3.5 2 .3 2.1 1c0 .7-1.5 1.2-3.4 1.2q-2.7 0-3.4-1H86c0 .7-1.6 1.1-3.4 1.1-2 0-3.5-.5-3.5-1q.1-.8 1.9-1-.7-.5-.7-.8c0-1 3-1.9 6.8-1.9" class="real" style="stroke-width:1;stroke:none;stroke-opacity:1;fill:#900;fill-opacity:1"/></g></g></svg><svg xmlns="http://www.w3.org/2000/svg" xmlns:xlink="http://www.w3.org/1999/xlink" width="200" height="96.9" style="width:200px;height:96.92500305175781px;font-family:Asana-Math,Asana;background:0 0"><path fill="#900" stroke="#900" stroke-width=".1" d="M81.6 39.6c-.3-2-1-3.4-3.2-3.4-4.4 0-5 5-4.5 8.5.4 2 1.2 3.7 3.5 3.7 4 0 4.7-5.6 4.2-8.8Zm-1.1 2H75c.1-1.7.9-5 3-5 1.5 0 2 1.6 2.3 2.7zm0 .6c-.1 1.9-.4 5.7-2.9 5.7-1.7 0-2.2-1.9-2.4-3.2l-.1-2.5Z"/><path fill="#000" stroke="#000" stroke-width=".1" d="M44.4 37.9h1.9q1.6 0 1.7.3l.1 1.5h.4q.1-1.5.4-2.5h-7.7v.4h.9q.6 0 .6.5t-.2 1.3l-1.2 7.3c-.3 1.6-.3 1.6-1 1.7h-.6l-.1.5H44v-.5h-1q-.7 0-.7-.5v-.4l.7-3.7h4.2l.3-.7v-.2l-3.7.1h-.7l.8-4.6.2-.5Z"/><svg width="10.3" height="10" x="39.6" y="25.9" overflow="visible"><path d="M10.3 4.9 7 1.4l-.5.5 2 2.4h-.2v.9h.2l-2 2.3.5.5zm-8.6.3h8.1v-.9H1.7z" style="fill:#000;fill-opacity:1;stroke-width:1px;stroke:none;stroke-opacity:1"/></svg></svg></svg>