<svg xmlns="http://www.w3.org/2000/svg" xmlns:xlink="http://www.w3.org/1999/xlink" x="0" y="0" width="201.60000610351562" height="98.5250015258789" style="
        width:201.60000610351562px;
        height:98.5250015258789px;
        background: transparent;
        fill: none;
">
        <svg xmlns="http://www.w3.org/2000/svg"/>
        
        <svg xmlns="http://www.w3.org/2000/svg" class="role-diagram-draw-area" style="overflow: visible;"><g class="shapes-region" style="stroke: black; fill: none;"><g class="arrow-line"><path class="connection real" stroke-dasharray="" d="  M87.38,79.23 L63.41,42.85" style="stroke: rgb(153, 0, 0); stroke-width: 3; fill: none; fill-opacity: 1; stroke-opacity: 1;"/></g><g class="composite-shape"><defs><!-- react-text: 12790 --> <!-- /react-text --><pattern id="_pgf9nzb3xyyadg-full-view" x="0" y="0" width="11.313708498984761" height="11.313708498984761" patternTransform="rotate(45,0,0)" patternUnits="userSpaceOnUse"><path d="M0,0 L0,11.313708498984761" style="stroke: rgb(0, 0, 0); stroke-opacity: 1; stroke-width: 1; fill: none;"/><path d="M5.656854249492381,0 L5.656854249492381,11.313708498984761" style="stroke: rgb(0, 0, 0); stroke-opacity: 1; stroke-width: 1; fill: none;"/><path d="M11.313708498984761,0 L11.313708498984761,11.313708498984761" style="stroke: rgb(0, 0, 0); stroke-opacity: 1; stroke-width: 1; fill: none;"/></pattern></defs><path class="real" d=" M-12.75,79.58 L205.15,79.58 L205.15,175.63 L-12.75,175.63 Z" style="stroke-width: 1; stroke: rgb(0, 0, 0); fill: url(&quot;#_pgf9nzb3xyyadg-full-view&quot;); fill-opacity: 1;"/></g><g class="arrow-line"><path class="connection real" stroke-dasharray="" d="  M61.76,40.35 L39.43,6.47" style="stroke: rgb(0, 0, 0); stroke-opacity: 1; stroke-width: 1; fill: none; fill-opacity: 1;"/><g stroke="none" fill="rgb(0,0,0)" fill-opacity="1" transform="matrix(-0.550189289674366,-0.8350399664253302,0.8350399664253302,-0.550189289674366,63.406943829884696,42.85141962710368)" style="stroke: none; fill: rgb(0, 0, 0); stroke-width: 1;"><path d=" M10.72,-5.15 L0,0 L10.72,5.15 L7.12,0 Z"/></g></g><g class="arrow-line"><path class="connection real" stroke-dasharray="3" d="  M87.38,79.23 L87.38,4.15" style="stroke: rgb(153, 0, 0); stroke-opacity: 1; stroke-width: 1; fill: none; fill-opacity: 1;"/></g><g class="composite-shape"><path class="real" d=" M73.7,58.3 C77.63,55.73 82.33,54.23 87.38,54.23 L87.38,79.23 Z" style="stroke-width: 1; stroke: none; stroke-opacity: 1; fill: none; fill-opacity: 1;"/><path class="real" d=" M73.7,58.3 C77.63,55.73 82.33,54.23 87.38,54.23" style="stroke-width: 1; stroke: rgb(153, 0, 0); stroke-opacity: 1; fill: none; fill-opacity: 1;"/></g><g class="composite-shape"><path class="real" d=" M87.38,76.42 C92.35,76.42 96.38,77.68 96.38,79.23 C96.38,79.54 96.22,79.84 95.93,80.11 C97.6,80.37 98.77,80.97 98.77,81.67 C98.77,82.6 96.69,83.36 94.13,83.36 C91.85,83.36 89.95,82.76 89.57,81.96 C88.87,82.02 88.13,82.05 87.38,82.05 C86.91,82.05 86.46,82.04 86.01,82.01 C85.87,82.9 83.85,83.61 81.38,83.61 C78.82,83.61 76.75,82.85 76.75,81.92 C76.75,81.27 77.75,80.71 79.23,80.42 C78.68,80.06 78.38,79.66 78.38,79.23 C78.38,77.68 82.41,76.42 87.38,76.42 Z" style="stroke-width: 1; stroke: none; stroke-opacity: 1; fill: rgb(153, 0, 0); fill-opacity: 0.5;"/></g><g class="composite-shape"><path class="real" d=" M87.15,76.8 C90.85,76.8 93.85,77.63 93.85,78.66 C93.85,78.86 93.74,79.05 93.52,79.24 C94.76,79.4 95.63,79.8 95.63,80.26 C95.63,80.87 94.08,81.37 92.18,81.37 C90.48,81.37 89.06,80.98 88.78,80.45 C88.26,80.49 87.71,80.51 87.15,80.51 C86.8,80.51 86.46,80.5 86.13,80.49 C86.03,81.07 84.52,81.54 82.68,81.54 C80.77,81.54 79.23,81.04 79.23,80.42 C79.23,80 79.98,79.63 81.07,79.44 C80.67,79.2 80.44,78.94 80.44,78.66 C80.44,77.63 83.45,76.8 87.15,76.8 Z" style="stroke-width: 1; stroke: none; stroke-opacity: 1; fill: rgb(153, 0, 0); fill-opacity: 1;"/></g><g/></g><g/><g/><g/></svg>
        <svg xmlns="http://www.w3.org/2000/svg" xmlns:xlink="http://www.w3.org/1999/xlink" width="200" height="96.92500305175781" style="width:200px;height:96.92500305175781px;font-family:Asana-Math, Asana;background:transparent;"><g><g><g><g transform="matrix(1,0,0,1,72.34999084472656,48.124996185302734)"><path transform="matrix(0.017,0,0,-0.017,0,0)" d="M547 504C529 618 483 702 356 702C96 702 60 412 94 199C113 80 164 -16 300 -16C536 -16 576 316 547 504ZM478 381L162 381C169 485 213 676 342 676C428 676 461 585 472 517C479 472 478 426 478 381ZM478 349C473 237 454 13 311 13C209 13 181 125 169 203C161 252 162 301 162 349Z" stroke="rgb(153,0,0)" stroke-opacity="1" stroke-width="8" fill="rgb(153,0,0)" fill-opacity="1"></path></g></g></g></g><g><g><g><g><g><g><g transform="matrix(1,0,0,1,39.587493896484375,48.874996185302734)"><path transform="matrix(0.017,0,0,-0.017,0,0)" d="M286 646L392 650C454 650 494 641 495 626L503 537L527 537C530 600 537 651 548 689C526 691 498 692 481 692L440 691L275 689L246 689C221 689 181 690 143 691L94 692L91 664L147 662C171 661 182 652 182 635C182 621 178 589 173 559L98 125C81 33 81 32 40 28L4 25L0 -3L34 -2C74 -1 106 0 127 0C145 0 174 -1 213 -2L265 -3L268 25L204 28C177 29 168 37 168 57C168 63 169 74 170 78L206 301L323 301C350 301 381 300 429 298L455 297L474 342L470 349C389 345 329 343 251 343L214 343L260 614C263 630 264 635 269 646Z" stroke="rgb(0,0,0)" stroke-opacity="1" stroke-width="8" fill="rgb(0,0,0)" fill-opacity="1"></path></g></g></g></g><svg x="39.587493896484375" overflow="visible" y="25.875" height="10" width="10.287500381469727"><path d=" M 10.29 4.85 l -3.15 -3.32 l -0.49 0.52 l 1.93 2.33 h -0.15 v 0.90 h 0.15 l -1.93 2.33 l 0.49 0.52 z  M 1.68 5.23 h 8.15 v -0.90 h -8.15 z" style="fill:rgb(0,0,0);fill-opacity:1;stroke-width:1px;stroke:none;stroke-opacity:1;"></path></svg></g></g></g></svg>
</svg>
