<svg xmlns="http://www.w3.org/2000/svg" width="161.6" height="179.9" style="width:161.60000610351562px;height:179.90000915527344px;background:0 0;fill:none"><svg xmlns="http://www.w3.org/2000/svg"/><svg xmlns="http://www.w3.org/2000/svg" class="role-diagram-draw-area"><g class="shapes-region" style="stroke:#000;fill:none"><g class="composite-shape"><defs><pattern id="_pgf32jjxqalw" width="11.314" height="11.314" x="0" y="0" patternTransform="rotate(45 0 0)" patternUnits="userSpaceOnUse"><path d="M0 0v11.314M5.657 0v11.314M11.314 0v11.314" style="stroke:#900;stroke-opacity:1;stroke-width:1;fill:none"/></pattern></defs><path d="M73.64 61.36h61.28v61.28H73.64Z" class="real" style="stroke-width:1;stroke:#900;stroke-opacity:1;fill:url(#_pgf32jjxqalw);fill-opacity:1"/></g><g class="arrow-line"><defs><pattern id="_pgfarczwx8cx" width="11.314" height="11.314" x="0" y="0" patternTransform="rotate(45 0 0)" patternUnits="userSpaceOnUse"><path d="M0 0v11.314M5.657 0v11.314M11.314 0v11.314" style="stroke:#900;stroke-opacity:1;stroke-width:1;fill:none"/></pattern></defs><path d="m27.58 15.3 43.94 43.93" class="connection real" style="stroke:#900;stroke-opacity:1;stroke-width:1;fill:url(#_pgfarczwx8cx);fill-opacity:1"/><path fill="#900" stroke="none" d="M10.72-5.15 0 0l10.72 5.15L7.12 0Z" style="stroke:none;fill:#900;stroke-width:1" transform="rotate(225 49.527 15.427)"/></g><g class="composite-shape"><path d="M134.92-5h84.92v249.66h-84.92Z" class="real" style="stroke-width:1;stroke:#000;fill:none;fill-opacity:1"/></g><g class="arrow-line"><path stroke-dasharray="3" d="M73.64 10.95v50.41" class="connection real" style="stroke:#900;stroke-opacity:1;stroke-width:1;fill:none;fill-opacity:1"/></g><g class="composite-shape"><path stroke="none" d="M59.71 47.42a19.65 19.65 0 0 1 13.93-5.77v19.71Z" class="real" style="stroke-width:1;stroke:none;fill:none;fill-opacity:1"/><path d="M59.71 47.42a19.65 19.65 0 0 1 13.93-5.77" class="real" style="stroke-width:1;stroke:#000;fill:none;fill-opacity:1"/></g><g class="composite-shape"><defs><pattern id="_pgfhgjyg7cen" width="11.314" height="11.314" x="0" y="0" patternTransform="rotate(45 0 0)" patternUnits="userSpaceOnUse"><path d="M0 0v11.314M5.657 0v11.314M11.314 0v11.314" style="stroke:#000;stroke-opacity:1;stroke-width:1;fill:none"/></pattern></defs><path stroke="none" d="M135 1.07h12V197.6h-12Z" class="real" style="stroke-width:1;stroke:none;stroke-opacity:1;fill:url(#_pgfhgjyg7cen);fill-opacity:1"/></g></g></svg><svg xmlns="http://www.w3.org/2000/svg" xmlns:xlink="http://www.w3.org/1999/xlink" width="160" height="178.3" style="width:160px;height:178.3000030517578px;font-family:Asana-Math,Asana;background:0 0"><path fill="#900" stroke="#900" stroke-width=".136" d="m52.162 69.168 1.802-.068c1.054 0 1.734.153 1.751.408l.136 1.513h.408c.051-1.071.17-1.938.357-2.584-.374-.034-.85-.051-1.139-.051l-.697.017-2.805.034h-.493c-.425 0-1.105-.017-1.751-.034l-.833-.017-.051.476.952.034c.408.017.595.17.595.459 0 .238-.068.782-.153 1.292l-1.275 7.378c-.289 1.564-.289 1.581-.986 1.649l-.612.051-.068.476.578-.017c.68-.017 1.224-.034 1.581-.034.306 0 .799.017 1.462.034l.884.017.051-.476-1.088-.051c-.459-.017-.612-.153-.612-.493 0-.102.017-.289.034-.357l.612-3.791h1.989c.459 0 .986.017 1.802.051l.442.017.323-.765-.068-.119a70 70 0 0 1-3.723.102h-.629l.782-4.607c.051-.272.068-.357.153-.544Z"/><svg width="10.288" height="10" x="47.3" y="57.15" overflow="visible"><path d="M10.29 4.85 7.14 1.53l-.49.52 1.93 2.33h-.15v.9h.15L6.65 7.61l.49.52zm-8.61.38h8.15v-.9H1.68z" style="fill:#900;fill-opacity:1;stroke-width:1px;stroke:none;stroke-opacity:1"/></svg><path fill="#000" stroke="#000" stroke-width=".136" d="M61.329 39.072c4.012 0 5.695-5.644 5.763-8.84.034-1.938-.51-3.366-2.669-3.366-4.42 0-5.899 4.93-5.95 8.551-.034 2.023.544 3.655 2.856 3.655Zm2.788-11.764c2.295 0 1.785 3.145 1.428 5.015h-5.372c.425-1.768 1.751-5.015 3.944-5.015Zm-2.516 11.271c-2.567 0-1.802-4.216-1.53-5.712h5.372c-.425 1.904-1.411 5.712-3.842 5.712Z"/></svg></svg>