<svg xmlns="http://www.w3.org/2000/svg" xmlns:xlink="http://www.w3.org/1999/xlink" x="0" y="0" width="252.60000610351562" height="188.5" style="
        width:252.60000610351562px;
        height:188.5px;
        background: #FFF;
        fill: none;
">
        <svg xmlns="http://www.w3.org/2000/svg"/>
        
        <svg xmlns="http://www.w3.org/2000/svg" class="role-diagram-draw-area"><g class="shapes-region" style="stroke: black; fill: none;"><g class="arrow-line"><path class="connection real" stroke-dasharray="" d="  M177.78,28.66 L177.78,113.78" style="stroke: rgb(153, 0, 0); stroke-opacity: 1; stroke-width: 1; fill: none; fill-opacity: 1;"/><g stroke="none" fill="rgb(153,0,0)" fill-opacity="1" transform="matrix(6.123233995736766e-17,1,-1,6.123233995736766e-17,177.78000335693366,25.660009765625006)" style="stroke: none; fill: rgb(153, 0, 0); stroke-width: 1;"><path d=" M10.72,-5.15 L0,0 L10.72,5.15 L7.12,0 Z"/></g></g><g class="composite-shape"><defs><!-- react-text: 60901 --> <!-- /react-text --><pattern id="_pgfjsfwbaqex" x="0" y="0" width="11.313708498984761" height="11.313708498984761" patternTransform="rotate(45,0,0)" patternUnits="userSpaceOnUse"><path d="M0,0 L0,11.313708498984761" style="stroke: rgb(238, 238, 238); stroke-opacity: 1; stroke-width: 1; fill: none;"/><path d="M5.656854249492381,0 L5.656854249492381,11.313708498984761" style="stroke: rgb(238, 238, 238); stroke-opacity: 1; stroke-width: 1; fill: none;"/><path d="M11.313708498984761,0 L11.313708498984761,11.313708498984761" style="stroke: rgb(238, 238, 238); stroke-opacity: 1; stroke-width: 1; fill: none;"/></pattern></defs><path class="real" d=" M-10,93 L150.95,93 L150.95,189.05 L-10,189.05 Z" style="stroke-width: 1; stroke: rgb(0, 0, 0); fill: url(&quot;#_pgfjsfwbaqex&quot;); fill-opacity: 1;"/></g><g class="composite-shape"><path class="real" d=" M71,52.4 L110.48,52.4 L110.48,92.4 L71,92.4 Z" style="stroke-width: 1; stroke: rgb(153, 0, 0); stroke-opacity: 1; fill: rgb(153, 0, 0); fill-opacity: 0.5;"/></g><g class="arrow-line"><path class="connection real" stroke-dasharray="" d="  M12.68,6.08 L68.65,50.53" style="stroke: rgb(153, 0, 0); stroke-opacity: 1; stroke-width: 1; fill: none; fill-opacity: 1;"/><g stroke="none" fill="rgb(153,0,0)" fill-opacity="1" transform="matrix(-0.7830425633023039,-0.6219681214153643,0.6219681214153643,-0.7830425633023039,70.9999984741211,52.400000000000006)" style="stroke: none; fill: rgb(153, 0, 0); stroke-width: 1;"><path d=" M10.72,-5.15 L0,0 L10.72,5.15 L7.12,0 Z"/></g></g><g class="arrow-line"><path class="connection real" stroke-dasharray="" d="  M79.68,93.08 L79.68,131.88" style="stroke: rgb(153, 0, 0); stroke-opacity: 1; stroke-width: 1; fill: none; fill-opacity: 1;"/><g stroke="none" fill="rgb(153,0,0)" fill-opacity="1" transform="matrix(-1.8369701987210297e-16,-1,1,-1.8369701987210297e-16,79.6800033569336,134.87999877929684)" style="stroke: none; fill: rgb(153, 0, 0); stroke-width: 1;"><path d=" M10.72,-5.15 L0,0 L10.72,5.15 L7.12,0 Z"/></g></g><g class="arrow-line"><path class="connection real" stroke-dasharray="" d="  M177.78,113.78 L177.78,131.05 L177.78,152.58" style="stroke: rgb(153, 0, 0); stroke-opacity: 1; stroke-width: 1; fill: none; fill-opacity: 1;"/><g stroke="none" fill="rgb(153,0,0)" fill-opacity="1" transform="matrix(-1.8369701987210297e-16,-1,1,-1.8369701987210297e-16,177.78000335693358,155.5799987792969)" style="stroke: none; fill: rgb(153, 0, 0); stroke-width: 1;"><path d=" M10.72,-5.15 L0,0 L10.72,5.15 L7.12,0 Z"/></g></g><g class="arrow-line"><path class="connection real" stroke-dasharray="3" d="  M71,52.4 L34.5,52.4" style="stroke: rgb(153, 0, 0); stroke-opacity: 1; stroke-width: 1; fill: none; fill-opacity: 1;"/></g><g class="composite-shape"><path class="real" d=" M46,52.4 C46,52.4 46,52.4 46,52.4 C46,46.59 47.98,41.25 51.3,37.01 L71,52.4 Z" style="stroke-width: 1; stroke: none; stroke-opacity: 1; fill: none; fill-opacity: 1;"/><path class="real" d=" M46,52.4 C46,52.4 46,52.4 46,52.4 C46,46.59 47.98,41.25 51.3,37.01" style="stroke-width: 1; stroke: rgb(0, 0, 0); stroke-opacity: 1; fill: none; fill-opacity: 1;"/></g><g class="arrow-line"><path class="connection real" stroke-dasharray="3" d="  M226.14,113.78 L177.78,113.78" style="stroke: rgb(153, 0, 0); stroke-opacity: 1; stroke-width: 1; fill: none; fill-opacity: 1;"/></g><g class="arrow-line"><path class="connection real" stroke-dasharray="" d="  M177.78,113.78 L233.75,158.23" style="stroke: rgb(153, 0, 0); stroke-opacity: 1; stroke-width: 1; fill: none; fill-opacity: 1;"/><g stroke="none" fill="rgb(153,0,0)" fill-opacity="1" transform="matrix(-0.7830425633023039,-0.6219681214153643,0.6219681214153643,-0.7830425633023039,236.10000915527348,160.10000610351562)" style="stroke: none; fill: rgb(153, 0, 0); stroke-width: 1;"><path d=" M10.72,-5.15 L0,0 L10.72,5.15 L7.12,0 Z"/></g></g><g class="composite-shape"><path class="real" d=" M202.78,113.78 C202.78,113.78 202.78,113.78 202.78,113.78 C202.78,119.59 200.8,124.93 197.48,129.17 L177.78,113.78 Z" style="stroke-width: 1; stroke: none; stroke-opacity: 1; fill: none; fill-opacity: 1;"/><path class="real" d=" M202.78,113.78 C202.78,113.78 202.78,113.78 202.78,113.78 C202.78,119.59 200.8,124.93 197.48,129.17" style="stroke-width: 1; stroke: rgb(0, 0, 0); stroke-opacity: 1; fill: none; fill-opacity: 1;"/></g><g class="composite-shape"><path class="real" d=" M176.04,113.78 C176.04,112.82 176.82,112.04 177.78,112.04 C178.74,112.04 179.52,112.82 179.52,113.78 C179.52,114.74 178.74,115.52 177.78,115.52 C176.82,115.52 176.04,114.74 176.04,113.78 Z" style="stroke-width: 1; stroke: rgb(0, 0, 0); fill: rgb(0, 0, 0); fill-opacity: 1;"/></g><g class="arrow-line"><path class="connection real" stroke-dasharray="" d="  M98.95,97.09 L98.95,182.21" style="stroke: rgb(153, 0, 0); stroke-opacity: 1; stroke-width: 1; fill: none; fill-opacity: 1;"/><g stroke="none" fill="rgb(153,0,0)" fill-opacity="1" transform="matrix(6.123233995736766e-17,1,-1,6.123233995736766e-17,98.94667002360029,94.09333394368491)" style="stroke: none; fill: rgb(153, 0, 0); stroke-width: 1;"><path d=" M10.72,-5.15 L0,0 L10.72,5.15 L7.12,0 Z"/></g></g><g/></g><g/><g/><g/></svg>
        <svg xmlns="http://www.w3.org/2000/svg" xmlns:xlink="http://www.w3.org/1999/xlink" width="251" height="186.90000915527344" style="width:251px;height:186.90000915527344px;font-family:Asana-Math, Asana;background:#FFF;"><g><g><g><g><g><g><g transform="matrix(1,0,0,1,73.4000244140625,44.399993896484375)"><path transform="matrix(0.017,0,0,-0.017,0,0)" d="M286 646L392 650C454 650 494 641 495 626L503 537L527 537C530 600 537 651 548 689C526 691 498 692 481 692L440 691L275 689L246 689C221 689 181 690 143 691L94 692L91 664L147 662C171 661 182 652 182 635C182 621 178 589 173 559L98 125C81 33 81 32 40 28L4 25L0 -3L34 -2C74 -1 106 0 127 0C145 0 174 -1 213 -2L265 -3L268 25L204 28C177 29 168 37 168 57C168 63 169 74 170 78L206 301L323 301C350 301 381 300 429 298L455 297L474 342L470 349C389 345 329 343 251 343L214 343L260 614C263 630 264 635 269 646Z" stroke="rgb(153,0,0)" stroke-opacity="1" stroke-width="8" fill="rgb(153,0,0)" fill-opacity="1"></path></g></g></g></g><svg x="73.4000244140625" overflow="visible" y="21.399993896484375" height="10" width="10.287500381469727"><path d=" M 10.29 4.85 l -3.15 -3.32 l -0.49 0.52 l 1.93 2.33 h -0.15 v 0.90 h 0.15 l -1.93 2.33 l 0.49 0.52 z  M 1.68 5.23 h 8.15 v -0.90 h -8.15 z" style="fill:rgb(153,0,0);fill-opacity:1;stroke-width:1px;stroke:none;stroke-opacity:1;"></path></svg></g></g></g><g><g><g><g transform="matrix(1,0,0,1,84.13128662109375,79.19999694824219)"><path transform="matrix(0.017,0,0,-0.017,0,0)" d="M730 103L704 86C675 67 653 56 643 56C636 56 630 65 630 76C630 86 632 95 637 116L712 413C716 430 719 446 719 454C719 471 709 482 693 482C664 482 626 464 565 421C502 376 467 341 418 272L448 409C452 429 455 444 455 451C455 470 445 482 429 482C399 482 353 460 298 418C254 384 234 363 169 275L202 408C206 424 208 439 208 451C208 470 199 482 185 482C164 482 126 461 52 408L24 388L31 368C68 391 103 414 110 414C121 414 128 404 128 389C128 338 87 145 46 2L49 -9L117 6L139 108C163 219 190 278 245 338C287 384 332 414 360 414C367 414 371 406 371 393C371 358 349 244 308 69L292 2L297 -9L366 6L387 113C403 194 437 269 481 318C536 379 586 414 618 414C626 414 631 405 631 389C631 365 628 351 606 264C566 105 550 84 550 31C550 6 561 -9 580 -9C606 -9 642 12 740 85Z" stroke="rgb(255,255,255)" stroke-opacity="1" stroke-width="8" fill="rgb(255,255,255)" fill-opacity="1"></path></g></g></g></g><g><g><g><g><g><g><g transform="matrix(1,0,0,1,108.60003662109375,117.99998474121094)"><path transform="matrix(0.017,0,0,-0.017,0,0)" d="M582 103L237 692L75 692L70 664L105 662C150 660 184 615 185 606L92 102C80 40 74 32 38 28L7 25L2 -3L113 0C125 0 126 0 223 -3L228 25L186 28C146 31 137 39 137 72C137 80 138 91 140 102L220 566L558 -11L608 -11L702 542C723 655 725 659 762 662L799 664L802 691L589 692L584 664L631 662C657 661 667 654 667 638C667 631 584 116 582 103Z" stroke="rgb(153,0,0)" stroke-opacity="1" stroke-width="8" fill="rgb(153,0,0)" fill-opacity="1"></path></g></g></g></g><svg x="108.60003662109375" overflow="visible" y="94.99998474121094" height="10" width="14.0625"><path d=" M 14.06 4.85 l -3.15 -3.32 l -0.49 0.52 l 1.93 2.33 h -0.15 v 0.90 h 0.15 l -1.93 2.33 l 0.49 0.52 z  M 1.68 5.23 h 11.92 v -0.90 h -11.92 z" style="fill:rgb(153,0,0);fill-opacity:1;stroke-width:1px;stroke:none;stroke-opacity:1;"></path></svg></g></g></g><g><g><g><g><g><g><g transform="matrix(1,0,0,1,59,116.18748474121094)"><path transform="matrix(0.017,0,0,-0.017,0,0)" d="M167 420C188 420 201 421 226 424C171 350 72 266 72 126C72 44 107 -11 160 -11C224 -11 276 44 350 187C341 143 338 118 338 95C338 32 367 -11 412 -11C546 -11 699 238 699 384C699 441 673 482 637 482C624 482 612 478 604 470L554 423L565 404C574 410 583 413 592 413C619 413 635 390 635 350C635 205 538 39 453 39C424 39 403 79 403 134C403 181 412 247 424 290L476 474L469 482L395 460L366 311C354 249 340 209 311 155C271 80 233 39 203 39C168 39 145 78 145 136C145 255 186 352 285 464L275 482C255 473 242 470 214 470C186 470 144 472 115 475L103 476C97 477 92 477 91 477C79 477 70 475 59 470C45 443 34 407 21 352L43 352L60 394C67 411 87 422 111 422C145 422 128 420 167 420Z" stroke="rgb(153,0,0)" stroke-opacity="1" stroke-width="8" fill="rgb(153,0,0)" fill-opacity="1"></path></g></g></g></g><svg x="59" overflow="visible" y="97.18748474121094" height="10" width="13.112500190734863"><path d=" M 13.11 4.85 l -3.15 -3.32 l -0.49 0.52 l 1.93 2.33 h -0.15 v 0.90 h 0.15 l -1.93 2.33 l 0.49 0.52 z  M 1.68 5.23 h 10.97 v -0.90 h -10.97 z" style="fill:rgb(153,0,0);fill-opacity:1;stroke-width:1px;stroke:none;stroke-opacity:1;"></path></svg></g></g></g><g><g><g><g transform="matrix(1,0,0,1,32.79998779296875,50.14998779296875)"><path transform="matrix(0.0136,0,0,-0.0136,0,0)" d="M237 -16C473 -16 572 316 576 504C578 618 546 702 419 702C159 702 72 412 69 199C67 80 101 -16 237 -16ZM401 676C536 676 506 491 485 381L169 381C194 485 272 676 401 676ZM253 13C102 13 147 261 163 349L479 349C454 237 396 13 253 13Z" stroke="rgb(45,46,40)" stroke-opacity="1" stroke-width="8" fill="rgb(45,46,40)" fill-opacity="1"></path></g></g></g></g><g><g><g><g transform="matrix(1,0,0,1,206.75,126.17499694824218)"><path transform="matrix(0.0136,0,0,-0.0136,0,0)" d="M237 -16C473 -16 572 316 576 504C578 618 546 702 419 702C159 702 72 412 69 199C67 80 101 -16 237 -16ZM401 676C536 676 506 491 485 381L169 381C194 485 272 676 401 676ZM253 13C102 13 147 261 163 349L479 349C454 237 396 13 253 13Z" stroke="rgb(45,46,40)" stroke-opacity="1" stroke-width="8" fill="rgb(45,46,40)" fill-opacity="1"></path></g></g></g></g></svg>
</svg>
