<svg xmlns="http://www.w3.org/2000/svg" width="327.6" height="266.6" style="width:327.6px;height:266.625px;background:0 0;fill:none"><svg xmlns="http://www.w3.org/2000/svg"/><svg xmlns="http://www.w3.org/2000/svg" class="role-diagram-draw-area" style="overflow:visible"><g class="shapes-region" style="stroke:#000;fill:none"><g class="composite-shape"><defs><pattern id="_pgftsd78f14adg-full-view" width="11.3" height="11.3" x="0" y="0" patternTransform="rotate(45 0 0)" patternUnits="userSpaceOnUse"><path d="M0 0v11.3M5.7 0v11.3M11.3 0v11.3" style="stroke:#eee;stroke-opacity:1;stroke-width:1;fill:none"/></pattern></defs><path d="M135-6h193.5v381.6H134.9Z" class="real" style="stroke-width:1;stroke:#000;fill:url(#_pgftsd78f14adg-full-view);fill-opacity:1"/></g><g class="arrow-line"><defs><pattern id="_pgfo8fj2yef7dg-full-view" width="11.3" height="11.3" x="0" y="0" patternTransform="rotate(45 0 0)" patternUnits="userSpaceOnUse"><path d="M0 0v11.3M5.7 0v11.3M11.3 0v11.3" style="stroke:#900;stroke-opacity:1;stroke-width:1;fill:none"/></pattern></defs><path d="m258 99.2 49 49" class="connection real" style="stroke:#900;stroke-opacity:.5;stroke-width:1;fill:url(#_pgfo8fj2yef7dg-full-view);fill-opacity:1"/><path fill="#900" fill-opacity=".5" stroke="none" d="M10.7-5.1 0 0l10.7 5.2L7.1 0Z" style="stroke:none;fill:#900;stroke-width:1" transform="rotate(225 185.6 11.1)"/><path stroke="#900" stroke-opacity=".5" d="M-5.6 0H5.6M0 5.6V-5.6" style="stroke:#900;stroke-width:1" transform="rotate(90 79.4 204.1)"/></g><g class="composite-shape"><defs><pattern id="_pgf6ix5hkn2tdg-full-view" width="11.3" height="11.3" x="0" y="0" patternTransform="rotate(45 0 0)" patternUnits="userSpaceOnUse"><path d="M0 0v11.3M5.7 0v11.3M11.3 0v11.3" style="stroke:#900;stroke-opacity:1;stroke-width:1;fill:none"/></pattern></defs><path d="M73.6 131H135v61.2H73.6Z" class="real" style="stroke-width:1;stroke:#900;stroke-opacity:1;fill:url(#_pgf6ix5hkn2tdg-full-view);fill-opacity:1"/></g><g class="arrow-line"><defs><pattern id="_pgfdshmrc4tbdg-full-view" width="11.3" height="11.3" x="0" y="0" patternTransform="rotate(45 0 0)" patternUnits="userSpaceOnUse"><path d="M0 0v11.3M5.7 0v11.3M11.3 0v11.3" style="stroke:#900;stroke-opacity:1;stroke-width:1;fill:none"/></pattern></defs><path d="M73.6 78v50" class="connection real" style="stroke:#900;stroke-opacity:1;stroke-width:1;fill:url(#_pgfdshmrc4tbdg-full-view);fill-opacity:1"/><path fill="#900" stroke="none" d="M10.7-5.1 0 0l10.7 5.2L7.1 0Z" style="stroke:none;fill:#900;stroke-width:1" transform="rotate(-90 102.3 28.6)"/></g><g class="composite-shape"><path stroke="none" d="M40 244c3.5-3.6 8.5-5.8 14-5.8V258Z" class="real" style="stroke-width:1;stroke:none;fill:none;fill-opacity:1"/><path d="M40 244c3.5-3.6 8.5-5.8 14-5.8" class="real" style="stroke-width:1;stroke:#000;fill:none;fill-opacity:1"/></g><g class="arrow-line"><defs><pattern id="_pgffvwo24ad7dg-full-view" width="11.3" height="11.3" x="0" y="0" patternTransform="rotate(45 0 0)" patternUnits="userSpaceOnUse"><path d="M0 0v11.3M5.7 0v11.3M11.3 0v11.3" style="stroke:#900;stroke-opacity:1;stroke-width:1;fill:none"/></pattern></defs><path d="m7.9 211.9 43.9 44" class="connection real" style="stroke:#900;stroke-opacity:1;stroke-width:1;fill:url(#_pgffvwo24ad7dg-full-view);fill-opacity:1"/><path fill="#900" stroke="none" d="M10.7-5.1 0 0l10.7 5.2L7.1 0Z" style="stroke:none;fill:#900;stroke-width:1" transform="rotate(225 80.4 117.8)"/></g><g class="arrow-line"><defs><pattern id="_pgfb5vj080r5dg-full-view" width="11.3" height="11.3" x="0" y="0" patternTransform="rotate(45 0 0)" patternUnits="userSpaceOnUse"><path d="M0 0v11.3M5.7 0v11.3M11.3 0v11.3" style="stroke:#900;stroke-opacity:1;stroke-width:1;fill:none"/></pattern></defs><path stroke-dasharray="3" d="M54 211.9v44" class="connection real" style="stroke:#900;stroke-opacity:1;stroke-width:1;fill:url(#_pgfb5vj080r5dg-full-view);fill-opacity:1"/><path stroke="#900" d="M11-3.3Q5-.5 0 0q5 .5 11 3.3" style="stroke:#900;stroke-width:1" transform="rotate(-90 156 102)"/></g><g class="arrow-line"><defs><pattern id="_pgfiz5dz6gexdg-full-view" width="11.3" height="11.3" x="0" y="0" patternTransform="rotate(45 0 0)" patternUnits="userSpaceOnUse"><path d="M0 0v11.3M5.7 0v11.3M11.3 0v11.3" style="stroke:#900;stroke-opacity:1;stroke-width:1;fill:none"/></pattern></defs><path stroke-dasharray="3" d="M7.9 211.9h44" class="connection real" style="stroke:#900;stroke-opacity:1;stroke-width:1;fill:url(#_pgfiz5dz6gexdg-full-view);fill-opacity:1"/><path stroke="#900" d="M11-3.3Q5-.5 0 0q5 .5 11 3.3" style="stroke:#900;stroke-width:1" transform="matrix(-1 0 0 -1 54 211.9)"/></g><g class="arrow-line"><defs><pattern id="_pgft4keiowimdg-full-view" width="11.3" height="11.3" x="0" y="0" patternTransform="rotate(45 0 0)" patternUnits="userSpaceOnUse"><path d="M0 0v11.3M5.7 0v11.3M11.3 0v11.3" style="stroke:#900;stroke-opacity:1;stroke-width:1;fill:none"/></pattern></defs><path d="M20.6 131h50" class="connection real" style="stroke:#900;stroke-opacity:1;stroke-width:1;fill:url(#_pgft4keiowimdg-full-view);fill-opacity:1"/><path fill="#900" stroke="none" d="M10.7-5.1 0 0l10.7 5.2L7.1 0Z" style="stroke:none;fill:#900;stroke-width:1" transform="matrix(-1 0 0 -1 73.6 131)"/></g><g class="arrow-line"><defs><pattern id="_pgfezghvhp19dg-full-view" width="11.3" height="11.3" x="0" y="0" patternTransform="rotate(45 0 0)" patternUnits="userSpaceOnUse"><path d="M0 0v11.3M5.7 0v11.3M11.3 0v11.3" style="stroke:#900;stroke-opacity:1;stroke-width:1;fill:none"/></pattern></defs><path d="M104 192.5v25" class="connection real" style="stroke:#900;stroke-opacity:1;stroke-width:1;fill:url(#_pgfezghvhp19dg-full-view);fill-opacity:1"/><path fill="#900" stroke="none" d="M10.7-5.1 0 0l10.7 5.2L7.1 0Z" style="stroke:none;fill:#900;stroke-width:1" transform="rotate(-90 162.3 58.2)"/></g><g class="arrow-line"><defs><pattern id="_pgfvo2oq4js1dg-full-view" width="11.3" height="11.3" x="0" y="0" patternTransform="rotate(45 0 0)" patternUnits="userSpaceOnUse"><path d="M0 0v11.3M5.7 0v11.3M11.3 0v11.3" style="stroke:#900;stroke-opacity:1;stroke-width:1;fill:none"/></pattern></defs><path d="M138 162.6h50" class="connection real" style="stroke:#900;stroke-opacity:1;stroke-width:1;fill:url(#_pgfvo2oq4js1dg-full-view);fill-opacity:1"/><path fill="#900" stroke="none" d="M10.7-5.1 0 0l10.7 5.2L7.1 0Z" style="stroke:none;fill:#900;stroke-width:1" transform="translate(135 162.6)"/></g><g class="arrow-line"><defs><pattern id="_pgf455vmo1kldg-full-view" width="11.3" height="11.3" x="0" y="0" patternTransform="rotate(45 0 0)" patternUnits="userSpaceOnUse"><path d="M0 0v11.3M5.7 0v11.3M11.3 0v11.3" style="stroke:#900;stroke-opacity:1;stroke-width:1;fill:none"/></pattern></defs><path d="M258 100.7v49.8" class="connection real" style="stroke:#900;stroke-opacity:1;stroke-width:1;fill:url(#_pgf455vmo1kldg-full-view);fill-opacity:1"/><path fill="#900" stroke="none" d="M10.7-5.1 0 0l10.7 5.2L7.1 0Z" style="stroke:none;fill:#900;stroke-width:1" transform="rotate(-90 205.7 -52.2)"/></g><g class="arrow-line"><defs><pattern id="_pgf1y6q0p8r7dg-full-view" width="11.3" height="11.3" x="0" y="0" patternTransform="rotate(45 0 0)" patternUnits="userSpaceOnUse"><path d="M0 0v11.3M5.7 0v11.3M11.3 0v11.3" style="stroke:#900;stroke-opacity:1;stroke-width:1;fill:none"/></pattern></defs><path d="M135 131V53" class="connection real" style="stroke:#900;stroke-opacity:1;stroke-width:1;fill:url(#_pgf1y6q0p8r7dg-full-view);fill-opacity:1"/><path fill="#900" stroke="none" d="M10.7-5.1 0 0l10.7 5.2L7.1 0Z" style="stroke:none;fill:#900;stroke-width:1" transform="rotate(90 42.4 92.5)"/></g><g class="arrow-line"><defs><pattern id="_pgfa31x9g63ddg-full-view" width="11.3" height="11.3" x="0" y="0" patternTransform="rotate(45 0 0)" patternUnits="userSpaceOnUse"><path d="M0 0v11.3M5.7 0v11.3M11.3 0v11.3" style="stroke:#900;stroke-opacity:1;stroke-width:1;fill:none"/></pattern></defs><path d="M258 99.2V21.3" class="connection real" style="stroke:#900;stroke-opacity:1;stroke-width:1;fill:url(#_pgfa31x9g63ddg-full-view);fill-opacity:1"/><path fill="#900" stroke="none" d="M10.7-5.1 0 0l10.7 5.2L7.1 0Z" style="stroke:none;fill:#900;stroke-width:1" transform="rotate(90 119.8 138.1)"/></g><g class="arrow-line"><defs><pattern id="_pgfttssopdq9dg-full-view" width="11.3" height="11.3" x="0" y="0" patternTransform="rotate(45 0 0)" patternUnits="userSpaceOnUse"><path d="M0 0v11.3M5.7 0v11.3M11.3 0v11.3" style="stroke:#900;stroke-opacity:1;stroke-width:1;fill:none"/></pattern></defs><path d="M258 153.5v25" class="connection real" style="stroke:#900;stroke-opacity:1;stroke-width:1;fill:url(#_pgfttssopdq9dg-full-view);fill-opacity:1"/><path fill="#900" stroke="none" d="M10.7-5.1 0 0l10.7 5.2L7.1 0Z" style="stroke:none;fill:#900;stroke-width:1" transform="rotate(-90 219.7 -38.2)"/></g><g class="arrow-line"><defs><pattern id="_pgf0itv37bfkdg-full-view" width="11.3" height="11.3" x="0" y="0" patternTransform="rotate(45 0 0)" patternUnits="userSpaceOnUse"><path d="M0 0v11.3M5.7 0v11.3M11.3 0v11.3" style="stroke:#900;stroke-opacity:1;stroke-width:1;fill:none"/></pattern></defs><path d="M258 99.2h50" class="connection real" style="stroke:#900;stroke-opacity:1;stroke-width:1;fill:url(#_pgf0itv37bfkdg-full-view);fill-opacity:1"/><path fill="#900" stroke="none" d="M10.7-5.1 0 0l10.7 5.2L7.1 0Z" style="stroke:none;fill:#900;stroke-width:1" transform="matrix(-1 0 0 -1 311 99.2)"/></g><g class="arrow-line"><defs><pattern id="_pgf12qq56gmkdg-full-view" width="11.3" height="11.3" x="0" y="0" patternTransform="rotate(45 0 0)" patternUnits="userSpaceOnUse"><path d="M0 0v11.3M5.7 0v11.3M11.3 0v11.3" style="stroke:#900;stroke-opacity:1;stroke-width:1;fill:none"/></pattern></defs><path d="M208 99.2h50" class="connection real" style="stroke:#900;stroke-opacity:1;stroke-width:1;fill:url(#_pgf12qq56gmkdg-full-view);fill-opacity:1"/><path fill="#900" stroke="none" d="M10.7-5.1 0 0l10.7 5.2L7.1 0Z" style="stroke:none;fill:#900;stroke-width:1" transform="translate(205 99.2)"/></g><g class="composite-shape"><path d="M256.4 99.2a1.5 1.5 0 1 1 3 0 1.5 1.5 0 0 1-3 0Z" class="real" style="stroke-width:1;stroke:#000;fill:#030202;fill-opacity:1"/></g></g></svg><svg xmlns="http://www.w3.org/2000/svg" xmlns:xlink="http://www.w3.org/1999/xlink" width="326" height="265" style="width:326px;height:265.025px;font-family:Asana-Math,Asana;background:0 0"><path fill="#900" stroke="#900" stroke-width=".1" d="m44.2 144 1.8-.1q1.6 0 1.7.4l.2 1.5h.4q0-1.6.3-2.6H41v.4h.9q.6 0 .6.5t-.2 1.3l-1.2 7.4c-.3 1.6-.3 1.6-1 1.6l-.6.1-.1.5H44v-.5h-1.1q-.7 0-.6-.5v-.4l.6-3.8H47l.4-.7-.1-.1h-4.4l.8-4.5q0-.4.2-.6Z"/><svg width="10.3" height="10" x="39.3" y="131.9" overflow="visible"><path d="M10.3 4.9 7 1.4l-.5.5 2 2.4h-.2v.9h.2l-2 2.3.5.5zm-8.6.3h8.1v-.9H1.7z" style="fill:#900;fill-opacity:1;stroke-width:1px;stroke:none;stroke-opacity:1"/></svg><path fill="#900" stroke="#900" stroke-width=".1" d="m49.3 161.4.6.2q.5 0 1.2-1l.9-1.3.1.8q.2 1.5.9 1.5.4 0 1-.6l.6-.5-.1-.2-1 .5q-.2 0-.4-.4l-.3-1-.2-1.2.4-.6q.8-1 1.3-1 .2 0 .4.3h.1l.2-1-.4-.2q-.6 0-1.6 1.5l-.5.7v-.6q-.2-1.7-1.2-1.6-.5 0-.7.2l-.7 1 .2.1q.6-.6.8-.5.6 0 .9 1.6l.1.8-.5.7q-.7 1.2-1.2 1.2l-.3-.1-.2-.4h-.2z"/><path fill="#000" stroke="#000" stroke-width=".1" d="M40.3 235.5c4 0 5.6-5.6 5.7-8.8 0-2-.5-3.4-2.7-3.4-4.4 0-5.9 5-5.9 8.5 0 2 .5 3.7 2.9 3.7Zm2.7-11.8c2.3 0 1.8 3.2 1.5 5H39c.4-1.7 1.7-5 4-5ZM40.5 235c-2.5 0-1.8-4.2-1.5-5.7h5.4c-.5 1.9-1.4 5.7-3.9 5.7Z"/><path fill="#900" stroke="#900" stroke-width=".1" d="M267.8 137.9h1.5q1.2 0 1.4.2v1.3h.4q0-1.3.3-2.1h-6.2v.3h.7q.6 0 .5.4l-.1 1-1 6c-.3 1.2-.3 1.2-.8 1.3h-.5v.4h3.5v-.4h-.8q-.5 0-.5-.4v-.3l.5-3h3.4l.3-.6h-3.6l.7-3.7v-.4Z"/><svg width="8.2" height="8" x="263.9" y="129.1" overflow="visible"><path d="M8.2 3.9 5.7 1.2l-.4.4L7 3.5h-.2v.7H7L5.3 6.1l.4.4zm-6.8.3h6.5v-.7H1.4z" style="fill:#900;fill-opacity:1;stroke-width:1px;stroke:none;stroke-opacity:1"/></svg><path fill="#900" stroke="#900" stroke-width=".1" d="M271.8 153.4v.2q.1.6.8.7 1.6-.1 2.6-3l1.3-4.1h-.8l-.3 1.3q-.2.8-.8 1.7t-1 .9l-.2-.5.2-2v-.9q0-.6-.2-.6-.1-.1-.7.4l-.8.5.1.2.5-.3.2-.1q.3 0 .2.5v.1l-.1 2.3v.4q0 .7.4.7.6-.1 1.8-1.9l-.4 1.6q-.7 2.5-1.7 2.4l-.6-.6v-.2ZM30.1 193h1.5q1.2 0 1.4.2v1.3h.4q0-1.3.3-2.1h-6.2v.3h.7q.5 0 .5.4l-.1 1-1 6c-.3 1.2-.3 1.2-.8 1.3h-.5v.4h3.5v-.4H29q-.5 0-.5-.4v-.3l.5-3h3.4l.3-.6H29l.7-3.7v-.4Z"/><svg width="8.2" height="8" x="26.2" y="184.2" overflow="visible"><path d="M8.2 3.9 5.7 1.2l-.4.4L7 3.5h-.2v.7H7L5.3 6.1l.4.4zm-6.8.3h6.5v-.7H1.4z" style="fill:#900;fill-opacity:1;stroke-width:1px;stroke:none;stroke-opacity:1"/></svg><path fill="#900" stroke="#900" stroke-width=".1" d="m34.3 206.8.4.1q.5 0 1-.7l.7-1.1v.6q.3 1.2.8 1.2l.8-.4.4-.5v-.1l-.8.4-.3-.3-.3-.8-.1-1 .3-.4q.6-1 1-.9l.3.2h.1l.2-.8h-.3q-.5-.1-1.4 1.1l-.3.5v-.4q-.2-1.4-1-1.3-.4 0-.5.2l-.6.8h.2l.6-.4q.5 0 .7 1.4l.1.5-.4.6q-.6 1-1 1l-.2-.1-.1-.3h-.2zM82.2 99.1H84q1.6 0 1.7.4l.2 1.5h.4q0-1.6.3-2.6H79v.4h.9q.6 0 .6.5t-.2 1.3L79 108c-.3 1.6-.3 1.6-1 1.6l-.6.1-.1.5h4.6v-.5h-1.1q-.7 0-.6-.5v-.4l.6-3.8H85l.4-.7-.1-.1h-4.4l.8-4.5q0-.4.2-.6Z"/><svg width="10.3" height="10" x="77.3" y="87.1" overflow="visible"><path d="M10.3 4.9 7 1.4l-.5.5 2 2.4h-.2v.9h.2l-2 2.3.5.5zm-8.6.3h8.1v-.9H1.7z" style="fill:#900;fill-opacity:1;stroke-width:1px;stroke:none;stroke-opacity:1"/></svg><path fill="#900" stroke="#900" stroke-width=".1" d="M87.2 118.8v.2q0 .9 1 1c1.2 0 2.5-1.6 3.2-3.8L93 111l-.2-.1-.8.2-.5 1.6q-.2 1-1 2c-.3.6-1 1.1-1.2 1.1q-.2 0-.2-.5l.2-2.5v-1.2q0-.7-.3-.7l-.9.5-1 .6.2.2.6-.3.3-.2q.3 0 .3.7v.1l-.3 3v.4q0 .8.5.9.9-.2 2.4-2.4l-.6 2q-.9 3-2 3a1 1 0 0 1-.8-.7v-.3Zm.1 97.4h1c-.9 1.2-2.6 2.6-2.6 5q0 2.2 1.5 2.3t3.3-3.4l-.3 1.6q0 1.7 1.3 1.8c2.3 0 4.9-4.2 4.9-6.7q-.1-1.6-1-1.7l-.6.2-.9.8.2.4.5-.2q.7 0 .7 1c0 2.5-1.7 5.4-3.1 5.4q-.8-.1-.8-1.7 0-1.4.3-2.6l.9-3.1-.1-.2-1.3.4-.5 2.5q-.2 1.4-1 2.7-1 2-1.7 2-1-.1-1-1.7a8 8 0 0 1 2.3-5.6l-.1-.3-1 .2h-2.7l-.6 2h.3l.3-.7q.2-.4.9-.4z"/><svg width="13.1" height="10" x="84.5" y="204.3" overflow="visible"><path d="M13.1 4.9 10 1.4l-.5.5 1.9 2.4h-.2v.9h.2l-2 2.3.6.5zm-11.4.3h11v-.9h-11z" style="fill:#900;fill-opacity:1;stroke-width:1px;stroke:none;stroke-opacity:1"/></svg><path fill="#900" stroke="#900" stroke-width=".1" d="m151.6 186.8-5.9-10H143l-.1.4h.6c.8.1 1.3.9 1.3 1l-1.5 8.6q-.1 1.4-1 1.2l-.5.1v.5h3.7v-.5h-.6q-1 0-.9-.8v-.5l1.4-7.9 5.8 9.8h.8l1.6-9.4c.4-2 .4-2 1-2h.7v-.5h-3.6v.4h.7q.7 0 .6.5z"/><svg width="14.1" height="10" x="141.7" y="165.5" overflow="visible"><path d="m14 4.9-3-3.4-.6.5 2 2.4h-.2v.9h.2l-2 2.3.5.5zm-12.3.3h11.9v-.9h-12z" style="fill:#900;fill-opacity:1;stroke-width:1px;stroke:none;stroke-opacity:1"/></svg><path fill="#900" stroke="#900" stroke-width=".1" d="M118.5 55.4h-.3l.4-2q.3-2 1.5-2 .8 0 1.2.6h.2l.4-1.2v-.2q-.4-.3-1.1-.3-.4 0-.6.2c-.4.1-1.8 1.2-2.2 1.6q-.6.5-.8 1.8l-.2 1.4-1.5.6v.4h1.3l-.1 1c-.6 3.3-1.2 6.4-1.6 7.6q-.5 1.5-1.4 1.5-.5 0-.9-.5l-.2.1-.4 1.4h.6q1.2 0 2.3-1.2c1.2-1.5 1.5-3 3-10h1.7l.3-.9z"/><svg width="10.2" height="10" x="112.6" y="39.8" overflow="visible"><path d="M10.2 4.9 7.1 1.4l-.5.5 1.9 2.4h-.2v.9h.2l-2 2.3.5.5zm-8.5.3h8v-.9h-8z" style="fill:#900;fill-opacity:1;stroke-width:1px;stroke:none;stroke-opacity:1"/></svg><path fill="#900" stroke="#900" stroke-width=".1" d="m122.8 67.5-.2 1.6q.6.3 1.3.3t1.7-.7q.8-.6.8-1.5t-1.2-1.1l-.5-.1q-1-.2-1-.8.1-1.1 1.3-1.2.7 0 1 .6v.6h.4l.2-1.3-1.2-.3a3 3 0 0 0-2 .9q-.3.4-.4 1 0 1 1.2 1.2l.7.2q.8 0 .8.8-.1 1.2-1.4 1.3-.7 0-1.2-.5v-1Zm-58.7 162h1.5q1.2 0 1.4.2v1.3h.4q0-1.3.3-2.1h-6.2v.3h.7q.6 0 .5.4l-.1 1-1 6c-.3 1.2-.3 1.2-.8 1.3h-.5v.4h3.5v-.4H63q-.5 0-.5-.4v-.3l.5-3h3.4l.3-.6H63l.7-3.7v-.4Z"/><svg width="8.2" height="8" x="60.2" y="220.7" overflow="visible"><path d="M8.2 3.9 5.7 1.2l-.4.4L7 3.5h-.2v.7H7L5.3 6.1l.4.4zm-6.8.3h6.5v-.7H1.4z" style="fill:#900;fill-opacity:1;stroke-width:1px;stroke:none;stroke-opacity:1"/></svg><path fill="#900" stroke="#900" stroke-width=".1" d="M68.1 245v.2q.1.6.8.7 1.6-.1 2.6-3l1.3-4.1H72l-.3 1.3q-.2.8-.8 1.7-.6.7-1 .9l-.2-.5.2-2v-.9q0-.6-.2-.6-.1-.1-.7.4l-.8.5.1.2.5-.3.2-.1q.3 0 .2.5v.1l-.1 2.3v.4q0 .7.4.7.6-.1 1.8-1.9l-.4 1.6q-.7 2.5-1.7 2.4l-.6-.6v-.2ZM305.3 79.9h1.5q1.2 0 1.4.2v1.3h.4q0-1.3.3-2.1h-6.2v.3h.7q.6 0 .5.4l-.1 1-1 6c-.3 1.2-.3 1.2-.8 1.3h-.5v.4h3.5v-.4h-.8q-.5 0-.5-.4v-.3l.5-3h3.4l.3-.6h-3.6l.7-3.7V80Z"/><svg width="8.2" height="8" x="301.4" y="71.1" overflow="visible"><path d="M8.2 3.9 5.7 1.2l-.4.4L7 3.5h-.2v.7H7L5.3 6.1l.4.4zm-6.8.3h6.5v-.7H1.4z" style="fill:#900;fill-opacity:1;stroke-width:1px;stroke:none;stroke-opacity:1"/></svg><path fill="#900" stroke="#900" stroke-width=".1" d="m309.5 93.7.4.1q.5 0 1-.7l.7-1.1v.6q.2 1.2.8 1.2l.8-.4.4-.5v-.1l-.8.4-.3-.3-.3-.8-.1-1 .3-.4q.6-1 1-.9l.3.2h.1l.2-.8h-.3q-.5-.1-1.4 1.1l-.3.5v-.4q-.2-1.4-1-1.3-.4 0-.5.2l-.6.8h.2q.4-.4.6-.4.5 0 .7 1.4l.1.5-.4.6q-.6 1-1 1l-.2-.1-.1-.3h-.2zm-97.8-5.9-4.7-8h-2.2v.3h.4c.6 0 1.1.7 1.1.8l-1.2 6.9q-.2 1.1-.8 1h-.4v.4h2.9l.1-.4h-.6q-.7 0-.6-.6v-.4l1-6.3 4.7 7.8h.7l1.2-7.5c.3-1.5.4-1.6.9-1.6h.5v-.4h-2.9v.3h.6q.5 0 .5.4z"/><svg width="11.3" height="8" x="203.8" y="71.6" overflow="visible"><path d="M11.3 3.9 8.7 1.2l-.4.4L10 3.5h-.1v.7L8.4 6.1l.4.4zm-10 .3H11v-.7H1.4z" style="fill:#900;fill-opacity:1;stroke-width:1px;stroke:none;stroke-opacity:1"/></svg><path fill="#900" stroke="#900" stroke-width=".1" d="M272.5 26.2h-.2l.3-1.5q.3-1.7 1.2-1.7.6 0 1 .5h.1l.3-1v-.1l-.9-.2h-.4l-1.8 1.4q-.4.4-.6 1.5l-.2 1-1.2.6v.3h1v.7c-.5 2.7-1 5.2-1.3 6.1q-.3 1.3-1.1 1.3-.4 0-.7-.4h-.2l-.3 1.1.4.1q1 0 1.9-1c1-1.2 1.2-2.5 2.3-8h1.5l.2-.7V26z"/><svg width="8.2" height="8" x="267.8" y="14.6" overflow="visible"><path d="M8.2 3.9 5.6 1.2l-.3.4 1.5 1.9h-.1v.7L5.4 6.1l.3.4zm-6.8.3h6.4v-.7H1.4z" style="fill:#900;fill-opacity:1;stroke-width:1px;stroke:none;stroke-opacity:1"/></svg><path fill="#900" stroke="#900" stroke-width=".1" d="m276 35.8-.2 1.2q.5.3 1 .3.7 0 1.4-.6t.7-1.2-1-.9h-.5q-.7-.2-.7-.7 0-.9 1-1 .6.1.9.5v.5h.2l.2-1-1-.3q-.7 0-1.5.7-.4.4-.4.9 0 .7 1 1h.6q.6.1.5.7 0 1-1 1-.6 0-1-.3v-.8Zm-8 139.5.9-.1c-.8 1-2.1 2.1-2.1 4q0 1.9 1.2 2t2.6-2.8l-.2 1.3q0 1.3 1 1.4c1.8 0 4-3.4 4-5.4q0-1.2-1-1.3l-.4.2-.7.6.2.3.4-.2q.5 0 .5.9c0 2-1.3 4.2-2.4 4.2q-.6 0-.7-1.3 0-1 .3-2l.7-2.6h-.1l-1 .2-.4 2q-.2 1.2-.8 2.2-.8 1.5-1.4 1.5-.8 0-.8-1.3-.1-2.4 1.9-4.4l-.2-.3-.8.2-1.3-.1h-.8l-.5 1.7h.3l.2-.6q.2-.3.7-.4z"/><svg width="10.5" height="8" x="265.8" y="166.4" overflow="visible"><path d="M10.5 3.9 8 1.2l-.4.4L9 3.5v.7h.1L7.6 6.1l.4.4zm-9.1.3H10v-.7H1.4z" style="fill:#900;fill-opacity:1;stroke-width:1px;stroke:none;stroke-opacity:1"/></svg></svg></svg>