<svg xmlns="http://www.w3.org/2000/svg" width="252.6" height="188.5" style="width:252.60000610351562px;height:188.5px;background:#fff;fill:none"><svg xmlns="http://www.w3.org/2000/svg"/><svg xmlns="http://www.w3.org/2000/svg" class="role-diagram-draw-area"><g class="shapes-region" style="stroke:#000;fill:none"><g class="arrow-line"><path d="M177.78 28.66v85.12" class="connection real" style="stroke:#900;stroke-opacity:1;stroke-width:1;fill:none;fill-opacity:1"/><path fill="#900" stroke="none" d="M10.72-5.15 0 0l10.72 5.15L7.12 0Z" style="stroke:none;fill:#900;stroke-width:1" transform="rotate(90 76.06 101.72)"/></g><g class="composite-shape"><defs><pattern id="_pgfjsfwbaqex" width="11.314" height="11.314" x="0" y="0" patternTransform="rotate(45 0 0)" patternUnits="userSpaceOnUse"><path d="M0 0v11.314M5.657 0v11.314M11.314 0v11.314" style="stroke:#eee;stroke-opacity:1;stroke-width:1;fill:none"/></pattern></defs><path d="M-10 93h160.95v96.05H-10Z" class="real" style="stroke-width:1;stroke:#000;fill:url(#_pgfjsfwbaqex);fill-opacity:1"/></g><g class="composite-shape"><path d="M71 52.4h39.48v40H71Z" class="real" style="stroke-width:1;stroke:#900;stroke-opacity:1;fill:#900;fill-opacity:.5"/></g><g class="arrow-line"><path d="m12.68 6.08 55.97 44.45" class="connection real" style="stroke:#900;stroke-opacity:1;stroke-width:1;fill:none;fill-opacity:1"/><path fill="#900" stroke="none" d="M10.72-5.15 0 0l10.72 5.15L7.12 0Z" style="stroke:none;fill:#900;stroke-width:1" transform="rotate(218.46 44.64 13.817)"/></g><g class="arrow-line"><path d="M79.68 93.08v38.8" class="connection real" style="stroke:#900;stroke-opacity:1;stroke-width:1;fill:none;fill-opacity:1"/><path fill="#900" stroke="none" d="M10.72-5.15 0 0l10.72 5.15L7.12 0Z" style="stroke:none;fill:#900;stroke-width:1" transform="rotate(-90 107.28 27.6)"/></g><g class="arrow-line"><path d="M177.78 113.78v38.8" class="connection real" style="stroke:#900;stroke-opacity:1;stroke-width:1;fill:none;fill-opacity:1"/><path fill="#900" stroke="none" d="M10.72-5.15 0 0l10.72 5.15L7.12 0Z" style="stroke:none;fill:#900;stroke-width:1" transform="rotate(-90 166.68 -11.1)"/></g><g class="arrow-line"><path stroke-dasharray="3" d="M71 52.4H34.5" class="connection real" style="stroke:#900;stroke-opacity:1;stroke-width:1;fill:none;fill-opacity:1"/></g><g class="composite-shape"><path stroke="none" d="M46 52.4c0-5.81 1.98-11.15 5.3-15.39L71 52.4Z" class="real" style="stroke-width:1;stroke:none;stroke-opacity:1;fill:none;fill-opacity:1"/><path d="M46 52.4c0-5.81 1.98-11.15 5.3-15.39" class="real" style="stroke-width:1;stroke:#000;stroke-opacity:1;fill:none;fill-opacity:1"/></g><g class="arrow-line"><path stroke-dasharray="3" d="M226.14 113.78h-48.36" class="connection real" style="stroke:#900;stroke-opacity:1;stroke-width:1;fill:none;fill-opacity:1"/></g><g class="arrow-line"><path d="m177.78 113.78 55.97 44.45" class="connection real" style="stroke:#900;stroke-opacity:1;stroke-width:1;fill:none;fill-opacity:1"/><path fill="#900" stroke="none" d="M10.72-5.15 0 0l10.72 5.15L7.12 0Z" style="stroke:none;fill:#900;stroke-width:1" transform="rotate(218.46 145.973 38.871)"/></g><g class="composite-shape"><path stroke="none" d="M202.78 113.78c0 5.81-1.98 11.15-5.3 15.39l-19.7-15.39Z" class="real" style="stroke-width:1;stroke:none;stroke-opacity:1;fill:none;fill-opacity:1"/><path d="M202.78 113.78c0 5.81-1.98 11.15-5.3 15.39" class="real" style="stroke-width:1;stroke:#000;stroke-opacity:1;fill:none;fill-opacity:1"/></g><g class="composite-shape"><path d="M176.04 113.78a1.741 1.741 0 0 1 3.48 0 1.741 1.741 0 0 1-3.48 0Z" class="real" style="stroke-width:1;stroke:#000;fill:#000;fill-opacity:1"/></g><g class="arrow-line"><path d="M98.95 97.09v85.12" class="connection real" style="stroke:#900;stroke-opacity:1;stroke-width:1;fill:none;fill-opacity:1"/><path fill="#900" stroke="none" d="M10.72-5.15 0 0l10.72 5.15L7.12 0Z" style="stroke:none;fill:#900;stroke-width:1" transform="rotate(90 2.427 96.52)"/></g></g></svg><svg xmlns="http://www.w3.org/2000/svg" xmlns:xlink="http://www.w3.org/1999/xlink" width="251" height="186.9" style="width:251px;height:186.90000915527344px;font-family:Asana-Math,Asana;background:#fff"><path fill="#900" stroke="#900" stroke-width=".136" d="m78.262 33.418 1.802-.068c1.054 0 1.734.153 1.751.408l.136 1.513h.408c.051-1.071.17-1.938.357-2.584-.374-.034-.85-.051-1.139-.051l-.697.017-2.805.034h-.493c-.425 0-1.105-.017-1.751-.034l-.833-.017-.051.476.952.034c.408.017.595.17.595.459 0 .238-.068.782-.153 1.292l-1.275 7.378c-.289 1.564-.289 1.581-.986 1.649l-.612.051-.068.476.578-.017c.68-.017 1.224-.034 1.581-.034.306 0 .799.017 1.462.034l.884.017.051-.476-1.088-.051c-.459-.017-.612-.153-.612-.493 0-.102.017-.289.034-.357l.612-3.791h1.989c.459 0 .986.017 1.802.051l.442.017.323-.765-.068-.119a70 70 0 0 1-3.723.102h-.629l.782-4.607c.051-.272.068-.357.153-.544Z"/><svg width="10.288" height="10" x="73.4" y="21.4" overflow="visible"><path d="M10.29 4.85 7.14 1.53l-.49.52 1.93 2.33h-.15v.9h.15L6.65 7.61l.49.52zm-8.61.38h8.15v-.9H1.68z" style="fill:#900;fill-opacity:1;stroke-width:1px;stroke:none;stroke-opacity:1"/></svg><path fill="#fff" stroke="#fff" stroke-width=".136" d="m96.541 77.449-.442.289c-.493.323-.867.51-1.037.51-.119 0-.22-.153-.22-.34 0-.17.033-.323.118-.68l1.275-5.049c.068-.289.12-.561.12-.697 0-.289-.17-.476-.443-.476-.493 0-1.139.306-2.176 1.037-1.07.765-1.666 1.36-2.499 2.533l.51-2.329c.068-.34.12-.595.12-.714 0-.323-.17-.527-.443-.527-.51 0-1.292.374-2.227 1.088-.748.578-1.088.935-2.193 2.431l.561-2.261c.068-.272.102-.527.102-.731 0-.323-.153-.527-.39-.527-.358 0-1.004.357-2.262 1.258l-.476.34.12.34c.628-.391 1.223-.782 1.342-.782.187 0 .306.17.306.425 0 .867-.697 4.148-1.394 6.579l.051.187 1.156-.255.374-1.734c.408-1.887.867-2.89 1.802-3.91.714-.782 1.48-1.292 1.955-1.292.12 0 .187.136.187.357 0 .595-.374 2.533-1.07 5.508l-.273 1.139.085.187 1.173-.255.357-1.819c.272-1.377.85-2.652 1.598-3.485.935-1.037 1.785-1.632 2.33-1.632.135 0 .22.153.22.425 0 .408-.05.646-.425 2.125-.68 2.703-.952 3.06-.952 3.961 0 .425.187.68.51.68.442 0 1.054-.357 2.72-1.598Z"/><path fill="#900" stroke="#900" stroke-width=".136" d="m118.494 116.249-5.865-10.013h-2.754l-.085.476.595.034c.765.034 1.343.799 1.36.952l-1.581 8.568c-.204 1.054-.306 1.19-.918 1.258l-.527.051-.085.476 1.887-.051c.204 0 .221 0 1.87.051l.085-.476-.714-.051c-.68-.051-.833-.187-.833-.748 0-.136.017-.323.051-.51l1.36-7.888 5.746 9.809h.85l1.598-9.401c.357-1.921.391-1.989 1.02-2.04l.629-.034.051-.459-3.621-.017-.085.476.799.034c.442.017.612.136.612.408 0 .119-1.411 8.874-1.445 9.095Z"/><svg width="14.063" height="10" x="108.6" y="95" overflow="visible"><path d="m14.06 4.85-3.15-3.32-.49.52 1.93 2.33h-.15v.9h.15l-1.93 2.33.49.52zm-12.38.38H13.6v-.9H1.68z" style="fill:#900;fill-opacity:1;stroke-width:1px;stroke:none;stroke-opacity:1"/></svg><path fill="#900" stroke="#900" stroke-width=".136" d="M61.839 109.047c.357 0 .578-.017 1.003-.068-.935 1.258-2.618 2.686-2.618 5.066 0 1.394.595 2.33 1.496 2.33 1.088 0 1.972-.936 3.23-3.367-.153.748-.204 1.173-.204 1.564 0 1.071.493 1.802 1.258 1.802 2.278 0 4.879-4.233 4.879-6.715 0-.969-.442-1.666-1.054-1.666-.221 0-.425.068-.561.204l-.85.8.187.322a.8.8 0 0 1 .459-.153c.459 0 .731.391.731 1.071 0 2.465-1.649 5.287-3.094 5.287-.493 0-.85-.68-.85-1.615 0-.799.153-1.92.357-2.652l.884-3.128-.119-.136-1.258.374-.493 2.533c-.204 1.054-.442 1.734-.935 2.652-.68 1.275-1.326 1.972-1.836 1.972-.595 0-.986-.663-.986-1.649 0-2.023.697-3.672 2.38-5.576l-.17-.306c-.34.153-.561.204-1.037.204s-1.19-.034-1.683-.085l-.204-.017c-.102-.017-.187-.017-.204-.017-.204 0-.357.034-.544.12-.238.458-.425 1.07-.646 2.005h.374l.289-.714c.119-.289.459-.476.867-.476.578 0 .289.034.952.034Z"/><svg width="13.113" height="10" x="59" y="97.187" overflow="visible"><path d="M13.11 4.85 9.96 1.53l-.49.52 1.93 2.33h-.15v.9h.15L9.47 7.61l.49.52zm-11.43.38h10.97v-.9H1.68z" style="fill:#900;fill-opacity:1;stroke-width:1px;stroke:none;stroke-opacity:1"/></svg><path fill="#2d2e28" stroke="#2d2e28" stroke-width=".109" d="M36.023 50.368c3.21 0 4.556-4.516 4.61-7.072.028-1.55-.407-2.693-2.135-2.693-3.536 0-4.719 3.944-4.76 6.84-.027 1.619.436 2.925 2.285 2.925Zm2.23-9.412c1.837 0 1.429 2.516 1.143 4.012h-4.298c.34-1.414 1.401-4.012 3.156-4.012Zm-2.012 9.017c-2.054 0-1.442-3.373-1.224-4.57h4.297c-.34 1.524-1.128 4.57-3.073 4.57Zm173.732 76.42c3.21 0 4.556-4.516 4.61-7.072.028-1.55-.407-2.693-2.135-2.693-3.536 0-4.719 3.944-4.76 6.84-.027 1.619.436 2.925 2.285 2.925Zm2.23-9.412c1.837 0 1.429 2.516 1.143 4.012h-4.298c.34-1.414 1.401-4.012 3.156-4.012Zm-2.012 9.017c-2.054 0-1.442-3.373-1.224-4.57h4.297c-.34 1.524-1.128 4.57-3.073 4.57Z"/></svg></svg>