<svg xmlns="http://www.w3.org/2000/svg" width="362.6" height="215.7" style="width:362.6000061035156px;height:215.72500610351562px;background:0 0;fill:none"><svg xmlns="http://www.w3.org/2000/svg"/><svg xmlns="http://www.w3.org/2000/svg" class="role-diagram-draw-area" style="overflow:visible"><g class="shapes-region" style="stroke:#000;fill:none"><g class="composite-shape"><path d="M190.6 100h8.2v8.2h-8.2Z" class="real" style="stroke-width:1;stroke:#000;fill:none;fill-opacity:1"/></g><g class="arrow-line"><path d="m190.2 61.9 56 44.4" class="connection real" style="stroke:#900;stroke-opacity:1;stroke-width:1;fill:none;fill-opacity:1"/><path fill="#900" stroke="none" d="M10.7-5.1 0 0l10.7 5.2L7.1 0Z" style="stroke:none;fill:#900;stroke-width:1" transform="rotate(218.5 143.1 10.7)"/></g><g class="composite-shape"><path stroke="none" d="M223.5 108.2a25 25 0 0 1 5.3-15.4l19.7 15.4Z" class="real" style="stroke-width:1;stroke:none;stroke-opacity:1;fill:none;fill-opacity:1"/><path d="M223.5 108.2a25 25 0 0 1 5.3-15.4" class="real" style="stroke-width:1;stroke:#000;stroke-opacity:1;fill:none;fill-opacity:1"/></g><g class="arrow-line"><path stroke-dasharray="3" d="M190.6 108.2h56" class="connection real" style="stroke:#900;stroke-opacity:1;stroke-width:1;fill:none;fill-opacity:1"/><path stroke="#900" d="M11-3.3Q5-.5 0 0q5 .5 11 3.3" style="stroke:#900;stroke-width:1" transform="matrix(-1 0 0 -1 248.5 108.2)"/></g><g class="arrow-line"><path stroke-dasharray="3" d="M190.6 61.9v44.3" class="connection real" style="stroke:#900;stroke-opacity:1;stroke-width:1;fill:none;fill-opacity:1"/><path stroke="#900" d="M11-3.3Q5-.5 0 0q5 .5 11 3.3" style="stroke:#900;stroke-width:1" transform="rotate(-90 149.4 -41.2)"/></g><g class="arrow-line"><path d="M291 154.5v38.8" class="connection real" style="stroke:#900;stroke-opacity:1;stroke-width:1;fill:none;fill-opacity:1"/><path fill="#900" stroke="none" d="M10.7-5.1 0 0l10.7 5.2L7.1 0Z" style="stroke:none;fill:#900;stroke-width:1" transform="rotate(-90 243.6 -47.3)"/></g><g class="arrow-line"><path d="m291 108.2 56 44.5" class="connection real" style="stroke:#900;stroke-opacity:.5;stroke-width:1;fill:none;fill-opacity:1"/><path fill="#900" fill-opacity=".5" stroke="none" d="M10.7-5.1 0 0l10.7 5.2L7.1 0Z" style="stroke:none;fill:#900;stroke-width:1" transform="rotate(218.5 201.6 16.4)"/><path stroke="#900" stroke-opacity=".5" d="M-5.6 0H5.6M0 5.6V-5.6" style="stroke:#900;stroke-width:1" transform="rotate(83.5 86.4 245.1)"/></g><g class="composite-shape"><path d="M289.2 108.2a1.7 1.7 0 1 1 3.5 0 1.7 1.7 0 0 1-3.5 0Z" class="real" style="stroke-width:1;stroke:#000;fill:#000;fill-opacity:1"/></g><g class="arrow-line"><path d="M291 108.2h54.9" class="connection real" style="stroke:#900;stroke-opacity:1;stroke-width:1;fill:none;fill-opacity:1"/><path fill="#900" stroke="none" d="M10.7-5.1 0 0l10.7 5.2L7.1 0Z" style="stroke:none;fill:#900;stroke-width:1" transform="matrix(-1 0 0 -1 348.9 108.2)"/></g><g class="arrow-line"><path d="M291 108.2v43.3" class="connection real" style="stroke:#900;stroke-opacity:1;stroke-width:1;fill:none;fill-opacity:1"/><path fill="#900" stroke="none" d="M10.7-5.1 0 0l10.7 5.2L7.1 0Z" style="stroke:none;fill:#900;stroke-width:1" transform="rotate(-90 222.7 -68.2)"/></g><g class="arrow-line"><path d="M291 23v85.2" class="connection real" style="stroke:#900;stroke-opacity:1;stroke-width:1;fill:none;fill-opacity:1"/><path fill="#900" stroke="none" d="M10.7-5.1 0 0l10.7 5.2L7.1 0Z" style="stroke:none;fill:#900;stroke-width:1" transform="rotate(90 135.4 155.5)"/></g><g class="composite-shape"><defs><pattern id="_pgfe39em1jghdg-full-view" width="11.3" height="11.3" x="0" y="0" patternTransform="rotate(45 0 0)" patternUnits="userSpaceOnUse"><path d="M0 0v11.3M5.7 0v11.3M11.3 0v11.3" style="stroke:#eee;stroke-opacity:1;stroke-width:1;fill:none"/></pattern></defs><path d="M-11 123h161v96.1H-11Z" class="real" style="stroke-width:1;stroke:#000;fill:url(#_pgfe39em1jghdg-full-view);fill-opacity:1"/></g><g class="composite-shape"><path d="M70 82.5h39.5v40H70Z" class="real" style="stroke-width:1;stroke:#900;stroke-opacity:1;fill:#900;fill-opacity:.5"/></g><g class="arrow-line"><path d="m11.7 36.2 56 44.4" class="connection real" style="stroke:#900;stroke-opacity:1;stroke-width:1;fill:none;fill-opacity:1"/><path fill="#900" stroke="none" d="M10.7-5.1 0 0l10.7 5.2L7.1 0Z" style="stroke:none;fill:#900;stroke-width:1" transform="rotate(218.5 49.4 29)"/></g><g class="arrow-line"><path d="M78.7 123.2V162" class="connection real" style="stroke:#900;stroke-opacity:1;stroke-width:1;fill:none;fill-opacity:1"/><path fill="#900" stroke="none" d="M10.7-5.1 0 0l10.7 5.2L7.1 0Z" style="stroke:none;fill:#900;stroke-width:1" transform="rotate(-90 121.8 43.1)"/></g><g class="arrow-line"><path stroke-dasharray="3" d="M70 82.5H33.5" class="connection real" style="stroke:#900;stroke-opacity:1;stroke-width:1;fill:none;fill-opacity:1"/></g><g class="composite-shape"><path stroke="none" d="M45 82.5a25 25 0 0 1 5.3-15.4L70 82.5Z" class="real" style="stroke-width:1;stroke:none;stroke-opacity:1;fill:none;fill-opacity:1"/><path d="M45 82.5a25 25 0 0 1 5.3-15.4" class="real" style="stroke-width:1;stroke:#000;stroke-opacity:1;fill:none;fill-opacity:1"/></g><g class="arrow-line"><path d="M98 127.2v85.1" class="connection real" style="stroke:#900;stroke-opacity:1;stroke-width:1;fill:none;fill-opacity:1"/><path fill="#900" stroke="none" d="M10.7-5.1 0 0l10.7 5.2L7.1 0Z" style="stroke:none;fill:#900;stroke-width:1" transform="rotate(90 -13.1 111)"/></g></g></svg><svg xmlns="http://www.w3.org/2000/svg" xmlns:xlink="http://www.w3.org/1999/xlink" width="361" height="214.1" style="width:361px;height:214.125px;font-family:Asana-Math,Asana;background:0 0"><path fill="#2d2e28" stroke="#2d2e28" stroke-width=".1" d="M213.6 106.1c3.2 0 4.5-4.5 4.6-7 0-1.6-.4-2.7-2.2-2.7-3.5 0-4.7 4-4.7 6.8 0 1.6.4 3 2.3 3Zm2.2-9.4c1.8 0 1.4 2.5 1.1 4h-4.3c.4-1.4 1.4-4 3.2-4Zm-2 9c-2 0-1.5-3.3-1.2-4.5h4.3c-.4 1.5-1.2 4.5-3.1 4.5Z"/><path fill="#900" stroke="#900" stroke-width=".1" d="m174.6 123.3 1.8-.1q1.6 0 1.7.4l.2 1.5h.4q0-1.6.3-2.6h-7.7v.5h.9q.6 0 .6.5t-.2 1.2l-1.2 7.4c-.3 1.6-.3 1.6-1 1.7h-.6l-.1.5h4.6v-.5h-1.1q-.7 0-.6-.5v-.4l.6-3.8h3.8l.4.1.4-.8h-4.5l.8-4.6q0-.3.2-.5Zm5.1 14h.6q.5 0 1.2-.8l.9-1.4.1.8q.2 1.5.9 1.5.3 0 1-.6l.6-.5-.1-.2q-.7.6-1 .5-.2 0-.4-.3l-.3-1-.2-1.2.4-.6q.8-1.1 1.3-1l.4.2h.1l.2-1-.4-.2q-.7 0-1.6 1.5l-.5.7v-.6q-.2-1.6-1.2-1.6-.5 0-.7.3l-.7 1h.2q.6-.5.8-.5.6 0 .9 1.7l.1.7-.5.7q-.7 1.2-1.2 1.2h-.3l-.2-.4h-.2zm22.3-8.9v-1h-9.2v1Zm0 3.6v-1h-9.2v1Zm11-8.7 1.8-.1q1.6 0 1.8.4l.1 1.5h.4q0-1.6.4-2.6h-7.8v.5h1q.5 0 .5.5l-.1 1.2-1.3 7.4c-.3 1.6-.3 1.6-1 1.7h-.6v.5h4.5v-.5h-1q-.7 0-.7-.5v-.4l.7-3.8h3.7l.5.1.3-.8h-4.4l.8-4.6.1-.5Zm15.6 5.7q0-1.2.2-2.1-.8-1.1-2-1.1c-2.1 0-4.5 2.3-4.5 4.6v.3c0 2.3 1.6 3.9 3.9 3.9.8 0 2.1-.3 2.3-.6l.3-.5-.1-.3q-1 .6-1.8.5-3-.2-3.1-3.7 0-2.7 2.3-2.8 1.3 0 2 .7v1Zm5.5-2.7c-2.5 0-4.2 1.7-4.2 4.3q.2 3.8 3.7 4c2.6 0 4.5-1.8 4.5-4.4 0-2.3-1.7-4-4-4Zm-.3.5c1.6 0 2.7 1.7 2.7 4q-.1 3.1-2.2 3.2-2.7-.2-2.8-4 0-3.1 2.3-3.2Zm5.5 5c0 1.2 0 1.7-.2 2.4a7 7 0 0 0 2.4.4c2.2 0 3.8-1.2 3.8-2.9 0-3-4.9-1.3-4.9-3.5q0-1.4 1.7-1.4 1.8.1 2 1.4v.4h.5v-1.9q-1.2-.4-2.2-.4-3 .2-3.1 2.4 0 1.3 1.1 1.8c2 .9 3.6.4 3.6 1.9q-.1 1.6-2 1.6-2 0-2.2-1.5v-.7Zm9-2.1c0-4.4 1.6-6.2 2.6-7.3l-.3-.5c-1 .9-3.8 3.1-3.8 7.8a11 11 0 0 0 3.8 8.2l.3-.4c-.8-1-2.6-3-2.6-7.8Zm12.5-4c-.3-2-1.1-3.4-3.3-3.4-4.4 0-5 5-4.4 8.6.3 2 1.2 3.6 3.5 3.6 4 0 4.7-5.6 4.2-8.8Zm-1.2 2h-5.4c.1-1.7.9-5 3-5 1.5 0 2.1 1.6 2.3 2.8zm0 .6c-.1 2-.4 5.7-2.9 5.7-1.7 0-2.2-1.9-2.4-3.2v-2.5Zm3.2-6.3-.4.3c1 1.1 2.7 3 2.7 7.4 0 4.7-1.8 6.8-2.7 7.8l.4.4c.9-.8 3.7-3.3 3.7-8.2 0-4.7-2.8-7-3.7-7.8Zm-88.5 19.2h1.8q1.6 0 1.7.4l.2 1.5h.4q0-1.7.3-2.6H171v.4h1q.5 0 .5.5l-.1 1.3-1.3 7.4c-.3 1.5-.3 1.6-1 1.6h-.6v.6h.5l1.6-.1h2.4v-.4h-1.1q-.7 0-.6-.6v-.3l.6-3.8h4.2l.4-.7-.1-.1h-4.3l.7-4.5.2-.6Zm5 16.2v.2q0 .8 1 .9c1.2 0 2.5-1.5 3.2-3.7l1.7-5.2-.1-.1-1 .2-.3 1.6-1 2q-.7 1-1.3 1.1l-.2-.6.2-2.4v-1.2q0-.7-.2-.7-.2-.1-1 .5l-1 .6.2.2.6-.3.3-.2q.3 0 .3.7v.1l-.2 3v.4q0 .8.5.8.8-.2 2.3-2.3l-.6 2q-.8 3-2 3a1 1 0 0 1-.8-.7v-.3Zm22.4-11.1v-1h-9.2v1Zm0 3.6v-1h-9.2v1Zm11-8.7h1.8q1.7 0 1.8.4l.1 1.5h.4q0-1.7.4-2.6h-7.7v.4h.9q.6 0 .6.5l-.2 1.3-1.3 7.4c-.3 1.5-.3 1.6-1 1.6h-.6v.6h.5l1.6-.1h2.4v-.4h-1q-.7 0-.7-.6v-.3l.7-3.8h4.2l.3-.7v-.1h-4.4l.8-4.5.1-.6Zm9.5 8.6q0 1.5-.2 2.3a7 7 0 0 0 2.4.4c2.2 0 3.8-1.1 3.8-2.8 0-3-4.8-1.4-4.8-3.6q0-1.2 1.6-1.3 1.8.1 2 1.4v.4h.5v-2q-1.2-.4-2.2-.4-3 .1-3.1 2.5 0 1.2 1.1 1.7c2 1 3.6.5 3.6 2q-.1 1.4-2 1.5-2-.1-2.2-1.4v-.7Zm9.7-5.5h-.1l-2.7.6v.5h.6c.7 0 .8.1.8 1.2v3.9q.1 1.3-.6 1.2h-.8v.6l2.1-.1h2.1v-.5h-.7q-.8.2-.7-1.2Zm-.8-3.8a1 1 0 0 0-1 1q.1.9 1 1 .9-.1 1-1-.1-.9-1-1Zm9.5 11.8 1.4-.1h1.4v-.5h-.7c-.6 0-.6-.1-.6-1.2v-3.3q0-3-2.9-3-.9 0-1.3.5l-1.3 1v-1.4h-.2q-1.2.4-2.6.6v.5h.6c.7 0 .8.1.8 1.2v3.9q.1 1.3-.7 1.2h-.7v.6l2-.1h2.2v-.5h-.8q-.8.2-.6-1.2v-3.6c0-.8 1.1-1.6 2.1-1.6q1.9 0 2 2.1Zm5.4-4.6c0-4.4 1.7-6.2 2.7-7.4l-.4-.4c-1 .8-3.7 3-3.7 7.8a11 11 0 0 0 3.7 8.2l.4-.4c-.8-1-2.7-3-2.7-7.8Zm12.5-4.1c-.3-2-1.1-3.3-3.3-3.3-4.4 0-5 4.9-4.4 8.5.3 2 1.2 3.7 3.5 3.7 4 0 4.7-5.7 4.2-8.9Zm-1.2 2.1H252c.2-1.7 1-5 3.1-5 1.5 0 2 1.6 2.2 2.7zm0 .6c0 1.9-.4 5.7-2.8 5.7-1.8 0-2.2-2-2.4-3.3l-.2-2.4Zm3.2-6.4-.3.4c.9 1 2.6 3 2.6 7.4 0 4.7-1.8 6.7-2.6 7.8l.3.4c.9-.9 3.8-3.3 3.8-8.2 0-4.7-2.9-7-3.8-7.8ZM77.3 63.5H79q1.6 0 1.7.3l.2 1.5h.4q0-1.5.3-2.5H74v.4h.9q.6 0 .6.5t-.2 1.3l-1.2 7.4c-.3 1.5-.3 1.5-1 1.6h-.6l-.1.5H77v-.4l-1.1-.1q-.7 0-.6-.5v-.4l.6-3.7h4.2l.4-.7-.1-.2-3.7.1H76l.8-4.6.2-.5Z"/><svg width="10.3" height="10" x="72.4" y="51.5" overflow="visible"><path d="M10.3 4.9 7 1.4l-.5.5 2 2.4h-.2v.9h.2l-2 2.3.5.5zm-8.6.3h8.1v-.9H1.7z" style="fill:#900;fill-opacity:1;stroke-width:1px;stroke:none;stroke-opacity:1"/></svg><path fill="#fff" stroke="#fff" stroke-width=".1" d="m95.5 107.5-.4.3-1 .5q-.3 0-.3-.3l.2-.7 1.2-5 .2-.7q0-.5-.5-.5-.7 0-2.2 1-1.3 1-2.5 2.6l.5-2.4.2-.7q0-.5-.5-.5-.8 0-2.2 1c-.8.6-1 1-2.2 2.5l.6-2.3v-.7q0-.5-.3-.5-.5 0-2.3 1.2l-.5.4.2.3 1.3-.8q.3 0 .3.5c0 .8-.7 4.1-1.4 6.5v.2l1.2-.2.4-1.8q.5-2.6 1.8-3.9 1.1-1.2 2-1.3l.1.4q0 1-1 5.5l-.3 1.1v.2l1.3-.2.3-1.8q.5-2.2 1.6-3.5 1.5-1.6 2.3-1.7.3 0 .3.5c0 .4 0 .6-.5 2-.6 2.8-1 3.1-1 4q0 .7.6.7c.4 0 1-.3 2.7-1.6Z"/><path fill="#900" stroke="#900" stroke-width=".1" d="m117.5 146.3-5.9-10H109l-.1.5h.6c.7 0 1.3.8 1.3 1l-1.5 8.5c-.2 1.1-.3 1.2-1 1.3h-.5v.5h3.7v-.4l-.6-.1q-1 0-.9-.7v-.6l1.4-7.8 5.8 9.8h.8l1.6-9.4c.4-2 .4-2 1-2l.7-.1v-.5h-3.6v.5h.7q.7 0 .6.4z"/><svg width="14.1" height="10" x="107.6" y="125.1" overflow="visible"><path d="m14 4.9-3-3.4-.6.5 2 2.4h-.2v.9h.2l-2 2.3.5.5zm-12.3.3h11.9v-.9h-12z" style="fill:#900;fill-opacity:1;stroke-width:1px;stroke:none;stroke-opacity:1"/></svg><path fill="#900" stroke="#900" stroke-width=".1" d="M60.8 139.1h1c-.9 1.2-2.6 2.7-2.6 5q0 2.3 1.5 2.4T64 143l-.3 1.6q0 1.7 1.3 1.8c2.3 0 4.9-4.3 4.9-6.8q-.1-1.5-1-1.6-.4 0-.6.2l-.9.8.2.3.5-.1q.7 0 .7 1c0 2.5-1.7 5.3-3.1 5.3q-.8-.1-.8-1.6c0-.8.1-2 .3-2.7l.9-3-.1-.2-1.3.4-.5 2.5q-.2 1.4-1 2.6-1 2-1.7 2-1-.1-1-1.6a8 8 0 0 1 2.3-5.6l-.1-.3-1 .2-1.7-.1h-1l-.6 2h.3l.3-.6q.2-.5.9-.5z"/><svg width="13.1" height="10" x="58" y="127.3" overflow="visible"><path d="M13.1 4.9 10 1.4l-.5.5 1.9 2.4h-.2v.9h.2l-2 2.3.6.5zm-11.4.3h11v-.9h-11z" style="fill:#900;fill-opacity:1;stroke-width:1px;stroke:none;stroke-opacity:1"/></svg><path fill="#2d2e28" stroke="#2d2e28" stroke-width=".1" d="M35 80.4c3.2 0 4.6-4.5 4.6-7 0-1.6-.4-2.7-2.1-2.7-3.5 0-4.7 4-4.8 6.8 0 1.6.5 3 2.3 3Zm2.3-9.4c1.8 0 1.4 2.5 1.1 4h-4.3c.3-1.4 1.4-4 3.2-4Zm-2 9c-2.1 0-1.5-3.3-1.3-4.5h4.3c-.3 1.5-1.1 4.5-3 4.5Z"/></svg></svg>