<svg xmlns="http://www.w3.org/2000/svg" width="209.6" height="104.563" style="width:209.60000610351562px;height:104.5625px;background:0 0;fill:none"><svg xmlns="http://www.w3.org/2000/svg"/><svg xmlns="http://www.w3.org/2000/svg" class="role-diagram-draw-area"><g class="shapes-region" style="stroke:#000;fill:none"><g class="composite-shape"><path d="M199 56.66c0 5.53-2.27 10.81-6.41 15.67v-.49l-27.87 13.5 7.68 1.36 20.19 3.56c4.14-4.86 6.41-10.14 6.41-15.67zM35.1 86.7l7.68-1.36-27.87-13.5v.49C10.77 67.47 8.5 62.19 8.5 56.66v17.93c0 5.53 2.27 10.81 6.41 15.67z" class="real" style="stroke-width:1;stroke:#000;fill:#f5eaea;fill-opacity:1"/></g><g class="composite-shape"><path stroke="none" d="M14.91 72.33C10.77 67.47 8.5 62.19 8.5 56.66c0-23.93 42.64-43.33 95.25-43.33S199 32.73 199 56.66c0 5.53-2.27 10.81-6.41 15.67l-88.84-15.67Z" class="real" style="stroke-width:1;stroke:none;fill:none;fill-opacity:1"/><path d="M14.91 72.33C10.77 67.47 8.5 62.19 8.5 56.66c0-23.93 42.64-43.33 95.25-43.33S199 32.73 199 56.66c0 5.53-2.27 10.81-6.41 15.67" class="real" style="stroke-width:1;stroke:#000;fill:none;fill-opacity:1"/></g><g class="composite-shape"><path d="m14.91 71.84 27.87 13.5-27.87 4.92Z" class="real" style="stroke-width:1;stroke:#000;fill:none;fill-opacity:1"/></g><g class="composite-shape"><path d="m192.59 71.84-27.87 13.5 27.87 4.92Z" class="real" style="stroke-width:1;stroke:#000;fill:none;fill-opacity:1"/></g><g class="composite-shape"><path d="M8.5 56.66c0-23.93 42.64-43.33 95.25-43.33S199 32.73 199 56.66c0 5.53-2.27 10.81-6.41 15.67v-.49l-27.87 13.5 7.68 1.36-8.11-1.43c2.82-3.31 4.37-6.91 4.37-10.68 0-16.31-29.06-29.53-64.91-29.53S38.84 58.28 38.84 74.59c0 3.77 1.55 7.37 4.37 10.68L35.1 86.7l7.68-1.36-27.87-13.5v.49C10.77 67.47 8.5 62.19 8.5 56.66Z" class="real" style="stroke-width:1;stroke:#000;fill:#f5eaea;fill-opacity:1"/></g><g class="arrow-line"><path d="m162.76 22.82-9.4 14.3" class="connection real" style="stroke:#000;stroke-width:1;fill:none;fill-opacity:1"/></g><g class="composite-shape"><path d="m142.66 30.98 9.16-14.37 11.13 6.43-9.15 14.37Z" class="real" style="stroke-width:1;stroke:#000;fill:#900;fill-opacity:1"/></g><g class="composite-shape"><path d="m131.36 27.61 11.2 3.11 11.52 6.92-11.2-3.1Z" class="real" style="stroke-width:1;stroke:#000;fill:#900;fill-opacity:1"/></g><g class="composite-shape"><path d="m131.55 27.84 9.07-14.23 11.2 3-9.07 14.23Z" class="real" style="stroke-width:1;stroke:#000;fill:#900;fill-opacity:1"/></g><g class="composite-shape"><path stroke="none" d="M158.3 30.5c14.44 6.31 23.67 15.09 24.42 24.87l-78.97 1.29Z" class="real" style="stroke-width:1;stroke:none;stroke-opacity:1;fill:none;fill-opacity:1"/><path d="M158.3 30.5c13 5.68 21.77 13.36 23.94 21.97" class="real" style="stroke-width:1;stroke:#900;stroke-opacity:1;fill:none;fill-opacity:1"/><path fill="#900" stroke="none" d="M7.14-3.43 0 0l7.14 3.43L4.74 0Z" style="stroke:none;fill:#900;stroke-width:1" transform="rotate(252.55 111.676 -39.366)"/></g><g class="composite-shape"><path stroke="none" d="M174.03 80.71c.7 1.39 1.09 2.97 1.09 4.63 0 .62-.06 1.22-.16 1.81l-10.24-1.81Z" class="real" style="stroke-width:1;stroke:none;stroke-opacity:1;fill:none;fill-opacity:1"/><path d="M174.03 80.71c.7 1.39 1.09 2.97 1.09 4.63 0 .62-.06 1.22-.16 1.81" class="real" style="stroke-width:1;stroke:#900;stroke-opacity:1;fill:none;fill-opacity:1"/></g><g class="arrow-line"><path d="m73.69 23.54 30.06 33.12" class="connection real" style="stroke:#900;stroke-opacity:1;stroke-width:1;fill:none;fill-opacity:1"/><circle r="1.34" fill="#900" stroke="#900" style="stroke:#900;fill:#900;stroke-width:1" transform="rotate(47.77 -12.103 145.477)"/></g><g class="composite-shape"><path stroke="none" d="M30 69.67c-3.4-4.04-5.27-8.42-5.27-13.01 0-19.97 35.38-36.16 79.02-36.16 9.99 0 19.54.85 28.33 2.4l-28.33 33.76Z" class="real" style="stroke-width:1;stroke:none;stroke-opacity:1;fill:none;fill-opacity:1;stroke-dasharray:3"/><path d="M30 69.67c-3.4-4.04-5.27-8.42-5.27-13.01 0-19.97 35.38-36.16 79.02-36.16 9.99 0 19.54.85 28.33 2.4" class="real" style="stroke-width:1;stroke:#900;stroke-opacity:1;fill:none;fill-opacity:1;stroke-dasharray:3"/></g></g></svg><svg xmlns="http://www.w3.org/2000/svg" xmlns:xlink="http://www.w3.org/1999/xlink" width="208" height="102.963" style="width:208px;height:102.9625015258789px;font-family:Asana-Math,Asana;background:0 0"><path fill="#900" stroke="#900" stroke-width=".068" d="M181.712 81.329c-.153-.97-.544-1.683-1.623-1.683-2.21 0-2.517 2.465-2.227 4.275.161 1.012.595 1.828 1.75 1.828 2.007 0 2.347-2.822 2.1-4.42Zm-.587 1.045h-2.685c.059-.884.433-2.507 1.53-2.507.73 0 1.011.773 1.105 1.351.059.383.05.774.05 1.156Zm0 .272c-.042.952-.203 2.856-1.419 2.856-.867 0-1.105-.952-1.207-1.615-.068-.416-.06-.833-.06-1.241Z"/><path fill="#900" stroke="#900" stroke-width=".095" d="M188.35 50.352c.25 0 .44-.012.75-.048-1.32 1.428-1.82 2.416-1.82 3.606 0 .916.547 1.57 1.308 1.57 1.643 0 3.463-2.938 3.463-4.7 0-.678-.31-1.166-.737-1.166a.55.55 0 0 0-.393.143l-.595.56.13.225a.6.6 0 0 1 .322-.107c.321 0 .512.274.512.75 0 1.761-1.155 3.7-2.202 3.7-.583 0-.952-.499-.952-1.272 0-1.25.464-2.333 1.63-3.785l-.118-.214c-.238.107-.393.143-.726.143-.334 0-.833-.024-1.178-.06l-.143-.011c-.072-.012-.131-.012-.143-.012a.85.85 0 0 0-.38.083c-.167.321-.298.75-.453 1.404h.262l.202-.5c.083-.202.321-.333.607-.333.393 0 .202.024.654.024ZM96.054 35.419c.036-.452.095-.833.19-1.32-.13-.06-.178-.072-.237-.072-.37 0-.738.285-1.167.892-.464.667-.928 1.38-1.118 1.797l.38-1.809c.048-.202.072-.357.072-.5 0-.237-.095-.38-.274-.38-.25 0-.702.25-1.582.88l-.334.238.084.238.38-.25c.334-.214.465-.273.572-.273.119 0 .202.107.202.262 0 .69-.512 3.141-.988 4.664l.12.084c.178-.06.368-.096.642-.155l.155-.024.309-1.428c.214-.988.488-1.618 1.011-2.297.405-.523.726-.773.988-.773.179 0 .298.06.429.226Z"/></svg></svg>