<svg xmlns="http://www.w3.org/2000/svg" xmlns:xlink="http://www.w3.org/1999/xlink" x="0" y="0" width="161.60000610351562" height="180.7624969482422" style="
        width:161.60000610351562px;
        height:180.7624969482422px;
        background: transparent;
        fill: none;
">
        <svg xmlns="http://www.w3.org/2000/svg"/>
        
        <svg xmlns="http://www.w3.org/2000/svg" class="role-diagram-draw-area"><g class="shapes-region" style="stroke: black; fill: none;"><g class="composite-shape"><path class="real" d=" M108.02,14.45 L108.02,162.21 C108.02,164.28 105.82,165.95 103.11,165.95 C100.39,165.95 98.19,164.28 98.19,162.21 L98.19,14.45 C98.19,12.38 100.39,10.7 103.11,10.7 C105.82,10.7 108.02,12.38 108.02,14.45 C108.02,16.51 105.82,18.19 103.11,18.19 C100.39,18.19 98.19,16.51 98.19,14.45" style="stroke-width: 1; stroke: rgb(0, 0, 0); fill: rgb(238, 238, 238); fill-opacity: 1;"/></g><g class="arrow-line"><path class="connection real" stroke-dasharray="" d="  M36.47,118.35 L98.19,14.45" style="stroke: rgb(0, 0, 0); stroke-width: 1; fill: none; fill-opacity: 1;"/></g><g class="composite-shape"><path class="real" d=" M123.69,104.59 C130.77,107.42 135.27,111.7 135.27,116.47 C135.27,125.02 120.87,131.94 103.11,131.94 C92.63,131.94 83.33,129.54 77.46,125.81 L103.11,116.47 Z" style="stroke-width: 1; stroke: none; stroke-opacity: 1; fill: none; fill-opacity: 1;"/><path class="real" d=" M123.69,104.59 C130.77,107.42 135.27,111.7 135.27,116.47 C135.27,125.02 120.87,131.94 103.11,131.94 C94.05,131.94 85.86,130.14 80.02,127.24" style="stroke-width: 1; stroke: rgb(153, 0, 0); stroke-opacity: 1; fill: none; fill-opacity: 1;"/><g stroke="none" fill="rgb(153,0,0)" fill-opacity="1" transform="matrix(0.8841736393202329,0.4671584051809565,-0.4671584051809565,0.8841736393202329,77.45841576643305,125.80798390137699)" style="stroke: none; fill: rgb(153, 0, 0); stroke-width: 1;"><path d=" M7.14,-3.43 L0,0 L7.14,3.43 L4.74,0 Z"/></g></g><g class="composite-shape"><path class="real" d=" M27.19,118.35 C27.19,113.22 31.35,109.07 36.47,109.07 C41.6,109.07 45.75,113.22 45.75,118.35 C45.75,123.47 41.6,127.62 36.47,127.62 C31.35,127.62 27.19,123.47 27.19,118.35 Z" style="stroke-width: 1; stroke: rgb(0, 0, 0); fill: rgb(153, 0, 0); fill-opacity: 1;"/></g><g class="composite-shape"><path class="real" d=" M98.19,34.78 C98.19,34.78 98.19,34.78 98.19,34.78 C94.49,34.78 91.02,33.79 88.03,32.06 L98.19,14.45 Z" style="stroke-width: 1; stroke: none; stroke-opacity: 1; fill: none; fill-opacity: 1;"/><path class="real" d=" M98.19,34.78 C98.19,34.78 98.19,34.78 98.19,34.78 C94.49,34.78 91.02,33.79 88.03,32.06" style="stroke-width: 1; stroke: rgb(153, 0, 0); stroke-opacity: 1; fill: none; fill-opacity: 1;"/></g><g/></g><g/><g/><g/></svg>
        <svg xmlns="http://www.w3.org/2000/svg" xmlns:xlink="http://www.w3.org/1999/xlink" width="160" height="179.16250610351562" style="width:160px;height:179.16250610351562px;font-family:Asana-Math, Asana;background:transparent;"><g><g><g><g transform="matrix(1,0,0,1,54.28753662109375,66.82498168945312)"><path transform="matrix(0.017,0,0,-0.017,0,0)" d="M251 722L239 733C187 707 151 698 79 691L75 670L123 670C147 670 157 663 157 648C157 645 157 640 154 622C143 567 70 182 55 132C42 82 36 52 36 31C36 6 47 -9 66 -9C92 -9 128 12 226 85L216 103L190 86C161 67 139 56 129 56C122 56 116 66 116 76C116 82 117 89 120 104Z" stroke="rgb(0,0,0)" stroke-opacity="1" stroke-width="8" fill="rgb(0,0,0)" fill-opacity="1"></path></g></g></g></g><g><g><g><g transform="matrix(1,0,0,1,61.47503662109375,127.8125)"><path transform="matrix(0.017,0,0,-0.017,0,0)" d="M656 325C650 363 619 458 566 458C551 458 525 441 512 434L513 423C564 392 587 338 596 284C611 189 579 17 462 17C403 17 389 73 382 119C372 185 375 252 387 315L376 324C356 317 335 309 314 304C324 217 331 16 211 16C148 16 125 81 117 129C93 278 140 388 269 443L275 452L264 463C116 428 15 301 41 137C55 50 97 -12 194 -12C249 -12 286 11 321 47L326 47C355 3 386 -12 436 -12C596 -12 679 181 656 325Z" stroke="rgb(153,0,0)" stroke-opacity="1" stroke-width="8" fill="rgb(153,0,0)" fill-opacity="1"></path></g></g></g></g><g><g><g><g transform="matrix(1,0,0,1,82.92498779296875,59.012481689453125)"><path transform="matrix(0.017,0,0,-0.017,0,0)" d="M547 504C529 618 483 702 356 702C96 702 60 412 94 199C113 80 164 -16 300 -16C536 -16 576 316 547 504ZM478 381L162 381C169 485 213 676 342 676C428 676 461 585 472 517C479 472 478 426 478 381ZM478 349C473 237 454 13 311 13C209 13 181 125 169 203C161 252 162 301 162 349Z" stroke="rgb(153,0,0)" stroke-opacity="1" stroke-width="8" fill="rgb(153,0,0)" fill-opacity="1"></path></g></g></g></g></svg>
</svg>
