<svg xmlns="http://www.w3.org/2000/svg" width="214.6" height="156.45" style="width:214.60000610351562px;height:156.4499969482422px;background:0 0;fill:none"><svg xmlns="http://www.w3.org/2000/svg"/><svg xmlns="http://www.w3.org/2000/svg" class="role-diagram-draw-area"><g class="shapes-region" style="stroke:#000;fill:none"><g class="composite-shape"><path d="m107.3 7 101.5 41.72-101.5 41.73L5.8 48.72Z" class="real" style="stroke-width:1;stroke:#000;fill:#f5eaea;fill-opacity:1"/></g><g class="composite-shape"><path stroke="none" d="M53.9 48.72c0-5.82 4.03-11.19 10.81-15.5l42.59 15.5Z" class="real" style="stroke-width:1;stroke:none;stroke-opacity:1;fill:none;fill-opacity:1"/><path d="M53.9 48.72c0-5.09 3.08-9.84 8.4-13.83" class="real" style="stroke-width:1;stroke:#900;stroke-opacity:1;fill:none;fill-opacity:1"/><path fill="#900" stroke="none" d="M7.14-3.43 0 0l7.14 3.43L4.74 0Z" style="stroke:none;fill:#900;stroke-width:1" transform="rotate(141.13 26.495 28.03)"/></g><g class="composite-shape"><path d="M113.2 132.83v11.94c0 1.77-2.64 3.21-5.9 3.21s-5.9-1.44-5.9-3.21v-11.94m11.8 0c0 1.77-2.64 3.21-5.9 3.21s-5.9-1.44-5.9-3.21c0-1.78 2.64-3.22 5.9-3.22s5.9 1.44 5.9 3.22Z" class="real" style="stroke-width:1;stroke:#000;stroke-opacity:1;fill:#900;fill-opacity:1"/></g><g class="composite-shape"><path d="M53.9 48.72c0-14.18 23.91-25.68 53.4-25.68s53.4 11.5 53.4 25.68c0 14.19-23.91 25.69-53.4 25.69s-53.4-11.5-53.4-25.69Z" class="real" style="stroke-width:1;stroke:#900;stroke-opacity:.5;fill:none;fill-opacity:1"/></g><g class="composite-shape"><path d="M59.8 47.04v6.26c0 .93-2.64 1.68-5.9 1.68S48 54.23 48 53.3v-6.26m11.8 0c0 .93-2.64 1.68-5.9 1.68s-5.9-.75-5.9-1.68 2.64-1.68 5.9-1.68 5.9.75 5.9 1.68Z" class="real" style="stroke-width:1;stroke:#000;stroke-opacity:1;fill:#900;fill-opacity:1"/></g><g class="arrow-line"><path d="m59.8 53.3 47.5-4.58" class="connection real" style="stroke:#000;stroke-width:1;fill:none;fill-opacity:1"/></g><g class="arrow-line"><path d="M107.3 132.45v-27.8" class="connection real" style="stroke:#000;stroke-width:1;fill:none;fill-opacity:1"/></g><g class="arrow-line"><path stroke-dasharray="3" d="M107.3 104.98V48.72" class="connection real" style="stroke:#000;stroke-width:1;fill:none;fill-opacity:1"/></g></g></svg><svg xmlns="http://www.w3.org/2000/svg" xmlns:xlink="http://www.w3.org/1999/xlink" width="213" height="154.85" style="width:213px;height:154.85000610351562px;font-family:Asana-Math,Asana;background:0 0"><path fill="#900" stroke="#900" stroke-width=".095" d="M67.438 36.652c.25 0 .44-.012.75-.048-1.321 1.428-1.821 2.416-1.821 3.606 0 .916.547 1.57 1.309 1.57 1.642 0 3.463-2.938 3.463-4.7 0-.678-.31-1.166-.738-1.166a.55.55 0 0 0-.393.143l-.595.56.131.225a.6.6 0 0 1 .322-.107c.32 0 .511.274.511.75 0 1.761-1.154 3.7-2.201 3.7-.583 0-.952-.499-.952-1.272 0-1.25.464-2.333 1.63-3.785l-.119-.214c-.238.107-.393.143-.726.143s-.833-.024-1.178-.06l-.143-.011c-.071-.012-.13-.012-.143-.012a.85.85 0 0 0-.38.083c-.167.321-.298.75-.453 1.404h.262l.203-.5c.083-.202.32-.333.606-.333.393 0 .203.024.655.024Z"/></svg></svg>