<svg xmlns="http://www.w3.org/2000/svg" width="217.6" height="214.2" style="width:217.60000610351562px;height:214.16250610351562px;background:0 0;fill:none"><svg xmlns="http://www.w3.org/2000/svg"/><svg xmlns="http://www.w3.org/2000/svg" class="role-diagram-draw-area"><g class="shapes-region" style="stroke:#000;fill:none"><g class="arrow-line"><path stroke-dasharray="3" d="M19.5 158.3h89.8" class="connection real" style="stroke:#000;stroke-width:1;fill:none;fill-opacity:1"/></g><g class="composite-shape"><path d="M19.5 158.3c0-23.9 40.2-43.2 89.8-43.2s89.7 19.3 89.7 43.2c0 23.8-40.2 43.1-89.7 43.1-49.6 0-89.8-19.3-89.8-43.1Z" class="real" style="stroke-width:1;stroke:#900;stroke-opacity:.5;fill:none;fill-opacity:1"/></g><g class="composite-shape"><path stroke="none" d="M37.7 184.3c-11.4-7.2-18.2-16.2-18.2-26h89.8Z" class="real" style="stroke-width:1;stroke:none;stroke-opacity:1;fill:none;fill-opacity:1"/><path d="M35 182.5c-9.7-6.9-15.5-15.2-15.5-24.2" class="real" style="stroke-width:1;stroke:#900;stroke-opacity:1;fill:none;fill-opacity:1"/><path fill="#900" stroke="none" d="M7.1-3.4 0 0l7.1 3.4L4.7 0Z" style="stroke:none;fill:#900;stroke-width:1" transform="rotate(215.2 48.1 86.2)"/></g><g class="arrow-line"><path d="m19.5 158.3 89.8-148" class="connection real" style="stroke:#000;stroke-width:1;fill:none;fill-opacity:1"/></g><g class="arrow-line"><path stroke-dasharray="3" d="M109.3 158.3v-148" class="connection real" style="stroke:#000;stroke-width:1;fill:none;fill-opacity:1"/></g><g class="composite-shape"><path d="M11.4 158.3a8.1 8.1 0 1 1 16.2 0 8.1 8.1 0 0 1-16.2 0Z" class="real" style="stroke-width:1;stroke:#000;fill:#900;fill-opacity:1"/></g><g class="composite-shape"><path d="m109.3 6.5 13.4 3.9-13.4 3.9-13.4-4Z" class="real" style="stroke-width:1;stroke:#000;fill:#f5eaea;fill-opacity:1"/></g><g class="composite-shape"><path stroke="none" d="M32.2 136.4a25 25 0 0 1 12.6 21.9H19.5Z" class="real" style="stroke-width:1;stroke:none;stroke-opacity:1;fill:none;fill-opacity:1"/><path d="M32.2 136.4a25 25 0 0 1 12.6 21.9" class="real" style="stroke-width:1;stroke:#900;stroke-opacity:1;fill:none;fill-opacity:1"/></g></g></svg><svg xmlns="http://www.w3.org/2000/svg" xmlns:xlink="http://www.w3.org/1999/xlink" width="216" height="212.6" style="width:216px;height:212.5625px;font-family:Asana-Math,Asana;background:0 0"><path fill="#000" stroke="#000" stroke-width=".1" d="m69.2 164.4.2-1.4h-.2q-.6 0-1.2.9-.8 1-1.1 1.8l.4-1.9v-.5q0-.3-.2-.3t-1.6.8l-.3.3v.2l.4-.2.6-.3q.2 0 .2.3c0 .6-.5 3.1-1 4.6l.1.1.7-.1h.1l.3-1.5q.3-1.4 1-2.3t1-.8.5.3ZM57.8 73.6l-.1-.2c-.6.3-1 .5-2 .5v.3h.6q.4 0 .4.3v.3l-1.2 5.8-.2 1.2q0 .5.3.5t2-1.1l-.2-.3-.3.2-.7.4-.2-.2v-.4Z"/><path fill="#900" stroke="#900" stroke-width=".1" d="M52 134.8q-.2-2.2-2.3-2.4c-3 0-3.5 3.4-3 6 .1 1.4.8 2.5 2.4 2.5 2.8 0 3.3-4 3-6.1Zm-.8 1.4h-3.8c.1-1.2.6-3.5 2.2-3.5 1 0 1.4 1 1.5 1.9zm0 .4c0 1.3-.3 4-2 4-1.2 0-1.5-1.3-1.7-2.3v-1.7Z"/></svg></svg>