<svg xmlns="http://www.w3.org/2000/svg" width="161.6" height="180.762" style="width:161.60000610351562px;height:180.7624969482422px;background:0 0;fill:none"><svg xmlns="http://www.w3.org/2000/svg"/><svg xmlns="http://www.w3.org/2000/svg" class="role-diagram-draw-area"><g class="shapes-region" style="stroke:#000;fill:none"><g class="composite-shape"><path d="M108.02 14.45v147.76c0 2.07-2.2 3.74-4.91 3.74-2.72 0-4.92-1.67-4.92-3.74V14.45c0-2.07 2.2-3.75 4.92-3.75 2.71 0 4.91 1.68 4.91 3.75 0 2.06-2.2 3.74-4.91 3.74-2.72 0-4.92-1.68-4.92-3.74" class="real" style="stroke-width:1;stroke:#000;fill:#eee;fill-opacity:1"/></g><g class="arrow-line"><path d="m36.47 118.35 61.72-103.9" class="connection real" style="stroke:#000;stroke-width:1;fill:none;fill-opacity:1"/></g><g class="composite-shape"><path stroke="none" d="M123.69 104.59c7.08 2.83 11.58 7.11 11.58 11.88 0 8.55-14.4 15.47-32.16 15.47-10.48 0-19.78-2.4-25.65-6.13l25.65-9.34Z" class="real" style="stroke-width:1;stroke:none;stroke-opacity:1;fill:none;fill-opacity:1"/><path d="M123.69 104.59c7.08 2.83 11.58 7.11 11.58 11.88 0 8.55-14.4 15.47-32.16 15.47-9.06 0-17.25-1.8-23.09-4.7" class="real" style="stroke-width:1;stroke:#900;stroke-opacity:1;fill:none;fill-opacity:1"/><path fill="#900" stroke="none" d="M7.14-3.43 0 0l7.14 3.43L4.74 0Z" style="stroke:none;fill:#900;stroke-width:1" transform="rotate(27.85 -214.98 219.11)"/></g><g class="composite-shape"><path d="M27.19 118.35c0-5.13 4.16-9.28 9.28-9.28 5.13 0 9.28 4.15 9.28 9.28 0 5.12-4.15 9.27-9.28 9.27-5.12 0-9.28-4.15-9.28-9.27Z" class="real" style="stroke-width:1;stroke:#000;fill:#900;fill-opacity:1"/></g><g class="composite-shape"><path stroke="none" d="M98.19 34.78c-3.7 0-7.17-.99-10.16-2.72l10.16-17.61Z" class="real" style="stroke-width:1;stroke:none;stroke-opacity:1;fill:none;fill-opacity:1"/><path d="M98.19 34.78c-3.7 0-7.17-.99-10.16-2.72" class="real" style="stroke-width:1;stroke:#900;stroke-opacity:1;fill:none;fill-opacity:1"/></g></g></svg><svg xmlns="http://www.w3.org/2000/svg" xmlns:xlink="http://www.w3.org/1999/xlink" width="160" height="179.163" style="width:160px;height:179.16250610351562px;font-family:Asana-Math,Asana;background:0 0"><path fill="#000" stroke="#000" stroke-width=".136" d="m58.555 54.551-.204-.187c-.884.442-1.496.595-2.72.714l-.068.357h.816c.408 0 .578.119.578.374 0 .051 0 .136-.051.442-.187.935-1.428 7.48-1.683 8.33-.221.85-.323 1.36-.323 1.717 0 .425.187.68.51.68.442 0 1.054-.357 2.72-1.598l-.17-.306-.442.289c-.493.323-.867.51-1.037.51-.12 0-.221-.17-.221-.34 0-.102.017-.221.068-.476Z"/><path fill="#900" stroke="#900" stroke-width=".136" d="M72.627 122.288c-.102-.647-.629-2.261-1.53-2.261-.255 0-.697.288-.918.407l.017.188c.867.526 1.258 1.445 1.411 2.362.255 1.616-.289 4.54-2.278 4.54-1.003 0-1.241-.953-1.36-1.734a10 10 0 0 1 .085-3.333l-.187-.152c-.34.118-.697.254-1.054.34.17 1.479.289 4.895-1.751 4.895-1.071 0-1.462-1.105-1.598-1.92-.408-2.534.391-4.404 2.584-5.339l.102-.153-.187-.186c-2.516.595-4.233 2.754-3.791 5.542.238 1.479.952 2.533 2.601 2.533.935 0 1.564-.391 2.159-1.004h.085c.493.748 1.02 1.004 1.87 1.004 2.72 0 4.131-3.281 3.74-5.73Zm19.597-71.844c-.306-1.938-1.088-3.366-3.247-3.366-4.42 0-5.032 4.93-4.454 8.551.323 2.023 1.19 3.655 3.502 3.655 4.012 0 4.692-5.644 4.199-8.84Zm-1.173 2.091h-5.372c.119-1.768.867-5.015 3.06-5.015 1.462 0 2.023 1.547 2.21 2.703.119.765.102 1.547.102 2.312Zm0 .544c-.085 1.904-.408 5.712-2.839 5.712-1.734 0-2.21-1.904-2.414-3.23-.136-.833-.119-1.666-.119-2.482Z"/></svg></svg>