<svg xmlns="http://www.w3.org/2000/svg" xmlns:xlink="http://www.w3.org/1999/xlink" x="0" y="0" width="217.60000610351562" height="214.16250610351562" style="
        width:217.60000610351562px;
        height:214.16250610351562px;
        background: transparent;
        fill: none;
">
        <svg xmlns="http://www.w3.org/2000/svg"/>
        
        <svg xmlns="http://www.w3.org/2000/svg" class="role-diagram-draw-area"><g class="shapes-region" style="stroke: black; fill: none;"><g class="arrow-line"><path class="connection real" stroke-dasharray="3" d="  M19.53,158.27 L109.26,158.27" style="stroke: rgb(0, 0, 0); stroke-width: 1; fill: none; fill-opacity: 1;"/></g><g class="composite-shape"><path class="real" d=" M19.53,158.27 C19.53,134.43 59.71,115.1 109.26,115.1 C158.82,115.1 199,134.43 199,158.27 C199,182.11 158.82,201.43 109.26,201.43 C59.71,201.43 19.53,182.11 19.53,158.27 Z" style="stroke-width: 1; stroke: rgb(153, 0, 0); stroke-opacity: 0.5; fill: none; fill-opacity: 1;"/></g><g class="composite-shape"><path class="real" d=" M37.7,184.32 C26.3,177.08 19.53,168.05 19.53,158.27 L109.26,158.27 Z" style="stroke-width: 1; stroke: none; stroke-opacity: 1; fill: none; fill-opacity: 1;"/><path class="real" d=" M35.05,182.54 C25.26,175.63 19.53,167.27 19.53,158.27" style="stroke-width: 1; stroke: rgb(153, 0, 0); stroke-opacity: 1; fill: none; fill-opacity: 1;"/><g stroke="none" fill="rgb(153,0,0)" fill-opacity="1" transform="matrix(-0.8169436357192598,-0.5767175184245728,0.5767175184245728,-0.8169436357192598,37.70141195638095,184.3154347806005)" style="stroke: none; fill: rgb(153, 0, 0); stroke-width: 1;"><path d=" M7.14,-3.43 L0,0 L7.14,3.43 L4.74,0 Z"/></g></g><g class="arrow-line"><path class="connection real" stroke-dasharray="" d="  M19.53,158.27 L109.26,10.38" style="stroke: rgb(0, 0, 0); stroke-width: 1; fill: none; fill-opacity: 1;"/></g><g class="arrow-line"><path class="connection real" stroke-dasharray="3" d="  M109.26,158.27 L109.26,10.38" style="stroke: rgb(0, 0, 0); stroke-width: 1; fill: none; fill-opacity: 1;"/></g><g class="composite-shape"><path class="real" d=" M11.44,158.27 C11.44,153.8 15.06,150.17 19.53,150.17 C24,150.17 27.62,153.8 27.62,158.27 C27.62,162.74 24,166.36 19.53,166.36 C15.06,166.36 11.44,162.74 11.44,158.27 Z" style="stroke-width: 1; stroke: rgb(0, 0, 0); fill: rgb(153, 0, 0); fill-opacity: 1;"/></g><g class="composite-shape"><path class="real" d=" M109.26,6.47 L122.65,10.38 L109.26,14.29 L95.88,10.38 Z" style="stroke-width: 1; stroke: rgb(0, 0, 0); fill: rgb(245, 234, 234); fill-opacity: 1;"/></g><g class="composite-shape"><path class="real" d=" M32.15,136.42 C39.69,140.78 44.76,148.93 44.76,158.27 L19.53,158.27 Z" style="stroke-width: 1; stroke: none; stroke-opacity: 1; fill: none; fill-opacity: 1;"/><path class="real" d=" M32.15,136.42 C39.69,140.78 44.76,148.93 44.76,158.27" style="stroke-width: 1; stroke: rgb(153, 0, 0); stroke-opacity: 1; fill: none; fill-opacity: 1;"/></g><g/></g><g/><g/><g/></svg>
        <svg xmlns="http://www.w3.org/2000/svg" xmlns:xlink="http://www.w3.org/1999/xlink" width="216" height="212.5625" style="width:216px;height:212.5625px;font-family:Asana-Math, Asana;background:transparent;"><g><g><g><g transform="matrix(1,0,0,1,64.85003662109375,168.70001831054688)"><path transform="matrix(0.0119,0,0,-0.0119,0,0)" d="M368 365C371 403 376 435 384 476C373 481 369 482 364 482C333 482 302 458 266 407C227 351 188 291 172 256L204 408C208 425 210 438 210 450C210 470 202 482 187 482C166 482 128 461 54 408L26 388L33 368L65 389C93 407 104 412 113 412C123 412 130 403 130 390C130 332 87 126 47 -2L57 -9C72 -4 88 -1 111 4L124 6L150 126C168 209 191 262 235 319C269 363 296 384 318 384C333 384 343 379 354 365Z" stroke="rgb(0,0,0)" stroke-opacity="1" stroke-width="8" fill="rgb(0,0,0)" fill-opacity="1"></path></g></g></g></g><g><g><g><g transform="matrix(1,0,0,1,54.82501220703125,82.16251220703126)"><path transform="matrix(0.0119,0,0,-0.0119,0,0)" d="M251 722L239 733C187 707 151 698 79 691L75 670L123 670C147 670 157 663 157 648C157 645 157 640 154 622C143 567 70 182 55 132C42 82 36 52 36 31C36 6 47 -9 66 -9C92 -9 128 12 226 85L216 103L190 86C161 67 139 56 129 56C122 56 116 66 116 76C116 82 117 89 120 104Z" stroke="rgb(0,0,0)" stroke-opacity="1" stroke-width="8" fill="rgb(0,0,0)" fill-opacity="1"></path></g></g></g></g><g><g><g><g transform="matrix(1,0,0,1,45.5,140.75000610351563)"><path transform="matrix(0.0119,0,0,-0.0119,0,0)" d="M547 504C529 618 483 702 356 702C96 702 60 412 94 199C113 80 164 -16 300 -16C536 -16 576 316 547 504ZM478 381L162 381C169 485 213 676 342 676C428 676 461 585 472 517C479 472 478 426 478 381ZM478 349C473 237 454 13 311 13C209 13 181 125 169 203C161 252 162 301 162 349Z" stroke="rgb(153,0,0)" stroke-opacity="1" stroke-width="8" fill="rgb(153,0,0)" fill-opacity="1"></path></g></g></g></g></svg>
</svg>
