<svg xmlns="http://www.w3.org/2000/svg" width="201.6" height="190.875" style="width:201.60000610351562px;height:190.875px;background:0 0;fill:none"><svg xmlns="http://www.w3.org/2000/svg"/><svg xmlns="http://www.w3.org/2000/svg" class="role-diagram-draw-area"><g class="shapes-region" style="stroke:#000;fill:none"><g class="arrow-line"><path d="m149.69 68.32 17.48 28.3" class="connection real" style="stroke:#900;stroke-opacity:.5;stroke-width:1;fill:none;fill-opacity:1"/><path stroke="#900" stroke-opacity=".5" d="M-5.59 0H5.59M0 5.59V-5.59" style="stroke:#900;stroke-width:1" transform="rotate(103.3 46.7 102.957)"/><path fill="#900" fill-opacity=".5" stroke="none" d="M10.72-5.15 0 0l10.72 5.15L7.12 0Z" style="stroke:none;fill:#900;stroke-width:1" transform="rotate(58.3 15.093 165.664)"/></g><g class="arrow-line"><path d="M167.17 96.62h-16.22" class="connection real" style="stroke:#900;stroke-opacity:1;stroke-width:1;fill:none;fill-opacity:1"/><path fill="#900" stroke="none" d="M10.72-5.15 0 0l10.72 5.15L7.12 0Z" style="stroke:none;fill:#900;stroke-width:1" transform="translate(147.948 96.62)"/></g><g class="arrow-line"><path d="M167.17 68.09v28.53" class="connection real" style="stroke:#900;stroke-opacity:1;stroke-width:1;fill:none;fill-opacity:1"/><path fill="#900" stroke="none" d="M10.72-5.15 0 0l10.72 5.15L7.12 0Z" style="stroke:none;fill:#900;stroke-width:1" transform="rotate(90 51.04 116.127)"/></g><g class="arrow-line"><path d="M167.17 96.62v27.87" class="connection real" style="stroke:#900;stroke-opacity:1;stroke-width:1;fill:none;fill-opacity:1"/><path fill="#900" stroke="none" d="M10.72-5.15 0 0l10.72 5.15L7.12 0Z" style="stroke:none;fill:#900;stroke-width:1" transform="rotate(-90 147.327 -19.84)"/></g><g class="composite-shape"><path d="M110.94 54.33c0 5.52-2.28 10.81-6.42 15.66v-.48l-27.86 13.5 7.68 1.36 20.18 3.55c4.14-4.85 6.42-10.14 6.42-15.66z" class="real" style="stroke-width:1;stroke:#000;fill:#f5eaea;fill-opacity:1"/></g><g class="composite-shape"><path d="m104.52 69.51-27.86 13.5 27.86 4.91Z" class="real" style="stroke-width:1;stroke:#000;fill:none;fill-opacity:1"/></g><g class="composite-shape"><path d="M15.69 11c52.6 0 95.25 19.4 95.25 43.33 0 5.52-2.28 10.81-6.42 15.66v-.48l-27.86 13.5 7.68 1.36-8.11-1.44c2.82-3.31 4.37-6.91 4.37-10.67 0-16.31-29.06-29.53-64.91-29.53h-.42V11z" class="real" style="stroke-width:1;stroke:#000;fill:#f5eaea;fill-opacity:1"/></g><g class="arrow-line"><path d="m74.69 20.49-9.39 14.3" class="connection real" style="stroke:#000;stroke-width:1;fill:none;fill-opacity:1"/></g><g class="composite-shape"><path d="m54.6 28.65 9.15-14.37 11.14 6.43-9.16 14.37Z" class="real" style="stroke-width:1;stroke:#000;fill:#900;fill-opacity:1"/></g><g class="composite-shape"><path d="m43.29 25.28 11.2 3.1 11.53 6.93-11.21-3.11Z" class="real" style="stroke-width:1;stroke:#000;fill:#900;fill-opacity:1"/></g><g class="composite-shape"><path d="m43.49 25.5 9.06-14.23 11.2 3.01-9.06 14.22Z" class="real" style="stroke-width:1;stroke:#000;fill:#900;fill-opacity:1"/></g><g class="composite-shape"><path stroke="none" d="M70.24 28.17c14.44 6.31 23.66 15.09 24.41 24.86l-78.96 1.3Z" class="real" style="stroke-width:1;stroke:none;stroke-opacity:1;fill:none;fill-opacity:1"/><path d="M70.24 28.17c12.99 5.67 21.77 13.36 23.94 21.96" class="real" style="stroke-width:1;stroke:#900;stroke-opacity:1;fill:none;fill-opacity:1"/><path fill="#900" stroke="none" d="M7.14-3.43 0 0l7.14 3.43L4.74 0Z" style="stroke:none;fill:#900;stroke-width:1" transform="rotate(252.55 66.788 -8.217)"/></g><g class="composite-shape"><path stroke="none" d="M85.96 78.37c.7 1.4 1.09 2.97 1.09 4.64 0 .62-.05 1.22-.15 1.81l-10.24-1.81Z" class="real" style="stroke-width:1;stroke:none;stroke-opacity:1;fill:none;fill-opacity:1"/><path d="M85.96 78.37c.7 1.4 1.09 2.97 1.09 4.64 0 .62-.05 1.22-.15 1.81" class="real" style="stroke-width:1;stroke:#900;stroke-opacity:1;fill:none;fill-opacity:1"/></g><g class="composite-shape"><path stroke="none" d="M22.04 18.28c7.69.28 15.07 1.07 21.98 2.28L15.69 54.33Z" class="real" style="stroke-width:1;stroke:none;stroke-opacity:1;fill:none;fill-opacity:1;stroke-dasharray:3"/><path d="M22.04 18.28c7.69.28 15.07 1.07 21.98 2.28" class="real" style="stroke-width:1;stroke:#900;stroke-opacity:1;fill:none;fill-opacity:1;stroke-dasharray:3"/></g><g class="composite-shape"><path d="m119.24 115.33-98.79 63.33h98.79Z" class="real" style="stroke-width:1;stroke:#000;fill:#f5eaea;fill-opacity:1"/></g><g class="composite-shape"><path d="m81.12 122.08 11.87-7.71 7.71 11.87-11.87 7.71Z" class="real" style="stroke-width:1;stroke:#900;stroke-opacity:1;fill:#900;fill-opacity:.5"/></g><g class="arrow-line"><path d="M90.91 124.16v40.09" class="connection real" style="stroke:#900;stroke-opacity:1;stroke-width:1;fill:none;fill-opacity:1"/><path fill="#900" stroke="none" d="M10.72-5.15 0 0l10.72 5.15L7.12 0Z" style="stroke:none;fill:#900;stroke-width:1" transform="rotate(-90 129.077 38.17)"/></g><g class="composite-shape"><path stroke="none" d="M29.45 173.46c.88 1.53 1.39 3.31 1.39 5.2H20.45Z" class="real" style="stroke-width:1;stroke:none;stroke-opacity:1;fill:none;fill-opacity:1"/><path d="M29.45 173.46c.88 1.53 1.39 3.31 1.39 5.2" class="real" style="stroke-width:1;stroke:#900;stroke-opacity:1;fill:none;fill-opacity:1"/></g><g class="composite-shape"><path d="M165.17 96.62a2 2 0 1 1 2 2c-1.11 0-2-.89-2-2Z" class="real" style="stroke-width:1;stroke:#000;fill:#000;fill-opacity:1"/></g></g></svg><svg xmlns="http://www.w3.org/2000/svg" xmlns:xlink="http://www.w3.org/1999/xlink" width="200" height="189.275" style="width:200px;height:189.27500915527344px;font-family:Asana-Math,Asana;background:0 0"><path fill="#900" stroke="#900" stroke-width=".068" d="M93.65 78.991c-.154-.969-.544-1.683-1.624-1.683-2.21 0-2.516 2.465-2.227 4.276.161 1.011.595 1.827 1.751 1.827 2.006 0 2.346-2.822 2.1-4.42Zm-.587 1.046h-2.686c.06-.884.434-2.508 1.53-2.508.731 0 1.011.774 1.105 1.352.06.382.051.773.051 1.156Zm0 .272c-.043.952-.204 2.856-1.42 2.856-.867 0-1.105-.952-1.207-1.615-.068-.417-.059-.833-.059-1.241Z"/><path fill="#900" stroke="#900" stroke-width=".095" d="M100.288 48.027c.25 0 .44-.012.75-.048-1.321 1.428-1.821 2.416-1.821 3.606 0 .916.547 1.57 1.309 1.57 1.642 0 3.463-2.938 3.463-4.7 0-.678-.31-1.166-.738-1.166a.55.55 0 0 0-.393.143l-.595.56.131.225a.6.6 0 0 1 .322-.107c.32 0 .511.274.511.75 0 1.761-1.154 3.7-2.201 3.7-.583 0-.952-.499-.952-1.272 0-1.25.464-2.333 1.63-3.785l-.119-.214c-.238.107-.393.143-.726.143s-.833-.024-1.178-.06l-.143-.011c-.071-.012-.13-.012-.143-.012a.85.85 0 0 0-.38.083c-.167.321-.298.75-.453 1.404h.262l.203-.5c.083-.202.32-.333.606-.333.393 0 .203.024.655.024Zm.549 109.4c.25 0 .405-.012.702-.048-.654.881-1.832 1.88-1.832 3.547 0 .975.416 1.63 1.047 1.63.762 0 1.38-.655 2.261-2.356-.107.523-.143.82-.143 1.095 0 .75.345 1.26.88 1.26 1.595 0 3.416-2.962 3.416-4.7 0-.678-.31-1.166-.738-1.166a.55.55 0 0 0-.392.143l-.595.56.13.225a.6.6 0 0 1 .322-.107c.321 0 .512.274.512.75 0 1.726-1.155 3.7-2.166 3.7-.345 0-.595-.475-.595-1.13 0-.559.107-1.344.25-1.856l.618-2.19-.083-.095-.88.262-.346 1.773a5.8 5.8 0 0 1-.654 1.857c-.476.892-.928 1.38-1.285 1.38-.417 0-.69-.464-.69-1.154 0-1.416.487-2.57 1.666-3.904l-.12-.214c-.237.107-.392.143-.725.143-.334 0-.833-.024-1.178-.06l-.143-.011c-.072-.012-.131-.012-.143-.012a.85.85 0 0 0-.38.083c-.167.321-.298.75-.453 1.404h.262l.202-.5c.083-.202.321-.333.607-.333.405 0 .202.024.666.024Z"/><svg width="9.175" height="7" x="98.85" y="149.525" overflow="visible"><path d="M9.18 3.4 6.97 1.08l-.34.36 1.35 1.63h-.11v.63h.11L6.63 5.33l.34.36zm-8 .26h7.68v-.63H1.18z" style="fill:#900;fill-opacity:1;stroke-width:1px;stroke:none;stroke-opacity:1"/></svg><path fill="#900" stroke="#900" stroke-width=".068" d="M38.312 172.379c-.153-.97-.544-1.683-1.623-1.683-2.21 0-2.516 2.465-2.227 4.275.161 1.012.595 1.828 1.75 1.828 2.007 0 2.347-2.822 2.1-4.42Zm-.586 1.045H35.04c.059-.884.433-2.507 1.53-2.507.73 0 1.011.773 1.105 1.351.059.383.05.774.05 1.156Zm0 .272c-.043.952-.204 2.856-1.42 2.856-.867 0-1.105-.952-1.207-1.615-.068-.416-.06-.833-.06-1.241Z"/><path fill="#900" stroke="#900" stroke-width=".095" d="m143.15 65-4.105-7.01h-1.927l-.06.333.417.024c.535.024.94.56.952.667l-1.107 5.997c-.143.738-.214.833-.643.88l-.369.037-.06.333 1.322-.036c.143 0 .154 0 1.309.036l.06-.333-.5-.036c-.477-.036-.584-.131-.584-.524 0-.095.012-.226.036-.357l.952-5.521 4.022 6.866h.595l1.119-6.58c.25-1.345.274-1.393.714-1.429l.44-.024.036-.32-2.535-.013-.06.333.56.024c.31.012.428.095.428.286 0 .083-.987 6.212-1.011 6.366Z"/><svg width="9.838" height="7" x="136.225" y="50.325" overflow="visible"><path d="M9.84 3.4 7.63 1.08l-.34.36 1.35 1.63h-.11v.63h.11L7.29 5.33l.34.36zm-8.66.26h8.34v-.63H1.18z" style="fill:#900;fill-opacity:1;stroke-width:1px;stroke:none;stroke-opacity:1"/></svg><path fill="#900" stroke="#900" stroke-width=".095" d="m140.1 100.187-4.105-7.01h-1.928l-.059.334.416.024c.536.024.94.559.952.666l-1.106 5.998c-.143.738-.214.833-.643.88l-.369.036-.06.333 1.322-.035c.142 0 .154 0 1.309.035l.06-.333-.5-.036c-.477-.035-.584-.13-.584-.523 0-.095.012-.226.036-.357l.952-5.522 4.022 6.866h.595l1.119-6.58c.25-1.345.273-1.393.714-1.428l.44-.024.036-.321-2.535-.012-.06.333.56.024c.31.012.428.095.428.285 0 .084-.987 6.212-1.011 6.367Z"/><svg width="9.838" height="7" x="133.175" y="85.513" overflow="visible"><path d="M9.84 3.4 7.63 1.08l-.34.36 1.35 1.63h-.11v.63h.11L7.29 5.33l.34.36zm-8.66.26h8.34v-.63H1.18z" style="fill:#900;fill-opacity:1;stroke-width:1px;stroke:none;stroke-opacity:1"/></svg><path fill="#900" stroke="#900" stroke-width=".067" d="M142.85 106.51c.125.066.258.1.358.1.275 0 .6-.242.858-.634l.633-.975.092.575c.108.708.3 1.033.6 1.033.183 0 .45-.141.716-.383l.408-.367-.075-.158c-.3.25-.508.375-.641.375q-.19 0-.317-.25a3.3 3.3 0 0 1-.208-.708l-.15-.841.292-.408c.391-.542.616-.733.874-.733.134 0 .234.066.275.191l.117-.033.125-.708a.5.5 0 0 0-.25-.084c-.333 0-.667.3-1.183 1.067l-.308.458-.05-.4c-.1-.825-.325-1.125-.817-1.125-.216 0-.4.067-.474.175l-.483.692.141.083c.25-.283.417-.4.575-.4.275 0 .458.342.6 1.158l.091.517-.333.516c-.358.558-.641.825-.875.825-.125 0-.216-.034-.233-.075l-.091-.234-.167.025c0 .292-.067.509-.1.725Z"/><path fill="#900" stroke="#900" stroke-width=".095" d="M151.637 130.565c.25 0 .405-.012.702-.048-.654.88-1.832 1.88-1.832 3.546 0 .976.416 1.63 1.047 1.63.762 0 1.38-.654 2.261-2.356-.107.524-.143.821-.143 1.095 0 .75.345 1.261.88 1.261 1.595 0 3.416-2.963 3.416-4.7 0-.678-.31-1.166-.738-1.166a.55.55 0 0 0-.392.143l-.595.559.13.226a.6.6 0 0 1 .322-.107c.321 0 .512.274.512.75 0 1.725-1.155 3.7-2.166 3.7-.345 0-.595-.476-.595-1.13 0-.56.107-1.345.25-1.856l.618-2.19-.083-.095-.88.262-.346 1.773a5.8 5.8 0 0 1-.654 1.856c-.476.893-.928 1.38-1.285 1.38-.417 0-.69-.464-.69-1.154 0-1.416.487-2.57 1.666-3.903l-.12-.214c-.237.107-.392.143-.725.143-.334 0-.833-.024-1.178-.06l-.143-.012c-.072-.012-.131-.012-.143-.012a.85.85 0 0 0-.38.084c-.167.32-.298.75-.453 1.404h.262l.202-.5c.083-.202.321-.333.607-.333.405 0 .202.024.666.024Z"/><svg width="9.175" height="7" x="149.65" y="122.663" overflow="visible"><path d="M9.18 3.4 6.97 1.08l-.34.36 1.35 1.63h-.11v.63h.11L6.63 5.33l.34.36zm-8 .26h7.68v-.63H1.18z" style="fill:#900;fill-opacity:1;stroke-width:1px;stroke:none;stroke-opacity:1"/></svg><path fill="#900" stroke="#900" stroke-width=".095" d="m180.763 69.862-4.105-7.01h-1.928l-.06.334.417.024c.536.024.94.559.952.666l-1.107 5.998c-.142.738-.214.833-.642.88l-.37.036-.059.333 1.321-.035c.143 0 .155 0 1.31.035l.059-.333-.5-.036c-.476-.035-.583-.13-.583-.523 0-.095.012-.226.036-.357l.952-5.522 4.022 6.866h.595l1.118-6.58c.25-1.345.274-1.393.714-1.428l.44-.024.036-.321-2.534-.012-.06.333.56.024c.309.012.428.095.428.285 0 .084-.988 6.212-1.012 6.367Z"/><svg width="9.838" height="7" x="173.838" y="55.188" overflow="visible"><path d="M9.84 3.4 7.63 1.08l-.34.36 1.35 1.63h-.11v.63h.11L7.29 5.33l.34.36zm-8.66.26h8.34v-.63H1.18z" style="fill:#900;fill-opacity:1;stroke-width:1px;stroke:none;stroke-opacity:1"/></svg><path fill="#900" stroke="#900" stroke-width=".067" d="M183.38 77.692c-.01.058-.01.108-.01.15 0 .358.31.65.684.65.883 0 1.8-1.033 2.29-2.574l1.175-3.666-.091-.075a2.3 2.3 0 0 1-.617.159l-.291 1.1c-.1.39-.392.999-.667 1.407-.291.425-.7.791-.883.791-.1 0-.175-.191-.166-.4l.133-1.724c.017-.258.033-.575.033-.808 0-.375-.058-.525-.2-.525-.108 0-.225.059-.624.334l-.684.466.092.15.417-.25c.041-.025.133-.1.208-.1.116 0 .183.158.183.433 0 .009 0 .059-.008.125l-.142 2.025-.008.333c0 .35.15.591.358.591.308 0 1.008-.708 1.633-1.65l-.408 1.425c-.425 1.475-.842 2.083-1.425 2.083a.51.51 0 0 1-.516-.517c0-.041.008-.108.016-.183l-.083-.033Z"/></svg></svg>