<svg xmlns="http://www.w3.org/2000/svg" width="207.455" height="203.125" style="width:207.4545440673828px;height:203.125px;background:0 0;fill:none"><svg xmlns="http://www.w3.org/2000/svg"/><svg xmlns="http://www.w3.org/2000/svg" class="role-diagram-draw-area"><g class="shapes-region" style="stroke:#000;fill:none"><g class="composite-shape"><defs><pattern id="_pgfkqrbklp66" width="11.314" height="11.314" x="0" y="0" patternTransform="rotate(45 0 0)" patternUnits="userSpaceOnUse"><path d="M0 0v11.314M5.657 0v11.314M11.314 0v11.314" style="stroke:#eee;stroke-opacity:1;stroke-width:1;fill:none"/></pattern></defs><path d="M9.6 100.55C9.6 49.22 51.22 7.6 102.55 7.6s92.95 41.62 92.95 92.95-41.62 92.95-92.95 92.95S9.6 151.88 9.6 100.55Z" class="real" style="stroke-width:1;stroke:#000;fill:url(#_pgfkqrbklp66);fill-opacity:1"/></g><g class="arrow-line"><path stroke-dasharray="3" d="M102.55 100.55h92.95" class="connection real" style="stroke:#000;stroke-opacity:1;stroke-width:1;fill:none;fill-opacity:1"/></g><g class="arrow-line"><path stroke-dasharray="3" d="M102.44 34.03h64.91" class="connection real" style="stroke:#000;stroke-opacity:1;stroke-width:1;fill:none;fill-opacity:1"/></g><g class="composite-shape"><path stroke="none" d="M102.5 40.89c-35.82 0-64.86-3.07-64.86-6.86s29.04-6.87 64.86-6.87v6.87Z" class="real" style="stroke-width:1;stroke:none;stroke-opacity:1;fill:none;fill-opacity:1"/><path d="M100.35 40.88c-34.82-.11-62.71-3.14-62.71-6.85 0-3.79 29.04-6.87 64.86-6.87" class="real" style="stroke-width:1;stroke:#900;stroke-opacity:1;fill:none;fill-opacity:1"/><path stroke="#900" d="M10.93-3.29Q4.96-.45 0 0q4.96.45 10.93 3.29" style="stroke:#900;stroke-width:1" transform="rotate(180.59 51.353 20.18)"/></g><g class="composite-shape"><path stroke="none" d="M102.5 27.16c35.81 0 64.85 3.08 64.85 6.87s-29.04 6.86-64.85 6.86v-6.86Z" class="real" style="stroke-width:1;stroke:none;stroke-opacity:1;fill:none;fill-opacity:1"/><path d="M104.64 27.17c34.82.12 62.71 3.14 62.71 6.86 0 3.79-29.04 6.86-64.85 6.86" class="real" style="stroke-width:1;stroke:#900;stroke-opacity:1;fill:none;fill-opacity:1"/><path stroke="#900" d="M10.93-3.29Q4.96-.45 0 0q4.96.45 10.93 3.29" style="stroke:#900;stroke-width:1" transform="rotate(.59 -2586.601 9966.971)"/></g><g class="composite-shape"><path stroke="none" d="M102.55 110.4c-51.41 0-93.08-4.41-93.08-9.85s41.67-9.85 93.08-9.85v9.85Z" class="real" style="stroke-width:1;stroke:none;stroke-opacity:1;fill:none;fill-opacity:1"/><path d="M102.55 110.4c-51.41 0-93.08-4.41-93.08-9.85s41.67-9.85 93.08-9.85" class="real" style="stroke-width:1;stroke:#900;stroke-opacity:1;fill:none;fill-opacity:1"/><path stroke="#900" d="M10.93-3.29Q4.96-.45 0 0q4.96.45 10.93 3.29" style="stroke:#900;stroke-width:1" transform="matrix(-1 0 0 -1 102.55 110.4)"/></g><g class="composite-shape"><path stroke="none" d="M102.55 90.7c51.41 0 93.08 4.41 93.08 9.85s-41.67 9.85-93.08 9.85v-9.85Z" class="real" style="stroke-width:1;stroke:none;stroke-opacity:1;fill:none;fill-opacity:1"/><path d="M104.86 90.7c50.34.13 90.77 4.49 90.77 9.85 0 5.44-41.67 9.85-93.08 9.85" class="real" style="stroke-width:1;stroke:#900;stroke-opacity:1;fill:none;fill-opacity:1"/><path stroke="#900" d="M10.93-3.29Q4.96-.45 0 0q4.96.45 10.93 3.29" style="stroke:#900;stroke-width:1" transform="rotate(.39 -13273.688 15111.144)"/></g><g class="arrow-line"><path d="M9.6 100.55h45.77" class="connection real" style="stroke:#900;stroke-opacity:1;stroke-width:1;fill:none;fill-opacity:1"/><path fill="#900" stroke="none" d="M10.72-5.15 0 0l10.72 5.15L7.12 0Z" style="stroke:none;fill:#900;stroke-width:1" transform="matrix(-1 0 0 -1 58.371 100.55)"/></g><g class="arrow-line"><path d="M38.17 33.98h24.27" class="connection real" style="stroke:#900;stroke-opacity:1;stroke-width:1;fill:none;fill-opacity:1"/><path fill="#900" stroke="none" d="M10.72-5.15 0 0l10.72 5.15L7.12 0Z" style="stroke:none;fill:#900;stroke-width:1" transform="matrix(-1 0 0 -1 65.442 33.979)"/></g></g></svg><svg xmlns="http://www.w3.org/2000/svg" xmlns:xlink="http://www.w3.org/1999/xlink" width="206" height="201.67" style="width:206px;height:201.6704559326172px;font-family:Asana-Math,Asana;background:0 0"><path fill="#fff" d="M143.801 93.409h7.932v13.818h-7.932z"/><path fill="#000" stroke="#000" stroke-width=".095" d="m145.05 97.408.667.023c.286.012.417.107.417.322 0 .166-.048.547-.108.904l-.892 5.165c-.19 1.083-.214 1.106-.69 1.154l-.488.036-.048.333.5-.012c.56-.024.785-.024 1.071-.024l1.154.036h.31l.035-.333-.583-.036c-.321-.024-.428-.12-.428-.357a2.3 2.3 0 0 1 .048-.417l1.201-6.604c.346-.071.584-.095.905-.095 1.035 0 1.583.464 1.583 1.344 0 1.13-.929 1.964-2.166 1.964h-.524l-.036.13c1.595 2.321 1.964 2.893 2.856 4.404l1.012-.036c.012 0 .178.012.405.036h.154v-.321c-.476-.06-.607-.155-.952-.655l-2.19-3.272c.655-.12 1-.262 1.429-.572.69-.5 1.059-1.154 1.059-1.88 0-1.023-.762-1.583-2.083-1.559h-3.582Z"/></svg></svg>