<svg xmlns="http://www.w3.org/2000/svg" xmlns:xlink="http://www.w3.org/1999/xlink" x="0" y="0" width="201.60000610351562" height="190.875" style="
        width:201.60000610351562px;
        height:190.875px;
        background: transparent;
        fill: none;
">
        <svg xmlns="http://www.w3.org/2000/svg"/>
        
        <svg xmlns="http://www.w3.org/2000/svg" class="role-diagram-draw-area"><g class="shapes-region" style="stroke: black; fill: none;"><g class="arrow-line"><path class="connection real" stroke-dasharray="" d="  M149.69,68.32 L167.17,96.62" style="stroke: rgb(153, 0, 0); stroke-opacity: 0.5; stroke-width: 1; fill: none; fill-opacity: 1;"/><g><g stroke="rgb(153,0,0)" stroke-opacity="0.5" transform="matrix(-0.23004973718810434,0.9731788727770883,-0.9731788727770883,-0.23004973718810434,157.63845178341876,81.1959466611255)" style="stroke: rgb(153, 0, 0); stroke-width: 1;"><path d=" M-5.59,0 L5.59,0 M0,5.59 L0,-5.59"/></g></g><g stroke="none" fill="rgb(153,0,0)" fill-opacity="0.5" transform="matrix(0.5254716510722678,0.8508111094240511,-0.8508111094240511,0.5254716510722678,148.11023690017092,65.77106215057947)" style="stroke: none; fill: rgb(153, 0, 0); stroke-width: 1;"><path d=" M10.72,-5.15 L0,0 L10.72,5.15 L7.12,0 Z"/></g></g><g class="arrow-line"><path class="connection real" stroke-dasharray="" d="  M167.17,96.62 L150.95,96.62" style="stroke: rgb(153, 0, 0); stroke-opacity: 1; stroke-width: 1; fill: none; fill-opacity: 1;"/><g stroke="none" fill="rgb(153,0,0)" fill-opacity="1" transform="matrix(1,-2.4492935982947064e-16,2.4492935982947064e-16,1,147.9484826290246,96.62083117167154)" style="stroke: none; fill: rgb(153, 0, 0); stroke-width: 1;"><path d=" M10.72,-5.15 L0,0 L10.72,5.15 L7.12,0 Z"/></g></g><g class="arrow-line"><path class="connection real" stroke-dasharray="" d="  M167.17,68.09 L167.17,96.62" style="stroke: rgb(153, 0, 0); stroke-opacity: 1; stroke-width: 1; fill: none; fill-opacity: 1;"/><g stroke="none" fill="rgb(153,0,0)" fill-opacity="1" transform="matrix(6.123233995736766e-17,1,-1,6.123233995736766e-17,167.16666666666669,65.0874989827474)" style="stroke: none; fill: rgb(153, 0, 0); stroke-width: 1;"><path d=" M10.72,-5.15 L0,0 L10.72,5.15 L7.12,0 Z"/></g></g><g class="arrow-line"><path class="connection real" stroke-dasharray="" d="  M167.17,96.62 L167.17,124.49" style="stroke: rgb(153, 0, 0); stroke-opacity: 1; stroke-width: 1; fill: none; fill-opacity: 1;"/><g stroke="none" fill="rgb(153,0,0)" fill-opacity="1" transform="matrix(-1.8369701987210297e-16,-1,1,-1.8369701987210297e-16,167.16666666666669,127.48749669392899)" style="stroke: none; fill: rgb(153, 0, 0); stroke-width: 1;"><path d=" M10.72,-5.15 L0,0 L10.72,5.15 L7.12,0 Z"/></g></g><g class="composite-shape"><path class="real" d=" M110.94,54.33 C110.94,59.85 108.66,65.14 104.52,69.99 L104.52,69.51 L76.66,83.01 L84.34,84.37 L104.52,87.92 C108.66,83.07 110.94,77.78 110.94,72.26 L110.94,54.33 Z" style="stroke-width: 1; stroke: rgb(0, 0, 0); fill: rgb(245, 234, 234); fill-opacity: 1;"/></g><g class="composite-shape"><path class="real" d=" M104.52,69.51 L76.66,83.01 L104.52,87.92 Z" style="stroke-width: 1; stroke: rgb(0, 0, 0); fill: none; fill-opacity: 1;"/></g><g class="composite-shape"><path class="real" d=" M15.69,11 C68.29,11 110.94,30.4 110.94,54.33 C110.94,59.85 108.66,65.14 104.52,69.99 L104.52,69.51 L76.66,83.01 L84.34,84.37 L84.34,84.37 L76.23,82.93 C79.05,79.62 80.6,76.02 80.6,72.26 C80.6,55.95 51.54,42.73 15.69,42.73 C15.55,42.73 15.41,42.73 15.27,42.73 L15.27,11 C15.41,11 15.55,11 15.69,11 Z" style="stroke-width: 1; stroke: rgb(0, 0, 0); fill: rgb(245, 234, 234); fill-opacity: 1;"/></g><g class="arrow-line"><path class="connection real" stroke-dasharray="" d="  M74.69,20.49 L65.3,34.79" style="stroke: rgb(0, 0, 0); stroke-width: 1; fill: none; fill-opacity: 1;"/></g><g class="composite-shape"><path class="real" d=" M54.6,28.65 L63.75,14.28 L74.89,20.71 L65.73,35.08 Z" style="stroke-width: 1; stroke: rgb(0, 0, 0); fill: rgb(153, 0, 0); fill-opacity: 1;"/></g><g class="composite-shape"><path class="real" d=" M43.29,25.28 L54.49,28.38 L66.02,35.31 L54.81,32.2 Z" style="stroke-width: 1; stroke: rgb(0, 0, 0); fill: rgb(153, 0, 0); fill-opacity: 1;"/></g><g class="composite-shape"><path class="real" d=" M43.49,25.5 L52.55,11.27 L63.75,14.28 L54.69,28.5 Z" style="stroke-width: 1; stroke: rgb(0, 0, 0); fill: rgb(153, 0, 0); fill-opacity: 1;"/></g><g class="composite-shape"><path class="real" d=" M70.24,28.17 C84.68,34.48 93.9,43.26 94.65,53.03 L15.69,54.33 Z" style="stroke-width: 1; stroke: none; stroke-opacity: 1; fill: none; fill-opacity: 1;"/><path class="real" d=" M70.24,28.17 C83.23,33.84 92.01,41.53 94.18,50.13" style="stroke-width: 1; stroke: rgb(153, 0, 0); stroke-opacity: 1; fill: none; fill-opacity: 1;"/><g stroke="none" fill="rgb(153,0,0)" fill-opacity="1" transform="matrix(-0.2998734100635031,-0.9539790028805069,0.9539790028805069,-0.2998734100635031,94.65443847667349,53.03334288117006)" style="stroke: none; fill: rgb(153, 0, 0); stroke-width: 1;"><path d=" M7.14,-3.43 L0,0 L7.14,3.43 L4.74,0 Z"/></g></g><g class="composite-shape"><path class="real" d=" M85.96,78.37 C86.66,79.77 87.05,81.34 87.05,83.01 C87.05,83.63 87,84.23 86.9,84.82 L76.66,83.01 Z" style="stroke-width: 1; stroke: none; stroke-opacity: 1; fill: none; fill-opacity: 1;"/><path class="real" d=" M85.96,78.37 C86.66,79.77 87.05,81.34 87.05,83.01 C87.05,83.63 87,84.23 86.9,84.82" style="stroke-width: 1; stroke: rgb(153, 0, 0); stroke-opacity: 1; fill: none; fill-opacity: 1;"/></g><g class="composite-shape"><path class="real" d=" M22.04,18.28 C29.73,18.56 37.11,19.35 44.02,20.56 L15.69,54.33 Z" style="stroke-width: 1; stroke: none; stroke-opacity: 1; fill: none; fill-opacity: 1; stroke-dasharray: 3;"/><path class="real" d=" M22.04,18.28 C29.73,18.56 37.11,19.35 44.02,20.56" style="stroke-width: 1; stroke: rgb(153, 0, 0); stroke-opacity: 1; fill: none; fill-opacity: 1; stroke-dasharray: 3;"/></g><g class="composite-shape"><path class="real" d=" M119.24,115.33 L20.45,178.66 L119.24,178.66 Z" style="stroke-width: 1; stroke: rgb(0, 0, 0); fill: rgb(245, 234, 234); fill-opacity: 1;"/></g><g class="composite-shape"><path class="real" d=" M81.12,122.08 L92.99,114.37 L100.7,126.24 L88.83,133.95 Z" style="stroke-width: 1; stroke: rgb(153, 0, 0); stroke-opacity: 1; fill: rgb(153, 0, 0); fill-opacity: 0.5;"/></g><g class="arrow-line"><path class="connection real" stroke-dasharray="" d="  M90.91,124.16 L90.91,164.25" style="stroke: rgb(153, 0, 0); stroke-opacity: 1; stroke-width: 1; fill: none; fill-opacity: 1;"/><g stroke="none" fill="rgb(153,0,0)" fill-opacity="1" transform="matrix(-1.8369701987210297e-16,-1,1,-1.8369701987210297e-16,90.9072043776804,167.24606868758337)" style="stroke: none; fill: rgb(153, 0, 0); stroke-width: 1;"><path d=" M10.72,-5.15 L0,0 L10.72,5.15 L7.12,0 Z"/></g></g><g class="composite-shape"><path class="real" d=" M29.45,173.46 C30.33,174.99 30.84,176.77 30.84,178.66 L20.45,178.66 Z" style="stroke-width: 1; stroke: none; stroke-opacity: 1; fill: none; fill-opacity: 1;"/><path class="real" d=" M29.45,173.46 C30.33,174.99 30.84,176.77 30.84,178.66" style="stroke-width: 1; stroke: rgb(153, 0, 0); stroke-opacity: 1; fill: none; fill-opacity: 1;"/></g><g class="composite-shape"><path class="real" d=" M165.17,96.62 C165.17,95.52 166.06,94.62 167.17,94.62 C168.27,94.62 169.17,95.52 169.17,96.62 C169.17,97.73 168.27,98.62 167.17,98.62 C166.06,98.62 165.17,97.73 165.17,96.62 Z" style="stroke-width: 1; stroke: rgb(0, 0, 0); fill: rgb(0, 0, 0); fill-opacity: 1;"/></g><g/></g><g/><g/><g/></svg>
        <svg xmlns="http://www.w3.org/2000/svg" xmlns:xlink="http://www.w3.org/1999/xlink" width="200" height="189.27500915527344" style="width:200px;height:189.27500915527344px;font-family:Asana-Math, Asana;background:transparent;"><g><g><g><g transform="matrix(1,0,0,1,89,83.2750244140625)"><path transform="matrix(0.0085,0,0,-0.0085,0,0)" d="M547 504C529 618 483 702 356 702C96 702 60 412 94 199C113 80 164 -16 300 -16C536 -16 576 316 547 504ZM478 381L162 381C169 485 213 676 342 676C428 676 461 585 472 517C479 472 478 426 478 381ZM478 349C473 237 454 13 311 13C209 13 181 125 169 203C161 252 162 301 162 349Z" stroke="rgb(153,0,0)" stroke-opacity="1" stroke-width="8" fill="rgb(153,0,0)" fill-opacity="1"></path></g></g></g></g><g><g><g><g transform="matrix(1,0,0,1,98.3125,53.025)"><path transform="matrix(0.0119,0,0,-0.0119,0,0)" d="M166 420C187 420 203 421 229 424C118 304 76 221 76 121C76 44 122 -11 186 -11C324 -11 477 236 477 384C477 441 451 482 415 482C402 482 390 478 382 470L332 423L343 404C352 410 361 413 370 413C397 413 413 390 413 350C413 202 316 39 228 39C179 39 148 81 148 146C148 251 187 342 285 464L275 482C255 473 242 470 214 470C186 470 144 472 115 475L103 476C97 477 92 477 91 477C79 477 70 475 59 470C45 443 34 407 21 352L43 352L60 394C67 411 87 422 111 422C144 422 128 420 166 420Z" stroke="rgb(153,0,0)" stroke-opacity="1" stroke-width="8" fill="rgb(153,0,0)" fill-opacity="1"></path></g></g></g></g><g><g><g><g><g><g><g transform="matrix(1,0,0,1,98.85003662109375,162.4250244140625)"><path transform="matrix(0.0119,0,0,-0.0119,0,0)" d="M167 420C188 420 201 421 226 424C171 350 72 266 72 126C72 44 107 -11 160 -11C224 -11 276 44 350 187C341 143 338 118 338 95C338 32 367 -11 412 -11C546 -11 699 238 699 384C699 441 673 482 637 482C624 482 612 478 604 470L554 423L565 404C574 410 583 413 592 413C619 413 635 390 635 350C635 205 538 39 453 39C424 39 403 79 403 134C403 181 412 247 424 290L476 474L469 482L395 460L366 311C354 249 340 209 311 155C271 80 233 39 203 39C168 39 145 78 145 136C145 255 186 352 285 464L275 482C255 473 242 470 214 470C186 470 144 472 115 475L103 476C97 477 92 477 91 477C79 477 70 475 59 470C45 443 34 407 21 352L43 352L60 394C67 411 87 422 111 422C145 422 128 420 167 420Z" stroke="rgb(153,0,0)" stroke-opacity="1" stroke-width="8" fill="rgb(153,0,0)" fill-opacity="1"></path></g></g></g></g><svg x="98.85003662109375" overflow="visible" y="149.5250244140625" height="7" width="9.175000190734863"><path d=" M 9.18 3.40 l -2.21 -2.32 l -0.34 0.36 l 1.35 1.63 h -0.11 v 0.63 h 0.11 l -1.35 1.63 l 0.34 0.36 z  M 1.18 3.66 h 7.68 v -0.63 h -7.68 z" style="fill:rgb(153,0,0);fill-opacity:1;stroke-width:1px;stroke:none;stroke-opacity:1;"></path></svg></g></g></g><g><g><g><g transform="matrix(1,0,0,1,33.66253662109375,176.66250610351562)"><path transform="matrix(0.0085,0,0,-0.0085,0,0)" d="M547 504C529 618 483 702 356 702C96 702 60 412 94 199C113 80 164 -16 300 -16C536 -16 576 316 547 504ZM478 381L162 381C169 485 213 676 342 676C428 676 461 585 472 517C479 472 478 426 478 381ZM478 349C473 237 454 13 311 13C209 13 181 125 169 203C161 252 162 301 162 349Z" stroke="rgb(153,0,0)" stroke-opacity="1" stroke-width="8" fill="rgb(153,0,0)" fill-opacity="1"></path></g></g></g></g><g><g><g><g><g><g><g transform="matrix(1,0,0,1,136.22503662109375,66.22501220703126)"><path transform="matrix(0.0119,0,0,-0.0119,0,0)" d="M582 103L237 692L75 692L70 664L105 662C150 660 184 615 185 606L92 102C80 40 74 32 38 28L7 25L2 -3L113 0C125 0 126 0 223 -3L228 25L186 28C146 31 137 39 137 72C137 80 138 91 140 102L220 566L558 -11L608 -11L702 542C723 655 725 659 762 662L799 664L802 691L589 692L584 664L631 662C657 661 667 654 667 638C667 631 584 116 582 103Z" stroke="rgb(153,0,0)" stroke-opacity="1" stroke-width="8" fill="rgb(153,0,0)" fill-opacity="1"></path></g></g></g></g><svg x="136.22503662109375" overflow="visible" y="50.32501220703125" height="7" width="9.83750057220459"><path d=" M 9.84 3.40 l -2.21 -2.32 l -0.34 0.36 l 1.35 1.63 h -0.11 v 0.63 h 0.11 l -1.35 1.63 l 0.34 0.36 z  M 1.18 3.66 h 8.34 v -0.63 h -8.34 z" style="fill:rgb(153,0,0);fill-opacity:1;stroke-width:1px;stroke:none;stroke-opacity:1;"></path></svg></g></g></g><g><g><g><g><g><g><g transform="matrix(1,0,0,1,133.17498779296875,101.41251220703126)"><path transform="matrix(0.0119,0,0,-0.0119,0,0)" d="M582 103L237 692L75 692L70 664L105 662C150 660 184 615 185 606L92 102C80 40 74 32 38 28L7 25L2 -3L113 0C125 0 126 0 223 -3L228 25L186 28C146 31 137 39 137 72C137 80 138 91 140 102L220 566L558 -11L608 -11L702 542C723 655 725 659 762 662L799 664L802 691L589 692L584 664L631 662C657 661 667 654 667 638C667 631 584 116 582 103Z" stroke="rgb(153,0,0)" stroke-opacity="1" stroke-width="8" fill="rgb(153,0,0)" fill-opacity="1"></path></g></g></g></g><svg x="133.17498779296875" overflow="visible" y="85.51251220703125" height="7" width="9.83750057220459"><path d=" M 9.84 3.40 l -2.21 -2.32 l -0.34 0.36 l 1.35 1.63 h -0.11 v 0.63 h 0.11 l -1.35 1.63 l 0.34 0.36 z  M 1.18 3.66 h 8.34 v -0.63 h -8.34 z" style="fill:rgb(153,0,0);fill-opacity:1;stroke-width:1px;stroke:none;stroke-opacity:1;"></path></svg></g><g><g><g><g><g transform="matrix(1,0,0,1,142.7750244140625,106.5175)"><path transform="matrix(0.00833,0,0,-0.00833,0,0)" d="M9 1C24 -7 40 -11 52 -11C85 -11 124 18 155 65L231 182L242 113C255 28 278 -11 314 -11C336 -11 368 6 400 35L449 79L440 98C404 68 379 53 363 53C348 53 335 63 325 83C316 102 305 139 300 168L282 269L317 318C364 383 391 406 422 406C438 406 450 398 455 383L469 387L484 472C472 479 463 482 454 482C414 482 374 446 312 354L275 299L269 347C257 446 230 482 171 482C145 482 123 474 114 461L56 378L73 368C103 402 123 416 142 416C175 416 197 375 214 277L225 215L185 153C142 86 108 54 80 54C65 54 54 58 52 63L41 91L21 88C21 53 13 27 9 1Z" stroke="rgb(153,0,0)" stroke-opacity="1" stroke-width="8" fill="rgb(153,0,0)" fill-opacity="1"></path></g></g></g></g></g></g></g><g><g><g><g><g><g><g transform="matrix(1,0,0,1,149.6500244140625,135.56250610351563)"><path transform="matrix(0.0119,0,0,-0.0119,0,0)" d="M167 420C188 420 201 421 226 424C171 350 72 266 72 126C72 44 107 -11 160 -11C224 -11 276 44 350 187C341 143 338 118 338 95C338 32 367 -11 412 -11C546 -11 699 238 699 384C699 441 673 482 637 482C624 482 612 478 604 470L554 423L565 404C574 410 583 413 592 413C619 413 635 390 635 350C635 205 538 39 453 39C424 39 403 79 403 134C403 181 412 247 424 290L476 474L469 482L395 460L366 311C354 249 340 209 311 155C271 80 233 39 203 39C168 39 145 78 145 136C145 255 186 352 285 464L275 482C255 473 242 470 214 470C186 470 144 472 115 475L103 476C97 477 92 477 91 477C79 477 70 475 59 470C45 443 34 407 21 352L43 352L60 394C67 411 87 422 111 422C145 422 128 420 167 420Z" stroke="rgb(153,0,0)" stroke-opacity="1" stroke-width="8" fill="rgb(153,0,0)" fill-opacity="1"></path></g></g></g></g><svg x="149.6500244140625" overflow="visible" y="122.66250610351562" height="7" width="9.175000190734863"><path d=" M 9.18 3.40 l -2.21 -2.32 l -0.34 0.36 l 1.35 1.63 h -0.11 v 0.63 h 0.11 l -1.35 1.63 l 0.34 0.36 z  M 1.18 3.66 h 7.68 v -0.63 h -7.68 z" style="fill:rgb(153,0,0);fill-opacity:1;stroke-width:1px;stroke:none;stroke-opacity:1;"></path></svg></g></g></g><g><g><g><g><g><g><g transform="matrix(1,0,0,1,173.8375244140625,71.0875)"><path transform="matrix(0.0119,0,0,-0.0119,0,0)" d="M582 103L237 692L75 692L70 664L105 662C150 660 184 615 185 606L92 102C80 40 74 32 38 28L7 25L2 -3L113 0C125 0 126 0 223 -3L228 25L186 28C146 31 137 39 137 72C137 80 138 91 140 102L220 566L558 -11L608 -11L702 542C723 655 725 659 762 662L799 664L802 691L589 692L584 664L631 662C657 661 667 654 667 638C667 631 584 116 582 103Z" stroke="rgb(153,0,0)" stroke-opacity="1" stroke-width="8" fill="rgb(153,0,0)" fill-opacity="1"></path></g></g></g></g><svg x="173.8375244140625" overflow="visible" y="55.1875" height="7" width="9.83750057220459"><path d=" M 9.84 3.40 l -2.21 -2.32 l -0.34 0.36 l 1.35 1.63 h -0.11 v 0.63 h 0.11 l -1.35 1.63 l 0.34 0.36 z  M 1.18 3.66 h 8.34 v -0.63 h -8.34 z" style="fill:rgb(153,0,0);fill-opacity:1;stroke-width:1px;stroke:none;stroke-opacity:1;"></path></svg></g><g><g><g><g><g transform="matrix(1,0,0,1,183.4375,76.19251831054687)"><path transform="matrix(0.00833,0,0,-0.00833,0,0)" d="M-7 -180C-8 -187 -8 -193 -8 -198C-8 -241 29 -276 74 -276C180 -276 290 -152 349 33L490 473L479 482C450 471 427 465 405 463L370 331C358 284 323 211 290 162C255 111 206 67 184 67C172 67 163 90 164 115L180 322C182 353 184 391 184 419C184 464 177 482 160 482C147 482 133 475 85 442L3 386L14 368L64 398C69 401 80 410 89 410C103 410 111 391 111 358C111 357 111 351 110 343L93 100L92 60C92 18 110 -11 135 -11C172 -11 256 74 331 187L282 16C231 -161 181 -234 111 -234C76 -234 49 -207 49 -172C49 -167 50 -159 51 -150L41 -146Z" stroke="rgb(153,0,0)" stroke-opacity="1" stroke-width="8" fill="rgb(153,0,0)" fill-opacity="1"></path></g></g></g></g></g></g></g></svg>
</svg>
