<svg xmlns="http://www.w3.org/2000/svg" width="247.6" height="214.163" style="width:247.60000610351562px;height:214.16250610351562px;background:0 0;fill:none"><svg xmlns="http://www.w3.org/2000/svg"/><svg xmlns="http://www.w3.org/2000/svg" class="role-diagram-draw-area"><g class="shapes-region" style="stroke:#000;fill:none"><g class="arrow-line"><path d="m197.84 58.54 26.93-44.27" class="connection real" style="stroke:#900;stroke-opacity:.5;stroke-width:1;fill:none;fill-opacity:1"/><path fill="#900" fill-opacity=".5" stroke="none" d="M10.72-5.15 0 0l10.72 5.15L7.12 0Z" style="stroke:none;fill:#900;stroke-width:1" transform="rotate(121.31 109.876 69.476)"/><path stroke="#900" stroke-opacity=".5" d="M-5.59 0H5.59M0 5.59V-5.59" style="stroke:#900;stroke-width:1" transform="rotate(-13.69 252.35 -865.846)"/></g><g class="arrow-line"><path stroke-dasharray="3" d="M19.53 158.27h89.73" class="connection real" style="stroke:#000;stroke-width:1;fill:none;fill-opacity:1"/></g><g class="composite-shape"><path d="M19.53 158.27c0-23.84 40.18-43.17 89.73-43.17 49.56 0 89.74 19.33 89.74 43.17s-40.18 43.16-89.74 43.16c-49.55 0-89.73-19.32-89.73-43.16Z" class="real" style="stroke-width:1;stroke:#900;stroke-opacity:.5;fill:none;fill-opacity:1"/></g><g class="composite-shape"><path stroke="none" d="M37.7 184.32c-11.4-7.24-18.17-16.27-18.17-26.05h89.73Z" class="real" style="stroke-width:1;stroke:none;stroke-opacity:1;fill:none;fill-opacity:1"/><path d="M35.05 182.54c-9.79-6.91-15.52-15.27-15.52-24.27" class="real" style="stroke-width:1;stroke:#900;stroke-opacity:1;fill:none;fill-opacity:1"/><path fill="#900" stroke="none" d="M7.14-3.43 0 0l7.14 3.43L4.74 0Z" style="stroke:none;fill:#900;stroke-width:1" transform="rotate(215.22 48.103 86.174)"/></g><g class="arrow-line"><path d="m19.53 158.27 89.73-147.89" class="connection real" style="stroke:#000;stroke-width:1;fill:none;fill-opacity:1"/></g><g class="arrow-line"><path stroke-dasharray="3" d="M109.26 158.27V10.38" class="connection real" style="stroke:#000;stroke-width:1;fill:none;fill-opacity:1"/></g><g class="composite-shape"><path d="M11.44 158.27c0-4.47 3.62-8.1 8.09-8.1s8.09 3.63 8.09 8.1-3.62 8.09-8.09 8.09-8.09-3.62-8.09-8.09Z" class="real" style="stroke-width:1;stroke:#000;fill:#900;fill-opacity:1"/></g><g class="composite-shape"><path d="m109.26 6.47 13.39 3.91-13.39 3.91-13.38-3.91Z" class="real" style="stroke-width:1;stroke:#000;fill:#f5eaea;fill-opacity:1"/></g><g class="composite-shape"><path stroke="none" d="M32.15 136.42c7.54 4.36 12.61 12.51 12.61 21.85H19.53Z" class="real" style="stroke-width:1;stroke:none;stroke-opacity:1;fill:none;fill-opacity:1"/><path d="M32.15 136.42c7.54 4.36 12.61 12.51 12.61 21.85" class="real" style="stroke-width:1;stroke:#900;stroke-opacity:1;fill:none;fill-opacity:1"/></g><g class="composite-shape"><path d="M195.52 58.54c0-1.28 1.04-2.32 2.32-2.32s2.32 1.04 2.32 2.32c0 1.29-1.04 2.32-2.32 2.32s-2.32-1.03-2.32-2.32Z" class="real" style="stroke-width:1;stroke:#000;fill:#000;fill-opacity:1"/></g><g class="arrow-line"><path d="M200.16 58.54h24.06" class="connection real" style="stroke:#900;stroke-opacity:1;stroke-width:1;fill:none;fill-opacity:1"/><path fill="#900" stroke="none" d="M10.72-5.15 0 0l10.72 5.15L7.12 0Z" style="stroke:none;fill:#900;stroke-width:1" transform="matrix(-1 0 0 -1 227.222 58.545)"/></g><g class="arrow-line"><path d="M197.84 56.22V14.83" class="connection real" style="stroke:#900;stroke-opacity:1;stroke-width:1;fill:none;fill-opacity:1"/><path fill="#900" stroke="none" d="M10.72-5.15 0 0l10.72 5.15L7.12 0Z" style="stroke:none;fill:#900;stroke-width:1" transform="rotate(90 93.006 104.836)"/></g><g class="arrow-line"><path d="M197.84 102.26v-41.4" class="connection real" style="stroke:#900;stroke-opacity:1;stroke-width:1;fill:none;fill-opacity:1"/><path fill="#900" stroke="none" d="M10.72-5.15 0 0l10.72 5.15L7.12 0Z" style="stroke:none;fill:#900;stroke-width:1" transform="rotate(-90 151.55 -46.291)"/></g></g></svg><svg xmlns="http://www.w3.org/2000/svg" xmlns:xlink="http://www.w3.org/1999/xlink" width="246" height="212.563" style="width:246px;height:212.5625px;font-family:Asana-Math,Asana;background:0 0"><path fill="#000" stroke="#000" stroke-width=".095" d="M69.23 164.357c.035-.453.094-.833.19-1.321-.131-.06-.179-.072-.238-.072-.37 0-.738.286-1.167.893-.464.666-.928 1.38-1.118 1.797l.38-1.81c.048-.201.072-.356.072-.499 0-.238-.095-.38-.274-.38-.25 0-.702.25-1.582.88l-.334.238.084.238.38-.25c.334-.214.465-.274.572-.274.119 0 .202.107.202.262 0 .69-.512 3.142-.988 4.665l.12.083c.178-.06.368-.095.642-.155l.155-.023.309-1.428c.214-.988.488-1.619 1.012-2.297.404-.524.725-.774.987-.774.179 0 .298.06.429.227ZM57.812 73.57l-.143-.13c-.619.31-1.047.416-1.904.5l-.047.25h.57c.286 0 .405.083.405.261 0 .036 0 .095-.035.31-.131.654-1 5.236-1.178 5.83-.155.596-.227.953-.227 1.203 0 .297.131.476.357.476.31 0 .738-.25 1.904-1.119l-.119-.214-.309.202c-.345.226-.607.357-.726.357-.083 0-.155-.119-.155-.238 0-.071.012-.155.048-.333Z"/><path fill="#900" stroke="#900" stroke-width=".095" d="M52.01 134.752c-.215-1.356-.762-2.356-2.274-2.356-3.094 0-3.522 3.451-3.117 5.986.226 1.416.833 2.558 2.451 2.558 2.808 0 3.284-3.95 2.94-6.188Zm-.822 1.464h-3.76c.083-1.238.607-3.51 2.142-3.51 1.023 0 1.416 1.082 1.547 1.892.083.535.071 1.083.071 1.618Zm0 .38c-.06 1.334-.285 4-1.987 4-1.214 0-1.547-1.334-1.69-2.262-.095-.583-.083-1.166-.083-1.737Z"/><path fill="#900" stroke="#900" stroke-width=".136" d="M179.302 96.448c.357 0 .578-.017 1.003-.068-.935 1.258-2.618 2.686-2.618 5.066 0 1.394.595 2.329 1.496 2.329 1.088 0 1.972-.935 3.23-3.366-.153.748-.204 1.173-.204 1.564 0 1.07.493 1.802 1.258 1.802 2.278 0 4.879-4.233 4.879-6.715 0-.97-.442-1.666-1.054-1.666-.221 0-.425.068-.561.204l-.85.799.187.323a.8.8 0 0 1 .459-.153c.459 0 .73.39.73 1.07 0 2.466-1.648 5.288-3.093 5.288-.493 0-.85-.68-.85-1.615 0-.8.153-1.921.357-2.652l.884-3.128-.12-.136-1.257.374-.493 2.533c-.204 1.054-.442 1.734-.935 2.652-.68 1.275-1.326 1.972-1.836 1.972-.595 0-.986-.663-.986-1.65 0-2.022.697-3.671 2.38-5.575l-.17-.306c-.34.153-.561.204-1.037.204s-1.19-.034-1.683-.085l-.204-.017c-.102-.017-.187-.017-.204-.017-.204 0-.357.034-.544.119-.238.459-.425 1.07-.646 2.006h.374l.289-.714c.119-.29.459-.476.867-.476.578 0 .289.034.952.034Z"/><svg width="13.113" height="10" x="176.463" y="84.588" overflow="visible"><path d="M13.11 4.85 9.96 1.53l-.49.52 1.93 2.33h-.15v.9h.15L9.47 7.61l.49.52zm-11.43.38h10.97v-.9H1.68z" style="fill:#900;fill-opacity:1;stroke-width:1px;stroke:none;stroke-opacity:1"/></svg><path fill="#900" stroke="#900" stroke-width=".136" d="M180.43 23.38h1.241c1.326 0 1.938.086 1.989.29.051.136.085.459.068.629l-.068 1.088h.476l.459-2.788-1.547.017c-1.496.017-2.652.034-3.247.034-.629 0-1.717-.017-3.179-.034l-1.615-.017-.306 2.788h.493l.255-1.02c.085-.374.204-.646.306-.765.102-.12.748-.221 1.377-.221h1.904l-1.462 8.857c-.272 1.547-.306 1.598-.986 1.649l-.867.05-.068.477.969-.017c.68-.017 1.173-.034 1.445-.034.323 0 .85.017 1.513.034l.748.017.051-.476-1.003-.051c-.442-.017-.612-.153-.612-.51 0-.153.017-.272.068-.595Z"/><svg width="11.225" height="10" x="173.8" y="11.363" overflow="visible"><path d="M11.23 4.85 8.08 1.53l-.49.52 1.93 2.33h-.15v.9h.15L7.59 7.61l.49.52zm-9.55.38h9.08v-.9H1.68z" style="fill:#900;fill-opacity:1;stroke-width:1px;stroke:none;stroke-opacity:1"/></svg><path fill="#900" stroke="#900" stroke-width=".095" d="M184.592 43.005c-.012.083-.012.154-.012.214 0 .511.44.928.976.928 1.261 0 2.57-1.476 3.272-3.677l1.678-5.236-.13-.107c-.346.13-.62.202-.882.226l-.416 1.57c-.143.56-.56 1.429-.952 2.012-.417.607-1 1.13-1.261 1.13-.143 0-.25-.273-.238-.571l.19-2.463c.024-.37.048-.821.048-1.155 0-.535-.084-.75-.286-.75-.155 0-.321.084-.893.477l-.975.666.13.214.596-.357c.06-.035.19-.142.297-.142.167 0 .262.226.262.618 0 .012 0 .084-.012.179l-.202 2.892-.012.476c0 .5.214.844.511.844.44 0 1.44-1.011 2.333-2.356l-.583 2.035c-.607 2.106-1.202 2.975-2.035 2.975a.727.727 0 0 1-.738-.738c0-.06.012-.154.024-.261l-.12-.048Z"/><path fill="#900" stroke="#900" stroke-width=".136" d="M228.53 76.23h1.241c1.326 0 1.938.086 1.989.29.051.136.085.459.068.629l-.068 1.088h.476l.459-2.788-1.547.017c-1.496.017-2.652.034-3.247.034-.629 0-1.717-.017-3.179-.034l-1.615-.017-.306 2.788h.493l.255-1.02c.085-.374.204-.646.306-.765.102-.12.748-.221 1.377-.221h1.904l-1.462 8.857c-.272 1.547-.306 1.598-.986 1.649l-.867.05-.068.477.969-.017c.68-.017 1.173-.034 1.445-.034.323 0 .85.017 1.513.034l.748.017.051-.476-1.003-.051c-.442-.017-.612-.153-.612-.51 0-.153.017-.272.068-.595Z"/><svg width="11.225" height="10" x="221.9" y="64.213" overflow="visible"><path d="M11.23 4.85 8.08 1.53l-.49.52 1.93 2.33h-.15v.9h.15L7.59 7.61l.49.52zm-9.55.38h9.08v-.9H1.68z" style="fill:#900;fill-opacity:1;stroke-width:1px;stroke:none;stroke-opacity:1"/></svg><path fill="#900" stroke="#900" stroke-width=".095" d="M232.882 93.7c.179.096.369.143.512.143.393 0 .857-.345 1.226-.904l.904-1.392.13.82c.156 1.012.43 1.476.858 1.476.261 0 .642-.202 1.023-.547l.583-.524-.107-.226c-.428.357-.726.536-.916.536-.179 0-.333-.12-.452-.357a4.7 4.7 0 0 1-.298-1.012l-.214-1.202.416-.583c.56-.773.88-1.047 1.25-1.047.19 0 .333.095.393.274l.166-.048.179-1.011c-.143-.084-.25-.12-.357-.12-.476 0-.952.43-1.69 1.524l-.44.654-.072-.57c-.143-1.179-.464-1.607-1.166-1.607-.31 0-.571.095-.678.25l-.69.987.202.12c.357-.405.595-.572.82-.572.394 0 .655.488.858 1.654l.13.738-.475.738c-.512.797-.917 1.178-1.25 1.178-.178 0-.31-.048-.333-.107l-.131-.333-.238.035c0 .417-.095.726-.143 1.036Z"/></svg></svg>