<svg xmlns="http://www.w3.org/2000/svg" width="328.6" height="309" style="width:328.6000061035156px;height:309px;background:0 0;fill:none"><svg xmlns="http://www.w3.org/2000/svg"/><svg xmlns="http://www.w3.org/2000/svg" class="role-diagram-draw-area"><g class="shapes-region" style="stroke:#000;fill:none"><g class="composite-shape"><path stroke="none" d="M290.33 152.83c0 77.05-62.45 139.5-139.5 139.5-77.04 0-139.5-62.45-139.5-139.5 0-77.04 62.46-139.5 139.5-139.5 77.05 0 139.5 62.46 139.5 139.5h-139.5Z" class="real" style="stroke-width:1;stroke:none;fill:none;fill-opacity:1;stroke-dasharray:3"/><path d="M290.33 152.83c0 77.05-62.45 139.5-139.5 139.5-77.04 0-139.5-62.45-139.5-139.5 0-77.04 62.46-139.5 139.5-139.5 77.05 0 139.5 62.46 139.5 139.5Z" class="real" style="stroke-width:1;stroke:#000;fill:none;fill-opacity:1;stroke-dasharray:3"/></g><g class="arrow-line"><path d="m150.83 152.83 120.99 69.85" class="connection real" style="stroke:#000;stroke-width:1;fill:none;fill-opacity:1"/></g><g class="arrow-line"><path d="m150.83 152.83 120.48-69.55" class="connection real" style="stroke:#000;stroke-width:1;fill:none;fill-opacity:1"/></g><g class="composite-shape"><path d="M267.84 83.28c0-1.92 1.55-3.47 3.47-3.47 1.91 0 3.47 1.55 3.47 3.47a3.47 3.47 0 0 1-3.47 3.46c-1.92 0-3.47-1.55-3.47-3.46Z" class="real" style="stroke-width:1;stroke:#900;stroke-opacity:1;fill:#900;fill-opacity:1"/></g><g class="arrow-line"><path d="m271.31 83.28-35.13-60.84" class="connection real" style="stroke:#900;stroke-opacity:1;stroke-width:2;fill:none;fill-opacity:1"/><path stroke="#900" d="M14.21-4.28Q6.45-.59 0 0q6.45.59 14.21 4.28" style="stroke:#900;stroke-width:2" transform="rotate(60 100.16 213.163)"/></g><g class="arrow-line"><path d="m213.67 116.56 57.64-33.28" class="connection real" style="stroke:#900;stroke-opacity:1;stroke-width:1;fill:none;fill-opacity:1"/><path fill="#900" stroke="none" d="M10.72-5.15 0 0l10.72 5.15L7.12 0Z" style="stroke:none;fill:#900;stroke-width:1" transform="rotate(-30 325.83 -334.837)"/></g><g class="arrow-line"><path d="m271.82 222.68 35.12-60.83" class="connection real" style="stroke:#900;stroke-opacity:1;stroke-width:2;fill:none;fill-opacity:1"/><path stroke="#900" d="M14.21-4.28Q6.45-.59 0 0q6.45.59 14.21 4.28" style="stroke:#900;stroke-width:2" transform="rotate(120 108.25 168.663)"/></g><g class="composite-shape"><path d="M268.35 222.68c0-1.91 1.55-3.46 3.47-3.46 1.91 0 3.46 1.55 3.46 3.46a3.465 3.465 0 1 1-6.93 0Z" class="real" style="stroke-width:1;stroke:#900;stroke-opacity:1;fill:#900;fill-opacity:1"/></g><g class="arrow-line"><path d="m211.24 187.93 60.58 34.75" class="connection real" style="stroke:#900;stroke-opacity:1;stroke-width:1;fill:none;fill-opacity:1"/><path fill="#900" stroke="none" d="M10.72-5.15 0 0l10.72 5.15L7.12 0Z" style="stroke:none;fill:#900;stroke-width:1" transform="rotate(29.84 -245.535 484.733)"/></g><g class="composite-shape"><path d="M149.1 152.83c0-.95.78-1.73 1.73-1.73.96 0 1.74.78 1.74 1.73 0 .96-.78 1.74-1.74 1.74-.95 0-1.73-.78-1.73-1.74Z" class="real" style="stroke-width:1;stroke:#000;stroke-opacity:1;fill:#000;fill-opacity:1"/></g></g></svg><svg xmlns="http://www.w3.org/2000/svg" xmlns:xlink="http://www.w3.org/1999/xlink" width="327" height="307.4" style="width:327px;height:307.3999938964844px;font-family:Asana-Math,Asana;background:0 0"><path fill="#900" stroke="#900" stroke-width=".136" d="M215.03 165.818h1.241c1.326 0 1.938.085 1.989.289.051.136.085.459.068.629l-.068 1.088h.476l.459-2.788-1.547.017c-1.496.017-2.652.034-3.247.034-.629 0-1.717-.017-3.179-.034l-1.615-.017-.306 2.788h.493l.255-1.02c.085-.374.204-.646.306-.765s.748-.221 1.377-.221h1.904l-1.462 8.857c-.272 1.547-.306 1.598-.986 1.649l-.867.051-.068.476.969-.017c.68-.017 1.173-.034 1.445-.034.323 0 .85.017 1.513.034l.748.017.051-.476-1.003-.051c-.442-.017-.612-.153-.612-.51 0-.153.017-.272.068-.595Z"/><svg width="11.225" height="10" x="208.4" y="153.8" overflow="visible"><path d="M11.23 4.85 8.08 1.53l-.49.52 1.93 2.33h-.15v.9h.15L7.59 7.61l.49.52zm-9.55.38h9.08v-.9H1.68z" style="fill:#900;fill-opacity:1;stroke-width:1px;stroke:none;stroke-opacity:1"/></svg><path fill="#900" stroke="#900" stroke-width=".136" d="M314.06 171.897c.356 0 .628-.017 1.07-.068-1.887 2.04-2.6 3.451-2.6 5.151 0 1.31.781 2.244 1.87 2.244 2.345 0 4.946-4.199 4.946-6.715 0-.969-.442-1.666-1.054-1.666-.22 0-.425.068-.56.204l-.85.8.186.322a.8.8 0 0 1 .46-.153c.458 0 .73.391.73 1.071 0 2.516-1.649 5.287-3.145 5.287-.833 0-1.36-.714-1.36-1.819 0-1.785.663-3.332 2.33-5.406l-.17-.306c-.34.153-.562.204-1.038.204s-1.19-.034-1.683-.085l-.204-.017c-.102-.017-.187-.017-.204-.017-.204 0-.357.034-.544.12-.238.458-.425 1.07-.646 2.005h.374l.29-.714c.118-.289.458-.476.866-.476.561 0 .29.034.935.034Z"/><svg width="9.35" height="10" x="311.237" y="160.037" overflow="visible"><path d="M9.35 4.85 6.2 1.53l-.49.52 1.93 2.33h-.15v.9h.15L5.71 7.61l.49.52zm-7.67.38h7.21v-.9H1.68z" style="fill:#900;fill-opacity:1;stroke-width:1px;stroke:none;stroke-opacity:1"/></svg><path fill="#900" stroke="#900" stroke-width=".136" d="M207.555 95.418h1.241c1.326 0 1.938.085 1.989.289.051.136.085.459.068.629l-.068 1.088h.476l.459-2.788-1.547.017c-1.496.017-2.652.034-3.247.034-.629 0-1.717-.017-3.179-.034l-1.615-.017-.306 2.788h.493l.255-1.02c.085-.374.204-.646.306-.765s.748-.221 1.377-.221h1.904l-1.462 8.857c-.272 1.547-.306 1.598-.986 1.649l-.867.051-.068.476.969-.017c.68-.017 1.173-.034 1.445-.034.323 0 .85.017 1.513.034l.748.017.051-.476-1.003-.051c-.442-.017-.612-.153-.612-.51 0-.153.017-.272.068-.595Z"/><svg width="11.225" height="10" x="200.925" y="83.4" overflow="visible"><path d="M11.23 4.85 8.08 1.53l-.49.52 1.93 2.33h-.15v.9h.15L7.59 7.61l.49.52zm-9.55.38h9.08v-.9H1.68z" style="fill:#900;fill-opacity:1;stroke-width:1px;stroke:none;stroke-opacity:1"/></svg><path fill="#900" stroke="#900" stroke-width=".136" d="M256.422 28.585c.357 0 .629-.017 1.071-.068-1.887 2.04-2.601 3.451-2.601 5.151 0 1.309.782 2.244 1.87 2.244 2.346 0 4.947-4.199 4.947-6.715 0-.969-.442-1.666-1.054-1.666-.221 0-.425.068-.561.204l-.85.799.187.323a.8.8 0 0 1 .459-.153c.459 0 .731.391.731 1.071 0 2.516-1.649 5.287-3.145 5.287-.833 0-1.36-.714-1.36-1.819 0-1.785.663-3.332 2.329-5.406l-.17-.306c-.34.153-.561.204-1.037.204s-1.19-.034-1.683-.085l-.204-.017c-.102-.017-.187-.017-.204-.017-.204 0-.357.034-.544.119-.238.459-.425 1.071-.646 2.006h.374l.289-.714c.119-.289.459-.476.867-.476.561 0 .289.034.935.034Z"/><svg width="9.35" height="10" x="253.6" y="16.725" overflow="visible"><path d="M9.35 4.85 6.2 1.53l-.49.52 1.93 2.33h-.15v.9h.15L5.71 7.61l.49.52zm-7.67.38h7.21v-.9H1.68z" style="fill:#900;fill-opacity:1;stroke-width:1px;stroke:none;stroke-opacity:1"/></svg></svg></svg>