<svg xmlns="http://www.w3.org/2000/svg" width="238.6" height="153.688" style="width:238.5999959309896px;height:153.6875px;background:0 0;fill:none"><svg xmlns="http://www.w3.org/2000/svg"/><svg xmlns="http://www.w3.org/2000/svg" class="role-diagram-draw-area" style="overflow:visible"><g class="shapes-region" style="stroke:#000;fill:none"><g class="grouped-shape"><g class="composite-shape"><path d="m30.06 62.34 41.46-21.13L85.83 69.3 44.37 90.42Z" class="real" style="stroke-width:1;stroke:#900;stroke-opacity:1;fill:#900;fill-opacity:.5"/></g></g><g class="arrow-line"><path d="M132.8 19.74 76 49.1" class="connection real" style="stroke:#000;stroke-width:1;fill:none;fill-opacity:1"/></g><g class="composite-shape"><path d="M128.02 27.82c0-5.1 4.13-9.23 9.23-9.23 5.09 0 9.22 4.13 9.22 9.23 0 5.09-4.13 9.22-9.22 9.22-5.1 0-9.23-4.13-9.23-9.22Z" class="real" style="stroke-width:1;stroke:#000;fill:#000;fill-opacity:.5"/></g><g class="arrow-line"><path d="m137.25 27.82 2.88 14.01" class="connection real" style="stroke:#000;stroke-width:2;fill:none;fill-opacity:1"/><path d="M0 2.68v-5.36m-2.41 5.36v-5.36" style="stroke:#000;stroke-width:2" transform="rotate(258.39 87.116 -36.22)"/><circle r="1.742" fill="#000" style="stroke:#000;fill:#000;stroke-width:2" transform="rotate(78.39 51.568 98.066)"/></g><g class="grouped-shape"><g class="composite-shape"><path d="M200.72 13.61h23.38v28.55h-23.38Z" class="real" style="stroke-width:1;stroke:#900;stroke-opacity:1;fill:#900;fill-opacity:.5"/></g></g><g class="arrow-line"><path d="m27.81 99.93 112.35-57.24" class="connection real" style="stroke:#000;stroke-width:1;fill:none;fill-opacity:1"/></g><g class="arrow-line"><path d="M369.6 42.69H140.16" class="connection real" style="stroke:#000;stroke-width:1;fill:none;fill-opacity:1"/></g><g class="arrow-line"><path stroke-dasharray="3" d="M257.25 99.93H27.81" class="connection real" style="stroke:#000;stroke-width:1;fill:none;fill-opacity:1"/></g><g class="arrow-line"><path d="M27.81 99.93v57.15" class="connection real" style="stroke:#000;stroke-width:1;fill:none;fill-opacity:1"/></g><g class="composite-shape"><path stroke="none" d="M45.15 91.1c1.35 2.65 2.11 5.65 2.11 8.83H27.81Z" class="real" style="stroke-width:1;stroke:none;fill:none;fill-opacity:1;stroke-opacity:1"/><path d="M45.15 91.1c1.35 2.65 2.11 5.65 2.11 8.83" class="real" style="stroke-width:1;stroke:#900;fill:none;fill-opacity:1;stroke-opacity:1"/></g><g class="arrow-line"><path d="m200.72 18.86-63.47-.27" class="connection real" style="stroke:#000;stroke-width:1;fill:none;fill-opacity:1"/></g><g class="composite-shape"><defs><pattern id="_pgfn7jcgc5brdg-full-view" width="11.314" height="11.314" x="0" y="0" patternTransform="rotate(45 0 0)" patternUnits="userSpaceOnUse"><path d="M0 0v11.314M5.657 0v11.314M11.314 0v11.314" style="stroke:#000;stroke-opacity:1;stroke-width:1;fill:none"/></pattern></defs><path stroke="none" d="M140.16 42.69H255v6.92H140.16Z" class="real" style="stroke-width:1;stroke:none;fill:url(#_pgfn7jcgc5brdg-full-view);fill-opacity:1;stroke-opacity:1"/></g></g></svg><svg xmlns="http://www.w3.org/2000/svg" xmlns:xlink="http://www.w3.org/1999/xlink" width="237" height="152.088" style="width:237.00000000000003px;height:152.0875040690104px;font-family:Asana-Math,Asana;background:0 0"><path fill="#fff" stroke="#fff" stroke-width=".136" d="m62.87 58.262-.042-.57c-.455.156-2.697 1.26-2.658 1.412l-.084 3.019-.469 8.29-6.733-7.597c-.302.268-2.196 1.157-2.53 1.289l.171.447.41-.17c.818-.34 1.168-.328 1.368.066.047.09 1.818 9.033 1.841 9.155.16.91.033 1.223-.762 1.724l.155.417.583-.317c.508-.277.879-.485 1.09-.593.213-.108.614-.294 1.152-.549l.538-.255-.17-.447-.6.248c-.5.216-.834.196-.95-.031a2.7 2.7 0 0 1-.21-.675l-1.703-7.985 6.718 7.605.348-.178.06-2.015.426-8.115.116-1.72 3.453 8.162c.155.455.027.654-.714 1.108l-.447.285.171.447.704-.378c.629-.339 1.075-.586 1.303-.701.242-.124.704-.34 1.333-.642l.704-.34-.17-.447-.584.24c-.568.233-.926.205-1.088-.113l-.27-.568-3.478-8.36c-.116-.303.034-.57.458-.824Zm155.334-25.325-.442.289c-.493.323-.867.51-1.037.51-.12 0-.221-.153-.221-.34 0-.17.034-.323.119-.68l1.275-5.05c.068-.288.119-.56.119-.696 0-.29-.17-.476-.442-.476-.493 0-1.14.306-2.176 1.037-1.071.765-1.666 1.36-2.5 2.533l.51-2.33c.069-.34.12-.594.12-.713 0-.323-.17-.527-.442-.527-.51 0-1.292.374-2.227 1.088-.748.578-1.088.935-2.193 2.43l.56-2.26a3 3 0 0 0 .103-.731c0-.323-.153-.527-.391-.527-.357 0-1.003.357-2.261 1.258l-.476.34.119.34c.629-.391 1.224-.782 1.343-.782.187 0 .306.17.306.425 0 .867-.697 4.148-1.394 6.579l.05.187 1.157-.255.374-1.734c.408-1.887.867-2.89 1.802-3.91.714-.782 1.479-1.292 1.955-1.292.119 0 .187.136.187.357 0 .595-.374 2.533-1.071 5.508l-.272 1.139.085.187 1.173-.255.357-1.82c.272-1.376.85-2.651 1.598-3.484.935-1.037 1.785-1.632 2.329-1.632.136 0 .22.153.22.425 0 .408-.05.646-.424 2.125-.68 2.703-.952 3.06-.952 3.96 0 .426.187.68.51.68.442 0 1.054-.356 2.72-1.597Z"/><path fill="#900" stroke="#900" stroke-width=".109" d="M58.018 96.475v.353c2.543 0 2.543-.04 3.032-.04.49 0 .49.04 3.115.04v-1.156c-1.564.068-2.19.014-4.706.068l2.475-2.624c1.32-1.401 1.728-2.15 1.728-3.17 0-1.563-1.061-2.529-2.788-2.529-.98 0-1.646.272-2.312.952l-.232 1.85h.395l.177-.626c.217-.789.707-1.129 1.618-1.129 1.17 0 1.918.735 1.918 1.89 0 1.02-.572 2.027-2.108 3.66Zm12.13-7.888L65.227 96.8h1.496l4.624-8.976v-.408h-6.161V90.3h.408l.095-.761c.109-.843.204-.952.83-.952Zm3.931-1.17a2.034 2.034 0 0 0-2.026 2.04c0 1.129.911 2.04 2.04 2.04 1.101 0 2.04-.925 2.04-2.013a2.055 2.055 0 0 0-2.054-2.067Zm0 .544c.83 0 1.51.68 1.51 1.523 0 .79-.68 1.47-1.496 1.47-.83 0-1.496-.667-1.496-1.497s.666-1.496 1.482-1.496Z"/></svg></svg>