<svg xmlns="http://www.w3.org/2000/svg" width="238.6" height="142.087" style="width:238.60001046316964px;height:142.0874982561384px;background:0 0;fill:none"><svg xmlns="http://www.w3.org/2000/svg"/><svg xmlns="http://www.w3.org/2000/svg" class="role-diagram-draw-area" style="overflow:visible"><g class="shapes-region" style="stroke:#000;fill:none"><g class="composite-shape"><path d="M-106.33 99.13h250v143.84h-250Z" class="real" style="stroke-width:1;stroke:#000;fill:none;fill-opacity:1"/></g><g class="composite-shape"><path d="M33.37 45.64h52.52v52.53H33.37Z" class="real" style="stroke-width:1;stroke:#900;stroke-opacity:1;fill:#900;fill-opacity:.5"/></g><g class="composite-shape"><path d="m148.17 107.07 7.29-7.3h9.19l7.29 7.3v13.54h-23.77Z" class="real" style="stroke-width:1;stroke:#900;stroke-opacity:1;fill:#900;fill-opacity:.5"/></g><g class="arrow-line"><path d="M86.17 72.27h64.16" class="connection real" style="stroke:#000;stroke-width:1;fill:none;fill-opacity:1"/></g><g class="arrow-line"><path d="m159.82 81.53.01 18.41" class="connection real" style="stroke:#000;stroke-width:1;fill:none;fill-opacity:1"/></g><g class="composite-shape"><path d="M141.37 81.53c0-5.09 4.13-9.22 9.23-9.22 5.09 0 9.22 4.13 9.22 9.22 0 5.1-4.13 9.23-9.22 9.23-5.1 0-9.23-4.13-9.23-9.23Z" class="real" style="stroke-width:1;stroke:#000;fill:#000;fill-opacity:.5"/></g><g class="arrow-line"><path d="m150.6 81.53-6.96 16.92" class="connection real" style="stroke:#000;stroke-width:2;fill:none;fill-opacity:1"/><path d="M0 2.68v-5.36m-2.41 5.36v-5.36" style="stroke:#000;stroke-width:2" transform="rotate(-67.64 145.294 -57.981)"/><circle r="1.742" fill="#000" style="stroke:#000;fill:#000;stroke-width:2" transform="rotate(112.36 47.988 91.214)"/></g><g class="composite-shape"><path d="M39.37 20.63h25v25.01h-25Z" class="real" style="stroke-width:1;stroke:#900;stroke-opacity:1;fill:#900;fill-opacity:.5"/></g><g class="composite-shape"><defs><pattern id="_pgfgq4we6yz6dg-full-view" width="11.314" height="11.314" x="0" y="0" patternTransform="rotate(45 0 0)" patternUnits="userSpaceOnUse"><path d="M0 0v11.314M5.657 0v11.314M11.314 0v11.314" style="stroke:#000;stroke-opacity:1;stroke-width:1;fill:none"/></pattern></defs><path stroke="none" d="M-5.8 99.07h149.43V106H-5.8Z" class="real" style="stroke-width:1;stroke:none;stroke-opacity:1;fill:url(#_pgfgq4we6yz6dg-full-view);fill-opacity:1"/></g></g></svg><svg xmlns="http://www.w3.org/2000/svg" xmlns:xlink="http://www.w3.org/1999/xlink" width="237" height="140.488" style="width:237px;height:140.48750523158483px;font-family:Asana-Math,Asana;background:0 0"><path fill="#fff" stroke="#fff" stroke-width=".136" d="M62.877 77.765c0 .272-.255.425-.731.459l-.748.051v.476c1.734-.051 1.734-.051 2.074-.051s.34 0 2.074.051v-.476l-.442-.051c-.8-.119-.816-.119-.952-.884l-1.48-10.625h-.781L55.55 76.796c-.612.952-.918 1.224-1.496 1.36l-.34.085v.51c1.564-.051 1.564-.051 1.904-.051.323 0 .357 0 1.819.051v-.476l-.884-.051c-.272-.017-.527-.17-.527-.323 0-.136.119-.374.442-.935l1.734-2.975h4.182l.425 3.196v.051c0 .034.068.289.068.527Zm-1.207-9.282.629 4.896h-3.672Zm102.386 44.645c0-1.87-1.428-2.142-2.822-2.346.969-.34 1.394-.544 1.921-1.02.782-.663 1.173-1.462 1.173-2.329 0-1.394-.986-2.21-2.686-2.21-.034 0-.204 0-.459.017l-1.071.017c-.204.017-.816.017-1.02.017-.323 0-.85-.017-1.683-.034l-.884-.017-.051.476.901.034c.408.017.595.153.595.46 0 .237-.068.781-.153 1.291l-1.479 8.568c-.068.306-.272.425-.986.544l-.085.442.629-.017c.459-.034.714-.034.918-.034.187 0 .629.017 1.071.034l.629.017.34.017c.323.017.544.034.68.034 1.955 0 4.522-1.58 4.522-3.96Zm-6.409 3.162.867-5.083h1.445c1.751 0 2.601.714 2.601 2.193 0 1.751-1.241 3.01-2.941 3.01-.918 0-1.275-.069-1.972-.12Zm3.162-10.438c1.377 0 2.057.612 2.057 1.887 0 1.785-1.258 2.856-3.366 2.856h-.884l.833-4.658c.272 0 .969-.085 1.36-.085ZM46.784 35.11c0 3.298 1.819 5.134 5.066 5.134 1.632 0 2.839-.391 4.369-1.445l.17-.612-.17-.12c-1.598.97-2.482 1.276-3.808 1.276-2.67 0-4.131-1.632-4.131-4.658 0-2.346.969-5.848 4.845-5.848 1.207 0 2.09.238 3.043.85v1.428h.459c.085-.97.22-1.7.459-2.482-1.292-.493-2.261-.697-3.315-.697-3.06 0-6.987 2.176-6.987 7.174Z"/></svg></svg>