<svg xmlns="http://www.w3.org/2000/svg" width="161.6" height="168.275" style="width:161.60000610351562px;height:168.27500915527344px;background:0 0;fill:none"><svg xmlns="http://www.w3.org/2000/svg"/><svg xmlns="http://www.w3.org/2000/svg" class="role-diagram-draw-area"><g class="shapes-region" style="stroke:#000;fill:none"><g class="composite-shape"><path d="M61.94 41.27c0-10.49 8.51-18.99 18.99-18.99 10.49 0 18.99 8.5 18.99 18.99 0 10.48-8.5 18.99-18.99 18.99-10.48 0-18.99-8.51-18.99-18.99Z" class="real" style="stroke-width:1;stroke:#000;fill:#000;fill-opacity:.5"/></g><g class="composite-shape"><path d="M-41-28.67h244v40H-41Z" class="real" style="stroke-width:1;stroke:#000;fill:none;fill-opacity:1"/></g><g class="arrow-line"><path d="M80.93 41.27V12.33" class="connection real" style="stroke:#000;stroke-width:1;fill:none;fill-opacity:1"/><path d="M0 2.24v-4.48m-2.01 4.48v-4.48" style="stroke:#000;stroke-width:1" transform="rotate(90 34.302 46.631)"/><circle r="1.34" fill="#000" style="stroke:#000;fill:#000;stroke-width:1" transform="rotate(-90 61.1 -19.833)"/></g><g class="arrow-line"><path d="M61.94 41.27v48.92" class="connection real" style="stroke:#000;stroke-width:1;fill:none;fill-opacity:1"/></g><g class="arrow-line"><path d="M99.92 41.27v65.2" class="connection real" style="stroke:#000;stroke-width:1;fill:none;fill-opacity:1"/></g><g class="composite-shape"><path d="M48.57 90h26.74v40H48.57Z" class="real" style="stroke-width:1;stroke:#900;stroke-opacity:1;fill:#900;fill-opacity:.5"/></g><g class="composite-shape"><path d="M86.57 106.29h26.74v40H86.57Z" class="real" style="stroke-width:1;stroke:#900;stroke-opacity:1;fill:#900;fill-opacity:.5"/></g></g></svg><svg xmlns="http://www.w3.org/2000/svg" xmlns:xlink="http://www.w3.org/1999/xlink" width="160" height="166.675" style="width:160px;height:166.6750030517578px;font-family:Asana-Math,Asana;background:0 0"><path fill="#fff" stroke="#fff" stroke-width=".136" d="m107.76 121.787.221-.527c-.476-.068-2.975-.102-3.009.051l-1.445 2.652-4.182 7.174-2.55-9.826c-.39.102-2.482.034-2.839 0l-.05.476.441.034c.884.068 1.19.238 1.19.68 0 .102-2.482 8.874-2.516 8.993-.272.884-.527 1.105-1.462 1.19l-.05.442.662-.017c.578-.017 1.003-.034 1.241-.034s.68.017 1.275.034l.595.017.051-.476-.646-.051c-.544-.034-.833-.204-.833-.459 0-.17.034-.391.12-.697l2.107-7.888 2.533 9.826h.391l.97-1.768 4.062-7.038.884-1.479-.629 8.84c-.068.476-.272.595-1.139.663l-.527.051-.05.476.798-.017c.714-.017 1.224-.034 1.48-.034.271 0 .781.017 1.478.034l.782.017.051-.476-.629-.051c-.612-.051-.918-.238-.918-.595l.017-.629.697-9.027c.034-.323.29-.493.782-.527Zm-40.019-6.738-.442.289c-.493.323-.867.51-1.037.51-.119 0-.22-.153-.22-.34 0-.17.033-.323.118-.68l1.275-5.049c.068-.289.12-.561.12-.697 0-.289-.17-.476-.443-.476-.493 0-1.139.306-2.176 1.037-1.07.765-1.666 1.36-2.499 2.533l.51-2.329c.068-.34.12-.595.12-.714 0-.323-.17-.527-.443-.527-.51 0-1.292.374-2.227 1.088-.748.578-1.088.935-2.193 2.431l.561-2.261c.068-.272.102-.527.102-.731 0-.323-.153-.527-.39-.527-.358 0-1.004.357-2.262 1.258l-.476.34.12.34c.628-.391 1.223-.782 1.342-.782.187 0 .306.17.306.425 0 .867-.697 4.148-1.394 6.579l.051.187 1.156-.255.374-1.734c.408-1.887.867-2.89 1.802-3.91.714-.782 1.48-1.292 1.955-1.292.12 0 .187.136.187.357 0 .595-.374 2.533-1.07 5.508l-.273 1.139.085.187 1.173-.255.357-1.819c.272-1.377.85-2.652 1.598-3.485.935-1.037 1.785-1.632 2.33-1.632.135 0 .22.153.22.425 0 .408-.05.646-.425 2.125-.68 2.703-.952 3.06-.952 3.961 0 .425.187.68.51.68.442 0 1.054-.357 2.72-1.598Z"/></svg></svg>