<svg xmlns="http://www.w3.org/2000/svg" xmlns:xlink="http://www.w3.org/1999/xlink" x="0" y="0" width="238.5999959309896" height="153.6875" style="
        width:238.5999959309896px;
        height:153.6875px;
        background: transparent;
        fill: none;
">
        <svg xmlns="http://www.w3.org/2000/svg"/>
        
        <svg xmlns="http://www.w3.org/2000/svg" class="role-diagram-draw-area" style="overflow: visible;"><g class="shapes-region" style="stroke: black; fill: none;"><g class="grouped-shape"><g class="composite-shape"><path class="real" d=" M30.06,62.34 L71.52,41.21 L85.83,69.3 L44.37,90.42 Z" style="stroke-width: 1; stroke: rgb(153, 0, 0); stroke-opacity: 1; fill: rgb(153, 0, 0); fill-opacity: 0.5;"/></g></g><g class="arrow-line"><path class="connection real" stroke-dasharray="" d="  M132.8,19.74 L76,49.1" style="stroke: rgb(0, 0, 0); stroke-width: 1; fill: none; fill-opacity: 1;"/></g><g class="composite-shape"><path class="real" d=" M128.02,27.82 C128.02,22.72 132.15,18.59 137.25,18.59 C142.34,18.59 146.47,22.72 146.47,27.82 C146.47,32.91 142.34,37.04 137.25,37.04 C132.15,37.04 128.02,32.91 128.02,27.82 Z" style="stroke-width: 1; stroke: rgb(0, 0, 0); fill: rgb(0, 0, 0); fill-opacity: 0.5;"/></g><g class="arrow-line"><path class="connection real" stroke-dasharray="" d="  M137.25,27.82 L140.13,41.83" style="stroke: rgb(0, 0, 0); stroke-width: 2; fill: none; fill-opacity: 1;"/><g stroke="#000" transform="matrix(-0.20124888621627035,-0.9795401399619674,0.9795401399619674,-0.20124888621627035,140.1261405355576,41.82547655988901)" style="stroke: rgb(0, 0, 0); stroke-width: 2;"><path d=" M0,2.68 L0,-2.68 M-2.41,2.68 L-2.41,-2.68"/></g><g stroke="#000" fill="#000" transform="matrix(0.20124888621627024,0.9795401399619674,-0.9795401399619674,0.20124888621627024,137.24895706176764,27.817707570393935)" style="stroke: rgb(0, 0, 0); fill: rgb(0, 0, 0); stroke-width: 2;"><circle cx="0" cy="0" r="1.7420000000000002"/></g></g><g class="grouped-shape"><g class="composite-shape"><path class="real" d=" M200.72,13.61 L224.1,13.61 L224.1,42.16 L200.72,42.16 Z" style="stroke-width: 1; stroke: rgb(153, 0, 0); stroke-opacity: 1; fill: rgb(153, 0, 0); fill-opacity: 0.5;"/></g></g><g class="arrow-line"><path class="connection real" stroke-dasharray="" d="  M27.81,99.93 L140.16,42.69" style="stroke: rgb(0, 0, 0); stroke-width: 1; fill: none; fill-opacity: 1;"/></g><g class="arrow-line"><path class="connection real" stroke-dasharray="" d="  M369.6,42.69 L140.16,42.69" style="stroke: rgb(0, 0, 0); stroke-width: 1; fill: none; fill-opacity: 1;"/></g><g class="arrow-line"><path class="connection real" stroke-dasharray="3" d="  M257.25,99.93 L27.81,99.93" style="stroke: rgb(0, 0, 0); stroke-width: 1; fill: none; fill-opacity: 1;"/></g><g class="arrow-line"><path class="connection real" stroke-dasharray="" d="  M27.81,99.93 L27.81,157.08" style="stroke: rgb(0, 0, 0); stroke-width: 1; fill: none; fill-opacity: 1;"/></g><g class="composite-shape"><path class="real" d=" M45.15,91.1 C46.5,93.75 47.26,96.75 47.26,99.93 L27.81,99.93 Z" style="stroke-width: 1; stroke: none; fill: none; fill-opacity: 1; stroke-opacity: 1;"/><path class="real" d=" M45.15,91.1 C46.5,93.75 47.26,96.75 47.26,99.93" style="stroke-width: 1; stroke: rgb(153, 0, 0); fill: none; fill-opacity: 1; stroke-opacity: 1;"/></g><g class="arrow-line"><path class="connection real" stroke-dasharray="" d="  M200.72,18.86 L137.25,18.59" style="stroke: rgb(0, 0, 0); stroke-width: 1; fill: none; fill-opacity: 1;"/></g><g class="composite-shape"><defs><!-- react-text: 12755 --> <!-- /react-text --><pattern id="_pgfn7jcgc5brdg-full-view" x="0" y="0" width="11.313708498984761" height="11.313708498984761" patternTransform="rotate(45,0,0)" patternUnits="userSpaceOnUse"><path d="M0,0 L0,11.313708498984761" style="stroke: rgb(0, 0, 0); stroke-opacity: 1; stroke-width: 1; fill: none;"/><path d="M5.656854249492381,0 L5.656854249492381,11.313708498984761" style="stroke: rgb(0, 0, 0); stroke-opacity: 1; stroke-width: 1; fill: none;"/><path d="M11.313708498984761,0 L11.313708498984761,11.313708498984761" style="stroke: rgb(0, 0, 0); stroke-opacity: 1; stroke-width: 1; fill: none;"/></pattern></defs><path class="real" d=" M140.16,42.69 L255,42.69 L255,49.61 L140.16,49.61 Z" style="stroke-width: 1; stroke: none; fill: url(&quot;#_pgfn7jcgc5brdg-full-view&quot;); fill-opacity: 1; stroke-opacity: 1;"/></g><g/></g><g/><g/><g/></svg>
        <svg xmlns="http://www.w3.org/2000/svg" xmlns:xlink="http://www.w3.org/1999/xlink" width="237.00000000000003" height="152.0875040690104" style="width:237.00000000000003px;height:152.0875040690104px;font-family:Asana-Math, Asana;background:transparent;"><g transform="matrix(0.8910065241883678,-0.45399049973954697,0.45399049973954697,0.8910065241883678,-23.563440755800436,33.47620690889107)"><g><g><g transform="matrix(1,0,0,1,49.83124796549478,72.6125005086263)"><path transform="matrix(0.017,0,0,-0.017,0,0)" d="M937 664L950 695C922 699 775 701 773 692L688 536L442 114L292 692C269 686 146 690 125 692L122 664L148 662C200 658 218 648 218 622C218 616 72 100 70 93C54 41 39 28 -16 23L-19 -3L20 -2C54 -1 79 0 93 0C107 0 133 -1 168 -2L203 -3L206 25L168 28C136 30 119 40 119 55C119 65 121 78 126 96L250 560L399 -18L422 -18L479 86L718 500L770 587L733 67C729 39 717 32 666 28L635 25L632 -3L679 -2C721 -1 751 0 766 0C782 0 812 -1 853 -2L899 -3L902 25L865 28C829 31 811 42 811 63L812 100L853 631C855 650 870 660 899 662Z" stroke="rgb(255,255,255)" stroke-opacity="1" stroke-width="8" fill="rgb(255,255,255)" fill-opacity="1"></path></g></g></g></g><g><g><g><g transform="matrix(1,0,0,1,205.7937723795573,34.68750254313151)"><path transform="matrix(0.017,0,0,-0.017,0,0)" d="M730 103L704 86C675 67 653 56 643 56C636 56 630 65 630 76C630 86 632 95 637 116L712 413C716 430 719 446 719 454C719 471 709 482 693 482C664 482 626 464 565 421C502 376 467 341 418 272L448 409C452 429 455 444 455 451C455 470 445 482 429 482C399 482 353 460 298 418C254 384 234 363 169 275L202 408C206 424 208 439 208 451C208 470 199 482 185 482C164 482 126 461 52 408L24 388L31 368C68 391 103 414 110 414C121 414 128 404 128 389C128 338 87 145 46 2L49 -9L117 6L139 108C163 219 190 278 245 338C287 384 332 414 360 414C367 414 371 406 371 393C371 358 349 244 308 69L292 2L297 -9L366 6L387 113C403 194 437 269 481 318C536 379 586 414 618 414C626 414 631 405 631 389C631 365 628 351 606 264C566 105 550 84 550 31C550 6 561 -9 580 -9C606 -9 642 12 740 85Z" stroke="rgb(255,255,255)" stroke-opacity="1" stroke-width="8" fill="rgb(255,255,255)" fill-opacity="1"></path></g></g></g></g><g><g><g><g transform="matrix(1,0,0,1,57.79999796549478,96.78750254313151)"><path transform="matrix(0.0136,0,0,-0.0136,0,0)" d="M16 23L16 -3C203 -3 203 0 239 0C275 0 275 -3 468 -3L468 82C353 77 307 81 122 77L304 270C401 373 431 428 431 503C431 618 353 689 226 689C154 689 105 669 56 619L39 483L68 483L81 529C97 587 133 612 200 612C286 612 341 558 341 473C341 398 299 324 186 204ZM908 603L546 -1L656 -1L996 659L996 689L543 689L543 477L573 477L580 533C588 595 595 603 641 603ZM1197 689C1115 689 1048 622 1048 539C1048 456 1115 389 1198 389C1279 389 1348 457 1348 537C1348 621 1281 689 1197 689ZM1197 649C1258 649 1308 599 1308 537C1308 479 1258 429 1198 429C1137 429 1088 478 1088 539C1088 600 1137 649 1197 649Z" stroke="rgb(153,0,0)" stroke-opacity="1" stroke-width="8" fill="rgb(153,0,0)" fill-opacity="1"></path></g></g></g></g></svg>
</svg>
