<svg xmlns="http://www.w3.org/2000/svg" width="201.6" height="131.488" style="width:201.60000610351562px;height:131.4875030517578px;background:0 0;fill:none"><svg xmlns="http://www.w3.org/2000/svg"/><svg xmlns="http://www.w3.org/2000/svg" class="role-diagram-draw-area"><g class="shapes-region" style="stroke:#000;fill:none"><g class="composite-shape"><path d="M-106.33 88.13h250v143.84h-250Z" class="real" style="stroke-width:1;stroke:#000;fill:none;fill-opacity:1"/></g><g class="composite-shape"><path d="M33.37 34.64h52.52v52.53H33.37Z" class="real" style="stroke-width:1;stroke:#900;stroke-opacity:1;fill:#900;fill-opacity:.5"/></g><g class="composite-shape"><path d="m148.17 96.07 7.29-7.3h9.19l7.29 7.3v13.54h-23.77Z" class="real" style="stroke-width:1;stroke:#900;stroke-opacity:1;fill:#900;fill-opacity:.5"/></g><g class="arrow-line"><path d="M86.17 61.27h64.16" class="connection real" style="stroke:#000;stroke-width:1;fill:none;fill-opacity:1"/></g><g class="arrow-line"><path d="m159.82 70.53.01 18.41" class="connection real" style="stroke:#000;stroke-width:1;fill:none;fill-opacity:1"/></g><g class="composite-shape"><path d="M141.37 70.53c0-5.09 4.13-9.22 9.23-9.22 5.09 0 9.22 4.13 9.22 9.22 0 5.1-4.13 9.23-9.22 9.23-5.1 0-9.23-4.13-9.23-9.23Z" class="real" style="stroke-width:1;stroke:#000;fill:#000;fill-opacity:.5"/></g><g class="arrow-line"><path d="m150.6 70.53-6.96 16.92" class="connection real" style="stroke:#000;stroke-width:2;fill:none;fill-opacity:1"/><path d="M0 2.68v-5.36m-2.41 5.36v-5.36" style="stroke:#000;stroke-width:2" transform="rotate(-67.64 137.085 -63.481)"/><circle r="1.742" fill="#000" style="stroke:#000;fill:#000;stroke-width:2" transform="rotate(112.36 51.672 85.714)"/></g></g></svg><svg xmlns="http://www.w3.org/2000/svg" xmlns:xlink="http://www.w3.org/1999/xlink" width="200" height="129.887" style="width:200px;height:129.8874969482422px;font-family:Asana-Math,Asana;background:0 0"><path fill="#fff" stroke="#fff" stroke-width=".136" d="M62.876 66.765c0 .272-.255.425-.73.459l-.749.051v.476c1.734-.051 1.734-.051 2.074-.051s.34 0 2.074.051v-.476l-.442-.051c-.799-.119-.816-.119-.952-.884l-1.479-10.625h-.782l-6.34 10.081c-.613.952-.919 1.224-1.497 1.36l-.34.085v.51c1.564-.051 1.564-.051 1.904-.051.323 0 .357 0 1.82.051v-.476l-.885-.051c-.272-.017-.527-.17-.527-.323 0-.136.12-.374.442-.935l1.734-2.975h4.182l.425 3.196v.051c0 .034.068.289.068.527Zm-1.207-9.282.63 4.896h-3.673Zm102.387 44.646c0-1.87-1.428-2.142-2.822-2.346.969-.34 1.394-.544 1.921-1.02.782-.663 1.173-1.462 1.173-2.33 0-1.393-.986-2.21-2.686-2.21-.034 0-.204 0-.459.018l-1.071.017c-.204.017-.816.017-1.02.017-.323 0-.85-.017-1.683-.034l-.884-.017-.051.476.901.034c.408.017.595.153.595.459 0 .238-.068.782-.153 1.292l-1.479 8.568c-.068.306-.272.425-.986.544l-.085.442.629-.017c.459-.034.714-.034.918-.034.187 0 .629.017 1.071.034l.629.017.34.017c.323.017.544.034.68.034 1.955 0 4.522-1.581 4.522-3.961Zm-6.409 3.162.867-5.083h1.445c1.751 0 2.601.714 2.601 2.193 0 1.75-1.241 3.009-2.941 3.009-.918 0-1.275-.068-1.972-.12Zm3.162-10.438c1.377 0 2.057.612 2.057 1.887 0 1.785-1.258 2.856-3.366 2.856h-.884l.833-4.658c.272 0 .969-.085 1.36-.085Z"/></svg></svg>