<svg xmlns="http://www.w3.org/2000/svg" width="241.6" height="170.387" style="width:241.60000610351562px;height:170.3874969482422px;background:0 0;fill:none"><svg xmlns="http://www.w3.org/2000/svg"/><svg xmlns="http://www.w3.org/2000/svg" class="role-diagram-draw-area" style="overflow:visible"><g class="shapes-region" style="stroke:#000;fill:none"><g class="composite-shape"><path d="M149.17 246.64h-250V102.8h9.24v-139l240.76 139z" class="real" style="stroke-width:1;stroke:#000;stroke-opacity:1;fill:none;fill-opacity:1"/></g><g class="grouped-shape"><g class="composite-shape"><path d="M64.8 19.73 89.86 34.2 75.39 59.26 50.33 44.79Z" class="real" style="stroke-width:1;stroke:#900;stroke-opacity:1;fill:#900;fill-opacity:.5"/></g></g><g class="arrow-line"><path d="M164.93 87.05 86.09 41.57" class="connection real" style="stroke:#000;stroke-width:1;fill:none;fill-opacity:1"/></g><g class="arrow-line"><path d="m169.32 94.95.01 18.41" class="connection real" style="stroke:#000;stroke-width:1;fill:none;fill-opacity:1"/></g><g class="composite-shape"><path d="M150.87 94.95c0-5.09 4.13-9.22 9.23-9.22 5.09 0 9.22 4.13 9.22 9.22 0 5.1-4.13 9.23-9.22 9.23-5.1 0-9.23-4.13-9.23-9.23Z" class="real" style="stroke-width:1;stroke:#000;fill:#000;fill-opacity:.5"/></g><g class="arrow-line"><path d="m160.1 94.95-10.62 8" class="connection real" style="stroke:#000;stroke-width:2;fill:none;fill-opacity:1"/><path d="M0 2.68v-5.36m-2.41 5.36v-5.36" style="stroke:#000;stroke-width:2" transform="rotate(-36.97 228.709 -172.092)"/><circle r="1.742" fill="#000" style="stroke:#000;fill:#000;stroke-width:2" transform="rotate(143.03 64.178 74.236)"/></g><g class="grouped-shape"><g class="composite-shape"><path d="M154.96 113.36h28.94v28.94h-28.94Z" class="real" style="stroke-width:1;stroke:#900;stroke-opacity:1;fill:#900;fill-opacity:.5"/></g></g><g class="arrow-line"><path stroke-dasharray="3" d="M149.17 102.8H-9.4" class="connection real" style="stroke:#000;stroke-width:1;fill:none;fill-opacity:1"/></g><g class="composite-shape"><path stroke="none" d="M129.97 102.8c0-3.5.94-6.77 2.57-9.6l16.63 9.6Z" class="real" style="stroke-width:1;stroke:none;stroke-opacity:1;fill:none;fill-opacity:1"/><path d="M129.97 102.8c0-3.5.94-6.77 2.57-9.6" class="real" style="stroke-width:1;stroke:#900;stroke-opacity:1;fill:none;fill-opacity:1"/></g></g></svg><svg xmlns="http://www.w3.org/2000/svg" xmlns:xlink="http://www.w3.org/1999/xlink" width="240" height="168.788" style="width:240px;height:168.78750610351562px;font-family:Asana-Math,Asana;background:0 0"><path fill="#fff" stroke="#fff" stroke-width=".136" d="m79.106 39.512.455-.346c-.378-.297-2.525-1.576-2.631-1.46l-2.578 1.574-7.208 4.122 2.704-9.785c-.39-.107-2.166-1.211-2.458-1.42l-.283.388.366.25c.732.501.912.801.69 1.184-.05.088-6.586 6.444-6.675 6.53-.677.63-1.009.694-1.86.3l-.266.357.583.317c.509.274.885.472 1.091.59.207.12.58.356 1.088.668l.506.312.283-.387-.534-.367c-.454-.301-.62-.593-.492-.814a2.7 2.7 0 0 1 .451-.544l5.77-5.777-2.72 9.776.34.195 1.722-1.046 7.038-4.064 1.505-.839-4.965 7.341c-.297.379-.533.38-1.318.005l-.481-.22-.283.388.7.384c.628.343 1.078.583 1.299.71.235.136.668.406 1.264.77l.668.405.282-.387-.519-.358c-.504-.35-.676-.665-.497-.975l.329-.536 5.117-7.469c.191-.263.497-.282.94-.065Zm98.142 83.825.22-.527c-.475-.068-2.974-.102-3.008.051l-1.445 2.652-4.182 7.174-2.55-9.826c-.391.102-2.482.034-2.84 0l-.05.476.442.034c.884.068 1.19.238 1.19.68 0 .102-2.482 8.874-2.516 8.993-.272.884-.527 1.105-1.462 1.19l-.051.442.663-.017c.578-.017 1.003-.034 1.24-.034.239 0 .68.017 1.276.034l.595.017.05-.476-.645-.051c-.544-.034-.833-.204-.833-.459 0-.17.034-.391.119-.697l2.108-7.888 2.533 9.826h.39l.97-1.768 4.063-7.038.884-1.479-.63 8.84c-.067.476-.271.595-1.138.663l-.527.051-.051.476.799-.017c.714-.017 1.224-.034 1.479-.034.272 0 .782.017 1.479.034l.782.017.05-.476-.628-.051c-.612-.051-.918-.238-.918-.595l.017-.629.697-9.027c.034-.323.289-.493.782-.527Z"/><path fill="#900" stroke="#900" stroke-width=".095" d="M112.448 96.434c0-1.44-1.273-1.69-1.833-1.785.952-.737 1.31-1.285 1.31-1.987 0-1.059-.881-1.761-2.202-1.761-.81 0-1.345.226-1.916.797l-.345 1.476h.369l.214-.667c.13-.404.88-.809 1.5-.809.773 0 1.403.63 1.403 1.38 0 .893-.702 1.643-1.547 1.643-.095 0-.226-.012-.38-.024l-.179-.012-.143.63.084.072c.452-.202.678-.262 1-.262.987 0 1.558.631 1.558 1.714 0 1.214-.726 2.011-1.832 2.011-.548 0-1.036-.178-1.393-.512-.285-.261-.44-.535-.666-1.178l-.321.12c.25.725.345 1.154.416 1.749.63.214 1.154.309 1.595.309 1.463 0 3.308-1.273 3.308-2.904Zm3.57-5.533c-1.845 0-2.785 1.464-2.785 4.343 0 1.393.25 2.595.667 3.178a2.2 2.2 0 0 0 1.82.916c1.797 0 2.702-1.547 2.702-4.593 0-2.607-.774-3.844-2.404-3.844Zm-.214.416c1.154 0 1.618 1.167 1.618 4.023 0 2.534-.452 3.581-1.547 3.581-1.154 0-1.642-1.201-1.642-4.105 0-2.51.44-3.499 1.57-3.499Zm5.39-.416a1.78 1.78 0 0 0-1.773 1.785c0 .988.798 1.785 1.785 1.785.964 0 1.785-.81 1.785-1.761 0-1-.797-1.81-1.797-1.81Zm0 .476c.726 0 1.321.595 1.321 1.333 0 .69-.595 1.285-1.309 1.285a1.305 1.305 0 0 1-1.309-1.31c0-.725.583-1.308 1.297-1.308Z"/></svg></svg>