<svg xmlns="http://www.w3.org/2000/svg" width="161.6" height="108.388" style="width:161.6px;height:108.3875px;background:0 0;fill:none"><svg xmlns="http://www.w3.org/2000/svg"/><svg xmlns="http://www.w3.org/2000/svg" class="role-diagram-draw-area"><g class="shapes-region" style="stroke:#000;fill:none"><g class="composite-shape"><defs><pattern id="_pgfzcq0rleha" width="11.314" height="11.314" x="0" y="0" patternTransform="rotate(45 0 0)" patternUnits="userSpaceOnUse"><path d="M0 0v11.314M5.657 0v11.314M11.314 0v11.314" style="stroke:#000;stroke-opacity:1;stroke-width:1;fill:none"/></pattern></defs><path d="M102.12 18.18h27.8v27.26h-27.8Z" class="real" style="stroke-width:1;stroke:#000;fill:url(#_pgfzcq0rleha);fill-opacity:1"/></g><g class="arrow-line"><path d="M13.44 30.9h85.8" class="connection real" style="stroke:#900;stroke-opacity:1;stroke-width:1;fill:none;fill-opacity:1"/><path fill="#900" stroke="none" d="M10.72-5.15 0 0l10.72 5.15L7.12 0Z" style="stroke:none;fill:#900;stroke-width:1" transform="matrix(-1 0 0 -1 102.24 30.9)"/></g><g class="arrow-line"><path d="M116.52 88.1V48.44" class="connection real" style="stroke:#900;stroke-opacity:1;stroke-width:1;fill:none;fill-opacity:1"/><path fill="#900" stroke="none" d="M10.72-5.15 0 0l10.72 5.15L7.12 0Z" style="stroke:none;fill:#900;stroke-width:1" transform="rotate(90 35.542 80.977)"/></g><g class="composite-shape"><path d="M176 73.3c0-1.55 1.25-2.8 2.8-2.8s2.8 1.25 2.8 2.8-1.25 2.8-2.8 2.8-2.8-1.25-2.8-2.8Z" class="real" style="stroke-width:1;stroke:#000;stroke-opacity:1;fill:#000;fill-opacity:1"/></g><g class="arrow-line"><path d="M178.8 70.5V30.84" class="connection real" style="stroke:#900;stroke-opacity:1;stroke-width:1;fill:none;fill-opacity:1"/><path fill="#900" stroke="none" d="M10.72-5.15 0 0l10.72 5.15L7.12 0Z" style="stroke:none;fill:#900;stroke-width:1" transform="rotate(90 75.48 103.32)"/></g><g class="arrow-line"><path d="M181.6 73.3h85.8" class="connection real" style="stroke:#900;stroke-opacity:1;stroke-width:1;fill:none;fill-opacity:1"/><path fill="#900" stroke="none" d="M10.72-5.15 0 0l10.72 5.15L7.12 0Z" style="stroke:none;fill:#900;stroke-width:1" transform="matrix(-1 0 0 -1 270.4 73.3)"/></g></g></svg><svg xmlns="http://www.w3.org/2000/svg" xmlns:xlink="http://www.w3.org/1999/xlink" width="160" height="106.787" style="width:160px;height:106.78749999999991px;font-family:Asana-Math,Asana;background:0 0"><path fill="#900" stroke="#900" stroke-width=".136" d="m43.962 47.206 1.802-.069c1.054 0 1.734.154 1.751.408l.136 1.513h.408c.051-1.07.17-1.937.357-2.584-.374-.033-.85-.05-1.139-.05l-.697.017-2.805.033h-.493c-.425 0-1.105-.017-1.751-.033l-.833-.018-.051.477.952.033c.408.017.595.17.595.46 0 .237-.068.782-.153 1.291l-1.275 7.379c-.289 1.563-.289 1.58-.986 1.648l-.612.052-.068.476.578-.017c.68-.017 1.224-.035 1.581-.035.306 0 .799.018 1.462.035l.884.017.051-.476-1.088-.051c-.459-.018-.612-.154-.612-.494 0-.102.017-.289.034-.357l.612-3.79h1.989c.459 0 .986.017 1.802.05l.442.017.323-.764-.068-.12a70 70 0 0 1-3.723.102h-.629l.782-4.607c.051-.272.068-.357.153-.544Z"/><path fill="#900" stroke="#900" stroke-width=".095" d="M49.145 61.188c.178.095.369.143.511.143.393 0 .857-.345 1.226-.905l.904-1.392.131.821c.155 1.012.429 1.476.857 1.476.262 0 .643-.202 1.024-.548l.583-.523-.107-.226c-.429.357-.726.535-.917.535-.178 0-.333-.119-.452-.357a4.7 4.7 0 0 1-.297-1.011l-.215-1.202.417-.583c.56-.774.88-1.047 1.25-1.047.19 0 .333.095.392.273l.167-.047.178-1.012c-.143-.083-.25-.119-.357-.119-.476 0-.952.429-1.69 1.523l-.44.655-.071-.571c-.143-1.178-.464-1.607-1.167-1.607-.309 0-.57.095-.678.25l-.69.988.202.119c.357-.405.595-.571.821-.571.393 0 .655.487.857 1.654l.131.737-.476.738c-.512.798-.916 1.178-1.25 1.178-.178 0-.309-.047-.333-.107l-.13-.333-.239.036c0 .416-.095.726-.142 1.035Z"/><svg width="17.738" height="10" x="39.1" y="35.188" overflow="visible"><path d="m17.74 5.39-3.5-3.69-.54.58 2.14 2.58h-.17v1h.17L13.7 8.44l.54.58zm-15.87.42h15.36v-1H1.87z" style="fill:#900;fill-opacity:1;stroke-width:1px;stroke:none;stroke-opacity:1"/></svg><path fill="#900" stroke="#900" stroke-width=".136" d="m131.762 69.306 1.802-.068c1.054 0 1.734.153 1.751.408l.136 1.513h.408c.051-1.071.17-1.938.357-2.584-.374-.034-.85-.051-1.139-.051l-.697.017-2.805.034h-.493c-.425 0-1.105-.017-1.751-.034l-.833-.017-.051.476.952.034c.408.017.595.17.595.459 0 .238-.068.782-.153 1.292l-1.275 7.378c-.289 1.564-.289 1.58-.986 1.649l-.612.05-.068.477.578-.017c.68-.017 1.224-.034 1.581-.034.306 0 .799.017 1.462.034l.884.017.051-.476-1.088-.051c-.459-.017-.612-.153-.612-.493 0-.102.017-.29.034-.357l.612-3.791h1.989c.459 0 .986.017 1.802.05l.442.018.323-.765-.068-.12a70 70 0 0 1-3.723.103h-.629l.782-4.607c.051-.272.068-.357.153-.544Z"/><path fill="#900" stroke="#900" stroke-width=".095" d="M136.754 85.442c-.012.083-.012.155-.012.214 0 .512.44.928.976.928 1.262 0 2.57-1.475 3.273-3.677l1.678-5.236-.131-.107a3.3 3.3 0 0 1-.881.226l-.416 1.571c-.143.56-.56 1.428-.952 2.011-.417.607-1 1.13-1.262 1.13-.143 0-.25-.273-.238-.57l.19-2.464c.024-.369.048-.82.048-1.154 0-.536-.083-.75-.285-.75-.155 0-.322.083-.893.476l-.976.667.131.214.595-.357c.06-.036.19-.143.298-.143.166 0 .261.226.261.619 0 .012 0 .083-.011.178l-.203 2.892-.012.476c0 .5.215.845.512.845.44 0 1.44-1.012 2.332-2.356l-.583 2.035c-.607 2.106-1.202 2.975-2.035 2.975a.727.727 0 0 1-.737-.738c0-.06.012-.155.023-.262l-.119-.048Z"/><svg width="17.737" height="10" x="126.9" y="57.288" overflow="visible"><path d="m17.74 5.39-3.5-3.69-.54.58 2.14 2.58h-.17v1h.17L13.7 8.44l.54.58zm-15.87.42h15.36v-1H1.87z" style="fill:#900;fill-opacity:1;stroke-width:1px;stroke:none;stroke-opacity:1"/></svg><path fill="#900" stroke="#900" stroke-width=".136" d="m255.962 54.206 1.802-.069c1.054 0 1.734.154 1.751.408l.136 1.513h.408c.051-1.07.17-1.937.357-2.584-.374-.033-.85-.05-1.139-.05l-.697.017-2.805.033h-.493c-.425 0-1.105-.017-1.751-.033l-.833-.018-.051.477.952.033c.408.017.595.17.595.46 0 .237-.068.782-.153 1.291l-1.275 7.379c-.289 1.563-.289 1.58-.986 1.648l-.612.052-.068.475.578-.016c.68-.017 1.224-.034 1.581-.034.306 0 .799.016 1.462.034l.884.017.051-.477-1.088-.05c-.459-.017-.612-.154-.612-.493 0-.102.017-.29.034-.357l.612-3.791h1.989c.459 0 .986.017 1.802.05l.442.017.323-.764-.068-.12a70 70 0 0 1-3.723.102h-.629l.782-4.607c.051-.272.068-.357.153-.544Z"/><path fill="#900" stroke="#900" stroke-width=".095" d="M261.145 68.188c.178.095.369.143.511.143.393 0 .857-.345 1.226-.905l.904-1.392.131.821c.155 1.012.429 1.476.857 1.476.262 0 .643-.202 1.024-.548l.583-.523-.107-.226c-.429.357-.726.535-.917.535-.178 0-.333-.119-.452-.357a4.7 4.7 0 0 1-.297-1.011l-.215-1.202.417-.583c.56-.774.88-1.047 1.25-1.047.19 0 .333.095.392.273l.167-.047.178-1.012c-.143-.083-.25-.119-.357-.119-.476 0-.952.429-1.69 1.523l-.44.655-.071-.571c-.143-1.178-.464-1.607-1.167-1.607-.309 0-.57.095-.678.25l-.69.988.202.119c.357-.405.595-.571.821-.571.393 0 .655.487.857 1.654l.131.737-.476.738c-.512.798-.916 1.178-1.25 1.178-.178 0-.309-.047-.333-.107l-.13-.333-.239.036c0 .416-.095.726-.142 1.035Z"/><svg width="17.738" height="10" x="251.1" y="42.188" overflow="visible"><path d="m17.74 5.39-3.5-3.69-.54.58 2.14 2.58h-.17v1h.17L13.7 8.44l.54.58zm-15.87.42h15.36v-1H1.87z" style="fill:#900;fill-opacity:1;stroke-width:1px;stroke:none;stroke-opacity:1"/></svg><path fill="#900" stroke="#900" stroke-width=".136" d="m194.962 39.206 1.802-.069c1.054 0 1.734.154 1.751.408l.136 1.513h.408c.051-1.07.17-1.937.357-2.584-.374-.033-.85-.05-1.139-.05l-.697.017-2.805.033h-.493c-.425 0-1.105-.017-1.751-.033l-.833-.018-.051.477.952.033c.408.017.595.17.595.46 0 .237-.068.782-.153 1.291l-1.275 7.379c-.289 1.563-.289 1.58-.986 1.648l-.612.052-.068.476.578-.017c.68-.017 1.224-.035 1.581-.035.306 0 .799.018 1.462.035l.884.017.051-.476-1.088-.051c-.459-.018-.612-.154-.612-.494 0-.102.017-.289.034-.357l.612-3.79h1.989c.459 0 .986.017 1.802.05l.442.017.323-.764-.068-.12a70 70 0 0 1-3.723.102h-.629l.782-4.607c.051-.272.068-.357.153-.544Z"/><path fill="#900" stroke="#900" stroke-width=".095" d="M199.954 55.342c-.012.083-.012.155-.012.214 0 .512.44.928.976.928 1.262 0 2.57-1.475 3.273-3.677l1.678-5.236-.131-.107a3.3 3.3 0 0 1-.881.226l-.416 1.571c-.143.56-.56 1.428-.952 2.011-.417.607-1 1.13-1.262 1.13-.143 0-.25-.273-.238-.57l.19-2.464c.024-.369.048-.82.048-1.154 0-.536-.083-.75-.285-.75-.155 0-.322.083-.893.476l-.976.667.131.214.595-.357c.06-.036.19-.143.298-.143.166 0 .261.226.261.619 0 .012 0 .083-.011.178l-.203 2.892-.012.476c0 .5.215.845.512.845.44 0 1.44-1.012 2.332-2.356l-.583 2.035c-.607 2.106-1.202 2.975-2.035 2.975a.727.727 0 0 1-.737-.738c0-.06.012-.155.023-.262l-.119-.048Z"/><svg width="17.738" height="10" x="190.1" y="27.188" overflow="visible"><path d="m17.74 5.39-3.5-3.69-.54.58 2.14 2.58h-.17v1h.17L13.7 8.44l.54.58zm-15.87.42h15.36v-1H1.87z" style="fill:#900;fill-opacity:1;stroke-width:1px;stroke:none;stroke-opacity:1"/></svg></svg></svg>