<svg xmlns="http://www.w3.org/2000/svg" width="273.6" height="157.4" style="width:273.6px;height:157.4px;background:#fff;fill:none"><svg xmlns="http://www.w3.org/2000/svg"/><svg xmlns="http://www.w3.org/2000/svg" class="role-diagram-draw-area" style="overflow:visible"><g class="shapes-region" style="stroke:#000;fill:none"><g class="composite-shape"><defs><pattern id="_pgff44niadildg-full-view" width="11.314" height="11.314" x="0" y="0" patternTransform="rotate(45 0 0)" patternUnits="userSpaceOnUse"><path d="M0 0v11.314M5.657 0v11.314M11.314 0v11.314" style="stroke:#000;stroke-opacity:1;stroke-width:1;fill:none"/></pattern></defs><path d="M53.15 57.6h27.8v27.25h-27.8Z" class="real" style="stroke-width:1;stroke:#000;fill:url(#_pgff44niadildg-full-view);fill-opacity:1"/></g><g class="composite-shape"><path d="M65.25 71.23c0-1 .8-1.8 1.8-1.8a1.799 1.799 0 1 1 0 3.6c-1 0-1.8-.81-1.8-1.8Z" class="real" style="stroke-width:1;stroke:#900;stroke-opacity:1;fill:#900;fill-opacity:1"/></g><g class="arrow-line"><path d="M67.05 147.62V86.56" class="connection real" style="stroke:#900;stroke-opacity:1;stroke-width:1;fill:none;fill-opacity:1"/><path stroke="#900" d="M10.93-3.29Q4.96-.45 0 0q4.96.45 10.93 3.29" style="stroke:#900;stroke-width:1" transform="rotate(90 -8.756 75.805)"/></g><g class="arrow-line"><path d="M9.9 72.56h41.15" class="connection real" style="stroke:#900;stroke-opacity:1;stroke-width:1;fill:none;fill-opacity:1"/><path stroke="#900" d="M10.93-3.29Q4.96-.45 0 0q4.96.45 10.93 3.29" style="stroke:#900;stroke-width:1" transform="matrix(-1 0 0 -1 53.049 72.56)"/></g><g class="arrow-line"><path d="M103.18 35.37 82.36 56.19" class="connection real" style="stroke:#900;stroke-opacity:1;stroke-width:1;fill:none;fill-opacity:1"/><path stroke="#900" d="M10.93-3.29Q4.96-.45 0 0q4.96.45 10.93 3.29" style="stroke:#900;stroke-width:1" transform="rotate(-45 110.004 -68.914)"/></g><g class="composite-shape"><defs><pattern id="_pgfzlys9ugdwdg-full-view" width="11.314" height="11.314" x="0" y="0" patternTransform="rotate(45 0 0)" patternUnits="userSpaceOnUse"><path d="M0 0v11.314M5.657 0v11.314M11.314 0v11.314" style="stroke:#000;stroke-opacity:1;stroke-width:1;fill:none"/></pattern></defs><path d="M185.15 58.8h27.8v27.25h-27.8Z" class="real" style="stroke-width:1;stroke:#000;fill:url(#_pgfzlys9ugdwdg-full-view);fill-opacity:1"/></g><g class="composite-shape"><path d="M197.25 72.43c0-1 .8-1.8 1.8-1.8a1.799 1.799 0 1 1 0 3.6c-1 0-1.8-.81-1.8-1.8Z" class="real" style="stroke-width:1;stroke:#900;stroke-opacity:1;fill:#900;fill-opacity:1"/></g><g class="arrow-line"><path d="M199.05 72.43V11.37" class="connection real" style="stroke:#900;stroke-opacity:1;stroke-width:1;fill:none;fill-opacity:1"/><path stroke="#900" d="M10.93-3.29Q4.96-.45 0 0q4.96.45 10.93 3.29" style="stroke:#900;stroke-width:1" transform="rotate(90 94.839 104.21)"/></g><g class="arrow-line"><path d="M199.05 9.37h41.15" class="connection real" style="stroke:#900;stroke-opacity:1;stroke-width:1;fill:none;fill-opacity:1"/><path stroke="#900" d="M10.93-3.29Q4.96-.45 0 0q4.96.45 10.93 3.29" style="stroke:#900;stroke-width:1" transform="matrix(-1 0 0 -1 242.197 9.37)"/></g><g class="arrow-line"><path d="m242.2 9.37-20.82 20.81" class="connection real" style="stroke:#900;stroke-opacity:1;stroke-width:1;fill:none;fill-opacity:1"/><path stroke="#900" d="M10.93-3.29Q4.96-.45 0 0q4.96.45 10.93 3.29" style="stroke:#900;stroke-width:1" transform="rotate(-45 148.127 -249.728)"/></g><g class="arrow-line"><path d="m199.05 72.43 19.1-37.27" class="connection real" style="stroke:#900;stroke-opacity:1;stroke-width:2;fill:none;fill-opacity:1"/><path fill="#900" stroke="none" d="M13.4-6.43 0 0l13.4 6.44L8.9 0Z" style="stroke:none;fill:#900;stroke-width:2" transform="rotate(117.13 100.328 83.026)"/></g></g></svg><svg xmlns="http://www.w3.org/2000/svg" xmlns:xlink="http://www.w3.org/1999/xlink" width="272" height="155.8" style="width:272px;height:155.8px;font-family:Asana-Math,Asana;background:#fff"><path fill="#900" stroke="#900" stroke-width=".136" d="m225.662 55.418 1.802-.068c1.054 0 1.734.153 1.751.408l.136 1.513h.408c.051-1.071.17-1.938.357-2.584-.374-.034-.85-.051-1.139-.051l-.697.017-2.805.034h-.493c-.425 0-1.105-.017-1.751-.034l-.833-.017-.051.476.952.034c.408.017.595.17.595.459 0 .238-.068.782-.153 1.292l-1.275 7.378c-.289 1.564-.289 1.581-.986 1.649l-.612.051-.068.476.578-.017c.68-.017 1.224-.034 1.581-.034.306 0 .799.017 1.462.034l.884.017.051-.476-1.088-.051c-.459-.017-.612-.153-.612-.493 0-.102.017-.289.034-.357l.612-3.791h1.989c.459 0 .986.017 1.802.051l.442.017.323-.765-.068-.119a70 70 0 0 1-3.723.102h-.629l.782-4.607c.051-.272.068-.357.153-.544Z"/><path fill="#900" stroke="#900" stroke-width=".095" d="m231.023 63.995.083.238.381-.25c.44-.273.476-.297.56-.297.13 0 .214.119.214.297 0 .607-.488 2.904-.976 4.606l.083.13c.298-.083.571-.154.833-.202.226-1.5.476-2.273 1.024-3.094.642-1 1.535-1.737 2.07-1.737.131 0 .203.107.203.286 0 .214-.036.464-.131.844l-.62 2.523c-.106.44-.154.714-.154.905 0 .297.131.476.357.476.31 0 .738-.25 1.904-1.119l-.119-.214-.31.202c-.344.226-.606.357-.725.357-.083 0-.155-.107-.155-.238 0-.06.012-.19.024-.238l.785-3.284c.084-.345.131-.679.131-.88 0-.275-.13-.43-.369-.43-.5 0-1.32.453-2.023 1.107-.452.417-.785.822-1.404 1.69l.452-1.916c.048-.214.072-.357.072-.488 0-.25-.095-.392-.274-.392-.25 0-.714.262-1.583.88Zm10.222 3.297-.285.202c-.631.452-1.202.69-1.63.69-.56 0-.905-.44-.905-1.154 0-.298.036-.619.095-.964.202-.048 1.5-.405 1.797-.536 1.012-.44 1.476-.987 1.476-1.725 0-.56-.405-.928-1-.928-.81-.167-2.118.702-2.558 1.582-.357.595-.714 2.012-.714 2.809 0 .928.523 1.475 1.38 1.475.678 0 1.345-.333 2.44-1.225Zm-2.558-1.94c.202-.821.44-1.333.785-1.642.214-.19.583-.333.869-.333.345 0 .571.238.571.618 0 .524-.416 1.083-1.035 1.38-.333.167-.762.298-1.297.417Zm4.76-1.38-.667 3.367c-.012.095-.154.548-.154.905 0 .297.13.476.357.476.416 0 .833-.238 1.76-.988l.37-.298-.12-.214-.535.37q-.517.356-.714.356c-.107 0-.166-.095-.166-.238 0-.31.166-1.273.511-2.999l.155-.737h1.273l.131-.595c-.452.047-.857.07-1.309.07.19-1.118.322-1.7.536-2.343l-.131-.179a6.4 6.4 0 0 1-.928.429l-.298 2.023c-.523.25-.833.38-1.047.44l-.024.155Z"/><svg width="26.975" height="10" x="220.8" y="43.4" overflow="visible"><path d="m26.98 5.39-3.5-3.69-.54.58 2.14 2.58h-.17v1h.17l-2.14 2.58.54.58zm-25.11.42h24.6v-1H1.87z" style="fill:#900;fill-opacity:1;stroke-width:1px;stroke:none;stroke-opacity:1"/></svg><path fill="#900" stroke="#900" stroke-width=".136" d="m79.662 118.343 1.802-.068c1.054 0 1.734.153 1.751.408l.136 1.513h.408c.051-1.071.17-1.938.357-2.584-.374-.034-.85-.051-1.139-.051l-.697.017-2.805.034h-.493c-.425 0-1.105-.017-1.751-.034l-.833-.017-.051.476.952.034c.408.017.595.17.595.459 0 .238-.068.782-.153 1.292l-1.275 7.378c-.289 1.564-.289 1.581-.986 1.649l-.612.051-.068.476.578-.017c.68-.017 1.224-.034 1.581-.034.306 0 .799.017 1.462.034l.884.017.051-.476-1.088-.051c-.459-.017-.612-.153-.612-.493 0-.102.017-.289.034-.357l.612-3.791h1.989c.459 0 .986.017 1.802.051l.442.017.323-.765-.068-.119a70 70 0 0 1-3.723.102h-.629l.782-4.607c.051-.272.068-.357.153-.544Z"/><path fill="#900" stroke="#900" stroke-width=".095" d="M89.712 132.373v-.357l-.62-.035c-.654-.036-.773-.167-.773-.786v-7.187l-2.868 1.213.084.595 1.785-.785v6.164c0 .619-.131.75-.774.786l-.666.035v.357c1.832-.035 1.832-.035 1.963-.035.37 0 1.678.035 1.869.035Z"/><svg width="17.738" height="10" x="74.8" y="106.325" overflow="visible"><path d="m17.74 5.39-3.5-3.69-.54.58 2.14 2.58h-.17v1h.17L13.7 8.44l.54.58zm-15.87.42h15.36v-1H1.87z" style="fill:#900;fill-opacity:1;stroke-width:1px;stroke:none;stroke-opacity:1"/></svg><path fill="#900" stroke="#900" stroke-width=".136" d="m13.262 86.743 1.802-.068c1.054 0 1.734.153 1.751.408l.136 1.513h.408c.051-1.071.17-1.938.357-2.584-.374-.034-.85-.051-1.139-.051l-.697.017-2.805.034h-.493c-.425 0-1.105-.017-1.751-.034l-.833-.017-.051.476.952.034c.408.017.595.17.595.459 0 .238-.068.782-.153 1.292L10.066 95.6c-.289 1.564-.289 1.581-.986 1.649l-.612.051-.068.476.578-.017c.68-.017 1.224-.034 1.581-.034.306 0 .799.017 1.462.034l.884.017.051-.476-1.088-.051c-.459-.017-.612-.153-.612-.493 0-.102.017-.289.034-.357l.612-3.791h1.989c.459 0 .986.017 1.802.051l.442.017.323-.765-.068-.119a70 70 0 0 1-3.723.102h-.629l.782-4.607c.051-.272.068-.357.153-.544Z"/><path fill="#900" stroke="#900" stroke-width=".095" d="M18.528 100.464v.31c2.225 0 2.225-.036 2.654-.036s.428.035 2.725.035v-1.011c-1.369.06-1.916.012-4.118.06l2.166-2.297c1.154-1.226 1.511-1.88 1.511-2.773 0-1.369-.928-2.214-2.44-2.214-.856 0-1.439.238-2.022.833l-.202 1.619h.345l.154-.548c.19-.69.62-.987 1.417-.987 1.023 0 1.677.642 1.677 1.654 0 .892-.5 1.773-1.844 3.2Z"/><svg width="17.738" height="10" x="8.4" y="74.725" overflow="visible"><path d="m17.74 5.39-3.5-3.69-.54.58 2.14 2.58h-.17v1h.17L13.7 8.44l.54.58zm-15.87.42h15.36v-1H1.87z" style="fill:#900;fill-opacity:1;stroke-width:1px;stroke:none;stroke-opacity:1"/></svg><path fill="#900" stroke="#900" stroke-width=".136" d="m81.925 26.818 1.802-.068c1.053 0 1.733.153 1.75.408l.136 1.513h.409c.05-1.071.17-1.938.356-2.584a14 14 0 0 0-1.138-.051l-.697.017-2.806.034h-.492c-.425 0-1.106-.017-1.752-.034l-.832-.017-.052.476.953.034c.407.017.594.17.594.459 0 .238-.068.782-.153 1.292l-1.275 7.378c-.288 1.564-.288 1.581-.985 1.649l-.612.051-.069.476.579-.017c.68-.017 1.224-.034 1.58-.034.306 0 .8.017 1.462.034l.884.017.052-.476-1.088-.051c-.46-.017-.613-.153-.613-.493 0-.102.017-.289.034-.357l.612-3.791h1.99c.459 0 .986.017 1.802.051l.442.017.322-.765-.068-.119a70 70 0 0 1-3.723.102h-.628l.782-4.607c.05-.272.067-.357.153-.544Z"/><path fill="#900" stroke="#900" stroke-width=".095" d="M92.498 38.147c0-1.44-1.273-1.69-1.833-1.785.952-.738 1.31-1.285 1.31-1.987 0-1.06-.881-1.762-2.202-1.762-.81 0-1.345.227-1.916.798l-.345 1.475h.369l.214-.666c.13-.405.88-.81 1.5-.81.773 0 1.403.631 1.403 1.381 0 .893-.702 1.642-1.547 1.642-.095 0-.226-.012-.38-.023l-.179-.012-.143.63.084.072c.452-.203.678-.262 1-.262.987 0 1.558.63 1.558 1.713 0 1.214-.726 2.012-1.833 2.012-.547 0-1.035-.179-1.392-.512-.285-.262-.44-.536-.666-1.178l-.322.119c.25.726.346 1.154.417 1.75.63.213 1.154.309 1.595.309 1.463 0 3.308-1.274 3.308-2.904Z"/><svg width="17.737" height="10" x="77.063" y="14.8" overflow="visible"><path d="m17.74 5.39-3.5-3.69-.54.58 2.14 2.58h-.17v1h.17L13.7 8.44l.54.58zm-15.87.42h15.36v-1H1.87z" style="fill:#900;fill-opacity:1;stroke-width:1px;stroke:none;stroke-opacity:1"/></svg><path fill="#000" stroke="#000" stroke-width=".136" d="m143.033 73.759-4.301-4.522-.51.561 1.36 1.666h-11.577v1.003h12.427l1.088 1.326-1.071 1.292h-12.444v1.003h11.577l-1.36 1.666.51.527Z"/></svg></svg>