<svg xmlns="http://www.w3.org/2000/svg" width="161.6" height="88.6" style="width:161.6px;height:88.6px;background:0 0;fill:none"><svg xmlns="http://www.w3.org/2000/svg"/><svg xmlns="http://www.w3.org/2000/svg" class="role-diagram-draw-area"><g class="shapes-region" style="stroke:#000;fill:none"><g class="arrow-line"><path d="M87.25 72.56V11.5" class="connection real" style="stroke:#900;stroke-opacity:1;stroke-width:1;fill:none;fill-opacity:1"/><path stroke="#900" d="M10.93-3.29Q4.96-.45 0 0q4.96.45 10.93 3.29" style="stroke:#900;stroke-width:1" transform="rotate(90 38.872 48.376)"/></g><g class="arrow-line"><path d="m87.25 72.56 21.57-21.57 13.92-13.92" class="connection real" style="stroke:#900;stroke-opacity:1;stroke-width:1;fill:none;fill-opacity:1"/><path stroke="#900" d="M10.93-3.29Q4.96-.45 0 0q4.96.45 10.93 3.29" style="stroke:#900;stroke-width:1" transform="rotate(135 54.695 43.54)"/></g><g class="arrow-line"><path d="M87.25 72.56H18.36" class="connection real" style="stroke:#900;stroke-opacity:1;stroke-width:1;fill:none;fill-opacity:1"/><path stroke="#900" d="M10.93-3.29Q4.96-.45 0 0q4.96.45 10.93 3.29" style="stroke:#900;stroke-width:1" transform="translate(16.357 72.56)"/></g><g class="composite-shape"><path d="M85.45 72.56a1.799 1.799 0 1 1 1.8 1.8c-1 0-1.8-.81-1.8-1.8Z" class="real" style="stroke-width:1;stroke:#301c1c;stroke-opacity:1;fill:#1b1313;fill-opacity:1"/></g></g></svg><svg xmlns="http://www.w3.org/2000/svg" xmlns:xlink="http://www.w3.org/1999/xlink" width="160" height="87" style="width:160px;height:87px;font-family:Asana-Math,Asana;background:0 0"><path fill="#900" stroke="#900" stroke-width=".136" d="m23.187 51.418 1.802-.068c1.054 0 1.734.153 1.751.408l.136 1.513h.408c.051-1.071.17-1.938.357-2.584-.374-.034-.85-.051-1.139-.051l-.697.017-2.805.034h-.493c-.425 0-1.105-.017-1.751-.034l-.833-.017-.051.476.952.034c.408.017.595.17.595.459 0 .238-.068.782-.153 1.292l-1.275 7.378c-.289 1.564-.289 1.581-.986 1.649l-.612.051-.068.476.578-.017c.68-.017 1.224-.034 1.581-.034.306 0 .799.017 1.462.034l.884.017.051-.476-1.088-.051c-.459-.017-.612-.153-.612-.493 0-.102.017-.289.034-.357l.612-3.791h1.989c.459 0 .986.017 1.802.051l.442.017.323-.765-.068-.119a70 70 0 0 1-3.723.102h-.629l.782-4.607c.051-.272.068-.357.153-.544Z"/><svg width="10.288" height="10" x="18.325" y="39.4" overflow="visible"><path d="M10.29 4.85 7.14 1.53l-.49.52 1.93 2.33h-.15v.9h.15L6.65 7.61l.49.52zm-8.61.38h8.15v-.9H1.68z" style="fill:#900;fill-opacity:1;stroke-width:1px;stroke:none;stroke-opacity:1"/></svg><path fill="#900" stroke="#900" stroke-width=".095" d="M33.237 68.936v-.357l-.62-.036c-.654-.036-.773-.167-.773-.785V60.57l-2.868 1.214.084.595 1.785-.786v6.165c0 .618-.131.75-.774.785l-.666.036v.357c1.832-.036 1.832-.036 1.963-.036.37 0 1.678.036 1.869.036Z"/><path fill="#900" stroke="#900" stroke-width=".136" d="m72.062 19.343 1.802-.068c1.054 0 1.734.153 1.751.408l.136 1.513h.408c.051-1.071.17-1.938.357-2.584-.374-.034-.85-.051-1.139-.051l-.697.017-2.805.034h-.493c-.425 0-1.105-.017-1.751-.034l-.833-.017-.051.476.952.034c.408.017.595.17.595.459 0 .238-.068.782-.153 1.292L68.866 28.2c-.289 1.564-.289 1.581-.986 1.649l-.612.051-.068.476.578-.017c.68-.017 1.224-.034 1.581-.034.306 0 .799.017 1.462.034l.884.017.051-.476-1.088-.051c-.459-.017-.612-.153-.612-.493 0-.102.017-.289.034-.357l.612-3.791h1.989c.459 0 .986.017 1.802.051l.442.017.323-.765-.068-.119a70 70 0 0 1-3.723.102h-.629l.782-4.607c.051-.272.068-.357.153-.544Z"/><svg width="10.287" height="10" x="67.2" y="7.325" overflow="visible"><path d="M10.29 4.85 7.14 1.53l-.49.52 1.93 2.33h-.15v.9h.15L6.65 7.61l.49.52zm-8.61.38h8.15v-.9H1.68z" style="fill:#900;fill-opacity:1;stroke-width:1px;stroke:none;stroke-opacity:1"/></svg><path fill="#900" stroke="#900" stroke-width=".095" d="M77.328 36.551v.31c2.225 0 2.225-.036 2.654-.036s.428.036 2.725.036v-1.012c-1.369.06-1.916.012-4.118.06l2.166-2.297c1.154-1.226 1.511-1.88 1.511-2.773 0-1.368-.928-2.213-2.44-2.213-.856 0-1.439.238-2.022.833l-.202 1.618h.345l.154-.547c.19-.69.62-.988 1.416-.988 1.024 0 1.678.643 1.678 1.654 0 .893-.5 1.773-1.844 3.201Z"/><path fill="#900" stroke="#900" stroke-width=".136" d="m130.662 50.88 1.802-.068c1.054 0 1.734.153 1.751.408l.136 1.513h.408c.051-1.07.17-1.938.357-2.584-.374-.034-.85-.05-1.139-.05l-.697.016-2.805.034h-.493c-.425 0-1.105-.017-1.751-.034l-.833-.017-.051.476.952.034c.408.017.595.17.595.46 0 .237-.068.781-.153 1.291l-1.275 7.378c-.289 1.564-.289 1.581-.986 1.65l-.612.05-.068.476.578-.017c.68-.017 1.224-.034 1.581-.034.306 0 .799.017 1.462.034l.884.017.051-.476-1.088-.05c-.459-.018-.612-.154-.612-.494 0-.102.017-.289.034-.357l.612-3.79h1.989c.459 0 .986.016 1.802.05l.442.017.323-.765-.068-.119a70 70 0 0 1-3.723.102h-.629l.782-4.607c.051-.272.068-.357.153-.544Z"/><svg width="10.288" height="10" x="125.8" y="38.862" overflow="visible"><path d="M10.29 4.85 7.14 1.53l-.49.52 1.93 2.33h-.15v.9h.15L6.65 7.61l.49.52zm-8.61.38h8.15v-.9H1.68z" style="fill:#900;fill-opacity:1;stroke-width:1px;stroke:none;stroke-opacity:1"/></svg><path fill="#900" stroke="#900" stroke-width=".095" d="M141.235 65.697c0-1.44-1.273-1.69-1.832-1.785.952-.738 1.309-1.285 1.309-1.987 0-1.06-.88-1.762-2.202-1.762-.809 0-1.344.227-1.916.798l-.345 1.475h.37l.213-.666c.131-.405.88-.81 1.5-.81.773 0 1.404.631 1.404 1.381 0 .893-.702 1.642-1.547 1.642-.095 0-.226-.012-.38-.023l-.18-.012-.142.63.083.072c.452-.203.678-.262 1-.262.987 0 1.559.63 1.559 1.714 0 1.213-.726 2.01-1.833 2.01-.547 0-1.035-.178-1.392-.511-.286-.262-.44-.536-.667-1.178l-.321.119c.25.726.345 1.154.417 1.75.63.213 1.154.309 1.594.309 1.464 0 3.308-1.274 3.308-2.904Z"/></svg></svg>