<svg xmlns="http://www.w3.org/2000/svg" xmlns:xlink="http://www.w3.org/1999/xlink" x="0" y="0" width="306.6000061035156" height="95.98750305175781" style="
        width:306.6000061035156px;
        height:95.98750305175781px;
        background: transparent;
        fill: none;
">
        <svg xmlns="http://www.w3.org/2000/svg"/>
        
        <svg xmlns="http://www.w3.org/2000/svg" class="role-diagram-draw-area"><g class="shapes-region" style="stroke: black; fill: none;"><g class="arrow-line"><path class="connection real" stroke-dasharray="" d="  M187.33,63.57 L187.33,23.91" style="stroke: rgb(153, 0, 0); stroke-opacity: 1; stroke-width: 1; fill: none; fill-opacity: 1;"/><g stroke="none" fill="rgb(153,0,0)" fill-opacity="1" transform="matrix(-1.8369701987210297e-16,-1,1,-1.8369701987210297e-16,187.33333638509114,66.57250366210937)" style="stroke: none; fill: rgb(153, 0, 0); stroke-width: 1;"><path d=" M10.72,-5.15 L0,0 L10.72,5.15 L7.12,0 Z"/></g></g><g class="composite-shape"><defs><!-- react-text: 58146 --> <!-- /react-text --><pattern id="_pgf2zma93lp5" x="0" y="0" width="11.313708498984761" height="11.313708498984761" patternTransform="rotate(45,0,0)" patternUnits="userSpaceOnUse"><path d="M0,0 L0,11.313708498984761" style="stroke: rgb(0, 0, 0); stroke-opacity: 1; stroke-width: 1; fill: none;"/><path d="M5.656854249492381,0 L5.656854249492381,11.313708498984761" style="stroke: rgb(0, 0, 0); stroke-opacity: 1; stroke-width: 1; fill: none;"/><path d="M11.313708498984761,0 L11.313708498984761,11.313708498984761" style="stroke: rgb(0, 0, 0); stroke-opacity: 1; stroke-width: 1; fill: none;"/></pattern></defs><path class="real" d=" M98.68,14.53 L126.48,14.53 L126.48,41.78 L98.68,41.78 Z" style="stroke-width: 1; stroke: rgb(0, 0, 0); fill: url(&quot;#_pgf2zma93lp5&quot;); fill-opacity: 1;"/></g><g class="arrow-line"><path class="connection real" stroke-dasharray="" d="  M10,27.25 L95.8,27.25" style="stroke: rgb(153, 0, 0); stroke-opacity: 1; stroke-width: 1; fill: none; fill-opacity: 1;"/><g stroke="none" fill="rgb(153,0,0)" fill-opacity="1" transform="matrix(-1,1.2246467991473532e-16,-1.2246467991473532e-16,-1,98.8,27.2458333333333)" style="stroke: none; fill: rgb(153, 0, 0); stroke-width: 1;"><path d=" M10.72,-5.15 L0,0 L10.72,5.15 L7.12,0 Z"/></g></g><g class="arrow-line"><path class="connection real" stroke-dasharray="" d="  M112.35,81.37 L112.35,69.97 L112.35,67.33 L112.35,41.71" style="stroke: rgb(153, 0, 0); stroke-opacity: 1; stroke-width: 1; fill: none; fill-opacity: 1;"/><g stroke="none" fill="rgb(153,0,0)" fill-opacity="1" transform="matrix(-1.8369701987210297e-16,-1,1,-1.8369701987210297e-16,112.34667154947913,84.37416788736974)" style="stroke: none; fill: rgb(153, 0, 0); stroke-width: 1;"><path d=" M10.72,-5.15 L0,0 L10.72,5.15 L7.12,0 Z"/></g></g><g class="composite-shape"><path class="real" d=" M184.53,23.91 C184.53,22.37 185.79,21.11 187.33,21.11 C188.88,21.11 190.13,22.37 190.13,23.91 C190.13,25.46 188.88,26.71 187.33,26.71 C185.79,26.71 184.53,25.46 184.53,23.91 Z" style="stroke-width: 1; stroke: rgb(0, 0, 0); stroke-opacity: 1; fill: rgb(0, 0, 0); fill-opacity: 1;"/></g><g class="arrow-line"><path class="connection real" stroke-dasharray="" d="  M190.13,23.91 L192.09,23.91 L247.67,23.91 L264.53,23.91 L275.93,23.91" style="stroke: rgb(153, 0, 0); stroke-opacity: 1; stroke-width: 1; fill: none; fill-opacity: 1;"/><g stroke="none" fill="rgb(153,0,0)" fill-opacity="1" transform="matrix(-1,1.2246467991473532e-16,-1.2246467991473532e-16,-1,278.9333394368489,23.912503051757792)" style="stroke: none; fill: rgb(153, 0, 0); stroke-width: 1;"><path d=" M10.72,-5.15 L0,0 L10.72,5.15 L7.12,0 Z"/></g></g><g/></g><g/><g/><g/></svg>
        <svg xmlns="http://www.w3.org/2000/svg" xmlns:xlink="http://www.w3.org/1999/xlink" width="305" height="94.38750457763672" style="width:305px;height:94.38750457763672px;font-family:Asana-Math, Asana;background:transparent;"><g><g><g><g><g><g><g transform="matrix(1,0,0,1,42.85003662109375,54.92498779296875)"><path transform="matrix(0.017,0,0,-0.017,0,0)" d="M286 646L392 650C454 650 494 641 495 626L503 537L527 537C530 600 537 651 548 689C526 691 498 692 481 692L440 691L275 689L246 689C221 689 181 690 143 691L94 692L91 664L147 662C171 661 182 652 182 635C182 621 178 589 173 559L98 125C81 33 81 32 40 28L4 25L0 -3L34 -2C74 -1 106 0 127 0C145 0 174 -1 213 -2L265 -3L268 25L204 28C177 29 168 37 168 57C168 63 169 74 170 78L206 301L323 301C350 301 381 300 429 298L455 297L474 342L470 349C389 345 329 343 251 343L214 343L260 614C263 630 264 635 269 646Z" stroke="rgb(153,0,0)" stroke-opacity="1" stroke-width="8" fill="rgb(153,0,0)" fill-opacity="1"></path></g></g></g></g><svg x="42.85003662109375" overflow="visible" y="31.92498779296875" height="10" width="10.287500381469727"><path d=" M 10.29 4.85 l -3.15 -3.32 l -0.49 0.52 l 1.93 2.33 h -0.15 v 0.90 h 0.15 l -1.93 2.33 l 0.49 0.52 z  M 1.68 5.23 h 8.15 v -0.90 h -8.15 z" style="fill:rgb(153,0,0);fill-opacity:1;stroke-width:1px;stroke:none;stroke-opacity:1;"></path></svg></g></g></g><g><g><g><g><g><g><g transform="matrix(1,0,0,1,120.72503662109375,73.36248779296875)"><path transform="matrix(0.017,0,0,-0.017,0,0)" d="M286 646L392 650C454 650 494 641 495 626L503 537L527 537C530 600 537 651 548 689C526 691 498 692 481 692L440 691L275 689L246 689C221 689 181 690 143 691L94 692L91 664L147 662C171 661 182 652 182 635C182 621 178 589 173 559L98 125C81 33 81 32 40 28L4 25L0 -3L34 -2C74 -1 106 0 127 0C145 0 174 -1 213 -2L265 -3L268 25L204 28C177 29 168 37 168 57C168 63 169 74 170 78L206 301L323 301C350 301 381 300 429 298L455 297L474 342L470 349C389 345 329 343 251 343L214 343L260 614C263 630 264 635 269 646Z" stroke="rgb(153,0,0)" stroke-opacity="1" stroke-width="8" fill="rgb(153,0,0)" fill-opacity="1"></path></g></g></g></g><svg x="120.72503662109375" overflow="visible" y="50.36248779296875" height="10" width="10.287500381469727"><path d=" M 10.29 4.85 l -3.15 -3.32 l -0.49 0.52 l 1.93 2.33 h -0.15 v 0.90 h 0.15 l -1.93 2.33 l 0.49 0.52 z  M 1.68 5.23 h 8.15 v -0.90 h -8.15 z" style="fill:rgb(153,0,0);fill-opacity:1;stroke-width:1px;stroke:none;stroke-opacity:1;"></path></svg></g><g><g><g><g><g transform="matrix(1,0,0,1,130.66253662109375,79.06250610351563)"><path transform="matrix(0.0119,0,0,-0.0119,0,0)" d="M275 482C208 482 55 419 55 259C55 182 100 136 177 136C185 136 196 136 207 137L166 99C150 84 139 66 139 52C139 42 146 31 160 19C91 -4 -37 -48 -37 -159C-37 -230 33 -276 142 -276C271 -276 384 -204 384 -121C384 -85 363 -49 320 -14L260 35C226 62 213 81 213 100C213 114 228 128 240 146C338 170 409 253 409 342C409 357 406 376 405 380C422 378 430 378 439 378C456 378 466 379 489 382L498 427L495 433C467 426 447 424 393 424C393 425 369 482 275 482ZM176 1L253 -58C299 -94 318 -121 318 -154C318 -206 249 -248 166 -248C84 -248 27 -206 27 -145C27 -43 137 -11 176 1ZM250 448C308 448 337 412 337 341C337 238 289 168 219 168C158 168 126 209 126 288C126 383 177 448 250 448ZM867 365C870 403 875 435 883 476C872 481 868 482 863 482C832 482 801 458 765 407C726 351 687 291 671 256L703 408C707 425 709 438 709 450C709 470 701 482 686 482C665 482 627 461 553 408L525 388L532 368L564 389C592 407 603 412 612 412C622 412 629 403 629 390C629 332 586 126 546 -2L556 -9C571 -4 587 -1 610 4L623 6L649 126C667 209 690 262 734 319C768 363 795 384 817 384C832 384 842 379 853 365ZM1158 204L1129 77C1125 60 1123 42 1123 26C1123 4 1132 -9 1147 -9C1170 -9 1211 17 1293 85L1286 106C1262 86 1233 59 1211 59C1202 59 1196 68 1196 82C1196 87 1196 90 1197 93L1289 472L1279 481L1246 463C1205 478 1188 482 1161 482C1133 482 1113 477 1086 464C1024 433 991 403 966 354C922 265 891 145 891 67C891 23 906 -11 925 -11C962 -11 1042 41 1158 204ZM1206 414C1184 305 1165 253 1131 201C1074 117 1013 59 981 59C969 59 963 72 963 99C963 163 991 280 1026 360C1050 415 1073 433 1121 433C1144 433 1162 429 1206 414ZM1496 420C1517 420 1533 421 1559 424C1448 304 1406 221 1406 121C1406 44 1452 -11 1516 -11C1654 -11 1807 236 1807 384C1807 441 1781 482 1745 482C1732 482 1720 478 1712 470L1662 423L1673 404C1682 410 1691 413 1700 413C1727 413 1743 390 1743 350C1743 202 1646 39 1558 39C1509 39 1478 81 1478 146C1478 251 1517 342 1615 464L1605 482C1585 473 1572 470 1544 470C1516 470 1474 472 1445 475L1433 476C1427 477 1422 477 1421 477C1409 477 1400 475 1389 470C1375 443 1364 407 1351 352L1373 352L1390 394C1397 411 1417 422 1441 422C1474 422 1458 420 1496 420ZM1863 388L1870 368L1902 389C1939 412 1942 414 1949 414C1959 414 1967 404 1967 391C1967 384 1963 361 1959 347L1893 107C1885 76 1880 49 1880 30C1880 6 1891 -9 1910 -9C1936 -9 1972 12 2070 85L2060 103L2034 86C2005 67 1982 56 1973 56C1966 56 1960 66 1960 76C1960 86 1962 95 1967 116L2044 420C2048 437 2050 448 2050 456C2050 473 2041 482 2025 482C2003 482 1966 461 1891 408ZM2057 712C2028 712 1999 679 1999 645C1999 620 2014 604 2038 604C2069 604 2093 633 2093 671C2093 695 2078 712 2057 712ZM2231 390L2175 107C2174 99 2162 61 2162 31C2162 6 2173 -9 2192 -9C2227 -9 2262 11 2340 74L2371 99L2361 117L2316 86C2287 66 2267 56 2256 56C2247 56 2242 64 2242 76C2242 102 2256 183 2285 328L2298 390L2405 390L2416 440C2378 436 2344 434 2306 434C2322 528 2333 577 2351 631L2340 646C2320 634 2293 622 2262 610L2237 440C2193 419 2167 408 2149 403L2147 390ZM2431 -180C2430 -187 2430 -193 2430 -198C2430 -241 2467 -276 2512 -276C2618 -276 2728 -152 2787 33L2928 473L2917 482C2888 471 2865 465 2843 463L2808 331C2796 284 2761 211 2728 162C2693 111 2644 67 2622 67C2610 67 2601 90 2602 115L2618 322C2620 353 2622 391 2622 419C2622 464 2615 482 2598 482C2585 482 2571 475 2523 442L2441 386L2452 368L2502 398C2507 401 2518 410 2527 410C2541 410 2549 391 2549 358C2549 357 2549 351 2548 343L2531 100L2530 60C2530 18 2548 -11 2573 -11C2610 -11 2694 74 2769 187L2720 16C2669 -161 2619 -234 2549 -234C2514 -234 2487 -207 2487 -172C2487 -167 2488 -159 2489 -150L2479 -146Z" stroke="rgb(153,0,0)" stroke-opacity="1" stroke-width="8" fill="rgb(153,0,0)" fill-opacity="1"></path></g></g></g></g></g></g></g><g><g><g><g><g><g><g transform="matrix(1,0,0,1,197.0250244140625,54.92498779296875)"><path transform="matrix(0.017,0,0,-0.017,0,0)" d="M286 646L392 650C454 650 494 641 495 626L503 537L527 537C530 600 537 651 548 689C526 691 498 692 481 692L440 691L275 689L246 689C221 689 181 690 143 691L94 692L91 664L147 662C171 661 182 652 182 635C182 621 178 589 173 559L98 125C81 33 81 32 40 28L4 25L0 -3L34 -2C74 -1 106 0 127 0C145 0 174 -1 213 -2L265 -3L268 25L204 28C177 29 168 37 168 57C168 63 169 74 170 78L206 301L323 301C350 301 381 300 429 298L455 297L474 342L470 349C389 345 329 343 251 343L214 343L260 614C263 630 264 635 269 646Z" stroke="rgb(153,0,0)" stroke-opacity="1" stroke-width="8" fill="rgb(153,0,0)" fill-opacity="1"></path></g></g></g></g><svg x="197.0250244140625" overflow="visible" y="31.92498779296875" height="10" width="10.287500381469727"><path d=" M 10.29 4.85 l -3.15 -3.32 l -0.49 0.52 l 1.93 2.33 h -0.15 v 0.90 h 0.15 l -1.93 2.33 l 0.49 0.52 z  M 1.68 5.23 h 8.15 v -0.90 h -8.15 z" style="fill:rgb(153,0,0);fill-opacity:1;stroke-width:1px;stroke:none;stroke-opacity:1;"></path></svg></g><g><g><g><g><g transform="matrix(1,0,0,1,206.9625244140625,60.625006103515624)"><path transform="matrix(0.0119,0,0,-0.0119,0,0)" d="M275 482C208 482 55 419 55 259C55 182 100 136 177 136C185 136 196 136 207 137L166 99C150 84 139 66 139 52C139 42 146 31 160 19C91 -4 -37 -48 -37 -159C-37 -230 33 -276 142 -276C271 -276 384 -204 384 -121C384 -85 363 -49 320 -14L260 35C226 62 213 81 213 100C213 114 228 128 240 146C338 170 409 253 409 342C409 357 406 376 405 380C422 378 430 378 439 378C456 378 466 379 489 382L498 427L495 433C467 426 447 424 393 424C393 425 369 482 275 482ZM176 1L253 -58C299 -94 318 -121 318 -154C318 -206 249 -248 166 -248C84 -248 27 -206 27 -145C27 -43 137 -11 176 1ZM250 448C308 448 337 412 337 341C337 238 289 168 219 168C158 168 126 209 126 288C126 383 177 448 250 448ZM867 365C870 403 875 435 883 476C872 481 868 482 863 482C832 482 801 458 765 407C726 351 687 291 671 256L703 408C707 425 709 438 709 450C709 470 701 482 686 482C665 482 627 461 553 408L525 388L532 368L564 389C592 407 603 412 612 412C622 412 629 403 629 390C629 332 586 126 546 -2L556 -9C571 -4 587 -1 610 4L623 6L649 126C667 209 690 262 734 319C768 363 795 384 817 384C832 384 842 379 853 365ZM1158 204L1129 77C1125 60 1123 42 1123 26C1123 4 1132 -9 1147 -9C1170 -9 1211 17 1293 85L1286 106C1262 86 1233 59 1211 59C1202 59 1196 68 1196 82C1196 87 1196 90 1197 93L1289 472L1279 481L1246 463C1205 478 1188 482 1161 482C1133 482 1113 477 1086 464C1024 433 991 403 966 354C922 265 891 145 891 67C891 23 906 -11 925 -11C962 -11 1042 41 1158 204ZM1206 414C1184 305 1165 253 1131 201C1074 117 1013 59 981 59C969 59 963 72 963 99C963 163 991 280 1026 360C1050 415 1073 433 1121 433C1144 433 1162 429 1206 414ZM1496 420C1517 420 1533 421 1559 424C1448 304 1406 221 1406 121C1406 44 1452 -11 1516 -11C1654 -11 1807 236 1807 384C1807 441 1781 482 1745 482C1732 482 1720 478 1712 470L1662 423L1673 404C1682 410 1691 413 1700 413C1727 413 1743 390 1743 350C1743 202 1646 39 1558 39C1509 39 1478 81 1478 146C1478 251 1517 342 1615 464L1605 482C1585 473 1572 470 1544 470C1516 470 1474 472 1445 475L1433 476C1427 477 1422 477 1421 477C1409 477 1400 475 1389 470C1375 443 1364 407 1351 352L1373 352L1390 394C1397 411 1417 422 1441 422C1474 422 1458 420 1496 420ZM1863 388L1870 368L1902 389C1939 412 1942 414 1949 414C1959 414 1967 404 1967 391C1967 384 1963 361 1959 347L1893 107C1885 76 1880 49 1880 30C1880 6 1891 -9 1910 -9C1936 -9 1972 12 2070 85L2060 103L2034 86C2005 67 1982 56 1973 56C1966 56 1960 66 1960 76C1960 86 1962 95 1967 116L2044 420C2048 437 2050 448 2050 456C2050 473 2041 482 2025 482C2003 482 1966 461 1891 408ZM2057 712C2028 712 1999 679 1999 645C1999 620 2014 604 2038 604C2069 604 2093 633 2093 671C2093 695 2078 712 2057 712ZM2231 390L2175 107C2174 99 2162 61 2162 31C2162 6 2173 -9 2192 -9C2227 -9 2262 11 2340 74L2371 99L2361 117L2316 86C2287 66 2267 56 2256 56C2247 56 2242 64 2242 76C2242 102 2256 183 2285 328L2298 390L2405 390L2416 440C2378 436 2344 434 2306 434C2322 528 2333 577 2351 631L2340 646C2320 634 2293 622 2262 610L2237 440C2193 419 2167 408 2149 403L2147 390ZM2431 -180C2430 -187 2430 -193 2430 -198C2430 -241 2467 -276 2512 -276C2618 -276 2728 -152 2787 33L2928 473L2917 482C2888 471 2865 465 2843 463L2808 331C2796 284 2761 211 2728 162C2693 111 2644 67 2622 67C2610 67 2601 90 2602 115L2618 322C2620 353 2622 391 2622 419C2622 464 2615 482 2598 482C2585 482 2571 475 2523 442L2441 386L2452 368L2502 398C2507 401 2518 410 2527 410C2541 410 2549 391 2549 358C2549 357 2549 351 2548 343L2531 100L2530 60C2530 18 2548 -11 2573 -11C2610 -11 2694 74 2769 187L2720 16C2669 -161 2619 -234 2549 -234C2514 -234 2487 -207 2487 -172C2487 -167 2488 -159 2489 -150L2479 -146Z" stroke="rgb(153,0,0)" stroke-opacity="1" stroke-width="8" fill="rgb(153,0,0)" fill-opacity="1"></path></g></g></g></g></g></g></g><g><g><g><g><g><g><g transform="matrix(1,0,0,1,282.42498779296875,32.79998779296875)"><path transform="matrix(0.017,0,0,-0.017,0,0)" d="M286 646L392 650C454 650 494 641 495 626L503 537L527 537C530 600 537 651 548 689C526 691 498 692 481 692L440 691L275 689L246 689C221 689 181 690 143 691L94 692L91 664L147 662C171 661 182 652 182 635C182 621 178 589 173 559L98 125C81 33 81 32 40 28L4 25L0 -3L34 -2C74 -1 106 0 127 0C145 0 174 -1 213 -2L265 -3L268 25L204 28C177 29 168 37 168 57C168 63 169 74 170 78L206 301L323 301C350 301 381 300 429 298L455 297L474 342L470 349C389 345 329 343 251 343L214 343L260 614C263 630 264 635 269 646Z" stroke="rgb(153,0,0)" stroke-opacity="1" stroke-width="8" fill="rgb(153,0,0)" fill-opacity="1"></path></g></g></g></g><svg x="282.42498779296875" overflow="visible" y="9.79998779296875" height="10" width="10.287500381469727"><path d=" M 10.29 4.85 l -3.15 -3.32 l -0.49 0.52 l 1.93 2.33 h -0.15 v 0.90 h 0.15 l -1.93 2.33 l 0.49 0.52 z  M 1.68 5.23 h 8.15 v -0.90 h -8.15 z" style="fill:rgb(153,0,0);fill-opacity:1;stroke-width:1px;stroke:none;stroke-opacity:1;"></path></svg></g></g></g></svg>
</svg>
