<svg xmlns="http://www.w3.org/2000/svg" width="161.6" height="174.2" style="width:161.60000610351562px;height:174.1999969482422px;background:0 0;fill:none"><svg xmlns="http://www.w3.org/2000/svg"/><svg xmlns="http://www.w3.org/2000/svg" class="role-diagram-draw-area"><g class="shapes-region" style="stroke:#000;fill:none"><g class="composite-shape"><defs><pattern id="_pgfbddscf5ce" width="11.314" height="11.314" x="0" y="0" patternTransform="rotate(-45 0 0)" patternUnits="userSpaceOnUse"><path d="M0 0v11.314M5.657 0v11.314M11.314 0v11.314" style="stroke:#000;stroke-opacity:1;stroke-width:1;fill:none"/></pattern></defs><path d="M23.6 115c0-23.97 19.43-43.4 43.4-43.4s43.4 19.43 43.4 43.4-19.43 43.4-43.4 43.4-43.4-19.43-43.4-43.4Z" class="real" style="stroke-width:1;stroke:#000;fill:url(#_pgfbddscf5ce);fill-opacity:1"/></g><g class="composite-shape"><path d="M119.95 21.15c0-2.57 2.08-4.65 4.65-4.65s4.65 2.08 4.65 4.65-2.08 4.65-4.65 4.65-4.65-2.08-4.65-4.65Z" class="real" style="stroke-width:1;stroke:#900;stroke-opacity:1;fill:#900;fill-opacity:1"/></g><g class="arrow-line"><path d="M124.6 21.15 107.29 49.3" class="connection real" style="stroke:#900;stroke-opacity:1;stroke-width:1;fill:none;fill-opacity:1"/><path stroke="#900" d="M10.93-3.29Q4.96-.45 0 0q4.96.45 10.93 3.29" style="stroke:#900;stroke-width:1" transform="rotate(-58.41 98.738 -69.528)"/></g></g></svg><svg xmlns="http://www.w3.org/2000/svg" xmlns:xlink="http://www.w3.org/1999/xlink" width="160" height="172.6" style="width:160px;height:172.60000610351562px;font-family:Asana-Math,Asana;background:0 0"><path fill="#900" stroke="#900" stroke-width=".136" d="M123.575 55.206c-1.139 0-3.74 1.071-3.74 3.791 0 1.309.765 2.091 2.074 2.091.136 0 .323 0 .51-.017l-.697.646c-.272.255-.459.561-.459.799q0 .255.357.561c-1.173.391-3.349 1.139-3.349 3.026 0 1.207 1.19 1.989 3.043 1.989 2.193 0 4.114-1.224 4.114-2.635 0-.612-.357-1.224-1.088-1.819l-1.02-.833c-.578-.459-.799-.782-.799-1.105 0-.238.255-.476.459-.782 1.666-.408 2.873-1.819 2.873-3.332 0-.255-.051-.578-.068-.646.289.034.425.034.578.034.289 0 .459-.017.85-.068l.153-.765-.051-.102c-.476.119-.816.153-1.734.153 0-.017-.408-.986-2.006-.986Zm-1.683 8.177 1.309 1.003c.782.612 1.105 1.071 1.105 1.632 0 .884-1.173 1.598-2.584 1.598-1.394 0-2.363-.714-2.363-1.751 0-1.734 1.87-2.278 2.533-2.482Zm1.258-7.599c.986 0 1.479.612 1.479 1.819 0 1.751-.816 2.941-2.006 2.941-1.037 0-1.581-.697-1.581-2.04 0-1.615.867-2.72 2.108-2.72Z"/><svg width="9.35" height="10" x="118.9" y="44.4" overflow="visible"><path d="M9.35 4.85 6.2 1.53l-.49.52 1.93 2.33h-.15v.9h.15L5.71 7.61l.49.52zm-7.67.38h7.21v-.9H1.68z" style="fill:#900;fill-opacity:1;stroke-width:1px;stroke:none;stroke-opacity:1"/></svg><text x="106.3" y="157.767" style="white-space:pre;stroke:none;fill:#000;fill-opacity:1;font-size:17px;font-family:Asana-Math,Asana;font-weight:400;font-style:normal;dominant-baseline:auto;text-decoration:none">♁</text></svg></svg>