<svg xmlns="http://www.w3.org/2000/svg" width="306.6" height="96" style="width:306.6000061035156px;height:95.98750305175781px;background:0 0;fill:none"><svg xmlns="http://www.w3.org/2000/svg"/><svg xmlns="http://www.w3.org/2000/svg" class="role-diagram-draw-area"><g class="shapes-region" style="stroke:#000;fill:none"><g class="arrow-line"><path d="M187.3 63.6V23.9" class="connection real" style="stroke:#900;stroke-opacity:1;stroke-width:1;fill:none;fill-opacity:1"/><path fill="#900" stroke="none" d="M10.7-5.1 0 0l10.7 5.2L7.1 0Z" style="stroke:none;fill:#900;stroke-width:1" transform="rotate(-90 127 -60.4)"/></g><g class="composite-shape"><defs><pattern id="_pgf2zma93lp5" width="11.3" height="11.3" x="0" y="0" patternTransform="rotate(45 0 0)" patternUnits="userSpaceOnUse"><path d="M0 0v11.3M5.7 0v11.3M11.3 0v11.3" style="stroke:#000;stroke-opacity:1;stroke-width:1;fill:none"/></pattern></defs><path d="M98.7 14.5h27.8v27.3H98.7Z" class="real" style="stroke-width:1;stroke:#000;fill:url(#_pgf2zma93lp5);fill-opacity:1"/></g><g class="arrow-line"><path d="M10 27.3h85.8" class="connection real" style="stroke:#900;stroke-opacity:1;stroke-width:1;fill:none;fill-opacity:1"/><path fill="#900" stroke="none" d="M10.7-5.1 0 0l10.7 5.2L7.1 0Z" style="stroke:none;fill:#900;stroke-width:1" transform="matrix(-1 0 0 -1 98.8 27.2)"/></g><g class="arrow-line"><path d="M112.4 81.4V41.7" class="connection real" style="stroke:#900;stroke-opacity:1;stroke-width:1;fill:none;fill-opacity:1"/><path fill="#900" stroke="none" d="M10.7-5.1 0 0l10.7 5.2L7.1 0Z" style="stroke:none;fill:#900;stroke-width:1" transform="rotate(-90 98.4 -14)"/></g><g class="composite-shape"><path d="M184.5 24c0-1.6 1.3-2.9 2.8-2.9a2.8 2.8 0 1 1-2.8 2.8Z" class="real" style="stroke-width:1;stroke:#000;stroke-opacity:1;fill:#000;fill-opacity:1"/></g><g class="arrow-line"><path d="M190.1 24H276" class="connection real" style="stroke:#900;stroke-opacity:1;stroke-width:1;fill:none;fill-opacity:1"/><path fill="#900" stroke="none" d="M10.7-5.1 0 0l10.7 5.2L7.1 0Z" style="stroke:none;fill:#900;stroke-width:1" transform="matrix(-1 0 0 -1 279 24)"/></g></g></svg><svg xmlns="http://www.w3.org/2000/svg" xmlns:xlink="http://www.w3.org/1999/xlink" width="305" height="94.4" style="width:305px;height:94.38750457763672px;font-family:Asana-Math,Asana;background:0 0"><path fill="#900" stroke="#900" stroke-width=".1" d="m47.7 44 1.8-.1q1.6 0 1.8.4l.1 1.5h.4q0-1.6.4-2.6h-7.8v.4h1q.6 0 .5.5l-.1 1.3-1.3 7.4c-.3 1.6-.3 1.6-1 1.6l-.6.1v.5h4.5v-.5h-1q-.7 0-.7-.5v-.4l.7-3.8h4.2l.3-.7V49h-4.4l.8-4.5.1-.6Z"/><svg width="10.3" height="10" x="42.9" y="31.9" overflow="visible"><path d="M10.3 4.9 7 1.4l-.5.5 2 2.4h-.2v.9h.2l-2 2.3.5.5zm-8.6.3h8.1v-.9H1.7z" style="fill:#900;fill-opacity:1;stroke-width:1px;stroke:none;stroke-opacity:1"/></svg><path fill="#900" stroke="#900" stroke-width=".1" d="M125.6 62.4h1.8q1.6 0 1.7.3l.2 1.5h.4q0-1.5.3-2.6h-7.7v.5h1q.5 0 .5.5l-.1 1.3-1.3 7.3c-.3 1.6-.3 1.6-1 1.7h-.6v.5h4.5V73h-1.1q-.7 0-.6-.5V72l.6-3.8h2l1.8.1h.5l.3-.8h-4.4l.7-4.6.2-.5Z"/><svg width="10.3" height="10" x="120.7" y="50.4" overflow="visible"><path d="M10.3 4.9 7 1.4l-.5.5 2 2.4h-.2v.9h.2l-2 2.3.5.5zm-8.6.3h8.1v-.9H1.7z" style="fill:#900;fill-opacity:1;stroke-width:1px;stroke:none;stroke-opacity:1"/></svg><path fill="#900" stroke="#900" stroke-width=".1" d="M134 73.3c-.9 0-2.7.8-2.7 2.7q0 1.4 1.5 1.4h.3l-.5.5-.3.5q0 .3.3.4c-.9.3-2.4.8-2.4 2.2q.1 1.2 2.2 1.3c1.5 0 2.8-.8 2.8-1.8q0-.7-.7-1.3l-.7-.6q-.6-.4-.6-.7l.3-.6q1.9-.5 2-2.3v-.5h1V74h-1.2s-.2-.7-1.4-.7Zm-1.2 5.8.9.7q.7.6.7 1.1-.2 1-1.8 1.1-1.6 0-1.6-1.2c0-1.2 1.3-1.6 1.8-1.7Zm.8-5.4q1 0 1 1.3 0 1.9-1.3 2-1.2 0-1.1-1.4.1-1.8 1.4-1.9Zm7.4 1 .2-1.3h-.3q-.5 0-1.1.8l-1.2 1.8.4-1.8.1-.5q0-.3-.3-.4-.3 0-1.6 1l-.3.1v.3l.5-.3.5-.2q.3 0 .2.2c0 .7-.5 3.2-1 4.7h.8l.2-.1.3-1.4q.3-1.5 1-2.3t1-.8.4.2Zm3.4 2-.3 1.4v.7q0 .3.2.4.4 0 1.7-1.1v-.3l-1 .6-.1-.3V78l1.1-4.6h-.1l-.4.2-1-.3-1 .2q-1 .6-1.3 1.3-1 1.8-1 3.5 0 .8.5.9c.4 0 1.4-.6 2.7-2.6Zm.6-2.6q-.3 1.8-.9 2.6-1.1 1.6-1.8 1.7-.2 0-.2-.5c0-.8.4-2.2.8-3.1q.3-1 1.1-.9zm3.5 0h.7q-1.9 1.8-1.8 3.5 0 1.5 1.3 1.6c1.6 0 3.5-3 3.5-4.7q0-1.1-.8-1.2l-.4.2-.6.5.2.3.3-.2q.5 0 .5.8c0 1.8-1.2 3.7-2.2 3.7q-1 0-1-1.3 0-1.7 1.7-3.8l-.1-.2-.8.2h-1l-.2-.1h-.5l-.5 1.5h.3l.2-.5q0-.3.6-.4zm4.3.3.1.3.4-.3.6-.3.2.3-.1.5-.8 2.9-.2 1q0 .4.4.4.3 0 1.9-1.1l-.1-.3-.3.2-.8.4-.1-.2v-.5l1-3.6v-.5q0-.3-.2-.3t-1.6 1Zm2.3-3.8q-.5.1-.6.8 0 .5.4.5.7-.1.7-.8 0-.5-.5-.5Zm2.1 3.8-.7 3.4-.1.9q0 .5.3.5.6 0 1.8-1l.4-.3-.1-.2-.6.3-.7.4-.2-.2.6-3 .1-.8h1.3l.1-.6-1.3.1.5-2.3v-.2l-1 .4-.3 2-1 .5v.1Zm2.4 6.8v.2q0 .9 1 1c1.2 0 2.5-1.5 3.2-3.7l1.7-5.3h-.1l-1 .2-.3 1.5q-.3 1-1 2t-1.2 1.2q-.3 0-.3-.6l.2-2.5v-1.1q0-.8-.2-.8l-1 .5-.9.7.1.2.6-.4.3-.1q.3 0 .3.6v.2l-.2 2.9v.4q0 .8.5.9.8-.2 2.3-2.4l-.6 2q-.8 3.1-2 3a1 1 0 0 1-.7-.7v-.3h-.1ZM201.9 44l1.8-.1q1.6 0 1.7.4l.2 1.5h.4q0-1.6.3-2.6h-7.7v.4h1q.5 0 .5.5l-.1 1.3-1.3 7.4c-.3 1.6-.3 1.6-1 1.6l-.6.1v.5h4.5v-.5h-1.1q-.7 0-.6-.5v-.4l.6-3.8h4.3l.3-.7V49h-4.4l.7-4.5.2-.6Z"/><svg width="10.3" height="10" x="197" y="31.9" overflow="visible"><path d="M10.3 4.9 7 1.4l-.5.5 2 2.4h-.2v.9h.2l-2 2.3.5.5zm-8.6.3h8.1v-.9H1.7z" style="fill:#900;fill-opacity:1;stroke-width:1px;stroke:none;stroke-opacity:1"/></svg><path fill="#900" stroke="#900" stroke-width=".1" d="M210.2 54.9c-.8 0-2.6.7-2.6 2.6q0 1.5 1.5 1.5h.3l-.5.4-.3.6.3.4c-.9.3-2.4.8-2.4 2.1q.1 1.4 2.2 1.4c1.5 0 2.8-.8 2.8-1.8q0-.7-.7-1.3l-.7-.6q-.6-.4-.6-.8l.3-.5q1.9-.6 2-2.3V56h1v-.6h-1.2s-.2-.6-1.4-.6Zm-1.1 5.7.9.7q.7.6.7 1.2-.2 1-1.8 1t-1.6-1.1c0-1.3 1.3-1.6 1.8-1.8Zm.8-5.3q1 0 1 1.3 0 1.9-1.3 2-1.2 0-1.1-1.4.1-1.8 1.4-2Zm7.4 1q0-.7.2-1.3l-.3-.1q-.5 0-1.1.9l-1.2 1.8.4-1.8.1-.5q0-.4-.3-.4t-1.6.9l-.3.2v.2l.5-.2.5-.3q.3 0 .2.3c0 .7-.5 3.1-1 4.6l.2.1.6-.1h.2l.3-1.5q.3-1.4 1-2.3.6-.7 1-.7.3 0 .4.2Zm3.4 1.9-.3 1.5v.6q0 .4.2.4.4 0 1.7-1v-.3q-.5.4-1 .5l-.1-.3 1.1-4.6-.1-.1-.4.2-1-.2-1 .2q-1 .5-1.3 1.3c-.6 1-1 2.5-1 3.4q0 1 .5 1 .7.1 2.7-2.6Zm.6-2.5q-.3 1.9-.9 2.5-1.1 1.6-1.8 1.7-.2 0-.2-.5c0-.7.4-2.1.8-3q.3-1 1.1-1zm3.5 0 .7-.1q-1.9 2-1.8 3.6 0 1.5 1.3 1.6c1.6 0 3.5-3 3.5-4.7q0-1.1-.8-1.2l-.4.1-.6.6.2.2h.3q.5 0 .5.7c0 1.7-1.2 3.7-2.2 3.7q-1 0-1-1.3 0-1.7 1.7-3.8l-.1-.2-.8.1h-1.8l-.5 1.4h.3l.2-.5q0-.3.6-.3zm4.3.3.1.2.4-.2.6-.3.2.3-.1.5-.8 2.9-.2.9q0 .4.4.4.3.1 1.9-1l-.1-.3-.3.2-.8.4-.1-.3v-.5l1-3.6v-.4q0-.3-.2-.3t-1.6.9Zm2.3-3.8q-.5 0-.6.7 0 .5.4.5.7 0 .7-.8 0-.4-.5-.4Zm2.1 3.8-.7 3.4-.1.9q0 .4.3.4.6.1 1.8-1l.4-.3-.1-.2-.6.4-.7.4q-.2 0-.2-.3l.6-3 .1-.7h1.3l.1-.6h-1.3l.5-2.3V53l-1 .5-.3 2-1 .4v.2Zm2.4 6.8v.2q0 .9 1 1c1.2 0 2.5-1.6 3.2-3.8l1.7-5.2-.1-.1-1 .2-.3 1.6-1 2q-.8 1-1.2 1.1-.3 0-.3-.5l.2-2.5v-1.2q0-.7-.2-.7-.1-.1-1 .5l-.9.6.1.2.6-.3.3-.2q.3 0 .3.7v.1l-.2 3v.4q0 .8.5.9.8-.2 2.3-2.4l-.6 2q-.8 3-2 3a1 1 0 0 1-.7-.7v-.3h-.1Zm51.4-41h1.8q1.6 0 1.7.4l.2 1.5h.4q0-1.7.3-2.6H284v.4h1q.5 0 .5.5l-.1 1.3-1.3 7.4c-.3 1.5-.3 1.6-1 1.6h-.6v.6h.5l1.6-.1h2.4v-.4h-1.1q-.7 0-.6-.6v-.3l.6-3.8h4.3l.3-.7v-.1H286l.7-4.5.2-.6Z"/><svg width="10.3" height="10" x="282.4" y="9.8" overflow="visible"><path d="M10.3 4.9 7 1.4l-.5.5 2 2.4h-.2v.9h.2l-2 2.3.5.5zm-8.6.3h8.1v-.9H1.7z" style="fill:#900;fill-opacity:1;stroke-width:1px;stroke:none;stroke-opacity:1"/></svg></svg></svg>