<svg xmlns="http://www.w3.org/2000/svg" width="161.6" height="105.4" style="width:161.6px;height:105.4px;background:0 0;fill:none"><svg xmlns="http://www.w3.org/2000/svg"/><svg xmlns="http://www.w3.org/2000/svg" class="role-diagram-draw-area"><g class="shapes-region" style="stroke:#000;fill:none"><g class="composite-shape"><defs><pattern id="_pgf9b6m6eq0j" width="11.314" height="11.314" x="0" y="0" patternTransform="rotate(45 0 0)" patternUnits="userSpaceOnUse"><path d="M0 0v11.314M5.657 0v11.314M11.314 0v11.314" style="stroke:#000;stroke-opacity:1;stroke-width:1;fill:none"/></pattern></defs><path d="M52.75 7.2h27.8v27.25h-27.8Z" class="real" style="stroke-width:1;stroke:#000;fill:url(#_pgf9b6m6eq0j);fill-opacity:1"/></g><g class="composite-shape"><path d="M64.85 20.83c0-1 .8-1.8 1.8-1.8a1.799 1.799 0 1 1 0 3.6c-1 0-1.8-.81-1.8-1.8Z" class="real" style="stroke-width:1;stroke:#900;stroke-opacity:1;fill:#900;fill-opacity:1"/></g><g class="arrow-line"><path d="M66.65 97.22V36.16" class="connection real" style="stroke:#900;stroke-opacity:1;stroke-width:1;fill:none;fill-opacity:1"/><path stroke="#900" d="M10.93-3.29Q4.96-.45 0 0q4.96.45 10.93 3.29" style="stroke:#900;stroke-width:1" transform="rotate(90 16.244 50.405)"/></g><g class="arrow-line"><path d="m15.84 71.36 35.49-35.49" class="connection real" style="stroke:#900;stroke-opacity:1;stroke-width:1;fill:none;fill-opacity:1"/><path stroke="#900" d="M10.93-3.29Q4.96-.45 0 0q4.96.45 10.93 3.29" style="stroke:#900;stroke-width:1" transform="rotate(135 19.238 28.152)"/></g><g class="arrow-line"><path d="M152.24 20.4H83.35" class="connection real" style="stroke:#900;stroke-opacity:1;stroke-width:1;fill:none;fill-opacity:1"/><path stroke="#900" d="M10.93-3.29Q4.96-.45 0 0q4.96.45 10.93 3.29" style="stroke:#900;stroke-width:1" transform="translate(81.349 20.4)"/></g></g></svg><svg xmlns="http://www.w3.org/2000/svg" xmlns:xlink="http://www.w3.org/1999/xlink" width="160" height="103.8" style="width:160px;height:103.79999999999995px;font-family:Asana-Math,Asana;background:0 0"><path fill="#900" stroke="#900" stroke-width=".136" d="m117.262 34.018 1.802-.068c1.054 0 1.734.153 1.751.408l.136 1.513h.408c.051-1.071.17-1.938.357-2.584-.374-.034-.85-.051-1.139-.051l-.697.017-2.805.034h-.493c-.425 0-1.105-.017-1.751-.034l-.833-.017-.051.476.952.034c.408.017.595.17.595.459 0 .238-.068.782-.153 1.292l-1.275 7.378c-.289 1.564-.289 1.581-.986 1.649l-.612.051-.068.476.578-.017c.68-.017 1.224-.034 1.581-.034.306 0 .799.017 1.462.034l.884.017.051-.476-1.088-.051c-.459-.017-.612-.153-.612-.493 0-.102.017-.289.034-.357l.612-3.791h1.989c.459 0 .986.017 1.802.051l.442.017.323-.765-.068-.119a70 70 0 0 1-3.723.102h-.629l.782-4.607c.051-.272.068-.357.153-.544Z"/><svg width="10.287" height="10" x="112.4" y="22" overflow="visible"><path d="M10.29 4.85 7.14 1.53l-.49.52 1.93 2.33h-.15v.9h.15L6.65 7.61l.49.52zm-8.61.38h8.15v-.9H1.68z" style="fill:#900;fill-opacity:1;stroke-width:1px;stroke:none;stroke-opacity:1"/></svg><path fill="#900" stroke="#900" stroke-width=".095" d="M127.312 51.536v-.357l-.62-.036c-.654-.036-.773-.167-.773-.785V43.17l-2.867 1.214.083.595 1.785-.786v6.165c0 .618-.131.75-.774.785l-.666.036v.357c1.833-.036 1.833-.036 1.963-.036.37 0 1.678.036 1.869.036Z"/><path fill="#900" stroke="#900" stroke-width=".136" d="m78.462 71.618 1.802-.068c1.054 0 1.734.153 1.751.408l.136 1.513h.408c.051-1.071.17-1.938.357-2.584-.374-.034-.85-.051-1.139-.051l-.697.017-2.805.034h-.493c-.425 0-1.105-.017-1.751-.034l-.833-.017-.051.476.952.034c.408.017.595.17.595.459 0 .238-.068.782-.153 1.292l-1.275 7.378c-.289 1.564-.289 1.581-.986 1.649l-.612.051-.068.476.578-.017c.68-.017 1.224-.034 1.581-.034.306 0 .799.017 1.462.034l.884.017.051-.476-1.088-.051c-.459-.017-.612-.153-.612-.493 0-.102.017-.289.034-.357l.612-3.791h1.989c.459 0 .986.017 1.802.051l.442.017.323-.765-.068-.119a70 70 0 0 1-3.723.102h-.629l.782-4.607c.051-.272.068-.357.153-.544Z"/><svg width="10.287" height="10" x="73.6" y="59.6" overflow="visible"><path d="M10.29 4.85 7.14 1.53l-.49.52 1.93 2.33h-.15v.9h.15L6.65 7.61l.49.52zm-8.61.38h8.15v-.9H1.68z" style="fill:#900;fill-opacity:1;stroke-width:1px;stroke:none;stroke-opacity:1"/></svg><path fill="#900" stroke="#900" stroke-width=".095" d="M83.728 88.826v.31c2.225 0 2.225-.036 2.654-.036s.428.036 2.725.036v-1.012c-1.369.06-1.916.012-4.118.06l2.166-2.297c1.154-1.226 1.511-1.88 1.511-2.773 0-1.368-.928-2.213-2.44-2.213-.856 0-1.439.238-2.022.833l-.202 1.618h.345l.154-.547c.19-.69.62-.988 1.417-.988 1.023 0 1.677.643 1.677 1.654 0 .893-.5 1.773-1.844 3.201Z"/><path fill="#900" stroke="#900" stroke-width=".136" d="m14.062 39.818 1.802-.068c1.054 0 1.734.153 1.751.408l.136 1.513h.408c.051-1.071.17-1.938.357-2.584-.374-.034-.85-.051-1.139-.051l-.697.017-2.805.034h-.493c-.425 0-1.105-.017-1.751-.034l-.833-.017-.051.476.952.034c.408.017.595.17.595.459 0 .238-.068.782-.153 1.292l-1.275 7.378c-.289 1.564-.289 1.581-.986 1.649l-.612.051-.068.476.578-.017c.68-.017 1.224-.034 1.581-.034.306 0 .799.017 1.462.034l.884.017.051-.476-1.088-.051c-.459-.017-.612-.153-.612-.493 0-.102.017-.289.034-.357l.612-3.791h1.989c.459 0 .986.017 1.802.051l.442.017.323-.765-.068-.119a70 70 0 0 1-3.723.102h-.629l.782-4.607c.051-.272.068-.357.153-.544Z"/><svg width="10.288" height="10" x="9.2" y="27.8" overflow="visible"><path d="M10.29 4.85 7.14 1.53l-.49.52 1.93 2.33h-.15v.9h.15L6.65 7.61l.49.52zm-8.61.38h8.15v-.9H1.68z" style="fill:#900;fill-opacity:1;stroke-width:1px;stroke:none;stroke-opacity:1"/></svg><path fill="#900" stroke="#900" stroke-width=".095" d="M24.635 54.634c0-1.44-1.273-1.69-1.832-1.785.952-.737 1.309-1.285 1.309-1.987 0-1.059-.88-1.761-2.202-1.761-.809 0-1.344.226-1.916.797l-.345 1.476h.37l.213-.667c.131-.404.88-.809 1.5-.809.773 0 1.404.63 1.404 1.38 0 .893-.702 1.643-1.547 1.643-.095 0-.226-.012-.38-.024l-.18-.012-.142.63.083.072c.452-.202.678-.262 1-.262.987 0 1.559.631 1.559 1.714 0 1.214-.726 2.011-1.833 2.011-.547 0-1.035-.178-1.392-.512-.286-.261-.44-.535-.667-1.178l-.321.12c.25.725.345 1.154.416 1.749.631.214 1.155.309 1.595.309 1.464 0 3.308-1.273 3.308-2.904Z"/></svg></svg>