<svg xmlns="http://www.w3.org/2000/svg" width="304.6" height="301.6" style="width:304.6000061035156px;height:301.6000061035156px;background:0 0;fill:none"><svg xmlns="http://www.w3.org/2000/svg"/><svg xmlns="http://www.w3.org/2000/svg" class="role-diagram-draw-area"><g class="shapes-region" style="stroke:#000;fill:none"><g class="arrow-line"><path d="M7.36 148.9h287.71m-271.71-4v8m16-8v8m16-8v8m16-8v8m16-8v8m16-8v8m16-8v8m16-8v8m16-8v8m16-8v8m16-8v8m16-8v8m16-8v8m16-8v8m16-8v8m16-8v8m16-8v8" class="connection real" style="stroke:#000;stroke-width:1;fill:none;fill-opacity:1"/><path d="M10.93-3.29Q4.96-.45 0 0q4.96.45 10.93 3.29" style="stroke:#000;stroke-width:1" transform="matrix(-1 0 0 -1 297.067 148.9)"/><path d="M10.93-3.29Q4.96-.45 0 0q4.96.45 10.93 3.29" style="stroke:#000;stroke-width:1" transform="translate(5.36 148.9)"/></g><g class="arrow-line"><path d="M151.21 5.05v287.7m4-271.7h-8m8 16h-8m8 16h-8m8 16h-8m8 16h-8m8 16h-8m8 16h-8m8 16h-8m8 16h-8m8 16h-8m8 16h-8m8 16h-8m8 16h-8m8 16h-8m8 16h-8m8 16h-8m8 16h-8" class="connection real" style="stroke:#000;stroke-width:1;fill:none;fill-opacity:1"/><path d="M10.93-3.29Q4.96-.45 0 0q4.96.45 10.93 3.29" style="stroke:#000;stroke-width:1" transform="rotate(-90 222.983 71.77)"/><path d="M10.93-3.29Q4.96-.45 0 0q4.96.45 10.93 3.29" style="stroke:#000;stroke-width:1" transform="rotate(90 74.083 77.13)"/></g><g class="arrow-line"><path d="M151.21 148.9H91.63" class="connection real" style="stroke:#900;stroke-opacity:1;stroke-width:2;fill:none;fill-opacity:1"/><path fill="#900" stroke="none" d="M13.4-6.43 0 0l13.4 6.44L8.9 0Z" style="stroke:none;fill:#900;stroke-width:2" transform="translate(87.629 148.9)"/></g><g class="arrow-line"><path d="M151.21 148.9v123.5" class="connection real" style="stroke:#900;stroke-opacity:1;stroke-width:2;fill:none;fill-opacity:1"/><path fill="#900" stroke="none" d="M13.4-6.43 0 0l13.4 6.44L8.9 0Z" style="stroke:none;fill:#900;stroke-width:2" transform="rotate(-90 213.807 62.593)"/></g><g class="arrow-line"><path d="m151.21 148.9 46.11-78.76" class="connection real" style="stroke:#900;stroke-opacity:1;stroke-width:2;fill:none;fill-opacity:1"/><path fill="#900" stroke="none" d="M13.4-6.43 0 0l13.4 6.44L8.9 0Z" style="stroke:none;fill:#900;stroke-width:2" transform="rotate(120.35 80.556 90.483)"/></g></g></svg><svg xmlns="http://www.w3.org/2000/svg" xmlns:xlink="http://www.w3.org/1999/xlink" width="303" height="300" style="width:303px;height:300px;font-family:Asana-Math,Asana;background:0 0"><path fill="#900" stroke="#900" stroke-width=".109" d="m206.29 69.064 1.441-.054c.843 0 1.387.122 1.401.326l.109 1.21h.326c.041-.856.136-1.55.286-2.066-.3-.028-.68-.041-.911-.041l-.558.013-2.244.028h-.394c-.34 0-.884-.014-1.401-.028l-.667-.013-.04.38.761.028c.327.013.476.136.476.367 0 .19-.054.626-.122 1.034l-1.02 5.902c-.231 1.251-.231 1.265-.789 1.32l-.49.04-.054.38.462-.013c.544-.013.98-.027 1.265-.027.245 0 .64.014 1.17.027l.707.014.04-.381-.87-.04c-.367-.014-.49-.123-.49-.395 0-.082.014-.231.028-.286l.49-3.033h1.59c.368 0 .79.014 1.442.041l.354.014.258-.612-.054-.095a56 56 0 0 1-2.978.081h-.504l.626-3.685c.04-.218.054-.286.122-.436Z"/><svg width="8.225" height="8" x="202.4" y="60.25" overflow="visible"><path d="M8.23 3.88 5.71 1.22l-.39.42L6.86 3.5h-.12v.72h.12L5.32 6.08l.39.42zm-6.88.31h6.51v-.72H1.35z" style="fill:#900;fill-opacity:1;stroke-width:1px;stroke:none;stroke-opacity:1"/></svg><path fill="#900" stroke="#900" stroke-width=".076" d="M214.33 82.911v-.286l-.496-.028c-.523-.029-.618-.133-.618-.628v-5.75l-2.295.97.067.477 1.428-.629v4.932c0 .495-.105.6-.619.628l-.533.028v.286c1.466-.029 1.466-.029 1.57-.029.296 0 1.343.029 1.495.029Z"/><path fill="#900" stroke="#900" stroke-width=".109" d="m163.002 208.214 1.442-.054c.843 0 1.387.122 1.4.326l.11 1.21h.326c.04-.856.136-1.55.285-2.066a11 11 0 0 0-.91-.041l-.559.013-2.244.028h-.394c-.34 0-.884-.014-1.4-.028l-.667-.013-.04.38.76.028c.327.013.477.136.477.367 0 .19-.055.626-.123 1.034l-1.02 5.902c-.23 1.251-.23 1.265-.789 1.32l-.49.04-.054.38.463-.013c.544-.013.98-.027 1.265-.027.244 0 .639.014 1.17.027l.706.014.041-.381-.87-.04c-.367-.014-.49-.123-.49-.395 0-.082.014-.231.027-.286l.49-3.033h1.591c.367 0 .79.014 1.442.041l.353.014.259-.612-.055-.095a56 56 0 0 1-2.978.081h-.503l.625-3.685c.041-.218.055-.286.123-.436Z"/><svg width="8.225" height="8" x="159.112" y="199.4" overflow="visible"><path d="M8.23 3.88 5.71 1.22l-.39.42L6.86 3.5h-.12v.72h.12L5.32 6.08l.39.42zm-6.88.31h6.51v-.72H1.35z" style="fill:#900;fill-opacity:1;stroke-width:1px;stroke:none;stroke-opacity:1"/></svg><path fill="#900" stroke="#900" stroke-width=".076" d="M171.46 219.9c0-1.152-1.018-1.352-1.465-1.428.761-.59 1.047-1.028 1.047-1.59 0-.847-.705-1.409-1.761-1.409-.648 0-1.076.181-1.533.638l-.276 1.18h.295l.171-.533c.105-.323.705-.647 1.2-.647.619 0 1.123.505 1.123 1.104 0 .714-.561 1.314-1.237 1.314-.077 0-.181-.01-.305-.019l-.143-.01-.114.505.067.057c.361-.162.542-.21.8-.21.79 0 1.246.505 1.246 1.372 0 .97-.58 1.609-1.466 1.609-.438 0-.828-.143-1.114-.41-.228-.21-.352-.428-.533-.942l-.257.095c.2.58.276.923.333 1.4.505.17.924.247 1.276.247 1.171 0 2.647-1.019 2.647-2.323Z"/><path fill="#900" stroke="#900" stroke-width=".109" d="m83.152 126.352 1.442-.054c.843 0 1.387.122 1.4.326l.11 1.21h.326c.04-.856.136-1.55.285-2.067-.299-.027-.68-.04-.91-.04l-.558.013-2.244.027h-.395c-.34 0-.884-.013-1.4-.027l-.667-.014-.04.381.76.027c.327.014.477.136.477.368 0 .19-.055.625-.123 1.033l-1.02 5.903c-.23 1.25-.23 1.264-.788 1.319l-.49.04-.054.381.462-.013c.544-.014.98-.027 1.265-.027.245 0 .639.013 1.17.027l.707.013.04-.38-.87-.041c-.367-.014-.49-.123-.49-.395 0-.081.014-.23.028-.285l.49-3.033h1.59c.368 0 .79.014 1.442.04l.354.014.258-.612-.054-.095a56 56 0 0 1-2.979.082h-.503l.626-3.686c.04-.217.054-.285.122-.435Z"/><svg width="8.225" height="8" x="79.263" y="117.538" overflow="visible"><path d="M8.23 3.88 5.71 1.22l-.39.42L6.86 3.5h-.12v.72h.12L5.32 6.08l.39.42zm-6.88.31h6.51v-.72H1.35z" style="fill:#900;fill-opacity:1;stroke-width:1px;stroke:none;stroke-opacity:1"/></svg><path fill="#900" stroke="#900" stroke-width=".076" d="M87.365 139.951v.248c1.78 0 1.78-.029 2.123-.029s.343.029 2.18.029v-.81c-1.095.048-1.533.01-3.294.048l1.733-1.837c.923-.981 1.209-1.505 1.209-2.219 0-1.094-.743-1.77-1.952-1.77-.685 0-1.152.19-1.618.666l-.162 1.295h.276l.124-.438c.152-.552.495-.79 1.133-.79.818 0 1.342.514 1.342 1.323 0 .714-.4 1.419-1.476 2.56Z"/></svg></svg>