<svg xmlns="http://www.w3.org/2000/svg" width="161.6" height="99.6" style="width:161.60000610351562px;height:99.5999984741211px;background:#fff;fill:none"><svg xmlns="http://www.w3.org/2000/svg"/><svg xmlns="http://www.w3.org/2000/svg" class="role-diagram-draw-area"><g class="shapes-region" style="stroke:#000;fill:none"><g class="composite-shape"><defs><pattern id="_pgff44niadil" width="11.314" height="11.314" x="0" y="0" patternTransform="rotate(45 0 0)" patternUnits="userSpaceOnUse"><path d="M0 0v11.314M5.657 0v11.314M11.314 0v11.314" style="stroke:#000;stroke-opacity:1;stroke-width:1;fill:none"/></pattern></defs><path d="M17.55 45.97h27.8v27.25h-27.8Z" class="real" style="stroke-width:1;stroke:#000;fill:url(#_pgff44niadil);fill-opacity:1"/></g><g class="arrow-line"><path stroke-dasharray="3" d="M31.45 59.59h86.8" class="connection real" style="stroke:#900;stroke-opacity:1;stroke-width:1;fill:none;fill-opacity:1"/><path stroke="#900" d="M10.93-3.29Q4.96-.45 0 0q4.96.45 10.93 3.29" style="stroke:#900;stroke-width:1" transform="matrix(-1 0 0 -1 120.249 59.593)"/></g><g class="arrow-line"><path stroke-dasharray="3" d="M120.25 59.59V18.93" class="connection real" style="stroke:#900;stroke-opacity:1;stroke-width:1;fill:none;fill-opacity:1"/><path stroke="#900" d="M10.93-3.29Q4.96-.45 0 0q4.96.45 10.93 3.29" style="stroke:#900;stroke-width:1" transform="rotate(90 51.658 68.59)"/></g><g class="arrow-line"><path d="m31.45 59.59 86.09-41.36" class="connection real" style="stroke:#900;stroke-opacity:1;stroke-width:1;fill:none;fill-opacity:1"/><path fill="#900" stroke="none" d="M10.72-5.15 0 0l10.72 5.15L7.12 0Z" style="stroke:none;stroke-width:1;fill:#900" transform="rotate(154.34 58.196 22.16)"/></g><g class="composite-shape"><path d="M29.65 59.59a1.799 1.799 0 1 1 3.6 0c0 1-.81 1.8-1.8 1.8-1 0-1.8-.8-1.8-1.8Z" class="real" style="stroke-width:1;stroke:#900;stroke-opacity:1;fill:#900;fill-opacity:1"/></g></g></svg><svg xmlns="http://www.w3.org/2000/svg" xmlns:xlink="http://www.w3.org/1999/xlink" width="160" height="98" style="width:160px;height:98px;font-family:Asana-Math,Asana;background:#fff"><path fill="#900" stroke="#900" stroke-width=".136" d="m71.525 74.556 1.802-.068c1.054 0 1.734.153 1.75.408l.137 1.513h.408c.05-1.071.17-1.938.357-2.584-.374-.034-.85-.051-1.14-.051l-.696.017-2.805.034h-.493c-.425 0-1.105-.017-1.751-.034l-.833-.017-.051.476.952.034c.408.017.595.17.595.459 0 .238-.068.782-.153 1.292l-1.275 7.378c-.29 1.564-.29 1.58-.986 1.649l-.612.05-.068.477.578-.017c.68-.017 1.224-.034 1.58-.034.307 0 .8.017 1.463.034l.884.017.05-.476-1.087-.051c-.46-.017-.612-.153-.612-.493 0-.102.017-.29.034-.357l.612-3.791h1.989c.459 0 .986.017 1.802.05l.442.018.323-.765-.068-.12a70 70 0 0 1-3.723.103h-.63l.783-4.607c.05-.272.068-.357.153-.544Z"/><path fill="#900" stroke="#900" stroke-width=".095" d="M76.707 88.538c.179.095.369.143.512.143.393 0 .857-.345 1.226-.905l.904-1.392.13.821c.156 1.012.43 1.476.858 1.476.261 0 .642-.202 1.023-.548l.583-.523-.107-.226c-.428.357-.726.535-.916.535-.179 0-.333-.119-.452-.357a4.7 4.7 0 0 1-.298-1.011l-.214-1.202.416-.583c.56-.774.88-1.047 1.25-1.047.19 0 .333.095.393.273l.166-.047.179-1.012c-.143-.083-.25-.119-.357-.119-.476 0-.952.429-1.69 1.523l-.44.655-.072-.571c-.143-1.178-.464-1.607-1.166-1.607-.31 0-.571.095-.678.25l-.69.988.202.119c.357-.405.595-.571.82-.571.394 0 .655.487.858 1.654l.13.737-.475.738c-.512.798-.917 1.178-1.25 1.178-.178 0-.31-.047-.333-.107l-.131-.333-.238.036c0 .416-.095.726-.143 1.035Z"/><svg width="17.738" height="10" x="66.663" y="62.538" overflow="visible"><path d="m17.74 5.39-3.5-3.69-.54.58 2.14 2.58h-.17v1h.17L13.7 8.44l.54.58zm-15.87.42h15.36v-1H1.87z" style="fill:#900;fill-opacity:1;stroke-width:1px;stroke:none;stroke-opacity:1"/></svg><path fill="#900" stroke="#900" stroke-width=".136" d="m131.825 39.155 1.802-.068c1.054 0 1.734.153 1.75.408l.137 1.513h.408c.05-1.07.17-1.938.357-2.584-.374-.034-.85-.05-1.14-.05l-.696.016-2.805.034h-.493c-.425 0-1.105-.017-1.751-.034l-.833-.017-.051.476.952.034c.408.017.595.17.595.46 0 .237-.068.781-.153 1.291l-1.275 7.378c-.29 1.564-.29 1.581-.986 1.65l-.612.05-.068.476.578-.017c.68-.017 1.224-.034 1.58-.034.307 0 .8.017 1.463.034l.884.017.05-.476-1.087-.05c-.46-.018-.612-.154-.612-.494 0-.102.017-.289.034-.357l.612-3.79h1.989c.459 0 .986.016 1.802.05l.442.017.323-.765-.068-.119a70 70 0 0 1-3.723.102h-.63l.783-4.607c.05-.272.068-.357.153-.544Z"/><path fill="#900" stroke="#900" stroke-width=".095" d="M136.817 55.292c-.012.083-.012.155-.012.214 0 .512.44.928.976.928 1.261 0 2.57-1.475 3.272-3.677l1.678-5.236-.13-.107c-.346.131-.62.203-.881.226l-.417 1.571c-.143.56-.56 1.428-.952 2.011-.416.607-1 1.13-1.261 1.13-.143 0-.25-.273-.238-.57l.19-2.464c.024-.369.048-.82.048-1.154 0-.536-.084-.75-.286-.75-.155 0-.321.083-.892.476l-.976.667.13.214.596-.357c.06-.036.19-.143.297-.143.167 0 .262.226.262.619 0 .012 0 .083-.012.178l-.202 2.892-.012.476c0 .5.214.845.512.845.44 0 1.44-1.012 2.332-2.356l-.583 2.035c-.607 2.106-1.202 2.975-2.035 2.975a.727.727 0 0 1-.738-.738c0-.06.012-.155.024-.262l-.12-.048Z"/><svg width="17.738" height="10" x="126.963" y="27.137" overflow="visible"><path d="m17.74 5.39-3.5-3.69-.54.58 2.14 2.58h-.17v1h.17L13.7 8.44l.54.58zm-15.87.42h15.36v-1H1.87z" style="fill:#900;fill-opacity:1;stroke-width:1px;stroke:none;stroke-opacity:1"/></svg><path fill="#900" stroke="#900" stroke-width=".136" d="m52.974 21.88 1.802-.068c1.054 0 1.734.153 1.751.408l.136 1.513h.408c.051-1.07.17-1.938.357-2.584-.374-.034-.85-.05-1.139-.05l-.697.016-2.805.034h-.493a80 80 0 0 1-1.75-.034l-.834-.017-.05.476.951.034c.408.017.595.17.595.46 0 .237-.068.781-.153 1.291l-1.275 7.378c-.289 1.564-.289 1.581-.986 1.65l-.612.05-.068.476.578-.017c.68-.017 1.224-.034 1.581-.034.306 0 .8.017 1.462.034l.884.017.051-.476-1.088-.05c-.459-.018-.612-.154-.612-.494 0-.102.017-.289.034-.357l.612-3.79h1.99c.458 0 .985.016 1.801.05l.442.017.323-.765-.068-.119a70 70 0 0 1-3.723.102h-.629l.782-4.607c.051-.272.068-.357.153-.544Z"/><path fill="#900" stroke="#900" stroke-width=".095" d="m58.336 30.458.083.238.38-.25c.441-.274.477-.298.56-.298.13 0 .214.12.214.298 0 .607-.488 2.903-.976 4.605l.084.131c.297-.083.57-.155.833-.202.226-1.5.476-2.273 1.023-3.094.643-1 1.535-1.738 2.07-1.738.132 0 .203.107.203.286 0 .214-.036.464-.13.845l-.62 2.523c-.107.44-.154.714-.154.904 0 .298.13.476.357.476.309 0 .737-.25 1.904-1.119l-.12-.214-.309.203c-.345.226-.607.357-.726.357-.083 0-.154-.108-.154-.238 0-.06.011-.19.023-.238l.786-3.285c.083-.345.13-.678.13-.88 0-.274-.13-.429-.368-.429-.5 0-1.321.452-2.023 1.107-.452.416-.786.821-1.404 1.69l.452-1.916a2.3 2.3 0 0 0 .071-.488c0-.25-.095-.393-.274-.393-.25 0-.714.262-1.582.88Zm10.222 3.296-.286.202c-.63.453-1.202.69-1.63.69-.56 0-.905-.44-.905-1.154 0-.297.036-.619.096-.964.202-.047 1.499-.404 1.796-.535 1.012-.44 1.476-.988 1.476-1.726 0-.559-.405-.928-1-.928-.809-.166-2.118.702-2.558 1.583-.357.595-.714 2.011-.714 2.808 0 .928.524 1.476 1.38 1.476.679 0 1.345-.333 2.44-1.226Zm-2.559-1.94c.202-.82.44-1.332.786-1.642.214-.19.583-.333.868-.333.345 0 .571.238.571.619 0 .523-.416 1.083-1.035 1.38-.333.167-.761.298-1.297.417Zm4.76-1.38-.666 3.368c-.012.095-.155.547-.155.904 0 .298.131.476.357.476.417 0 .833-.238 1.761-.988l.37-.297-.12-.214-.535.369q-.517.357-.714.357c-.107 0-.167-.096-.167-.238 0-.31.167-1.274.512-3l.154-.737h1.274l.13-.595c-.452.048-.856.071-1.308.071.19-1.118.321-1.701.535-2.344l-.13-.178a6.5 6.5 0 0 1-.929.428l-.297 2.023c-.524.25-.833.38-1.048.44l-.023.155Z"/><svg width="26.975" height="10" x="48.112" y="9.862" overflow="visible"><path d="m26.98 5.39-3.5-3.69-.54.58 2.14 2.58h-.17v1h.17l-2.14 2.58.54.58zm-25.11.42h24.6v-1H1.87z" style="fill:#900;fill-opacity:1;stroke-width:1px;stroke:none;stroke-opacity:1"/></svg></svg></svg>