<svg xmlns="http://www.w3.org/2000/svg" xmlns:xlink="http://www.w3.org/1999/xlink" x="0" y="0" width="273.6" height="157.4" style="
        width:273.6px;
        height:157.4px;
        background: #FFF;
        fill: none;
">
        <svg xmlns="http://www.w3.org/2000/svg"/>
        
        <svg xmlns="http://www.w3.org/2000/svg" class="role-diagram-draw-area" style="overflow: visible;"><g class="shapes-region" style="stroke: black; fill: none;"><g class="composite-shape"><defs><!-- react-text: 34192 --> <!-- /react-text --><pattern id="_pgff44niadildg-full-view" x="0" y="0" width="11.313708498984761" height="11.313708498984761" patternTransform="rotate(45,0,0)" patternUnits="userSpaceOnUse"><path d="M0,0 L0,11.313708498984761" style="stroke: rgb(0, 0, 0); stroke-opacity: 1; stroke-width: 1; fill: none;"/><path d="M5.656854249492381,0 L5.656854249492381,11.313708498984761" style="stroke: rgb(0, 0, 0); stroke-opacity: 1; stroke-width: 1; fill: none;"/><path d="M11.313708498984761,0 L11.313708498984761,11.313708498984761" style="stroke: rgb(0, 0, 0); stroke-opacity: 1; stroke-width: 1; fill: none;"/></pattern></defs><path class="real" d=" M53.15,57.6 L80.95,57.6 L80.95,84.85 L53.15,84.85 Z" style="stroke-width: 1; stroke: rgb(0, 0, 0); fill: url(&quot;#_pgff44niadildg-full-view&quot;); fill-opacity: 1;"/></g><g class="composite-shape"><path class="real" d=" M65.25,71.23 C65.25,70.23 66.05,69.43 67.05,69.43 C68.04,69.43 68.85,70.23 68.85,71.23 C68.85,72.22 68.04,73.03 67.05,73.03 C66.05,73.03 65.25,72.22 65.25,71.23 Z" style="stroke-width: 1; stroke: rgb(153, 0, 0); stroke-opacity: 1; fill: rgb(153, 0, 0); fill-opacity: 1;"/></g><g class="arrow-line"><path class="connection real" stroke-dasharray="" d="  M67.05,147.62 L67.05,86.56" style="stroke: rgb(153, 0, 0); stroke-opacity: 1; stroke-width: 1; fill: none; fill-opacity: 1;"/><g stroke="rgb(153,0,0)" stroke-opacity="1" transform="matrix(3.061616997868383e-16,1,-1,3.061616997868383e-16,67.0485604422433,84.5607824071096)" style="stroke: rgb(153, 0, 0); stroke-width: 1;"><path d=" M10.93,-3.29 Q4.96,-0.45 0,0 Q4.96,0.45 10.93,3.29"/></g></g><g class="arrow-line"><path class="connection real" stroke-dasharray="" d="  M9.9,72.56 L51.05,72.56" style="stroke: rgb(153, 0, 0); stroke-opacity: 1; stroke-width: 1; fill: none; fill-opacity: 1;"/><g stroke="rgb(153,0,0)" stroke-opacity="1" transform="matrix(-1,1.2246467991473532e-16,-1.2246467991473532e-16,-1,53.04856044224329,72.5607824071096)" style="stroke: rgb(153, 0, 0); stroke-width: 1;"><path d=" M10.93,-3.29 Q4.96,-0.45 0,0 Q4.96,0.45 10.93,3.29"/></g></g><g class="arrow-line"><path class="connection real" stroke-dasharray="" d="  M103.18,35.37 L82.36,56.19" style="stroke: rgb(153, 0, 0); stroke-opacity: 1; stroke-width: 1; fill: none; fill-opacity: 1;"/><g stroke="rgb(153,0,0)" stroke-opacity="1" transform="matrix(0.7071067811865474,-0.7071067811865477,0.7071067811865477,0.7071067811865474,80.94855433872767,57.60000000000001)" style="stroke: rgb(153, 0, 0); stroke-width: 1;"><path d=" M10.93,-3.29 Q4.96,-0.45 0,0 Q4.96,0.45 10.93,3.29"/></g></g><g class="composite-shape"><defs><!-- react-text: 34217 --> <!-- /react-text --><pattern id="_pgfzlys9ugdwdg-full-view" x="0" y="0" width="11.313708498984761" height="11.313708498984761" patternTransform="rotate(45,0,0)" patternUnits="userSpaceOnUse"><path d="M0,0 L0,11.313708498984761" style="stroke: rgb(0, 0, 0); stroke-opacity: 1; stroke-width: 1; fill: none;"/><path d="M5.656854249492381,0 L5.656854249492381,11.313708498984761" style="stroke: rgb(0, 0, 0); stroke-opacity: 1; stroke-width: 1; fill: none;"/><path d="M11.313708498984761,0 L11.313708498984761,11.313708498984761" style="stroke: rgb(0, 0, 0); stroke-opacity: 1; stroke-width: 1; fill: none;"/></pattern></defs><path class="real" d=" M185.15,58.8 L212.95,58.8 L212.95,86.05 L185.15,86.05 Z" style="stroke-width: 1; stroke: rgb(0, 0, 0); fill: url(&quot;#_pgfzlys9ugdwdg-full-view&quot;); fill-opacity: 1;"/></g><g class="composite-shape"><path class="real" d=" M197.25,72.43 C197.25,71.43 198.05,70.63 199.05,70.63 C200.04,70.63 200.85,71.43 200.85,72.43 C200.85,73.42 200.04,74.23 199.05,74.23 C198.05,74.23 197.25,73.42 197.25,72.43 Z" style="stroke-width: 1; stroke: rgb(153, 0, 0); stroke-opacity: 1; fill: rgb(153, 0, 0); fill-opacity: 1;"/></g><g class="arrow-line"><path class="connection real" stroke-dasharray="" d="  M199.05,72.43 L199.05,11.37" style="stroke: rgb(153, 0, 0); stroke-opacity: 1; stroke-width: 1; fill: none; fill-opacity: 1;"/><g stroke="rgb(153,0,0)" stroke-opacity="1" transform="matrix(3.061616997868383e-16,1,-1,3.061616997868383e-16,199.04856044224329,9.370713370186934)" style="stroke: rgb(153, 0, 0); stroke-width: 1;"><path d=" M10.93,-3.29 Q4.96,-0.45 0,0 Q4.96,0.45 10.93,3.29"/></g></g><g class="arrow-line"><path class="connection real" stroke-dasharray="" d="  M199.05,9.37 L240.2,9.37" style="stroke: rgb(153, 0, 0); stroke-opacity: 1; stroke-width: 1; fill: none; fill-opacity: 1;"/><g stroke="rgb(153,0,0)" stroke-opacity="1" transform="matrix(-1,1.2246467991473532e-16,-1.2246467991473532e-16,-1,242.1971330915178,9.370713370186921)" style="stroke: rgb(153, 0, 0); stroke-width: 1;"><path d=" M10.93,-3.29 Q4.96,-0.45 0,0 Q4.96,0.45 10.93,3.29"/></g></g><g class="arrow-line"><path class="connection real" stroke-dasharray="" d="  M242.2,9.37 L221.38,30.18" style="stroke: rgb(153, 0, 0); stroke-opacity: 1; stroke-width: 1; fill: none; fill-opacity: 1;"/><g stroke="rgb(153,0,0)" stroke-opacity="1" transform="matrix(0.7071067811865474,-0.7071067811865477,0.7071067811865477,0.7071067811865474,219.9696840177415,31.59816244396319)" style="stroke: rgb(153, 0, 0); stroke-width: 1;"><path d=" M10.93,-3.29 Q4.96,-0.45 0,0 Q4.96,0.45 10.93,3.29"/></g></g><g class="arrow-line"><path class="connection real" stroke-dasharray="" d="  M199.05,72.43 L218.15,35.16" style="stroke: rgb(153, 0, 0); stroke-opacity: 1; stroke-width: 2; fill: none; fill-opacity: 1;"/><g stroke="none" fill="rgb(153,0,0)" fill-opacity="1" transform="matrix(-0.4560109591016235,0.8899741598379233,-0.8899741598379233,-0.4560109591016235,219.96968401774154,31.59816244396319)" style="stroke: none; fill: rgb(153, 0, 0); stroke-width: 2;"><path d=" M13.4,-6.43 L0,0 L13.4,6.44 L8.9,0 Z"/></g></g><g/></g><g/><g/><g/></svg>
        <svg xmlns="http://www.w3.org/2000/svg" xmlns:xlink="http://www.w3.org/1999/xlink" width="272" height="155.8" style="width:272px;height:155.8px;font-family:Asana-Math, Asana;background:#FFF;"><g><g><g><g><g><g><g transform="matrix(1,0,0,1,220.80002441406248,66.40000610351564)"><path transform="matrix(0.017,0,0,-0.017,0,0)" d="M286 646L392 650C454 650 494 641 495 626L503 537L527 537C530 600 537 651 548 689C526 691 498 692 481 692L440 691L275 689L246 689C221 689 181 690 143 691L94 692L91 664L147 662C171 661 182 652 182 635C182 621 178 589 173 559L98 125C81 33 81 32 40 28L4 25L0 -3L34 -2C74 -1 106 0 127 0C145 0 174 -1 213 -2L265 -3L268 25L204 28C177 29 168 37 168 57C168 63 169 74 170 78L206 301L323 301C350 301 381 300 429 298L455 297L474 342L470 349C389 345 329 343 251 343L214 343L260 614C263 630 264 635 269 646Z" stroke="rgb(153,0,0)" stroke-opacity="1" stroke-width="8" fill="rgb(153,0,0)" fill-opacity="1"></path></g></g><g><g><g><g><g transform="matrix(1,0,0,1,230.73752441406248,68.61250610351563)"><path transform="matrix(0.0119,0,0,-0.0119,0,0)" d="M24 388L31 368L63 389C100 412 103 414 110 414C121 414 128 404 128 389C128 338 87 145 46 2L53 -9C78 -2 101 4 123 8C142 134 163 199 209 268C263 352 338 414 383 414C394 414 400 405 400 390C400 372 397 351 389 319L337 107C328 70 324 47 324 31C324 6 335 -9 354 -9C380 -9 416 12 514 85L504 103L478 86C449 67 427 56 417 56C410 56 404 65 404 76C404 81 405 92 406 96L472 372C479 401 483 429 483 446C483 469 472 482 452 482C410 482 341 444 282 389C244 354 216 320 164 247L202 408C206 426 208 438 208 449C208 470 200 482 185 482C164 482 125 460 52 408ZM883 111L859 94C806 56 758 36 722 36C675 36 646 73 646 133C646 158 649 185 654 214C671 218 780 248 805 259C890 296 929 342 929 404C929 451 895 482 845 482C777 496 667 423 630 349C600 299 570 180 570 113C570 35 614 -11 686 -11C743 -11 799 17 891 92ZM668 274C685 343 705 386 734 412C752 428 783 440 807 440C836 440 855 420 855 388C855 344 820 297 768 272C740 258 704 247 659 237ZM1068 390L1012 107C1011 99 999 61 999 31C999 6 1010 -9 1029 -9C1064 -9 1099 11 1177 74L1208 99L1198 117L1153 86C1124 66 1104 56 1093 56C1084 56 1079 64 1079 76C1079 102 1093 183 1122 328L1135 390L1242 390L1253 440C1215 436 1181 434 1143 434C1159 528 1170 577 1188 631L1177 646C1157 634 1130 622 1099 610L1074 440C1030 419 1004 408 986 403L984 390Z" stroke="rgb(153,0,0)" stroke-opacity="1" stroke-width="8" fill="rgb(153,0,0)" fill-opacity="1"></path></g></g></g></g></g></g></g><svg x="220.80002441406248" overflow="visible" y="43.40000610351562" height="10.000000000000007" width="26.975000000000023"><path d=" M 26.98 5.39 l -3.50 -3.69 l -0.54 0.58 l 2.14 2.58 h -0.17 v 1.00 h 0.17 l -2.14 2.58 l 0.54 0.58 z  M 1.87 5.81 h 24.60 v -1.00 h -24.60 z" style="fill:rgb(153,0,0);fill-opacity:1;stroke-width:1px;stroke:none;stroke-opacity:1;"></path></svg></g></g></g><g><g><g><g><g><g><g transform="matrix(1,0,0,1,74.8,129.32500610351562)"><path transform="matrix(0.017,0,0,-0.017,0,0)" d="M286 646L392 650C454 650 494 641 495 626L503 537L527 537C530 600 537 651 548 689C526 691 498 692 481 692L440 691L275 689L246 689C221 689 181 690 143 691L94 692L91 664L147 662C171 661 182 652 182 635C182 621 178 589 173 559L98 125C81 33 81 32 40 28L4 25L0 -3L34 -2C74 -1 106 0 127 0C145 0 174 -1 213 -2L265 -3L268 25L204 28C177 29 168 37 168 57C168 63 169 74 170 78L206 301L323 301C350 301 381 300 429 298L455 297L474 342L470 349C389 345 329 343 251 343L214 343L260 614C263 630 264 635 269 646Z" stroke="rgb(153,0,0)" stroke-opacity="1" stroke-width="8" fill="rgb(153,0,0)" fill-opacity="1"></path></g></g><g><g><g><g><g transform="matrix(1,0,0,1,84.7375,132.33750610351564)"><path transform="matrix(0.0119,0,0,-0.0119,0,0)" d="M418 -3L418 27L366 30C311 33 301 44 301 96L301 700L60 598L67 548L217 614L217 96C217 44 206 33 152 30L96 27L96 -3C250 0 250 0 261 0C292 0 402 -3 418 -3Z" stroke="rgb(153,0,0)" stroke-opacity="1" stroke-width="8" fill="rgb(153,0,0)" fill-opacity="1"></path></g></g></g></g></g></g></g><svg x="74.8" overflow="visible" y="106.32500610351563" height="9.999999999999986" width="17.73750000000001"><path d=" M 17.74 5.39 l -3.50 -3.69 l -0.54 0.58 l 2.14 2.58 h -0.17 v 1.00 h 0.17 l -2.14 2.58 l 0.54 0.58 z  M 1.87 5.81 h 15.36 v -1.00 h -15.36 z" style="fill:rgb(153,0,0);fill-opacity:1;stroke-width:1px;stroke:none;stroke-opacity:1;"></path></svg></g></g></g><g><g><g><g><g><g><g transform="matrix(1,0,0,1,8.399999999999999,97.72500610351562)"><path transform="matrix(0.017,0,0,-0.017,0,0)" d="M286 646L392 650C454 650 494 641 495 626L503 537L527 537C530 600 537 651 548 689C526 691 498 692 481 692L440 691L275 689L246 689C221 689 181 690 143 691L94 692L91 664L147 662C171 661 182 652 182 635C182 621 178 589 173 559L98 125C81 33 81 32 40 28L4 25L0 -3L34 -2C74 -1 106 0 127 0C145 0 174 -1 213 -2L265 -3L268 25L204 28C177 29 168 37 168 57C168 63 169 74 170 78L206 301L323 301C350 301 381 300 429 298L455 297L474 342L470 349C389 345 329 343 251 343L214 343L260 614C263 630 264 635 269 646Z" stroke="rgb(153,0,0)" stroke-opacity="1" stroke-width="8" fill="rgb(153,0,0)" fill-opacity="1"></path></g></g><g><g><g><g><g transform="matrix(1,0,0,1,18.337500000000002,100.73750610351564)"><path transform="matrix(0.0119,0,0,-0.0119,0,0)" d="M16 23L16 -3C203 -3 203 0 239 0C275 0 275 -3 468 -3L468 82C353 77 307 81 122 77L304 270C401 373 431 428 431 503C431 618 353 689 226 689C154 689 105 669 56 619L39 483L68 483L81 529C97 587 133 612 200 612C286 612 341 558 341 473C341 398 299 324 186 204Z" stroke="rgb(153,0,0)" stroke-opacity="1" stroke-width="8" fill="rgb(153,0,0)" fill-opacity="1"></path></g></g></g></g></g></g></g><svg x="8.399999999999999" overflow="visible" y="74.72500610351562" height="10" width="17.7375"><path d=" M 17.74 5.39 l -3.50 -3.69 l -0.54 0.58 l 2.14 2.58 h -0.17 v 1.00 h 0.17 l -2.14 2.58 l 0.54 0.58 z  M 1.87 5.81 h 15.36 v -1.00 h -15.36 z" style="fill:rgb(153,0,0);fill-opacity:1;stroke-width:1px;stroke:none;stroke-opacity:1;"></path></svg></g></g></g><g><g><g><g><g><g><g transform="matrix(1,0,0,1,77.0625,37.8)"><path transform="matrix(0.017,0,0,-0.017,0,0)" d="M286 646L392 650C454 650 494 641 495 626L503 537L527 537C530 600 537 651 548 689C526 691 498 692 481 692L440 691L275 689L246 689C221 689 181 690 143 691L94 692L91 664L147 662C171 661 182 652 182 635C182 621 178 589 173 559L98 125C81 33 81 32 40 28L4 25L0 -3L34 -2C74 -1 106 0 127 0C145 0 174 -1 213 -2L265 -3L268 25L204 28C177 29 168 37 168 57C168 63 169 74 170 78L206 301L323 301C350 301 381 300 429 298L455 297L474 342L470 349C389 345 329 343 251 343L214 343L260 614C263 630 264 635 269 646Z" stroke="rgb(153,0,0)" stroke-opacity="1" stroke-width="8" fill="rgb(153,0,0)" fill-opacity="1"></path></g></g><g><g><g><g><g transform="matrix(1,0,0,1,87,40.8125)"><path transform="matrix(0.0119,0,0,-0.0119,0,0)" d="M462 224C462 345 355 366 308 374C388 436 418 482 418 541C418 630 344 689 233 689C165 689 120 670 72 622L43 498L74 498L92 554C103 588 166 622 218 622C283 622 336 569 336 506C336 431 277 368 206 368C198 368 187 369 174 370L159 371L147 318L154 312C192 329 211 334 238 334C321 334 369 281 369 190C369 88 308 21 215 21C169 21 128 36 98 64C74 86 61 109 42 163L15 153C36 92 44 56 50 6C103 -12 147 -20 184 -20C307 -20 462 87 462 224Z" stroke="rgb(153,0,0)" stroke-opacity="1" stroke-width="8" fill="rgb(153,0,0)" fill-opacity="1"></path></g></g></g></g></g></g></g><svg x="77.0625" overflow="visible" y="14.799999999999999" height="9.999999999999998" width="17.737499999999997"><path d=" M 17.74 5.39 l -3.50 -3.69 l -0.54 0.58 l 2.14 2.58 h -0.17 v 1.00 h 0.17 l -2.14 2.58 l 0.54 0.58 z  M 1.87 5.81 h 15.36 v -1.00 h -15.36 z" style="fill:rgb(153,0,0);fill-opacity:1;stroke-width:1px;stroke:none;stroke-opacity:1;"></path></svg></g></g></g><g><g><g><g transform="matrix(1,0,0,1,126.89999999999999,78.40000610351564)"><path transform="matrix(0.017,0,0,-0.017,0,0)" d="M949 273L696 539L666 506L746 408L65 408L65 349L796 349L860 271L797 195L65 195L65 136L746 136L666 38L696 7Z" stroke="rgb(0,0,0)" stroke-opacity="1" stroke-width="8" fill="rgb(0,0,0)" fill-opacity="1"></path></g></g></g></g></svg>
</svg>
