<svg xmlns="http://www.w3.org/2000/svg" width="215.6" height="183.4" style="width:215.60000610351562px;height:183.40000915527344px;background:#fff;fill:none"><svg xmlns="http://www.w3.org/2000/svg"/><svg xmlns="http://www.w3.org/2000/svg" class="role-diagram-draw-area"><g class="shapes-region" style="stroke:#000;fill:none"><g class="composite-shape"><path d="m147.2 12.8 14.7 14.8V67H27v-6h92.8V12.8z" class="real" style="stroke-width:1;stroke:#000;fill:#eee;fill-opacity:1"/></g><g class="composite-shape"><path d="M27.9 75.3a8.3 8.3 0 1 1 16.5 0 8.3 8.3 0 0 1-16.5 0Z" class="real" style="stroke-width:1;stroke:#000;fill:#000;fill-opacity:.5"/></g><g class="composite-shape"><path d="M143.4 75.3a8.3 8.3 0 1 1 16.5 0 8.3 8.3 0 0 1-16.5 0Z" class="real" style="stroke-width:1;stroke:#000;fill:#000;fill-opacity:.5"/></g><g class="composite-shape"><path d="M41 41.8h42.8v18.5H41Z" class="real" style="stroke-width:1;stroke:#900;stroke-opacity:1;fill:#900;fill-opacity:.5"/></g><g class="composite-shape"><path d="M41 17.5h24.7v24.3H41Z" class="real" style="stroke-width:1;stroke:#900;stroke-opacity:1;fill:#900;fill-opacity:.5"/></g><g class="arrow-line"><path d="M66 29.7h20.8" class="connection real" style="stroke:#900;stroke-opacity:1;stroke-width:1;fill:none;fill-opacity:1"/><path fill="#900" stroke="none" d="M10.7-5.1 0 0l10.7 5.2L7.1 0Z" style="stroke:none;fill:#900;stroke-width:1" transform="matrix(-1 0 0 -1 89.8 29.7)"/></g><g class="arrow-line"><path d="M83.5 51.4h20.8" class="connection real" style="stroke:#900;stroke-opacity:1;stroke-width:1;fill:none;fill-opacity:1"/><path fill="#900" stroke="none" d="M10.7-5.1 0 0l10.7 5.2L7.1 0Z" style="stroke:none;fill:#900;stroke-width:1" transform="matrix(-1 0 0 -1 107.3 51.4)"/></g><g class="arrow-line"><path d="M162 42h21.8" class="connection real" style="stroke:#900;stroke-opacity:1;stroke-width:1;fill:none;fill-opacity:1"/><path stroke="#900" d="M11-3.3Q5-.5 0 0q5 .5 11 3.3" style="stroke:#900;stroke-width:1" transform="matrix(-1 0 0 -1 185.8 42)"/></g><g class="arrow-line"><path d="M-2.5 83.6h216.8" class="connection real" style="stroke:#000;stroke-width:1;fill:none;fill-opacity:1"/></g></g></svg><svg xmlns="http://www.w3.org/2000/svg" xmlns:xlink="http://www.w3.org/1999/xlink" width="214" height="181.8" style="width:214px;height:181.8000030517578px;font-family:Asana-Math,Asana;background:#fff"><path fill="#fff" stroke="#fff" stroke-width=".1" d="M49.2 34h2.6v-.3q-.9 0-.9-.6v-.2l.6-1.6h3l.6 1.9v.1q-.2.5-1 .4v.4h3.4v-.4h-.3q-.9 0-1-.5l-2.6-7.5q0-.3-.2-.2t-.3.2l-2.5 7.2q-.3.8-1.4.8Zm2.4-3 1.4-4 1.3 4Zm7 24.4h4.7q2.6-.2 2.7-2.2c0-1-1-2-2.3-2q1.8-.5 2-2c0-1-1.1-2-2.7-2h-4.4v.4h.3c1 0 1 .1 1 .6v6.3c0 .4 0 .6-1 .6h-.3Zm2.2-.8v-3.3h2.3c1.2 0 1.7 1.1 1.7 2s-.6 1.8-1.9 1.8h-1.5q-.7 0-.6-.5Zm0-3.6v-3q-.1-.4.6-.4H63c1.2 0 1.6 1 1.6 1.7s-.6 1.7-2 1.7Z"/><path fill="#900" stroke="#900" stroke-width=".1" d="M191.4 42.6h1.1c-1.9 2-2.6 3.4-2.6 5q.1 2.2 1.9 2.3c2.3 0 5-4.2 5-6.7q-.1-1.6-1.1-1.7l-.6.2-.8.8.2.4.4-.2q.7 0 .7 1c0 2.6-1.6 5.4-3.1 5.4q-1.3 0-1.4-1.8 0-2.5 2.4-5.5l-.2-.3q-.4.3-1 .2h-2.7l-.6 2h.4l.2-.7q.3-.4 1-.4z"/><svg width="9.4" height="10" x="188.6" y="30.7" overflow="visible"><path d="M9.4 4.9 6.1 1.4l-.5.5 2 2.4h-.2v.9h.1L5.7 7.6l.5.5zm-7.7.3h7.2v-.9H1.7z" style="fill:#900;fill-opacity:1;stroke-width:1px;stroke:none;stroke-opacity:1"/></svg><path fill="#900" stroke="#900" stroke-width=".1" d="m73.8 100.7 1.1-.1c-1.9 2-2.6 3.4-2.6 5.1q.1 2.2 1.9 2.3c2.3 0 5-4.2 5-6.7q-.1-1.6-1.1-1.7l-.6.2-.8.8.2.3.4-.1q.7 0 .7 1c0 2.6-1.6 5.3-3.1 5.3q-1.3 0-1.4-1.8c0-1.8.7-3.3 2.4-5.4l-.2-.3q-.4.3-1 .2h-1.9l-.2-.1-.6.1-.6 2h.4l.2-.7q.3-.5 1-.5z"/><svg width="9.4" height="10" x="71" y="88.8" overflow="visible"><path d="M9.4 4.9 6.1 1.4l-.5.5 2 2.4h-.2v.9h.1L5.7 7.6l.5.5zm-7.7.3h7.2v-.9H1.7z" style="fill:#900;fill-opacity:1;stroke-width:1px;stroke:none;stroke-opacity:1"/></svg><path fill="#900" stroke="#900" stroke-width=".1" d="M86.8 112.8q0 .3-.5.4h-.6v.3h2.9v-.3h-.3q-.6 0-.6-.7l-1-7.4H86l-4.5 7q-.5 1-1 1h-.2v.4H83v-.3h-.7l-.3-.3.3-.6 1.2-2.1h3l.2 2.2zm-.9-6.5.5 3.5h-2.6Zm5.7 3.2h3l.2-.5h-3.1l.5-3.2H94q1.1 0 1.2.3l.1 1h.3l.2-1.8h-5.5v.3h.6q.4 0 .4.3v1l-1.1 6q0 .2-.7.3v.3H95v-.4l.2-1.2v-.3H95l-.2.7q-.2.6-.5.6a14 14 0 0 1-3.4 0Zm21-7.6v-1h-9.2v1Zm0 3.6v-1h-9.2v1Zm9-4.8 1-.1c-1.8 2-2.5 3.4-2.5 5.1q.1 2.2 1.9 2.3c2.3 0 5-4.2 5-6.7q-.1-1.6-1.1-1.7-.4 0-.6.2l-.9.8.2.3.5-.1q.7 0 .7 1c0 2.6-1.6 5.3-3.1 5.3q-1.4 0-1.4-1.8c0-1.8.7-3.3 2.3-5.4l-.1-.3q-.5.3-1 .2h-1.9l-.3-.1-.5.1-.6 2h.3l.3-.7q.2-.5.9-.5z"/><svg width="9.4" height="10" x="118.8" y="88.8" overflow="visible"><path d="M9.4 4.9 6.1 1.4l-.5.5 2 2.4h-.2v.9h.1L5.7 7.6l.5.5zm-7.7.3h7.2v-.9H1.7z" style="fill:#900;fill-opacity:1;stroke-width:1px;stroke:none;stroke-opacity:1"/></svg><path fill="#900" stroke="#900" stroke-width=".1" d="M134.5 112.8q0 .3-.5.4h-.5v.3h2.9v-.3h-.3q-.7 0-.7-.7l-1-7.4h-.5l-4.5 7q-.5 1-1 1h-.3v.4h2.6v-.3h-.6q-.3 0-.3-.3l.3-.6 1.2-2.1h2.9l.3 2.2zm-.8-6.5.4 3.5h-2.5Zm9.5 4.5c0-1.3-1-1.5-2-1.6q1-.3 1.4-.8.8-.7.8-1.6 0-1.5-1.9-1.5H138v.3h.6q.4 0 .4.3v1l-1.1 6q0 .2-.7.3v.3h2.9c1.4 0 3.2-1 3.2-2.7Zm-4.5 2.2.6-3.5h1q2 0 1.9 1.5a2 2 0 0 1-2.1 2.1zm2.2-7.3q1.5 0 1.5 1.3-.2 2-2.4 2h-.6l.6-3.2zm17.8-2v-1h-4.1v-4h-1v4h-4v1h4v4.1h1v-4.1Zm7.3-3 1-.1c-1.8 2-2.5 3.4-2.5 5.1q0 2.2 1.8 2.3c2.4 0 5-4.2 5-6.7q-.1-1.6-1-1.7-.4 0-.6.2l-.9.8.2.3.5-.1q.6 0 .7 1c0 2.6-1.7 5.3-3.1 5.3q-1.4 0-1.4-1.8c0-1.8.7-3.3 2.3-5.4l-.2-.3q-.4.3-1 .2H165l-.2-.1-.5.1-.7 2h.4l.3-.7q.2-.5.9-.5z"/><svg width="9.4" height="10" x="163.2" y="88.8" overflow="visible"><path d="M9.4 4.9 6.1 1.4l-.5.5 2 2.4h-.2v.9h.1L5.7 7.6l.5.5zm-7.7.3h7.2v-.9H1.7z" style="fill:#900;fill-opacity:1;stroke-width:1px;stroke:none;stroke-opacity:1"/></svg><path fill="#900" stroke="#900" stroke-width=".1" d="M178.6 110.8c0-1.3-1-1.5-2-1.6q1-.3 1.4-.8.8-.7.8-1.6 0-1.5-1.9-1.5h-3.5v.3h.6q.3 0 .4.3l-.1 1-1 6q-.1.2-.8.3v.3h3c1.3 0 3.1-1 3.1-2.7Zm-4.4 2.2.6-3.5h1q1.8 0 1.8 1.5a2 2 0 0 1-2 2.1zm2.2-7.3q1.5 0 1.4 1.3 0 2-2.4 2h-.6l.6-3.2zm5.7 3.8h2.9l.3-.5h-3.1l.5-3.2h1.6q1.3 0 1.3.3v1h.4q0-1.1.2-1.8h-5.5v.3h.6q.4 0 .4.3l-.1 1-1 6q0 .2-.7.3l-.1.3h5.8v-.4l.2-1.2v-.3h-.3l-.2.7q0 .6-.5.6h-3.3ZM32.2 129.7l1-.1c-1.8 2-2.6 3.4-2.6 5.1q.1 2.2 2 2.3c2.3 0 4.9-4.2 4.9-6.7q-.1-1.6-1-1.7-.4 0-.7.2l-.8.8.2.3.4-.1q.8 0 .8 1c0 2.6-1.7 5.3-3.2 5.3q-1.2 0-1.3-1.8c0-1.8.6-3.3 2.3-5.4l-.2-.3q-.3.3-1 .2h-2l-.2-.1-.5.1-.7 2h.4l.3-.7q.1-.5.8-.5z"/><svg width="9.4" height="10" x="29.4" y="117.8" overflow="visible"><path d="M9.4 4.9 6.1 1.4l-.5.5 2 2.4h-.2v.9h.1L5.7 7.6l.5.5zm-7.7.3h7.2v-.9H1.7z" style="fill:#900;fill-opacity:1;stroke-width:1px;stroke:none;stroke-opacity:1"/></svg><path fill="#900" stroke="#900" stroke-width=".1" d="M45.1 141.8q0 .3-.5.4H44v.3h3v-.3h-.3q-.7 0-.7-.7l-1-7.4h-.6l-4.4 7q-.7 1-1 1h-.3v.4h2.6v-.3h-.6q-.4 0-.4-.3l.3-.6 1.2-2.1h3l.2 2.2zm-.8-6.5.4 3.5H42Zm5.6 3.2h3l.2-.5H50l.6-3.2h1.6q1.1 0 1.2.3l.1 1h.3q0-1.1.3-1.8h-5.6v.3h.6q.5 0 .5.3l-.1 1-1 6q-.1.2-.8.3v.3h5.7v-.4l.2-1.2.1-.3h-.3l-.2.7q-.1.6-.5.6a14 14 0 0 1-3.4 0Zm18.5-5.8v-1h-8.6v1Zm7.1-3 1-.1c-1.8 2-2.6 3.4-2.6 5.1q.1 2.2 2 2.3c2.3 0 4.9-4.2 4.9-6.7q-.1-1.6-1-1.7-.4 0-.7.2l-.8.8.2.3.4-.1q.8 0 .8 1c0 2.6-1.7 5.3-3.2 5.3q-1.2 0-1.3-1.8c0-1.8.6-3.3 2.3-5.4l-.2-.3q-.4.3-1 .2h-1.9l-.2-.1-.5.1-.7 2h.4l.3-.7q.1-.5.8-.5z"/><svg width="9.4" height="10" x="72.7" y="117.8" overflow="visible"><path d="M9.4 4.9 6.1 1.4l-.5.5 2 2.4h-.2v.9h.1L5.7 7.6l.5.5zm-7.7.3h7.2v-.9H1.7z" style="fill:#900;fill-opacity:1;stroke-width:1px;stroke:none;stroke-opacity:1"/></svg><path fill="#900" stroke="#900" stroke-width=".1" d="M88.1 139.8c0-1.3-1-1.5-2-1.6q1-.3 1.4-.8.8-.7.8-1.6 0-1.5-1.9-1.5h-3.6v.3h.6q.5 0 .5.3l-.2 1-1 6q0 .2-.7.3v.3h2.9c1.4 0 3.2-1 3.2-2.7Zm-4.5 2.2.6-3.5h1q2 0 1.9 1.5a2 2 0 0 1-2 2.1zm2.2-7.3q1.5 0 1.5 1.3 0 2-2.4 2h-.6l.6-3.2zm5.7 3.8h3l.2-.5h-3.1l.6-3.2h1.6q1.2 0 1.3.3v1h.3q0-1.1.3-1.8h-5.5v.3h.6q.4 0 .4.3l-.1 1-1 6q-.1.2-.8.3v.3H95v-.4l.3-1.2v-.3H95l-.2.7q-.1.6-.5.6a14 14 0 0 1-3.4 0Zm21.1-7.6v-1h-9.2v1Zm0 3.6v-1h-9.2v1Zm9-4.8 1-.1c-1.8 2-2.6 3.4-2.6 5.1q.1 2.2 2 2.3c2.3 0 4.9-4.2 4.9-6.7q-.1-1.6-1-1.7-.4 0-.7.2l-.8.8.2.3.4-.1q.8 0 .8 1c0 2.6-1.7 5.3-3.2 5.3q-1.2 0-1.3-1.8c0-1.8.6-3.3 2.3-5.4l-.2-.3q-.4.3-1 .2h-1.9l-.2-.1-.5.1-.7 2h.4l.3-.7q.1-.5.8-.5z"/><svg width="9.4" height="10" x="118.8" y="117.8" overflow="visible"><path d="M9.4 4.9 6.1 1.4l-.5.5 2 2.4h-.2v.9h.1L5.7 7.6l.5.5zm-7.7.3h7.2v-.9H1.7z" style="fill:#900;fill-opacity:1;stroke-width:1px;stroke:none;stroke-opacity:1"/></svg><path fill="#900" stroke="#900" stroke-width=".1" d="M134.5 141.8q0 .3-.5.4h-.5v.3h2.9v-.3h-.3q-.7 0-.7-.7l-1-7.4h-.6l-4.4 7q-.6 1-1 1h-.3v.4h2.6v-.3h-.6q-.3 0-.4-.3l.3-.6 1.2-2.1h3l.2 2.2zm-.8-6.5.4 3.5h-2.6Zm9.4 4.5c0-1.3-1-1.5-2-1.6.8-.3 1-.4 1.4-.8q.9-.7.8-1.6 0-1.5-1.8-1.5h-3.6v.3h.6q.4 0 .4.3l-.1 1-1 6q0 .2-.7.3l-.1.3h3c1.4 0 3.1-1 3.1-2.7Zm-4.4 2.2.6-3.5h1q1.8 0 1.8 1.5a2 2 0 0 1-2 2.1zm2.2-7.3q1.4 0 1.4 1.3-.1 2-2.3 2h-.7l.6-3.2zM93.5 155q-4 0-4 6.3 0 3.2 1 4.5t2.6 1.3q3.9 0 3.9-6.5 0-5.5-3.5-5.5Zm-.3.7c1.7 0 2.4 1.6 2.4 5.7q0 5.3-2.3 5.1-2.3.2-2.3-5.8-.1-5.2 2.2-5Zm19.8 5.2v-1h-9.2v1Zm0 3.6v-1h-9.2v1Zm9-4.8 1-.1c-1.9 2-2.6 3.4-2.6 5.1q.1 2.2 1.9 2.3c2.3 0 5-4.2 5-6.7q-.1-1.6-1.1-1.7l-.6.2-.8.8.2.3.4-.1q.7 0 .7 1c0 2.6-1.6 5.3-3.1 5.3q-1.3 0-1.4-1.8c0-1.8.7-3.3 2.4-5.4l-.2-.3q-.4.3-1 .2h-1.9l-.2-.1-.6.1-.6 2h.4l.2-.7q.3-.5 1-.5z"/><svg width="9.4" height="10" x="119.1" y="147.8" overflow="visible"><path d="M9.4 4.9 6.1 1.4l-.5.5 2 2.4h-.2v.9h.1L5.7 7.6l.5.5zm-7.7.3h7.2v-.9H1.7z" style="fill:#900;fill-opacity:1;stroke-width:1px;stroke:none;stroke-opacity:1"/></svg><path fill="#900" stroke="#900" stroke-width=".1" d="M134.9 171.8q0 .3-.5.4h-.6v.3h2.9v-.3h-.3q-.6 0-.6-.7l-1-7.4h-.6l-4.5 7q-.5 1-1 1h-.2v.4h2.6v-.3h-.7l-.3-.3.3-.6 1.2-2.1h3l.2 2.2zm-.9-6.5.5 3.5h-2.6Zm9.5 4.5c0-1.3-1-1.5-2-1.6q1-.3 1.4-.8.8-.7.8-1.6 0-1.5-1.9-1.5h-3.5v.3h.5q.5 0 .5.3l-.1 1-1 6q-.1.2-.8.3v.3h3c1.3 0 3.1-1 3.1-2.7ZM139 172l.6-3.5h1q2 0 1.9 1.5a2 2 0 0 1-2 2.1zm2.3-7.3q1.4 0 1.4 1.3 0 2-2.4 2h-.6l.6-3.2z"/></svg></svg>