<svg xmlns="http://www.w3.org/2000/svg" width="253.6" height="133.5" style="width:253.6px;height:133.5px;background:#fff;fill:none"><svg xmlns="http://www.w3.org/2000/svg"/><svg xmlns="http://www.w3.org/2000/svg" class="role-diagram-draw-area" style="overflow:visible"><g class="shapes-region" style="stroke:#000;fill:none"><g class="composite-shape"><defs><pattern id="_pgfccq3pakqndg-full-view" width="11.3" height="11.3" x="0" y="0" patternTransform="rotate(45 0 0)" patternUnits="userSpaceOnUse"><path d="M0 0v11.3M5.7 0v11.3M11.3 0v11.3" style="stroke:#eee;stroke-opacity:1;stroke-width:1;fill:none"/></pattern></defs><path d="M-53.4 73.8H131v61.1H-53.4Z" class="real" style="stroke-width:1;stroke:#000;fill:url(#_pgfccq3pakqndg-full-view);fill-opacity:1"/></g><g class="arrow-line"><path d="M73.5 73.5H54.7" class="connection real" style="stroke:#900;stroke-opacity:1;stroke-width:2;fill:none;fill-opacity:1"/><path fill="#900" stroke="none" d="M13.4-6.4 0 0l13.4 6.4L8.9 0Z" style="stroke:none;fill:#900;stroke-width:2" transform="translate(50.7 73.5)"/></g><g class="arrow-line"><path d="M59.7 117.2V77.5" class="connection real" style="stroke:#900;stroke-opacity:1;stroke-width:2;fill:none;fill-opacity:1"/><path fill="#900" stroke="none" d="M13.4-6.4 0 0l13.4 6.4L8.9 0Z" style="stroke:none;fill:#900;stroke-width:2" transform="rotate(90 -6.9 66.6)"/></g><g class="arrow-line"><path d="M177.2 66.7h-18.7" class="connection real" style="stroke:#900;stroke-opacity:1;stroke-width:2;fill:none;fill-opacity:1"/><path fill="#900" stroke="none" d="M13.4-6.4 0 0l13.4 6.4L8.9 0Z" style="stroke:none;fill:#900;stroke-width:2" transform="translate(154.5 66.7)"/></g><g class="arrow-line"><path d="M177.2 106.3V66.7" class="connection real" style="stroke:#900;stroke-opacity:1;stroke-width:2;fill:none;fill-opacity:1"/><path fill="#900" stroke="none" d="M13.4-6.4 0 0l13.4 6.4L8.9 0Z" style="stroke:none;fill:#900;stroke-width:2" transform="rotate(-90 143.8 -33.4)"/></g><g class="arrow-line"><path d="M177.2 66.7V27" class="connection real" style="stroke:#900;stroke-opacity:1;stroke-width:2;fill:none;fill-opacity:1"/><path fill="#900" stroke="none" d="M13.4-6.4 0 0l13.4 6.4L8.9 0Z" style="stroke:none;fill:#900;stroke-width:2" transform="rotate(90 77.1 100.1)"/></g><g class="composite-shape"><path d="M174.7 66.7a2.5 2.5 0 1 1 5 0 2.5 2.5 0 0 1-5 0Z" class="real" style="stroke-width:1;stroke:#000;fill:#000;fill-opacity:1"/></g><g class="composite-shape"><path d="M48.6 24.4a9.1 9.1 0 1 1 18.3 0 9.1 9.1 0 0 1-18.3 0Z" class="real" style="stroke-width:1;stroke:#900;stroke-opacity:1;fill:none;fill-opacity:1"/></g><g class="arrow-line"><path d="m61.7 32.7 6.7 23.5" class="connection real" style="stroke:#900;stroke-opacity:1;stroke-width:1;fill:none;fill-opacity:1"/></g><g class="arrow-line"><path d="m61.7 32.7-3.6 13.8-3.9-7.2" class="connection real" style="stroke:#900;stroke-opacity:1;stroke-width:1;fill:none;fill-opacity:1"/></g><g class="arrow-line"><path d="m61.7 32.7 10.8 7.4-1.4 7.2" class="connection real" style="stroke:#900;stroke-opacity:1;stroke-width:1;fill:none;fill-opacity:1"/></g><g class="arrow-line"><path d="m68.4 56.2-8.9 10.4 15.4-2" class="connection real" style="stroke:#900;stroke-opacity:1;stroke-width:1;fill:none;fill-opacity:1"/></g><g class="arrow-line"><path d="m68.4 56.2.7 8.8 4.4 8.5" class="connection real" style="stroke:#900;stroke-opacity:1;stroke-width:1;fill:none;fill-opacity:1"/></g><g class="arrow-line"><path d="M73.5 113.2V73.5" class="connection real" style="stroke:#900;stroke-opacity:1;stroke-width:2;fill:none;fill-opacity:1"/><path fill="#900" stroke="none" d="M13.4-6.4 0 0l13.4 6.4L8.9 0Z" style="stroke:none;fill:#900;stroke-width:2" transform="rotate(-90 95.3 21.8)"/></g></g></svg><svg xmlns="http://www.w3.org/2000/svg" xmlns:xlink="http://www.w3.org/1999/xlink" width="252" height="131.9" style="width:252.00000000000003px;height:131.89999999999998px;font-family:Asana-Math,Asana;background:#fff"><path fill="#900" stroke="#900" stroke-width=".1" d="M40.4 56.4H40l.4-2q.3-2 1.5-2 .8 0 1.2.6h.2l.4-1.2v-.2l-1.1-.2H42l-2.2 1.7q-.6.5-.8 1.9l-.2 1.3q-.9.5-1.5.6v.4h1.3l-.2 1c-.5 3.3-1.1 6.4-1.5 7.6q-.5 1.5-1.4 1.5-.5.1-.9-.4h-.2l-.4 1.4.6.1q1.2 0 2.3-1.3c1.2-1.4 1.5-3 3-9.9h1.7l.3-1z"/><svg width="10.2" height="10" x="34.5" y="40.8" overflow="visible"><path d="M10.2 4.9 7.1 1.4l-.5.5 1.9 2.4h-.2v.9h.2l-2 2.3.5.5zm-8.5.3h8v-.9h-8z" style="fill:#900;fill-opacity:1;stroke-width:1px;stroke:none;stroke-opacity:1"/></svg><path fill="#900" stroke="#900" stroke-width=".1" d="m44.7 68.6-.2 1.5 1.2.4q.9 0 1.8-.7t.8-1.5q0-1-1.2-1.2l-.5-.1q-1-.1-1-.8.2-1 1.2-1.1.8 0 1.2.5v.7h.2q0-.6.3-1.4l-1.2-.3a3 3 0 0 0-2 1q-.4.3-.4 1 0 .9 1.2 1.2l.7.1q.7.1.7.8 0 1.3-1.4 1.3-.6 0-1-.4v-1Zm3.4 36.7-5.9-10h-2.7l-.1.5h.6c.8 0 1.3.8 1.4 1l-1.6 8.6c-.2 1-.3 1.1-1 1.2h-.5v.5H42v-.4h-.6q-1-.1-.9-.8v-.5l1.5-8 5.7 9.9h.8l1.6-9.4c.4-2 .4-2 1-2l.7-.1v-.5h-3.6v.5h.7q.7 0 .7.4z"/><svg width="14.1" height="10" x="38.2" y="84.1" overflow="visible"><path d="m14 4.9-3-3.4-.6.5 2 2.4h-.2v.9h.2l-2 2.3.5.5zm-12.3.3h11.9v-.9h-12z" style="fill:#900;fill-opacity:1;stroke-width:1px;stroke:none;stroke-opacity:1"/></svg><path fill="#900" stroke="#900" stroke-width=".1" d="M87 97.8h1c-1 1.2-2.6 2.6-2.6 5q0 2.2 1.5 2.3 1.4.2 3.2-3.3l-.2 1.5q0 1.7 1.3 1.8c2.2 0 4.8-4.2 4.8-6.7q0-1.6-1-1.6l-.6.2-.8.8.2.3.4-.2q.8 0 .8 1.1c0 2.5-1.7 5.3-3.1 5.3q-.8-.1-.9-1.6c0-.8.2-2 .4-2.7l.9-3.1-.2-.1-1.2.3-.5 2.6q-.3 1.4-1 2.6-1 2-1.8 2-1-.1-1-1.7a8 8 0 0 1 2.4-5.5l-.2-.3-1 .2-1.7-.1h-.9l-.7 2h.4l.3-.6q.2-.5.8-.5z"/><svg width="13.1" height="10" x="84.2" y="86" overflow="visible"><path d="M13.1 4.9 10 1.4l-.5.5 1.9 2.4h-.2v.9h.2l-2 2.3.6.5zm-11.4.3h11v-.9h-11z" style="fill:#900;fill-opacity:1;stroke-width:1px;stroke:none;stroke-opacity:1"/></svg><path fill="#900" stroke="#900" stroke-width=".1" d="M189.3 102h1c-1 1.3-2.7 2.7-2.7 5q0 2.3 1.5 2.4t3.3-3.4l-.2 1.6q0 1.7 1.2 1.8c2.3 0 4.9-4.2 4.9-6.7q0-1.6-1-1.7-.4 0-.6.2l-.9.8.2.3.5-.1q.7 0 .7 1c0 2.5-1.6 5.3-3 5.3q-1 0-1-1.6 0-1.4.4-2.6l.9-3.2h-.1l-1.3.3-.5 2.5q-.2 1.3-.9 2.7-1 1.9-1.8 2-1-.1-1-1.7a8 8 0 0 1 2.4-5.6l-.2-.3q-.5.3-1 .2h-1.9l-.2-.1-.6.1-.6 2h.3l.3-.7q.3-.5.9-.5z"/><svg width="13.1" height="10" x="186.4" y="90.2" overflow="visible"><path d="M13.1 4.9 10 1.4l-.5.5 1.9 2.4h-.2v.9h.2l-2 2.3.6.5zm-11.4.3h11v-.9h-11z" style="fill:#900;fill-opacity:1;stroke-width:1px;stroke:none;stroke-opacity:1"/></svg><path fill="#900" stroke="#900" stroke-width=".1" d="M198.8 39 193 29h-2.7l-.1.4h.6c.8 0 1.3.8 1.4 1l-1.6 8.6q-.1 1.4-1 1.2h-.5v.6l1.8-.1h1.9v-.4h-.6q-1-.1-.9-.8V39l1.5-8 5.7 9.9h.8l1.6-9.4c.4-2 .4-2 1-2h.7V29H199v.4h.7q.7 0 .7.5z"/><svg width="14.1" height="10" x="188.9" y="17.7" overflow="visible"><path d="m14 4.9-3-3.4-.6.5 2 2.4h-.2v.9h.2l-2 2.3.5.5zm-12.3.3h11.9v-.9h-12z" style="fill:#900;fill-opacity:1;stroke-width:1px;stroke:none;stroke-opacity:1"/></svg><path fill="#900" stroke="#900" stroke-width=".1" d="M144.7 48.6h-.2l.3-2q.5-2 1.5-2t1.3.6h.1l.4-1.2.1-.2-1.2-.2h-.6l-2.2 1.7q-.4.5-.7 1.9l-.3 1.3-1.4.6-.1.4h1.3l-.1 1c-.5 3.3-1.1 6.4-1.5 7.6q-.5 1.5-1.4 1.5-.5.1-1-.4h-.2l-.4 1.4.6.1q1.1 0 2.3-1.3c1.2-1.4 1.6-3 3-9.9h1.8l.2-1z"/><svg width="10.2" height="10" x="138.9" y="33" overflow="visible"><path d="M10.2 4.9 7.1 1.4l-.5.5 1.9 2.4h-.2v.9h.2l-2 2.3.5.5zm-8.5.3h8v-.9h-8z" style="fill:#900;fill-opacity:1;stroke-width:1px;stroke:none;stroke-opacity:1"/></svg><path fill="#900" stroke="#900" stroke-width=".1" d="M149 60.8q0 .8-.2 1.5.7.4 1.3.4.9 0 1.7-.7.9-.7.9-1.5 0-1-1.3-1.2l-.5-.1q-1-.1-1-.8.1-1 1.3-1.1.8 0 1.1.5v.7h.3l.2-1.4-1.2-.3a3 3 0 0 0-1.9 1q-.4.3-.4 1 0 .9 1.1 1.2l.8.1q.7.1.7.8-.1 1.3-1.4 1.3-.6 0-1.1-.4v-1Z"/></svg></svg>