<svg xmlns="http://www.w3.org/2000/svg" width="201.6" height="244" style="width:201.6px;height:244px;background:0 0;fill:none"><svg xmlns="http://www.w3.org/2000/svg"/><svg xmlns="http://www.w3.org/2000/svg" class="role-diagram-draw-area" style="overflow:visible"><g class="shapes-region" style="stroke:#000;fill:none"><g class="composite-shape"><defs><pattern id="_pgf51pxgu8jcdg-full-view" width="11.3" height="11.3" x="0" y="0" patternTransform="rotate(45 0 0)" patternUnits="userSpaceOnUse"><path d="M0 0v11.3M5.7 0v11.3M11.3 0v11.3" style="stroke:#900;stroke-opacity:1;stroke-width:1;fill:none"/></pattern></defs><path d="M65.6 35.4H127v61.2H65.6Z" class="real" style="stroke-width:1;stroke:#900;stroke-opacity:1;fill:url(#_pgf51pxgu8jcdg-full-view);fill-opacity:1"/></g><g class="arrow-line"><defs><pattern id="_pgfsvep5fefvdg-full-view" width="11.3" height="11.3" x="0" y="0" patternTransform="rotate(45 0 0)" patternUnits="userSpaceOnUse"><path d="M0 0v11.3M5.7 0v11.3M11.3 0v11.3" style="stroke:#900;stroke-opacity:1;stroke-width:1;fill:none"/></pattern></defs><path d="M11.7 65h51.2" class="connection real" style="stroke:#900;stroke-opacity:1;stroke-width:1;fill:url(#_pgfsvep5fefvdg-full-view);fill-opacity:1"/><path fill="#900" stroke="none" d="M10.7-5.1 0 0l10.7 5.2L7.1 0Z" style="stroke:none;fill:#900;stroke-width:1" transform="matrix(-1 0 0 -1 65.9 65)"/></g><g class="composite-shape"><defs><pattern id="_pgfd6d2j3uzbdg-full-view" width="11.3" height="11.3" x="0" y="0" patternTransform="rotate(45 0 0)" patternUnits="userSpaceOnUse"><path d="M0 0v11.3M5.7 0v11.3M11.3 0v11.3" style="stroke:#eee;stroke-opacity:1;stroke-width:1;fill:none"/></pattern></defs><path d="M127-5h84.8v249.7H127Z" class="real" style="stroke-width:1;stroke:#000;fill:url(#_pgfd6d2j3uzbdg-full-view);fill-opacity:1"/></g><g class="arrow-line"><defs><pattern id="_pgfo9dh3o3i6dg-full-view" width="11.3" height="11.3" x="0" y="0" patternTransform="rotate(45 0 0)" patternUnits="userSpaceOnUse"><path d="M0 0v11.3M5.7 0v11.3M11.3 0v11.3" style="stroke:#900;stroke-opacity:1;stroke-width:1;fill:none"/></pattern></defs><path d="M130.3 85.8h51.2" class="connection real" style="stroke:#900;stroke-opacity:1;stroke-width:1;fill:url(#_pgfo9dh3o3i6dg-full-view);fill-opacity:1"/><path fill="#900" stroke="none" d="M10.7-5.1 0 0l10.7 5.2L7.1 0Z" style="stroke:none;fill:#900;stroke-width:1" transform="translate(127.3 85.8)"/></g><g class="arrow-line"><defs><pattern id="_pgf6dv00skh3dg-full-view" width="11.3" height="11.3" x="0" y="0" patternTransform="rotate(45 0 0)" patternUnits="userSpaceOnUse"><path d="M0 0v11.3M5.7 0v11.3M11.3 0v11.3" style="stroke:#900;stroke-opacity:1;stroke-width:1;fill:none"/></pattern></defs><path d="M96.1 97.3v29.3" class="connection real" style="stroke:#900;stroke-opacity:1;stroke-width:1;fill:url(#_pgf6dv00skh3dg-full-view);fill-opacity:1"/><path fill="#900" stroke="none" d="M10.7-5.1 0 0l10.7 5.2L7.1 0Z" style="stroke:none;fill:#900;stroke-width:1" transform="rotate(-90 112.8 16.7)"/></g><g class="arrow-line"><defs><pattern id="_pgftuzvcduitdg-full-view" width="11.3" height="11.3" x="0" y="0" patternTransform="rotate(45 0 0)" patternUnits="userSpaceOnUse"><path d="M0 0v11.3M5.7 0v11.3M11.3 0v11.3" style="stroke:#900;stroke-opacity:1;stroke-width:1;fill:none"/></pattern></defs><path d="M127 6v29.4" class="connection real" style="stroke:#900;stroke-opacity:1;stroke-width:1;fill:url(#_pgftuzvcduitdg-full-view);fill-opacity:1"/><path fill="#900" stroke="none" d="M10.7-5.1 0 0l10.7 5.2L7.1 0Z" style="stroke:none;fill:#900;stroke-width:1" transform="rotate(90 62 65)"/></g><g class="arrow-line"><defs><pattern id="_pgfushlec12vdg-full-view" width="11.3" height="11.3" x="0" y="0" patternTransform="rotate(45 0 0)" patternUnits="userSpaceOnUse"><path d="M0 0v11.3M5.7 0v11.3M11.3 0v11.3" style="stroke:#900;stroke-opacity:1;stroke-width:1;fill:none"/></pattern></defs><path d="M63.3 189.3v29.3" class="connection real" style="stroke:#900;stroke-opacity:1;stroke-width:1;fill:url(#_pgfushlec12vdg-full-view);fill-opacity:1"/><path fill="#900" stroke="none" d="M10.7-5.1 0 0l10.7 5.2L7.1 0Z" style="stroke:none;fill:#900;stroke-width:1" transform="rotate(-90 142.4 79.1)"/></g><g class="arrow-line"><defs><pattern id="_pgfhi5mwdi3cdg-full-view" width="11.3" height="11.3" x="0" y="0" patternTransform="rotate(45 0 0)" patternUnits="userSpaceOnUse"><path d="M0 0v11.3M5.7 0v11.3M11.3 0v11.3" style="stroke:#900;stroke-opacity:1;stroke-width:1;fill:none"/></pattern></defs><path d="M63.3 160v29.3" class="connection real" style="stroke:#900;stroke-opacity:1;stroke-width:1;fill:url(#_pgfhi5mwdi3cdg-full-view);fill-opacity:1"/><path fill="#900" stroke="none" d="M10.7-5.1 0 0l10.7 5.2L7.1 0Z" style="stroke:none;fill:#900;stroke-width:1" transform="rotate(90 -46.8 110.1)"/></g><g class="arrow-line"><defs><pattern id="_pgf0h332gyogdg-full-view" width="11.3" height="11.3" x="0" y="0" patternTransform="rotate(45 0 0)" patternUnits="userSpaceOnUse"><path d="M0 0v11.3M5.7 0v11.3M11.3 0v11.3" style="stroke:#900;stroke-opacity:1;stroke-width:1;fill:none"/></pattern></defs><path d="M12.2 189.3h51.1" class="connection real" style="stroke:#900;stroke-opacity:1;stroke-width:1;fill:url(#_pgf0h332gyogdg-full-view);fill-opacity:1"/><path fill="#900" stroke="none" d="M10.7-5.1 0 0l10.7 5.2L7.1 0Z" style="stroke:none;fill:#900;stroke-width:1" transform="translate(9.2 189.3)"/></g><g class="arrow-line"><defs><pattern id="_pgfdrz6bnhhndg-full-view" width="11.3" height="11.3" x="0" y="0" patternTransform="rotate(45 0 0)" patternUnits="userSpaceOnUse"><path d="M0 0v11.3M5.7 0v11.3M11.3 0v11.3" style="stroke:#900;stroke-opacity:1;stroke-width:1;fill:none"/></pattern></defs><path d="M63.3 189.3h51.2" class="connection real" style="stroke:#900;stroke-opacity:1;stroke-width:1;fill:url(#_pgfdrz6bnhhndg-full-view);fill-opacity:1"/><path fill="#900" stroke="none" d="M10.7-5.1 0 0l10.7 5.2L7.1 0Z" style="stroke:none;fill:#900;stroke-width:1" transform="matrix(-1 0 0 -1 117.5 189.3)"/></g><g class="composite-shape"><path d="M61.6 189.3a1.7 1.7 0 1 1 3.4 0 1.7 1.7 0 0 1-3.4 0Z" class="real" style="stroke-width:1;stroke:#000;fill:#000;fill-opacity:1"/></g></g></svg><svg xmlns="http://www.w3.org/2000/svg" xmlns:xlink="http://www.w3.org/1999/xlink" width="200" height="242.4" style="width:200px;height:242.39999999999998px;font-family:Asana-Math,Asana;background:#fff"><path fill="#900" stroke="#900" stroke-width=".1" d="m37.7 48.7 1.8-.1q1.6 0 1.7.4l.2 1.5h.4q0-1.6.3-2.6h-7.7v.5h.9q.6 0 .6.5t-.2 1.2l-1.2 7.4c-.3 1.6-.3 1.6-1 1.7h-.6l-.1.5h4.6v-.5h-1.1q-.7 0-.6-.5v-.4l.6-3.8h3.8l.4.1.4-.8h-4.5l.8-4.6q0-.3.2-.5Z"/><svg width="10.3" height="10" x="32.8" y="36.7" overflow="visible"><path d="M10.3 4.9 7 1.4l-.5.5 2 2.4h-.2v.9h.2l-2 2.3.5.5zm-8.6.3h8.1v-.9H1.7z" style="fill:#900;fill-opacity:1;stroke-width:1px;stroke:none;stroke-opacity:1"/></svg><path fill="#900" stroke="#900" stroke-width=".1" d="m142.7 74.3-5.9-10h-2.7l-.1.5h.6c.8 0 1.3.8 1.3 1l-1.5 8.5q-.1 1.3-1 1.3h-.5v.5h3.7v-.5h-.6q-1 0-.9-.8v-.5l1.4-7.9 5.8 9.8h.8l1.6-9.4c.4-1.9.4-2 1-2h.7v-.5h-3.6v.5h.7q.7 0 .6.4z"/><svg width="14.1" height="10" x="132.8" y="53.1" overflow="visible"><path d="m14 4.9-3-3.4-.6.5 2 2.4h-.2v.9h.2l-2 2.3.5.5zm-12.3.3h11.9v-.9h-12z" style="fill:#900;fill-opacity:1;stroke-width:1px;stroke:none;stroke-opacity:1"/></svg><path fill="#900" stroke="#900" stroke-width=".1" d="M113.5 17.8h-.3l.4-2q.3-2 1.5-2 .8 0 1.2.6h.2l.4-1.2v-.3l-1.1-.2-.6.1-2.2 1.7q-.6.5-.8 1.8l-.2 1.4-1.5.6v.4h1.3l-.2 1c-.5 3.2-1.1 6.4-1.5 7.6q-.5 1.5-1.4 1.5-.5 0-.9-.5h-.2l-.4 1.4.6.2q1.2 0 2.2-1.3c1.3-1.5 1.6-3.1 3-10h1.8l.3-.9z"/><svg width="10.2" height="10" x="107.6" y="2.2" overflow="visible"><path d="M10.2 4.9 7.1 1.4l-.5.5 1.9 2.4h-.2v.9h.2l-2 2.3.5.5zm-8.5.3h8v-.9h-8z" style="fill:#900;fill-opacity:1;stroke-width:1px;stroke:none;stroke-opacity:1"/></svg><path fill="#900" stroke="#900" stroke-width=".1" d="m117.8 30-.2 1.5 1.2.3q.9 0 1.8-.7t.8-1.5q0-1-1.2-1.1l-.5-.1q-1.1-.2-1-.9 0-1 1.2-1 .8 0 1.2.5v.6h.2l.3-1.3q-.7-.4-1.2-.3a3 3 0 0 0-2 .9q-.4.4-.4 1 0 1 1.2 1.2l.7.2q.7 0 .7.7 0 1.3-1.4 1.3-.6.1-1-.4v-1Zm-39 88.3h1c-.9 1.2-2.6 2.6-2.6 5q0 2.2 1.5 2.3t3.3-3.3l-.3 1.5q0 1.7 1.3 1.8c2.3 0 4.9-4.2 4.9-6.7q-.1-1.5-1-1.6-.4 0-.6.2l-.9.8.2.3.5-.2q.7 0 .7 1.1c0 2.5-1.7 5.3-3.1 5.3q-.8-.1-.8-1.6c0-.8.1-2 .3-2.7l.9-3.1-.1-.1-1.3.3-.5 2.6q-.2 1.4-1 2.6-1 2-1.7 2-1-.1-1-1.7a8 8 0 0 1 2.3-5.5l-.1-.3-1 .2-1.7-.1h-1l-.6 2h.3l.3-.6q.2-.5.9-.5z"/><svg width="13.1" height="10" x="76" y="106.5" overflow="visible"><path d="M13.1 4.9 10 1.4l-.5.5 1.9 2.4h-.2v.9h.2l-2 2.3.6.5zm-11.4.3h11v-.9h-11z" style="fill:#900;fill-opacity:1;stroke-width:1px;stroke:none;stroke-opacity:1"/></svg></svg></svg>