<svg xmlns="http://www.w3.org/2000/svg" width="336.6" height="214.3" style="width:336.59999593098956px;height:214.30000813802084px;background:#fff;fill:none"><svg xmlns="http://www.w3.org/2000/svg"/><svg xmlns="http://www.w3.org/2000/svg" class="role-diagram-draw-area" style="overflow:visible"><g class="shapes-region" style="stroke:#000;fill:none"><g class="arrow-line"><path d="M285.3 159h-32.5" class="connection real" style="stroke:#900;stroke-opacity:1;stroke-width:2;fill:none;fill-opacity:1"/><path fill="#900" stroke="none" d="M13.4-6.4 0 0l13.4 6.4L8.9 0Z" style="stroke:none;fill:#900;stroke-width:2" transform="matrix(-1 0 0 -1 289.3 159)"/></g><g class="arrow-line"><path d="M252.8 159h-32.6" class="connection real" style="stroke:#900;stroke-opacity:1;stroke-width:2;fill:none;fill-opacity:1"/><path fill="#900" stroke="none" d="M13.4-6.4 0 0l13.4 6.4L8.9 0Z" style="stroke:none;fill:#900;stroke-width:2" transform="translate(216.2 159)"/></g><g class="arrow-line"><path d="M181.2 59.4h241.1" class="connection real" style="stroke:#000;stroke-width:1;fill:none;fill-opacity:1"/></g><g class="arrow-line"><path d="M-8.6 59.5h144.2" class="connection real" style="stroke:#000;stroke-width:1;fill:none;fill-opacity:1"/></g><g class="arrow-line"><path d="M85.5 158.1H66.7" class="connection real" style="stroke:#900;stroke-opacity:1;stroke-width:2;fill:none;fill-opacity:1"/><path fill="#900" stroke="none" d="M13.4-6.4 0 0l13.4 6.4L8.9 0Z" style="stroke:none;fill:#900;stroke-width:2" transform="matrix(-1 0 0 -1 89.4 158.1)"/></g><g class="composite-shape"><path d="M42.1 9.5h50v50h-50Z" class="real" style="stroke-width:1;stroke:#900;stroke-opacity:1;fill:#900;fill-opacity:.5"/></g><g class="arrow-line"><path d="M42.1 59.5H23.4" class="connection real" style="stroke:#900;stroke-opacity:1;stroke-width:2;fill:none;fill-opacity:1"/><path fill="#900" stroke="none" d="M13.4-6.4 0 0l13.4 6.4L8.9 0Z" style="stroke:none;fill:#900;stroke-width:2" transform="translate(19.4 59.5)"/></g><g class="arrow-line"><path d="M55.3 103.8V64" class="connection real" style="stroke:#900;stroke-opacity:1;stroke-width:2;fill:none;fill-opacity:1"/><path fill="#900" stroke="none" d="M13.4-6.4 0 0l13.4 6.4L8.9 0Z" style="stroke:none;fill:#900;stroke-width:2" transform="rotate(90 -2.4 57.7)"/></g><g class="arrow-line"><path d="M77.7 100V60.5" class="connection real" style="stroke:#900;stroke-opacity:1;stroke-width:2;fill:none;fill-opacity:1"/><path fill="#900" stroke="none" d="M13.4-6.4 0 0l13.4 6.4L8.9 0Z" style="stroke:none;fill:#900;stroke-width:2" transform="rotate(-90 90.9 13.2)"/></g><g class="arrow-line"><path d="M66.7 158.1H47.9" class="connection real" style="stroke:#900;stroke-opacity:1;stroke-width:2;fill:none;fill-opacity:1"/><path fill="#900" stroke="none" d="M13.4-6.4 0 0l13.4 6.4L8.9 0Z" style="stroke:none;fill:#900;stroke-width:2" transform="translate(44 158.1)"/></g><g class="arrow-line"><path d="M66.7 197.8V158" class="connection real" style="stroke:#900;stroke-opacity:1;stroke-width:2;fill:none;fill-opacity:1"/><path fill="#900" stroke="none" d="M13.4-6.4 0 0l13.4 6.4L8.9 0Z" style="stroke:none;fill:#900;stroke-width:2" transform="rotate(-90 134.2 67.6)"/></g><g class="arrow-line"><path d="M66.7 158.1v-39.7" class="connection real" style="stroke:#900;stroke-opacity:1;stroke-width:2;fill:none;fill-opacity:1"/><path fill="#900" stroke="none" d="M13.4-6.4 0 0l13.4 6.4L8.9 0Z" style="stroke:none;fill:#900;stroke-width:2" transform="rotate(90 -23.9 90.5)"/></g><g class="composite-shape"><path d="M64.2 158.1a2.5 2.5 0 1 1 5 0 2.5 2.5 0 0 1-5 0Z" class="real" style="stroke-width:1;stroke:#000;fill:#000;fill-opacity:1"/></g><g class="arrow-line"><path d="M111.5 33.5H92.7" class="connection real" style="stroke:#900;stroke-opacity:1;stroke-width:2;fill:none;fill-opacity:1"/><path fill="#900" stroke="none" d="M13.4-6.4 0 0l13.4 6.4L8.9 0Z" style="stroke:none;fill:#900;stroke-width:2" transform="matrix(-1 0 0 -1 115.5 33.5)"/></g><g class="composite-shape"><path d="M228.1 9.4h50v50h-50Z" class="real" style="stroke-width:1;stroke:#900;stroke-opacity:1;fill:#900;fill-opacity:.5"/></g><g class="arrow-line"><path d="M241.3 103.7V64" class="connection real" style="stroke:#900;stroke-opacity:1;stroke-width:2;fill:none;fill-opacity:1"/><path fill="#900" stroke="none" d="M13.4-6.4 0 0l13.4 6.4L8.9 0Z" style="stroke:none;fill:#900;stroke-width:2" transform="rotate(90 90.6 150.6)"/></g><g class="arrow-line"><path d="M263.7 100V60.3" class="connection real" style="stroke:#900;stroke-opacity:1;stroke-width:2;fill:none;fill-opacity:1"/><path fill="#900" stroke="none" d="M13.4-6.4 0 0l13.4 6.4L8.9 0Z" style="stroke:none;fill:#900;stroke-width:2" transform="rotate(-90 183.8 -79.9)"/></g><g class="arrow-line"><path d="M311.2 33.4h-32.5" class="connection real" style="stroke:#900;stroke-opacity:1;stroke-width:2;fill:none;fill-opacity:1"/><path fill="#900" stroke="none" d="M13.4-6.4 0 0l13.4 6.4L8.9 0Z" style="stroke:none;fill:#900;stroke-width:2" transform="matrix(-1 0 0 -1 315.2 33.4)"/></g><g class="arrow-line"><path d="M228.1 59.4h-32.5" class="connection real" style="stroke:#900;stroke-opacity:1;stroke-width:2;fill:none;fill-opacity:1"/><path fill="#900" stroke="none" d="M13.4-6.4 0 0l13.4 6.4L8.9 0Z" style="stroke:none;fill:#900;stroke-width:2" transform="translate(191.6 59.4)"/></g><g class="arrow-line"><path d="M252.8 198.7V159" class="connection real" style="stroke:#900;stroke-opacity:1;stroke-width:2;fill:none;fill-opacity:1"/><path fill="#900" stroke="none" d="M13.4-6.4 0 0l13.4 6.4L8.9 0Z" style="stroke:none;fill:#900;stroke-width:2" transform="rotate(-90 227.7 -25)"/></g><g class="arrow-line"><path d="M252.8 159v-39.7" class="connection real" style="stroke:#900;stroke-opacity:1;stroke-width:2;fill:none;fill-opacity:1"/><path fill="#900" stroke="none" d="M13.4-6.4 0 0l13.4 6.4L8.9 0Z" style="stroke:none;fill:#900;stroke-width:2" transform="rotate(90 68.7 184)"/></g><g class="composite-shape"><path d="M250.2 159a2.5 2.5 0 1 1 5 0 2.5 2.5 0 0 1-5 0Z" class="real" style="stroke-width:1;stroke:#000;fill:#000;fill-opacity:1"/></g></g></svg><svg xmlns="http://www.w3.org/2000/svg" xmlns:xlink="http://www.w3.org/1999/xlink" width="335" height="212.7" style="width:335px;height:212.70001220703125px;font-family:Asana-Math,Asana;background:#fff"><path fill="#900" stroke="#900" stroke-width=".1" d="m122 27.5 1.8-.1q1.6 0 1.7.4l.2 1.5h.4q0-1.6.3-2.6h-7.7v.5h1q.5 0 .5.5l-.1 1.2-1.3 7.4c-.3 1.6-.3 1.6-1 1.7h-.6v.5h4.5V38h-1.1q-.7 0-.6-.5V37l.6-3.8h3.8l.5.1.3-.8h-4.4l.7-4.6.2-.5Z"/><svg width="10.3" height="10" x="117.1" y="15.5" overflow="visible"><path d="M10.3 4.9 7 1.4l-.5.5 2 2.4h-.2v.9h.2l-2 2.3.5.5zm-8.6.3h8.1v-.9H1.7z" style="fill:#900;fill-opacity:1;stroke-width:1px;stroke:none;stroke-opacity:1"/></svg><path fill="#900" stroke="#900" stroke-width=".1" d="M15.6 42h-.3l.4-2q.4-2.2 1.5-2.1.8 0 1.3.7l.1-.1.4-1.1.1-.3-1.2-.2-.6.1-2.2 1.6q-.6.6-.7 1.9l-.3 1.3-1.5.7v.3h1.3l-.1 1c-.5 3.3-1.2 6.5-1.5 7.6q-.5 1.6-1.5 1.6-.5 0-.8-.5h-.3L9.3 54l.6.1q1.2 0 2.3-1.3c1.2-1.4 1.5-3 3-9.9h1.7l.3-1z"/><svg width="10.2" height="10" x="9.8" y="26.3" overflow="visible"><path d="M10.2 4.9 7.1 1.4l-.5.5 1.9 2.4h-.2v.9h.2l-2 2.3.5.5zm-8.5.3h8v-.9h-8z" style="fill:#900;fill-opacity:1;stroke-width:1px;stroke:none;stroke-opacity:1"/></svg><path fill="#900" stroke="#900" stroke-width=".1" d="M20 54q0 1-.3 1.6.7.4 1.3.4.9 0 1.7-.7.9-.7.9-1.5 0-1-1.3-1.2h-.5q-1-.2-1-.9.1-1 1.3-1.1.9 0 1.1.5v.7h.3l.2-1.4-1.2-.3a3 3 0 0 0-1.9 1q-.4.3-.4 1 0 .9 1.1 1.2l.8.1q.7.1.7.8-.1 1.3-1.4 1.3-.6 0-1.1-.4v-1Zm22.8 38.6-5.9-10h-2.7l-.1.4h.6c.7 0 1.3.9 1.3 1l-1.5 8.6q-.3 1.3-1 1.2H33v.6h3.7v-.5H36q-.9-.1-.8-.8v-.5l1.4-8 5.8 9.9h.8l1.6-9.4c.4-2 .4-2 1-2h.7v-.5H43v.4h.7q.7 0 .6.5z"/><svg width="14.1" height="10" x="32.9" y="71.3" overflow="visible"><path d="m14 4.9-3-3.4-.6.5 2 2.4h-.2v.9h.2l-2 2.3.5.5zm-12.3.3h11.9v-.9h-12z" style="fill:#900;fill-opacity:1;stroke-width:1px;stroke:none;stroke-opacity:1"/></svg><path fill="#900" stroke="#900" stroke-width=".1" d="M92.9 89.3h1c-1 1.2-2.6 2.7-2.6 5q0 2.3 1.5 2.4 1.4.1 3.2-3.4l-.2 1.6q0 1.7 1.3 1.8c2.2 0 4.8-4.3 4.8-6.8q0-1.6-1-1.6l-.6.2-.8.8.2.3.4-.1q.8 0 .8 1c0 2.5-1.7 5.3-3.1 5.3q-.8-.1-.9-1.6c0-.8.2-2 .4-2.7l.9-3-.2-.2-1.2.4-.5 2.5q-.3 1.4-1 2.6-1 2-1.8 2-1-.1-1-1.6a8 8 0 0 1 2.4-5.6l-.2-.3-1 .2-1.7-.1h-.9l-.7 2h.4l.3-.6q.2-.5.8-.5z"/><svg width="13.1" height="10" x="90.1" y="77.5" overflow="visible"><path d="M13.1 4.9 10 1.4l-.5.5 1.9 2.4h-.2v.9h.2l-2 2.3.6.5zm-11.4.3h11v-.9h-11z" style="fill:#900;fill-opacity:1;stroke-width:1px;stroke:none;stroke-opacity:1"/></svg><path fill="#fff" stroke="#fff" stroke-width=".1" d="m73 39.5-.5.3-1 .5q-.3 0-.3-.3l.2-.7 1.2-5 .2-.7q0-.5-.5-.5t-2.2 1q-1.3 1-2.5 2.6l.5-2.4.2-.7q0-.5-.5-.5-.8 0-2.2 1c-.8.6-1 1-2.2 2.5l.6-2.3v-.7q0-.5-.3-.5-.5 0-2.3 1.2l-.5.4.2.3 1.3-.8q.3 0 .3.5c0 .8-.7 4.1-1.4 6.5v.2l1.2-.2.4-1.8q.5-2.5 1.8-3.9 1.1-1.2 2-1.3l.1.4q0 1-1 5.5l-.3 1.1v.2l1.3-.2.3-1.8q.5-2.2 1.6-3.5 1.5-1.6 2.3-1.7.3 0 .3.5c0 .4 0 .6-.5 2-.6 2.8-1 3.1-1 4q0 .7.6.7c.4 0 1-.3 2.7-1.6Z"/><path fill="#900" stroke="#900" stroke-width=".1" d="m321.5 28.2 1.8-.1q1.6 0 1.8.4l.1 1.5h.4q0-1.6.4-2.6h-7.7v.5h.9q.6 0 .6.5l-.2 1.2-1.3 7.4c-.2 1.6-.2 1.6-1 1.7h-.6v.5h4.5v-.5h-1q-.7 0-.7-.5v-.4l.7-3.8h3.8l.4.1.3-.8h-4.4l.8-4.6.1-.5Z"/><svg width="10.3" height="10" x="316.7" y="16.2" overflow="visible"><path d="M10.3 4.9 7 1.4l-.5.5 2 2.4h-.2v.9h.2l-2 2.3.5.5zm-8.6.3h8.1v-.9H1.7z" style="fill:#900;fill-opacity:1;stroke-width:1px;stroke:none;stroke-opacity:1"/></svg><path fill="#900" stroke="#900" stroke-width=".1" d="M187.6 39h-.3l.4-1.9q.3-2.2 1.5-2.1.8 0 1.2.7l.2-.1q0-.5.4-1.1v-.3l-1-.2-.6.1-2.2 1.6q-.6.6-.8 1.9l-.2 1.3-1.5.7v.3h1.3l-.2 1c-.5 3.3-1.1 6.5-1.5 7.6q-.5 1.5-1.4 1.6-.5 0-.9-.5h-.2l-.4 1.4.6.1q1.2 0 2.3-1.3c1.2-1.4 1.5-3 3-9.9h1.7l.3-1z"/><svg width="10.2" height="10" x="181.7" y="23.4" overflow="visible"><path d="M10.2 4.9 7.1 1.4l-.5.5 1.9 2.4h-.2v.9h.2l-2 2.3.5.5zm-8.5.3h8v-.9h-8z" style="fill:#900;fill-opacity:1;stroke-width:1px;stroke:none;stroke-opacity:1"/></svg><path fill="#900" stroke="#900" stroke-width=".1" d="m192 51.2-.3 1.5q.6.4 1.2.4.9 0 1.8-.7t.8-1.5q0-1-1.2-1.2h-.5q-1-.2-1-.9.2-1 1.2-1.1.8 0 1.2.5v.7h.2l.3-1.4-1.2-.3a3 3 0 0 0-2 1q-.4.3-.4 1 0 .9 1.2 1.2l.7.1q.7.1.7.8 0 1.3-1.4 1.3-.6 0-1-.4v-1Zm36.7 41.3-5.8-10H220v.4h.5c.8 0 1.4.9 1.4 1l-1.6 8.6q-.1 1.4-1 1.2h-.4l-.1.6h3.7l.1-.5h-.7q-1-.1-.8-.8v-.5l1.4-8 5.7 9.9h.9l1.6-9.4c.3-2 .4-2 1-2h.6v-.5H229l-.1.4h.8q.6 0 .6.5z"/><svg width="14.1" height="10" x="218.8" y="71.2" overflow="visible"><path d="m14 4.9-3-3.4-.6.5 2 2.4h-.2v.9h.2l-2 2.3.5.5zm-12.3.3h11.9v-.9h-12z" style="fill:#900;fill-opacity:1;stroke-width:1px;stroke:none;stroke-opacity:1"/></svg><path fill="#900" stroke="#900" stroke-width=".1" d="M278.9 89.2h1c-1 1.2-2.7 2.7-2.7 5q0 2.3 1.5 2.4t3.3-3.4l-.2 1.6q0 1.7 1.2 1.8c2.3 0 4.9-4.3 4.9-6.8q0-1.5-1-1.6-.5 0-.6.2l-.9.8.2.3.5-.1q.6 0 .7 1c0 2.5-1.6 5.3-3 5.3q-1-.1-1-1.6c0-.8.2-2 .4-2.7l.9-3-.1-.2-1.3.4-.5 2.5q-.2 1.4-.9 2.6-1 2-1.8 2-1-.1-1-1.6a8 8 0 0 1 2.4-5.6l-.2-.3-1 .2-1.7-.1h-1l-.6 2h.3l.3-.6q.3-.5.9-.5z"/><svg width="13.1" height="10" x="276" y="77.4" overflow="visible"><path d="M13.1 4.9 10 1.4l-.5.5 1.9 2.4h-.2v.9h.2l-2 2.3.6.5zm-11.4.3h11v-.9h-11z" style="fill:#900;fill-opacity:1;stroke-width:1px;stroke:none;stroke-opacity:1"/></svg><path fill="#fff" stroke="#fff" stroke-width=".1" d="m258.9 39.4-.4.3-1 .5q-.3 0-.3-.3l.1-.7 1.3-5 .1-.7q0-.5-.4-.5-.7 0-2.2 1-1.4 1-2.5 2.6l.5-2.4.1-.7q0-.5-.4-.5-.8 0-2.2 1c-.8.6-1.1 1-2.2 2.5l.5-2.3.1-.7q0-.5-.4-.5t-2.2 1.2l-.5.4.1.3 1.4-.8q.3 0 .3.5c0 .8-.7 4.1-1.4 6.5v.2l1.2-.2.4-1.8q.4-2.5 1.8-3.9 1-1.2 2-1.3l.1.4q0 1-1 5.5l-.3 1.1v.2l1.2-.2.4-1.8q.3-2.2 1.6-3.5 1.5-1.6 2.3-1.7.2 0 .2.5c0 .4 0 .6-.4 2-.7 2.8-1 3.1-1 4q0 .7.6.7c.4 0 1-.3 2.7-1.6Z"/></svg></svg>