<svg xmlns="http://www.w3.org/2000/svg" width="384.6" height="214.3" style="width:384.6000061035156px;height:214.3000030517578px;background:#fff;fill:none"><svg xmlns="http://www.w3.org/2000/svg"/><svg xmlns="http://www.w3.org/2000/svg" class="role-diagram-draw-area" style="overflow:visible"><g class="shapes-region" style="stroke:#000;fill:none"><g class="composite-shape"><defs><pattern id="_pgf4v8i9zs9ydg-full-view" width="11.3" height="11.3" x="0" y="0" patternTransform="rotate(45 0 0)" patternUnits="userSpaceOnUse"><path d="M0 0v11.3M5.7 0v11.3M11.3 0v11.3" style="stroke:#eee;stroke-opacity:1;stroke-width:1;fill:none"/></pattern></defs><path d="M-34.6 59h155.3v173.8H-34.6Z" class="real" style="stroke-width:1;stroke:#000;fill:url(#_pgf4v8i9zs9ydg-full-view);fill-opacity:1"/></g><g class="composite-shape"><path d="M38.1 9h50v50h-50Z" class="real" style="stroke-width:1;stroke:#900;stroke-opacity:1;fill:#900;fill-opacity:.5"/></g><g class="arrow-line"><path d="M38.1 59H19.4" class="connection real" style="stroke:#900;stroke-opacity:1;stroke-width:2;fill:none;fill-opacity:1"/><path fill="#900" stroke="none" d="M13.4-6.4 0 0l13.4 6.4L8.9 0Z" style="stroke:none;fill:#900;stroke-width:2" transform="translate(15.4 59)"/></g><g class="arrow-line"><path d="M51.3 103.3V63.6" class="connection real" style="stroke:#900;stroke-opacity:1;stroke-width:2;fill:none;fill-opacity:1"/><path fill="#900" stroke="none" d="M13.4-6.4 0 0l13.4 6.4L8.9 0Z" style="stroke:none;fill:#900;stroke-width:2" transform="rotate(90 -4.1 55.4)"/></g><g class="arrow-line"><path d="M73.7 99.6V59.9" class="connection real" style="stroke:#900;stroke-opacity:1;stroke-width:2;fill:none;fill-opacity:1"/><path fill="#900" stroke="none" d="M13.4-6.4 0 0l13.4 6.4L8.9 0Z" style="stroke:none;fill:#900;stroke-width:2" transform="rotate(-90 88.6 15)"/></g><g class="arrow-line"><path d="M107.5 33H88.7" class="connection real" style="stroke:#900;stroke-opacity:1;stroke-width:2;fill:none;fill-opacity:1"/><path fill="#900" stroke="none" d="M13.4-6.4 0 0l13.4 6.4L8.9 0Z" style="stroke:none;fill:#900;stroke-width:2" transform="matrix(-1 0 0 -1 111.5 33)"/></g><g class="composite-shape axis2d" style="stroke-width:1;stroke:#000"><path d="M173.3 199h200M179.4 6.2v200" class="real"/><path d="m366.3 194 7 5-7 5M174.4 13.2l5-7 5 7"/></g><g class="arrow-line"><path d="M179.4 199 361.2 17.2" class="connection real" style="stroke:#900;stroke-width:1;fill:none;fill-opacity:1;stroke-opacity:1"/></g><g class="arrow-line"><path stroke-dasharray="3" d="M179.7 17.2h181.5" class="connection real" style="stroke:#900;stroke-opacity:1;stroke-width:1;fill:none;fill-opacity:1"/></g></g><rect width="98" height="24" x="221.4" y="5.2" rx="0" ry="0" style="stroke:none;stroke-width:1;fill:#fff;fill-opacity:1;stroke-opacity:1"/></svg><svg xmlns="http://www.w3.org/2000/svg" xmlns:xlink="http://www.w3.org/1999/xlink" width="383" height="212.7" style="width:383px;height:212.6999969482422px;font-family:Asana-Math,Asana;background:#fff"><path fill="#900" stroke="#900" stroke-width=".1" d="m118 27 1.8-.1q1.6 0 1.7.4l.2 1.5h.4q0-1.6.3-2.6h-7.7v.5h1q.5 0 .5.5l-.1 1.2-1.3 7.4c-.3 1.6-.3 1.6-1 1.7h-.6v.5h4.5v-.5h-1.1q-.7 0-.6-.5v-.4l.6-3.8h3.8l.5.1.3-.8h-4.4l.7-4.6.2-.5Z"/><svg width="10.3" height="10" x="113.1" y="14.9" overflow="visible"><path d="M10.3 4.9 7 1.4l-.5.5 2 2.4h-.2v.9h.2l-2 2.3.5.5zm-8.6.3h8.1v-.9H1.7z" style="fill:#900;fill-opacity:1;stroke-width:1px;stroke:none;stroke-opacity:1"/></svg><path fill="#900" stroke="#900" stroke-width=".1" d="M11.6 41.4h-.3l.4-1.9q.4-2.2 1.5-2.1.8 0 1.3.7l.1-.1.4-1.1.1-.3-1.2-.2-.6.1-2.2 1.6q-.6.6-.7 1.9l-.3 1.3-1.5.7v.3h1.3l-.1 1c-.5 3.3-1.2 6.5-1.5 7.6q-.5 1.5-1.5 1.6-.5 0-.8-.5h-.3l-.4 1.4.6.1q1.2 0 2.3-1.3c1.2-1.4 1.5-3 3-9.9h1.7l.3-1z"/><svg width="10.2" height="10" x="5.8" y="25.8" overflow="visible"><path d="M10.2 4.9 7.1 1.4l-.5.5 1.9 2.4h-.2v.9h.2l-2 2.3.5.5zm-8.5.3h8v-.9h-8z" style="fill:#900;fill-opacity:1;stroke-width:1px;stroke:none;stroke-opacity:1"/></svg><path fill="#900" stroke="#900" stroke-width=".1" d="M16 53.6q0 .8-.3 1.5.7.4 1.3.4.9 0 1.7-.7.9-.7.9-1.5 0-1-1.3-1.2h-.5q-1-.2-1-.9.1-1 1.3-1.1.9 0 1.1.5v.7h.3l.2-1.4-1.2-.3a3 3 0 0 0-1.9 1q-.4.3-.4 1 0 .9 1.1 1.2l.8.1q.7.1.7.8-.1 1.3-1.4 1.3-.6 0-1.1-.4v-1ZM38.8 92l-5.9-10h-2.7l-.1.5h.6c.7 0 1.3.9 1.3 1l-1.5 8.6q-.3 1.3-1 1.2H29v.6h3.7v-.5H32q-.9-.1-.8-.8V92l1.4-8 5.8 9.9h.8l1.6-9.4c.4-2 .4-2 1-2h.7V82H39v.4h.7q.7 0 .6.5z"/><svg width="14.1" height="10" x="28.9" y="70.8" overflow="visible"><path d="m14 4.9-3-3.4-.6.5 2 2.4h-.2v.9h.2l-2 2.3.5.5zm-12.3.3h11.9v-.9h-12z" style="fill:#900;fill-opacity:1;stroke-width:1px;stroke:none;stroke-opacity:1"/></svg><path fill="#900" stroke="#900" stroke-width=".1" d="M88.9 88.8h1c-1 1.2-2.6 2.7-2.6 5q0 2.3 1.5 2.4 1.4.1 3.2-3.4l-.2 1.6q0 1.7 1.3 1.8c2.2 0 4.8-4.3 4.8-6.8q0-1.5-1-1.6l-.6.2-.8.8.2.3.4-.1q.8 0 .8 1c0 2.5-1.7 5.3-3.1 5.3q-.8-.1-.9-1.6c0-.8.2-2 .4-2.7l.9-3-.2-.2-1.2.4-.5 2.5q-.3 1.4-1 2.6-1 2-1.8 2-1-.1-1-1.6A8 8 0 0 1 91 88l-.2-.3-1 .2-1.7-.1h-.9l-.7 2h.4l.3-.6q.2-.5.8-.5z"/><svg width="13.1" height="10" x="86.1" y="77" overflow="visible"><path d="M13.1 4.9 10 1.4l-.5.5 1.9 2.4h-.2v.9h.2l-2 2.3.6.5zm-11.4.3h11v-.9h-11z" style="fill:#900;fill-opacity:1;stroke-width:1px;stroke:none;stroke-opacity:1"/></svg><path fill="#fff" stroke="#fff" stroke-width=".1" d="m69 39-.5.3-1 .5q-.3 0-.3-.3l.2-.7 1.2-5 .2-.7q0-.5-.5-.5t-2.2 1q-1.3 1-2.5 2.6l.5-2.4.2-.7q0-.5-.5-.5-.8 0-2.2 1c-.8.6-1 1-2.2 2.5l.6-2.3v-.7q0-.5-.3-.5-.5 0-2.3 1.2l-.5.4.2.3 1.3-.8q.3 0 .3.5c0 .8-.7 4.1-1.4 6.5v.2l1.2-.2.4-1.8q.5-2.5 1.8-3.9 1.2-1.2 2-1.3l.1.4q0 1-1 5.5l-.3 1.1v.2l1.3-.2.3-1.8q.5-2.2 1.6-3.5 1.5-1.6 2.3-1.7.3 0 .3.5c0 .4 0 .6-.5 2-.6 2.8-1 3.1-1 4q0 .7.6.7c.4 0 1-.3 2.7-1.6Z"/><path fill="#000" stroke="#000" stroke-width=".1" d="m372 178.5 1.8-.1q1.6 0 1.7.4l.2 1.5h.4q0-1.6.3-2.6h-7.7v.5h1q.5 0 .5.5l-.1 1.2-1.3 7.4c-.3 1.6-.3 1.6-1 1.7h-.6v.5h4.5v-.5h-1.1q-.7 0-.6-.5v-.4l.6-3.8h3.8l.5.1.3-.8h-4.4l.7-4.6.2-.5ZM167.3 15.6h-.3l.3-2q.4-2 1.6-2 .8 0 1.2.6h.2l.4-1.2v-.2q-.4-.3-1.1-.3l-.6.2-2.2 1.6q-.6.5-.8 1.8l-.2 1.4-1.5.6-.1.4h1.4l-.2 1c-.5 3.3-1.1 6.4-1.5 7.6q-.5 1.5-1.4 1.5-.5.1-.9-.5l-.2.1-.4 1.4.6.1q1.2 0 2.2-1.3c1.3-1.5 1.6-3 3-9.9h1.8l.3-1zm4.3 8.7-.2 1.5 1.2.3q.9 0 1.8-.6t.8-1.6-1.2-1.1l-.5-.1q-1.1-.1-1-.8 0-1 1.2-1.1.8 0 1.2.5v.6h.2l.3-1.3-1.2-.3a3 3 0 0 0-2 1q-.4.3-.4 1 0 .9 1.2 1.2l.7.1q.7.1.7.8 0 1.3-1.4 1.3-.7 0-1-.4v-1Z"/><path fill="#fff" d="M225.3 6.3h38.5v18.4h-38.5z"/><path fill="#900" stroke="#900" stroke-width=".1" d="m236.5 20-.4.3-1 .5-.1-.3v-.6l1.2-4.6.1-.6q0-.4-.4-.4t-2 .9q-1.2.8-2.2 2.3l.5-2.1.1-.7q0-.4-.4-.4-.8 0-2 1c-.7.4-1 .8-2 2.1l.5-2 .1-.7q0-.4-.3-.4-.6 0-2 1l-.5.4.1.3 1.2-.7q.3 0 .3.4c0 .8-.6 3.7-1.3 5.9v.2l1.1-.3.4-1.5q.3-2.4 1.6-3.5 1-1.2 1.7-1.2.3 0 .2.3 0 .8-1 5l-.2 1v.2l1.1-.3.4-1.6q.3-2 1.4-3.1 1.3-1.5 2-1.5.3 0 .3.4c0 .3 0 .6-.4 1.9-.6 2.4-.8 2.7-.8 3.6q0 .5.4.6t2.5-1.5Zm4.9-1.5-.5 2v.7q0 .6.3.6.5 0 2.2-1.5V20q-.7.6-1.2.7-.2 0-.2-.3v-.2l1.4-5.8-.2-.1-.5.2-1.3-.2-1.1.2q-1.4.7-1.9 1.7a13 13 0 0 0-1.1 4.4q0 1.1.5 1.2c.6 0 1.8-.8 3.6-3.3Zm.7-3.2a9 9 0 0 1-1.1 3.2q-1.5 2-2.3 2.2-.3 0-.3-.6c0-1 .4-2.8 1-4q.4-1.2 1.4-1.1zm2 6.3.7.2q.8 0 1.6-1.2l1.1-1.8.2 1.1q.3 2 1.1 1.9.5 0 1.3-.7l.8-.7-.2-.3q-.8.7-1.1.7-.5 0-.6-.4l-.4-1.3-.3-1.6.6-.7q.9-1.4 1.6-1.4.3 0 .5.4l.2-.1.2-1.3-.5-.1q-.8-.1-2.1 2l-.6.8v-.8q-.3-2.1-1.6-2-.6 0-.9.3l-.8 1.2.2.2q.7-.7 1-.7.9 0 1.2 2l.1 1-.6 1q-.9 1.5-1.6 1.5l-.4-.1-.2-.5h-.3zm16.6-6.7h-.2l.3-1.7q.3-2 1.4-1.9.7 0 1 .6h.2l.4-1v-.3l-1-.2-.5.1-2 1.5q-.5.4-.7 1.7l-.2 1.2-1.4.5v.4h1.2l-.1.8c-.5 3-1 5.9-1.4 7q-.4 1.3-1.3 1.3-.4 0-.8-.5l-.2.1-.3 1.2.5.1q1 0 2-1.1c1.1-1.3 1.4-2.8 2.7-9h1.6l.3-.8v-.1z"/><path fill="#fff" d="M264.3 7.1h4.2v20.1h-4.2z"/><path fill="#900" stroke="#900" stroke-width=".1" d="M264.6 23.5q0 .8-.2 1.5l1.2.3q.8 0 1.5-.7.9-.6.8-1.3 0-1-1.1-1l-.5-.2q-.9 0-.9-.7.1-1 1.1-1 .8 0 1 .5v.6h.3l.2-1.2-1-.3q-1 0-1.8.8-.4.4-.4 1 0 .9 1 1l.7.2q.7 0 .7.7 0 1-1.3 1.1-.6.1-1-.4v-.9Z"/><path fill="#fff" d="M269.4 6.3h19.4v18.4h-19.4z"/><path fill="#900" stroke="#900" stroke-width=".1" d="M283.2 16.3v-.9H275v1Zm0 3.3v-1H275v1Z"/><path fill="#fff" d="M288.8 6.3h9.3v18.4h-9.3z"/><path fill="#900" stroke="#900" stroke-width=".1" d="M295 21.9c.8 0 1.9-1 2.4-1.4v-.1l-.2-.2c-.3.3-1.2 1-1.4.2 0-1 .7-4.8 1.1-5.9v-.1l-1 .2-.2.2c0 1-.5 3.7-.9 4.6-.3.7-1.3 1.6-2.1 1.6s-1.1-.8-1-1.5c0-1.7.7-3.3.8-5l-1.2.2c.2 3.5-2.4 8.3-1.7 11.3q.7 0 1.2-.2v-.2c-.8-1.3-.2-3.4.1-4.5 1 1.7 3.2 0 4-1-.2.5-.7 1.8.1 1.8Z"/><path fill="#fff" d="M298.6 7.1h4.2v20.1h-4.2z"/><path fill="#900" stroke="#900" stroke-width=".1" d="m299 23.5-.3 1.5q.5.3 1.1.3t1.6-.7q.8-.6.8-1.3 0-1-1.2-1l-.4-.2q-1 0-.9-.7.1-1 1.1-1 .6 0 1 .5v.6h.3l.2-1.2q-.5-.3-1.1-.3-1 0-1.7.8-.4.4-.4 1 0 .9 1 1l.7.2q.7 0 .6.7 0 1-1.2 1.1-.6.1-1-.4v-.9Z"/><path fill="#fff" d="M303.6 6.3h11.9v18.4h-11.9z"/><path fill="#900" stroke="#900" stroke-width=".1" d="m312.6 20-5.3-9h-2.5v.5h.5c.6 0 1.2.7 1.2.9L305 20c-.2 1-.3 1-.9 1.1h-.4l-.1.5h3.4v-.5h-.6q-.9 0-.8-.7V20l1.4-7 5.2 8.8h.8l1.4-8.5c.3-1.7.3-1.8 1-1.8h.5V11h-3.2l-.1.4h.7q.6 0 .6.4z"/></svg></svg>