<svg xmlns="http://www.w3.org/2000/svg" width="234.6" height="111.6" style="width:234.60000610351562px;height:111.5999984741211px;background:#fff;fill:none"><svg xmlns="http://www.w3.org/2000/svg"/><svg xmlns="http://www.w3.org/2000/svg" class="role-diagram-draw-area"><g class="shapes-region" style="stroke:#000;fill:none"><g class="arrow-line"><path d="M216 55.65h-18.76" class="connection real" style="stroke:#900;stroke-opacity:1;stroke-width:2;fill:none;fill-opacity:1"/><path fill="#900" stroke="none" d="M13.4-6.43 0 0l13.4 6.44L8.9 0Z" style="stroke:none;fill:#900;stroke-width:2" transform="matrix(-1 0 0 -1 220.003 55.652)"/></g><g class="composite-shape"><defs><pattern id="_pgfqa2pjs7ge" width="11.314" height="11.314" x="0" y="0" patternTransform="rotate(45 0 0)" patternUnits="userSpaceOnUse"><path d="M0 0v11.314M5.657 0v11.314M11.314 0v11.314" style="stroke:#eee;stroke-opacity:1;stroke-width:1;fill:none"/></pattern></defs><path d="M-49.86 59.79H134.5v61.12H-49.86Z" class="real" style="stroke-width:1;stroke:#000;fill:url(#_pgfqa2pjs7ge);fill-opacity:1"/></g><g class="composite-shape"><path d="M42.14 9.49h50v50h-50Z" class="real" style="stroke-width:1;stroke:#900;stroke-opacity:1;fill:#900;fill-opacity:.5"/></g><g class="arrow-line"><path d="M42.14 59.49H23.38" class="connection real" style="stroke:#900;stroke-opacity:1;stroke-width:2;fill:none;fill-opacity:1"/><path fill="#900" stroke="none" d="M13.4-6.43 0 0l13.4 6.44L8.9 0Z" style="stroke:none;fill:#900;stroke-width:2" transform="translate(19.383 59.486)"/></g><g class="arrow-line"><path d="M55.3 103.77V64.08" class="connection real" style="stroke:#900;stroke-opacity:1;stroke-width:2;fill:none;fill-opacity:1"/><path fill="#900" stroke="none" d="M13.4-6.43 0 0l13.4 6.44L8.9 0Z" style="stroke:none;fill:#900;stroke-width:2" transform="rotate(90 -2.389 57.691)"/></g><g class="arrow-line"><path d="M77.7 100.06V60.37" class="connection real" style="stroke:#900;stroke-opacity:1;stroke-width:2;fill:none;fill-opacity:1"/><path fill="#900" stroke="none" d="M13.4-6.43 0 0l13.4 6.44L8.9 0Z" style="stroke:none;fill:#900;stroke-width:2" transform="rotate(-90 90.88 13.177)"/></g><g class="arrow-line"><path d="M197.24 55.65h-18.76" class="connection real" style="stroke:#900;stroke-opacity:1;stroke-width:2;fill:none;fill-opacity:1"/><path fill="#900" stroke="none" d="M13.4-6.43 0 0l13.4 6.44L8.9 0Z" style="stroke:none;fill:#900;stroke-width:2" transform="translate(174.483 55.652)"/></g><g class="arrow-line"><path d="M197.24 95.34V55.65" class="connection real" style="stroke:#900;stroke-opacity:1;stroke-width:2;fill:none;fill-opacity:1"/><path fill="#900" stroke="none" d="M13.4-6.43 0 0l13.4 6.44L8.9 0Z" style="stroke:none;fill:#900;stroke-width:2" transform="rotate(-90 148.293 -48.95)"/></g><g class="arrow-line"><path d="M197.24 55.65V15.96" class="connection real" style="stroke:#900;stroke-opacity:1;stroke-width:2;fill:none;fill-opacity:1"/><path fill="#900" stroke="none" d="M13.4-6.43 0 0l13.4 6.44L8.9 0Z" style="stroke:none;fill:#900;stroke-width:2" transform="rotate(90 92.641 104.602)"/></g><g class="composite-shape"><path d="M194.72 55.65c0-1.39 1.13-2.52 2.52-2.52s2.52 1.13 2.52 2.52-1.13 2.52-2.52 2.52-2.52-1.13-2.52-2.52Z" class="real" style="stroke-width:1;stroke:#000;fill:#000;fill-opacity:1"/></g><g class="arrow-line"><path d="M111.48 33.49H92.72" class="connection real" style="stroke:#900;stroke-opacity:1;stroke-width:2;fill:none;fill-opacity:1"/><path fill="#900" stroke="none" d="M13.4-6.43 0 0l13.4 6.44L8.9 0Z" style="stroke:none;fill:#900;stroke-width:2" transform="matrix(-1 0 0 -1 115.476 33.486)"/></g></g></svg><svg xmlns="http://www.w3.org/2000/svg" xmlns:xlink="http://www.w3.org/1999/xlink" width="233" height="110" style="width:233px;height:110px;font-family:Asana-Math,Asana;background:#fff"><path fill="#900" stroke="#900" stroke-width=".136" d="m121.987 27.468 1.802-.068c1.054 0 1.734.153 1.751.408l.136 1.513h.408c.051-1.071.17-1.938.357-2.584-.374-.034-.85-.051-1.139-.051l-.697.017-2.805.034h-.493c-.425 0-1.105-.017-1.751-.034l-.833-.017-.051.476.952.034c.408.017.595.17.595.459 0 .238-.068.782-.153 1.292l-1.275 7.378c-.289 1.564-.289 1.581-.986 1.649l-.612.051-.068.476.578-.017c.68-.017 1.224-.034 1.581-.034.306 0 .799.017 1.462.034l.884.017.051-.476-1.088-.051c-.459-.017-.612-.153-.612-.493 0-.102.017-.289.034-.357l.612-3.791h1.989c.459 0 .986.017 1.802.051l.442.017.323-.765-.068-.119a70 70 0 0 1-3.723.102h-.629l.782-4.607c.051-.272.068-.357.153-.544Z"/><svg width="10.288" height="10" x="117.125" y="15.45" overflow="visible"><path d="M10.29 4.85 7.14 1.53l-.49.52 1.93 2.33h-.15v.9h.15L6.65 7.61l.49.52zm-8.61.38h8.15v-.9H1.68z" style="fill:#900;fill-opacity:1;stroke-width:1px;stroke:none;stroke-opacity:1"/></svg><path fill="#900" stroke="#900" stroke-width=".136" d="M15.615 41.909h-.272l.357-1.904c.272-1.462.748-2.108 1.53-2.108.51 0 .969.255 1.224.663l.17-.068c.085-.272.255-.8.391-1.14l.085-.254c-.272-.12-.799-.221-1.19-.221-.187 0-.459.05-.595.119-.408.187-1.802 1.224-2.193 1.632-.374.374-.578.884-.765 1.853l-.255 1.343c-.697.34-1.037.476-1.462.629l-.085.374h1.377l-.153.952c-.51 3.315-1.139 6.477-1.513 7.65-.306 1.003-.816 1.53-1.428 1.53-.391 0-.578-.12-.884-.493l-.238.068c-.068.39-.306 1.207-.391 1.36.153.085.408.136.595.136.697 0 1.615-.527 2.278-1.326 1.207-1.428 1.547-3.06 2.975-9.877h1.768a6 6 0 0 1 .289-.952l-.068-.12c-.493.12-.476.154-1.547.154Z"/><svg width="10.2" height="10" x="9.75" y="26.338" overflow="visible"><path d="M10.2 4.85 7.05 1.53l-.49.52 1.93 2.33h-.15v.9h.15L6.56 7.61l.49.52zm-8.52.38h8.06v-.9H1.68z" style="fill:#900;fill-opacity:1;stroke-width:1px;stroke:none;stroke-opacity:1"/></svg><path fill="#900" stroke="#900" stroke-width=".095" d="M19.969 54.076c-.06.607-.131 1.024-.262 1.571.452.214.857.321 1.273.321.584 0 1.13-.214 1.738-.69.607-.476.857-.916.857-1.511 0-.643-.381-.988-1.262-1.154l-.511-.096c-.714-.13-.94-.333-.94-.82 0-.631.535-1.12 1.213-1.12.488 0 .94.215 1.13.536v.655h.274c.048-.417.096-.738.227-1.345-.465-.226-.798-.321-1.19-.321-.62 0-1.345.357-1.916.928-.31.321-.44.619-.44 1.047 0 .666.368 1.047 1.154 1.202l.75.143c.523.095.713.31.713.773 0 .774-.547 1.297-1.392 1.297-.416 0-.785-.13-1.119-.416v-1Z"/><path fill="#900" stroke="#900" stroke-width=".136" d="m42.782 92.562-5.865-10.013h-2.754l-.085.475.595.034c.765.034 1.343.8 1.36.952l-1.581 8.569c-.204 1.053-.306 1.19-.918 1.258l-.527.05-.085.477 1.887-.052c.204 0 .22 0 1.87.052l.085-.477-.714-.05c-.68-.052-.833-.187-.833-.749 0-.135.017-.322.05-.51l1.36-7.888 5.747 9.81h.85l1.598-9.401c.357-1.922.39-1.99 1.02-2.04l.629-.034.05-.46-3.62-.016-.085.475.799.034c.442.017.612.136.612.408 0 .12-1.411 8.875-1.445 9.096Z"/><svg width="14.063" height="10" x="32.888" y="71.313" overflow="visible"><path d="m14.06 4.85-3.15-3.32-.49.52 1.93 2.33h-.15v.9h.15l-1.93 2.33.49.52zm-12.38.38H13.6v-.9H1.68z" style="fill:#900;fill-opacity:1;stroke-width:1px;stroke:none;stroke-opacity:1"/></svg><path fill="#900" stroke="#900" stroke-width=".136" d="M92.902 89.335c.356 0 .578-.017 1.002-.068-.934 1.258-2.617 2.686-2.617 5.066 0 1.394.594 2.329 1.495 2.329 1.089 0 1.973-.935 3.23-3.366-.153.748-.204 1.173-.204 1.564 0 1.071.493 1.802 1.258 1.802 2.278 0 4.88-4.233 4.88-6.715 0-.969-.442-1.666-1.054-1.666-.221 0-.425.068-.561.204l-.85.799.187.323a.8.8 0 0 1 .458-.153c.46 0 .731.391.731 1.071 0 2.465-1.648 5.287-3.094 5.287-.493 0-.85-.68-.85-1.615 0-.799.154-1.921.358-2.652l.883-3.128-.118-.136-1.258.374-.494 2.533c-.204 1.054-.442 1.734-.934 2.652-.68 1.275-1.326 1.972-1.837 1.972-.595 0-.986-.663-.986-1.649 0-2.023.698-3.672 2.38-5.576l-.17-.306c-.34.153-.56.204-1.036.204s-1.19-.034-1.683-.085l-.204-.017c-.102-.017-.187-.017-.204-.017-.204 0-.358.034-.544.119-.239.459-.425 1.071-.647 2.006h.374l.29-.714c.118-.289.459-.476.867-.476.578 0 .288.034.951.034Z"/><svg width="13.113" height="10" x="90.063" y="77.475" overflow="visible"><path d="M13.11 4.85 9.96 1.53l-.49.52 1.93 2.33h-.15v.9h.15L9.47 7.61l.49.52zm-11.43.38h10.97v-.9H1.68z" style="fill:#900;fill-opacity:1;stroke-width:1px;stroke:none;stroke-opacity:1"/></svg><path fill="#fff" stroke="#fff" stroke-width=".136" d="m72.941 39.524-.442.289c-.493.323-.867.51-1.037.51-.119 0-.22-.153-.22-.34 0-.17.033-.323.118-.68l1.275-5.049c.068-.289.12-.561.12-.697 0-.289-.17-.476-.443-.476-.493 0-1.139.306-2.176 1.037-1.07.765-1.666 1.36-2.499 2.533l.51-2.329c.068-.34.12-.595.12-.714 0-.323-.17-.527-.443-.527-.51 0-1.292.374-2.227 1.088-.748.578-1.088.935-2.193 2.431l.561-2.261c.068-.272.102-.527.102-.731 0-.323-.153-.527-.39-.527-.358 0-1.004.357-2.262 1.258l-.476.34.12.34c.628-.391 1.223-.782 1.342-.782.187 0 .306.17.306.425 0 .867-.697 4.148-1.394 6.579l.051.187 1.156-.255.374-1.734c.408-1.887.867-2.89 1.802-3.91.714-.782 1.48-1.292 1.955-1.292.12 0 .187.136.187.357 0 .595-.374 2.533-1.07 5.508l-.273 1.139.085.187 1.173-.255.357-1.819c.272-1.377.85-2.652 1.598-3.485.935-1.037 1.785-1.632 2.33-1.632.135 0 .22.153.22.425 0 .408-.05.646-.425 2.125-.68 2.703-.952 3.06-.952 3.961 0 .425.187.68.51.68.442 0 1.054-.357 2.72-1.598Z"/></svg></svg>