<svg xmlns="http://www.w3.org/2000/svg" xmlns:xlink="http://www.w3.org/1999/xlink" x="0" y="0" width="617.6000366210938" height="249.90000915527344" style="
        width:617.6000366210938px;
        height:249.90000915527344px;
        background: #FFF;
        fill: none;
">
        <svg xmlns="http://www.w3.org/2000/svg"/>
        
        <svg xmlns="http://www.w3.org/2000/svg" class="role-diagram-draw-area" style="overflow: visible;"><g class="shapes-region" style="stroke: black; fill: none;"><g class="composite-shape"><defs><!-- react-text: 83252 --> <!-- /react-text --><pattern id="_pgf4v8i9zs9ydg-full-view" x="0" y="0" width="11.313708498984761" height="11.313708498984761" patternTransform="rotate(45,0,0)" patternUnits="userSpaceOnUse"><path d="M0,0 L0,11.313708498984761" style="stroke: rgb(238, 238, 238); stroke-opacity: 1; stroke-width: 1; fill: none;"/><path d="M5.656854249492381,0 L5.656854249492381,11.313708498984761" style="stroke: rgb(238, 238, 238); stroke-opacity: 1; stroke-width: 1; fill: none;"/><path d="M11.313708498984761,0 L11.313708498984761,11.313708498984761" style="stroke: rgb(238, 238, 238); stroke-opacity: 1; stroke-width: 1; fill: none;"/></pattern></defs><path class="real" d=" M-31.1,57.99 L124.23,57.99 L124.23,261.25 L-31.1,261.25 Z" style="stroke-width: 1; stroke: rgb(0, 0, 0); fill: url(&quot;#_pgf4v8i9zs9ydg-full-view&quot;); fill-opacity: 1;"/></g><g class="composite-shape"><path class="real" d=" M41.64,7.99 L91.64,7.99 L91.64,57.99 L41.64,57.99 Z" style="stroke-width: 1; stroke: rgb(153, 0, 0); stroke-opacity: 1; fill: rgb(153, 0, 0); fill-opacity: 0.5;"/></g><g class="arrow-line"><path class="connection real" stroke-dasharray="" d="  M41.64,57.99 L22.88,57.99" style="stroke: rgb(153, 0, 0); stroke-opacity: 1; stroke-width: 2; fill: none; fill-opacity: 1;"/><g stroke="none" fill="rgb(153,0,0)" fill-opacity="1" transform="matrix(1,-2.4492935982947064e-16,2.4492935982947064e-16,1,18.882847377232167,57.98571428571428)" style="stroke: none; fill: rgb(153, 0, 0); stroke-width: 2;"><path d=" M13.4,-6.43 L0,0 L13.4,6.44 L8.9,0 Z"/></g></g><g class="arrow-line"><path class="connection real" stroke-dasharray="" d="  M54.8,102.27 L54.8,62.58" style="stroke: rgb(153, 0, 0); stroke-opacity: 1; stroke-width: 2; fill: none; fill-opacity: 1;"/><g stroke="none" fill="rgb(153,0,0)" fill-opacity="1" transform="matrix(3.061616997868383e-16,1,-1,3.061616997868383e-16,54.80286690848217,58.579998779296886)" style="stroke: none; fill: rgb(153, 0, 0); stroke-width: 2;"><path d=" M13.4,-6.43 L0,0 L13.4,6.44 L8.9,0 Z"/></g></g><g class="arrow-line"><path class="connection real" stroke-dasharray="" d="  M77.2,98.56 L77.2,58.87" style="stroke: rgb(153, 0, 0); stroke-opacity: 1; stroke-width: 2; fill: none; fill-opacity: 1;"/><g stroke="none" fill="rgb(153,0,0)" fill-opacity="1" transform="matrix(-1.8369701987210297e-16,-1,1,-1.8369701987210297e-16,77.20286690848218,102.55714198521206)" style="stroke: none; fill: rgb(153, 0, 0); stroke-width: 2;"><path d=" M13.4,-6.43 L0,0 L13.4,6.44 L8.9,0 Z"/></g></g><g class="arrow-line"><path class="connection real" stroke-dasharray="" d="  M123,31.99 L92.22,31.99" style="stroke: rgb(153, 0, 0); stroke-opacity: 1; stroke-width: 2; fill: none; fill-opacity: 1;"/><g stroke="none" fill="rgb(153,0,0)" fill-opacity="1" transform="matrix(-1,1.2246467991473532e-16,-1.2246467991473532e-16,-1,127,31.98571428571428)" style="stroke: none; fill: rgb(153, 0, 0); stroke-width: 2;"><path d=" M13.4,-6.43 L0,0 L13.4,6.44 L8.9,0 Z"/></g></g><g class="composite-shape axis2d" style="stroke-width: 1; stroke: rgb(0, 0, 0);"><path class="real" d=" M173.33,198.75 L543.5,198.75 M179.5,6.17 L179.5,206.17"/><path d=" M536.5,193.75 L543.5,198.75 L536.5,203.75"/><path d=" M174.5,13.17 L179.5,6.17 L184.5,13.17"/></g><g class="arrow-line"><path class="connection real" stroke-dasharray="" d="  M179.4,199 L361.2,17.2" style="stroke: rgb(153, 0, 0); stroke-opacity: 1; stroke-width: 1; fill: none; fill-opacity: 1;"/></g><g class="arrow-line"><path class="connection real" stroke-dasharray="3" d="  M179.7,17.2 L361.2,17.2" style="stroke: rgb(153, 0, 0); stroke-opacity: 1; stroke-width: 1; fill: none; fill-opacity: 1;"/></g><g class="arrow-line"><path class="connection real" stroke-dasharray="3" d="  M361.2,196.45 L361.2,17.2" style="stroke: rgb(153, 0, 0); stroke-opacity: 1; stroke-width: 1; fill: none; fill-opacity: 1;"/></g><g class="composite-shape"><path class="real" d=" M179.5,208.6 Q179.5,215.6 186.5,215.6 L260.75,215.6 Q270.75,215.6 270.75,222.6 Q270.75,215.6 280.75,215.6 M277.75,215.6 L355,215.6 Q362,215.6 362,208.6" style="stroke-width: 1; stroke: rgb(0, 0, 0); fill: none; fill-opacity: 1;"/></g><g class="composite-shape"><path class="real" d=" M361.5,208.6 Q361.5,215.6 368.5,215.6 L442.75,215.6 Q452.75,215.6 452.75,222.6 Q452.75,215.6 462.75,215.6 M459.75,215.6 L537,215.6 Q544,215.6 544,208.6" style="stroke-width: 1; stroke: rgb(0, 0, 0); fill: none; fill-opacity: 1;"/></g><g class="arrow-line"><path class="connection real" stroke-dasharray="" d="  M543,60.7 L361.7,60.7" style="stroke: rgb(153, 0, 0); stroke-opacity: 1; stroke-width: 1; fill: none; fill-opacity: 1;"/></g><g/></g><g/><g><g><rect rx="0" ry="0" x="221.44998168945312" y="5.200002034505218" width="98" height="24" style="stroke: none; stroke-opacity: 1; stroke-width: 1; fill: rgb(255, 255, 255); fill-opacity: 1;"/></g><g><rect rx="0" ry="0" x="417.84999084472656" y="48.70000203450522" width="69" height="24" style="stroke: none; stroke-opacity: 1; stroke-width: 1; fill: rgb(255, 255, 255); fill-opacity: 1;"/></g><g><rect rx="0" ry="0" x="250.44998168945312" y="218" width="41" height="22" style="stroke: none; stroke-opacity: 1; stroke-width: 1; fill: none; fill-opacity: 1;"/></g><g><rect rx="0" ry="0" x="428.9499816894531" y="220.3000030517578" width="49" height="22" style="stroke: none; stroke-opacity: 1; stroke-width: 1; fill: none; fill-opacity: 1;"/></g></g><g/></svg>
        <svg xmlns="http://www.w3.org/2000/svg" xmlns:xlink="http://www.w3.org/1999/xlink" width="616" height="248.3000030517578" style="width:616px;height:248.3000030517578px;font-family:Asana-Math, Asana;background:#FFF;"><g><g><g><g><g><g><g transform="matrix(1,0,0,1,131.125,36.94999885559082)"><path transform="matrix(0.017,0,0,-0.017,0,0)" d="M286 646L392 650C454 650 494 641 495 626L503 537L527 537C530 600 537 651 548 689C526 691 498 692 481 692L440 691L275 689L246 689C221 689 181 690 143 691L94 692L91 664L147 662C171 661 182 652 182 635C182 621 178 589 173 559L98 125C81 33 81 32 40 28L4 25L0 -3L34 -2C74 -1 106 0 127 0C145 0 174 -1 213 -2L265 -3L268 25L204 28C177 29 168 37 168 57C168 63 169 74 170 78L206 301L323 301C350 301 381 300 429 298L455 297L474 342L470 349C389 345 329 343 251 343L214 343L260 614C263 630 264 635 269 646Z" stroke="rgb(153,0,0)" stroke-opacity="1" stroke-width="8" fill="rgb(153,0,0)" fill-opacity="1"></path></g></g></g></g><svg x="131.125" overflow="visible" y="13.950000762939453" height="10" width="10.287500381469727"><path d=" M 10.29 4.85 l -3.15 -3.32 l -0.49 0.52 l 1.93 2.33 h -0.15 v 0.90 h 0.15 l -1.93 2.33 l 0.49 0.52 z  M 1.68 5.23 h 8.15 v -0.90 h -8.15 z" style="fill:rgb(153,0,0);fill-opacity:1;stroke-width:1px;stroke:none;stroke-opacity:1;"></path></svg></g></g></g><g><g><g><g><g><g><g transform="matrix(1,0,0,1,8.300003051757812,47.83749961853027)"><path transform="matrix(0.017,0,0,-0.017,0,0)" d="M345 437L329 437L350 549C366 635 394 673 440 673C470 673 497 658 512 634L522 638C527 654 537 685 545 705L550 720C534 727 503 733 480 733C469 733 453 730 445 726C421 715 339 654 316 630C294 608 282 578 271 521L256 442C215 422 195 414 170 405L165 383L246 383L237 327C207 132 170 -54 148 -123C130 -182 100 -213 64 -213C41 -213 30 -206 12 -184L-2 -188C-6 -211 -20 -259 -25 -268C-16 -273 -1 -276 10 -276C51 -276 105 -245 144 -198C215 -114 235 -18 319 383L423 383C427 402 434 425 440 439L436 446C407 439 408 437 345 437Z" stroke="rgb(153,0,0)" stroke-opacity="1" stroke-width="8" fill="rgb(153,0,0)" fill-opacity="1"></path></g></g></g></g><svg x="8.300003051757812" overflow="visible" y="24.837499618530273" height="10" width="10.199999809265137"><path d=" M 10.20 4.85 l -3.15 -3.32 l -0.49 0.52 l 1.93 2.33 h -0.15 v 0.90 h 0.15 l -1.93 2.33 l 0.49 0.52 z  M 1.68 5.23 h 8.06 v -0.90 h -8.06 z" style="fill:rgb(153,0,0);fill-opacity:1;stroke-width:1px;stroke:none;stroke-opacity:1;"></path></svg></g><g><g><g><g><g transform="matrix(1,0,0,1,18.150009155273438,54.3375)"><path transform="matrix(0.0119,0,0,-0.0119,0,0)" d="M240 722L228 733C176 707 140 698 68 691L64 670L112 670C136 670 146 663 146 646C146 638 145 629 144 622L96 354C82 279 66 210 14 1L23 -9L90 8L113 132C122 180 146 225 180 259C249 59 281 -9 306 -9C319 -9 343 4 387 35L433 67L425 86L382 62C368 54 361 52 353 52C343 52 336 58 327 75C292 139 270 193 231 316L245 330C306 391 352 416 402 416C410 416 421 414 438 410L455 473C437 479 419 482 407 482C341 482 258 405 133 230Z" stroke="rgb(153,0,0)" stroke-opacity="1" stroke-width="8" fill="rgb(153,0,0)" fill-opacity="1"></path></g></g></g></g></g></g></g><g><g><g><g><g><g><g transform="matrix(1,0,0,1,32.38749694824219,92.8125)"><path transform="matrix(0.017,0,0,-0.017,0,0)" d="M582 103L237 692L75 692L70 664L105 662C150 660 184 615 185 606L92 102C80 40 74 32 38 28L7 25L2 -3L113 0C125 0 126 0 223 -3L228 25L186 28C146 31 137 39 137 72C137 80 138 91 140 102L220 566L558 -11L608 -11L702 542C723 655 725 659 762 662L799 664L802 691L589 692L584 664L631 662C657 661 667 654 667 638C667 631 584 116 582 103Z" stroke="rgb(153,0,0)" stroke-opacity="1" stroke-width="8" fill="rgb(153,0,0)" fill-opacity="1"></path></g></g></g></g><svg x="32.38749694824219" overflow="visible" y="69.8125" height="10" width="14.0625"><path d=" M 14.06 4.85 l -3.15 -3.32 l -0.49 0.52 l 1.93 2.33 h -0.15 v 0.90 h 0.15 l -1.93 2.33 l 0.49 0.52 z  M 1.68 5.23 h 11.92 v -0.90 h -11.92 z" style="fill:rgb(153,0,0);fill-opacity:1;stroke-width:1px;stroke:none;stroke-opacity:1;"></path></svg></g></g></g><g><g><g><g><g><g><g transform="matrix(1,0,0,1,89.5625,94.97500038146973)"><path transform="matrix(0.017,0,0,-0.017,0,0)" d="M167 420C188 420 201 421 226 424C171 350 72 266 72 126C72 44 107 -11 160 -11C224 -11 276 44 350 187C341 143 338 118 338 95C338 32 367 -11 412 -11C546 -11 699 238 699 384C699 441 673 482 637 482C624 482 612 478 604 470L554 423L565 404C574 410 583 413 592 413C619 413 635 390 635 350C635 205 538 39 453 39C424 39 403 79 403 134C403 181 412 247 424 290L476 474L469 482L395 460L366 311C354 249 340 209 311 155C271 80 233 39 203 39C168 39 145 78 145 136C145 255 186 352 285 464L275 482C255 473 242 470 214 470C186 470 144 472 115 475L103 476C97 477 92 477 91 477C79 477 70 475 59 470C45 443 34 407 21 352L43 352L60 394C67 411 87 422 111 422C145 422 128 420 167 420Z" stroke="rgb(153,0,0)" stroke-opacity="1" stroke-width="8" fill="rgb(153,0,0)" fill-opacity="1"></path></g></g></g></g><svg x="89.5625" overflow="visible" y="75.97500038146973" height="10" width="13.112500190734863"><path d=" M 13.11 4.85 l -3.15 -3.32 l -0.49 0.52 l 1.93 2.33 h -0.15 v 0.90 h 0.15 l -1.93 2.33 l 0.49 0.52 z  M 1.68 5.23 h 10.97 v -0.90 h -10.97 z" style="fill:rgb(153,0,0);fill-opacity:1;stroke-width:1px;stroke:none;stroke-opacity:1;"></path></svg></g></g></g><g><g><g><g transform="matrix(1,0,0,1,60.03125,39.77499961853027)"><path transform="matrix(0.017,0,0,-0.017,0,0)" d="M730 103L704 86C675 67 653 56 643 56C636 56 630 65 630 76C630 86 632 95 637 116L712 413C716 430 719 446 719 454C719 471 709 482 693 482C664 482 626 464 565 421C502 376 467 341 418 272L448 409C452 429 455 444 455 451C455 470 445 482 429 482C399 482 353 460 298 418C254 384 234 363 169 275L202 408C206 424 208 439 208 451C208 470 199 482 185 482C164 482 126 461 52 408L24 388L31 368C68 391 103 414 110 414C121 414 128 404 128 389C128 338 87 145 46 2L49 -9L117 6L139 108C163 219 190 278 245 338C287 384 332 414 360 414C367 414 371 406 371 393C371 358 349 244 308 69L292 2L297 -9L366 6L387 113C403 194 437 269 481 318C536 379 586 414 618 414C626 414 631 405 631 389C631 365 628 351 606 264C566 105 550 84 550 31C550 6 561 -9 580 -9C606 -9 642 12 740 85Z" stroke="rgb(255,255,255)" stroke-opacity="1" stroke-width="8" fill="rgb(255,255,255)" fill-opacity="1"></path></g></g></g></g><g><g><g><g transform="matrix(1,0,0,1,543.625,189.95000457763672)"><path transform="matrix(0.017,0,0,-0.017,0,0)" d="M286 646L392 650C454 650 494 641 495 626L503 537L527 537C530 600 537 651 548 689C526 691 498 692 481 692L440 691L275 689L246 689C221 689 181 690 143 691L94 692L91 664L147 662C171 661 182 652 182 635C182 621 178 589 173 559L98 125C81 33 81 32 40 28L4 25L0 -3L34 -2C74 -1 106 0 127 0C145 0 174 -1 213 -2L265 -3L268 25L204 28C177 29 168 37 168 57C168 63 169 74 170 78L206 301L323 301C350 301 381 300 429 298L455 297L474 342L470 349C389 345 329 343 251 343L214 343L260 614C263 630 264 635 269 646Z" stroke="rgb(0,0,0)" stroke-opacity="1" stroke-width="8" fill="rgb(0,0,0)" fill-opacity="1"></path></g></g></g></g><g><g><g><g transform="matrix(1,0,0,1,161.9375,24)"><path transform="matrix(0.017,0,0,-0.017,0,0)" d="M345 437L329 437L350 549C366 635 394 673 440 673C470 673 497 658 512 634L522 638C527 654 537 685 545 705L550 720C534 727 503 733 480 733C469 733 453 730 445 726C421 715 339 654 316 630C294 608 282 578 271 521L256 442C215 422 195 414 170 405L165 383L246 383L237 327C207 132 170 -54 148 -123C130 -182 100 -213 64 -213C41 -213 30 -206 12 -184L-2 -188C-6 -211 -20 -259 -25 -268C-16 -273 -1 -276 10 -276C51 -276 105 -245 144 -198C215 -114 235 -18 319 383L423 383C427 402 434 425 440 439L436 446C407 439 408 437 345 437Z" stroke="rgb(0,0,0)" stroke-opacity="1" stroke-width="8" fill="rgb(0,0,0)" fill-opacity="1"></path></g></g></g></g><g><g><g><rect x="225.33749389648438" y="6.325000762939453" width="38.525001525878906" height="18.399999618530273" fill="rgb(255,255,255)" fill-opacity="1" stroke="none"></rect><g transform="matrix(1,0,0,1,225.33749389648438,21.625000762939454)"><path transform="matrix(0.015300000000000001,0,0,-0.015300000000000001,0,0)" d="M730 103L704 86C675 67 653 56 643 56C636 56 630 65 630 76C630 86 632 95 637 116L712 413C716 430 719 446 719 454C719 471 709 482 693 482C664 482 626 464 565 421C502 376 467 341 418 272L448 409C452 429 455 444 455 451C455 470 445 482 429 482C399 482 353 460 298 418C254 384 234 363 169 275L202 408C206 424 208 439 208 451C208 470 199 482 185 482C164 482 126 461 52 408L24 388L31 368C68 391 103 414 110 414C121 414 128 404 128 389C128 338 87 145 46 2L49 -9L117 6L139 108C163 219 190 278 245 338C287 384 332 414 360 414C367 414 371 406 371 393C371 358 349 244 308 69L292 2L297 -9L366 6L387 113C403 194 437 269 481 318C536 379 586 414 618 414C626 414 631 405 631 389C631 365 628 351 606 264C566 105 550 84 550 31C550 6 561 -9 580 -9C606 -9 642 12 740 85ZM1048 204L1019 77C1015 60 1013 42 1013 26C1013 4 1022 -9 1037 -9C1060 -9 1101 17 1183 85L1176 106C1152 86 1123 59 1101 59C1092 59 1086 68 1086 82C1086 87 1086 90 1087 93L1179 472L1169 481L1136 463C1095 478 1078 482 1051 482C1023 482 1003 477 976 464C914 433 881 403 856 354C812 265 781 145 781 67C781 23 796 -11 815 -11C852 -11 932 41 1048 204ZM1096 414C1074 305 1055 253 1021 201C964 117 903 59 871 59C859 59 853 72 853 99C853 163 881 280 916 360C940 415 963 433 1011 433C1034 433 1052 429 1096 414ZM1229 1C1244 -7 1260 -11 1272 -11C1305 -11 1344 18 1375 65L1451 182L1462 113C1475 28 1498 -11 1534 -11C1556 -11 1588 6 1620 35L1669 79L1660 98C1624 68 1599 53 1583 53C1568 53 1555 63 1545 83C1536 102 1525 139 1520 168L1502 269L1537 318C1584 383 1611 406 1642 406C1658 406 1670 398 1675 383L1689 387L1704 472C1692 479 1683 482 1674 482C1634 482 1594 446 1532 354L1495 299L1489 347C1477 446 1450 482 1391 482C1365 482 1343 474 1334 461L1276 378L1293 368C1323 402 1343 416 1362 416C1395 416 1417 375 1434 277L1445 215L1405 153C1362 86 1328 54 1300 54C1285 54 1274 58 1272 63L1261 91L1241 88C1241 53 1233 27 1229 1ZM2313 437L2297 437L2318 549C2334 635 2362 673 2408 673C2438 673 2465 658 2480 634L2490 638C2495 654 2505 685 2513 705L2518 720C2502 727 2471 733 2448 733C2437 733 2421 730 2413 726C2389 715 2307 654 2284 630C2262 608 2250 578 2239 521L2224 442C2183 422 2163 414 2138 405L2133 383L2214 383L2205 327C2175 132 2138 -54 2116 -123C2098 -182 2068 -213 2032 -213C2009 -213 1998 -206 1980 -184L1966 -188C1962 -211 1948 -259 1943 -268C1952 -273 1967 -276 1978 -276C2019 -276 2073 -245 2112 -198C2183 -114 2203 -18 2287 383L2391 383C2395 402 2402 425 2408 439L2404 446C2375 439 2376 437 2313 437Z" stroke="rgb(153,0,0)" stroke-opacity="1" stroke-width="8" fill="rgb(153,0,0)" fill-opacity="1"></path></g></g><g><rect x="264.3125" y="7.125" width="4.162499904632568" height="20.149999618530273" fill="rgb(255,255,255)" fill-opacity="1" stroke="none"></rect><g><g><g><g transform="matrix(1,0,0,1,264.3125,25.134999237060548)"><path transform="matrix(0.01071,0,0,-0.01071,0,0)" d="M31 148C26 97 20 62 9 16C47 -2 81 -11 116 -11C165 -11 211 7 262 47C313 87 334 124 334 174C334 228 302 257 228 271L185 279C125 290 106 307 106 348C106 401 151 442 208 442C249 442 287 424 303 397L303 342L326 342C330 377 334 404 345 455C306 474 278 482 245 482C193 482 132 452 84 404C58 377 47 352 47 316C47 260 78 228 144 215L207 203C251 195 267 177 267 138C267 73 221 29 150 29C115 29 84 40 56 64L56 148Z" stroke="rgb(153,0,0)" stroke-opacity="1" stroke-width="8" fill="rgb(153,0,0)" fill-opacity="1"></path></g></g></g></g></g><g><rect x="269.38751220703125" y="6.325000762939453" width="19.399999618530273" height="18.399999618530273" fill="rgb(255,255,255)" fill-opacity="1" stroke="none"></rect><g transform="matrix(1,0,0,1,273.9750061035156,21.625000762939454)"><path transform="matrix(0.015300000000000001,0,0,-0.015300000000000001,0,0)" d="M604 347L604 406L65 406L65 347ZM604 134L604 193L65 193L65 134Z" stroke="rgb(153,0,0)" stroke-opacity="1" stroke-width="8" fill="rgb(153,0,0)" fill-opacity="1"></path></g></g><g><rect x="288.7875061035156" y="6.325000762939453" width="9.33750057220459" height="18.399999618530273" fill="rgb(255,255,255)" fill-opacity="1" stroke="none"></rect><g transform="matrix(1,0,0,1,288.7875061035156,21.625000762939454)"><path transform="matrix(0.015300000000000001,0,0,-0.015300000000000001,0,0)" d="M409 -15C458 -15 530 43 565 74L565 81C562 86 558 90 553 92C531 76 472 25 461 77C461 151 506 393 533 463L533 473C511 465 488 459 465 456L455 445C453 381 421 203 395 146C372 97 311 42 254 42C199 42 184 90 185 137C188 248 238 356 241 467C213 462 187 457 161 453C179 227 9 -91 53 -286C76 -285 109 -281 131 -273L131 -261C81 -173 121 -38 138 36L138 35C204 -77 344 37 395 104L395 101C387 65 354 -15 409 -15Z" stroke="rgb(153,0,0)" stroke-opacity="1" stroke-width="8" fill="rgb(153,0,0)" fill-opacity="1"></path></g></g><g><rect x="298.57501220703125" y="7.125" width="4.162499904632568" height="20.149999618530273" fill="rgb(255,255,255)" fill-opacity="1" stroke="none"></rect><g><g><g><g transform="matrix(1,0,0,1,298.57501220703125,25.134999237060548)"><path transform="matrix(0.01071,0,0,-0.01071,0,0)" d="M31 148C26 97 20 62 9 16C47 -2 81 -11 116 -11C165 -11 211 7 262 47C313 87 334 124 334 174C334 228 302 257 228 271L185 279C125 290 106 307 106 348C106 401 151 442 208 442C249 442 287 424 303 397L303 342L326 342C330 377 334 404 345 455C306 474 278 482 245 482C193 482 132 452 84 404C58 377 47 352 47 316C47 260 78 228 144 215L207 203C251 195 267 177 267 138C267 73 221 29 150 29C115 29 84 40 56 64L56 148Z" stroke="rgb(153,0,0)" stroke-opacity="1" stroke-width="8" fill="rgb(153,0,0)" fill-opacity="1"></path></g></g></g></g></g><g><rect x="303.6499938964844" y="6.325000762939453" width="11.887499809265137" height="18.399999618530273" fill="rgb(255,255,255)" fill-opacity="1" stroke="none"></rect><g transform="matrix(1,0,0,1,303.6499938964844,21.625000762939454)"><path transform="matrix(0.015300000000000001,0,0,-0.015300000000000001,0,0)" d="M582 103L237 692L75 692L70 664L105 662C150 660 184 615 185 606L92 102C80 40 74 32 38 28L7 25L2 -3L113 0C125 0 126 0 223 -3L228 25L186 28C146 31 137 39 137 72C137 80 138 91 140 102L220 566L558 -11L608 -11L702 542C723 655 725 659 762 662L799 664L802 691L589 692L584 664L631 662C657 661 667 654 667 638C667 631 584 116 582 103Z" stroke="rgb(153,0,0)" stroke-opacity="1" stroke-width="8" fill="rgb(153,0,0)" fill-opacity="1"></path></g></g></g></g><g><g><g><rect x="421.45001220703125" y="49.825000047683716" width="8.425000190734863" height="18.399999618530273" fill="rgb(255,255,255)" fill-opacity="1" stroke="none"></rect><g transform="matrix(1,0,0,1,421.45001220703125,65.12500004768371)"><path transform="matrix(0.015300000000000001,0,0,-0.015300000000000001,0,0)" d="M345 437L329 437L350 549C366 635 394 673 440 673C470 673 497 658 512 634L522 638C527 654 537 685 545 705L550 720C534 727 503 733 480 733C469 733 453 730 445 726C421 715 339 654 316 630C294 608 282 578 271 521L256 442C215 422 195 414 170 405L165 383L246 383L237 327C207 132 170 -54 148 -123C130 -182 100 -213 64 -213C41 -213 30 -206 12 -184L-2 -188C-6 -211 -20 -259 -25 -268C-16 -273 -1 -276 10 -276C51 -276 105 -245 144 -198C215 -114 235 -18 319 383L423 383C427 402 434 425 440 439L436 446C407 439 408 437 345 437Z" stroke="rgb(153,0,0)" stroke-opacity="1" stroke-width="8" fill="rgb(153,0,0)" fill-opacity="1"></path></g></g><g><rect x="430.32501220703125" y="50.625" width="5.012500286102295" height="20.149999618530273" fill="rgb(255,255,255)" fill-opacity="1" stroke="none"></rect><g><g><g><g transform="matrix(1,0,0,1,430.32501220703125,68.63500019073487)"><path transform="matrix(0.01071,0,0,-0.01071,0,0)" d="M240 722L228 733C176 707 140 698 68 691L64 670L112 670C136 670 146 663 146 646C146 638 145 629 144 622L96 354C82 279 66 210 14 1L23 -9L90 8L113 132C122 180 146 225 180 259C249 59 281 -9 306 -9C319 -9 343 4 387 35L433 67L425 86L382 62C368 54 361 52 353 52C343 52 336 58 327 75C292 139 270 193 231 316L245 330C306 391 352 416 402 416C410 416 421 414 438 410L455 473C437 479 419 482 407 482C341 482 258 405 133 230Z" stroke="rgb(153,0,0)" stroke-opacity="1" stroke-width="8" fill="rgb(153,0,0)" fill-opacity="1"></path></g></g></g></g></g><g><rect x="436.25" y="49.825000047683716" width="19.399999618530273" height="18.399999618530273" fill="rgb(255,255,255)" fill-opacity="1" stroke="none"></rect><g transform="matrix(1,0,0,1,440.8375244140625,65.12500004768371)"><path transform="matrix(0.015300000000000001,0,0,-0.015300000000000001,0,0)" d="M604 347L604 406L65 406L65 347ZM604 134L604 193L65 193L65 134Z" stroke="rgb(153,0,0)" stroke-opacity="1" stroke-width="8" fill="rgb(153,0,0)" fill-opacity="1"></path></g></g><g><rect x="455.6500244140625" y="49.825000047683716" width="9.33750057220459" height="18.399999618530273" fill="rgb(255,255,255)" fill-opacity="1" stroke="none"></rect><g transform="matrix(1,0,0,1,455.6500244140625,65.12500004768371)"><path transform="matrix(0.015300000000000001,0,0,-0.015300000000000001,0,0)" d="M409 -15C458 -15 530 43 565 74L565 81C562 86 558 90 553 92C531 76 472 25 461 77C461 151 506 393 533 463L533 473C511 465 488 459 465 456L455 445C453 381 421 203 395 146C372 97 311 42 254 42C199 42 184 90 185 137C188 248 238 356 241 467C213 462 187 457 161 453C179 227 9 -91 53 -286C76 -285 109 -281 131 -273L131 -261C81 -173 121 -38 138 36L138 35C204 -77 344 37 395 104L395 101C387 65 354 -15 409 -15Z" stroke="rgb(153,0,0)" stroke-opacity="1" stroke-width="8" fill="rgb(153,0,0)" fill-opacity="1"></path></g></g><g><rect x="465.4375" y="50.625" width="5.012500286102295" height="20.149999618530273" fill="rgb(255,255,255)" fill-opacity="1" stroke="none"></rect><g><g><g><g transform="matrix(1,0,0,1,465.4375,68.63500019073487)"><path transform="matrix(0.01071,0,0,-0.01071,0,0)" d="M240 722L228 733C176 707 140 698 68 691L64 670L112 670C136 670 146 663 146 646C146 638 145 629 144 622L96 354C82 279 66 210 14 1L23 -9L90 8L113 132C122 180 146 225 180 259C249 59 281 -9 306 -9C319 -9 343 4 387 35L433 67L425 86L382 62C368 54 361 52 353 52C343 52 336 58 327 75C292 139 270 193 231 316L245 330C306 391 352 416 402 416C410 416 421 414 438 410L455 473C437 479 419 482 407 482C341 482 258 405 133 230Z" stroke="rgb(153,0,0)" stroke-opacity="1" stroke-width="8" fill="rgb(153,0,0)" fill-opacity="1"></path></g></g></g></g></g><g><rect x="471.36248779296875" y="49.825000047683716" width="11.887499809265137" height="18.399999618530273" fill="rgb(255,255,255)" fill-opacity="1" stroke="none"></rect><g transform="matrix(1,0,0,1,471.36248779296875,65.12500004768371)"><path transform="matrix(0.015300000000000001,0,0,-0.015300000000000001,0,0)" d="M582 103L237 692L75 692L70 664L105 662C150 660 184 615 185 606L92 102C80 40 74 32 38 28L7 25L2 -3L113 0C125 0 126 0 223 -3L228 25L186 28C146 31 137 39 137 72C137 80 138 91 140 102L220 566L558 -11L608 -11L702 542C723 655 725 659 762 662L799 664L802 691L589 692L584 664L631 662C657 661 667 654 667 638C667 631 584 116 582 103Z" stroke="rgb(153,0,0)" stroke-opacity="1" stroke-width="8" fill="rgb(153,0,0)" fill-opacity="1"></path></g></g></g></g><g><g><g><g transform="matrix(1,0,0,1,254.27499389648438,234.32500915527345)"><path transform="matrix(0.015300000000000001,0,0,-0.015300000000000001,0,0)" d="M31 148C26 97 20 62 9 16C47 -2 81 -11 116 -11C165 -11 211 7 262 47C313 87 334 124 334 174C334 228 302 257 228 271L185 279C125 290 106 307 106 348C106 401 151 442 208 442C249 442 287 424 303 397L303 342L326 342C330 377 334 404 345 455C306 474 278 482 245 482C193 482 132 452 84 404C58 377 47 352 47 316C47 260 78 228 144 215L207 203C251 195 267 177 267 138C267 73 221 29 150 29C115 29 84 40 56 64L56 148ZM513 390L457 107C456 99 444 61 444 31C444 6 455 -9 474 -9C509 -9 544 11 622 74L653 99L643 117L598 86C569 66 549 56 538 56C529 56 524 64 524 76C524 102 538 183 567 328L580 390L687 390L698 440C660 436 626 434 588 434C604 528 615 577 633 631L622 646C602 634 575 622 544 610L519 440C475 419 449 408 431 403L429 390ZM991 204L962 77C958 60 956 42 956 26C956 4 965 -9 980 -9C1003 -9 1044 17 1126 85L1119 106C1095 86 1066 59 1044 59C1035 59 1029 68 1029 82C1029 87 1029 90 1030 93L1122 472L1112 481L1079 463C1038 478 1021 482 994 482C966 482 946 477 919 464C857 433 824 403 799 354C755 265 724 145 724 67C724 23 739 -11 758 -11C795 -11 875 41 991 204ZM1039 414C1017 305 998 253 964 201C907 117 846 59 814 59C802 59 796 72 796 99C796 163 824 280 859 360C883 415 906 433 954 433C977 433 995 429 1039 414ZM1288 390L1232 107C1231 99 1219 61 1219 31C1219 6 1230 -9 1249 -9C1284 -9 1319 11 1397 74L1428 99L1418 117L1373 86C1344 66 1324 56 1313 56C1304 56 1299 64 1299 76C1299 102 1313 183 1342 328L1355 390L1462 390L1473 440C1435 436 1401 434 1363 434C1379 528 1390 577 1408 631L1397 646C1377 634 1350 622 1319 610L1294 440C1250 419 1224 408 1206 403L1204 390ZM1529 388L1536 368L1568 389C1605 412 1608 414 1615 414C1625 414 1633 404 1633 391C1633 384 1629 361 1625 347L1559 107C1551 76 1546 49 1546 30C1546 6 1557 -9 1576 -9C1602 -9 1638 12 1736 85L1726 103L1700 86C1671 67 1648 56 1639 56C1632 56 1626 66 1626 76C1626 86 1628 95 1633 116L1710 420C1714 437 1716 448 1716 456C1716 473 1707 482 1691 482C1669 482 1632 461 1557 408ZM1723 712C1694 712 1665 679 1665 645C1665 620 1680 604 1704 604C1735 604 1759 633 1759 671C1759 695 1744 712 1723 712ZM2114 330L2137 330C2145 395 2152 432 2161 458C2137 473 2102 482 2065 482C2020 483 1947 463 1890 400C1836 352 1797 241 1797 136C1797 40 1839 -11 1919 -11C1973 -11 2021 9 2076 54L2126 95L2118 115L2103 105C2031 57 1993 40 1958 40C1902 40 1873 80 1873 159C1873 267 1908 371 1957 409C1978 425 2002 433 2033 433C2078 433 2114 414 2114 390Z" stroke="rgb(0,0,0)" stroke-opacity="1" stroke-width="8" fill="rgb(0,0,0)" fill-opacity="1"></path></g></g></g></g><g><g><g><g transform="matrix(1,0,0,1,432.7750244140625,236.6249969482422)"><path transform="matrix(0.015300000000000001,0,0,-0.015300000000000001,0,0)" d="M240 722L228 733C176 707 140 698 68 691L64 670L112 670C136 670 146 663 146 646C146 638 145 629 144 622L96 354C82 279 66 210 14 1L23 -9L90 8L113 132C122 180 146 225 180 259C249 59 281 -9 306 -9C319 -9 343 4 387 35L433 67L425 86L382 62C368 54 361 52 353 52C343 52 336 58 327 75C292 139 270 193 231 316L245 330C306 391 352 416 402 416C410 416 421 414 438 410L455 473C437 479 419 482 407 482C341 482 258 405 133 230ZM502 388L509 368L541 389C578 412 581 414 588 414C598 414 606 404 606 391C606 384 602 361 598 347L532 107C524 76 519 49 519 30C519 6 530 -9 549 -9C575 -9 611 12 709 85L699 103L673 86C644 67 621 56 612 56C605 56 599 66 599 76C599 86 601 95 606 116L683 420C687 437 689 448 689 456C689 473 680 482 664 482C642 482 605 461 530 408ZM696 712C667 712 638 679 638 645C638 620 653 604 677 604C708 604 732 633 732 671C732 695 717 712 696 712ZM769 388L776 368L808 389C845 412 848 414 855 414C866 414 873 404 873 389C873 338 832 145 791 2L798 -9C823 -2 846 4 868 8C887 134 908 199 954 268C1008 352 1083 414 1128 414C1139 414 1145 405 1145 390C1145 372 1142 351 1134 319L1082 107C1073 70 1069 47 1069 31C1069 6 1080 -9 1099 -9C1125 -9 1161 12 1259 85L1249 103L1223 86C1194 67 1172 56 1162 56C1155 56 1149 65 1149 76C1149 81 1150 92 1151 96L1217 372C1224 401 1228 429 1228 446C1228 469 1217 482 1197 482C1155 482 1086 444 1027 389C989 354 961 320 909 247L947 408C951 426 953 438 953 449C953 470 945 482 930 482C909 482 870 460 797 408ZM1628 111L1604 94C1551 56 1503 36 1467 36C1420 36 1391 73 1391 133C1391 158 1394 185 1399 214C1416 218 1525 248 1550 259C1635 296 1674 342 1674 404C1674 451 1640 482 1590 482C1522 496 1412 423 1375 349C1345 299 1315 180 1315 113C1315 35 1359 -11 1431 -11C1488 -11 1544 17 1636 92ZM1413 274C1430 343 1450 386 1479 412C1497 428 1528 440 1552 440C1581 440 1600 420 1600 388C1600 344 1565 297 1513 272C1485 258 1449 247 1404 237ZM1813 390L1757 107C1756 99 1744 61 1744 31C1744 6 1755 -9 1774 -9C1809 -9 1844 11 1922 74L1953 99L1943 117L1898 86C1869 66 1849 56 1838 56C1829 56 1824 64 1824 76C1824 102 1838 183 1867 328L1880 390L1987 390L1998 440C1960 436 1926 434 1888 434C1904 528 1915 577 1933 631L1922 646C1902 634 1875 622 1844 610L1819 440C1775 419 1749 408 1731 403L1729 390ZM2054 388L2061 368L2093 389C2130 412 2133 414 2140 414C2150 414 2158 404 2158 391C2158 384 2154 361 2150 347L2084 107C2076 76 2071 49 2071 30C2071 6 2082 -9 2101 -9C2127 -9 2163 12 2261 85L2251 103L2225 86C2196 67 2173 56 2164 56C2157 56 2151 66 2151 76C2151 86 2153 95 2158 116L2235 420C2239 437 2241 448 2241 456C2241 473 2232 482 2216 482C2194 482 2157 461 2082 408ZM2248 712C2219 712 2190 679 2190 645C2190 620 2205 604 2229 604C2260 604 2284 633 2284 671C2284 695 2269 712 2248 712ZM2639 330L2662 330C2670 395 2677 432 2686 458C2662 473 2627 482 2590 482C2545 483 2472 463 2415 400C2361 352 2322 241 2322 136C2322 40 2364 -11 2444 -11C2498 -11 2546 9 2601 54L2651 95L2643 115L2628 105C2556 57 2518 40 2483 40C2427 40 2398 80 2398 159C2398 267 2433 371 2482 409C2503 425 2527 433 2558 433C2603 433 2639 414 2639 390Z" stroke="rgb(0,0,0)" stroke-opacity="1" stroke-width="8" fill="rgb(0,0,0)" fill-opacity="1"></path></g></g></g></g></svg>
</svg>
