<svg xmlns="http://www.w3.org/2000/svg" width="182.6" height="112.15" style="width:182.6px;height:112.15px;background:0 0;fill:none"><svg xmlns="http://www.w3.org/2000/svg"/><svg xmlns="http://www.w3.org/2000/svg" class="role-diagram-draw-area"><g class="shapes-region" style="stroke:#000;fill:none"><g class="composite-shape"><path d="m11.69 8.19 160.06 91.47H11.69Z" class="real" style="stroke-width:1;stroke:#000;fill:none;fill-opacity:1"/></g><g class="composite-shape"><path stroke="none" d="M146.75 99.66c0-4.56 1.22-8.83 3.35-12.5l21.65 12.5Z" class="real" style="stroke-width:1;stroke:none;stroke-opacity:1;fill:none;fill-opacity:1"/><path d="M146.75 99.66c0-4.56 1.22-8.83 3.35-12.5" class="real" style="stroke-width:1;stroke:#900;stroke-opacity:1;fill:none;fill-opacity:1"/></g><g class="arrow-line"><path d="M57.45 32.97 31.17 86.36" class="connection real" style="stroke:#900;stroke-opacity:1;stroke-width:1;fill:none;fill-opacity:1"/></g><g class="arrow-line"><path d="m31.17 86.36 26.28 13.43" class="connection real" style="stroke:#900;stroke-opacity:1;stroke-width:1;fill:none;fill-opacity:1"/></g><g class="arrow-line"><path d="M57.45 32.97v66.82" class="connection real" style="stroke:#900;stroke-opacity:1;stroke-width:1;fill:none;fill-opacity:1"/></g><g class="composite-shape"><path d="m33.69 81.51 4.79 2.48-2.51 4.86-4.8-2.49Z" class="real" style="stroke-width:1;stroke:#000;stroke-opacity:1;fill:none;fill-opacity:1"/></g><g class="composite-shape"><path d="M58.12 91.71H65v6.97h-6.88Z" class="real" style="stroke-width:1;stroke:#900;stroke-opacity:1;fill:none;fill-opacity:1"/></g><g class="composite-shape"><path d="m50.03 30.9 6.05 3.28-3.31 6.13-6.06-3.27Z" class="real" style="stroke-width:1;stroke:#000;stroke-opacity:1;fill:none;fill-opacity:1"/></g><g class="composite-shape"><path d="m58.7 11 16.79 9.79-10.02 17.2-16.79-9.79Z" class="real" style="stroke-width:1;stroke:#900;stroke-opacity:1;fill:#900;fill-opacity:.5"/></g><g class="composite-shape"><path stroke="none" d="M56.65 57.96c-3.44-.11-6.7-.91-9.66-2.28l10.46-22.71Z" class="real" style="stroke-width:1;stroke:none;stroke-opacity:1;fill:none;fill-opacity:1"/><path d="M56.65 57.96c-3.44-.11-6.7-.91-9.66-2.28" class="real" style="stroke-width:1;stroke:#000;stroke-opacity:1;fill:none;fill-opacity:1"/></g></g></svg><svg xmlns="http://www.w3.org/2000/svg" xmlns:xlink="http://www.w3.org/1999/xlink" width="181" height="110.55" style="width:181px;height:110.55000000000018px;font-family:Asana-Math,Asana;background:0 0"><path fill="#900" stroke="#900" stroke-width=".109" d="M143.04 89.696c-.246-1.55-.871-2.693-2.598-2.693-3.536 0-4.026 3.944-3.564 6.84.259 1.619.952 2.925 2.802 2.925 3.21 0 3.754-4.516 3.36-7.072Zm-.94 1.672h-4.297c.095-1.414.694-4.012 2.448-4.012 1.17 0 1.619 1.238 1.768 2.163.095.612.082 1.237.082 1.85Zm0 .436c-.067 1.523-.326 4.57-2.27 4.57-1.388 0-1.768-1.524-1.932-2.585-.108-.666-.095-1.333-.095-1.985ZM69.237 46.81c-.163-1.088-.789-1.918-1.972-1.918-1.156 0-2.353.939-2.706 2.054-.259.83-.15 3.21-.123 4.148-1.319-.327-1.917-1.347-2.108-2.57-.299-1.864.544-3.074 2.217-3.564l.055-.095-.096-.136c-1.972.313-3.644 1.66-3.29 3.862.271 1.741 1.59 2.584 3.25 2.816.054 1.196-.028 2.393-.068 3.576l.15.11c.285-.15.57-.26.856-.354l-.15-3.36c2.516-.054 4.393-1.985 3.985-4.57Zm-.925.204c.354 2.19-.952 3.876-3.087 4.107l.027-2.217c.014-1.21-.054-3.563 1.592-3.563.952 0 1.346.884 1.468 1.673Z"/><path fill="#000" stroke="#000" stroke-width=".109" d="M46.247 68.311c.204.11.422.164.585.164.449 0 .98-.395 1.401-1.034l1.034-1.591.15.938c.176 1.156.489 1.687.978 1.687.3 0 .735-.232 1.17-.626l.666-.598-.122-.259c-.49.408-.83.612-1.047.612-.204 0-.381-.136-.517-.408-.122-.258-.272-.761-.34-1.156l-.245-1.373.476-.667c.64-.884 1.007-1.197 1.428-1.197.218 0 .381.11.449.313l.19-.054.204-1.156c-.163-.095-.285-.136-.408-.136-.544 0-1.088.49-1.93 1.74l-.504.749-.082-.653c-.163-1.347-.53-1.836-1.332-1.836-.354 0-.653.109-.776.285l-.788 1.13.23.135c.409-.462.68-.653.94-.653.448 0 .747.558.978 1.89l.15.844-.544.843c-.585.911-1.047 1.347-1.428 1.347-.204 0-.354-.055-.38-.123l-.15-.38-.272.04c0 .476-.11.83-.164 1.183Z"/></svg></svg>