<svg xmlns="http://www.w3.org/2000/svg" width="387.6" height="149.1" style="width:387.6px;height:149.05px;background:#fff;fill:none"><svg xmlns="http://www.w3.org/2000/svg"/><svg xmlns="http://www.w3.org/2000/svg" class="role-diagram-draw-area" style="overflow:visible"><g class="shapes-region" style="stroke:#000;fill:none"><g class="arrow-line"><path d="m266.8 78 .8 40" class="connection real" style="stroke:#900;stroke-opacity:1;stroke-width:1;fill:none;fill-opacity:1"/><path fill="#900" stroke="none" d="M10.7-5.1 0 0l10.7 5.2L7.1 0Z" style="stroke:none;stroke-width:1;fill:#900" transform="rotate(-91.1 193.1 -70.8)"/></g><g class="composite-shape"><defs><pattern id="_pgfpgbpfut7rdg-full-view" width="11.3" height="11.3" x="0" y="0" patternTransform="rotate(45 0 0)" patternUnits="userSpaceOnUse"><path d="M0 0v11.3M5.7 0v11.3M11.3 0v11.3" style="stroke:#eee;stroke-opacity:1;stroke-width:1;fill:none"/></pattern></defs><path d="M-17.5 59.9h119v90.7h-119Z" class="real" style="stroke-width:1;stroke:#000;fill:url(#_pgfpgbpfut7rdg-full-view);fill-opacity:1"/></g><g class="composite-shape"><path d="m50.2 23 37.7.2-.2 36.9-37.7-.2Z" class="real" style="stroke-width:1;stroke:#900;stroke-opacity:1;fill:#900;fill-opacity:.5"/></g><g class="composite-shape"><path stroke="none" d="M159 43q-1.8.7-3.6.7V34Z" class="real" style="stroke-width:1;stroke:none;stroke-opacity:1;fill:none;fill-opacity:1"/><path d="M159 43q-1.8.7-3.6.7" class="real" style="stroke-width:1;stroke:#000;stroke-opacity:1;fill:none;fill-opacity:1"/></g><g class="arrow-line"><path d="m155.5 34 15.3 40" class="connection real" style="stroke:#900;stroke-opacity:1;stroke-width:1;fill:none;fill-opacity:1"/><path fill="#900" stroke="none" d="M10.7-5.1 0 0l10.7 5.2L7.1 0Z" style="stroke:none;fill:#900;stroke-width:1" transform="rotate(249.1 112.4 -20.7)"/></g><g class="arrow-line"><path d="m69 62.8.8 40" class="connection real" style="stroke:#900;stroke-opacity:1;stroke-width:1;fill:none;fill-opacity:1"/><path fill="#900" stroke="none" d="M10.7-5.1 0 0l10.7 5.2L7.1 0Z" style="stroke:none;fill:#900;stroke-width:1" transform="rotate(88.9 4 65)"/></g><g class="arrow-line"><path d="M37.4 59.9H50" class="connection real" style="stroke:#900;stroke-opacity:1;stroke-width:1;fill:none;fill-opacity:1"/><path fill="#900" stroke="none" d="M10.7-5.1 0 0l10.7 5.2L7.1 0Z" style="stroke:none;fill:#900;stroke-width:1" transform="translate(34.4 59.9)"/></g><g class="arrow-line"><path d="m266.8 78 15.3 40.2" class="connection real" style="stroke:#900;stroke-opacity:.5;stroke-width:1;fill:none;fill-opacity:1"/><path fill="#900" fill-opacity=".5" stroke="none" d="M10.7-5.1 0 0l10.7 5.2L7.1 0Z" style="stroke:none;fill:#900;stroke-width:1" transform="rotate(249.1 183.2 -37)"/><path stroke="#900" stroke-opacity=".5" d="M-5.6 0H5.6M0 5.6V-5.6" style="stroke:#900;stroke-width:1" transform="rotate(114.1 105.3 138.9)"/></g><g class="arrow-line"><path d="m266 38 .8 40" class="connection real" style="stroke:#900;stroke-opacity:1;stroke-width:1;fill:none;fill-opacity:1"/><path fill="#900" stroke="none" d="M10.7-5.1 0 0l10.7 5.2L7.1 0Z" style="stroke:none;fill:#900;stroke-width:1" transform="rotate(88.9 115.1 153.1)"/></g><g class="arrow-line"><path d="M254.2 78h12.6" class="connection real" style="stroke:#900;stroke-opacity:1;stroke-width:1;fill:none;fill-opacity:1"/><path fill="#900" stroke="none" d="M10.7-5.1 0 0l10.7 5.2L7.1 0Z" style="stroke:none;fill:#900;stroke-width:1" transform="translate(251.2 78)"/></g><g class="composite-shape"><path d="M265.8 78.4q-.4-1 .6-1.5 1-.3 1.5.7.3 1-.7 1.4t-1.4-.6Z" class="real" style="stroke-width:1;stroke:#000;fill:#000;fill-opacity:1"/></g><g class="arrow-line"><path d="m343.5 140.6 21.5-8" class="connection real" style="stroke:#000;stroke-width:1;fill:none;fill-opacity:1"/><path fill="#000" stroke="none" d="M9-4.3 0 0l9 4.3Z" style="stroke:none;fill:#000;stroke-width:1" transform="rotate(159.6 172 99)"/></g><g class="arrow-line"><path d="m343.5 140.6-8.6-23" class="connection real" style="stroke:#000;stroke-width:1;fill:none;fill-opacity:1"/><path fill="#000" stroke="none" d="M9-4.3 0 0l9 4.3Z" style="stroke:none;fill:#000;stroke-width:1" transform="rotate(69.6 84.3 297.8)"/></g><g class="arrow-line"><path stroke-dasharray="3" d="m155.5 34 .8 40.9" class="connection real" style="stroke:#900;stroke-opacity:1;stroke-width:1;fill:none;fill-opacity:1"/><path stroke="#900" d="M11-3.3Q5-.5 0 0q5 .5 11 3.3" style="stroke:#900;stroke-width:1" transform="rotate(-91.1 115.8 -38.2)"/></g><g class="arrow-line"><path stroke-dasharray="3" d="M156.3 76.9h13.6" class="connection real" style="stroke:#900;stroke-opacity:1;stroke-width:1;fill:none;fill-opacity:1"/><path stroke="#900" d="M11-3.3Q5-.5 0 0q5 .5 11 3.3" style="stroke:#900;stroke-width:1" transform="matrix(-1 0 0 -1 171.9 76.9)"/></g><g class="arrow-line"><path d="M184.5 38c-27-14.6 6.7 29.8-25.3 7.1" class="connection real" style="stroke:#000;stroke-width:1;fill:none;fill-opacity:1"/><path d="M11-3.3Q5-.5 0 0q5 .5 11 3.3" style="stroke:#000;stroke-width:1" transform="rotate(36 11.1 264.4)"/></g><g class="arrow-line"><path d="M266.8 78h12.6" class="connection real" style="stroke:#900;stroke-opacity:1;stroke-width:1;fill:none;fill-opacity:1"/><path fill="#900" stroke="none" d="M10.7-5.1 0 0l10.7 5.2L7.1 0Z" style="stroke:none;stroke-width:1;fill:#900" transform="matrix(-1 0 0 -1 282.4 78)"/></g><g class="arrow-line"><path d="m73 59.4 15.3 40.2" class="connection real" style="stroke:#900;stroke-opacity:1;stroke-width:1;fill:none;fill-opacity:1"/><path fill="#900" stroke="none" d="M10.7-5.1 0 0l10.7 5.2L7.1 0Z" style="stroke:none;fill:#900;stroke-width:1" transform="rotate(249.1 80 20.4)"/></g></g></svg><svg xmlns="http://www.w3.org/2000/svg" xmlns:xlink="http://www.w3.org/1999/xlink" width="386" height="147.4" style="width:386px;height:147.45px;font-family:Asana-Math,Asana;background:#fff"><path fill="#fff" stroke="#fff" stroke-width=".1" d="m74.7 46.6-.4.3-1 .5q-.3 0-.3-.3l.1-.7 1.3-5 .1-.8q0-.4-.4-.4-.6 0-2.2 1-1.3 1-2.5 2.5l.5-2.3.2-.7q0-.5-.5-.5-.8 0-2.2 1c-.8.6-1.1 1-2.2 2.5l.6-2.3v-.7q0-.5-.3-.5-.5 0-2.3 1.2l-.5.4.1.3 1.4-.8q.3 0 .3.4c0 1-.7 4.2-1.4 6.6v.2l1.2-.2.4-1.8c.4-1.9.8-2.9 1.8-3.9q1.2-1.2 2-1.3l.1.4q0 1-1 5.5l-.3 1.1v.2l1.2-.2.4-1.9q.4-2 1.6-3.4 1.5-1.6 2.3-1.7.3 0 .2.4c0 .5 0 .7-.4 2.2-.7 2.7-1 3-1 4q0 .6.6.6c.4 0 1-.3 2.7-1.6Z"/><path fill="#000" stroke="#000" stroke-width=".1" d="M193.4 36q-.1-2.6-2.6-2.7c-3.5 0-4 4-3.5 6.8.2 1.6 1 3 2.8 3 3.2 0 3.7-4.6 3.3-7.1Zm-1 1.6h-4.2c0-1.4.7-4 2.4-4 1.2 0 1.7 1.3 1.8 2.2zm0 .5c0 1.5-.2 4.5-2.2 4.5-1.4 0-1.8-1.5-2-2.5v-2Z"/><path fill="#900" stroke="#900" stroke-width=".1" d="m58 105.1-5.9-10h-2.7l-.1.5h.6c.7 0 1.3.8 1.3 1l-1.5 8.5q-.3 1.3-1 1.3h-.5v.5h3.7v-.5h-.7q-.9 0-.8-.8v-.5l1.4-7.9 5.8 9.8h.8l1.6-9.4c.4-1.9.4-2 1-2h.7V95h-3.6v.5h.7q.7 0 .6.4z"/><svg width="14.1" height="10" x="48.1" y="83.9" overflow="visible"><path d="m14 4.9-3-3.4-.6.5 2 2.4h-.2v.9h.2l-2 2.3.5.5zm-12.3.3h11.9v-.9h-12z" style="fill:#900;fill-opacity:1;stroke-width:1px;stroke:none;stroke-opacity:1"/></svg><path fill="#900" stroke="#900" stroke-width=".1" d="M24 41.5h-.3l.4-1.9q.4-2 1.5-2 .8 0 1.2.6h.2l.4-1.2v-.3l-1.1-.2-.6.1c-.4.2-1.8 1.2-2.2 1.7q-.6.4-.8 1.8l-.2 1.3-1.5.7v.4h1.3l-.1.9-1.5 7.7q-.6 1.5-1.5 1.5-.5 0-.9-.5h-.2l-.4 1.4.6.2q1.2-.1 2.3-1.4c1.2-1.4 1.5-3 3-9.8h1.7l.3-1v-.1z"/><svg width="10.2" height="10" x="18.1" y="26" overflow="visible"><path d="M10.2 4.9 7.1 1.4l-.5.5 1.9 2.4h-.2v.9h.2l-2 2.3.5.5zm-8.5.3h8v-.9h-8z" style="fill:#900;fill-opacity:1;stroke-width:1px;stroke:none;stroke-opacity:1"/></svg><path fill="#900" stroke="#900" stroke-width=".1" d="m28.4 53.7-.3 1.6q.7.3 1.3.3.9 0 1.7-.7.9-.7.9-1.5 0-1-1.3-1.2h-.5q-1-.2-1-.9.1-1 1.3-1.1.8 0 1 .5v.7h.4L32 50l-1.2-.3a3 3 0 0 0-2 1q-.4.4-.4 1 0 1 1.2 1.2l.8.1q.7.2.7.8-.1 1.2-1.4 1.3-.6 0-1.1-.4v-1Zm252-13.7-5.9-10.1h-2.7l-.1.5h.6c.7 0 1.3.8 1.3 1l-1.6 8.5q-.2 1.3-.9 1.3h-.5v.5h3.7v-.5h-.7q-.9 0-.8-.8V40l1.4-7.9 5.8 9.8h.8l1.6-9.4c.4-1.9.4-2 1-2h.7V30h-3.6l-.1.5h.8q.6 0 .6.4z"/><svg width="14.1" height="10" x="270.5" y="18.7" overflow="visible"><path d="m14 4.9-3-3.4-.6.5 2 2.4h-.2v.9h.2l-2 2.3.5.5zm-12.3.3h11.9v-.9h-12z" style="fill:#900;fill-opacity:1;stroke-width:1px;stroke:none;stroke-opacity:1"/></svg><path fill="#900" stroke="#900" stroke-width=".1" d="M243.2 60h-.3l.4-1.8q.3-2.2 1.5-2.1.8 0 1.2.6h.2l.4-1.2v-.2l-1.1-.2h-.6l-2.2 1.7q-.6.5-.8 1.9l-.2 1.3-1.5.6v.4h1.3l-.1 1c-.6 3.3-1.2 6.4-1.6 7.6q-.5 1.5-1.4 1.5-.5.1-.9-.5l-.2.1-.4 1.4.6.1q1.1 0 2.3-1.3c1.2-1.4 1.5-3 3-9.9h1.7l.3-1z"/><svg width="10.2" height="10" x="237.3" y="44.5" overflow="visible"><path d="M10.2 4.9 7.1 1.4l-.5.5 1.9 2.4h-.2v.9h.2l-2 2.3.5.5zm-8.5.3h8v-.9h-8z" style="fill:#900;fill-opacity:1;stroke-width:1px;stroke:none;stroke-opacity:1"/></svg><path fill="#900" stroke="#900" stroke-width=".1" d="M247.5 72.3q0 .8-.2 1.5.6.3 1.3.3t1.7-.6q.9-.7.8-1.6t-1.2-1.1l-.5-.1q-1-.1-1-.8.1-1 1.3-1.1.7 0 1 .5v.6h.4l.2-1.3-1.2-.3a3 3 0 0 0-2 .9q-.3.4-.4 1 0 1 1.2 1.3l.7.1q.9 0 .8.8-.1 1.2-1.4 1.3-.7 0-1.2-.4v-1Z"/><path fill="#000" stroke="#000" stroke-width=".1" d="M327.1 111.3q.1 1 1.4 1.2c1 0 1.5-.9 1.9-1.7l2.6-6.4c.4-1 1.2-1 1.4-1v-.5H332v.5q.7 0 .7.7v.3l-1.6 3.7-1.7-4v-.3q.2-.5.8-.4v-.5H327v.5q1-.1 1.2.5l2.3 5.5-.4.9c-.3.8-.8 1.9-1.7 1.9l-.7-.3q.6-.2.6-.6 0-.7-.7-.7-.5 0-.6.7Zm43.3 22.7h2.7v-.5q-.5 0-.5-.5t1.4-1.9l1.1 1.5.3.5q0 .3-.5.4v.5h3v-.5q-1 .1-1.4-.5l-2-2.6 1.4-1.7q.7-.7 1.8-.7v-.5H375v.5q.4 0 .4.4l-.2.6-1 1.1-1-1.5-.2-.3q0-.3.5-.3v-.5h-3v.5c1 0 1 0 1.7.9l1.5 2-1.4 1.7c-.7.9-1.6.9-2 .9Z"/><path fill="#900" stroke="#900" stroke-width=".1" d="m116.9 94 1-.2c-1 1.3-2.6 2.7-2.6 5.1q0 2.2 1.5 2.3 1.4.1 3.2-3.3l-.2 1.5q0 1.7 1.2 1.8c2.3 0 5-4.2 5-6.7q-.1-1.5-1.1-1.6-.4 0-.6.2l-.8.8.1.3.5-.2q.7 0 .7 1.1c0 2.5-1.6 5.3-3 5.3q-1-.1-1-1.6c0-.8.2-2 .4-2.7l1-3.1-.2-.1-1.2.3-.5 2.6q-.3 1.4-1 2.6-1 2-1.8 2-1-.1-1-1.7a8 8 0 0 1 2.4-5.5l-.2-.3-1 .2-1.7-.1h-1l-.6 2h.4l.3-.6q.1-.5.8-.5zm10.1 10 .4.2q.7 0 1.2-1l1-1.3v.8q.3 1.5 1 1.5.3 0 1-.6l.5-.5v-.2q-.7.6-1 .5t-.4-.3l-.3-1-.2-1.2.4-.6q.8-1.1 1.2-1 .4 0 .4.2h.2l.2-1-.4-.2q-.7 0-1.7 1.5l-.4.7-.1-.6q-.1-1.6-1.2-1.6-.4 0-.6.3l-.7 1h.2q.5-.5.8-.5.6 0 .8 1.7l.2.7-.5.7q-.8 1.2-1.2 1.2h-.4l-.1-.4h-.3zm22.1-8.8v-1H140v1Zm0 3.6v-1H140v1Zm9.1-4.8 1-.2c-1 1.3-2.7 2.7-2.7 5.1q0 2.2 1.5 2.3t3.3-3.3l-.2 1.5q0 1.7 1.2 1.8c2.3 0 4.9-4.2 4.9-6.7q0-1.5-1-1.6-.5 0-.6.2l-.9.8.2.3.5-.2q.6 0 .7 1.1c0 2.5-1.6 5.3-3 5.3q-1-.1-1-1.6c0-.8.2-2 .4-2.7l.9-3.1-.1-.1-1.3.3-.5 2.6q-.2 1.4-.9 2.6-1 2-1.8 2-1-.1-1-1.7a8 8 0 0 1 2.4-5.5l-.2-.3-1 .2-1.7-.1h-1l-.6 2h.3l.3-.6q.3-.5.9-.5zm14.3 4.6c0 1.2 0 1.7-.2 2.4a7 7 0 0 0 2.4.4c2.2 0 3.8-1.2 3.8-2.9 0-3-4.9-1.3-4.9-3.5q0-1.4 1.7-1.4 1.8.1 2 1.4v.4h.4l.1-1.9q-1.2-.4-2.2-.4-3.1.2-3.2 2.4 0 1.3 1.2 1.8c2 .9 3.6.4 3.6 1.9q-.1 1.5-2 1.6-2 0-2.2-1.5v-.7Zm9.7-5.5h-.2q-1.2.5-2.6.7v.5h.6c.7 0 .8 0 .8 1.2v3.8q.2 1.3-.7 1.2h-.7v.6h4.2v-.5h-.8q-.7.2-.6-1.3Zm-.8-3.7a1 1 0 0 0-1 1q.1.8 1 .9.9-.1 1-1-.1-.9-1-1ZM191 101h2.8v-.5h-.7q-.8.2-.7-1.3V96q0-3-2.8-3-.8 0-1.4.5l-1.2 1.1v-1.5h-.2q-1.3.5-2.6.7v.5h.6c.7 0 .7 0 .7 1.2v3.8q.2 1.3-.6 1.2h-.8v.6h4.3v-.5h-.8q-.7.2-.6-1.3v-3.6c0-.8 1-1.6 2.1-1.6q1.8.1 1.9 2.2Zm5.3-4.5c0-4.4 1.6-6.2 2.6-7.3l-.3-.5c-1 .9-3.8 3.1-3.8 7.8a11 11 0 0 0 3.8 8.2l.3-.4c-.8-1-2.6-3-2.6-7.8Zm12.5-4c-.3-2-1.1-3.4-3.3-3.4-4.4 0-5 5-4.4 8.6.3 2 1.2 3.6 3.5 3.6 4 0 4.7-5.6 4.2-8.8Zm-1.2 2h-5.4c.1-1.7.9-5 3-5 1.5 0 2.1 1.6 2.3 2.8zm0 .6c-.1 2-.4 5.7-2.9 5.7-1.7 0-2.2-1.9-2.4-3.2v-2.5Zm3.2-6.4-.4.5c1 1 2.7 3 2.7 7.3 0 4.7-1.8 6.8-2.7 7.8l.4.4c.9-.8 3.7-3.3 3.7-8.2 0-4.7-2.8-7-3.7-7.8Zm-93.5 25.1h1c-1 1.2-2.7 2.7-2.7 5q0 2.3 1.5 2.4t3.3-3.4l-.2 1.6q0 1.7 1.2 1.8c2.3 0 4.9-4.3 4.9-6.7q0-1.6-1-1.7-.4 0-.6.2l-.9.8.2.3.5-.1q.7 0 .7 1c0 2.5-1.6 5.3-3 5.3q-1-.1-1-1.6c0-.8.2-2 .4-2.6l.9-3.2-.1-.1-1.3.4-.5 2.5q-.2 1.3-.9 2.7-1 1.9-1.8 2-1-.1-1-1.7a8 8 0 0 1 2.4-5.6l-.2-.3-1 .2h-1.7l-.2-.1h-.2l-.6.1-.6 2h.3l.3-.7q.3-.5.9-.5zm9.7 12.3v.3q.1.8 1 .9 2.1-.2 3.3-3.7l1.7-5.2-.1-.1-1 .2-.3 1.6-1 2q-.7 1-1.2 1.1-.3 0-.3-.6l.2-2.4V119q0-.7-.2-.7-.1-.1-1 .4l-.9.7.1.2.6-.3.3-.2q.3 0 .3.6v.2l-.2 3v.4q0 .8.5.8.8-.2 2.3-2.3l-.6 2q-.8 3-2 3a1 1 0 0 1-.7-.8v-.2h-.1Zm22.5-11.1v-1h-9.2v1Zm0 3.7v-1h-9.2v1Zm9-4.9h1c-1 1.2-2.6 2.7-2.6 5q0 2.3 1.5 2.4t3.2-3.4l-.2 1.6q0 1.7 1.3 1.8c2.3 0 4.9-4.3 4.9-6.7q-.1-1.6-1-1.7-.5 0-.6.2l-.9.8.2.3.5-.1q.6 0 .7 1c0 2.5-1.7 5.3-3.1 5.3q-.8-.1-.9-1.6c0-.8.2-2 .4-2.6l.9-3.2-.1-.1-1.3.4-.5 2.5q-.2 1.3-1 2.7-1 1.9-1.8 2-1-.1-1-1.7a8 8 0 0 1 2.4-5.6l-.1-.3-1 .2h-1.8l-.2-.1h-.2l-.5.1-.7 2h.4l.3-.7q.2-.5.9-.5zm20.5 1.9q0-1.2.2-2-.8-1.2-2-1.2c-2.1 0-4.6 2.4-4.6 4.7v.2c0 2.3 1.6 4 4 4 .8 0 2-.4 2.3-.7l.3-.5-.2-.2q-.8.4-1.7.4-3.1-.1-3.2-3.7 0-2.7 2.4-2.8 1.3 0 1.9.8v1Zm5.5-2.7c-2.5 0-4.2 1.8-4.2 4.3 0 2.4 1.5 4 3.7 4 2.6 0 4.5-1.8 4.5-4.3 0-2.3-1.7-4-4-4Zm-.3.6c1.5 0 2.7 1.7 2.7 4q-.1 3.1-2.3 3.2c-1.6 0-2.8-1.7-2.8-4q0-3.2 2.4-3.2Zm5.5 5q0 1.5-.2 2.3l2.3.4c2.2 0 3.8-1.2 3.8-2.8 0-3-4.8-1.4-4.8-3.6q0-1.3 1.6-1.3 1.9.1 2 1.4v.4h.5l.1-2q-1.2-.4-2.2-.4-3.1.1-3.2 2.5 0 1.2 1.2 1.7c2 1 3.6.5 3.6 2q-.2 1.4-2 1.5-2-.1-2.2-1.4v-.7Zm9-2.1c0-4.5 1.6-6.3 2.6-7.4l-.3-.5c-1 1-3.8 3.2-3.8 7.9a11 11 0 0 0 3.8 8.1l.3-.3c-.8-1-2.6-3-2.6-7.8Zm12.4-4.1c-.3-2-1-3.3-3.2-3.3-4.4 0-5 4.9-4.5 8.5.3 2 1.2 3.7 3.5 3.7 4 0 4.7-5.7 4.2-8.9Zm-1.1 2.1h-5.4c.1-1.8.8-5 3-5 1.5 0 2 1.5 2.2 2.7q.3 1.1.2 2.3Zm0 .6c-.1 1.9-.5 5.7-2.9 5.7-1.7 0-2.2-2-2.4-3.3l-.1-2.4Zm3.1-6.5-.3.5c1 1 2.6 3 2.6 7.4 0 4.7-1.7 6.7-2.6 7.8l.3.3c1-.8 3.8-3.2 3.8-8.1 0-4.7-2.8-7-3.8-7.9ZM286 82h1c-1 1.2-2.7 2.6-2.7 5q0 2.2 1.5 2.3 1.5.2 3.3-3.3l-.2 1.5q0 1.7 1.2 1.8c2.3 0 5-4.2 5-6.7q-.1-1.5-1.1-1.6-.4 0-.6.2l-.9.8.2.3.5-.2q.6 0 .7 1.1c0 2.5-1.6 5.3-3 5.3q-1-.1-1-1.6c0-.8.2-2 .4-2.7l1-3.1-.2-.1-1.3.3-.5 2.6q-.2 1.4-.9 2.6-1 2-1.8 2-1-.1-1-1.6a8 8 0 0 1 2.4-5.6l-.2-.3-1 .2-1.7-.1h-1l-.6 2h.4l.2-.6q.3-.5 1-.5z"/><svg width="13.1" height="10" x="283.1" y="70.2" overflow="visible"><path d="M13.1 4.9 10 1.4l-.5.5 1.9 2.4h-.2v.9h.2l-2 2.3.6.5zm-11.4.3h11v-.9h-11z" style="fill:#900;fill-opacity:1;stroke-width:1px;stroke:none;stroke-opacity:1"/></svg><path fill="#900" stroke="#900" stroke-width=".1" d="M296 95.7h.5q.7 0 1.2-.8l1-1.4v.8q.3 1.5 1 1.5.4 0 1-.6l.5-.5v-.2q-.7.5-1 .5t-.4-.3q-.3-.5-.3-1l-.3-1.2.5-.6q.7-1.1 1.2-1 .3 0 .4.2h.2l.1-1-.3-.2q-.7 0-1.7 1.5l-.4.7-.1-.6q-.2-1.6-1.2-1.6-.4 0-.7.3l-.6 1h.2q.5-.5.8-.5.5 0 .8 1.7l.2.7-.5.7q-.8 1.2-1.3 1.2h-.3l-.1-.4h-.3zm-50.9 17.8h1c-1 1.2-2.6 2.6-2.6 5q0 2.2 1.5 2.3 1.4.2 3.2-3.3l-.2 1.5q0 1.7 1.3 1.8c2.2 0 4.8-4.2 4.8-6.7q0-1.6-1-1.6l-.6.2-.8.8.2.3.4-.2q.8 0 .8 1.1c0 2.5-1.7 5.3-3.1 5.3q-.8-.1-.9-1.6c0-.8.2-2 .4-2.7l.9-3.1-.2-.1-1.2.3-.5 2.6q-.3 1.4-1 2.6-1 2-1.8 2-1-.1-1-1.6a8 8 0 0 1 2.4-5.6l-.2-.3-1 .2-1.7-.1h-.9l-.7 2h.4l.3-.6q.2-.5.8-.5z"/><svg width="13.1" height="10" x="242.3" y="101.7" overflow="visible"><path d="M13.1 4.9 10 1.4l-.5.5 1.9 2.4h-.2v.9h.2l-2 2.3.6.5zm-11.4.3h11v-.9h-11z" style="fill:#900;fill-opacity:1;stroke-width:1px;stroke:none;stroke-opacity:1"/></svg><path fill="#900" stroke="#900" stroke-width=".1" d="M255 129.3v.2q0 .9 1 1c1.2 0 2.5-1.5 3.2-3.7l1.7-5.3h-.2l-.9.2-.4 1.5q-.2 1-1 2c-.3.6-1 1.2-1.2 1.2l-.2-.6.2-2.5v-1.1q0-.8-.3-.8l-.9.5-1 .7.2.2.6-.4.3-.1q.2 0 .2.6v.2l-.2 2.9v.4q0 .8.5.9.9-.2 2.4-2.4l-.6 2q-.9 3.1-2 3a1 1 0 0 1-.8-.7v-.3ZM88 78.8h1c-1 1.2-2.7 2.6-2.7 5q0 2.2 1.5 2.3t3.3-3.3q-.3 1-.2 1.5 0 1.7 1.2 1.8c2.3 0 5-4.2 5-6.7Q97 78 96 77.8q-.5 0-.6.2l-.9.8.2.3.5-.2q.7 0 .7 1.1c0 2.5-1.6 5.3-3 5.3q-1-.1-1-1.6c0-.8.2-2 .4-2.7l1-3.1-.2-.1-1.3.3-.5 2.6q-.2 1.4-.9 2.6-1 2-1.8 2-1-.1-1-1.6A8 8 0 0 1 90 78l-.2-.3-1 .2-1.7-.1h-1l-.6 2h.4l.2-.6q.3-.5 1-.5z"/><svg width="13.1" height="10" x="85.1" y="67" overflow="visible"><path d="M13.1 4.9 10 1.4l-.5.5 1.9 2.4h-.2v.9h.2l-2 2.3.6.5zm-11.4.3h11v-.9h-11z" style="fill:#900;fill-opacity:1;stroke-width:1px;stroke:none;stroke-opacity:1"/></svg></svg></svg>