<svg xmlns="http://www.w3.org/2000/svg" width="294.6" height="130.1" style="width:294.6000061035156px;height:130.125px;background:#fff;fill:none"><svg xmlns="http://www.w3.org/2000/svg"/><svg xmlns="http://www.w3.org/2000/svg" class="role-diagram-draw-area" style="overflow:visible"><g class="shapes-region" style="stroke:#000;fill:none"><g class="composite-shape"><defs><pattern id="_pgfj51x8j5cfdg-full-view" width="11.3" height="11.3" x="0" y="0" patternTransform="rotate(45 0 0)" patternUnits="userSpaceOnUse"><path d="M0 0v11.3M5.7 0v11.3M11.3 0v11.3" style="stroke:#eee;stroke-opacity:1;stroke-width:1;fill:none"/></pattern></defs><path d="M124.7 165.7H-4V78.4h.1V29.1l128.6 49.3z" class="real" style="stroke-width:1;stroke:#000;fill:url(#_pgfj51x8j5cfdg-full-view);fill-opacity:1"/></g><g class="composite-shape"><path d="m56.2 11.8 35.1 13.6L78 59.8 42.8 46Z" class="real" style="stroke-width:1;stroke:#900;stroke-opacity:1;fill:#900;fill-opacity:.5"/></g><g class="composite-shape"><path stroke="none" d="M103.6 78.4q0-4 1.4-7.6l19.7 7.6Z" class="real" style="stroke-width:1;stroke:none;stroke-opacity:1;fill:none;fill-opacity:1"/><path d="M103.6 78.4q0-4 1.4-7.6" class="real" style="stroke-width:1;stroke:#900;stroke-opacity:1;fill:none;fill-opacity:1"/></g><g class="arrow-line"><path stroke-dasharray="3" d="M83 78.4h41.7" class="connection real" style="stroke:#000;stroke-width:1;fill:none;fill-opacity:1"/></g><g class="arrow-line"><path d="M67 55.4v43" class="connection real" style="stroke:#900;stroke-opacity:1;stroke-width:1;fill:none;fill-opacity:1"/><path fill="#900" stroke="none" d="M10.7-5.1 0 0l10.7 5.2L7.1 0Z" style="stroke:none;fill:#900;stroke-width:1" transform="rotate(-90 84.2 17.1)"/></g><g class="arrow-line"><path d="M59.6 55.6 46.1 93.2" class="connection real" style="stroke:#900;stroke-opacity:1;stroke-width:1;fill:none;fill-opacity:1"/><path fill="#900" stroke="none" d="M10.7-5.1 0 0l10.7 5.2L7.1 0Z" style="stroke:none;fill:#900;stroke-width:1" transform="rotate(109.8 11.8 47.7)"/></g><g class="arrow-line"><path d="m31 41.6 11.8 4.5" class="connection real" style="stroke:#900;stroke-opacity:1;stroke-width:1;fill:none;fill-opacity:1"/><path fill="#900" stroke="none" d="M10.7-5.1 0 0l10.7 5.2L7.1 0Z" style="stroke:none;fill:#900;stroke-width:1" transform="rotate(21 -95.4 96.6)"/></g><g class="arrow-line"><path d="M160.7 67.5v43" class="connection real" style="stroke:#900;stroke-opacity:1;stroke-width:1;fill:none;fill-opacity:1"/><path fill="#900" stroke="none" d="M10.7-5.1 0 0l10.7 5.2L7.1 0Z" style="stroke:none;fill:#900;stroke-width:1" transform="rotate(-90 137 -23.6)"/></g><g class="arrow-line"><path d="m174.2 29.9-13.5 37.6" class="connection real" style="stroke:#900;stroke-opacity:1;stroke-width:1;fill:none;fill-opacity:1"/><path fill="#900" stroke="none" d="M10.7-5.1 0 0l10.7 5.2L7.1 0Z" style="stroke:none;fill:#900;stroke-width:1" transform="rotate(109.8 78.1 75.1)"/></g><g class="arrow-line"><path d="m149 63 11.7 4.5" class="connection real" style="stroke:#900;stroke-opacity:1;stroke-width:1;fill:none;fill-opacity:1"/><path fill="#900" stroke="none" d="M10.7-5.1 0 0l10.7 5.2L7.1 0Z" style="stroke:none;fill:#900;stroke-width:1" transform="rotate(21 -94.1 425.8)"/></g><g class="composite-shape"><path d="M159.6 67.5q.1-1.1 1-1.2 1.1 0 1.2 1.2-.1 1-1.1 1t-1.1-1Z" class="real" style="stroke-width:1;stroke:#000;fill:#000;fill-opacity:1"/></g><g class="arrow-line"><path d="M251 115h23" class="connection real" style="stroke:#000;stroke-width:1;fill:none;fill-opacity:1"/><path fill="#000" stroke="none" d="M9-4.3 0 0l9 4.3Z" style="stroke:none;fill:#000;stroke-width:1" transform="matrix(-1 0 0 -1 277 115)"/></g><g class="arrow-line"><path d="M251 115V90.5" class="connection real" style="stroke:#000;stroke-width:1;fill:none;fill-opacity:1"/><path fill="#000" stroke="none" d="M9-4.3 0 0l9 4.3Z" style="stroke:none;fill:#000;stroke-width:1" transform="rotate(90 81.7 169.3)"/></g></g></svg><svg xmlns="http://www.w3.org/2000/svg" xmlns:xlink="http://www.w3.org/1999/xlink" width="293" height="128.5" style="width:293px;height:128.52500915527344px;font-family:Asana-Math,Asana;background:#fff"><path fill="#fff" stroke="#fff" stroke-width=".1" d="m70.7 42.5-.5.2H69v-.3l.3-.6 3-4.3.3-.6q.1-.5-.2-.6-.7-.3-2.4.2c-1.3.3-2 .7-3.2 1.5l1.3-2 .3-.6q.1-.5-.2-.7-.7-.3-2.5.2c-.9.3-1.3.5-2.9 1.5l1.3-1.9.4-.6q.1-.5-.2-.7t-2.5.4l-.6.1v.4l1.5-.2q.3 0 .2.5c-.4.8-2.2 3.6-3.7 5.6v.2l1.2.2 1-1.5q1.4-2.2 3-3 1.5-.8 2.3-.5.1 0 0 .4-.3.9-3 4.7l-.6 1v.2l1.2.2 1-1.6a8 8 0 0 1 2.7-2.7q2-1 2.8-.7v.5c-.1.4-.2.6-1.1 1.8-1.6 2.3-2 2.6-2.3 3.4q-.2.6.2.8c.4.2 1.1 0 3.1-.5Z"/><path fill="#900" stroke="#900" stroke-width=".1" d="M63.6 112.4h1c-.9 1.2-2.6 2.6-2.6 5q0 2.2 1.5 2.3t3.2-3.3l-.2 1.5q0 1.7 1.3 1.8c2.3 0 4.9-4.2 4.9-6.7q-.1-1.5-1-1.6-.4 0-.6.2l-.9.8.2.3.5-.2q.7 0 .7 1.1c0 2.5-1.7 5.3-3.1 5.3q-.8-.1-.8-1.6c0-.8.1-2 .3-2.7l.9-3.1-.1-.1-1.3.3-.5 2.6q-.2 1.4-1 2.6-1 2-1.7 2-1-.1-1-1.6a8 8 0 0 1 2.3-5.6l-.1-.3-1 .2-1.7-.1h-1l-.6 2h.3l.3-.6q.2-.5.9-.5z"/><svg width="13.1" height="10" x="60.8" y="100.6" overflow="visible"><path d="M13.1 4.9 10 1.4l-.5.5 1.9 2.4h-.2v.9h.2l-2 2.3.6.5zm-11.4.3h11v-.9h-11z" style="fill:#900;fill-opacity:1;stroke-width:1px;stroke:none;stroke-opacity:1"/></svg><path fill="#900" stroke="#900" stroke-width=".1" d="M90.9 69.5c-.2-1.5-.9-2.7-2.6-2.7-3.5 0-4 4-3.6 6.9.3 1.6 1 3 2.8 3 3.3 0 3.8-4.6 3.4-7.2Zm-1 1.7h-4.2c0-1.4.7-4 2.4-4 1.2 0 1.6 1.2 1.8 2.2zm0 .4c0 1.6-.3 4.6-2.2 4.6-1.4 0-1.8-1.5-2-2.6v-2Zm-52.6 19-6-10h-2.7v.5h.5c.8 0 1.4.8 1.4 1L29 90.6q-.2 1.4-1 1.4h-.5l-.1.5h3.8V92h-.7q-1 0-.8-.8v-.5l1.4-7.9 5.7 9.8h.9l1.6-9.4c.4-1.9.4-2 1-2h.6l.1-.5h-3.6l-.1.5h.8q.6 0 .6.4z"/><svg width="14.1" height="10" x="27.4" y="69.4" overflow="visible"><path d="m14 4.9-3-3.4-.6.5 2 2.4h-.2v.9h.2l-2 2.3.5.5zm-12.3.3h11.9v-.9h-12z" style="fill:#900;fill-opacity:1;stroke-width:1px;stroke:none;stroke-opacity:1"/></svg><path fill="#900" stroke="#900" stroke-width=".1" d="M25 20.4h-.3l.3-2q.4-2 1.6-2 .8 0 1.2.6h.1l.4-1.2.1-.2q-.5-.3-1.2-.3l-.6.2c-.4.1-1.8 1.2-2.2 1.6q-.4.5-.7 1.8l-.3 1.4-1.4.6-.1.4h1.4l-.2 1c-.5 3.3-1.1 6.4-1.5 7.6q-.5 1.5-1.4 1.5-.5 0-1-.5l-.2.1-.3 1.4h.5q1.2 0 2.3-1.2c1.2-1.5 1.6-3 3-10h1.8l.3-.9z"/><svg width="10.2" height="10" x="19.1" y="4.8" overflow="visible"><path d="M10.2 4.9 7.1 1.4l-.5.5 1.9 2.4h-.2v.9h.2l-2 2.3.5.5zm-8.5.3h8v-.9h-8z" style="fill:#900;fill-opacity:1;stroke-width:1px;stroke:none;stroke-opacity:1"/></svg><path fill="#900" stroke="#900" stroke-width=".1" d="M29.3 32.5q0 .8-.3 1.6l1.3.3q.9 0 1.7-.7.9-.6.9-1.5t-1.3-1.1l-.5-.1q-1-.2-1-.8.1-1.1 1.3-1.2.9 0 1.1.6v.6h.3L33 29l-1.2-.3a3 3 0 0 0-1.9.9q-.4.4-.4 1 0 1 1.1 1.2l.8.2q.7 0 .7.8 0 1.2-1.4 1.3-.6 0-1.1-.5v-1ZM171 107.9h1c-1 1.2-2.7 2.6-2.7 5q0 2.2 1.5 2.3t3.3-3.3l-.2 1.5q0 1.7 1.2 1.8c2.3 0 5-4.2 5-6.7q-.1-1.6-1.1-1.7l-.6.2-.9.8.2.4.5-.2q.7 0 .7 1c0 2.6-1.6 5.4-3 5.4q-1-.1-1-1.6c0-.8.2-2 .4-2.7l1-3.1-.2-.2-1.3.4-.5 2.6q-.2 1.4-.9 2.6-1 2-1.8 2-1-.1-1-1.7a8 8 0 0 1 2.4-5.6l-.2-.3q-.4.3-1 .2H169l-.6 2h.4l.2-.7q.3-.3 1-.4z"/><svg width="13.1" height="10" x="168.1" y="96" overflow="visible"><path d="M13.1 4.9 10 1.4l-.5.5 1.9 2.4h-.2v.9h.2l-2 2.3.6.5zm-11.4.3h11v-.9h-11z" style="fill:#900;fill-opacity:1;stroke-width:1px;stroke:none;stroke-opacity:1"/></svg><path fill="#900" stroke="#900" stroke-width=".1" d="m190 36.1-5.8-10h-2.8v.5h.5c.8 0 1.4.8 1.4 1l-1.6 8.6c-.2 1-.3 1.1-1 1.2h-.5v.5h3.8v-.4h-.7q-1-.1-.8-.8v-.5l1.4-8 5.7 9.9h.9l1.6-9.4c.3-2 .3-2 1-2l.6-.1v-.5h-3.6v.5h.8q.6 0 .6.4z"/><svg width="14.1" height="10" x="180.1" y="14.9" overflow="visible"><path d="m14 4.9-3-3.4-.6.5 2 2.4h-.2v.9h.2l-2 2.3.5.5zm-12.3.3h11.9v-.9h-12z" style="fill:#900;fill-opacity:1;stroke-width:1px;stroke:none;stroke-opacity:1"/></svg><path fill="#900" stroke="#900" stroke-width=".1" d="M144.9 43h-.3l.3-2q.4-2 1.6-2 .8 0 1.2.6h.2l.4-1.2v-.2q-.4-.3-1.2-.3l-.5.2c-.5.1-1.8 1.2-2.2 1.6q-.6.5-.8 1.8l-.3 1.4-1.4.6-.1.4h1.4l-.2 1c-.5 3.3-1.1 6.4-1.5 7.6q-.5 1.5-1.4 1.5-.5 0-1-.5l-.1.1-.4 1.4h.6q1.2 0 2.2-1.2c1.2-1.5 1.6-3 3-10h1.8l.3-.9h-1.6Z"/><svg width="10.2" height="10" x="139" y="27.4" overflow="visible"><path d="M10.2 4.9 7.1 1.4l-.5.5 1.9 2.4h-.2v.9h.2l-2 2.3.5.5zm-8.5.3h8v-.9h-8z" style="fill:#900;fill-opacity:1;stroke-width:1px;stroke:none;stroke-opacity:1"/></svg><path fill="#900" stroke="#900" stroke-width=".1" d="M149.2 55.1q0 .8-.3 1.6l1.3.3q.8 0 1.8-.7.8-.6.8-1.5t-1.2-1.1l-.6-.1q-1-.2-.9-.8 0-1.1 1.2-1.2.9 0 1.1.6v.6h.3l.2-1.3-1.1-.3a3 3 0 0 0-2 .9q-.4.4-.4 1 0 1 1.2 1.2l.7.2q.7 0 .7.8 0 1.2-1.4 1.3-.6 0-1.1-.5v-1Z"/><path fill="#000" stroke="#000" stroke-width=".1" d="M247 82.6q0 1.1 1.3 1.2c1 0 1.5-.9 2-1.7l2.5-6.4c.4-1 1.2-1 1.4-1v-.4h-2.4v.4q.7 0 .7.7v.3l-1.6 3.7-1.7-4V75q.2-.5.8-.4v-.4h-3v.4q1-.1 1.1.5l2.3 5.5-.4 1c-.3.7-.7 1.8-1.7 1.8l-.7-.3q.7-.2.6-.6 0-.7-.7-.7-.5 0-.6.7Zm33 37.4 1.2-.1h1.4v-.4q-.4-.1-.4-.5 0-.3 1.4-2l1.1 1.6.3.5q0 .2-.5.4v.4h3v-.4c-.8 0-1 0-1.4-.5l-2-2.6 1.4-1.7q.6-.8 1.8-.8v-.4h-2.7v.4q.4.1.4.5l-.2.5-1 1.2-1-1.5-.2-.3q0-.4.5-.4v-.4h-3v.4c1 0 1 0 1.7 1l1.5 1.9-1.4 1.8q-1.2 1-2 .9Z"/></svg></svg>