<svg xmlns="http://www.w3.org/2000/svg" xmlns:xlink="http://www.w3.org/1999/xlink" x="0" y="0" width="222.60000610351562" height="112.1500015258789" style="
        width:222.60000610351562px;
        height:112.1500015258789px;
        background: transparent;
        fill: none;
">
        <svg xmlns="http://www.w3.org/2000/svg"/>
        
        <svg xmlns="http://www.w3.org/2000/svg" class="role-diagram-draw-area" style="overflow: visible;"><g class="shapes-region" style="stroke: black; fill: none;"><g class="composite-shape"><path class="real" d=" M11.69,8.19 L171.75,99.66 L171.75,139.66 L11.69,139.66 L11.69,8.19 Z" style="stroke-width: 1; stroke: rgb(0, 0, 0); fill: none; fill-opacity: 1;"/></g><g class="composite-shape"><path class="real" d=" M146.75,99.66 C146.75,99.66 146.75,99.66 146.75,99.66 C146.75,95.1 147.97,90.83 150.1,87.16 L171.75,99.66 Z" style="stroke-width: 1; stroke: none; stroke-opacity: 1; fill: none; fill-opacity: 1;"/><path class="real" d=" M146.75,99.66 C146.75,99.66 146.75,99.66 146.75,99.66 C146.75,95.1 147.97,90.83 150.1,87.16" style="stroke-width: 1; stroke: rgb(153, 0, 0); stroke-opacity: 1; fill: none; fill-opacity: 1;"/></g><g class="arrow-line"><path class="connection real" stroke-dasharray="" d="  M57.45,32.97 L57.45,73.11" style="stroke: rgb(153, 0, 0); stroke-opacity: 1; stroke-width: 1; fill: none; fill-opacity: 1;"/><g stroke="none" fill="rgb(153,0,0)" fill-opacity="1" transform="matrix(-1.8369701987210297e-16,-1,1,-1.8369701987210297e-16,57.45261951230601,76.1099975585937)" style="stroke: none; fill: rgb(153, 0, 0); stroke-width: 1;"><path d=" M10.72,-5.15 L0,0 L10.72,5.15 L7.12,0 Z"/></g></g><g class="composite-shape"><path class="real" d=" M58.7,11 L75.49,20.79 L65.47,37.99 L48.68,28.2 Z" style="stroke-width: 1; stroke: rgb(153, 0, 0); stroke-opacity: 1; fill: rgb(153, 0, 0); fill-opacity: 0.5;"/></g><g class="arrow-line"><path class="connection real" stroke-dasharray="" d="  M55.97,35.58 L39.72,64.11" style="stroke: rgb(153, 0, 0); stroke-opacity: 1; stroke-width: 1; fill: none; fill-opacity: 1;"/><g stroke="none" fill="rgb(153,0,0)" fill-opacity="1" transform="matrix(-0.4948521285448586,0.8689771981327374,-0.8689771981327374,-0.4948521285448586,57.452619512306015,32.971738828489194)" style="stroke: none; fill: rgb(153, 0, 0); stroke-width: 1;"><path d=" M10.72,-5.15 L0,0 L10.72,5.15 L7.12,0 Z"/></g></g><g class="arrow-line"><path class="connection real" stroke-dasharray="3" d="  M113.95,99.66 L171.75,99.66" style="stroke: rgb(0, 0, 0); stroke-width: 1; fill: none; fill-opacity: 1;"/></g><g class="arrow-line"><path class="connection real" stroke-dasharray="" d="  M178,51.55 L201,51.55" style="stroke: rgb(0, 0, 0); stroke-width: 1; fill: none; fill-opacity: 1;"/><g stroke="none" fill="#000" transform="matrix(-1,1.2246467991473532e-16,-1.2246467991473532e-16,-1,204,51.55000305175781)" style="stroke: none; fill: rgb(0, 0, 0); stroke-width: 1;"><path d=" M8.93,-4.29 L0,0 L8.93,4.29 Z"/></g></g><g class="arrow-line"><path class="connection real" stroke-dasharray="" d="  M178,51.55 L178,27.05" style="stroke: rgb(0, 0, 0); stroke-width: 1; fill: none; fill-opacity: 1;"/><g stroke="none" fill="#000" transform="matrix(3.061616997868383e-16,1,-1,3.061616997868383e-16,178,24.050003051757812)" style="stroke: none; fill: rgb(0, 0, 0); stroke-width: 1;"><path d=" M8.93,-4.29 L0,0 L8.93,4.29 Z"/></g></g><g/></g><g/><g/><g/></svg>
        <svg xmlns="http://www.w3.org/2000/svg" xmlns:xlink="http://www.w3.org/1999/xlink" width="221" height="110.55000305175781" style="width:221px;height:110.55000305175781px;font-family:Asana-Math, Asana;background:transparent;"><g><g><g><g transform="matrix(1,0,0,1,126,94.1500030517578)"><path transform="matrix(0.0136,0,0,-0.0136,0,0)" d="M462 224C462 345 355 366 308 374C388 436 418 482 418 541C418 630 344 689 233 689C165 689 120 670 72 622L43 498L74 498L92 554C103 588 166 622 218 622C283 622 336 569 336 506C336 431 277 368 206 368C198 368 187 369 174 370L159 371L147 318L154 312C192 329 211 334 238 334C321 334 369 281 369 190C369 88 308 21 215 21C169 21 128 36 98 64C74 86 61 109 42 163L15 153C36 92 44 56 50 6C103 -12 147 -20 184 -20C307 -20 462 87 462 224ZM762 689C607 689 528 566 528 324C528 207 549 106 584 57C619 8 675 -20 737 -20C888 -20 964 110 964 366C964 585 899 689 762 689ZM744 654C841 654 880 556 880 316C880 103 842 15 750 15C653 15 612 116 612 360C612 571 649 654 744 654ZM1197 689C1115 689 1048 622 1048 539C1048 456 1115 389 1198 389C1279 389 1348 457 1348 537C1348 621 1281 689 1197 689ZM1197 649C1258 649 1308 599 1308 537C1308 479 1258 429 1198 429C1137 429 1088 478 1088 539C1088 600 1137 649 1197 649Z" stroke="rgb(153,0,0)" stroke-opacity="1" stroke-width="8" fill="rgb(153,0,0)" fill-opacity="1"></path></g></g></g></g><g><g><g><g><g><g><g transform="matrix(1,0,0,1,64.25,79.92499694824218)"><path transform="matrix(0.0136,0,0,-0.0136,0,0)" d="M167 420C188 420 201 421 226 424C171 350 72 266 72 126C72 44 107 -11 160 -11C224 -11 276 44 350 187C341 143 338 118 338 95C338 32 367 -11 412 -11C546 -11 699 238 699 384C699 441 673 482 637 482C624 482 612 478 604 470L554 423L565 404C574 410 583 413 592 413C619 413 635 390 635 350C635 205 538 39 453 39C424 39 403 79 403 134C403 181 412 247 424 290L476 474L469 482L395 460L366 311C354 249 340 209 311 155C271 80 233 39 203 39C168 39 145 78 145 136C145 255 186 352 285 464L275 482C255 473 242 470 214 470C186 470 144 472 115 475L103 476C97 477 92 477 91 477C79 477 70 475 59 470C45 443 34 407 21 352L43 352L60 394C67 411 87 422 111 422C145 422 128 420 167 420Z" stroke="rgb(153,0,0)" stroke-opacity="1" stroke-width="8" fill="rgb(153,0,0)" fill-opacity="1"></path></g></g></g></g><svg x="64.25" overflow="visible" y="65.32499694824219" height="8" width="10.487500190734863"><path d=" M 10.49 3.88 l -2.52 -2.66 l -0.39 0.42 l 1.54 1.86 h -0.12 v 0.72 h 0.12 l -1.54 1.86 l 0.39 0.42 z  M 1.35 4.19 h 8.77 v -0.72 h -8.77 z" style="fill:rgb(153,0,0);fill-opacity:1;stroke-width:1px;stroke:none;stroke-opacity:1;"></path></svg></g></g></g><g><g><g><g><g><g><g transform="matrix(1,0,0,1,25.45001220703125,62.55001220703125)"><path transform="matrix(0.0136,0,0,-0.0136,0,0)" d="M582 103L237 692L75 692L70 664L105 662C150 660 184 615 185 606L92 102C80 40 74 32 38 28L7 25L2 -3L113 0C125 0 126 0 223 -3L228 25L186 28C146 31 137 39 137 72C137 80 138 91 140 102L220 566L558 -11L608 -11L702 542C723 655 725 659 762 662L799 664L802 691L589 692L584 664L631 662C657 661 667 654 667 638C667 631 584 116 582 103Z" stroke="rgb(153,0,0)" stroke-opacity="1" stroke-width="8" fill="rgb(153,0,0)" fill-opacity="1"></path></g></g></g></g><svg x="25.45001220703125" overflow="visible" y="44.95001220703125" height="8" width="11.25"><path d=" M 11.25 3.88 l -2.52 -2.66 l -0.39 0.42 l 1.54 1.86 h -0.12 v 0.72 h 0.12 l -1.54 1.86 l 0.39 0.42 z  M 1.35 4.19 h 9.54 v -0.72 h -9.54 z" style="fill:rgb(153,0,0);fill-opacity:1;stroke-width:1px;stroke:none;stroke-opacity:1;"></path></svg></g></g></g><g><g><g><g transform="matrix(1,0,0,1,173.625,17.25)"><path transform="matrix(0.015,0,0,-0.015,0,0)" d="M19 -124C19 -169 61 -205 111 -205C174 -205 215 -148 239 -91L415 336C441 399 492 400 508 400L508 431C485 429 456 428 433 428C415 428 368 430 346 431L346 400C377 399 393 382 393 357C393 347 392 345 387 333L286 87L175 356C171 366 169 370 169 374C169 400 206 400 225 400L225 431C199 430 133 428 116 428C89 428 49 429 19 431L19 400C67 400 86 400 100 365L250 0C245 -13 231 -46 225 -59C203 -114 175 -183 111 -183C106 -183 83 -183 64 -165C95 -161 103 -139 103 -123C103 -97 84 -81 61 -81C41 -81 19 -94 19 -124Z" stroke="rgb(0,0,0)" stroke-opacity="1" stroke-width="8" fill="rgb(0,0,0)" fill-opacity="1"></path></g></g></g></g><g><g><g><g transform="matrix(1,0,0,1,206.79998779296875,56.45001220703125)"><path transform="matrix(0.015,0,0,-0.015,0,0)" d="M12 0C38 2 69 3 95 3C124 3 166 1 190 0L190 31C168 34 161 47 161 62C161 84 190 117 251 189L327 89C335 78 348 62 348 56C348 47 339 32 312 31L312 0C342 1 398 3 420 3C447 3 486 2 516 0L516 31C462 31 444 33 421 62L287 235C317 273 355 322 379 348C410 384 451 399 498 400L498 431C472 429 442 428 416 428C386 428 333 430 320 431L320 400C341 398 349 385 349 369C349 353 339 340 334 334L272 256L194 357C185 367 185 369 185 375C185 390 200 399 220 400L220 431C194 430 128 428 112 428C91 428 44 429 17 431L17 400C87 400 88 399 135 339L234 210L140 91C92 33 33 31 12 31Z" stroke="rgb(0,0,0)" stroke-opacity="1" stroke-width="8" fill="rgb(0,0,0)" fill-opacity="1"></path></g></g></g></g></svg>
</svg>
