<svg xmlns="http://www.w3.org/2000/svg" width="201.6" height="112.2" style="width:201.60000610351562px;height:112.1500015258789px;background:0 0;fill:none"><svg xmlns="http://www.w3.org/2000/svg"/><svg xmlns="http://www.w3.org/2000/svg" class="role-diagram-draw-area"><g class="shapes-region" style="stroke:#000;fill:none"><g class="arrow-line"><path d="m342.2 65.6-16.4-9" class="connection real" style="stroke:#900;stroke-opacity:1;stroke-width:1;fill:none;fill-opacity:1"/><path fill="#900" stroke="none" d="M10.7-5.1 0 0l10.7 5.2L7.1 0Z" style="stroke:none;fill:#900;stroke-width:1" transform="rotate(208.7 181 -10.6)"/></g><g class="arrow-line"><path d="m325.8 56.6-.3.4-17.2 29.7" class="connection real" style="stroke:#900;stroke-opacity:1;stroke-width:1;fill:none;fill-opacity:1"/><path fill="#900" stroke="none" d="M10.7-5.1 0 0l10.7 5.2L7.1 0Z" style="stroke:none;fill:#900;stroke-width:1" transform="rotate(-59.8 231 -222.2)"/></g><g class="arrow-line"><path d="m343.4 26.4-17.6 30.2" class="connection real" style="stroke:#900;stroke-opacity:1;stroke-width:1;fill:none;fill-opacity:1"/><path fill="#900" stroke="none" d="M10.7-5.1 0 0l10.7 5.2L7.1 0Z" style="stroke:none;fill:#900;stroke-width:1" transform="rotate(120.2 165.6 111)"/></g><g class="composite-shape"><path stroke="none" d="M31.8 85.7q4.1 6.1 4.2 14H11Z" class="real" style="stroke-width:1;stroke:none;stroke-opacity:1;fill:none;fill-opacity:1"/><path d="M31.8 85.7q4.1 6.1 4.2 14" class="real" style="stroke-width:1;stroke:#900;stroke-opacity:1;fill:none;fill-opacity:1"/></g><g class="arrow-line"><path d="M95.7 29.7v40.1" class="connection real" style="stroke:#900;stroke-opacity:1;stroke-width:1;fill:none;fill-opacity:1"/><path fill="#900" stroke="none" d="M10.7-5.1 0 0l10.7 5.2L7.1 0Z" style="stroke:none;fill:#900;stroke-width:1" transform="rotate(-90 84.3 -11.4)"/></g><g class="composite-shape"><path d="M82 26.9 98.3 16l11.1 16.5-16.1 10.9Z" class="real" style="stroke-width:1;stroke:#900;stroke-opacity:1;fill:#900;fill-opacity:.5"/></g><g class="arrow-line"><path d="M80.6 29.7H41.8" class="connection real" style="stroke:#900;stroke-opacity:1;stroke-width:1;fill:none;fill-opacity:1"/><path fill="#900" stroke="none" d="M10.7-5.1 0 0l10.7 5.2L7.1 0Z" style="stroke:none;fill:#900;stroke-width:1" transform="matrix(-1 0 0 -1 83.6 29.7)"/></g><g class="arrow-line"><path stroke-dasharray="3" d="M11 99.7h57.8" class="connection real" style="stroke:#000;stroke-width:1;fill:none;fill-opacity:1"/></g><g class="composite-shape"><path d="M324.7 56.6q.1-1 1.1-1.2 1 .1 1.1 1.1 0 1.1-1 1.2-1.1-.1-1.2-1.1Z" class="real" style="stroke-width:1;stroke:#000;fill:#000;fill-opacity:1"/></g><g class="arrow-line"><path d="m268.2 36-17.6 30" class="connection real" style="stroke:#900;stroke-opacity:1;stroke-width:1;fill:none;fill-opacity:1"/><path fill="#900" stroke="none" d="M10.7-5.1 0 0l10.7 5.2L7.1 0Z" style="stroke:none;fill:#900;stroke-width:1" transform="rotate(-59.8 184.3 -182.4)"/></g><g class="arrow-line"><path d="M268.2 36v40" class="connection real" style="stroke:#900;stroke-opacity:1;stroke-width:1;fill:none;fill-opacity:1"/><path fill="#900" stroke="none" d="M10.7-5.1 0 0l10.7 5.2L7.1 0Z" style="stroke:none;fill:#900;stroke-width:1" transform="rotate(-90 173.6 -94.5)"/></g><g class="arrow-line"><path d="m265.6 77.7-16.5-9" class="connection real" style="stroke:#900;stroke-opacity:1;stroke-width:1;fill:none;fill-opacity:1"/><path fill="#900" stroke="none" d="M10.7-5.1 0 0l10.7 5.2L7.1 0Z" style="stroke:none;fill:#900;stroke-width:1" transform="rotate(208.7 144.2 5.3)"/></g><g class="composite-shape"><path stroke="none" d="M268.2 50q-4-.1-7-2l7-12Z" class="real" style="stroke-width:1;stroke:none;stroke-opacity:1;fill:none;fill-opacity:1"/><path d="M268.2 50q-4-.1-7-2" class="real" style="stroke-width:1;stroke:#000;stroke-opacity:1;fill:none;fill-opacity:1"/></g><g class="arrow-line"><path d="M11 121V99.6" class="connection real" style="stroke:#000;stroke-width:1;fill:none;fill-opacity:1"/></g><g class="arrow-line"><path d="m11 99.7 133.3-90" class="connection real" style="stroke:#000;stroke-width:1;fill:none;fill-opacity:1"/></g><g class="arrow-line"><path d="M144.3 114.4V9.8" class="connection real" style="stroke:#000;stroke-width:1;fill:none;fill-opacity:1"/></g><g class="arrow-line"><path d="M158 97.6h23" class="connection real" style="stroke:#000;stroke-width:1;fill:none;fill-opacity:1"/><path fill="#000" stroke="none" d="M9-4.3 0 0l9 4.3Z" style="stroke:none;fill:#000;stroke-width:1" transform="matrix(-1 0 0 -1 184 97.6)"/></g><g class="arrow-line"><path d="M158 97.6V73" class="connection real" style="stroke:#000;stroke-width:1;fill:none;fill-opacity:1"/><path fill="#000" stroke="none" d="M9-4.3 0 0l9 4.3Z" style="stroke:none;fill:#000;stroke-width:1" transform="rotate(90 44 114)"/></g></g></svg><svg xmlns="http://www.w3.org/2000/svg" xmlns:xlink="http://www.w3.org/1999/xlink" width="200" height="110.6" style="width:200px;height:110.55000305175781px;font-family:Asana-Math,Asana;background:#fff"><path fill="#900" stroke="#900" stroke-width=".1" d="M46.7 91.9c0-1.6-1.5-2-2.1-2q1.5-1.2 1.5-2.3-.1-1.9-2.5-2-1.4 0-2.2.9l-.4 1.7h.4l.3-.8c.1-.4 1-1 1.7-1 .8 0 1.6.8 1.6 1.7q-.1 1.7-1.8 1.8h-.6l-.2.7v.1l1.2-.3q1.8 0 1.8 2-.1 2.2-2 2.3-1 0-1.7-.6-.4-.3-.7-1.4l-.4.2.5 2 1.8.3c1.7 0 3.8-1.4 3.8-3.3Zm4.3.6v1q0 1.1-.8 1h-.9v.5h4.3v-.4H53q-1 0-.9-1v-1.1h1.5v-1l-1.5.1v-6.1l-1 .4-3.9 6.3v.3Zm0-.9h-3l3-4.8Zm5.7-6a2 2 0 1 0 0 4 2 2 0 0 0 0-4Zm0 .5q1.3.2 1.5 1.5-.1 1.4-1.5 1.5-1.3-.2-1.5-1.5.2-1.3 1.5-1.5Zm47.4-17.9h.8c-.7 1-2 2.1-2 4q0 1.8 1.1 1.9t2.6-2.7l-.2 1.2q0 1.4 1 1.5c1.9 0 4-3.4 4-5.4q0-1.2-.9-1.3l-.4.1-.7.7.1.2h.4q.6 0 .6.8c0 2-1.3 4.2-2.5 4.2q-.7 0-.7-1.3l.3-2.1.7-2.5v-.1l-1 .3-.5 2q-.1 1.1-.7 2.1-.8 1.5-1.5 1.6-.8 0-.8-1.3 0-2.3 2-4.5l-.2-.2-.8.1h-2.1l-.6 1.6h.3l.3-.5q0-.4.7-.4z"/><svg width="10.5" height="8" x="101.9" y="59.3" overflow="visible"><path d="M10.5 3.9 8 1.2l-.4.4L9 3.5v.7h.1L7.6 6.1l.4.4zm-9.1.3H10v-.7H1.4z" style="fill:#900;fill-opacity:1;stroke-width:1px;stroke:none;stroke-opacity:1"/></svg><path fill="#900" stroke="#900" stroke-width=".1" d="M33 27.3h1.4q1.3 0 1.4.3v1.2h.4q0-1.4.3-2l-1-.1h-5.2v.4h.7q.5 0 .5.4l-.1 1-1 5.9c-.2 1.2-.2 1.3-.8 1.3H29v.4h3.6v-.4h-.9q-.5 0-.5-.4V35l.6-3h3.3l.3-.6H32l.6-3.7.1-.4Z"/><svg width="8.2" height="8" x="29" y="18.5" overflow="visible"><path d="M8.2 3.9 5.7 1.2l-.4.4L7 3.5h-.2v.7H7L5.3 6.1l.4.4zm-6.8.3h6.5v-.7H1.4z" style="fill:#900;fill-opacity:1;stroke-width:1px;stroke:none;stroke-opacity:1"/></svg><path fill="#900" stroke="#900" stroke-width=".1" d="m360 27.6-5.9-10h-2.7l-.1.4h.6c.7.1 1.3.9 1.3 1l-1.6 8.6q-.2 1.4-.9 1.2l-.5.1v.5h3.7v-.5h-.7q-.9 0-.8-.8v-.5l1.4-7.9 5.8 9.8h.8l1.6-9.4c.4-2 .4-2 1-2h.7v-.5h-3.6l-.1.4h.8q.6 0 .6.5z"/><svg width="14.1" height="10" x="350.1" y="6.3" overflow="visible"><path d="m14 4.9-3-3.4-.6.5 2 2.4h-.2v.9h.2l-2 2.3.5.5zm-12.3.3h11.9v-.9h-12z" style="fill:#900;fill-opacity:1;stroke-width:1px;stroke:none;stroke-opacity:1"/></svg><path fill="#900" stroke="#900" stroke-width=".1" d="M348.4 64.2h1c-1 1.2-2.7 2.6-2.7 5q0 2.2 1.5 2.3t3.3-3.3l-.2 1.5q0 1.7 1.2 1.8c2.3 0 4.9-4.2 4.9-6.7q0-1.5-1-1.6-.4 0-.6.2l-.9.8.2.3.5-.2q.6 0 .7 1.1c0 2.5-1.6 5.3-3 5.3q-1-.1-1-1.6c0-.8.2-2 .4-2.7l.9-3.1-.1-.1-1.3.3-.5 2.6q-.2 1.4-.9 2.6-1 2-1.8 2-1-.1-1-1.6a8 8 0 0 1 2.4-5.6l-.2-.3-1 .2-1.7-.1h-1l-.6 2h.3l.3-.6q.3-.5.9-.5z"/><svg width="13.1" height="10" x="345.5" y="52.4" overflow="visible"><path d="M13.1 4.9 10 1.4l-.5.5 1.9 2.4h-.2v.9h.2l-2 2.3.6.5zm-11.4.3h11v-.9h-11z" style="fill:#900;fill-opacity:1;stroke-width:1px;stroke:none;stroke-opacity:1"/></svg><path fill="#900" stroke="#900" stroke-width=".1" d="M358.4 77.9h.5q.7 0 1.2-.8l1-1.4v.8q.3 1.5 1 1.5.4 0 1-.6l.5-.5v-.2q-.7.6-1 .5-.2 0-.5-.3l-.3-1-.2-1.2.4-.6q.9-1.1 1.3-1 .3 0 .4.2h.2l.1-1-.3-.2q-.7 0-1.7 1.5l-.5.7v-.6q-.2-1.6-1.2-1.6-.5 0-.7.3l-.7 1h.2q.5-.5.9-.5t.8 1.7l.2.7-.5.7q-.8 1.2-1.3 1.2h-.3l-.1-.4h-.3zm-70.8 10.3h1c-.9 1.2-2.6 2.6-2.6 5q0 2.2 1.5 2.3t3.3-3.3l-.3 1.5q0 1.7 1.3 1.8c2.3 0 4.9-4.2 4.9-6.7q-.1-1.5-1-1.6-.4 0-.6.2l-.9.8.2.3.5-.2q.6 0 .7 1.1c0 2.5-1.7 5.3-3.1 5.3q-.8-.1-.8-1.6c0-.8.1-2 .3-2.7l.9-3.1-.1-.1-1.3.3-.5 2.6q-.2 1.4-1 2.6-1 2-1.7 2-1-.1-1-1.7a8 8 0 0 1 2.3-5.5l-.1-.3-1 .2-1.7-.1h-1l-.6 2h.3l.3-.6q.2-.5.9-.5z"/><svg width="13.1" height="10" x="284.8" y="76.3" overflow="visible"><path d="M13.1 4.9 10 1.4l-.5.5 1.9 2.4h-.2v.9h.2l-2 2.3.6.5zm-11.4.3h11v-.9h-11z" style="fill:#900;fill-opacity:1;stroke-width:1px;stroke:none;stroke-opacity:1"/></svg><path fill="#900" stroke="#900" stroke-width=".1" d="M297.5 104v.2q0 .9 1 1 2-.2 3.2-3.7l1.7-5.3h-.1l-1 .1-.3 1.6-1 2q-.7 1-1.2 1.2-.3 0-.3-.6l.2-2.5v-1q0-.8-.2-.8l-1 .5-.9.7.1.2.6-.4.3-.1q.3 0 .3.6v.2l-.2 2.9v.4q0 .8.5.9.8-.1 2.3-2.4l-.6 2q-.9 3.1-2 3a1 1 0 0 1-.8-.7v-.3Z"/><path fill="#000" stroke="#000" stroke-width=".1" d="M246 46.6c0-1.7-1.4-2-2-2q1.5-1.3 1.5-2.3-.1-2-2.5-2-1.4 0-2.2.9l-.4 1.6h.4l.3-.7c.1-.5 1-1 1.7-1q1.4.2 1.6 1.6c0 1-.8 2-1.8 2l-.4-.1h-.2l-.2.7 1.2-.2q1.8 0 1.8 2-.1 2-2 2.2-1 0-1.7-.6-.4-.3-.7-1.3l-.4.1.5 2q1 .4 1.8.4c1.7 0 3.8-1.5 3.8-3.3Zm4.2-6.4q-3.2 0-3.2 5 0 2.6.7 3.6.8 1 2.1 1 3 0 3.1-5.2 0-4.4-2.7-4.4Zm-.3.5q2-.1 1.9 4.6 0 4.3-1.8 4.1-2 .1-1.9-4.7 0-4.2 1.8-4Zm6.2-.5a2 2 0 1 0 0 4 2 2 0 0 0 0-4Zm0 .6q1.4.2 1.5 1.5-.2 1.3-1.5 1.5-1.3-.2-1.5-1.5.2-1.3 1.5-1.5ZM154 65.1q0 1.1 1.3 1.2 1.4-.2 2-1.7l2.5-6.4c.4-1 1.2-1 1.4-1v-.4h-2.4v.5q.7 0 .7.6v.4l-1.6 3.6-1.7-4v-.3q.2-.4.8-.3v-.5h-3v.5q1-.1 1.1.5l2.3 5.5-.4.8c-.3.9-.7 1.9-1.7 1.9l-.7-.3q.7-.2.6-.6 0-.6-.7-.6-.5 0-.6.6Zm33 37.4h2.6v-.5q-.4-.1-.4-.5 0-.3 1.4-1.9l1.1 1.5.3.5q0 .3-.5.4v.5h3v-.5c-.8 0-1 0-1.4-.5l-2-2.6 1.4-1.7q.6-.7 1.8-.7V96h-2.7v.5q.4 0 .4.4t-.2.5l-1 1.2-1-1.5-.2-.3q0-.3.5-.3V96h-3v.5c1 0 1 0 1.7.9l1.5 1.9-1.4 1.8c-.7.9-1.6.9-2 .9Z"/></svg></svg>