<svg xmlns="http://www.w3.org/2000/svg" width="301.6" height="149.1" style="width:301.6000061035156px;height:149.0500030517578px;background:#fff;fill:none"><svg xmlns="http://www.w3.org/2000/svg"/><svg xmlns="http://www.w3.org/2000/svg" class="role-diagram-draw-area"><g class="shapes-region" style="stroke:#000;fill:none"><g class="composite-shape"><defs><pattern id="_pgf5eb0ixiwh" width="11.3" height="11.3" x="0" y="0" patternTransform="rotate(45 0 0)" patternUnits="userSpaceOnUse"><path d="M0 0v11.3M5.7 0v11.3M11.3 0v11.3" style="stroke:#eee;stroke-opacity:1;stroke-width:1;fill:none"/></pattern></defs><path d="M124.7 177.5H-4V90.2h.1V40.9l128.6 49.3z" class="real" style="stroke-width:1;stroke:#000;fill:url(#_pgf5eb0ixiwh);fill-opacity:1"/></g><g class="arrow-line"><path d="m182.4 80.3-13 37.8" class="connection real" style="stroke:#900;stroke-opacity:1;stroke-width:1;fill:none;fill-opacity:1"/><path fill="#900" stroke="none" d="M10.7-5.1 0 0l10.7 5.2L7.1 0Z" style="stroke:none;fill:#900;stroke-width:1" transform="rotate(-71 169 -57.7)"/></g><g class="composite-shape"><path d="m49.5 21 35.3 13.3L72 68.8 36.6 55.6Z" class="real" style="stroke-width:1;stroke:#900;stroke-opacity:1;fill:#900;fill-opacity:.5"/></g><g class="arrow-line"><path d="m53.5 64.9-13 37.7" class="connection real" style="stroke:#900;stroke-opacity:1;stroke-width:1;fill:none;fill-opacity:1"/><path fill="#900" stroke="none" d="M10.7-5.1 0 0l10.7 5.2L7.1 0Z" style="stroke:none;fill:#900;stroke-width:1" transform="rotate(109 5.1 50.4)"/></g><g class="arrow-line"><path d="m24.8 51.2 11.8 4.3" class="connection real" style="stroke:#900;stroke-opacity:1;stroke-width:1;fill:none;fill-opacity:1"/><path fill="#900" stroke="none" d="M10.7-5.1 0 0l10.7 5.2L7.1 0Z" style="stroke:none;fill:#900;stroke-width:1" transform="rotate(20.2 -129.6 86.6)"/></g><g class="arrow-line"><path d="m182.4 80.3.5 43" class="connection real" style="stroke:#900;stroke-opacity:.5;stroke-width:1;fill:none;fill-opacity:1"/><path fill="#900" fill-opacity=".5" stroke="none" d="M10.7-5.1 0 0l10.7 5.2L7.1 0Z" style="stroke:none;fill:#900;stroke-width:1" transform="rotate(-90.7 153.8 -27.2)"/><path stroke="#900" stroke-opacity=".5" d="M-5.6 0H5.6M0 5.6V-5.6" style="stroke:#900;stroke-width:1" transform="rotate(134.3 69.6 90.2)"/></g><g class="arrow-line"><path d="m195.4 42.5-13 37.8" class="connection real" style="stroke:#900;stroke-opacity:1;stroke-width:1;fill:none;fill-opacity:1"/><path fill="#900" stroke="none" d="M10.7-5.1 0 0l10.7 5.2L7.1 0Z" style="stroke:none;fill:#900;stroke-width:1" transform="rotate(109 84 89.8)"/></g><g class="arrow-line"><path d="m170.6 76 11.8 4.3" class="connection real" style="stroke:#900;stroke-opacity:1;stroke-width:1;fill:none;fill-opacity:1"/><path fill="#900" stroke="none" d="M10.7-5.1 0 0l10.7 5.2L7.1 0Z" style="stroke:none;fill:#900;stroke-width:1" transform="rotate(20.2 -126 507.5)"/></g><g class="composite-shape"><path d="M181.3 80.3a1.1 1.1 0 1 1 1.1 1.1q-1-.1-1.1-1Z" class="real" style="stroke-width:1;stroke:#000;fill:#000;fill-opacity:1"/></g><g class="arrow-line"><path d="M255.3 128.5h23" class="connection real" style="stroke:#000;stroke-width:1;fill:none;fill-opacity:1"/><path fill="#000" stroke="none" d="M9-4.3 0 0l9 4.3Z" style="stroke:none;fill:#000;stroke-width:1" transform="rotate(179.7 140.5 64.5)"/></g><g class="arrow-line"><path d="m255.3 128.5-.1-24.5" class="connection real" style="stroke:#000;stroke-width:1;fill:none;fill-opacity:1"/><path fill="#000" stroke="none" d="M9-4.3 0 0l9 4.3Z" style="stroke:none;fill:#000;stroke-width:1" transform="rotate(89.7 76.8 178.7)"/></g><g class="arrow-line"><path d="m182.4 80.3 11.8 4.4" class="connection real" style="stroke:#900;stroke-opacity:1;stroke-width:1;fill:none;fill-opacity:1"/><path fill="#900" stroke="none" d="M10.7-5.1 0 0l10.7 5.2L7.1 0Z" style="stroke:none;fill:#900;stroke-width:1" transform="rotate(200.2 106.1 25.3)"/></g><g class="composite-shape"><path stroke="none" d="M103.6 90.2q0-4.1 1.4-7.6l19.7 7.6Z" class="real" style="stroke-width:1;stroke:none;stroke-opacity:1;fill:none;fill-opacity:1"/><path d="M103.6 90.2q0-4.1 1.4-7.6" class="real" style="stroke-width:1;stroke:#900;stroke-opacity:1;fill:none;fill-opacity:1"/></g><g class="arrow-line"><path stroke-dasharray="3" d="M83 90.2h41.7" class="connection real" style="stroke:#000;stroke-width:1;fill:none;fill-opacity:1"/></g><g class="arrow-line"><path d="m64.9 67.8-13 37.8" class="connection real" style="stroke:#900;stroke-opacity:1;stroke-width:1;fill:none;fill-opacity:1"/><path fill="#900" stroke="none" d="M10.7-5.1 0 0l10.7 5.2L7.1 0Z" style="stroke:none;fill:#900;stroke-width:1" transform="rotate(-71 101.5 18.5)"/></g><g class="arrow-line"><path d="m78.4 51.8 11.8 4.4" class="connection real" style="stroke:#900;stroke-opacity:1;stroke-width:1;fill:none;fill-opacity:1"/><path fill="#900" stroke="none" d="M10.7-5.1 0 0l10.7 5.2L7.1 0Z" style="stroke:none;fill:#900;stroke-width:1" transform="rotate(200.2 51.6 20.3)"/></g></g></svg><svg xmlns="http://www.w3.org/2000/svg" xmlns:xlink="http://www.w3.org/1999/xlink" width="300" height="147.4" style="width:300px;height:147.4499969482422px;font-family:Asana-Math,Asana;background:#fff"><path fill="#fff" stroke="#fff" stroke-width=".1" d="m64.4 51.6-.5.2h-1.1q-.3 0-.1-.3l.3-.6 3-4.3.3-.6q.1-.5-.2-.6-.7-.3-2.4.2c-1.3.3-2 .7-3.3 1.5l1.3-2 .4-.6q0-.5-.3-.7-.7-.1-2.4.3c-1 .3-1.4.5-3 1.5l1.4-2 .3-.6q.1-.4-.2-.6t-2.5.4l-.6.2v.3l1.5-.3q.3.2.2.5c-.3.9-2.1 3.7-3.6 5.7v.2l1.2.2 1-1.5c1-1.6 1.7-2.4 3-3q1.5-.8 2.2-.6.2 0 0 .4-.2 1-2.8 4.8l-.7 1v.2l1.2.2 1-1.6a8 8 0 0 1 2.7-2.7q1.9-1 2.8-.8v.5c-.1.4-.3.6-1.1 1.8-1.6 2.3-2 2.6-2.3 3.4q-.1.6.3.8c.4.2 1 0 3-.5Z"/><path fill="#900" stroke="#900" stroke-width=".1" d="m29.9 106.3-5.9-10h-2.7l-.1.5h.6c.7 0 1.3.8 1.3 1l-1.5 8.5q-.3 1.3-1 1.3h-.5v.5h3.7v-.5h-.7q-.9 0-.8-.8v-.5l1.4-7.9 5.8 9.8h.8l1.6-9.4c.4-1.9.4-2 1-2h.7v-.5H30v.5h.7q.7 0 .6.4z"/><svg width="14.1" height="10" x="20" y="85.1" overflow="visible"><path d="m14 4.9-3-3.4-.6.5 2 2.4h-.2v.9h.2l-2 2.3.5.5zm-12.3.3h11.9v-.9h-12z" style="fill:#900;fill-opacity:1;stroke-width:1px;stroke:none;stroke-opacity:1"/></svg><path fill="#900" stroke="#900" stroke-width=".1" d="M21.2 32.4h-.3l.4-1.9q.4-2 1.5-2 .8 0 1.2.6h.2l.4-1.2v-.3l-1.1-.2-.6.1-2.2 1.7q-.5.4-.8 1.8l-.2 1.4-1.5.6v.4h1.3l-.1 1c-.5 3.2-1.2 6.4-1.5 7.6q-.6 1.5-1.5 1.5-.5 0-.9-.5h-.2l-.4 1.4.6.2q1.2-.1 2.3-1.4c1.2-1.4 1.5-3 3-9.8h1.7l.3-1v-.1z"/><svg width="10.2" height="10" x="15.3" y="16.9" overflow="visible"><path d="M10.2 4.9 7.1 1.4l-.5.5 1.9 2.4h-.2v.9h.2l-2 2.3.5.5zm-8.5.3h8v-.9h-8z" style="fill:#900;fill-opacity:1;stroke-width:1px;stroke:none;stroke-opacity:1"/></svg><path fill="#900" stroke="#900" stroke-width=".1" d="m25.6 44.6-.3 1.6q.6.3 1.3.3.9 0 1.7-.7.9-.7.9-1.5 0-1-1.3-1.1l-.5-.1q-1-.2-1-.9.1-1 1.3-1 .8 0 1 .5v.6h.4l.2-1.3q-.7-.4-1.2-.4a3 3 0 0 0-2 1q-.4.4-.4 1 0 1 1.2 1.2l.8.2q.7 0 .7.7Q28.3 46 27 46q-.6 0-1.1-.4v-1Zm185.6 4.1-5.8-10h-2.8v.4h.5c.8 0 1.4.9 1.4 1l-1.6 8.6q-.1 1.4-1 1.2h-.5v.6h3.8V50h-.7q-1-.1-.8-.8v-.5l1.4-8 5.7 9.9h.9l1.6-9.4c.3-2 .4-2 1-2h.6v-.5h-3.6v.4h.8q.6 0 .6.5z"/><svg width="14.1" height="10" x="201.3" y="27.4" overflow="visible"><path d="m14 4.9-3-3.4-.6.5 2 2.4h-.2v.9h.2l-2 2.3.5.5zm-12.3.3h11.9v-.9h-12z" style="fill:#900;fill-opacity:1;stroke-width:1px;stroke:none;stroke-opacity:1"/></svg><path fill="#900" stroke="#900" stroke-width=".1" d="M153.2 64.5h-.2l.3-1.9q.4-2.2 1.6-2.1.8 0 1.2.7l.1-.1.4-1.1.1-.3-1.2-.2-.6.1-2.2 1.6q-.4.6-.7 1.9l-.3 1.3-1.4.7-.1.3h1.4l-.2 1c-.5 3.3-1.1 6.5-1.5 7.6q-.5 1.5-1.4 1.6-.5 0-1-.5h-.2l-.4 1.4.6.1q1.2 0 2.3-1.3c1.2-1.4 1.6-3 3-9.9h1.8l.3-1h-.1z"/><svg width="10.2" height="10" x="147.4" y="48.9" overflow="visible"><path d="M10.2 4.9 7.1 1.4l-.5.5 1.9 2.4h-.2v.9h.2l-2 2.3.5.5zm-8.5.3h8v-.9h-8z" style="fill:#900;fill-opacity:1;stroke-width:1px;stroke:none;stroke-opacity:1"/></svg><path fill="#900" stroke="#900" stroke-width=".1" d="M157.6 76.7q0 .8-.3 1.5.7.4 1.3.4.8 0 1.7-.7.9-.8.9-1.5 0-1-1.3-1.2h-.5q-1-.2-1-.9.1-1 1.3-1.1.9 0 1.1.5v.7h.3l.2-1.4-1.2-.3a3 3 0 0 0-1.9 1q-.4.3-.4 1 0 .9 1.1 1.2l.8.1q.7.1.7.8 0 1.3-1.4 1.3-.6 0-1.1-.4v-1Z"/><path fill="#000" stroke="#000" stroke-width=".1" d="M252 97.2q.2 1 1.4 1.2c1 0 1.6-.9 2-1.7l2.6-6.4c.4-1 1.1-1 1.4-1v-.5h-2.5v.5q.7 0 .7.7v.3L256 94l-1.6-4-.1-.3q.2-.5.8-.4v-.5h-3v.5q1-.1 1.1.5l2.3 5.5-.4.9c-.3.8-.7 1.9-1.7 1.9l-.7-.3q.7-.2.6-.6 0-.7-.6-.7t-.7.7Zm32.3 35.6h2.6v-.5q-.4 0-.4-.5t1.3-1.9l1.2 1.5.3.5q0 .3-.5.4v.5h3v-.5q-1 .1-1.4-.5l-2-2.6q.7-1 1.4-1.6.6-.8 1.7-.8v-.5H289v.5q.4 0 .4.4l-.2.6-1 1.1-1.1-1.5-.1-.3q0-.3.5-.3v-.5h-3v.5c1 0 1 0 1.7.9l1.5 2-1.4 1.7q-1.2 1.2-2 1Z"/><path fill="#900" stroke="#900" stroke-width=".1" d="m205 88 1-.1c-1 1.3-2.7 2.7-2.7 5q0 2.3 1.5 2.4t3.2-3.4l-.2 1.6q0 1.7 1.3 1.8c2.3 0 4.9-4.2 4.9-6.7q-.1-1.6-1-1.7-.4 0-.6.2l-.9.8.2.3.5-.1q.7 0 .7 1c0 2.5-1.7 5.3-3.1 5.3q-.8 0-.9-1.6 0-1.4.4-2.6l.9-3.1-.1-.2-1.3.4-.5 2.5q-.2 1.4-1 2.7-1 2-1.8 2-1-.1-1-1.7a8 8 0 0 1 2.4-5.6l-.1-.3q-.5.3-1 .2h-2l-.2-.1-.5.1-.7 2h.4l.3-.7q.2-.5.9-.5z"/><svg width="13.1" height="10" x="202.1" y="76.1" overflow="visible"><path d="M13.1 4.9 10 1.4l-.5.5 1.9 2.4h-.2v.9h.2l-2 2.3.6.5zm-11.4.3h11v-.9h-11z" style="fill:#900;fill-opacity:1;stroke-width:1px;stroke:none;stroke-opacity:1"/></svg><path fill="#900" stroke="#900" stroke-width=".1" d="m215 101.6.5.1q.6 0 1.2-.9l.9-1.4.1.9q.3 1.5.9 1.4l1-.5.6-.5-.1-.3q-.6.6-1 .6-.2 0-.4-.4l-.3-1-.2-1.2.4-.6q.8-1 1.3-1 .3 0 .4.3h.1l.2-1.1-.3-.1q-.7 0-1.7 1.5l-.5.7v-.6q-.2-1.7-1.2-1.6-.5 0-.7.2l-.7 1 .2.1q.6-.6.8-.5.6-.1.9 1.6l.1.8-.4.7q-.9 1.2-1.3 1.2l-.3-.1-.2-.4h-.2zM144.2 112l1-.1c-1 1.3-2.6 2.7-2.6 5q0 2.3 1.5 2.4 1.4.1 3.2-3.4l-.2 1.6q0 1.7 1.3 1.8c2.3 0 4.9-4.2 4.9-6.7q-.1-1.6-1.1-1.7l-.6.2-.8.8.2.3.4-.1q.8 0 .8 1c0 2.5-1.7 5.3-3.1 5.3q-.8 0-.9-1.6 0-1.4.4-2.6l.9-3.2h-.2l-1.2.3-.5 2.5q-.2 1.3-1 2.7-1 1.9-1.8 2-1-.1-1-1.7a8 8 0 0 1 2.4-5.6l-.1-.3q-.5.3-1 .2h-2l-.2-.1-.5.1-.7 2h.4l.3-.7q.2-.5.9-.5z"/><svg width="13.1" height="10" x="141.4" y="100.1" overflow="visible"><path d="M13.1 4.9 10 1.4l-.5.5 1.9 2.4h-.2v.9h.2l-2 2.3.6.5zm-11.4.3h11v-.9h-11z" style="fill:#900;fill-opacity:1;stroke-width:1px;stroke:none;stroke-opacity:1"/></svg><path fill="#900" stroke="#900" stroke-width=".1" d="M154 127.7v.3q.1.8 1 .9c1.3 0 2.6-1.5 3.3-3.7l1.7-5.2-.2-.1-.8.2-.5 1.6q-.2 1-1 2c-.3.6-1 1.1-1.2 1.1l-.2-.6.2-2.4v-1.2q0-.7-.3-.7l-.9.4-1 .7.2.2.6-.3.3-.2q.3 0 .3.6v.2l-.3 3v.4q0 .8.5.8.9-.2 2.4-2.3l-.6 2q-.8 3-2 3a.7.7 0 0 1-.8-.8v-.2ZM90.9 81.3q-.2-2.5-2.6-2.7c-3.5 0-4 4-3.6 6.8.3 1.6 1 3 2.8 3 3.3 0 3.8-4.6 3.4-7.1Zm-1 1.6h-4.2c0-1.4.7-4 2.4-4 1.2 0 1.6 1.3 1.8 2.2zm0 .5c0 1.5-.3 4.5-2.2 4.5-1.4 0-1.8-1.5-2-2.5v-2Zm-24.5 22.1h1c-1 1.2-2.7 2.6-2.7 5q0 2.2 1.5 2.3t3.3-3.4l-.2 1.6q0 1.7 1.2 1.8c2.3 0 4.9-4.2 4.9-6.7q0-1.6-1-1.7l-.6.2-.9.8.2.4.5-.2q.7 0 .7 1c0 2.5-1.6 5.4-3 5.4q-1-.1-1-1.7 0-1.4.4-2.6l.9-3.1-.1-.2-1.3.4-.5 2.5q-.2 1.4-.9 2.7-1 2-1.8 2-1-.1-1-1.7a8 8 0 0 1 2.4-5.6l-.2-.3q-.5.3-1 .2h-2.7l-.6 2h.3l.3-.7q.3-.4.9-.4z"/><svg width="13.1" height="10" x="62.5" y="93.6" overflow="visible"><path d="M13.1 4.9 10 1.4l-.5.5 1.9 2.4h-.2v.9h.2l-2 2.3.6.5zm-11.4.3h11v-.9h-11z" style="fill:#900;fill-opacity:1;stroke-width:1px;stroke:none;stroke-opacity:1"/></svg><path fill="#900" stroke="#900" stroke-width=".1" d="M75.2 121.3v.2q0 .9 1 1c1.2 0 2.5-1.6 3.2-3.8l1.7-5.2-.1-.1-1 .2-.3 1.6-1 2q-.7 1-1.2 1.1-.3 0-.3-.5l.2-2.5V114q0-.7-.2-.7-.1-.1-1 .5l-.9.6.1.2.6-.3.3-.2q.3 0 .3.7v.1l-.2 3v.4q0 .8.5.9.8-.1 2.3-2.4l-.6 2q-.8 3-2 3a1 1 0 0 1-.7-.7v-.3h-.1Zm25.4-69.6h1c-1 1.2-2.6 2.6-2.6 5q0 2.2 1.5 2.3 1.4 0 3.2-3.3l-.2 1.5q0 1.6 1.3 1.8c2.2 0 4.8-4.2 4.8-6.7q0-1.6-1-1.7l-.6.2-.8.8.2.4.4-.2q.8 0 .8 1c0 2.6-1.7 5.4-3.1 5.4q-.8-.1-.9-1.6c0-.8.2-2 .4-2.7l.9-3.1-.2-.2-1.2.4-.5 2.6q-.3 1.4-1 2.6-1 2-1.8 2-1-.1-1-1.7a8 8 0 0 1 2.4-5.6l-.2-.3q-.4.3-1 .2h-2.6l-.7 2h.4l.3-.7q.2-.4.8-.4z"/><svg width="13.1" height="10" x="97.8" y="39.8" overflow="visible"><path d="M13.1 4.9 10 1.4l-.5.5 1.9 2.4h-.2v.9h.2l-2 2.3.6.5zm-11.4.3h11v-.9h-11z" style="fill:#900;fill-opacity:1;stroke-width:1px;stroke:none;stroke-opacity:1"/></svg><path fill="#900" stroke="#900" stroke-width=".1" d="m110.6 65.3.5.2q.7 0 1.3-1l.9-1.3.1.8q.2 1.5.9 1.5.3 0 1-.6l.6-.5-.1-.2-1 .5q-.2 0-.4-.4l-.3-1-.2-1.2.4-.5q.8-1.1 1.2-1 .3 0 .4.2h.2l.2-1-.4-.2q-.6 0-1.7 1.5l-.4.7v-.6q-.2-1.7-1.2-1.6-.5 0-.7.3l-.7 1h.2q.5-.5.8-.5.6 0 .9 1.6l.1.8-.5.7q-.8 1.2-1.2 1.2l-.4-.1v-.3h-.3z"/></svg></svg>