<svg xmlns="http://www.w3.org/2000/svg" width="222.6" height="112.15" style="width:222.60000610351562px;height:112.1500015258789px;background:0 0;fill:none"><svg xmlns="http://www.w3.org/2000/svg"/><svg xmlns="http://www.w3.org/2000/svg" class="role-diagram-draw-area" style="overflow:visible"><g class="shapes-region" style="stroke:#000;fill:none"><g class="composite-shape"><path d="m11.69 8.19 160.06 91.47v40H11.69z" class="real" style="stroke-width:1;stroke:#000;fill:none;fill-opacity:1"/></g><g class="composite-shape"><path stroke="none" d="M146.75 99.66c0-4.56 1.22-8.83 3.35-12.5l21.65 12.5Z" class="real" style="stroke-width:1;stroke:none;stroke-opacity:1;fill:none;fill-opacity:1"/><path d="M146.75 99.66c0-4.56 1.22-8.83 3.35-12.5" class="real" style="stroke-width:1;stroke:#900;stroke-opacity:1;fill:none;fill-opacity:1"/></g><g class="arrow-line"><path d="M57.45 32.97v40.14" class="connection real" style="stroke:#900;stroke-opacity:1;stroke-width:1;fill:none;fill-opacity:1"/><path fill="#900" stroke="none" d="M10.72-5.15 0 0l10.72 5.15L7.12 0Z" style="stroke:none;fill:#900;stroke-width:1" transform="rotate(-90 66.781 9.329)"/></g><g class="composite-shape"><path d="m58.7 11 16.79 9.79-10.02 17.2-16.79-9.79Z" class="real" style="stroke-width:1;stroke:#900;stroke-opacity:1;fill:#900;fill-opacity:.5"/></g><g class="arrow-line"><path d="M55.97 35.58 39.72 64.11" class="connection real" style="stroke:#900;stroke-opacity:1;stroke-width:1;fill:none;fill-opacity:1"/><path fill="#900" stroke="none" d="M10.72-5.15 0 0l10.72 5.15L7.12 0Z" style="stroke:none;fill:#900;stroke-width:1" transform="rotate(119.66 19.143 33.185)"/></g><g class="arrow-line"><path stroke-dasharray="3" d="M113.95 99.66h57.8" class="connection real" style="stroke:#000;stroke-width:1;fill:none;fill-opacity:1"/></g><g class="arrow-line"><path d="M178 51.55h23" class="connection real" style="stroke:#000;stroke-width:1;fill:none;fill-opacity:1"/><path fill="#000" stroke="none" d="M8.93-4.29 0 0l8.93 4.29Z" style="stroke:none;fill:#000;stroke-width:1" transform="matrix(-1 0 0 -1 204 51.55)"/></g><g class="arrow-line"><path d="M178 51.55v-24.5" class="connection real" style="stroke:#000;stroke-width:1;fill:none;fill-opacity:1"/><path fill="#000" stroke="none" d="M8.93-4.29 0 0l8.93 4.29Z" style="stroke:none;fill:#000;stroke-width:1" transform="rotate(90 76.975 101.025)"/></g></g></svg><svg xmlns="http://www.w3.org/2000/svg" xmlns:xlink="http://www.w3.org/1999/xlink" width="221" height="110.55" style="width:221px;height:110.55000305175781px;font-family:Asana-Math,Asana;background:0 0"><path fill="#900" stroke="#900" stroke-width=".109" d="M132.283 91.104c0-1.646-1.455-1.932-2.094-2.04 1.088-.844 1.496-1.47 1.496-2.272 0-1.21-1.007-2.012-2.516-2.012-.925 0-1.537.258-2.19.91l-.394 1.687h.421l.245-.761c.15-.463 1.007-.925 1.714-.925.884 0 1.605.72 1.605 1.577 0 1.02-.803 1.877-1.768 1.877-.11 0-.259-.013-.436-.027l-.204-.014-.163.721.095.082c.517-.231.776-.3 1.143-.3 1.129 0 1.781.721 1.781 1.959 0 1.387-.83 2.298-2.094 2.298-.626 0-1.183-.204-1.591-.584-.327-.3-.503-.612-.762-1.347l-.367.136c.286.83.394 1.32.476 2 .72.244 1.32.353 1.822.353 1.673 0 3.781-1.455 3.781-3.318Zm4.08-6.324c-2.108 0-3.182 1.672-3.182 4.964 0 1.59.285 2.964.761 3.63.476.667 1.238 1.048 2.081 1.048 2.054 0 3.087-1.768 3.087-5.25 0-2.978-.884-4.392-2.747-4.392Zm-.245.476c1.32 0 1.85 1.332 1.85 4.596 0 2.897-.517 4.094-1.768 4.094-1.32 0-1.877-1.374-1.877-4.692 0-2.87.503-3.998 1.795-3.998Zm6.161-.476a2.034 2.034 0 0 0-2.026 2.04c0 1.128.911 2.04 2.04 2.04 1.101 0 2.04-.925 2.04-2.013a2.055 2.055 0 0 0-2.054-2.067Zm0 .544c.83 0 1.51.68 1.51 1.523 0 .789-.68 1.469-1.496 1.469-.83 0-1.496-.667-1.496-1.496 0-.83.666-1.496 1.482-1.496ZM66.521 74.213c.286 0 .463-.014.803-.054-.748 1.006-2.095 2.148-2.095 4.052 0 1.116.476 1.864 1.197 1.864.87 0 1.578-.748 2.584-2.693-.122.598-.163.938-.163 1.251 0 .857.394 1.442 1.006 1.442 1.823 0 3.903-3.387 3.903-5.372 0-.776-.353-1.333-.843-1.333a.63.63 0 0 0-.449.163l-.68.64.15.258a.66.66 0 0 1 .367-.123c.367 0 .585.313.585.857 0 1.972-1.32 4.23-2.475 4.23-.395 0-.68-.544-.68-1.292 0-.64.122-1.537.285-2.122l.708-2.502-.096-.11-1.006.3-.394 2.026c-.164.844-.354 1.388-.748 2.122-.544 1.02-1.061 1.578-1.47 1.578-.475 0-.788-.53-.788-1.32 0-1.618.558-2.937 1.904-4.46l-.136-.245c-.272.122-.449.163-.83.163s-.952-.027-1.346-.068l-.163-.014c-.082-.013-.15-.013-.163-.013a1 1 0 0 0-.436.095c-.19.367-.34.857-.516 1.605h.299l.231-.571c.095-.232.367-.381.694-.381.462 0 .23.027.761.027Z"/><svg width="10.488" height="8" x="64.25" y="65.325" overflow="visible"><path d="M10.49 3.88 7.97 1.22l-.39.42L9.12 3.5H9v.72h.12L7.58 6.08l.39.42zm-9.14.31h8.77v-.72H1.35z" style="fill:#900;fill-opacity:1;stroke-width:1px;stroke:none;stroke-opacity:1"/></svg><path fill="#900" stroke="#900" stroke-width=".109" d="m33.365 61.15-4.692-8.011H26.47l-.068.38.476.028c.612.027 1.074.639 1.088.761l-1.265 6.855c-.163.843-.245.952-.734 1.006l-.422.041-.068.38 1.51-.04c.163 0 .177 0 1.496.04l.068-.38-.571-.04c-.544-.042-.667-.15-.667-.6 0-.108.014-.258.041-.407l1.088-6.31 4.597 7.847h.68l1.278-7.521c.286-1.537.313-1.591.816-1.632l.503-.027.041-.368-2.897-.013-.068.38.64.028c.353.013.49.109.49.326 0 .095-1.13 7.1-1.157 7.276Z"/><svg width="11.25" height="8" x="25.45" y="44.95" overflow="visible"><path d="M11.25 3.88 8.73 1.22l-.39.42L9.88 3.5h-.12v.72h.12L8.34 6.08l.39.42zm-9.9.31h9.54v-.72H1.35z" style="fill:#900;fill-opacity:1;stroke-width:1px;stroke:none;stroke-opacity:1"/></svg><path fill="#000" stroke="#000" stroke-width=".12" d="M173.91 19.11c0 .675.63 1.215 1.38 1.215.945 0 1.56-.855 1.92-1.71l2.64-6.405c.39-.945 1.155-.96 1.395-.96v-.465c-.345.03-.78.045-1.125.045-.27 0-.975-.03-1.305-.045v.465c.465.015.705.27.705.645 0 .15-.015.18-.09.36l-1.515 3.69-1.665-4.035c-.06-.15-.09-.21-.09-.27 0-.39.555-.39.84-.39v-.465c-.39.015-1.38.045-1.635.045-.405 0-1.005-.015-1.455-.045v.465c.72 0 1.005 0 1.215.525l2.25 5.475a22 22 0 0 1-.375.885c-.33.825-.75 1.86-1.71 1.86-.075 0-.42 0-.705-.27.465-.06.585-.39.585-.63 0-.39-.285-.63-.63-.63-.3 0-.63.195-.63.645Zm33.07 37.34c.39-.03.855-.045 1.245-.045.435 0 1.065.03 1.425.045v-.465c-.33-.045-.435-.24-.435-.465 0-.33.435-.825 1.35-1.905l1.14 1.5c.12.165.315.405.315.495 0 .135-.135.36-.54.375v.465c.45-.015 1.29-.045 1.62-.045.405 0 .99.015 1.44.045v-.465c-.81 0-1.08-.03-1.425-.465l-2.01-2.595c.45-.57 1.02-1.305 1.38-1.695.465-.54 1.08-.765 1.785-.78v-.465c-.39.03-.84.045-1.23.045-.45 0-1.245-.03-1.44-.045v.465c.315.03.435.225.435.465s-.15.435-.225.525l-.93 1.17-1.17-1.515c-.135-.15-.135-.18-.135-.27 0-.225.225-.36.525-.375v-.465c-.39.015-1.38.045-1.62.045-.315 0-1.02-.015-1.425-.045v.465c1.05 0 1.065.015 1.77.915l1.485 1.935-1.41 1.785a2.4 2.4 0 0 1-1.92.9Z"/></svg></svg>