<svg xmlns="http://www.w3.org/2000/svg" xmlns:xlink="http://www.w3.org/1999/xlink" x="0" y="0" width="182.6" height="112.15" style="
        width:182.6px;
        height:112.15px;
        background: transparent;
        fill: none;
">
        <svg xmlns="http://www.w3.org/2000/svg"/>
        
        <svg xmlns="http://www.w3.org/2000/svg" class="role-diagram-draw-area"><g class="shapes-region" style="stroke: black; fill: none;"><g class="composite-shape"><path class="real" d=" M11.69,8.19 L171.75,99.66 L11.69,99.66 Z" style="stroke-width: 1; stroke: rgb(0, 0, 0); fill: none; fill-opacity: 1;"/></g><g class="composite-shape"><path class="real" d=" M146.75,99.66 C146.75,99.66 146.75,99.66 146.75,99.66 C146.75,95.1 147.97,90.83 150.1,87.16 L171.75,99.66 Z" style="stroke-width: 1; stroke: none; stroke-opacity: 1; fill: none; fill-opacity: 1;"/><path class="real" d=" M146.75,99.66 C146.75,99.66 146.75,99.66 146.75,99.66 C146.75,95.1 147.97,90.83 150.1,87.16" style="stroke-width: 1; stroke: rgb(153, 0, 0); stroke-opacity: 1; fill: none; fill-opacity: 1;"/></g><g class="arrow-line"><path class="connection real" stroke-dasharray="" d="  M57.45,32.97 L31.17,86.36" style="stroke: rgb(153, 0, 0); stroke-opacity: 1; stroke-width: 1; fill: none; fill-opacity: 1;"/></g><g class="arrow-line"><path class="connection real" stroke-dasharray="" d="  M31.17,86.36 L57.45,99.79" style="stroke: rgb(153, 0, 0); stroke-opacity: 1; stroke-width: 1; fill: none; fill-opacity: 1;"/></g><g class="arrow-line"><path class="connection real" stroke-dasharray="" d="  M57.45,32.97 L57.45,99.79" style="stroke: rgb(153, 0, 0); stroke-opacity: 1; stroke-width: 1; fill: none; fill-opacity: 1;"/></g><g class="composite-shape"><path class="real" d=" M33.69,81.51 L38.48,83.99 L35.97,88.85 L31.17,86.36 Z" style="stroke-width: 1; stroke: rgb(0, 0, 0); stroke-opacity: 1; fill: none; fill-opacity: 1;"/></g><g class="composite-shape"><path class="real" d=" M58.12,91.71 L65,91.71 L65,98.68 L58.12,98.68 Z" style="stroke-width: 1; stroke: rgb(153, 0, 0); stroke-opacity: 1; fill: none; fill-opacity: 1;"/></g><g class="composite-shape"><path class="real" d=" M50.03,30.9 L56.08,34.18 L52.77,40.31 L46.71,37.04 Z" style="stroke-width: 1; stroke: rgb(0, 0, 0); stroke-opacity: 1; fill: none; fill-opacity: 1;"/></g><g class="composite-shape"><path class="real" d=" M58.7,11 L75.49,20.79 L65.47,37.99 L48.68,28.2 Z" style="stroke-width: 1; stroke: rgb(153, 0, 0); stroke-opacity: 1; fill: rgb(153, 0, 0); fill-opacity: 0.5;"/></g><g class="composite-shape"><path class="real" d=" M56.65,57.96 C53.21,57.85 49.95,57.05 46.99,55.68 L57.45,32.97 Z" style="stroke-width: 1; stroke: none; stroke-opacity: 1; fill: none; fill-opacity: 1;"/><path class="real" d=" M56.65,57.96 C53.21,57.85 49.95,57.05 46.99,55.68" style="stroke-width: 1; stroke: rgb(0, 0, 0); stroke-opacity: 1; fill: none; fill-opacity: 1;"/></g><g/></g><g/><g/><g/></svg>
        <svg xmlns="http://www.w3.org/2000/svg" xmlns:xlink="http://www.w3.org/1999/xlink" width="181" height="110.55000000000018" style="width:181px;height:110.55000000000018px;font-family:Asana-Math, Asana;background:transparent;"><g><g><g><g transform="matrix(1,0,0,1,135.6000244140625,96.55000000000004)"><path transform="matrix(0.0136,0,0,-0.0136,0,0)" d="M547 504C529 618 483 702 356 702C96 702 60 412 94 199C113 80 164 -16 300 -16C536 -16 576 316 547 504ZM478 381L162 381C169 485 213 676 342 676C428 676 461 585 472 517C479 472 478 426 478 381ZM478 349C473 237 454 13 311 13C209 13 181 125 169 203C161 252 162 301 162 349Z" stroke="rgb(153,0,0)" stroke-opacity="1" stroke-width="8" fill="rgb(153,0,0)" fill-opacity="1"></path></g></g></g></g><g><g><g><g transform="matrix(1,0,0,1,61.05,51.32500000000014)"><path transform="matrix(0.0136,0,0,-0.0136,0,0)" d="M602 332C590 412 544 473 457 473C372 473 284 404 258 322C239 261 247 86 249 17C152 41 108 116 94 206C72 343 134 432 257 468L261 475L254 485C109 462 -14 363 12 201C32 73 129 11 251 -6C255 -94 249 -182 246 -269L257 -277C278 -266 299 -258 320 -251L309 -4C494 0 632 142 602 332ZM534 317C560 156 464 32 307 15L309 178C310 267 305 440 426 440C496 440 525 375 534 317Z" stroke="rgb(153,0,0)" stroke-opacity="1" stroke-width="8" fill="rgb(153,0,0)" fill-opacity="1"></path></g></g></g></g><g><g><g><g transform="matrix(1,0,0,1,46.125,68.32500000000013)"><path transform="matrix(0.0136,0,0,-0.0136,0,0)" d="M9 1C24 -7 40 -11 52 -11C85 -11 124 18 155 65L231 182L242 113C255 28 278 -11 314 -11C336 -11 368 6 400 35L449 79L440 98C404 68 379 53 363 53C348 53 335 63 325 83C316 102 305 139 300 168L282 269L317 318C364 383 391 406 422 406C438 406 450 398 455 383L469 387L484 472C472 479 463 482 454 482C414 482 374 446 312 354L275 299L269 347C257 446 230 482 171 482C145 482 123 474 114 461L56 378L73 368C103 402 123 416 142 416C175 416 197 375 214 277L225 215L185 153C142 86 108 54 80 54C65 54 54 58 52 63L41 91L21 88C21 53 13 27 9 1Z" stroke="rgb(0,0,0)" stroke-opacity="1" stroke-width="8" fill="rgb(0,0,0)" fill-opacity="1"></path></g></g></g></g></svg>
</svg>
