<svg xmlns="http://www.w3.org/2000/svg" width="201.6" height="112.15" style="width:201.60001046316964px;height:112.14999825613839px;background:0 0;fill:none"><svg xmlns="http://www.w3.org/2000/svg"/><svg xmlns="http://www.w3.org/2000/svg" class="role-diagram-draw-area" style="overflow:visible"><g class="shapes-region" style="stroke:#000;fill:none"><g class="arrow-line"><path d="m11.04 99.66 218.27-88.19" class="connection real" style="stroke:#000;stroke-width:1;fill:none;fill-opacity:1"/></g><g class="arrow-line"><path d="m342.24 65.55-16.42-8.99" class="connection real" style="stroke:#900;stroke-opacity:1;stroke-width:1;fill:none;fill-opacity:1"/><path fill="#900" stroke="none" d="M10.72-5.15 0 0l10.72 5.15L7.12 0Z" style="stroke:none;fill:#900;stroke-width:1" transform="rotate(208.69 181 -10.604)"/></g><g class="arrow-line"><path d="m325.82 56.56-.28.48-17.27 29.64" class="connection real" style="stroke:#900;stroke-opacity:1;stroke-width:1;fill:none;fill-opacity:1"/><path fill="#900" stroke="none" d="M10.72-5.15 0 0l10.72 5.15L7.12 0Z" style="stroke:none;fill:#900;stroke-width:1" transform="rotate(-59.78 231.038 -222.211)"/></g><g class="arrow-line"><path d="m343.36 26.44-17.54 30.12" class="connection real" style="stroke:#900;stroke-opacity:1;stroke-width:1;fill:none;fill-opacity:1"/><path fill="#900" stroke="none" d="M10.72-5.15 0 0l10.72 5.15L7.12 0Z" style="stroke:none;fill:#900;stroke-width:1" transform="rotate(120.22 165.581 111.04)"/></g><g class="composite-shape"><path stroke="none" d="M34.23 90.29c1.17 2.89 1.81 6.06 1.81 9.37h-25Z" class="real" style="stroke-width:1;stroke:none;stroke-opacity:1;fill:none;fill-opacity:1"/><path d="M34.23 90.29c1.17 2.89 1.81 6.06 1.81 9.37" class="real" style="stroke-width:1;stroke:#900;stroke-opacity:1;fill:none;fill-opacity:1"/></g><g class="arrow-line"><path d="M116.54 45.7v40.13" class="connection real" style="stroke:#900;stroke-opacity:1;stroke-width:1;fill:none;fill-opacity:1"/><path fill="#900" stroke="none" d="M10.72-5.15 0 0l10.72 5.15L7.12 0Z" style="stroke:none;fill:#900;stroke-width:1" transform="rotate(-90 102.687 -13.853)"/></g><g class="composite-shape"><path d="m103.8 40.11 18.02-7.28 7.46 18.45-18.02 7.28Z" class="real" style="stroke-width:1;stroke:#900;stroke-opacity:1;fill:#900;fill-opacity:.5"/></g><g class="arrow-line"><path d="M104.16 50.14 68.22 64.66" class="connection real" style="stroke:#900;stroke-opacity:1;stroke-width:1;fill:none;fill-opacity:1"/><path fill="#900" stroke="none" d="M10.72-5.15 0 0l10.72 5.15L7.12 0Z" style="stroke:none;fill:#900;stroke-width:1" transform="rotate(158 48.704 34.902)"/></g><g class="arrow-line"><path stroke-dasharray="3" d="M11.04 99.66h57.8" class="connection real" style="stroke:#000;stroke-width:1;fill:none;fill-opacity:1"/></g><g class="composite-shape"><path d="M324.69 56.57c0-.62.49-1.13 1.11-1.13.62-.01 1.13.49 1.14 1.11s-.49 1.13-1.11 1.13a1.12 1.12 0 0 1-1.14-1.11Z" class="real" style="stroke-width:1;stroke:#000;fill:#000;fill-opacity:1"/></g><g class="arrow-line"><path d="m268.19 35.97-17.55 30.12" class="connection real" style="stroke:#900;stroke-opacity:1;stroke-width:1;fill:none;fill-opacity:1"/><path fill="#900" stroke="none" d="M10.72-5.15 0 0l10.72 5.15L7.12 0Z" style="stroke:none;fill:#900;stroke-width:1" transform="rotate(-59.78 184.313 -182.374)"/></g><g class="arrow-line"><path d="M268.19 35.97v40.14" class="connection real" style="stroke:#900;stroke-opacity:1;stroke-width:1;fill:none;fill-opacity:1"/><path fill="#900" stroke="none" d="M10.72-5.15 0 0l10.72 5.15L7.12 0Z" style="stroke:none;fill:#900;stroke-width:1" transform="rotate(-90 173.648 -94.538)"/></g><g class="arrow-line"><path d="m265.55 77.67-16.42-8.99" class="connection real" style="stroke:#900;stroke-opacity:1;stroke-width:1;fill:none;fill-opacity:1"/><path fill="#900" stroke="none" d="M10.72-5.15 0 0l10.72 5.15L7.12 0Z" style="stroke:none;fill:#900;stroke-width:1" transform="rotate(208.69 144.209 5.263)"/></g><g class="composite-shape"><path stroke="none" d="M268.19 49.91c-2.54 0-4.92-.68-6.97-1.86l6.97-12.08Z" class="real" style="stroke-width:1;stroke:none;stroke-opacity:1;fill:none;fill-opacity:1"/><path d="M268.19 49.91c-2.54 0-4.92-.68-6.97-1.86" class="real" style="stroke-width:1;stroke:#000;stroke-opacity:1;fill:none;fill-opacity:1"/></g><g class="arrow-line"><path d="M11.04 120.94V99.66" class="connection real" style="stroke:#000;stroke-width:1;fill:none;fill-opacity:1"/></g><g class="arrow-line"><path d="M158 97.55h23" class="connection real" style="stroke:#000;stroke-width:1;fill:none;fill-opacity:1"/><path fill="#000" stroke="none" d="M8.93-4.29 0 0l8.93 4.29Z" style="stroke:none;fill:#000;stroke-width:1" transform="matrix(-1 0 0 -1 184 97.55)"/></g><g class="arrow-line"><path d="M158 97.55v-24.5" class="connection real" style="stroke:#000;stroke-width:1;fill:none;fill-opacity:1"/><path fill="#000" stroke="none" d="M8.93-4.29 0 0l8.93 4.29Z" style="stroke:none;fill:#000;stroke-width:1" transform="rotate(90 43.975 114.025)"/></g><g class="arrow-line"><path d="m139.35 47.21-10.07 4.07" class="connection real" style="stroke:#900;stroke-opacity:1;stroke-width:1;fill:none;fill-opacity:1"/><path fill="#900" stroke="none" d="M10.72-5.15 0 0l10.72 5.15L7.12 0Z" style="stroke:none;fill:#900;stroke-width:1" transform="rotate(158 66.587 36.86)"/></g></g></svg><svg xmlns="http://www.w3.org/2000/svg" xmlns:xlink="http://www.w3.org/1999/xlink" width="200" height="110.55" style="width:200px;height:110.55000523158482px;font-family:Asana-Math,Asana;background:0 0"><path fill="#900" stroke="#900" stroke-width=".109" d="M48.618 95.137v.354c2.543 0 2.543-.041 3.032-.041.49 0 .49.04 3.115.04v-1.155c-1.564.068-2.19.013-4.706.068l2.475-2.625c1.32-1.4 1.728-2.149 1.728-3.169 0-1.564-1.061-2.53-2.788-2.53-.98 0-1.646.273-2.312.953l-.232 1.85h.395l.177-.626c.217-.79.707-1.13 1.618-1.13 1.17 0 1.918.735 1.918 1.891 0 1.02-.572 2.027-2.108 3.659Zm6.786 0v.354c2.543 0 2.543-.041 3.033-.041s.49.04 3.114.04v-1.155c-1.564.068-2.19.013-4.705.068l2.475-2.625c1.319-1.4 1.727-2.149 1.727-3.169 0-1.564-1.06-2.53-2.788-2.53-.98 0-1.646.273-2.312.953l-.231 1.85h.394l.177-.626c.218-.79.707-1.13 1.618-1.13 1.17 0 1.918.735 1.918 1.891 0 1.02-.571 2.027-2.108 3.659Zm9.275-9.057a2.034 2.034 0 0 0-2.026 2.04c0 1.128.911 2.04 2.04 2.04 1.101 0 2.04-.925 2.04-2.013a2.055 2.055 0 0 0-2.054-2.067Zm0 .544c.83 0 1.51.68 1.51 1.523 0 .789-.68 1.469-1.496 1.469-.83 0-1.496-.667-1.496-1.496 0-.83.666-1.496 1.482-1.496Zm61.155-8.411c.285 0 .462-.014.802-.054-.748 1.006-2.094 2.148-2.094 4.052 0 1.116.476 1.864 1.197 1.864.87 0 1.577-.748 2.583-2.693-.122.598-.163.938-.163 1.251 0 .857.395 1.442 1.007 1.442 1.822 0 3.903-3.387 3.903-5.372 0-.776-.354-1.333-.843-1.333a.63.63 0 0 0-.45.163l-.68.64.15.258a.66.66 0 0 1 .368-.123c.367 0 .584.313.584.857 0 1.972-1.319 4.23-2.475 4.23-.394 0-.68-.544-.68-1.292 0-.64.123-1.537.286-2.122l.707-2.502-.095-.11-1.006.3-.395 2.026c-.163.844-.353 1.388-.748 2.122-.544 1.02-1.06 1.578-1.469 1.578-.476 0-.788-.53-.788-1.32 0-1.618.557-2.937 1.904-4.46l-.136-.245c-.272.122-.45.163-.83.163s-.952-.027-1.347-.068l-.163-.014c-.081-.013-.15-.013-.163-.013a1 1 0 0 0-.435.095c-.19.367-.34.857-.517 1.605h.3l.23-.571c.096-.232.368-.381.694-.381.462 0 .231.027.762.027Z"/><svg width="10.487" height="8" x="123.563" y="69.325" overflow="visible"><path d="M10.49 3.88 7.97 1.22l-.39.42L9.12 3.5H9v.72h.12L7.58 6.08l.39.42zm-9.14.31h8.77v-.72H1.35z" style="fill:#900;fill-opacity:1;stroke-width:1px;stroke:none;stroke-opacity:1"/></svg><path fill="#900" stroke="#900" stroke-width=".109" d="m87.515 39.302 1.441-.055c.843 0 1.387.123 1.401.327l.109 1.21h.326c.041-.857.136-1.55.286-2.067-.3-.027-.68-.04-.911-.04l-.558.013-2.244.027h-.394c-.34 0-.884-.014-1.401-.027l-.667-.014-.04.381.761.027c.327.014.476.136.476.367 0 .19-.054.626-.122 1.034l-1.02 5.902c-.231 1.252-.231 1.265-.789 1.32l-.49.04-.054.381.462-.013c.544-.014.98-.028 1.265-.028.245 0 .64.014 1.17.028l.707.013.04-.38-.87-.041c-.367-.014-.49-.123-.49-.395 0-.081.014-.23.028-.285l.49-3.033h1.59c.368 0 .79.013 1.442.04l.354.014.258-.612-.054-.095a56 56 0 0 1-2.978.082h-.504l.626-3.686c.04-.218.054-.286.122-.435Z"/><svg width="8.225" height="8" x="83.625" y="30.487" overflow="visible"><path d="M8.23 3.88 5.71 1.22l-.39.42L6.86 3.5h-.12v.72h.12L5.32 6.08l.39.42zm-6.88.31h6.51v-.72H1.35z" style="fill:#900;fill-opacity:1;stroke-width:1px;stroke:none;stroke-opacity:1"/></svg><path fill="#900" stroke="#900" stroke-width=".136" d="m359.969 27.574-5.865-10.013h-2.754l-.085.476.595.034c.765.034 1.343.799 1.36.952l-1.581 8.568c-.204 1.054-.306 1.19-.918 1.258l-.527.051-.085.476 1.887-.051c.204 0 .221 0 1.87.051l.085-.476-.714-.051c-.68-.051-.833-.187-.833-.748 0-.136.017-.323.051-.51l1.36-7.888 5.746 9.809h.85l1.598-9.401c.357-1.921.391-1.989 1.02-2.04l.629-.034.051-.459-3.621-.017-.085.476.799.034c.442.017.612.136.612.408 0 .119-1.411 8.874-1.445 9.095Z"/><svg width="14.063" height="10" x="350.075" y="6.325" overflow="visible"><path d="m14.06 4.85-3.15-3.32-.49.52 1.93 2.33h-.15v.9h.15l-1.93 2.33.49.52zm-12.38.38H13.6v-.9H1.68z" style="fill:#900;fill-opacity:1;stroke-width:1px;stroke:none;stroke-opacity:1"/></svg><path fill="#900" stroke="#900" stroke-width=".136" d="M348.352 64.222c.357 0 .578-.017 1.003-.068-.935 1.258-2.618 2.686-2.618 5.066 0 1.394.595 2.33 1.496 2.33 1.088 0 1.972-.936 3.23-3.367-.153.748-.204 1.173-.204 1.564 0 1.071.493 1.802 1.258 1.802 2.278 0 4.879-4.233 4.879-6.715 0-.969-.442-1.666-1.054-1.666-.221 0-.425.068-.561.204l-.85.8.187.322a.8.8 0 0 1 .459-.153c.459 0 .73.391.73 1.071 0 2.465-1.648 5.287-3.093 5.287-.493 0-.85-.68-.85-1.615 0-.799.153-1.92.357-2.652l.884-3.128-.12-.136-1.257.374-.493 2.533c-.204 1.054-.442 1.734-.935 2.652-.68 1.275-1.326 1.972-1.836 1.972-.595 0-.986-.663-.986-1.649 0-2.023.697-3.672 2.38-5.576l-.17-.306c-.34.153-.561.204-1.037.204s-1.19-.034-1.683-.085l-.204-.017c-.102-.017-.187-.017-.204-.017-.204 0-.357.034-.544.12-.238.458-.425 1.07-.646 2.005h.374l.289-.714c.119-.289.459-.476.867-.476.578 0 .289.034.952.034Z"/><svg width="13.112" height="10" x="345.513" y="52.362" overflow="visible"><path d="M13.11 4.85 9.96 1.53l-.49.52 1.93 2.33h-.15v.9h.15L9.47 7.61l.49.52zm-11.43.38h10.97v-.9H1.68z" style="fill:#900;fill-opacity:1;stroke-width:1px;stroke:none;stroke-opacity:1"/></svg><path fill="#900" stroke="#900" stroke-width=".095" d="M358.382 77.85c.179.096.369.143.512.143.393 0 .857-.345 1.226-.904l.904-1.392.13.82c.156 1.012.43 1.476.858 1.476.261 0 .642-.202 1.023-.547l.583-.524-.107-.226c-.428.357-.726.536-.916.536-.179 0-.333-.12-.452-.357a4.7 4.7 0 0 1-.298-1.012l-.214-1.202.416-.583c.56-.773.88-1.047 1.25-1.047.19 0 .333.095.393.274l.166-.048.179-1.011c-.143-.084-.25-.12-.357-.12-.476 0-.952.43-1.69 1.524l-.44.654-.072-.57c-.143-1.179-.464-1.607-1.166-1.607-.31 0-.571.095-.678.25l-.69.987.202.12c.357-.405.595-.572.82-.572.394 0 .655.488.858 1.654l.13.738-.475.738c-.512.797-.917 1.178-1.25 1.178-.178 0-.31-.048-.333-.107l-.131-.333-.238.035c0 .417-.095.726-.143 1.036Z"/><path fill="#900" stroke="#900" stroke-width=".136" d="M287.639 88.21c.357 0 .578-.017 1.003-.068-.935 1.258-2.618 2.686-2.618 5.066 0 1.394.595 2.329 1.496 2.329 1.088 0 1.972-.935 3.23-3.366-.153.748-.204 1.173-.204 1.564 0 1.071.493 1.802 1.258 1.802 2.278 0 4.879-4.233 4.879-6.715 0-.969-.442-1.666-1.054-1.666-.221 0-.425.068-.561.204l-.85.799.187.323a.8.8 0 0 1 .459-.153c.459 0 .731.391.731 1.071 0 2.465-1.649 5.287-3.094 5.287-.493 0-.85-.68-.85-1.615 0-.799.153-1.921.357-2.652l.884-3.128-.119-.136-1.258.374-.493 2.533c-.204 1.054-.442 1.734-.935 2.652-.68 1.275-1.326 1.972-1.836 1.972-.595 0-.986-.663-.986-1.649 0-2.023.697-3.672 2.38-5.576l-.17-.306c-.34.153-.561.204-1.037.204s-1.19-.034-1.683-.085l-.204-.017c-.102-.017-.187-.017-.204-.017-.204 0-.357.034-.544.119-.238.459-.425 1.071-.646 2.006h.374l.289-.714c.119-.289.459-.476.867-.476.578 0 .289.034.952.034Z"/><svg width="13.112" height="10" x="284.8" y="76.35" overflow="visible"><path d="M13.11 4.85 9.96 1.53l-.49.52 1.93 2.33h-.15v.9h.15L9.47 7.61l.49.52zm-11.43.38h10.97v-.9H1.68z" style="fill:#900;fill-opacity:1;stroke-width:1px;stroke:none;stroke-opacity:1"/></svg><path fill="#900" stroke="#900" stroke-width=".095" d="M297.48 103.992c-.013.083-.013.155-.013.214 0 .512.44.928.976.928 1.262 0 2.57-1.475 3.273-3.677l1.678-5.236-.131-.107c-.345.131-.62.203-.881.226l-.416 1.571c-.143.56-.56 1.428-.952 2.011-.417.607-1 1.13-1.262 1.13-.143 0-.25-.273-.238-.57l.19-2.464c.024-.369.048-.82.048-1.154 0-.536-.083-.75-.286-.75-.154 0-.32.084-.892.476l-.976.667.131.214.595-.357c.06-.036.19-.143.298-.143.166 0 .261.226.261.619 0 .012 0 .083-.011.178l-.203 2.892-.012.476c0 .5.215.845.512.845.44 0 1.44-1.012 2.332-2.356l-.583 2.035c-.607 2.106-1.202 2.975-2.035 2.975a.727.727 0 0 1-.737-.738c0-.06.012-.155.023-.262l-.119-.048Z"/><path fill="#000" stroke="#000" stroke-width=".109" d="M246.083 46.566c0-1.645-1.455-1.931-2.094-2.04 1.088-.843 1.496-1.469 1.496-2.271 0-1.21-1.007-2.013-2.516-2.013-.925 0-1.537.259-2.19.911l-.394 1.687h.421l.245-.762c.15-.462 1.007-.925 1.714-.925.884 0 1.605.721 1.605 1.578 0 1.02-.803 1.877-1.768 1.877-.11 0-.259-.014-.436-.027l-.204-.014-.163.72.095.082c.517-.23.776-.299 1.143-.299 1.129 0 1.781.72 1.781 1.959 0 1.387-.83 2.298-2.094 2.298-.626 0-1.183-.204-1.591-.585-.327-.3-.503-.612-.762-1.346l-.367.136c.286.83.394 1.319.476 1.999.72.245 1.32.354 1.822.354 1.673 0 3.781-1.456 3.781-3.319Zm4.08-6.324c-2.108 0-3.182 1.673-3.182 4.964 0 1.591.285 2.965.761 3.631.476.667 1.238 1.048 2.081 1.048 2.054 0 3.087-1.768 3.087-5.25 0-2.978-.884-4.393-2.747-4.393Zm-.245.476c1.32 0 1.85 1.333 1.85 4.597 0 2.897-.517 4.094-1.768 4.094-1.32 0-1.877-1.374-1.877-4.692 0-2.87.503-3.999 1.795-3.999Zm6.161-.476a2.034 2.034 0 0 0-2.026 2.04c0 1.129.911 2.04 2.04 2.04 1.101 0 2.04-.925 2.04-2.013a2.055 2.055 0 0 0-2.054-2.067Zm0 .544c.83 0 1.51.68 1.51 1.523 0 .79-.68 1.47-1.496 1.47-.83 0-1.496-.667-1.496-1.497s.666-1.496 1.482-1.496Z"/><path fill="#000" stroke="#000" stroke-width=".12" d="M153.91 65.11c0 .675.63 1.215 1.38 1.215.945 0 1.56-.855 1.92-1.71l2.64-6.405c.39-.945 1.155-.96 1.395-.96v-.465c-.345.03-.78.045-1.125.045-.27 0-.975-.03-1.305-.045v.465c.465.015.705.27.705.645 0 .15-.015.18-.09.36l-1.515 3.69-1.665-4.035c-.06-.15-.09-.21-.09-.27 0-.39.555-.39.84-.39v-.465c-.39.015-1.38.045-1.635.045-.405 0-1.005-.015-1.455-.045v.465c.72 0 1.005 0 1.215.525l2.25 5.475a22 22 0 0 1-.375.885c-.33.825-.75 1.86-1.71 1.86-.075 0-.42 0-.705-.27.465-.06.585-.39.585-.63 0-.39-.285-.63-.63-.63-.3 0-.63.195-.63.645Zm33.07 37.34c.39-.03.855-.045 1.245-.045.435 0 1.065.03 1.425.045v-.465c-.33-.045-.435-.24-.435-.465 0-.33.435-.825 1.35-1.905l1.14 1.5c.12.165.315.405.315.495 0 .135-.135.36-.54.375v.465c.45-.015 1.29-.045 1.62-.045.405 0 .99.015 1.44.045v-.465c-.81 0-1.08-.03-1.425-.465l-2.01-2.595c.45-.57 1.02-1.305 1.38-1.695.465-.54 1.08-.765 1.785-.78v-.465c-.39.03-.84.045-1.23.045-.45 0-1.245-.03-1.44-.045v.465c.315.03.435.225.435.465s-.15.435-.225.525l-.93 1.17-1.17-1.515c-.135-.15-.135-.18-.135-.27 0-.225.225-.36.525-.375v-.465c-.39.015-1.38.045-1.62.045-.315 0-1.02-.015-1.425-.045v.465c1.05 0 1.065.015 1.77.915l1.485 1.935-1.41 1.785a2.4 2.4 0 0 1-1.92.9Z"/><path fill="#900" stroke="#900" stroke-width=".109" d="M140.205 29.294h-.218l.286-1.523c.217-1.17.598-1.686 1.224-1.686.408 0 .775.204.979.53l.136-.054c.068-.218.204-.64.313-.912l.068-.204c-.218-.095-.64-.176-.952-.176-.15 0-.368.04-.476.095-.327.15-1.442.98-1.755 1.305-.3.3-.462.708-.612 1.483l-.204 1.074c-.557.272-.83.381-1.17.503l-.067.3h1.101l-.122.761c-.408 2.652-.911 5.182-1.21 6.12-.245.803-.653 1.224-1.143 1.224-.313 0-.462-.095-.707-.394l-.19.054c-.055.313-.245.966-.313 1.088.122.068.326.11.476.11.557 0 1.292-.423 1.822-1.062.966-1.142 1.238-2.448 2.38-7.901h1.414a4.6 4.6 0 0 1 .232-.762l-.055-.095c-.394.095-.38.122-1.237.122Z"/><svg width="8.163" height="8" x="135.513" y="17.637" overflow="visible"><path d="M8.16 3.88 5.64 1.22l-.39.42L6.79 3.5h-.12v.72h.12L5.25 6.08l.39.42zm-6.81.31H7.8v-.72H1.35z" style="fill:#900;fill-opacity:1;stroke-width:1px;stroke:none;stroke-opacity:1"/></svg><path fill="#900" stroke="#900" stroke-width=".076" d="M143.695 38.861a8.4 8.4 0 0 1-.21 1.257c.362.171.686.257 1.02.257.466 0 .904-.172 1.39-.552s.685-.733.685-1.21c0-.514-.305-.79-1.01-.923l-.409-.076c-.571-.105-.752-.267-.752-.657 0-.505.429-.895.971-.895.39 0 .752.172.905.429v.523h.219a10 10 0 0 1 .18-1.076c-.37-.18-.637-.257-.952-.257-.495 0-1.075.286-1.532.743-.248.257-.353.495-.353.838 0 .533.296.837.924.961l.6.114c.419.077.57.248.57.62 0 .618-.437 1.037-1.113 1.037-.333 0-.628-.105-.895-.333v-.8Z"/></svg></svg>