<svg xmlns="http://www.w3.org/2000/svg" width="309.6" height="112.2" style="width:309.6000061035156px;height:112.1500015258789px;background:0 0;fill:none"><svg xmlns="http://www.w3.org/2000/svg"/><svg xmlns="http://www.w3.org/2000/svg" class="role-diagram-draw-area" style="overflow:visible"><g class="shapes-region" style="stroke:#000;fill:none"><g class="arrow-line"><path d="m279.2 65.6-16.4-9" class="connection real" style="stroke:#900;stroke-opacity:1;stroke-width:1;fill:none;fill-opacity:1"/><path fill="#900" stroke="none" d="M10.7-5.1 0 0l10.7 5.2L7.1 0Z" style="stroke:none;fill:#900;stroke-width:1" transform="rotate(208.7 149.5 -2.5)"/></g><g class="arrow-line"><path d="m262.8 56.6-.3.4-17.2 29.7" class="connection real" style="stroke:#900;stroke-opacity:1;stroke-width:1;fill:none;fill-opacity:1"/><path fill="#900" stroke="none" d="M10.7-5.1 0 0l10.7 5.2L7.1 0Z" style="stroke:none;fill:#900;stroke-width:1" transform="rotate(-59.8 199.5 -167.4)"/></g><g class="arrow-line"><path d="m280.4 26.4-17.6 30.2" class="connection real" style="stroke:#900;stroke-opacity:1;stroke-width:1;fill:none;fill-opacity:1"/><path fill="#900" stroke="none" d="M10.7-5.1 0 0l10.7 5.2L7.1 0Z" style="stroke:none;fill:#900;stroke-width:1" transform="rotate(120.2 134 93)"/></g><g class="composite-shape"><path d="m11.7 8.2 160 91.5v40h-160z" class="real" style="stroke-width:1;stroke:#000;fill:none;fill-opacity:1"/></g><g class="composite-shape"><path stroke="none" d="M146.8 99.7q0-7 3.3-12.5l21.7 12.5Z" class="real" style="stroke-width:1;stroke:none;stroke-opacity:1;fill:none;fill-opacity:1"/><path d="M146.8 99.7q0-7 3.3-12.5" class="real" style="stroke-width:1;stroke:#900;stroke-opacity:1;fill:none;fill-opacity:1"/></g><g class="arrow-line"><path d="M57.5 33v40" class="connection real" style="stroke:#900;stroke-opacity:1;stroke-width:1;fill:none;fill-opacity:1"/><path fill="#900" stroke="none" d="M10.7-5.1 0 0l10.7 5.2L7.1 0Z" style="stroke:none;fill:#900;stroke-width:1" transform="rotate(-90 66.8 9.3)"/></g><g class="composite-shape"><path d="m58.7 11 16.8 9.8-10 17.2-16.8-9.8Z" class="real" style="stroke-width:1;stroke:#900;stroke-opacity:1;fill:#900;fill-opacity:.5"/></g><g class="arrow-line"><path d="M56 35.6 39.7 64" class="connection real" style="stroke:#900;stroke-opacity:1;stroke-width:1;fill:none;fill-opacity:1"/><path fill="#900" stroke="none" d="M10.7-5.1 0 0l10.7 5.2L7.1 0Z" style="stroke:none;fill:#900;stroke-width:1" transform="rotate(119.7 19.1 33.2)"/></g><g class="arrow-line"><path stroke-dasharray="3" d="M114 99.7h57.8" class="connection real" style="stroke:#000;stroke-width:1;fill:none;fill-opacity:1"/></g><g class="composite-shape"><path d="M261.7 56.6q.1-1 1.1-1.2 1 .1 1.1 1.1 0 1.1-1 1.2-1.1-.1-1.2-1.1Z" class="real" style="stroke-width:1;stroke:#000;fill:#000;fill-opacity:1"/></g><g class="arrow-line"><path d="m205.2 36-17.6 30" class="connection real" style="stroke:#900;stroke-opacity:1;stroke-width:1;fill:none;fill-opacity:1"/><path fill="#900" stroke="none" d="M10.7-5.1 0 0l10.7 5.2L7.1 0Z" style="stroke:none;fill:#900;stroke-width:1" transform="rotate(-59.8 152.8 -127.6)"/></g><g class="arrow-line"><path d="M205.2 36v40" class="connection real" style="stroke:#900;stroke-opacity:1;stroke-width:1;fill:none;fill-opacity:1"/><path fill="#900" stroke="none" d="M10.7-5.1 0 0l10.7 5.2L7.1 0Z" style="stroke:none;fill:#900;stroke-width:1" transform="rotate(-90 142.1 -63)"/></g><g class="arrow-line"><path d="m202.6 77.7-16.5-9" class="connection real" style="stroke:#900;stroke-opacity:1;stroke-width:1;fill:none;fill-opacity:1"/><path fill="#900" stroke="none" d="M10.7-5.1 0 0l10.7 5.2L7.1 0Z" style="stroke:none;fill:#900;stroke-width:1" transform="rotate(208.7 112.7 13.3)"/></g><g class="composite-shape"><path stroke="none" d="M205.2 50q-3.9-.1-7-2l7-12Z" class="real" style="stroke-width:1;stroke:none;stroke-opacity:1;fill:none;fill-opacity:1"/><path d="M205.2 50q-3.9-.1-7-2" class="real" style="stroke-width:1;stroke:#000;stroke-opacity:1;fill:none;fill-opacity:1"/></g></g></svg><svg xmlns="http://www.w3.org/2000/svg" xmlns:xlink="http://www.w3.org/1999/xlink" width="308" height="110.6" style="width:308px;height:110.55000305175781px;font-family:Asana-Math,Asana;background:0 0"><path fill="#900" stroke="#900" stroke-width=".1" d="M132.3 91.1c0-1.6-1.5-2-2.1-2q1.5-1.2 1.5-2.3-.1-1.9-2.5-2-1.4 0-2.2.9l-.4 1.7h.4l.3-.8c.1-.4 1-1 1.7-1q1.4.2 1.6 1.7-.2 1.7-1.8 1.8h-.6l-.2.7v.1l1.2-.3q1.8 0 1.8 2-.1 2.2-2 2.3-1 0-1.7-.6-.4-.3-.7-1.4l-.4.2.5 2 1.8.3c1.7 0 3.8-1.4 3.8-3.3Zm4-6.3q-3 0-3.1 5c0 1.5.3 3 .7 3.6q.8 1 2.1 1 3 0 3.1-5.2 0-4.4-2.7-4.4Zm-.2.5q2-.2 1.9 4.6 0 4.1-1.8 4-2 .2-1.9-4.6c0-3 .5-4 1.8-4Zm6.2-.5a2 2 0 1 0 0 4 2 2 0 0 0 0-4Zm0 .5q1.4.2 1.5 1.5-.2 1.4-1.5 1.5-1.4-.2-1.5-1.5.2-1.3 1.5-1.5ZM66.5 74.2h.8c-.7 1-2 2.1-2 4q0 1.8 1.1 1.9t2.6-2.7l-.2 1.2q0 1.4 1 1.5c1.9 0 4-3.4 4-5.4q0-1.2-.9-1.3l-.4.1-.7.7.1.2h.4q.6 0 .6.8c0 2-1.3 4.2-2.5 4.2q-.7 0-.7-1.3L70 76l.7-2.5v-.1l-1 .3-.5 2q-.1 1.1-.7 2.1-.8 1.5-1.5 1.6-.8 0-.8-1.3 0-2.3 2-4.5l-.2-.2-.8.1H65l-.6 1.6h.3l.3-.5q0-.4.7-.4z"/><svg width="10.5" height="8" x="64.3" y="65.3" overflow="visible"><path d="M10.5 3.9 8 1.2l-.4.4L9 3.5v.7h.1L7.6 6.1l.4.4zm-9.1.3H10v-.7H1.4z" style="fill:#900;fill-opacity:1;stroke-width:1px;stroke:none;stroke-opacity:1"/></svg><path fill="#900" stroke="#900" stroke-width=".1" d="m33.4 61.1-4.7-8h-2.2l-.1.4h.5c.6 0 1 .7 1 .8l-1.2 6.9q-.1 1.1-.7 1h-.5v.4h3v-.4H28q-.8 0-.7-.6v-.4l1.1-6.3 4.6 7.8h.7l1.3-7.5c.3-1.6.3-1.6.8-1.7h.5v-.3h-2.8l-.1.3h.6q.5 0 .5.4z"/><svg width="11.3" height="8" x="25.5" y="45" overflow="visible"><path d="M11.3 3.9 8.7 1.2l-.4.4L10 3.5h-.1v.7L8.4 6.1l.4.4zm-10 .3H11v-.7H1.4z" style="fill:#900;fill-opacity:1;stroke-width:1px;stroke:none;stroke-opacity:1"/></svg><path fill="#900" stroke="#900" stroke-width=".1" d="m297 27.6-5.9-10h-2.7l-.1.4h.6c.7.1 1.3.9 1.3 1l-1.6 8.6q-.2 1.4-.9 1.2l-.5.1v.5h3.7v-.5h-.7q-.9 0-.8-.8v-.5l1.4-7.9 5.8 9.8h.8l1.6-9.4c.4-2 .4-2 1-2h.7v-.5h-3.6l-.1.4h.8q.6 0 .6.5z"/><svg width="14.1" height="10" x="287.1" y="6.3" overflow="visible"><path d="m14 4.9-3-3.4-.6.5 2 2.4h-.2v.9h.2l-2 2.3.5.5zm-12.3.3h11.9v-.9h-12z" style="fill:#900;fill-opacity:1;stroke-width:1px;stroke:none;stroke-opacity:1"/></svg><path fill="#900" stroke="#900" stroke-width=".1" d="M285.4 64.2h1c-1 1.2-2.7 2.6-2.7 5q0 2.2 1.5 2.3t3.3-3.3l-.2 1.5q0 1.7 1.2 1.8c2.3 0 4.9-4.2 4.9-6.7q0-1.5-1-1.6-.4 0-.6.2l-.9.8.2.3.5-.2q.6 0 .7 1.1c0 2.5-1.6 5.3-3 5.3q-1-.1-1-1.6c0-.8.2-2 .4-2.7l.9-3.1-.1-.1-1.3.3-.5 2.6q-.2 1.4-.9 2.6-1 2-1.8 2-1-.1-1-1.6a8 8 0 0 1 2.4-5.6l-.2-.3-1 .2-1.7-.1h-1l-.6 2h.3l.3-.6q.3-.5.9-.5z"/><svg width="13.1" height="10" x="282.5" y="52.4" overflow="visible"><path d="M13.1 4.9 10 1.4l-.5.5 1.9 2.4h-.2v.9h.2l-2 2.3.6.5zm-11.4.3h11v-.9h-11z" style="fill:#900;fill-opacity:1;stroke-width:1px;stroke:none;stroke-opacity:1"/></svg><path fill="#900" stroke="#900" stroke-width=".1" d="M295.4 77.9h.5q.7 0 1.2-.8l1-1.4v.8q.3 1.5 1 1.5.4 0 1-.6l.5-.5v-.2q-.7.6-1 .5-.2 0-.5-.3l-.3-1-.2-1.2.4-.6q.9-1.1 1.3-1 .3 0 .4.2h.2l.1-1-.3-.2q-.7 0-1.7 1.5l-.5.7v-.6q-.2-1.6-1.2-1.6-.5 0-.7.3l-.7 1h.2q.5-.5.9-.5t.8 1.7l.2.7-.5.7q-.8 1.2-1.3 1.2h-.3l-.1-.4h-.3zm-70.8 10.3h1c-.9 1.2-2.6 2.6-2.6 5q0 2.2 1.5 2.3t3.2-3.3l-.2 1.5q0 1.7 1.3 1.8c2.3 0 4.9-4.2 4.9-6.7q-.1-1.5-1-1.6-.4 0-.6.2l-.9.8.2.3.5-.2q.7 0 .7 1.1c0 2.5-1.7 5.3-3.1 5.3q-.8-.1-.8-1.6c0-.8.1-2 .3-2.7l.9-3.1-.1-.1-1.3.3-.5 2.6q-.2 1.4-1 2.6-1 2-1.7 2-1-.1-1-1.7a8 8 0 0 1 2.3-5.5l-.1-.3-1 .2-1.7-.1h-1l-.6 2h.3l.3-.6q.2-.5.9-.5z"/><svg width="13.1" height="10" x="221.8" y="76.4" overflow="visible"><path d="M13.1 4.9 10 1.4l-.5.5 1.9 2.4h-.2v.9h.2l-2 2.3.6.5zm-11.4.3h11v-.9h-11z" style="fill:#900;fill-opacity:1;stroke-width:1px;stroke:none;stroke-opacity:1"/></svg><path fill="#900" stroke="#900" stroke-width=".1" d="M234.5 104v.2q0 .9 1 1 2-.2 3.2-3.7l1.7-5.3h-.1l-1 .1-.3 1.6-1 2q-.7 1-1.2 1.2-.3 0-.3-.6l.2-2.5v-1q0-.8-.2-.8l-1 .5-.9.7.1.2.6-.4.3-.1q.3 0 .3.6v.2l-.2 2.9v.4q0 .8.5.9.8-.1 2.3-2.4l-.6 2q-.8 3.1-2 3a1 1 0 0 1-.8-.7v-.3Z"/><path fill="#000" stroke="#000" stroke-width=".1" d="M183 46.6c0-1.7-1.4-2-2-2q1.5-1.3 1.5-2.3-.1-2-2.5-2-1.4 0-2.2.9l-.4 1.6h.4l.3-.7c.1-.5 1-1 1.7-1q1.4.2 1.6 1.6c0 1-.8 2-1.8 2l-.4-.1h-.2l-.2.7 1.2-.2q1.8 0 1.8 2-.1 2-2 2.2-1 0-1.7-.6-.4-.3-.7-1.3l-.4.1.5 2q1 .4 1.8.4c1.7 0 3.8-1.5 3.8-3.3Zm4.2-6.4q-3.2 0-3.2 5 0 2.6.7 3.6.8 1 2.1 1 3 0 3.1-5.2 0-4.4-2.7-4.4Zm-.3.5q2-.1 1.9 4.6 0 4.3-1.8 4.1-2 .1-1.9-4.7 0-4.2 1.8-4Zm6.2-.5a2 2 0 1 0 0 4 2 2 0 0 0 0-4Zm0 .6q1.4.2 1.5 1.5-.2 1.3-1.5 1.5-1.3-.2-1.5-1.5.2-1.3 1.5-1.5Z"/></svg></svg>