<svg xmlns="http://www.w3.org/2000/svg" width="341.6" height="203.8" style="width:341.6000061035156px;height:203.8249969482422px;background:#fff;fill:none"><svg xmlns="http://www.w3.org/2000/svg"/><svg xmlns="http://www.w3.org/2000/svg" class="role-diagram-draw-area" style="overflow:visible"><g class="shapes-region" style="stroke:#000;fill:none"><g class="composite-shape"><defs><pattern id="_pgfuxuapiox7dg-full-view" width="11.3" height="11.3" x="0" y="0" patternTransform="rotate(45 0 0)" patternUnits="userSpaceOnUse"><path d="M0 0v11.3M5.7 0v11.3M11.3 0v11.3" style="stroke:#eee;stroke-opacity:1;stroke-width:1;fill:none"/></pattern></defs><path d="M206.2 118.6h137v108.1h-137Z" class="real" style="stroke-width:1;stroke:#000;fill:url(#_pgfuxuapiox7dg-full-view);fill-opacity:1"/></g><g class="composite-shape"><defs><pattern id="_pgfp0x6ivdb1dg-full-view" width="11.3" height="11.3" x="0" y="0" patternTransform="rotate(45 0 0)" patternUnits="userSpaceOnUse"><path d="M0 0v11.3M5.7 0v11.3M11.3 0v11.3" style="stroke:#eee;stroke-opacity:1;stroke-width:1;fill:none"/></pattern></defs><path d="M126.7 228.2H-2V141h.1V91.6L126.7 141z" class="real" style="stroke-width:1;stroke:#000;fill:url(#_pgfp0x6ivdb1dg-full-view);fill-opacity:1"/></g><g class="composite-shape"><path d="m58.2 74.3 35.1 13.6L80 122.3l-35.2-13.7Z" class="real" style="stroke-width:1;stroke:#900;stroke-opacity:1;fill:#900;fill-opacity:.5"/></g><g class="composite-shape"><path stroke="none" d="M105.6 141q0-4 1.4-7.7l19.7 7.6Z" class="real" style="stroke-width:1;stroke:none;stroke-opacity:1;fill:none;fill-opacity:1"/><path d="M105.6 141q0-4 1.4-7.7" class="real" style="stroke-width:1;stroke:#900;stroke-opacity:1;fill:none;fill-opacity:1"/></g><g class="arrow-line"><path stroke-dasharray="3" d="M85 141h41.7" class="connection real" style="stroke:#000;stroke-width:1;fill:none;fill-opacity:1"/></g><g class="arrow-line"><path d="M69 117.9v43" class="connection real" style="stroke:#900;stroke-opacity:1;stroke-width:1;fill:none;fill-opacity:1"/><path fill="#900" stroke="none" d="M10.7-5.1 0 0l10.7 5.2L7.1 0Z" style="stroke:none;fill:#900;stroke-width:1" transform="rotate(-90 116.5 47.4)"/></g><g class="arrow-line"><path d="M57.5 56.5h23" class="connection real" style="stroke:#000;stroke-width:1;fill:none;fill-opacity:1"/><path fill="#000" stroke="none" d="M9-4.3 0 0l9 4.3Z" style="stroke:none;fill:#000;stroke-width:1" transform="matrix(-1 0 0 -1 83.5 56.5)"/></g><g class="arrow-line"><path d="M57.5 56.5V32" class="connection real" style="stroke:#000;stroke-width:1;fill:none;fill-opacity:1"/><path fill="#000" stroke="none" d="M9-4.3 0 0l9 4.3Z" style="stroke:none;fill:#000;stroke-width:1" transform="rotate(90 14.2 43.3)"/></g><g class="arrow-line"><path d="M138.7 104.7h-49" class="connection real" style="stroke:#900;stroke-opacity:1;stroke-width:1;fill:none;fill-opacity:1"/><path fill="#900" stroke="none" d="M10.7-5.1 0 0l10.7 5.2L7.1 0Z" style="stroke:none;fill:#900;stroke-width:1" transform="translate(86.7 104.7)"/></g><g class="composite-shape"><path d="M240.2 81.8H278v36.9h-37.8Z" class="real" style="stroke-width:1;stroke:#900;stroke-opacity:1;fill:#900;fill-opacity:.5"/></g><g class="arrow-line"><path d="m266.1 118.6 15.3 40.1" class="connection real" style="stroke:#900;stroke-opacity:1;stroke-width:1;fill:none;fill-opacity:1"/><path fill="#900" stroke="none" d="M10.7-5.1 0 0l10.7 5.2L7.1 0Z" style="stroke:none;fill:#900;stroke-width:1" transform="rotate(249.1 196.9 -16.5)"/></g><g class="arrow-line"><path d="m261.4 58.4 21.5-8.2" class="connection real" style="stroke:#000;stroke-width:1;fill:none;fill-opacity:1"/><path fill="#000" stroke="none" d="M9-4.3 0 0l9 4.3Z" style="stroke:none;fill:#000;stroke-width:1" transform="rotate(159.1 138.3 50.9)"/></g><g class="arrow-line"><path d="m261.4 58.4-8.7-23" class="connection real" style="stroke:#000;stroke-width:1;fill:none;fill-opacity:1"/><path fill="#000" stroke="none" d="M9-4.3 0 0l9 4.3Z" style="stroke:none;fill:#000;stroke-width:1" transform="rotate(69.1 102 199)"/></g><g class="arrow-line"><path d="m326.5 81.5-45.8 17.4" class="connection real" style="stroke:#900;stroke-opacity:1;stroke-width:1;fill:none;fill-opacity:1"/><path fill="#900" stroke="none" d="M10.7-5.1 0 0l10.7 5.2L7.1 0Z" style="stroke:none;fill:#900;stroke-width:1" transform="rotate(-20.9 410.3 -704)"/></g><g class="arrow-line"><path stroke-dasharray="3" d="M55.7 152.2 69.1 118" class="connection real" style="stroke:#000;stroke-width:1;fill:none;fill-opacity:1"/></g><g class="composite-shape"><path stroke="none" d="M69 139q-3.9 0-7.5-1.4l7.6-19.7Z" class="real" style="stroke-width:1;stroke:none;stroke-opacity:1;fill:none;fill-opacity:1"/><path d="M69 139q-3.9 0-7.5-1.4" class="real" style="stroke-width:1;stroke:#900;stroke-opacity:1;fill:none;fill-opacity:1"/></g><g class="arrow-line"><path stroke-dasharray="3" d="M266.1 161.4v-42.8" class="connection real" style="stroke:#000;stroke-width:1;fill:none;fill-opacity:1"/></g><g class="composite-shape"><path stroke="none" d="M274 138.5q-3.7 1.4-7.6 1.5l-.3-21.1Z" class="real" style="stroke-width:1;stroke:none;stroke-opacity:1;fill:none;fill-opacity:1"/><path d="M274 138.5q-3.7 1.4-7.6 1.5" class="real" style="stroke-width:1;stroke:#900;stroke-opacity:1;fill:none;fill-opacity:1"/></g><g class="arrow-line"><path stroke-dasharray="3" d="m103.5 91 35.2 13.7" class="connection real" style="stroke:#000;stroke-width:1;fill:none;fill-opacity:1"/></g><g class="composite-shape"><path stroke="none" d="M117.6 104.7q0-4 1.4-7.5l19.7 7.5Z" class="real" style="stroke-width:1;stroke:none;stroke-opacity:1;fill:none;fill-opacity:1"/><path d="M117.6 104.7q0-4 1.4-7.5" class="real" style="stroke-width:1;stroke:#900;stroke-opacity:1;fill:none;fill-opacity:1"/></g><g class="arrow-line"><path d="M119.9 79.7c40.3 13.8-47.8 8-4 20.3" class="connection real" style="stroke:#900;stroke-width:1;fill:none;fill-opacity:1;stroke-opacity:1"/><path stroke="#900" d="M11-3.3Q5-.5 0 0q5 .5 11 3.3" style="stroke:#900;stroke-width:1" transform="rotate(195.2 65.4 42.4)"/></g><g class="arrow-line"><path stroke-dasharray="3" d="M326.5 81.5h-31.6" class="connection real" style="stroke:#000;stroke-width:1;fill:none;fill-opacity:1"/></g><g class="composite-shape"><path stroke="none" d="M307 89.4a21 21 0 0 1-1.6-7.6l21-.3Z" class="real" style="stroke-width:1;stroke:none;stroke-opacity:1;fill:none;fill-opacity:1"/><path d="M307 89.4a21 21 0 0 1-1.6-7.6" class="real" style="stroke-width:1;stroke:#900;stroke-opacity:1;fill:none;fill-opacity:1"/></g></g></svg><svg xmlns="http://www.w3.org/2000/svg" xmlns:xlink="http://www.w3.org/1999/xlink" width="340" height="202.2" style="width:340px;height:202.22500610351562px;font-family:Asana-Math,Asana;background:#fff"><path fill="#fff" stroke="#fff" stroke-width=".1" d="m72.7 105-.5.2H71v-.3l.3-.6 3-4.3.3-.6q.1-.5-.2-.6-.7-.3-2.4.2c-1.3.3-2 .7-3.2 1.5l1.3-2 .3-.6q.1-.5-.2-.7-.7-.3-2.5.2c-.9.3-1.3.5-2.9 1.5l1.3-1.9.4-.6q.1-.5-.2-.7t-2.5.4l-.6.1v.4l1.5-.2q.3 0 .2.5c-.4.8-2.2 3.6-3.7 5.6v.2l1.2.2 1-1.5q1.4-2.2 3-3 1.5-.8 2.3-.5.1 0 0 .4-.3.8-3 4.7l-.6 1v.2l1.2.2 1-1.6a8 8 0 0 1 2.7-2.7q2-1 2.8-.7v.5c-.1.4-.2.6-1.1 1.8-1.6 2.3-2 2.6-2.3 3.4q-.2.6.2.8c.4.2 1.1 0 3.1-.5Z"/><path fill="#900" stroke="#900" stroke-width=".1" d="m65.6 175 1-.1c-.9 1.2-2.6 2.6-2.6 5q0 2.2 1.5 2.3t3.2-3.3l-.2 1.5q0 1.7 1.3 1.8c2.3 0 4.9-4.2 4.9-6.7q-.1-1.5-1-1.6-.4 0-.6.2l-.9.8.2.3.5-.2q.7 0 .7 1.1c0 2.5-1.7 5.3-3.1 5.3q-.8-.1-.8-1.6c0-.8.1-2 .3-2.7l.9-3.1-.1-.1-1.3.3-.5 2.6q-.2 1.4-1 2.6-1 2-1.7 2-1-.1-1-1.6a8 8 0 0 1 2.3-5.6l-.1-.3-1 .2-1.7-.1h-1l-.6 2h.3l.3-.6q.2-.5.9-.5z"/><svg width="13.1" height="10" x="62.8" y="163.1" overflow="visible"><path d="M13.1 4.9 10 1.4l-.5.5 1.9 2.4h-.2v.9h.2l-2 2.3.6.5zm-11.4.3h11v-.9h-11z" style="fill:#900;fill-opacity:1;stroke-width:1px;stroke:none;stroke-opacity:1"/></svg><path fill="#900" stroke="#900" stroke-width=".1" d="M92.9 132c-.2-1.5-.9-2.7-2.6-2.7-3.5 0-4 4-3.6 6.9.3 1.6 1 3 2.8 3 3.3 0 3.8-4.6 3.4-7.2Zm-1 1.7h-4.2c0-1.4.7-4 2.4-4 1.2 0 1.6 1.2 1.8 2.2zm0 .4c0 1.6-.3 4.6-2.2 4.6-1.4 0-1.8-1.5-2-2.6v-2Z"/><path fill="#000" stroke="#000" stroke-width=".1" d="M53.4 24q.1 1.3 1.4 1.3c1 0 1.6-.9 2-1.7l2.6-6.4c.3-1 1.1-1 1.3-1v-.4h-2.4v.4q.7 0 .7.7v.3L57.3 21l-1.6-4-.1-.3q.2-.5.8-.4v-.4h-3v.4q1-.1 1.1.6l2.3 5.4-.4 1c-.3.7-.7 1.8-1.7 1.8l-.7-.3q.6-.1.6-.6t-.7-.7q-.5 0-.6.7Zm33.1 37.4H89V61q-.4-.1-.4-.5 0-.3 1.4-2l1.1 1.6.3.5q0 .2-.5.4v.4h3V61c-.8 0-1 0-1.4-.5l-2-2.6 1.4-1.7q.6-.8 1.8-.8V55H91v.4q.4.1.4.5l-.2.5-1 1.2-1-1.5-.2-.3q0-.4.5-.4V55h-3v.4c1 0 1 0 1.7 1l1.5 1.9-1.4 1.8q-1.2 1-2 .9Z"/><path fill="#900" stroke="#900" stroke-width=".1" d="M109 116.6h1.7q1.6 0 1.8.3l.1 1.5h.4q0-1.5.4-2.5h-7.8v.4h1q.5 0 .5.5l-.1 1.3-1.3 7.3c-.3 1.6-.3 1.6-1 1.7h-.6v.5h4.5v-.5h-1q-.7 0-.7-.5v-.4l.7-3.7h4.2l.3-.7v-.2l-3.8.1h-.6l.8-4.6.1-.5Z"/><svg width="10.3" height="10" x="104" y="104.6" overflow="visible"><path d="M10.3 4.9 7 1.4l-.5.5 2 2.4h-.2v.9h.2l-2 2.3.5.5zm-8.6.3h8.1v-.9H1.7z" style="fill:#900;fill-opacity:1;stroke-width:1px;stroke:none;stroke-opacity:1"/></svg><path fill="#fff" stroke="#fff" stroke-width=".1" d="m265 105.3-.5.3-1 .5q-.3 0-.3-.3l.1-.7 1.3-5 .1-.8q0-.4-.4-.4-.7 0-2.2 1-1.4 1-2.5 2.5l.5-2.3.1-.7q0-.5-.4-.5-.8 0-2.2 1c-.8.6-1.1 1-2.2 2.5l.5-2.3.1-.7q0-.5-.3-.5-.5 0-2.3 1.2l-.5.4.1.3 1.4-.8q.3 0 .3.4c0 .9-.7 4.2-1.4 6.6v.2l1.2-.3.4-1.7c.4-1.9.8-2.9 1.8-3.9q1.1-1.2 2-1.3l.1.4q0 1-1 5.5l-.3 1.1v.2l1.2-.3.4-1.8q.4-2 1.6-3.5 1.5-1.5 2.3-1.6l.2.4c0 .4 0 .7-.4 2.2-.7 2.7-1 3-1 4q0 .5.6.6c.4 0 1-.4 2.7-1.6Z"/><path fill="#900" stroke="#900" stroke-width=".1" d="m286 168 1-.1c-1 1.2-2.6 2.7-2.6 5q0 2.3 1.5 2.4 1.4.1 3.2-3.4l-.2 1.6q0 1.7 1.3 1.8c2.3 0 4.9-4.3 4.9-6.7q-.1-1.6-1.1-1.7l-.6.2-.8.8.2.3.4-.1q.8 0 .8 1c0 2.5-1.7 5.3-3.1 5.3q-.8-.1-.9-1.6c0-.8.2-2 .4-2.6l.9-3.2-.2-.1-1.2.4-.5 2.5q-.2 1.3-1 2.7-1 1.9-1.8 2-1-.1-1-1.7a8 8 0 0 1 2.4-5.6l-.2-.3-1 .2h-1.7l-.2-.1h-.2l-.5.1-.7 2h.4l.3-.7q.2-.5.9-.5z"/><svg width="13.1" height="10" x="283.2" y="156.1" overflow="visible"><path d="M13.1 4.9 10 1.4l-.5.5 1.9 2.4h-.2v.9h.2l-2 2.3.6.5zm-11.4.3h11v-.9h-11z" style="fill:#900;fill-opacity:1;stroke-width:1px;stroke:none;stroke-opacity:1"/></svg><path fill="#000" stroke="#000" stroke-width=".1" d="M245.9 29.7q.5 1.1 1.7.7 1.3-.8 1.2-2.3l.2-7c0-1 .7-1.2 1-1.3l-.2-.5-2.3.9.2.4q.6-.2.8.4.2.1 0 .4v4l-3-3.2-.2-.3q0-.5.7-.6l-.2-.5-2.9 1.1.2.5q.9-.5 1.3 0l4 4.4v1c0 .8 0 2-1 2.3h-.7q.5-.5.3-.8a1 1 0 0 0-.8-.4q-.4.2-.3.8ZM290 52.8l1.2-.5 1.4-.4-.2-.5q-.5.1-.6-.2 0-.5.6-2.3l1.6 1 .5.3q.1.3-.4.6l.2.4 1.5-.6 1.4-.5-.2-.4c-.8.3-1 .4-1.5 0l-2.8-1.6.7-2.1q.3-1 1.4-1.4l-.2-.4-2.5 1 .2.4q.5-.1.5.3v.5l-.4 1.4-1.7-1q-.2 0-.2-.2-.1-.3.4-.5l-.2-.4-2.8 1 .1.5c1-.4 1-.4 2 .2l2 1.3-.6 2.2c-.4 1-1.2 1.4-1.5 1.5Z"/><path fill="#900" stroke="#900" stroke-width=".1" d="M297.8 105.5h1.8q1.6 0 1.7.4l.2 1.5h.4q0-1.6.3-2.6h-7.7v.4h1q.5 0 .5.5l-.1 1.3-1.3 7.4c-.3 1.6-.3 1.6-1 1.6h-.6v.6h4.5v-.5h-1.1q-.7 0-.6-.6v-.3l.6-3.8h4.3l.3-.7v-.1h-4.4l.7-4.5.2-.6Z"/><svg width="10.3" height="10" x="292.9" y="93.5" overflow="visible"><path d="M10.3 4.9 7 1.4l-.5.5 2 2.4h-.2v.9h.2l-2 2.3.5.5zm-8.6.3h8.1v-.9H1.7z" style="fill:#900;fill-opacity:1;stroke-width:1px;stroke:none;stroke-opacity:1"/></svg><path fill="#900" stroke="#900" stroke-width=".1" d="M67.2 144.5c-.3-1.5-1-2.7-2.6-2.7-3.6 0-4 4-3.6 6.9.2 1.6 1 3 2.8 3 3.2 0 3.7-4.6 3.4-7.2Zm-1 1.7H62c.1-1.4.7-4 2.5-4 1.1 0 1.6 1.2 1.7 2.2zm0 .4c0 1.6-.3 4.6-2.3 4.6-1.3 0-1.7-1.5-1.9-2.6v-2Zm208-1.3q-.1-2.6-2.6-2.7c-3.5 0-4 4-3.5 6.8.2 1.6 1 3 2.8 3 3.2 0 3.7-4.6 3.3-7.1Zm-.9 1.7H269c.1-1.5.7-4 2.5-4 1.1 0 1.6 1.2 1.7 2.1zm0 .4c0 1.5-.3 4.6-2.3 4.6-1.4 0-1.7-1.6-1.9-2.6l-.1-2ZM119.4 75.3c-.2-1.5-.9-2.7-2.6-2.7-3.5 0-4 4-3.6 6.9.3 1.6 1 2.9 2.8 2.9 3.3 0 3.8-4.5 3.4-7Zm-1 1.7h-4.2c0-1.4.7-4 2.4-4 1.2 0 1.6 1.2 1.8 2.1zm0 .4c0 1.6-.3 4.6-2.2 4.6-1.4 0-1.8-1.5-2-2.6v-2ZM293.7 85q-.1-2.4-2.6-2.6c-3.5 0-4 4-3.5 6.8.2 1.6 1 3 2.8 3 3.2 0 3.7-4.6 3.3-7.1Zm-.9 1.7h-4.3c.1-1.4.7-4 2.5-4 1.1 0 1.6 1.3 1.7 2.2zm0 .5c0 1.5-.3 4.5-2.3 4.5-1.4 0-1.7-1.5-1.9-2.5l-.1-2Z"/></svg></svg>