<svg xmlns="http://www.w3.org/2000/svg" width="294.6" height="130.1" style="width:294.59999593098956px;height:130.125px;background:#fff;fill:none"><svg xmlns="http://www.w3.org/2000/svg"/><svg xmlns="http://www.w3.org/2000/svg" class="role-diagram-draw-area" style="overflow:visible"><g class="shapes-region" style="stroke:#000;fill:none"><g class="composite-shape"><defs><pattern id="_pgfml6gwos90dg-full-view" width="11.3" height="11.3" x="0" y="0" patternTransform="rotate(45 0 0)" patternUnits="userSpaceOnUse"><path d="M0 0v11.3M5.7 0v11.3M11.3 0v11.3" style="stroke:#eee;stroke-opacity:1;stroke-width:1;fill:none"/></pattern></defs><path d="M-17.5 59.9h154v90.7h-154Z" class="real" style="stroke-width:1;stroke:#000;fill:url(#_pgfml6gwos90dg-full-view);fill-opacity:1"/></g><g class="composite-shape"><path d="m50.2 23 37.7.2-.2 36.9-37.7-.2Z" class="real" style="stroke-width:1;stroke:#900;stroke-opacity:1;fill:#900;fill-opacity:.5"/></g><g class="composite-shape"><path stroke="none" d="M196.2 86.2q-3.7 1.3-7.5 1.3v-21Z" class="real" style="stroke-width:1;stroke:none;stroke-opacity:1;fill:none;fill-opacity:1"/><path d="M196.2 86.2q-3.7 1.3-7.5 1.3" class="real" style="stroke-width:1;stroke:#900;stroke-opacity:1;fill:none;fill-opacity:1"/></g><g class="arrow-line"><path stroke-dasharray="3" d="M188.7 66.4V117" class="connection real" style="stroke:#000;stroke-width:1;fill:none;fill-opacity:1"/></g><g class="arrow-line"><path d="M76 59.9 91.2 100" class="connection real" style="stroke:#900;stroke-opacity:1;stroke-width:1;fill:none;fill-opacity:1"/><path fill="#900" stroke="none" d="M10.7-5.1 0 0l10.7 5.2L7.1 0Z" style="stroke:none;fill:#900;stroke-width:1" transform="rotate(249.1 81.6 19.6)"/></g><g class="arrow-line"><path d="m69 62.8.8 40" class="connection real" style="stroke:#900;stroke-opacity:1;stroke-width:1;fill:none;fill-opacity:1"/><path fill="#900" stroke="none" d="M10.7-5.1 0 0l10.7 5.2L7.1 0Z" style="stroke:none;fill:#900;stroke-width:1" transform="rotate(88.9 4 65)"/></g><g class="arrow-line"><path d="M37.4 59.9H50" class="connection real" style="stroke:#900;stroke-opacity:1;stroke-width:1;fill:none;fill-opacity:1"/><path fill="#900" stroke="none" d="M10.7-5.1 0 0l10.7 5.2L7.1 0Z" style="stroke:none;fill:#900;stroke-width:1" transform="translate(34.4 59.9)"/></g><g class="arrow-line"><path d="m188.7 66.4 15.3 40.2" class="connection real" style="stroke:#900;stroke-opacity:1;stroke-width:1;fill:none;fill-opacity:1"/><path fill="#900" stroke="none" d="M10.7-5.1 0 0l10.7 5.2L7.1 0Z" style="stroke:none;fill:#900;stroke-width:1" transform="rotate(249.1 140.2 -16)"/></g><g class="arrow-line"><path d="m188 26.5.7 40" class="connection real" style="stroke:#900;stroke-opacity:1;stroke-width:1;fill:none;fill-opacity:1"/><path fill="#900" stroke="none" d="M10.7-5.1 0 0l10.7 5.2L7.1 0Z" style="stroke:none;fill:#900;stroke-width:1" transform="rotate(88.9 82 107.5)"/></g><g class="arrow-line"><path d="M176.1 66.4h12.6" class="connection real" style="stroke:#900;stroke-opacity:1;stroke-width:1;fill:none;fill-opacity:1"/><path fill="#900" stroke="none" d="M10.7-5.1 0 0l10.7 5.2L7.1 0Z" style="stroke:none;fill:#900;stroke-width:1" transform="translate(173.1 66.4)"/></g><g class="composite-shape"><path d="M187.7 66.8a1.1 1.1 0 1 1 2-.8 1.1 1.1 0 0 1-2 .8Z" class="real" style="stroke-width:1;stroke:#000;fill:#000;fill-opacity:1"/></g><g class="arrow-line"><path d="m253.3 120.6 21.5-8" class="connection real" style="stroke:#000;stroke-width:1;fill:none;fill-opacity:1"/><path fill="#000" stroke="none" d="M9-4.3 0 0l9 4.3Z" style="stroke:none;fill:#000;stroke-width:1" transform="rotate(159.6 128.8 80.8)"/></g><g class="arrow-line"><path d="m253.3 120.6-8.6-23" class="connection real" style="stroke:#000;stroke-width:1;fill:none;fill-opacity:1"/><path fill="#000" stroke="none" d="M9-4.3 0 0l9 4.3Z" style="stroke:none;fill:#000;stroke-width:1" transform="rotate(69.6 53.6 222.8)"/></g></g></svg><svg xmlns="http://www.w3.org/2000/svg" xmlns:xlink="http://www.w3.org/1999/xlink" width="293" height="128.5" style="width:293px;height:128.52500406901044px;font-family:Asana-Math,Asana;background:#fff"><path fill="#fff" stroke="#fff" stroke-width=".1" d="m74.7 46.6-.4.3-1 .5q-.3 0-.3-.3l.1-.7 1.3-5 .1-.8q0-.4-.4-.4-.6 0-2.2 1-1.3 1-2.5 2.5l.5-2.3.2-.7q0-.5-.5-.5-.8 0-2.2 1c-.8.6-1.1 1-2.2 2.5l.6-2.3v-.7q0-.5-.3-.5-.5 0-2.3 1.2l-.5.4.1.3 1.4-.8q.3 0 .3.4c0 1-.7 4.2-1.4 6.6v.2l1.2-.2.4-1.8c.4-1.9.8-2.9 1.8-3.9q1.2-1.2 2-1.3l.1.4q0 1-1 5.5l-.3 1.1v.2l1.2-.2.4-1.9q.4-2 1.6-3.4 1.5-1.6 2.3-1.7.3 0 .2.4c0 .5 0 .7-.4 2.2-.7 2.7-1 3-1 4q0 .6.6.6c.4 0 1-.3 2.7-1.6Z"/><path fill="#900" stroke="#900" stroke-width=".1" d="M92.6 113.2h1c-1 1.2-2.6 2.7-2.6 5q0 2.3 1.5 2.4t3.2-3.4l-.2 1.6q0 1.6 1.3 1.8c2.3 0 4.9-4.3 4.9-6.7q-.1-1.6-1.1-1.7l-.6.2-.8.8.2.3.4-.1q.8 0 .8 1c0 2.5-1.7 5.3-3.1 5.3q-.8-.1-.9-1.6c0-.8.2-2 .4-2.6l.9-3.2-.2-.1-1.2.4-.5 2.5q-.2 1.4-1 2.7-1 1.9-1.8 2-1-.1-1-1.7a8 8 0 0 1 2.4-5.6l-.1-.3-1 .2h-1.8l-.2-.1h-.2l-.5.1-.7 2h.4l.3-.7q.2-.5.9-.5z"/><svg width="13.1" height="10" x="89.8" y="101.4" overflow="visible"><path d="M13.1 4.9 10 1.4l-.5.5 1.9 2.4h-.2v.9h.2l-2 2.3.6.5zm-11.4.3h11v-.9h-11z" style="fill:#900;fill-opacity:1;stroke-width:1px;stroke:none;stroke-opacity:1"/></svg><path fill="#900" stroke="#900" stroke-width=".1" d="M196.6 94q-.3-2.6-2.6-2.7c-3.6 0-4 4-3.6 6.8.3 1.6 1 3 2.8 3 3.2 0 3.8-4.6 3.4-7.1Zm-1 1.6h-4.3c.1-1.4.7-4 2.5-4 1.1 0 1.6 1.3 1.7 2.2zm0 .5c0 1.5-.3 4.5-2.2 4.5-1.4 0-1.8-1.5-2-2.5v-2Zm-137.6 9-5.9-10h-2.7l-.1.5h.6c.7 0 1.3.8 1.3 1l-1.5 8.5q-.3 1.3-1 1.3h-.5v.5h3.7v-.5h-.7q-.9 0-.8-.8v-.5l1.4-7.9 5.8 9.8h.8l1.6-9.4c.4-1.9.4-2 1-2h.7V95h-3.6v.5h.7q.7 0 .6.4z"/><svg width="14.1" height="10" x="48.1" y="83.9" overflow="visible"><path d="m14 4.9-3-3.4-.6.5 2 2.4h-.2v.9h.2l-2 2.3.5.5zm-12.3.3h11.9v-.9h-12z" style="fill:#900;fill-opacity:1;stroke-width:1px;stroke:none;stroke-opacity:1"/></svg><path fill="#900" stroke="#900" stroke-width=".1" d="M24 41.5h-.3l.4-1.9q.4-2 1.5-2 .8 0 1.2.6h.2l.4-1.2v-.3l-1.1-.2-.6.1c-.4.2-1.8 1.2-2.2 1.7q-.6.4-.8 1.8l-.2 1.3-1.5.7v.4h1.3l-.1.9-1.5 7.7q-.6 1.5-1.5 1.5-.5 0-.9-.5h-.2l-.4 1.4.6.2q1.2-.1 2.3-1.4c1.2-1.4 1.5-3 3-9.8h1.7l.3-1v-.1z"/><svg width="10.2" height="10" x="18.1" y="26" overflow="visible"><path d="M10.2 4.9 7.1 1.4l-.5.5 1.9 2.4h-.2v.9h.2l-2 2.3.5.5zm-8.5.3h8v-.9h-8z" style="fill:#900;fill-opacity:1;stroke-width:1px;stroke:none;stroke-opacity:1"/></svg><path fill="#900" stroke="#900" stroke-width=".1" d="m28.4 53.7-.3 1.6q.6.3 1.3.3.9 0 1.7-.7.9-.8.9-1.5 0-1-1.3-1.2h-.5q-1-.2-1-.9.1-1 1.3-1.1.8 0 1 .5v.7h.4L32 50l-1.2-.3a3 3 0 0 0-2 1q-.3.4-.4 1 0 1 1.2 1.2l.8.1q.7.2.7.8-.1 1.3-1.4 1.3-.6 0-1.1-.4v-1Zm183.9 45.7h1c-1 1.2-2.7 2.6-2.7 5q0 2.2 1.5 2.3t3.3-3.4l-.2 1.6q0 1.7 1.2 1.8c2.3 0 5-4.2 5-6.7q-.1-1.6-1.1-1.7l-.6.2-.9.8.2.4.5-.2q.7 0 .7 1c0 2.5-1.6 5.4-3 5.4q-1-.1-1-1.7 0-1.4.4-2.6l1-3.1-.2-.2-1.3.4-.5 2.5q-.2 1.4-.9 2.7-1 2-1.8 2-1-.1-1-1.7a8 8 0 0 1 2.4-5.6l-.2-.3q-.4.3-1 .2h-2.7l-.6 2h.4l.2-.7q.3-.4 1-.4z"/><svg width="13.1" height="10" x="209.4" y="87.5" overflow="visible"><path d="M13.1 4.9 10 1.4l-.5.5 1.9 2.4h-.2v.9h.2l-2 2.3.6.5zm-11.4.3h11v-.9h-11z" style="fill:#900;fill-opacity:1;stroke-width:1px;stroke:none;stroke-opacity:1"/></svg><path fill="#900" stroke="#900" stroke-width=".1" d="m202.3 28.4-6-10h-2.7v.4h.5a2 2 0 0 1 1.4 1l-1.6 8.6q-.2 1.3-.9 1.3h-.5l-.1.5h3.8v-.5h-.7q-1 0-.8-.8v-.5l1.4-7.9 5.7 9.8h.9l1.6-9.4c.4-1.9.4-2 1-2h.6l.1-.5h-3.6l-.1.4h.8q.6.1.6.5z"/><svg width="14.1" height="10" x="192.4" y="7.1" overflow="visible"><path d="m14 4.9-3-3.4-.6.5 2 2.4h-.2v.9h.2l-2 2.3.5.5zm-12.3.3h11.9v-.9h-12z" style="fill:#900;fill-opacity:1;stroke-width:1px;stroke:none;stroke-opacity:1"/></svg><path fill="#900" stroke="#900" stroke-width=".1" d="M165 48.5h-.2l.4-1.9q.3-2 1.5-2 .8 0 1.2.6h.2l.4-1.2v-.3l-1.1-.2-.6.1-2.2 1.7q-.6.4-.8 1.8l-.2 1.4-1.5.6v.4h1.3l-.1 1c-.6 3.2-1.2 6.4-1.6 7.6q-.5 1.5-1.4 1.5-.5 0-.9-.5h-.2l-.4 1.4.6.2q1.1-.1 2.3-1.4c1.2-1.4 1.5-3 3-9.8h1.7q0-.6.3-1v-.1z"/><svg width="10.2" height="10" x="159.2" y="33" overflow="visible"><path d="M10.2 4.9 7.1 1.4l-.5.5 1.9 2.4h-.2v.9h.2l-2 2.3.5.5zm-8.5.3h8v-.9h-8z" style="fill:#900;fill-opacity:1;stroke-width:1px;stroke:none;stroke-opacity:1"/></svg><path fill="#900" stroke="#900" stroke-width=".1" d="m169.4 60.7-.2 1.6q.6.3 1.3.3t1.7-.7q.8-.7.8-1.5 0-1-1.2-1.1l-.5-.1q-1-.2-1-.9.1-1 1.3-1 .7 0 1 .5v.6h.4l.2-1.3q-.7-.4-1.2-.4a3 3 0 0 0-2 1q-.3.4-.4 1 0 1 1.2 1.2l.7.2q.8 0 .8.7-.1 1.2-1.4 1.3-.7 0-1.2-.4v-1Z"/><path fill="#000" stroke="#000" stroke-width=".1" d="M236.9 91.3q.1 1 1.3 1.2c1 0 1.6-.9 2-1.7l2.6-6.4c.4-1 1.2-1 1.4-1V83h-2.4v.5q.7 0 .7.7l-.1.3-1.5 3.7-1.7-4v-.3c0-.4.5-.4.7-.4V83h-3v.5q1-.1 1.2.5l2.2 5.5-.4.9c-.3.8-.7 1.9-1.7 1.9l-.7-.3q.7-.2.6-.6 0-.7-.6-.7t-.6.7Zm43.2 22.7h2.7v-.5q-.4 0-.4-.5t1.3-1.9l1.2 1.5.3.5q0 .4-.6.4v.5h3.1v-.5q-1 .1-1.4-.5l-2-2.6 1.3-1.7q.8-.7 1.8-.7v-.5h-2.6v.5q.4 0 .4.4l-.2.6-1 1.1-1.1-1.5-.2-.3q0-.3.6-.3v-.5h-3v.5c1 0 1 0 1.7.9l1.5 2-1.4 1.7c-.8.9-1.6.9-2 .9Z"/></svg></svg>