<svg xmlns="http://www.w3.org/2000/svg" width="268.6" height="74.138" style="width:268.59999593098956px;height:74.1375020345052px;background:0 0;fill:none"><svg xmlns="http://www.w3.org/2000/svg"/><svg xmlns="http://www.w3.org/2000/svg" class="role-diagram-draw-area" style="overflow:visible"><g class="shapes-region" style="stroke:#000;fill:none"><g class="arrow-line"><path d="m55.23 60.77-27.1-46.94" class="connection real" style="stroke:#900;stroke-opacity:1;stroke-width:1;fill:none;fill-opacity:1"/><path fill="#900" stroke="none" d="M10.72-5.15 0 0l10.72 5.15L7.12 0Z" style="stroke:none;fill:#900;stroke-width:1" transform="rotate(60 3.59 28.681)"/></g><g class="arrow-line"><path d="m71.63 10.9 27.1 46.94" class="connection real" style="stroke:#900;stroke-opacity:1;stroke-width:1;fill:none;fill-opacity:1"/><path fill="#900" stroke="none" d="M10.72-5.15 0 0l10.72 5.15L7.12 0Z" style="stroke:none;fill:#900;stroke-width:1" transform="rotate(240 67.563 1.283)"/></g><g class="arrow-line"><path d="M137.33 34.67h54.2" class="connection real" style="stroke:#900;stroke-opacity:1;stroke-width:1;fill:none;fill-opacity:1"/><path fill="#900" stroke="none" d="M10.72-5.15 0 0l10.72 5.15L7.12 0Z" style="stroke:none;fill:#900;stroke-width:1" transform="translate(134.333 34.667)"/></g><g class="arrow-line"><path d="m209.3 58.77 27.1-46.94" class="connection real" style="stroke:#900;stroke-opacity:1;stroke-width:1;fill:none;fill-opacity:1"/><path fill="#900" stroke="none" d="M10.72-5.15 0 0l10.72 5.15L7.12 0Z" style="stroke:none;fill:#900;stroke-width:1" transform="rotate(120 116.285 73.292)"/></g></g></svg><svg xmlns="http://www.w3.org/2000/svg" xmlns:xlink="http://www.w3.org/1999/xlink" width="267" height="72.538" style="width:267px;height:72.53750101725261px;font-family:Asana-Math,Asana;background:0 0"><path fill="#900" stroke="#900" stroke-width=".136" d="M20.689 34.09c0 .272-.255.425-.731.459l-.748.051v.476c1.734-.051 1.734-.051 2.074-.051s.34 0 2.074.051V34.6l-.442-.051c-.799-.119-.816-.119-.952-.884L20.485 23.04h-.782l-6.341 10.081c-.612.952-.918 1.224-1.496 1.36l-.34.085v.51c1.564-.051 1.564-.051 1.904-.051.323 0 .357 0 1.819.051V34.6l-.884-.051c-.272-.017-.527-.17-.527-.323 0-.136.119-.374.442-.935l1.734-2.975h4.182l.425 3.196v.051c0 .034.068.289.068.527Zm-1.207-9.282.629 4.896h-3.672Z"/><svg width="13.625" height="10" x="11.05" y="12.025" overflow="visible"><path d="m13.63 4.85-3.15-3.32-.49.52 1.93 2.33h-.15v.9h.15L9.99 7.61l.49.52zm-11.95.38h11.48v-.9H1.68z" style="fill:#900;fill-opacity:1;stroke-width:1px;stroke:none;stroke-opacity:1"/></svg><path fill="#900" stroke="#900" stroke-width=".136" d="M112.256 52.366c0-1.87-1.428-2.142-2.822-2.346.969-.34 1.394-.544 1.921-1.02.782-.663 1.173-1.462 1.173-2.329 0-1.394-.986-2.21-2.686-2.21-.034 0-.204 0-.459.017l-1.071.017c-.204.017-.816.017-1.02.017-.323 0-.85-.017-1.683-.034l-.884-.017-.051.476.901.034c.408.017.595.153.595.459 0 .238-.068.782-.153 1.292l-1.479 8.568c-.068.306-.272.425-.986.544l-.085.442.629-.017c.459-.034.714-.034.918-.034.187 0 .629.017 1.071.034l.629.017.34.017c.323.017.544.034.68.034 1.955 0 4.522-1.581 4.522-3.961Zm-6.409 3.162.867-5.083h1.445c1.751 0 2.601.714 2.601 2.193 0 1.751-1.241 3.009-2.941 3.009-.918 0-1.275-.068-1.972-.119Zm3.162-10.438c1.377 0 2.057.612 2.057 1.887 0 1.785-1.258 2.856-3.366 2.856h-.884l.833-4.658c.272 0 .969-.085 1.36-.085Z"/><svg width="11.225" height="10" x="103.025" y="33.225" overflow="visible"><path d="M11.23 4.85 8.08 1.53l-.49.52 1.93 2.33h-.15v.9h.15L7.59 7.61l.49.52zm-9.55.38h9.08v-.9H1.68z" style="fill:#900;fill-opacity:1;stroke-width:1px;stroke:none;stroke-opacity:1"/></svg><path fill="#900" stroke="#900" stroke-width=".136" d="M159.321 25.634c0 3.298 1.82 5.134 5.066 5.134 1.632 0 2.84-.39 4.37-1.445l.17-.612-.17-.119c-1.599.97-2.483 1.275-3.809 1.275-2.669 0-4.13-1.632-4.13-4.658 0-2.346.968-5.848 4.844-5.848 1.207 0 2.091.238 3.043.85v1.428h.46c.084-.969.22-1.7.458-2.482-1.292-.493-2.26-.697-3.315-.697-3.06 0-6.987 2.176-6.987 7.174Z"/><svg width="12.537" height="10" x="158.556" y="7.462" overflow="visible"><path d="M12.54 4.85 9.39 1.53l-.49.52 1.93 2.33h-.15v.9h.15L8.9 7.61l.49.52zm-10.86.38h10.4v-.9H1.68z" style="fill:#900;fill-opacity:1;stroke-width:1px;stroke:none;stroke-opacity:1"/></svg><path fill="#900" stroke="#900" stroke-width=".136" d="M246.072 33.076c1.224 0 2.057-.187 2.941-.629 2.652-1.36 4.284-3.927 4.284-6.749 0-1.666-.51-2.856-1.547-3.587-.782-.561-2.227-.867-3.842-.85l-3.468.051h-.17c-.153 0-.204 0-1.921-.051l-.051.476.901.034c.408.017.595.153.595.459 0 .238-.068.782-.153 1.292l-1.479 8.568c-.085.408-.51.442-.901.544l-.085.442 1.581-.051h.935c.595 0 1.802.051 2.38.051Zm1.156-11.186c3.094 0 4.505 1.292 4.505 4.08 0 3.23-1.7 6.358-5.44 6.358-.748 0-1.581-.085-2.737-.255 0-.204.017-.323.068-.629l1.632-9.469c.391 0 1.377-.085 1.972-.085Z"/><svg width="14.063" height="10" x="240.7" y="10.025" overflow="visible"><path d="m14.06 4.85-3.15-3.32-.49.52 1.93 2.33h-.15v.9h.15l-1.93 2.33.49.52zm-12.38.38H13.6v-.9H1.68z" style="fill:#900;fill-opacity:1;stroke-width:1px;stroke:none;stroke-opacity:1"/></svg></svg></svg>