<svg xmlns="http://www.w3.org/2000/svg" width="201.6" height="139.538" style="width:201.60000610351562px;height:139.53750610351562px;background:#fff;fill:none"><svg xmlns="http://www.w3.org/2000/svg"/><svg xmlns="http://www.w3.org/2000/svg" class="role-diagram-draw-area" style="overflow:visible"><g class="shapes-region" style="stroke:#000;fill:none"><g class="arrow-line"><path d="M100.6 122.31H68.17" class="connection real" style="stroke:#900;stroke-opacity:1;stroke-width:1;fill:none;fill-opacity:1"/><path fill="#900" stroke="none" d="M10.72-5.15 0 0l10.72 5.15L7.12 0Z" style="stroke:none;fill:#900;stroke-width:1" transform="translate(65.171 122.314)"/></g><g class="arrow-line"><path d="M133.03 122.31H100.6" class="connection real" style="stroke:#900;stroke-opacity:1;stroke-width:1;fill:none;fill-opacity:1"/><path fill="#900" stroke="none" d="M10.72-5.15 0 0l10.72 5.15L7.12 0Z" style="stroke:none;fill:#900;stroke-width:1" transform="matrix(-1 0 0 -1 136.029 122.314)"/></g><g class="composite-shape"><path d="M18.34 19.1c0-5.88 4.77-10.64 10.64-10.64 5.88 0 10.64 4.76 10.64 10.64 0 5.87-4.76 10.64-10.64 10.64-5.87 0-10.64-4.77-10.64-10.64Z" class="real" style="stroke-width:1;stroke:#900;stroke-opacity:1;fill:none;fill-opacity:1"/></g><g class="arrow-line"><path d="M28.98 29.74V66.9" class="connection real" style="stroke:#900;stroke-opacity:1;stroke-width:1;fill:none;fill-opacity:1"/></g><g class="arrow-line"><path d="m28.98 66.9-7.67 17.13" class="connection real" style="stroke:#900;stroke-opacity:1;stroke-width:1;fill:none;fill-opacity:1"/></g><g class="arrow-line"><path d="m28.98 66.9.31.3 5.45 17.4" class="connection real" style="stroke:#900;stroke-opacity:1;stroke-width:1;fill:none;fill-opacity:1"/></g><g class="arrow-line"><path d="m28.98 29.74 12.33 19.15" class="connection real" style="stroke:#900;stroke-opacity:1;stroke-width:1;fill:none;fill-opacity:1"/></g><g class="arrow-line"><path d="m28.98 29.74 13.48 17.43" class="connection real" style="stroke:#900;stroke-opacity:1;stroke-width:1;fill:none;fill-opacity:1"/></g><g class="composite-shape"><path d="M160.06 18.81c0-5.87 4.76-10.64 10.64-10.64 5.87 0 10.64 4.77 10.64 10.64 0 5.88-4.77 10.64-10.64 10.64-5.88 0-10.64-4.76-10.64-10.64Z" class="real" style="stroke-width:1;stroke:#900;stroke-opacity:1;fill:none;fill-opacity:1"/></g><g class="arrow-line"><path d="M170.7 29.45v37.16" class="connection real" style="stroke:#900;stroke-opacity:1;stroke-width:1;fill:none;fill-opacity:1"/></g><g class="arrow-line"><path d="m170.7 66.61-7.67 17.13" class="connection real" style="stroke:#900;stroke-opacity:1;stroke-width:1;fill:none;fill-opacity:1"/></g><g class="arrow-line"><path d="m170.7 66.61.01.02.29.28 5.46 17.4" class="connection real" style="stroke:#900;stroke-opacity:1;stroke-width:1;fill:none;fill-opacity:1"/></g><g class="arrow-line"><path d="m170.7 29.45-10.07 18.01" class="connection real" style="stroke:#900;stroke-opacity:1;stroke-width:1;fill:none;fill-opacity:1"/></g><g class="arrow-line"><path d="m170.7 29.45-12.07 16.29" class="connection real" style="stroke:#900;stroke-opacity:1;stroke-width:1;fill:none;fill-opacity:1"/></g><g class="arrow-line"><path d="M42.46 47.17q2.5-2.5 5 0t5 0 5 0 5 0 5 0 5 0 5 0 5 0 5 0 5 0 5 0 5 0 5 0 5 0 5 0 5 0 5 0 5 0 5 0 5 0 5 0 5 0 5 0h1.45" class="connection real" style="stroke:#000;stroke-width:1;fill:none;fill-opacity:1"/></g><g class="arrow-line"><path d="M76.63 55.06H44.2" class="connection real" style="stroke:#900;stroke-opacity:1;stroke-width:1;fill:none;fill-opacity:1"/><path fill="#900" stroke="none" d="M10.72-5.15 0 0l10.72 5.15L7.12 0Z" style="stroke:none;fill:#900;stroke-width:1" transform="translate(41.2 55.06)"/></g><g class="arrow-line"><path d="M155.91 55.63h-32.42" class="connection real" style="stroke:#900;stroke-opacity:1;stroke-width:1;fill:none;fill-opacity:1"/><path fill="#900" stroke="none" d="M10.72-5.15 0 0l10.72 5.15L7.12 0Z" style="stroke:none;fill:#900;stroke-width:1" transform="matrix(-1 0 0 -1 158.914 55.632)"/></g><g class="composite-shape"><path d="M98.29 122.31a2.311 2.311 0 0 1 4.62 0c0 1.28-1.03 2.32-2.31 2.32s-2.31-1.04-2.31-2.32Z" class="real" style="stroke-width:1;stroke:#000;stroke-opacity:1;fill:#000;fill-opacity:1"/></g><g class="composite-shape"><path d="M98.37 47.17c0-1.28 1.04-2.31 2.32-2.31 1.27 0 2.31 1.03 2.31 2.31a2.32 2.32 0 0 1-2.31 2.32c-1.28 0-2.32-1.04-2.32-2.32Z" class="real" style="stroke-width:1;stroke:#000;stroke-opacity:1;fill:#000;fill-opacity:1"/></g></g></svg><svg xmlns="http://www.w3.org/2000/svg" xmlns:xlink="http://www.w3.org/1999/xlink" width="200" height="137.938" style="width:200px;height:137.9375px;font-family:Asana-Math,Asana;background:#fff"><path fill="#900" stroke="#900" stroke-width=".136" d="m59.662 70.318 1.802-.068c1.054 0 1.734.153 1.751.408l.136 1.513h.408c.051-1.071.17-1.938.357-2.584-.374-.034-.85-.051-1.139-.051l-.697.017-2.805.034h-.493c-.425 0-1.105-.017-1.751-.034l-.833-.017-.051.476.952.034c.408.017.595.17.595.459 0 .238-.068.782-.153 1.292l-1.275 7.378c-.289 1.564-.289 1.581-.986 1.649l-.612.051-.068.476.578-.017c.68-.017 1.224-.034 1.581-.034.306 0 .799.017 1.462.034l.884.017.051-.476-1.088-.051c-.459-.017-.612-.153-.612-.493 0-.102.017-.289.034-.357l.612-3.791h1.989c.459 0 .986.017 1.802.051l.442.017.323-.765-.068-.119a70 70 0 0 1-3.723.102h-.629l.782-4.607c.051-.272.068-.357.153-.544Z"/><svg width="10.288" height="10" x="54.8" y="58.3" overflow="visible"><path d="M10.29 4.85 7.14 1.53l-.49.52 1.93 2.33h-.15v.9h.15L6.65 7.61l.49.52zm-8.61.38h8.15v-.9H1.68z" style="fill:#900;fill-opacity:1;stroke-width:1px;stroke:none;stroke-opacity:1"/></svg><path fill="#900" stroke="#900" stroke-width=".095" d="M69.712 87.836v-.357l-.62-.036c-.654-.036-.773-.167-.773-.785V79.47l-2.868 1.214.084.595 1.785-.786v6.165c0 .618-.131.75-.774.785l-.666.036v.357c1.832-.036 1.832-.036 1.963-.036.37 0 1.678.036 1.869.036Z"/><path fill="#900" stroke="#900" stroke-width=".136" d="m134.512 72.03 1.802-.068c1.054 0 1.734.153 1.751.408l.136 1.513h.408c.051-1.07.17-1.938.357-2.584-.374-.034-.85-.05-1.139-.05l-.697.016-2.805.034h-.493c-.425 0-1.105-.017-1.751-.034l-.833-.017-.051.476.952.034c.408.017.595.17.595.46 0 .237-.068.781-.153 1.291l-1.275 7.378c-.289 1.564-.289 1.581-.986 1.65l-.612.05-.068.476.578-.017c.68-.017 1.224-.034 1.581-.034.306 0 .799.017 1.462.034l.884.017.051-.476-1.088-.05c-.459-.018-.612-.154-.612-.494 0-.102.017-.289.034-.357l.612-3.79h1.989c.459 0 .986.016 1.802.05l.442.017.323-.765-.068-.119a70 70 0 0 1-3.723.102h-.629l.782-4.607c.051-.272.068-.357.153-.544Z"/><svg width="10.288" height="10" x="129.65" y="60.012" overflow="visible"><path d="M10.29 4.85 7.14 1.53l-.49.52 1.93 2.33h-.15v.9h.15L6.65 7.61l.49.52zm-8.61.38h8.15v-.9H1.68z" style="fill:#900;fill-opacity:1;stroke-width:1px;stroke:none;stroke-opacity:1"/></svg><path fill="#900" stroke="#900" stroke-width=".095" d="M139.778 89.239v.31c2.225 0 2.225-.036 2.654-.036s.428.035 2.725.035v-1.011c-1.369.06-1.916.012-4.118.06l2.166-2.297c1.154-1.226 1.511-1.88 1.511-2.773 0-1.369-.928-2.214-2.44-2.214-.856 0-1.439.238-2.022.833l-.202 1.619h.345l.154-.548c.19-.69.62-.987 1.417-.987 1.023 0 1.677.642 1.677 1.654 0 .892-.5 1.773-1.844 3.2Z"/></svg></svg>