<svg xmlns="http://www.w3.org/2000/svg" width="201.6" height="116.537" style="width:201.60000610351562px;height:116.5374984741211px;background:0 0;fill:none"><svg xmlns="http://www.w3.org/2000/svg"/><svg xmlns="http://www.w3.org/2000/svg" class="role-diagram-draw-area" style="overflow:visible"><g class="shapes-region" style="stroke:#000;fill:none"><g class="arrow-line"><path d="m64.78 55.78 27.1 46.94" class="connection real" style="stroke:#900;stroke-opacity:1;stroke-width:1;fill:none;fill-opacity:1"/><path fill="#900" stroke="none" d="M10.72-5.15 0 0l10.72 5.15L7.12 0Z" style="stroke:none;fill:#900;stroke-width:1" transform="rotate(240 77.092 25.702)"/></g><g class="arrow-line"><path d="M10.58 55.78h54.2" class="connection real" style="stroke:#900;stroke-opacity:1;stroke-width:1;fill:none;fill-opacity:1"/><path fill="#900" stroke="none" d="M10.72-5.15 0 0l10.72 5.15L7.12 0Z" style="stroke:none;fill:#900;stroke-width:1" transform="translate(7.58 55.78)"/></g><g class="arrow-line"><path d="m64.78 55.78 27.1-46.94" class="connection real" style="stroke:#900;stroke-opacity:1;stroke-width:1;fill:none;fill-opacity:1"/><path fill="#900" stroke="none" d="M10.72-5.15 0 0l10.72 5.15L7.12 0Z" style="stroke:none;fill:#900;stroke-width:1" transform="rotate(120 44.888 30.078)"/></g><g class="composite-shape"><path d="M63.2 55.78c0-.87.71-1.58 1.58-1.58s1.58.71 1.58 1.58-.71 1.58-1.58 1.58-1.58-.71-1.58-1.58Z" class="real" style="stroke-width:1;stroke:#000017;stroke-opacity:1;fill:#000;fill-opacity:1"/></g><g class="arrow-line"><path d="m126.58 78.98 27.1-46.94" class="connection real" style="stroke:#900;stroke-opacity:1;stroke-width:1;fill:none;fill-opacity:1"/><path fill="#900" stroke="none" d="M10.72-5.15 0 0l10.72 5.15L7.12 0Z" style="stroke:none;fill:#900;stroke-width:1" transform="rotate(120 69.09 59.518)"/></g><g class="arrow-line"><path d="m155.18 29.44 27.1 46.94" class="connection real" style="stroke:#900;stroke-opacity:1;stroke-width:1;fill:none;fill-opacity:1"/><path fill="#900" stroke="none" d="M10.72-5.15 0 0l10.72 5.15L7.12 0Z" style="stroke:none;fill:#900;stroke-width:1" transform="rotate(240 114.69 -13.563)"/></g><g class="arrow-line"><path d="M129.58 78.98h54.2" class="connection real" style="stroke:#900;stroke-opacity:1;stroke-width:1;fill:none;fill-opacity:1"/><path fill="#900" stroke="none" d="M10.72-5.15 0 0l10.72 5.15L7.12 0Z" style="stroke:none;fill:#900;stroke-width:1" transform="translate(126.58 78.98)"/></g></g></svg><svg xmlns="http://www.w3.org/2000/svg" xmlns:xlink="http://www.w3.org/1999/xlink" width="200" height="114.938" style="width:200px;height:114.9375px;font-family:Asana-Math,Asana;background:0 0"><path fill="#900" stroke="#900" stroke-width=".136" d="M91.456 77.766c0-1.87-1.428-2.142-2.822-2.346.969-.34 1.394-.544 1.921-1.02.782-.663 1.173-1.462 1.173-2.329 0-1.394-.986-2.21-2.686-2.21-.034 0-.204 0-.459.017l-1.071.017c-.204.017-.816.017-1.02.017-.323 0-.85-.017-1.683-.034l-.884-.017-.051.476.901.034c.408.017.595.153.595.459 0 .238-.068.782-.153 1.292l-1.479 8.568c-.068.306-.272.425-.986.544l-.085.442.629-.017c.459-.034.714-.034.918-.034.187 0 .629.017 1.071.034l.629.017.34.017c.323.017.544.034.68.034 1.955 0 4.522-1.581 4.522-3.961Zm-6.409 3.162.867-5.083h1.445c1.751 0 2.601.714 2.601 2.193 0 1.751-1.241 3.009-2.941 3.009-.918 0-1.275-.068-1.972-.119Zm3.162-10.438c1.377 0 2.057.612 2.057 1.887 0 1.785-1.258 2.856-3.366 2.856h-.884l.833-4.658c.272 0 .969-.085 1.36-.085Z"/><svg width="11.225" height="10" x="82.225" y="58.625" overflow="visible"><path d="M11.23 4.85 8.08 1.53l-.49.52 1.93 2.33h-.15v.9h.15L7.59 7.61l.49.52zm-9.55.38h9.08v-.9H1.68z" style="fill:#900;fill-opacity:1;stroke-width:1px;stroke:none;stroke-opacity:1"/></svg><path fill="#900" stroke="#900" stroke-width=".136" d="M32.559 74.747c0 3.298 1.819 5.134 5.066 5.134 1.632 0 2.839-.391 4.369-1.445l.17-.612-.17-.119c-1.598.969-2.482 1.275-3.808 1.275-2.67 0-4.131-1.632-4.131-4.658 0-2.346.969-5.848 4.845-5.848 1.207 0 2.09.238 3.043.85v1.428h.459c.085-.969.22-1.7.459-2.482-1.292-.493-2.261-.697-3.315-.697-3.06 0-6.987 2.176-6.987 7.174Z"/><svg width="12.538" height="10" x="31.794" y="56.575" overflow="visible"><path d="M12.54 4.85 9.39 1.53l-.49.52 1.93 2.33h-.15v.9h.15L8.9 7.61l.49.52zm-10.86.38h10.4v-.9H1.68z" style="fill:#900;fill-opacity:1;stroke-width:1px;stroke:none;stroke-opacity:1"/></svg><path fill="#900" stroke="#900" stroke-width=".136" d="M66.06 33.276c1.224 0 2.057-.187 2.94-.629 2.653-1.36 4.285-3.927 4.285-6.749 0-1.666-.51-2.856-1.547-3.587-.782-.561-2.227-.867-3.843-.85l-3.468.051h-.17c-.153 0-.204 0-1.92-.051l-.052.476.902.034c.407.017.595.153.595.459 0 .238-.068.782-.153 1.292l-1.48 8.568c-.084.408-.51.442-.9.544l-.086.442 1.582-.051h.934c.596 0 1.802.051 2.38.051Zm1.156-11.186c3.094 0 4.505 1.292 4.505 4.08 0 3.23-1.7 6.358-5.44 6.358-.749 0-1.582-.085-2.738-.255 0-.204.017-.323.069-.629l1.631-9.469c.392 0 1.378-.085 1.973-.085Z"/><svg width="14.063" height="10" x="60.688" y="10.225" overflow="visible"><path d="m14.06 4.85-3.15-3.32-.49.52 1.93 2.33h-.15v.9h.15l-1.93 2.33.49.52zm-12.38.38H13.6v-.9H1.68z" style="fill:#900;fill-opacity:1;stroke-width:1px;stroke:none;stroke-opacity:1"/></svg></svg></svg>