<svg xmlns="http://www.w3.org/2000/svg" xmlns:xlink="http://www.w3.org/1999/xlink" x="0" y="0" width="227.60000610351562" height="95.5374984741211" style="
        width:227.60000610351562px;
        height:95.5374984741211px;
        background: transparent;
        fill: none;
">
        <svg xmlns="http://www.w3.org/2000/svg"/>
        
        <svg xmlns="http://www.w3.org/2000/svg" class="role-diagram-draw-area" style="overflow: visible;"><g class="shapes-region" style="stroke: black; fill: none;"><g class="arrow-line"><path class="connection real" stroke-dasharray="" d="  M141.98,46.41 L169.89,46.41 L170.74,46.41 L178.74,46.41 L182.9,46.41" style="stroke: rgb(153, 0, 0); stroke-opacity: 1; stroke-width: 1; fill: none; fill-opacity: 1;"/><g stroke="none" fill="rgb(153,0,0)" fill-opacity="1" transform="matrix(-1,1.2246467991473532e-16,-1.2246467991473532e-16,-1,185.89713309151784,46.40570940290177)" style="stroke: none; fill: rgb(153, 0, 0); stroke-width: 1;"><path d=" M10.72,-5.15 L0,0 L10.72,5.15 L7.12,0 Z"/></g></g><g class="arrow-line"><path class="connection real" stroke-dasharray="" d="  M141.98,46.41 L122.82,46.41" style="stroke: rgb(153, 0, 0); stroke-opacity: 1; stroke-width: 1; fill: none; fill-opacity: 1;"/><g stroke="none" fill="rgb(153,0,0)" fill-opacity="1" transform="matrix(1,-2.4492935982947064e-16,2.4492935982947064e-16,1,119.81712820870534,46.40570940290178)" style="stroke: none; fill: rgb(153, 0, 0); stroke-width: 1;"><path d=" M10.72,-5.15 L0,0 L10.72,5.15 L7.12,0 Z"/></g></g><g class="composite-shape"><defs><!-- react-text: 49425 --> <!-- /react-text --><pattern id="_pgfudrry6ge4dg-full-view" x="0" y="0" width="11.313708498984761" height="11.313708498984761" patternTransform="rotate(45,0,0)" patternUnits="userSpaceOnUse"><path d="M0,0 L0,11.313708498984761" style="stroke: rgb(0, 0, 0); stroke-opacity: 1; stroke-width: 1; fill: none;"/><path d="M5.656854249492381,0 L5.656854249492381,11.313708498984761" style="stroke: rgb(0, 0, 0); stroke-opacity: 1; stroke-width: 1; fill: none;"/><path d="M11.313708498984761,0 L11.313708498984761,11.313708498984761" style="stroke: rgb(0, 0, 0); stroke-opacity: 1; stroke-width: 1; fill: none;"/></pattern></defs><path class="real" d=" M36.29,13.4 L70.53,13.4 L70.53,47.64 L36.29,47.64 Z" style="stroke-width: 1; stroke: rgb(0, 0, 0); fill: url(&quot;#_pgfudrry6ge4dg-full-view&quot;); fill-opacity: 1;"/></g><g class="arrow-line"><path class="connection real" stroke-dasharray="" d="  M53.41,30.52 L94.33,30.52" style="stroke: rgb(153, 0, 0); stroke-opacity: 1; stroke-width: 1; fill: none; fill-opacity: 1;"/><g stroke="none" fill="rgb(153,0,0)" fill-opacity="1" transform="matrix(-1,1.2246467991473532e-16,-1.2246467991473532e-16,-1,97.32570452008929,30.519995117187488)" style="stroke: none; fill: rgb(153, 0, 0); stroke-width: 1;"><path d=" M10.72,-5.15 L0,0 L10.72,5.15 L7.12,0 Z"/></g></g><g class="arrow-line"><path class="connection real" stroke-dasharray="" d="  M36.29,47.64 L17.13,47.64" style="stroke: rgb(153, 0, 0); stroke-opacity: 1; stroke-width: 1; fill: none; fill-opacity: 1;"/><g stroke="none" fill="rgb(153,0,0)" fill-opacity="1" transform="matrix(1,-2.4492935982947064e-16,2.4492935982947064e-16,1,14.125704520089286,47.63999023437499)" style="stroke: none; fill: rgb(153, 0, 0); stroke-width: 1;"><path d=" M10.72,-5.15 L0,0 L10.72,5.15 L7.12,0 Z"/></g></g><g class="composite-shape"><path class="real" d=" M139.86,46.41 C139.86,45.23 140.81,44.29 141.98,44.29 C143.15,44.29 144.1,45.23 144.1,46.41 C144.1,47.58 143.15,48.53 141.98,48.53 C140.81,48.53 139.86,47.58 139.86,46.41 Z" style="stroke-width: 1; stroke: rgb(0, 0, 0); fill: rgb(0, 0, 0); fill-opacity: 1;"/></g><g/></g><g/><g/><g/></svg>
        <svg xmlns="http://www.w3.org/2000/svg" xmlns:xlink="http://www.w3.org/1999/xlink" width="226" height="93.9375" style="width:226px;height:93.9375px;font-family:Asana-Math, Asana;background:transparent;"><g><g><g><g><g><g><g transform="matrix(1,0,0,1,88.04998779296875,59.16249084472656)"><path transform="matrix(0.017,0,0,-0.017,0,0)" d="M286 646L392 650C454 650 494 641 495 626L503 537L527 537C530 600 537 651 548 689C526 691 498 692 481 692L440 691L275 689L246 689C221 689 181 690 143 691L94 692L91 664L147 662C171 661 182 652 182 635C182 621 178 589 173 559L98 125C81 33 81 32 40 28L4 25L0 -3L34 -2C74 -1 106 0 127 0C145 0 174 -1 213 -2L265 -3L268 25L204 28C177 29 168 37 168 57C168 63 169 74 170 78L206 301L323 301C350 301 381 300 429 298L455 297L474 342L470 349C389 345 329 343 251 343L214 343L260 614C263 630 264 635 269 646Z" stroke="rgb(153,0,0)" stroke-opacity="1" stroke-width="8" fill="rgb(153,0,0)" fill-opacity="1"></path></g></g></g></g><svg x="88.04998779296875" overflow="visible" y="36.16249084472656" height="10" width="10.287500381469727"><path d=" M 10.29 4.85 l -3.15 -3.32 l -0.49 0.52 l 1.93 2.33 h -0.15 v 0.90 h 0.15 l -1.93 2.33 l 0.49 0.52 z  M 1.68 5.23 h 8.15 v -0.90 h -8.15 z" style="fill:rgb(153,0,0);fill-opacity:1;stroke-width:1px;stroke:none;stroke-opacity:1;"></path></svg></g></g></g><g><g><g><g><g><g><g transform="matrix(1,0,0,1,14.67498779296875,78.59999084472656)"><path transform="matrix(0.017,0,0,-0.017,0,0)" d="M286 646L392 650C454 650 494 641 495 626L503 537L527 537C530 600 537 651 548 689C526 691 498 692 481 692L440 691L275 689L246 689C221 689 181 690 143 691L94 692L91 664L147 662C171 661 182 652 182 635C182 621 178 589 173 559L98 125C81 33 81 32 40 28L4 25L0 -3L34 -2C74 -1 106 0 127 0C145 0 174 -1 213 -2L265 -3L268 25L204 28C177 29 168 37 168 57C168 63 169 74 170 78L206 301L323 301C350 301 381 300 429 298L455 297L474 342L470 349C389 345 329 343 251 343L214 343L260 614C263 630 264 635 269 646Z" stroke="rgb(153,0,0)" stroke-opacity="1" stroke-width="8" fill="rgb(153,0,0)" fill-opacity="1"></path></g></g></g></g><svg x="14.67498779296875" overflow="visible" y="55.59999084472656" height="10" width="10.287500381469727"><path d=" M 10.29 4.85 l -3.15 -3.32 l -0.49 0.52 l 1.93 2.33 h -0.15 v 0.90 h 0.15 l -1.93 2.33 l 0.49 0.52 z  M 1.68 5.23 h 8.15 v -0.90 h -8.15 z" style="fill:rgb(153,0,0);fill-opacity:1;stroke-width:1px;stroke:none;stroke-opacity:1;"></path></svg></g><g><g><g><g><g transform="matrix(1,0,0,1,24.61248779296875,84.30000915527344)"><path transform="matrix(0.0119,0,0,-0.0119,0,0)" d="M345 437L329 437L350 549C366 635 394 673 440 673C470 673 497 658 512 634L522 638C527 654 537 685 545 705L550 720C534 727 503 733 480 733C469 733 453 730 445 726C421 715 339 654 316 630C294 608 282 578 271 521L256 442C215 422 195 414 170 405L165 383L246 383L237 327C207 132 170 -54 148 -123C130 -182 100 -213 64 -213C41 -213 30 -206 12 -184L-2 -188C-6 -211 -20 -259 -25 -268C-16 -273 -1 -276 10 -276C51 -276 105 -245 144 -198C215 -114 235 -18 319 383L423 383C427 402 434 425 440 439L436 446C407 439 408 437 345 437ZM918 365C921 403 926 435 934 476C923 481 919 482 914 482C883 482 852 458 816 407C777 351 738 291 722 256L754 408C758 425 760 438 760 450C760 470 752 482 737 482C716 482 678 461 604 408L576 388L583 368L615 389C643 407 654 412 663 412C673 412 680 403 680 390C680 332 637 126 597 -2L607 -9C622 -4 638 -1 661 4L674 6L700 126C718 209 741 262 785 319C819 363 846 384 868 384C883 384 893 379 904 365ZM972 388L979 368L1011 389C1048 412 1051 414 1058 414C1068 414 1076 404 1076 391C1076 384 1072 361 1068 347L1002 107C994 76 989 49 989 30C989 6 1000 -9 1019 -9C1045 -9 1081 12 1179 85L1169 103L1143 86C1114 67 1091 56 1082 56C1075 56 1069 66 1069 76C1069 86 1071 95 1076 116L1153 420C1157 437 1159 448 1159 456C1159 473 1150 482 1134 482C1112 482 1075 461 1000 408ZM1166 712C1137 712 1108 679 1108 645C1108 620 1123 604 1147 604C1178 604 1202 633 1202 671C1202 695 1187 712 1166 712ZM1557 330L1580 330C1588 395 1595 432 1604 458C1580 473 1545 482 1508 482C1463 483 1390 463 1333 400C1279 352 1240 241 1240 136C1240 40 1282 -11 1362 -11C1416 -11 1464 9 1519 54L1569 95L1561 115L1546 105C1474 57 1436 40 1401 40C1345 40 1316 80 1316 159C1316 267 1351 371 1400 409C1421 425 1445 433 1476 433C1521 433 1557 414 1557 390ZM1746 390L1690 107C1689 99 1677 61 1677 31C1677 6 1688 -9 1707 -9C1742 -9 1777 11 1855 74L1886 99L1876 117L1831 86C1802 66 1782 56 1771 56C1762 56 1757 64 1757 76C1757 102 1771 183 1800 328L1813 390L1920 390L1931 440C1893 436 1859 434 1821 434C1837 528 1848 577 1866 631L1855 646C1835 634 1808 622 1777 610L1752 440C1708 419 1682 408 1664 403L1662 390ZM1987 388L1994 368L2026 389C2063 412 2066 414 2073 414C2083 414 2091 404 2091 391C2091 384 2087 361 2083 347L2017 107C2009 76 2004 49 2004 30C2004 6 2015 -9 2034 -9C2060 -9 2096 12 2194 85L2184 103L2158 86C2129 67 2106 56 2097 56C2090 56 2084 66 2084 76C2084 86 2086 95 2091 116L2168 420C2172 437 2174 448 2174 456C2174 473 2165 482 2149 482C2127 482 2090 461 2015 408ZM2181 712C2152 712 2123 679 2123 645C2123 620 2138 604 2162 604C2193 604 2217 633 2217 671C2217 695 2202 712 2181 712ZM2247 152C2247 46 2292 -11 2375 -11C2430 -11 2490 15 2535 57C2597 116 2641 230 2641 331C2641 425 2591 482 2508 482C2404 482 2247 382 2247 152ZM2471 444C2532 444 2565 399 2565 315C2565 219 2534 113 2490 60C2472 39 2446 27 2415 27C2357 27 2323 72 2323 151C2323 264 2362 387 2411 427C2424 438 2447 444 2471 444ZM2697 388L2704 368L2736 389C2773 412 2776 414 2783 414C2794 414 2801 404 2801 389C2801 338 2760 145 2719 2L2726 -9C2751 -2 2774 4 2796 8C2815 134 2836 199 2882 268C2936 352 3011 414 3056 414C3067 414 3073 405 3073 390C3073 372 3070 351 3062 319L3010 107C3001 70 2997 47 2997 31C2997 6 3008 -9 3027 -9C3053 -9 3089 12 3187 85L3177 103L3151 86C3122 67 3100 56 3090 56C3083 56 3077 65 3077 76C3077 81 3078 92 3079 96L3145 372C3152 401 3156 429 3156 446C3156 469 3145 482 3125 482C3083 482 3014 444 2955 389C2917 354 2889 320 2837 247L2875 408C2879 426 2881 438 2881 449C2881 470 2873 482 2858 482C2837 482 2798 460 2725 408Z" stroke="rgb(153,0,0)" stroke-opacity="1" stroke-width="8" fill="rgb(153,0,0)" fill-opacity="1"></path></g></g></g></g></g></g></g></svg>
</svg>
