<svg xmlns="http://www.w3.org/2000/svg" width="227.6" height="95.537" style="width:227.60000610351562px;height:95.5374984741211px;background:0 0;fill:none"><svg xmlns="http://www.w3.org/2000/svg"/><svg xmlns="http://www.w3.org/2000/svg" class="role-diagram-draw-area" style="overflow:visible"><g class="shapes-region" style="stroke:#000;fill:none"><g class="arrow-line"><path d="M141.98 46.41h40.92" class="connection real" style="stroke:#900;stroke-opacity:1;stroke-width:1;fill:none;fill-opacity:1"/><path fill="#900" stroke="none" d="M10.72-5.15 0 0l10.72 5.15L7.12 0Z" style="stroke:none;fill:#900;stroke-width:1" transform="matrix(-1 0 0 -1 185.897 46.406)"/></g><g class="arrow-line"><path d="M141.98 46.41h-19.16" class="connection real" style="stroke:#900;stroke-opacity:1;stroke-width:1;fill:none;fill-opacity:1"/><path fill="#900" stroke="none" d="M10.72-5.15 0 0l10.72 5.15L7.12 0Z" style="stroke:none;fill:#900;stroke-width:1" transform="translate(119.817 46.406)"/></g><g class="composite-shape"><defs><pattern id="_pgfudrry6ge4dg-full-view" width="11.314" height="11.314" x="0" y="0" patternTransform="rotate(45 0 0)" patternUnits="userSpaceOnUse"><path d="M0 0v11.314M5.657 0v11.314M11.314 0v11.314" style="stroke:#000;stroke-opacity:1;stroke-width:1;fill:none"/></pattern></defs><path d="M36.29 13.4h34.24v34.24H36.29Z" class="real" style="stroke-width:1;stroke:#000;fill:url(#_pgfudrry6ge4dg-full-view);fill-opacity:1"/></g><g class="arrow-line"><path d="M53.41 30.52h40.92" class="connection real" style="stroke:#900;stroke-opacity:1;stroke-width:1;fill:none;fill-opacity:1"/><path fill="#900" stroke="none" d="M10.72-5.15 0 0l10.72 5.15L7.12 0Z" style="stroke:none;fill:#900;stroke-width:1" transform="matrix(-1 0 0 -1 97.326 30.52)"/></g><g class="arrow-line"><path d="M36.29 47.64H17.13" class="connection real" style="stroke:#900;stroke-opacity:1;stroke-width:1;fill:none;fill-opacity:1"/><path fill="#900" stroke="none" d="M10.72-5.15 0 0l10.72 5.15L7.12 0Z" style="stroke:none;fill:#900;stroke-width:1" transform="translate(14.126 47.64)"/></g><g class="composite-shape"><path d="M139.86 46.41c0-1.18.95-2.12 2.12-2.12s2.12.94 2.12 2.12a2.121 2.121 0 0 1-4.24 0Z" class="real" style="stroke-width:1;stroke:#000;fill:#000;fill-opacity:1"/></g></g></svg><svg xmlns="http://www.w3.org/2000/svg" xmlns:xlink="http://www.w3.org/1999/xlink" width="226" height="93.938" style="width:226px;height:93.9375px;font-family:Asana-Math,Asana;background:0 0"><path fill="#900" stroke="#900" stroke-width=".136" d="m92.912 48.18 1.802-.068c1.054 0 1.734.153 1.751.408l.136 1.513h.408c.051-1.07.17-1.938.357-2.584-.374-.034-.85-.05-1.139-.05l-.697.016-2.805.034h-.493c-.425 0-1.105-.017-1.751-.034l-.833-.017-.051.476.952.034c.408.017.595.17.595.46 0 .237-.068.781-.153 1.291l-1.275 7.378c-.289 1.564-.289 1.581-.986 1.65l-.612.05-.068.476.578-.017c.68-.017 1.224-.034 1.581-.034.306 0 .799.017 1.462.034l.884.017.051-.476-1.088-.05c-.459-.018-.612-.154-.612-.494 0-.102.017-.289.034-.357l.612-3.79h1.989c.459 0 .986.016 1.802.05l.442.017.323-.765-.068-.119a70 70 0 0 1-3.723.102h-.629l.782-4.607c.051-.272.068-.357.153-.544Z"/><svg width="10.288" height="10" x="88.05" y="36.162" overflow="visible"><path d="M10.29 4.85 7.14 1.53l-.49.52 1.93 2.33h-.15v.9h.15L6.65 7.61l.49.52zm-8.61.38h8.15v-.9H1.68z" style="fill:#900;fill-opacity:1;stroke-width:1px;stroke:none;stroke-opacity:1"/></svg><path fill="#900" stroke="#900" stroke-width=".136" d="m19.537 67.618 1.802-.068c1.054 0 1.734.153 1.751.408l.136 1.513h.408c.051-1.071.17-1.938.357-2.584-.374-.034-.85-.051-1.139-.051l-.697.017-2.805.034h-.493c-.425 0-1.105-.017-1.751-.034l-.833-.017-.051.476.952.034c.408.017.595.17.595.459 0 .238-.068.782-.153 1.292l-1.275 7.378c-.289 1.564-.289 1.581-.986 1.649l-.612.051-.068.476.578-.017c.68-.017 1.224-.034 1.581-.034.306 0 .799.017 1.462.034l.884.017.051-.476-1.088-.051c-.459-.017-.612-.153-.612-.493 0-.102.017-.289.034-.357l.612-3.791h1.989c.459 0 .986.017 1.802.051l.442.017.323-.765-.068-.119a70 70 0 0 1-3.723.102h-.629l.782-4.607c.051-.272.068-.357.153-.544Z"/><svg width="10.288" height="10" x="14.675" y="55.6" overflow="visible"><path d="M10.29 4.85 7.14 1.53l-.49.52 1.93 2.33h-.15v.9h.15L6.65 7.61l.49.52zm-8.61.38h8.15v-.9H1.68z" style="fill:#900;fill-opacity:1;stroke-width:1px;stroke:none;stroke-opacity:1"/></svg><path fill="#900" stroke="#900" stroke-width=".095" d="M28.718 79.1h-.19l.25-1.333c.19-1.023.523-1.476 1.07-1.476.357 0 .679.179.857.464l.12-.047c.059-.19.178-.56.273-.797l.06-.179a2.5 2.5 0 0 0-.834-.155c-.13 0-.32.036-.416.084-.286.13-1.261.856-1.535 1.142-.262.262-.405.619-.536 1.297l-.178.94a9 9 0 0 1-1.024.44l-.059.262h.964l-.107.667c-.357 2.32-.798 4.534-1.06 5.355-.214.702-.57 1.07-.999 1.07-.274 0-.405-.083-.619-.344l-.166.047c-.048.274-.215.845-.274.952.107.06.286.095.416.095.488 0 1.131-.368 1.595-.928.845-1 1.083-2.142 2.083-6.914h1.237c.048-.226.131-.5.202-.666l-.047-.083c-.345.083-.333.107-1.083.107Zm6.819.857c.035-.453.095-.833.19-1.321-.13-.06-.178-.072-.238-.072-.369 0-.738.286-1.166.893-.464.666-.928 1.38-1.119 1.797l.381-1.81a2 2 0 0 0 .071-.499c0-.238-.095-.38-.273-.38-.25 0-.702.25-1.583.88l-.333.238.083.238.381-.25c.333-.214.464-.274.571-.274.12 0 .202.107.202.262 0 .69-.511 3.142-.987 4.665l.119.083c.178-.06.369-.095.642-.155l.155-.023.31-1.428c.214-.988.487-1.619 1.011-2.297.405-.524.726-.774.988-.774.178 0 .297.06.428.227Zm.642-.274.084.238.38-.25c.44-.274.476-.298.56-.298.119 0 .214.12.214.274 0 .083-.048.357-.095.524l-.786 2.856c-.095.369-.154.69-.154.916 0 .286.13.464.357.464.309 0 .737-.25 1.904-1.118l-.12-.215-.309.203c-.345.226-.619.357-.726.357-.083 0-.154-.12-.154-.238 0-.12.023-.226.083-.476l.916-3.618c.048-.202.072-.333.072-.428 0-.203-.108-.31-.298-.31-.262 0-.702.25-1.595.88Zm2.309-3.856c-.345 0-.69.393-.69.798 0 .297.178.487.464.487.369 0 .654-.345.654-.797 0-.285-.178-.488-.428-.488Zm4.653 4.546h.273c.096-.773.179-1.214.286-1.523-.286-.179-.702-.286-1.142-.286-.536-.012-1.405.226-2.083.976-.642.571-1.107 1.892-1.107 3.142 0 1.142.5 1.749 1.452 1.749.643 0 1.214-.238 1.869-.774l.595-.487-.096-.238-.178.119c-.857.57-1.31.773-1.726.773-.666 0-1.011-.476-1.011-1.416 0-1.285.416-2.523 1-2.975.25-.19.535-.286.904-.286.535 0 .964.226.964.512Zm2.249-.714-.667 3.368c-.011.095-.154.547-.154.904 0 .298.13.476.357.476.416 0 .833-.238 1.761-.988l.369-.297-.12-.214-.535.369q-.517.357-.714.357c-.107 0-.166-.096-.166-.238 0-.31.166-1.274.511-3l.155-.737h1.273l.131-.595c-.452.048-.856.071-1.309.071.19-1.118.322-1.701.536-2.344l-.131-.178c-.238.142-.56.285-.928.428l-.298 2.023c-.523.25-.833.38-1.047.44l-.024.155Zm2.868.024.083.238.38-.25c.441-.274.477-.298.56-.298.12 0 .214.12.214.274 0 .083-.047.357-.095.524l-.785 2.856c-.095.369-.155.69-.155.916 0 .286.131.464.357.464.31 0 .738-.25 1.904-1.118l-.119-.215-.31.203c-.344.226-.618.357-.725.357-.084 0-.155-.12-.155-.238 0-.12.024-.226.083-.476l.917-3.618c.047-.202.071-.333.071-.428 0-.203-.107-.31-.297-.31-.262 0-.703.25-1.595.88Zm2.308-3.856c-.345 0-.69.393-.69.798 0 .297.179.487.464.487.37 0 .655-.345.655-.797 0-.285-.179-.488-.429-.488Zm.786 6.664c0 1.262.535 1.94 1.523 1.94.654 0 1.368-.31 1.904-.81.738-.701 1.261-2.058 1.261-3.26 0-1.118-.595-1.797-1.582-1.797-1.238 0-3.106 1.19-3.106 3.927Zm2.665-3.475c.726 0 1.119.536 1.119 1.536 0 1.142-.369 2.403-.893 3.034a1.14 1.14 0 0 1-.892.393c-.69 0-1.095-.536-1.095-1.476 0-1.345.464-2.808 1.047-3.284.155-.131.429-.203.714-.203Zm2.69.667.083.238.38-.25c.441-.274.477-.298.56-.298.131 0 .214.12.214.298 0 .607-.488 2.904-.975 4.605l.083.131c.297-.083.571-.155.833-.202.226-1.5.476-2.273 1.023-3.094.643-1 1.535-1.738 2.07-1.738.132 0 .203.108.203.286 0 .214-.036.464-.13.845l-.62 2.523c-.107.44-.154.714-.154.904 0 .298.13.476.357.476.31 0 .738-.25 1.904-1.118l-.12-.215-.309.203c-.345.226-.607.357-.726.357-.083 0-.154-.107-.154-.238 0-.06.012-.19.024-.238l.785-3.285c.083-.345.13-.678.13-.88 0-.274-.13-.429-.368-.429-.5 0-1.32.452-2.023 1.107-.452.416-.785.821-1.404 1.69l.452-1.916c.048-.214.071-.357.071-.488 0-.25-.095-.393-.273-.393-.25 0-.714.262-1.583.88Z"/></svg></svg>