<svg xmlns="http://www.w3.org/2000/svg" width="356.6" height="111.5" style="width:356.6000061035156px;height:111.5374984741211px;background:#fff;fill:none"><svg xmlns="http://www.w3.org/2000/svg"/><svg xmlns="http://www.w3.org/2000/svg" class="role-diagram-draw-area"><g class="shapes-region" style="stroke:#000;fill:none"><g class="composite-shape"><defs><pattern id="_pgfakmr8xrt1" width="11.3" height="11.3" x="0" y="0" patternTransform="rotate(45 0 0)" patternUnits="userSpaceOnUse"><path d="M0 0v11.3M5.7 0v11.3M11.3 0v11.3" style="stroke:#eee;stroke-opacity:1;stroke-width:1;fill:none"/></pattern></defs><path d="M5.8 4.8h53.6v83H5.8Z" class="real" style="stroke-width:1;stroke:#000;fill:url(#_pgfakmr8xrt1);fill-opacity:1"/></g><g class="composite-shape"><defs><pattern id="_pgf9a7t6yu3q" width="11.3" height="11.3" x="0" y="0" patternTransform="rotate(45 0 0)" patternUnits="userSpaceOnUse"><path d="M0 0v11.3M5.7 0v11.3M11.3 0v11.3" style="stroke:#eee;stroke-opacity:1;stroke-width:1;fill:none"/></pattern></defs><path d="M59.8 30h19L89 40.2v47.6H59.8Z" class="real" style="stroke-width:1;stroke:#000;fill:url(#_pgf9a7t6yu3q);fill-opacity:1"/></g><g class="composite-shape"><defs><pattern id="_pgfezzhe51sn" width="11.3" height="11.3" x="0" y="0" patternTransform="rotate(45 0 0)" patternUnits="userSpaceOnUse"><path d="M0 0v11.3M5.7 0v11.3M11.3 0v11.3" style="stroke:#eee;stroke-opacity:1;stroke-width:1;fill:none"/></pattern></defs><path d="M219.4 2.8H273v83h-53.6Z" class="real" style="stroke-width:1;stroke:#000;fill:url(#_pgfezzhe51sn);fill-opacity:1"/></g><g class="composite-shape"><defs><pattern id="_pgfyuh69hnwz" width="11.3" height="11.3" x="0" y="0" patternTransform="rotate(45 0 0)" patternUnits="userSpaceOnUse"><path d="M0 0v11.3M5.7 0v11.3M11.3 0v11.3" style="stroke:#eee;stroke-opacity:1;stroke-width:1;fill:none"/></pattern></defs><path d="M273.4 28h19l10.2 10.2v47.6h-29.2Z" class="real" style="stroke-width:1;stroke:#000;fill:url(#_pgfyuh69hnwz);fill-opacity:1"/></g><g class="composite-shape"><path d="M7.4 97.3a9.3 9.3 0 1 1 18.6 0 9.3 9.3 0 0 1-18.6 0Z" class="real" style="stroke-width:1;stroke:#000;fill:#000;fill-opacity:.5"/></g><g class="composite-shape"><path d="M65.8 97.8a9.3 9.3 0 1 1 18.6 0 9.3 9.3 0 0 1-18.6 0Z" class="real" style="stroke-width:1;stroke:#000;fill:#000;fill-opacity:.5"/></g><g class="composite-shape"><path d="M16.6 40.3a8.9 8.9 0 1 1 17.8 0 8.9 8.9 0 0 1-17.8 0Z" class="real" style="stroke-width:1;stroke:#900;stroke-opacity:1;fill:#fff;fill-opacity:1"/></g><g class="arrow-line"><path d="M25.5 49.2v28" class="connection real" style="stroke:#900;stroke-opacity:1;stroke-width:1;fill:none;fill-opacity:1"/></g><g class="arrow-line"><path d="m25.5 49.2-4.9 10" class="connection real" style="stroke:#900;stroke-opacity:1;stroke-width:1;fill:none;fill-opacity:1"/></g><g class="arrow-line"><path d="m25.5 49.2 4.6 9" class="connection real" style="stroke:#900;stroke-opacity:1;stroke-width:1;fill:none;fill-opacity:1"/></g><g class="arrow-line"><path d="M25.5 77.2 30.8 88" class="connection real" style="stroke:#900;stroke-opacity:1;stroke-width:1;fill:none;fill-opacity:1"/></g><g class="arrow-line"><path d="m25.5 77.2-4.9 10" class="connection real" style="stroke:#900;stroke-opacity:1;stroke-width:1;fill:none;fill-opacity:1"/></g><g class="arrow-line"><path d="M120.5 49.1h66.4m-66.4 3h66.4" class="connection real" style="stroke:#900;stroke-opacity:1;stroke-width:1;fill:none;fill-opacity:1"/><path stroke="#900" d="M11-3.3Q5-.5 0 0q5 .5 11 3.3" style="stroke:#900;stroke-width:1" transform="matrix(-1 0 0 -1 194.9 50.6)"/></g><g class="arrow-line"><path d="M351.4 64.2h-44.3" class="connection real" style="stroke:#900;stroke-opacity:1;stroke-width:2;fill:none;fill-opacity:1"/><path fill="#900" stroke="none" d="M13.4-6.4 0 0l13.4 6.4L8.9 0Z" style="stroke:none;fill:#900;stroke-width:2" transform="translate(303.1 64.2)"/></g><g class="composite-shape"><path d="M221 95.3a9.3 9.3 0 1 1 18.6 0 9.3 9.3 0 0 1-18.6 0Z" class="real" style="stroke-width:1;stroke:#000;fill:#000;fill-opacity:.5"/></g><g class="composite-shape"><path d="M279.4 95.8a9.3 9.3 0 1 1 18.6 0 9.3 9.3 0 0 1-18.6 0Z" class="real" style="stroke-width:1;stroke:#000;fill:#000;fill-opacity:.5"/></g><g class="composite-shape"><path d="M255.6 36.2a8.9 8.9 0 1 1 17 5.2 8.9 8.9 0 0 1-17-5.2Z" class="real" style="stroke-width:1;stroke:#900;stroke-opacity:1;fill:#fff;fill-opacity:1"/></g><g class="arrow-line"><path d="m261.4 47.3-8.3 26.8" class="connection real" style="stroke:#900;stroke-opacity:1;stroke-width:1;fill:none;fill-opacity:1"/></g><g class="arrow-line"><path d="m261.4 47.3-7.6 8.1" class="connection real" style="stroke:#900;stroke-opacity:1;stroke-width:1;fill:none;fill-opacity:1"/></g><g class="arrow-line"><path d="m261.4 47.3 1.7 10" class="connection real" style="stroke:#900;stroke-opacity:1;stroke-width:1;fill:none;fill-opacity:1"/></g><g class="arrow-line"><path d="m253.1 74 1.9 12" class="connection real" style="stroke:#900;stroke-opacity:1;stroke-width:1;fill:none;fill-opacity:1"/></g><g class="arrow-line"><path d="m253.1 74-7.6 8.1" class="connection real" style="stroke:#900;stroke-opacity:1;stroke-width:1;fill:none;fill-opacity:1"/></g><g class="arrow-line"><path d="M75.2 14.7h34" class="connection real" style="stroke:#900;stroke-opacity:1;stroke-width:1;fill:none;fill-opacity:1"/><path stroke="#900" d="M11-3.3Q5-.5 0 0q5 .5 11 3.3" style="stroke:#900;stroke-width:1" transform="matrix(-1 0 0 -1 111.2 14.7)"/></g><g class="composite-shape"><path d="m259.1 19.6 1 1.4h2l-1.2 1.5.6 1.7-1.7-.6-1.5 1.1V23l-1.5-1 1.8-.6Z" class="real" style="stroke-width:1;stroke:#900;stroke-opacity:1;fill:#900;fill-opacity:1"/></g><g class="composite-shape"><path d="m248.3 27.3 1.6.8 1.6-.9-.2 1.8 1.3 1.2-1.8.4-.8 1.6-.8-1.6-1.8-.2 1.2-1.3Z" class="real" style="stroke-width:1;stroke:#900;stroke-opacity:1;fill:#900;fill-opacity:1"/></g></g></svg><svg xmlns="http://www.w3.org/2000/svg" xmlns:xlink="http://www.w3.org/1999/xlink" width="355" height="109.9" style="width:355px;height:109.9375px;font-family:Asana-Math,Asana;background:#fff"><path fill="#900" stroke="#900" stroke-width=".1" d="M117.3 70.2q0 .4.2.4l.3-.3.3-.4q1.2.8 1.7.7c1.7 0 2.4-1 2.4-2.1a2 2 0 0 0-.6-1.4q-.8-.6-1.7-.8c-.9-.1-1.9-.3-1.9-1.2q-.1-1 1.7-1.1c1.6 0 1.7 1.3 1.7 1.8l.2.1q.3 0 .2-.3V64l-.1-.3-.3.2-.3.2q-1-.5-1.4-.4c-1.8 0-2.4 1-2.4 1.8q0 .8.6 1.3t2 .7c.3 0 1.6.3 1.6 1.4q0 1.2-1.7 1.3-1.8 0-2.1-2.1 0-.3-.2-.3t-.2.4Zm5.9-5.8c1.2 0 1.2 0 1.2 1.4V68c0 1.2 0 2.6 2.2 2.6q1.3 0 2-1.4v1.4l2.1-.2v-.5c-1 0-1.1 0-1.1-.8v-5.3l-2.2.1v.5q1.3-.1 1.1.8V68q0 2.1-1.8 2.3c-1.2 0-1.3-.7-1.3-1.5v-5l-2.2.2Zm8.3 2.8c0 1.9 1.5 3.4 3.2 3.4q1.5-.1 2-1v1l2.2-.2v-.5c-1 0-1.1 0-1.1-.8V60l-2.2.2v.4q1.3-.1 1.2.9v3.2q-.7-.9-2-1a3.4 3.4 0 0 0-3.3 3.5Zm1.3 0q-.1-1 .5-2.1.4-.9 1.6-1a2 2 0 0 1 1.7.9l.1.6v3l-.1.6a2 2 0 0 1-1.8 1q-1 0-1.6-1a4 4 0 0 1-.4-2Zm7 0c0 1.9 1.5 3.4 3.2 3.4q1.5-.1 2-1v1l2.3-.2v-.5c-1 0-1.2 0-1.2-.8V60l-2.2.2v.4q1.3-.1 1.2.9v3.2q-.6-.9-1.9-1a3.4 3.4 0 0 0-3.3 3.5Zm1.3 0q-.1-1 .5-2.1.5-.9 1.7-1a2 2 0 0 1 1.6.9l.2.6v3l-.2.6a2 2 0 0 1-1.8 1q-1 0-1.6-1a4 4 0 0 1-.4-2Zm7-.1c0 2 1.6 3.5 3.3 3.5 1.8 0 2.5-1.7 2.5-2l-.2-.2-.2.2c-.5 1.6-1.9 1.6-2 1.6a2 2 0 0 1-1.7-1q-.6-1.2-.5-2.3h4.2q.5 0 .4-.3c0-1.5-.8-3-2.7-3-1.7 0-3.1 1.6-3.1 3.5Zm1.3-.5c0-2.2 1.3-2.6 1.8-2.6 1.6 0 1.7 2 1.7 2.6Zm5.4 3.8h3.4v-.5q-1.3.2-1.2-.6v-2.8c0-1.6 1-2.4 2-2.4q1.3.2 1.2 1.7v3.5q.2.8-1.2.6v.5h3.4v-.5q-1.2.1-1.2-.4v-2.9c0-1.3 0-1.7-.5-2.3q-.3-.4-1.5-.5-1.6 0-2.3 1.5v-1.5l-2 .1v.5c1 0 1 .1 1 .8v4c0 .7 0 .7-1 .7Zm13.4-6h1.1v4.9q.2.8-1.1.6v.5h3.6v-.5h-.3c-1.1 0-1.2-.1-1.2-.7v-4.8h1.7v-.5h-1.7v-1.7q.2-2 1.4-2h.5q-.4.1-.5.7t.7.6q.6 0 .6-.6 0-1-1.3-1c-1 0-2.4.7-2.4 2.3V64h-1.1Zm4.5 2.8c0 2 1.5 3.4 3.3 3.4s3.3-1.5 3.3-3.4c0-2-1.5-3.5-3.3-3.5-1.9 0-3.3 1.6-3.3 3.5Zm1.2-.1q-.1-1 .4-2a2 2 0 0 1 1.7-1 2 2 0 0 1 1.7.9q.5 1 .4 2 .1 1-.4 2a2 2 0 0 1-3.4.2q-.5-1.2-.4-2.1Zm6.3 3.3h3.6v-.5h-.3c-1.2 0-1.2-.1-1.2-.7V67c0-1.5.6-2.8 1.8-2.8h.2s-.4.2-.4.6q0 .6.7.6.4 0 .6-.6-.1-.9-1.1-1c-1.1 0-1.6 1-1.9 1.7v-1.6l-2 .1v.5q1.3-.1 1.1.8v4q.2.9-1.1.7Zm6-3.2c0 1.9 1.4 3.4 3.1 3.4 2 0 2.5-1.8 2.5-2l-.2-.1-.2.1c-.4 1.4-1.4 1.6-2 1.6s-2-.7-2-3c0-2.5 1.2-3.1 2-3.1.1 0 1 0 1.6.5q-.8.2-.7.7 0 .7.7.7t.7-.7c0-1-1.2-1.6-2.3-1.6-2 0-3.3 1.6-3.3 3.5Zm6.5-.1c0 2 1.6 3.5 3.3 3.5 1.8 0 2.5-1.7 2.5-2l-.2-.2-.2.2c-.5 1.6-1.9 1.6-2 1.6a2 2 0 0 1-1.7-1q-.6-1.2-.5-2.3h4.2q.4 0 .4-.3c0-1.5-.8-3-2.7-3-1.7 0-3.1 1.6-3.1 3.5Zm1.2-.5c.1-2.2 1.4-2.6 1.9-2.6 1.5 0 1.7 2 1.7 2.6ZM329 47.4l1.9-.1q1.6 0 1.7.4l.2 1.5h.4q0-1.6.3-2.6h-7.7v.4h.9q.6.2.6.5l-.2 1.3-1.2 7.4c-.3 1.6-.3 1.6-1 1.7h-.6l-.1.5h4.6v-.5h-1.1q-.7 0-.6-.5V57l.6-3.8h4.2l.4-.7-.1-.1-3.7.1h-.7l.8-4.6q0-.4.2-.5Z"/><svg width="10.3" height="10" x="324.2" y="35.3" overflow="visible"><path d="M10.3 4.9 7 1.4l-.5.5 2 2.4h-.2v.9h.2l-2 2.3.5.5zm-8.6.3h8.1v-.9H1.7z" style="fill:#900;fill-opacity:1;stroke-width:1px;stroke:none;stroke-opacity:1"/></svg><path fill="#900" stroke="#900" stroke-width=".1" d="M117 16.4h1c-1.8 2-2.5 3.4-2.5 5q.1 2.2 1.9 2.3c2.3 0 5-4.2 5-6.7q-.1-1.6-1.1-1.7l-.6.2-.9.8.2.4.5-.2q.7 0 .7 1c0 2.6-1.6 5.4-3.1 5.4q-1.4 0-1.4-1.8 0-2.5 2.3-5.5l-.1-.3-1 .2h-2.7l-.6 2h.3l.3-.7q.2-.4.9-.4z"/><svg width="9.4" height="10" x="114.2" y="4.5" overflow="visible"><path d="M9.4 4.9 6.1 1.4l-.5.5 2 2.4h-.2v.9h.1L5.7 7.6l.5.5zm-7.7.3h7.2v-.9H1.7z" style="fill:#900;fill-opacity:1;stroke-width:1px;stroke:none;stroke-opacity:1"/></svg></svg></svg>