<svg xmlns="http://www.w3.org/2000/svg" width="187.6" height="122.7" style="width:187.60000610351562px;height:122.7249984741211px;background:0 0;fill:none"><svg xmlns="http://www.w3.org/2000/svg"/><svg xmlns="http://www.w3.org/2000/svg" class="role-diagram-draw-area"><g class="shapes-region" style="stroke:#000;fill:none"><g class="arrow-line"><path d="M173.9 7v52.8" class="connection real" style="stroke:#900;stroke-opacity:1;stroke-width:2;fill:none;fill-opacity:1"/><path fill="#900" stroke="none" d="M13.4-6.4 0 0l13.4 6.4L8.9 0Z" style="stroke:none;fill:#900;stroke-width:2" transform="rotate(90 85.4 88.5)"/></g><g class="arrow-line"><path d="M173.9 59.8v52.8" class="connection real" style="stroke:#900;stroke-opacity:1;stroke-width:2;fill:none;fill-opacity:1"/><path fill="#900" stroke="none" d="M13.4-6.4 0 0l13.4 6.4L8.9 0Z" style="stroke:none;fill:#900;stroke-width:2" transform="rotate(-90 145.2 -28.6)"/></g><g class="composite-shape"><defs><pattern id="_pgf9n4l6qbk8" width="11.3" height="11.3" x="0" y="0" patternTransform="rotate(45 0 0)" patternUnits="userSpaceOnUse"><path d="M0 0v11.3M5.7 0v11.3M11.3 0v11.3" style="stroke:#000;stroke-opacity:1;stroke-width:1;fill:none"/></pattern></defs><path d="M46.2 5.3h55v54h-55Z" class="real" style="stroke-width:1;stroke:#000;fill:url(#_pgf9n4l6qbk8);fill-opacity:1"/></g><g class="arrow-line"><path d="M86.3 59.6v52.7" class="connection real" style="stroke:#900;stroke-opacity:1;stroke-width:2;fill:none;fill-opacity:1"/><path fill="#900" stroke="none" d="M13.4-6.4 0 0l13.4 6.4L8.9 0Z" style="stroke:none;fill:#900;stroke-width:2" transform="rotate(-90 101.3 15)"/></g><g class="arrow-line"><path d="M61 63.6v52.7" class="connection real" style="stroke:#900;stroke-opacity:1;stroke-width:2;fill:none;fill-opacity:1"/><path fill="#900" stroke="none" d="M13.4-6.4 0 0l13.4 6.4L8.9 0Z" style="stroke:none;fill:#900;stroke-width:2" transform="rotate(90 .7 60.3)"/></g><g class="composite-shape"><path d="M171.7 59.8a2.1 2.1 0 1 1 4.3 0 2.1 2.1 0 0 1-4.3 0Z" class="real" style="stroke-width:1;stroke:#000;fill:#000;fill-opacity:1"/></g></g></svg><svg xmlns="http://www.w3.org/2000/svg" xmlns:xlink="http://www.w3.org/1999/xlink" width="186" height="121.1" style="width:186px;height:121.125px;font-family:Asana-Math,Asana;background:0 0"><path fill="#900" stroke="#900" stroke-width=".1" d="M101.3 92h1.8q1.7 0 1.8.3l.1 1.5h.4q0-1.5.4-2.5H98v.4h.9q.6 0 .6.5l-.2 1.3-1.3 7.4c-.3 1.5-.3 1.5-1 1.6h-.6v.5h4.5v-.4l-1-.1q-.7 0-.7-.5v-.4l.7-3.7h4.2l.3-.7V97l-3.8.1h-.6l.8-4.6.1-.5Z"/><svg width="10.3" height="10" x="96.5" y="80" overflow="visible"><path d="M10.3 4.9 7 1.4l-.5.5 2 2.4h-.2v.9h.2l-2 2.3.5.5zm-8.6.3h8.1v-.9H1.7z" style="fill:#900;fill-opacity:1;stroke-width:1px;stroke:none;stroke-opacity:1"/></svg><path fill="#900" stroke="#900" stroke-width=".1" d="M109.7 103c-.8 0-2.6.7-2.6 2.6q0 1.5 1.4 1.5h.4l-.5.4-.3.6.2.3c-.8.3-2.3.8-2.3 2.2q.1 1.3 2 1.4c1.6 0 3-.9 3-1.9q0-.6-.8-1.3l-.7-.5q-.6-.5-.6-.8 0-.2.4-.6 1.8-.5 2-2.3v-.4h.9l.1-.6H111s-.3-.7-1.4-.7Zm-1.2 5.7 1 .7q.7.6.7 1.1-.1 1-1.8 1.1-1.6 0-1.7-1.2c0-1.2 1.3-1.6 1.8-1.7Zm.9-5.4q1 0 1 1.3-.1 1.9-1.4 2-1 0-1.1-1.4 0-1.7 1.5-1.9Zm7.3 1 .2-1.3h-.2q-.6 0-1.2.8-.8 1.1-1.1 1.8l.4-1.8v-.5q0-.4-.2-.4t-1.6 1l-.4.2.1.2.4-.3.6-.2q.2 0 .2.2c0 .7-.5 3.2-1 4.7h.8l.1-.1.3-1.4q.3-1.4 1-2.3t1-.8.5.2Zm3.5 2-.4 1.5v.6q0 .3.2.4.4 0 1.8-1.1l-.1-.3q-.4.5-.9.6-.2 0-.2-.3v-.1l1.1-4.5v-.1l-.5.2-1-.3-.9.3q-1 .4-1.4 1.3-.8 1.7-.9 3.4 0 .9.4 1 .6.2 2.8-2.7Zm.6-2.6q-.4 1.8-1 2.6-1 1.6-1.7 1.7-.3 0-.2-.5c0-.8.3-2.2.7-3.1q.4-1 1.1-.9zm3.4 0h.8c-1.4 1.4-1.9 2.3-1.9 3.5q.1 1.5 1.3 1.6c1.7 0 3.5-3 3.5-4.7q0-1.1-.7-1.2-.3 0-.4.2l-.6.5.1.3.3-.1q.5 0 .5.7c0 1.8-1.1 3.7-2.2 3.7q-.9 0-1-1.3 0-1.7 1.7-3.7l-.1-.3-.7.2h-1.3l-.2-.1h-.4l-.4 1.5h.2l.2-.5q.2-.3.6-.3zm4.4.4v.2l.4-.3.6-.3.2.3v.5l-.9 2.9-.1 1q0 .4.3.4t2-1.1l-.2-.3-.3.3-.7.3-.2-.2.1-.5 1-3.6v-.5q0-.3-.3-.3t-1.6 1Zm2.3-3.9q-.7.1-.7.8 0 .5.5.5.5-.1.6-.8 0-.5-.4-.5Zm2 3.8-.6 3.4-.2 1q0 .3.4.4.5 0 1.7-1l.4-.3-.1-.2-.5.4-.8.3-.1-.2.5-3 .1-.8h1.3l.2-.6-1.4.1.6-2.3-.2-.2-.9.4-.3 2-1 .5v.1Zm2.4 6.8v.2q.1.9 1 1 2.1-.2 3.3-3.7l1.6-5.3-1 .2-.4 1.5q-.2 1-1 2-.7 1.1-1.2 1.2l-.2-.6.2-2.5v-1.1q0-.8-.3-.8l-.9.5-1 .7.2.2.6-.4.3-.1q.2 0 .2.6v.2l-.2 2.9v.5q0 .8.5.8.9-.1 2.4-2.4l-.6 2q-.8 3.1-2 3a1 1 0 0 1-.8-.7v-.2h-.1ZM11.7 72.4h1.8q1.6 0 1.7.3l.2 1.5h.4q0-1.5.3-2.5H8.4v.4h.9q.6 0 .6.5t-.2 1.3l-1.2 7.3c-.3 1.6-.3 1.6-1 1.7h-.6l-.1.5h4.5V83h-1q-.7 0-.6-.5V82l.6-3.7h4.2l.4-.7-.1-.2-3.7.1h-.7l.8-4.6.2-.5Z"/><svg width="10.3" height="10" x="6.8" y="60.4" overflow="visible"><path d="M10.3 4.9 7 1.4l-.5.5 2 2.4h-.2v.9h.2l-2 2.3.5.5zm-8.6.3h8.1v-.9H1.7z" style="fill:#900;fill-opacity:1;stroke-width:1px;stroke:none;stroke-opacity:1"/></svg><path fill="#900" stroke="#900" stroke-width=".1" d="m17 84.5.1.2.4-.3.5-.3q.3 0 .3.3c0 .7-.5 3-1 4.7l.9-.1q.3-2 1-3.1 1.2-1.6 2.1-1.8l.2.3-.1.9-.7 2.5-.1 1q0 .3.4.4.3 0 1.9-1.1l-.2-.3-.3.3-.7.3-.2-.2v-.3l.9-3.3v-.8q0-.5-.3-.5-.9.1-2 1.1l-1.4 1.7.4-1.9.1-.5q0-.4-.3-.4t-1.5 1Zm6.5 2.8q0 1.9 1.6 2a3 3 0 0 0 1.9-.9q1.1-1.2 1.2-3.3 0-1.6-1.5-1.8c-1.3 0-3.2 1.2-3.2 4Zm2.7-3.5q1 0 1.1 1.5 0 2-.9 3-.3.5-.9.5-1 0-1-1.5c0-1.4.4-2.8 1-3.3zm6.8 1 .2-1.4h-.3q-.5 0-1.1.8-.9 1.1-1.1 1.8l.3-1.8.1-.5q0-.3-.3-.4-.3 0-1.5 1l-.4.2.1.2.4-.3.6-.2.2.2c0 .7-.6 3.2-1 4.7h.7l.2-.1.3-1.4q.3-1.4 1-2.3t1-.8.4.2Zm9 3-.4.3-.7.3-.2-.2.1-.5.9-3.5v-.5q0-.3-.2-.4-.5 0-1.5.8-1 .7-1.8 1.7l.4-1.6v-.5q0-.4-.3-.4-.5 0-1.5.8l-1.6 1.7.4-1.6.1-.5q0-.4-.3-.4t-1.6 1l-.3.2.1.2 1-.6.2.3c0 .7-.5 3-1 4.7l.8-.1.3-1.2Q35.3 86 36 85t1.4-1l.1.3q0 .7-.7 3.9l-.2.8.9-.1.2-1.3q.3-1.5 1.2-2.4 1-1.1 1.6-1.2l.1.3-.3 1.5c-.4 2-.6 2.2-.6 2.8q0 .5.3.5t2-1.1Zm3.7-1.2-.3 1.6-.1.6q0 .3.3.4.3 0 1.7-1.1v-.3q-.6.5-1 .6l-.1-.3V88l1-4.5v-.1l-.5.2q-.5-.3-1-.3l-.9.3q-1 .4-1.4 1.3-.8 1.7-.9 3.4 0 .9.4 1 .7.2 2.8-2.7Zm.6-2.5q-.3 1.8-1 2.6-1 1.6-1.7 1.7-.2 0-.2-.5c0-.8.3-2.2.7-3.1q.4-1 1.2-.9zm4.4-3.6-.1-.1q-.7.4-2 .5v.2h.6q.4 0 .4.3v.3l-1.2 5.8-.2 1.2q0 .5.3.5t2-1.1l-.2-.3-.3.3-.7.3-.2-.2v-.4Z"/></svg></svg>