<svg xmlns="http://www.w3.org/2000/svg" xmlns:xlink="http://www.w3.org/1999/xlink" x="0" y="0" width="187.60000610351562" height="122.7249984741211" style="
        width:187.60000610351562px;
        height:122.7249984741211px;
        background: transparent;
        fill: none;
">
        <svg xmlns="http://www.w3.org/2000/svg"/>
        
        <svg xmlns="http://www.w3.org/2000/svg" class="role-diagram-draw-area"><g class="shapes-region" style="stroke: black; fill: none;"><g class="arrow-line"><path class="connection real" stroke-dasharray="" d="  M173.85,7.08 L173.85,59.84" style="stroke: rgb(153, 0, 0); stroke-opacity: 1; stroke-width: 2; fill: none; fill-opacity: 1;"/><g stroke="none" fill="rgb(153,0,0)" fill-opacity="1" transform="matrix(6.123233995736766e-17,1,-1,6.123233995736766e-17,173.84999389648436,3.080347292490103)" style="stroke: none; fill: rgb(153, 0, 0); stroke-width: 2;"><path d=" M13.4,-6.43 L0,0 L13.4,6.44 L8.9,0 Z"/></g></g><g class="arrow-line"><path class="connection real" stroke-dasharray="" d="  M173.85,59.84 L173.85,112.59" style="stroke: rgb(153, 0, 0); stroke-opacity: 1; stroke-width: 2; fill: none; fill-opacity: 1;"/><g stroke="none" fill="rgb(153,0,0)" fill-opacity="1" transform="matrix(-1.8369701987210297e-16,-1,1,-1.8369701987210297e-16,173.84999389648436,116.59165445963541)" style="stroke: none; fill: rgb(153, 0, 0); stroke-width: 2;"><path d=" M13.4,-6.43 L0,0 L13.4,6.44 L8.9,0 Z"/></g></g><g class="composite-shape"><defs><!-- react-text: 49241 --> <!-- /react-text --><pattern id="_pgf9n4l6qbk8" x="0" y="0" width="11.313708498984761" height="11.313708498984761" patternTransform="rotate(45,0,0)" patternUnits="userSpaceOnUse"><path d="M0,0 L0,11.313708498984761" style="stroke: rgb(0, 0, 0); stroke-opacity: 1; stroke-width: 1; fill: none;"/><path d="M5.656854249492381,0 L5.656854249492381,11.313708498984761" style="stroke: rgb(0, 0, 0); stroke-opacity: 1; stroke-width: 1; fill: none;"/><path d="M11.313708498984761,0 L11.313708498984761,11.313708498984761" style="stroke: rgb(0, 0, 0); stroke-opacity: 1; stroke-width: 1; fill: none;"/></pattern></defs><path class="real" d=" M46.2,5.25 L101.25,5.25 L101.25,59.22 L46.2,59.22 Z" style="stroke-width: 1; stroke: rgb(0, 0, 0); fill: url(&quot;#_pgf9n4l6qbk8&quot;); fill-opacity: 1;"/></g><g class="arrow-line"><path class="connection real" stroke-dasharray="" d="  M86.31,59.57 L86.31,112.32" style="stroke: rgb(153, 0, 0); stroke-opacity: 1; stroke-width: 2; fill: none; fill-opacity: 1;"/><g stroke="none" fill="rgb(153,0,0)" fill-opacity="1" transform="matrix(-1.8369701987210297e-16,-1,1,-1.8369701987210297e-16,86.30904599144344,116.32498779296878)" style="stroke: none; fill: rgb(153, 0, 0); stroke-width: 2;"><path d=" M13.4,-6.43 L0,0 L13.4,6.44 L8.9,0 Z"/></g></g><g class="arrow-line"><path class="connection real" stroke-dasharray="" d="  M60.98,63.56 L60.98,74.51 L60.98,116.32" style="stroke: rgb(153, 0, 0); stroke-opacity: 1; stroke-width: 2; fill: none; fill-opacity: 1;"/><g stroke="none" fill="rgb(153,0,0)" fill-opacity="1" transform="matrix(6.123233995736766e-17,1,-1,6.123233995736766e-17,60.975712658110105,59.56368062582342)" style="stroke: none; fill: rgb(153, 0, 0); stroke-width: 2;"><path d=" M13.4,-6.43 L0,0 L13.4,6.44 L8.9,0 Z"/></g></g><g class="composite-shape"><path class="real" d=" M171.7,59.84 C171.7,58.65 172.66,57.69 173.85,57.69 C175.04,57.69 176,58.65 176,59.84 C176,61.02 175.04,61.99 173.85,61.99 C172.66,61.99 171.7,61.02 171.7,59.84 Z" style="stroke-width: 1; stroke: rgb(0, 0, 0); fill: rgb(0, 0, 0); fill-opacity: 1;"/></g><g/></g><g/><g/><g/></svg>
        <svg xmlns="http://www.w3.org/2000/svg" xmlns:xlink="http://www.w3.org/1999/xlink" width="186" height="121.125" style="width:186px;height:121.125px;font-family:Asana-Math, Asana;background:transparent;"><g><g><g><g><g><g><g transform="matrix(1,0,0,1,96.4625244140625,102.97503662109375)"><path transform="matrix(0.017,0,0,-0.017,0,0)" d="M286 646L392 650C454 650 494 641 495 626L503 537L527 537C530 600 537 651 548 689C526 691 498 692 481 692L440 691L275 689L246 689C221 689 181 690 143 691L94 692L91 664L147 662C171 661 182 652 182 635C182 621 178 589 173 559L98 125C81 33 81 32 40 28L4 25L0 -3L34 -2C74 -1 106 0 127 0C145 0 174 -1 213 -2L265 -3L268 25L204 28C177 29 168 37 168 57C168 63 169 74 170 78L206 301L323 301C350 301 381 300 429 298L455 297L474 342L470 349C389 345 329 343 251 343L214 343L260 614C263 630 264 635 269 646Z" stroke="rgb(153,0,0)" stroke-opacity="1" stroke-width="8" fill="rgb(153,0,0)" fill-opacity="1"></path></g></g></g></g><svg x="96.4625244140625" overflow="visible" y="79.97503662109375" height="10" width="10.287500381469727"><path d=" M 10.29 4.85 l -3.15 -3.32 l -0.49 0.52 l 1.93 2.33 h -0.15 v 0.90 h 0.15 l -1.93 2.33 l 0.49 0.52 z  M 1.68 5.23 h 8.15 v -0.90 h -8.15 z" style="fill:rgb(153,0,0);fill-opacity:1;stroke-width:1px;stroke:none;stroke-opacity:1;"></path></svg></g><g><g><g><g><g transform="matrix(1,0,0,1,106.4000244140625,108.6750244140625)"><path transform="matrix(0.0119,0,0,-0.0119,0,0)" d="M275 482C208 482 55 419 55 259C55 182 100 136 177 136C185 136 196 136 207 137L166 99C150 84 139 66 139 52C139 42 146 31 160 19C91 -4 -37 -48 -37 -159C-37 -230 33 -276 142 -276C271 -276 384 -204 384 -121C384 -85 363 -49 320 -14L260 35C226 62 213 81 213 100C213 114 228 128 240 146C338 170 409 253 409 342C409 357 406 376 405 380C422 378 430 378 439 378C456 378 466 379 489 382L498 427L495 433C467 426 447 424 393 424C393 425 369 482 275 482ZM176 1L253 -58C299 -94 318 -121 318 -154C318 -206 249 -248 166 -248C84 -248 27 -206 27 -145C27 -43 137 -11 176 1ZM250 448C308 448 337 412 337 341C337 238 289 168 219 168C158 168 126 209 126 288C126 383 177 448 250 448ZM867 365C870 403 875 435 883 476C872 481 868 482 863 482C832 482 801 458 765 407C726 351 687 291 671 256L703 408C707 425 709 438 709 450C709 470 701 482 686 482C665 482 627 461 553 408L525 388L532 368L564 389C592 407 603 412 612 412C622 412 629 403 629 390C629 332 586 126 546 -2L556 -9C571 -4 587 -1 610 4L623 6L649 126C667 209 690 262 734 319C768 363 795 384 817 384C832 384 842 379 853 365ZM1158 204L1129 77C1125 60 1123 42 1123 26C1123 4 1132 -9 1147 -9C1170 -9 1211 17 1293 85L1286 106C1262 86 1233 59 1211 59C1202 59 1196 68 1196 82C1196 87 1196 90 1197 93L1289 472L1279 481L1246 463C1205 478 1188 482 1161 482C1133 482 1113 477 1086 464C1024 433 991 403 966 354C922 265 891 145 891 67C891 23 906 -11 925 -11C962 -11 1042 41 1158 204ZM1206 414C1184 305 1165 253 1131 201C1074 117 1013 59 981 59C969 59 963 72 963 99C963 163 991 280 1026 360C1050 415 1073 433 1121 433C1144 433 1162 429 1206 414ZM1496 420C1517 420 1533 421 1559 424C1448 304 1406 221 1406 121C1406 44 1452 -11 1516 -11C1654 -11 1807 236 1807 384C1807 441 1781 482 1745 482C1732 482 1720 478 1712 470L1662 423L1673 404C1682 410 1691 413 1700 413C1727 413 1743 390 1743 350C1743 202 1646 39 1558 39C1509 39 1478 81 1478 146C1478 251 1517 342 1615 464L1605 482C1585 473 1572 470 1544 470C1516 470 1474 472 1445 475L1433 476C1427 477 1422 477 1421 477C1409 477 1400 475 1389 470C1375 443 1364 407 1351 352L1373 352L1390 394C1397 411 1417 422 1441 422C1474 422 1458 420 1496 420ZM1863 388L1870 368L1902 389C1939 412 1942 414 1949 414C1959 414 1967 404 1967 391C1967 384 1963 361 1959 347L1893 107C1885 76 1880 49 1880 30C1880 6 1891 -9 1910 -9C1936 -9 1972 12 2070 85L2060 103L2034 86C2005 67 1982 56 1973 56C1966 56 1960 66 1960 76C1960 86 1962 95 1967 116L2044 420C2048 437 2050 448 2050 456C2050 473 2041 482 2025 482C2003 482 1966 461 1891 408ZM2057 712C2028 712 1999 679 1999 645C1999 620 2014 604 2038 604C2069 604 2093 633 2093 671C2093 695 2078 712 2057 712ZM2231 390L2175 107C2174 99 2162 61 2162 31C2162 6 2173 -9 2192 -9C2227 -9 2262 11 2340 74L2371 99L2361 117L2316 86C2287 66 2267 56 2256 56C2247 56 2242 64 2242 76C2242 102 2256 183 2285 328L2298 390L2405 390L2416 440C2378 436 2344 434 2306 434C2322 528 2333 577 2351 631L2340 646C2320 634 2293 622 2262 610L2237 440C2193 419 2167 408 2149 403L2147 390ZM2431 -180C2430 -187 2430 -193 2430 -198C2430 -241 2467 -276 2512 -276C2618 -276 2728 -152 2787 33L2928 473L2917 482C2888 471 2865 465 2843 463L2808 331C2796 284 2761 211 2728 162C2693 111 2644 67 2622 67C2610 67 2601 90 2602 115L2618 322C2620 353 2622 391 2622 419C2622 464 2615 482 2598 482C2585 482 2571 475 2523 442L2441 386L2452 368L2502 398C2507 401 2518 410 2527 410C2541 410 2549 391 2549 358C2549 357 2549 351 2548 343L2531 100L2530 60C2530 18 2548 -11 2573 -11C2610 -11 2694 74 2769 187L2720 16C2669 -161 2619 -234 2549 -234C2514 -234 2487 -207 2487 -172C2487 -167 2488 -159 2489 -150L2479 -146Z" stroke="rgb(153,0,0)" stroke-opacity="1" stroke-width="8" fill="rgb(153,0,0)" fill-opacity="1"></path></g></g></g></g></g></g></g><g><g><g><g><g><g><g transform="matrix(1,0,0,1,6.79998779296875,83.375)"><path transform="matrix(0.017,0,0,-0.017,0,0)" d="M286 646L392 650C454 650 494 641 495 626L503 537L527 537C530 600 537 651 548 689C526 691 498 692 481 692L440 691L275 689L246 689C221 689 181 690 143 691L94 692L91 664L147 662C171 661 182 652 182 635C182 621 178 589 173 559L98 125C81 33 81 32 40 28L4 25L0 -3L34 -2C74 -1 106 0 127 0C145 0 174 -1 213 -2L265 -3L268 25L204 28C177 29 168 37 168 57C168 63 169 74 170 78L206 301L323 301C350 301 381 300 429 298L455 297L474 342L470 349C389 345 329 343 251 343L214 343L260 614C263 630 264 635 269 646Z" stroke="rgb(153,0,0)" stroke-opacity="1" stroke-width="8" fill="rgb(153,0,0)" fill-opacity="1"></path></g></g></g></g><svg x="6.79998779296875" overflow="visible" y="60.375" height="10" width="10.287500381469727"><path d=" M 10.29 4.85 l -3.15 -3.32 l -0.49 0.52 l 1.93 2.33 h -0.15 v 0.90 h 0.15 l -1.93 2.33 l 0.49 0.52 z  M 1.68 5.23 h 8.15 v -0.90 h -8.15 z" style="fill:rgb(153,0,0);fill-opacity:1;stroke-width:1px;stroke:none;stroke-opacity:1;"></path></svg></g><g><g><g><g><g transform="matrix(1,0,0,1,16.73748779296875,89.075048828125)"><path transform="matrix(0.0119,0,0,-0.0119,0,0)" d="M24 388L31 368L63 389C100 412 103 414 110 414C121 414 128 404 128 389C128 338 87 145 46 2L53 -9C78 -2 101 4 123 8C142 134 163 199 209 268C263 352 338 414 383 414C394 414 400 405 400 390C400 372 397 351 389 319L337 107C328 70 324 47 324 31C324 6 335 -9 354 -9C380 -9 416 12 514 85L504 103L478 86C449 67 427 56 417 56C410 56 404 65 404 76C404 81 405 92 406 96L472 372C479 401 483 429 483 446C483 469 472 482 452 482C410 482 341 444 282 389C244 354 216 320 164 247L202 408C206 426 208 438 208 449C208 470 200 482 185 482C164 482 125 460 52 408ZM572 152C572 46 617 -11 700 -11C755 -11 815 15 860 57C922 116 966 230 966 331C966 425 916 482 833 482C729 482 572 382 572 152ZM796 444C857 444 890 399 890 315C890 219 859 113 815 60C797 39 771 27 740 27C682 27 648 72 648 151C648 264 687 387 736 427C749 438 772 444 796 444ZM1366 365C1369 403 1374 435 1382 476C1371 481 1367 482 1362 482C1331 482 1300 458 1264 407C1225 351 1186 291 1170 256L1202 408C1206 425 1208 438 1208 450C1208 470 1200 482 1185 482C1164 482 1126 461 1052 408L1024 388L1031 368L1063 389C1091 407 1102 412 1111 412C1121 412 1128 403 1128 390C1128 332 1085 126 1045 -2L1055 -9C1070 -4 1086 -1 1109 4L1122 6L1148 126C1166 209 1189 262 1233 319C1267 363 1294 384 1316 384C1331 384 1341 379 1352 365ZM2116 103L2090 86C2061 67 2039 56 2029 56C2022 56 2016 65 2016 76C2016 86 2018 95 2023 116L2098 413C2102 430 2105 446 2105 454C2105 471 2095 482 2079 482C2050 482 2012 464 1951 421C1888 376 1853 341 1804 272L1834 409C1838 429 1841 444 1841 451C1841 470 1831 482 1815 482C1785 482 1739 460 1684 418C1640 384 1620 363 1555 275L1588 408C1592 424 1594 439 1594 451C1594 470 1585 482 1571 482C1550 482 1512 461 1438 408L1410 388L1417 368C1454 391 1489 414 1496 414C1507 414 1514 404 1514 389C1514 338 1473 145 1432 2L1435 -9L1503 6L1525 108C1549 219 1576 278 1631 338C1673 384 1718 414 1746 414C1753 414 1757 406 1757 393C1757 358 1735 244 1694 69L1678 2L1683 -9L1752 6L1773 113C1789 194 1823 269 1867 318C1922 379 1972 414 2004 414C2012 414 2017 405 2017 389C2017 365 2014 351 1992 264C1952 105 1936 84 1936 31C1936 6 1947 -9 1966 -9C1992 -9 2028 12 2126 85ZM2434 204L2405 77C2401 60 2399 42 2399 26C2399 4 2408 -9 2423 -9C2446 -9 2487 17 2569 85L2562 106C2538 86 2509 59 2487 59C2478 59 2472 68 2472 82C2472 87 2472 90 2473 93L2565 472L2555 481L2522 463C2481 478 2464 482 2437 482C2409 482 2389 477 2362 464C2300 433 2267 403 2242 354C2198 265 2167 145 2167 67C2167 23 2182 -11 2201 -11C2238 -11 2318 41 2434 204ZM2482 414C2460 305 2441 253 2407 201C2350 117 2289 59 2257 59C2245 59 2239 72 2239 99C2239 163 2267 280 2302 360C2326 415 2349 433 2397 433C2420 433 2438 429 2482 414ZM2857 722L2845 733C2793 707 2757 698 2685 691L2681 670L2729 670C2753 670 2763 663 2763 648C2763 645 2763 640 2760 622C2749 567 2676 182 2661 132C2648 82 2642 52 2642 31C2642 6 2653 -9 2672 -9C2698 -9 2734 12 2832 85L2822 103L2796 86C2767 67 2745 56 2735 56C2728 56 2722 66 2722 76C2722 82 2723 89 2726 104Z" stroke="rgb(153,0,0)" stroke-opacity="1" stroke-width="8" fill="rgb(153,0,0)" fill-opacity="1"></path></g></g></g></g></g></g></g></svg>
</svg>
