<svg xmlns="http://www.w3.org/2000/svg" xmlns:xlink="http://www.w3.org/1999/xlink" x="0" y="0" width="356.6000061035156" height="111.5374984741211" style="
        width:356.6000061035156px;
        height:111.5374984741211px;
        background: #FFF;
        fill: none;
">
        <svg xmlns="http://www.w3.org/2000/svg"/>
        
        <svg xmlns="http://www.w3.org/2000/svg" class="role-diagram-draw-area"><g class="shapes-region" style="stroke: black; fill: none;"><g class="composite-shape"><defs><!-- react-text: 90274 --> <!-- /react-text --><pattern id="_pgfakmr8xrt1" x="0" y="0" width="11.313708498984761" height="11.313708498984761" patternTransform="rotate(45,0,0)" patternUnits="userSpaceOnUse"><path d="M0,0 L0,11.313708498984761" style="stroke: rgb(238, 238, 238); stroke-opacity: 1; stroke-width: 1; fill: none;"/><path d="M5.656854249492381,0 L5.656854249492381,11.313708498984761" style="stroke: rgb(238, 238, 238); stroke-opacity: 1; stroke-width: 1; fill: none;"/><path d="M11.313708498984761,0 L11.313708498984761,11.313708498984761" style="stroke: rgb(238, 238, 238); stroke-opacity: 1; stroke-width: 1; fill: none;"/></pattern></defs><path class="real" d=" M5.8,4.79 L59.44,4.79 L59.44,87.8 L5.8,87.8 Z" style="stroke-width: 1; stroke: rgb(0, 0, 0); fill: url(&quot;#_pgfakmr8xrt1&quot;); fill-opacity: 1;"/></g><g class="composite-shape"><defs><!-- react-text: 90280 --> <!-- /react-text --><pattern id="_pgf9a7t6yu3q" x="0" y="0" width="11.313708498984761" height="11.313708498984761" patternTransform="rotate(45,0,0)" patternUnits="userSpaceOnUse"><path d="M0,0 L0,11.313708498984761" style="stroke: rgb(238, 238, 238); stroke-opacity: 1; stroke-width: 1; fill: none;"/><path d="M5.656854249492381,0 L5.656854249492381,11.313708498984761" style="stroke: rgb(238, 238, 238); stroke-opacity: 1; stroke-width: 1; fill: none;"/><path d="M11.313708498984761,0 L11.313708498984761,11.313708498984761" style="stroke: rgb(238, 238, 238); stroke-opacity: 1; stroke-width: 1; fill: none;"/></pattern></defs><path class="real" d=" M59.84,29.99 L78.82,29.99 L89.04,40.21 L89.04,87.8 L59.84,87.8 Z" style="stroke-width: 1; stroke: rgb(0, 0, 0); fill: url(&quot;#_pgf9a7t6yu3q&quot;); fill-opacity: 1;"/></g><g class="composite-shape"><defs><!-- react-text: 90286 --> <!-- /react-text --><pattern id="_pgfezzhe51sn" x="0" y="0" width="11.313708498984761" height="11.313708498984761" patternTransform="rotate(45,0,0)" patternUnits="userSpaceOnUse"><path d="M0,0 L0,11.313708498984761" style="stroke: rgb(238, 238, 238); stroke-opacity: 1; stroke-width: 1; fill: none;"/><path d="M5.656854249492381,0 L5.656854249492381,11.313708498984761" style="stroke: rgb(238, 238, 238); stroke-opacity: 1; stroke-width: 1; fill: none;"/><path d="M11.313708498984761,0 L11.313708498984761,11.313708498984761" style="stroke: rgb(238, 238, 238); stroke-opacity: 1; stroke-width: 1; fill: none;"/></pattern></defs><path class="real" d=" M219.4,2.81 L273.04,2.81 L273.04,85.83 L219.4,85.83 Z" style="stroke-width: 1; stroke: rgb(0, 0, 0); fill: url(&quot;#_pgfezzhe51sn&quot;); fill-opacity: 1;"/></g><g class="composite-shape"><defs><!-- react-text: 90292 --> <!-- /react-text --><pattern id="_pgfyuh69hnwz" x="0" y="0" width="11.313708498984761" height="11.313708498984761" patternTransform="rotate(45,0,0)" patternUnits="userSpaceOnUse"><path d="M0,0 L0,11.313708498984761" style="stroke: rgb(238, 238, 238); stroke-opacity: 1; stroke-width: 1; fill: none;"/><path d="M5.656854249492381,0 L5.656854249492381,11.313708498984761" style="stroke: rgb(238, 238, 238); stroke-opacity: 1; stroke-width: 1; fill: none;"/><path d="M11.313708498984761,0 L11.313708498984761,11.313708498984761" style="stroke: rgb(238, 238, 238); stroke-opacity: 1; stroke-width: 1; fill: none;"/></pattern></defs><path class="real" d=" M273.44,28.01 L292.42,28.01 L302.64,38.23 L302.64,85.83 L273.44,85.83 Z" style="stroke-width: 1; stroke: rgb(0, 0, 0); fill: url(&quot;#_pgfyuh69hnwz&quot;); fill-opacity: 1;"/></g><g class="composite-shape"><path class="real" d=" M7.39,97.31 C7.39,92.17 11.55,88 16.69,88 C21.83,88 26,92.17 26,97.31 C26,102.45 21.83,106.61 16.69,106.61 C11.55,106.61 7.39,102.45 7.39,97.31 Z" style="stroke-width: 1; stroke: rgb(0, 0, 0); fill: rgb(0, 0, 0); fill-opacity: 0.5;"/></g><g class="composite-shape"><path class="real" d=" M65.79,97.81 C65.79,92.67 69.95,88.5 75.09,88.5 C80.23,88.5 84.4,92.67 84.4,97.81 C84.4,102.95 80.23,107.11 75.09,107.11 C69.95,107.11 65.79,102.95 65.79,97.81 Z" style="stroke-width: 1; stroke: rgb(0, 0, 0); fill: rgb(0, 0, 0); fill-opacity: 0.5;"/></g><g class="composite-shape"><path class="real" d=" M16.62,40.32 C16.62,35.42 20.6,31.44 25.51,31.44 C30.42,31.44 34.4,35.42 34.4,40.32 C34.4,45.23 30.42,49.21 25.51,49.21 C20.6,49.21 16.62,45.23 16.62,40.32 Z" style="stroke-width: 1; stroke: rgb(153, 0, 0); stroke-opacity: 1; fill: rgb(255, 255, 255); fill-opacity: 1;"/></g><g class="arrow-line"><path class="connection real" stroke-dasharray="" d="  M25.51,49.21 L25.51,77.21" style="stroke: rgb(153, 0, 0); stroke-opacity: 1; stroke-width: 1; fill: none; fill-opacity: 1;"/></g><g class="arrow-line"><path class="connection real" stroke-dasharray="" d="  M25.51,49.21 L20.6,59.21" style="stroke: rgb(153, 0, 0); stroke-opacity: 1; stroke-width: 1; fill: none; fill-opacity: 1;"/></g><g class="arrow-line"><path class="connection real" stroke-dasharray="" d="  M25.51,49.21 L30.1,58.21" style="stroke: rgb(153, 0, 0); stroke-opacity: 1; stroke-width: 1; fill: none; fill-opacity: 1;"/></g><g class="arrow-line"><path class="connection real" stroke-dasharray="" d="  M25.51,77.21 L30.76,87.99" style="stroke: rgb(153, 0, 0); stroke-opacity: 1; stroke-width: 1; fill: none; fill-opacity: 1;"/></g><g class="arrow-line"><path class="connection real" stroke-dasharray="" d="  M25.51,77.21 L20.6,87.21" style="stroke: rgb(153, 0, 0); stroke-opacity: 1; stroke-width: 1; fill: none; fill-opacity: 1;"/></g><g class="arrow-line"><path class="connection real" stroke-dasharray="" d="  M120.5,49.14 L186.9,49.14 M120.5,52.14 L186.9,52.14" style="stroke: rgb(153, 0, 0); stroke-opacity: 1; stroke-width: 1; fill: none; fill-opacity: 1;"/><g stroke="rgb(153,0,0)" stroke-opacity="1" transform="matrix(-1,1.2246467991473532e-16,-1.2246467991473532e-16,-1,194.89999389648435,50.63749694824218)" style="stroke: rgb(153, 0, 0); stroke-width: 1;"><path d=" M10.93,-3.29 Q4.96,-0.45 0,0 Q4.96,0.45 10.93,3.29"/></g></g><g class="arrow-line"><path class="connection real" stroke-dasharray="" d="  M351.4,64.2 L309.13,64.2 L307.13,64.2" style="stroke: rgb(153, 0, 0); stroke-opacity: 1; stroke-width: 2; fill: none; fill-opacity: 1;"/><g stroke="none" fill="rgb(153,0,0)" fill-opacity="1" transform="matrix(1,-2.4492935982947064e-16,2.4492935982947064e-16,1,303.13331705729166,64.20416870117187)" style="stroke: none; fill: rgb(153, 0, 0); stroke-width: 2;"><path d=" M13.4,-6.43 L0,0 L13.4,6.44 L8.9,0 Z"/></g></g><g class="composite-shape"><path class="real" d=" M220.99,95.33 C220.99,90.19 225.15,86.03 230.29,86.03 C235.43,86.03 239.6,90.19 239.6,95.33 C239.6,100.47 235.43,104.64 230.29,104.64 C225.15,104.64 220.99,100.47 220.99,95.33 Z" style="stroke-width: 1; stroke: rgb(0, 0, 0); fill: rgb(0, 0, 0); fill-opacity: 0.5;"/></g><g class="composite-shape"><path class="real" d=" M279.39,95.83 C279.39,90.69 283.55,86.53 288.69,86.53 C293.83,86.53 298,90.69 298,95.83 C298,100.97 293.83,105.14 288.69,105.14 C283.55,105.14 279.39,100.97 279.39,95.83 Z" style="stroke-width: 1; stroke: rgb(0, 0, 0); fill: rgb(0, 0, 0); fill-opacity: 0.5;"/></g><g class="composite-shape"><path class="real" d=" M255.58,36.19 C257.03,31.5 262.01,28.88 266.7,30.34 C271.39,31.79 274.01,36.77 272.55,41.46 C271.1,46.15 266.11,48.77 261.43,47.31 C256.74,45.85 254.12,40.87 255.58,36.19 Z" style="stroke-width: 1; stroke: rgb(153, 0, 0); stroke-opacity: 1; fill: rgb(255, 255, 255); fill-opacity: 1;"/></g><g class="arrow-line"><path class="connection real" stroke-dasharray="" d="  M261.43,47.31 L253.12,74.05" style="stroke: rgb(153, 0, 0); stroke-opacity: 1; stroke-width: 1; fill: none; fill-opacity: 1;"/></g><g class="arrow-line"><path class="connection real" stroke-dasharray="" d="  M261.43,47.31 L253.77,55.4" style="stroke: rgb(153, 0, 0); stroke-opacity: 1; stroke-width: 1; fill: none; fill-opacity: 1;"/></g><g class="arrow-line"><path class="connection real" stroke-dasharray="" d="  M261.43,47.31 L263.14,57.27" style="stroke: rgb(153, 0, 0); stroke-opacity: 1; stroke-width: 1; fill: none; fill-opacity: 1;"/></g><g class="arrow-line"><path class="connection real" stroke-dasharray="" d="  M253.12,74.05 L254.93,85.89" style="stroke: rgb(153, 0, 0); stroke-opacity: 1; stroke-width: 1; fill: none; fill-opacity: 1;"/></g><g class="arrow-line"><path class="connection real" stroke-dasharray="" d="  M253.12,74.05 L245.46,82.14" style="stroke: rgb(153, 0, 0); stroke-opacity: 1; stroke-width: 1; fill: none; fill-opacity: 1;"/></g><g class="arrow-line"><path class="connection real" stroke-dasharray="" d="  M75.2,14.7 L109.2,14.7" style="stroke: rgb(153, 0, 0); stroke-opacity: 1; stroke-width: 1; fill: none; fill-opacity: 1;"/><g stroke="rgb(153,0,0)" stroke-opacity="1" transform="matrix(-1,1.2246467991473532e-16,-1.2246467991473532e-16,-1,111.19999999999999,14.704992675781245)" style="stroke: rgb(153, 0, 0); stroke-width: 1;"><path d=" M10.93,-3.29 Q4.96,-0.45 0,0 Q4.96,0.45 10.93,3.29"/></g></g><g class="composite-shape"><path class="real" d=" M259.1,19.59 L260.17,21.05 L262.01,21.01 L260.92,22.48 L261.52,24.19 L259.78,23.62 L258.31,24.73 L258.32,22.91 L256.81,21.88 L258.56,21.32 Z" style="stroke-width: 1; stroke: rgb(153, 0, 0); stroke-opacity: 1; fill: rgb(153, 0, 0); fill-opacity: 1;"/></g><g class="composite-shape"><path class="real" d=" M248.28,27.31 L249.92,28.11 L251.52,27.2 L251.25,29.01 L252.59,30.23 L250.78,30.56 L250.01,32.22 L249.16,30.62 L247.35,30.42 L248.63,29.1 Z" style="stroke-width: 1; stroke: rgb(153, 0, 0); stroke-opacity: 1; fill: rgb(153, 0, 0); fill-opacity: 1;"/></g><g/></g><g/><g/><g/></svg>
        <svg xmlns="http://www.w3.org/2000/svg" xmlns:xlink="http://www.w3.org/1999/xlink" width="355" height="109.9375" style="width:355px;height:109.9375px;font-family:Asana-Math, Asana;background:#FFF;"><g><g><g><g transform="matrix(1,0,0,1,116.79998779296875,70.39999389648438)"><path transform="matrix(0.015,0,0,-0.015,0,0)" d="M33 13C33 -4 33 -11 44 -11C49 -11 50 -10 69 9C71 11 71 13 89 32C133 -10 178 -11 199 -11C314 -11 360 56 360 128C360 181 330 211 318 223C285 255 246 263 204 271C148 282 81 295 81 353C81 388 107 429 193 429C303 429 308 339 310 308C311 299 320 299 322 299C335 299 335 304 335 323L335 424C335 441 335 448 324 448C319 448 317 448 304 436C301 432 291 423 287 420C249 448 208 448 193 448C71 448 33 381 33 325C33 290 49 262 76 240C108 214 136 208 208 194C230 190 312 174 312 102C312 51 277 11 199 11C115 11 79 68 60 153C57 166 56 170 46 170C33 170 33 163 33 145ZM426 400C504 400 504 397 504 308L504 158C504 80 504 -11 656 -11C712 -11 756 17 785 79L785 -11L929 0L929 31C859 31 851 38 851 87L851 442L704 431L704 400C774 400 782 393 782 344L782 166C782 79 734 11 661 11C577 11 573 58 573 110L573 442L426 431ZM983 215C983 88 1081 -11 1195 -11C1259 -11 1304 23 1329 55L1329 -11L1476 0L1476 31C1406 31 1398 38 1398 87L1398 694L1254 683L1254 652C1324 652 1332 645 1332 596L1332 380C1303 416 1260 442 1206 442C1088 442 983 344 983 215ZM1066 214C1066 251 1068 311 1097 356C1118 387 1156 420 1210 420C1245 420 1287 405 1318 360C1329 343 1329 341 1329 323L1329 118C1329 100 1329 98 1318 81C1288 33 1243 11 1200 11C1155 11 1119 37 1095 75C1069 116 1066 173 1066 214ZM1538 215C1538 88 1636 -11 1750 -11C1814 -11 1859 23 1884 55L1884 -11L2031 0L2031 31C1961 31 1953 38 1953 87L1953 694L1809 683L1809 652C1879 652 1887 645 1887 596L1887 380C1858 416 1815 442 1761 442C1643 442 1538 344 1538 215ZM1621 214C1621 251 1623 311 1652 356C1673 387 1711 420 1765 420C1800 420 1842 405 1873 360C1884 343 1884 341 1884 323L1884 118C1884 100 1884 98 1873 81C1843 33 1798 11 1755 11C1710 11 1674 37 1650 75C1624 116 1621 173 1621 214ZM2087 220C2087 86 2192 -11 2307 -11C2429 -11 2474 100 2474 119C2474 129 2466 131 2461 131C2452 131 2450 125 2448 117C2413 14 2323 14 2313 14C2263 14 2223 44 2200 81C2170 129 2170 195 2170 231L2449 231C2471 231 2474 231 2474 252C2474 351 2420 448 2295 448C2179 448 2087 345 2087 220ZM2171 252C2177 401 2261 426 2295 426C2398 426 2408 291 2408 252ZM2535 0C2570 1 2621 3 2648 3C2674 3 2726 1 2760 0L2760 31C2693 31 2682 31 2682 76L2682 260C2682 364 2753 420 2817 420C2880 420 2891 366 2891 309L2891 76C2891 31 2880 31 2813 31L2813 0C2848 1 2899 3 2926 3C2952 3 3004 1 3038 0L3038 31C2986 31 2961 31 2960 61L2960 252C2960 338 2960 369 2929 405C2915 422 2882 442 2824 442C2751 442 2704 399 2676 337L2676 442L2535 431L2535 400C2605 400 2613 393 2613 344L2613 76C2613 31 2602 31 2535 31ZM3424 400L3503 400L3503 76C3503 31 3492 31 3425 31L3425 0C3464 1 3511 3 3539 3C3579 3 3626 3 3666 0L3666 31L3645 31C3571 31 3569 42 3569 78L3569 400L3683 400L3683 431L3566 431L3566 547C3566 635 3614 683 3658 683C3661 683 3676 683 3691 676C3679 672 3661 659 3661 634C3661 611 3677 591 3704 591C3733 591 3748 611 3748 635C3748 672 3711 705 3658 705C3588 705 3503 652 3503 546L3503 431L3424 431ZM3724 214C3724 85 3828 -11 3945 -11C4066 -11 4167 87 4167 214C4167 342 4067 448 3946 448C3821 448 3724 339 3724 214ZM3807 222C3807 261 3807 315 3831 359C3858 405 3905 426 3945 426C3989 426 4032 404 4058 361C4084 318 4084 260 4084 222C4084 186 4084 132 4062 88C4040 43 3996 14 3946 14C3903 14 3859 35 3832 81C3807 125 3807 186 3807 222ZM4224 0C4263 1 4310 3 4338 3C4378 3 4425 3 4465 0L4465 31L4444 31C4370 31 4368 42 4368 78L4368 232C4368 331 4410 420 4486 420C4493 420 4495 420 4497 419C4494 418 4474 406 4474 380C4474 352 4495 337 4517 337C4535 337 4560 349 4560 381C4560 413 4529 442 4486 442C4413 442 4377 375 4363 332L4363 442L4224 431L4224 400C4294 400 4302 393 4302 344L4302 76C4302 31 4291 31 4224 31ZM4621 216C4621 88 4720 -11 4836 -11C4970 -11 5002 109 5002 119C5002 129 4992 129 4989 129C4980 129 4978 125 4976 119C4947 26 4882 14 4845 14C4792 14 4704 57 4704 218C4704 381 4786 423 4839 423C4848 423 4911 422 4946 386C4905 383 4899 353 4899 340C4899 314 4917 294 4945 294C4971 294 4991 311 4991 341C4991 409 4915 448 4838 448C4713 448 4621 340 4621 216ZM5059 220C5059 86 5164 -11 5279 -11C5401 -11 5446 100 5446 119C5446 129 5438 131 5433 131C5424 131 5422 125 5420 117C5385 14 5295 14 5285 14C5235 14 5195 44 5172 81C5142 129 5142 195 5142 231L5421 231C5443 231 5446 231 5446 252C5446 351 5392 448 5267 448C5151 448 5059 345 5059 220ZM5143 252C5149 401 5233 426 5267 426C5370 426 5380 291 5380 252Z" stroke="rgb(153,0,0)" stroke-opacity="1" stroke-width="8" fill="rgb(153,0,0)" fill-opacity="1"></path></g></g></g></g><g><g><g><g><g><g><g transform="matrix(1,0,0,1,324.20001220703125,58.337493896484375)"><path transform="matrix(0.017,0,0,-0.017,0,0)" d="M286 646L392 650C454 650 494 641 495 626L503 537L527 537C530 600 537 651 548 689C526 691 498 692 481 692L440 691L275 689L246 689C221 689 181 690 143 691L94 692L91 664L147 662C171 661 182 652 182 635C182 621 178 589 173 559L98 125C81 33 81 32 40 28L4 25L0 -3L34 -2C74 -1 106 0 127 0C145 0 174 -1 213 -2L265 -3L268 25L204 28C177 29 168 37 168 57C168 63 169 74 170 78L206 301L323 301C350 301 381 300 429 298L455 297L474 342L470 349C389 345 329 343 251 343L214 343L260 614C263 630 264 635 269 646Z" stroke="rgb(153,0,0)" stroke-opacity="1" stroke-width="8" fill="rgb(153,0,0)" fill-opacity="1"></path></g></g></g></g><svg x="324.20001220703125" overflow="visible" y="35.337493896484375" height="10" width="10.287500381469727"><path d=" M 10.29 4.85 l -3.15 -3.32 l -0.49 0.52 l 1.93 2.33 h -0.15 v 0.90 h 0.15 l -1.93 2.33 l 0.49 0.52 z  M 1.68 5.23 h 8.15 v -0.90 h -8.15 z" style="fill:rgb(153,0,0);fill-opacity:1;stroke-width:1px;stroke:none;stroke-opacity:1;"></path></svg></g></g></g><g><g><g><g><g><g><g transform="matrix(1,0,0,1,114.20001220703125,23.537506103515625)"><path transform="matrix(0.017,0,0,-0.017,0,0)" d="M166 420C187 420 203 421 229 424C118 304 76 221 76 121C76 44 122 -11 186 -11C324 -11 477 236 477 384C477 441 451 482 415 482C402 482 390 478 382 470L332 423L343 404C352 410 361 413 370 413C397 413 413 390 413 350C413 202 316 39 228 39C179 39 148 81 148 146C148 251 187 342 285 464L275 482C255 473 242 470 214 470C186 470 144 472 115 475L103 476C97 477 92 477 91 477C79 477 70 475 59 470C45 443 34 407 21 352L43 352L60 394C67 411 87 422 111 422C144 422 128 420 166 420Z" stroke="rgb(153,0,0)" stroke-opacity="1" stroke-width="8" fill="rgb(153,0,0)" fill-opacity="1"></path></g></g></g></g><svg x="114.20001220703125" overflow="visible" y="4.537506103515625" height="10" width="9.350000381469727"><path d=" M 9.35 4.85 l -3.15 -3.32 l -0.49 0.52 l 1.93 2.33 h -0.15 v 0.90 h 0.15 l -1.93 2.33 l 0.49 0.52 z  M 1.68 5.23 h 7.21 v -0.90 h -7.21 z" style="fill:rgb(153,0,0);fill-opacity:1;stroke-width:1px;stroke:none;stroke-opacity:1;"></path></svg></g></g></g></svg>
</svg>
