<svg xmlns="http://www.w3.org/2000/svg" width="259.6" height="167.2" style="width:259.6000061035156px;height:167.1999969482422px;background:0 0;fill:none"><svg xmlns="http://www.w3.org/2000/svg"/><svg xmlns="http://www.w3.org/2000/svg" class="role-diagram-draw-area"><g class="shapes-region" style="stroke:#000;fill:none"><g class="arrow-line"><path d="M222.9 89h20.4" class="connection real" style="stroke:#900;stroke-opacity:1;stroke-width:2;fill:none;fill-opacity:1"/><path fill="#900" stroke="none" d="M13.4-6.4 0 0l13.4 6.4L8.9 0Z" style="stroke:none;fill:#900;stroke-width:2" transform="matrix(-1 0 0 -1 247.3 89)"/></g><g class="composite-shape"><path d="M77.8 33.9h78.1V112h-78Z" class="real" style="stroke-width:1;stroke:#900;stroke-opacity:1;fill:#900;fill-opacity:.5"/></g><g class="composite-shape"><defs><pattern id="_pgfunu2iqfl9" width="11.3" height="11.3" x="0" y="0" patternTransform="rotate(45 0 0)" patternUnits="userSpaceOnUse"><path d="M0 0v11.3M5.7 0v11.3M11.3 0v11.3" style="stroke:#eee;stroke-opacity:1;stroke-width:1;fill:none"/></pattern></defs><path d="M-5 113h175.6v59.4H-5Z" class="real" style="stroke-width:1;stroke:#000;fill:url(#_pgfunu2iqfl9);fill-opacity:1"/></g><g class="composite-shape"><path d="M27.8 62h50v50h-50Z" class="real" style="stroke-width:1;stroke:#900;stroke-opacity:1;fill:#900;fill-opacity:.5"/></g><g class="arrow-line"><path d="M102.5 112.1v29" class="connection real" style="stroke:#900;stroke-opacity:1;stroke-width:2;fill:none;fill-opacity:1"/><path fill="#900" stroke="none" d="M13.4-6.4 0 0l13.4 6.4L8.9 0Z" style="stroke:none;fill:#900;stroke-width:2" transform="rotate(-90 123.8 21.3)"/></g><g class="arrow-line"><path d="M127.5 116.6v29" class="connection real" style="stroke:#900;stroke-opacity:1;stroke-width:2;fill:none;fill-opacity:1"/><path fill="#900" stroke="none" d="M13.4-6.4 0 0l13.4 6.4L8.9 0Z" style="stroke:none;fill:#900;stroke-width:2" transform="rotate(90 7.5 120)"/></g><g class="arrow-line"><path d="M221.4 90.6v29" class="connection real" style="stroke:#900;stroke-opacity:1;stroke-width:2;fill:none;fill-opacity:1"/><path fill="#900" stroke="none" d="M13.4-6.4 0 0l13.4 6.4L8.9 0Z" style="stroke:none;fill:#900;stroke-width:2" transform="rotate(-90 172.5 -48.9)"/></g><g class="arrow-line"><path d="M221.4 58.6v29" class="connection real" style="stroke:#900;stroke-opacity:1;stroke-width:2;fill:none;fill-opacity:1"/><path fill="#900" stroke="none" d="M13.4-6.4 0 0l13.4 6.4L8.9 0Z" style="stroke:none;fill:#900;stroke-width:2" transform="rotate(90 83.4 138)"/></g><g class="composite-shape"><path d="M219.9 89a1.5 1.5 0 1 1 3 0 1.5 1.5 0 0 1-3 0Z" class="real" style="stroke-width:1;stroke:#000;fill:#000;fill-opacity:1"/></g><g class="arrow-line"><path d="M156.2 74.7h20.4" class="connection real" style="stroke:#900;stroke-opacity:1;stroke-width:2;fill:none;fill-opacity:1"/><path fill="#900" stroke="none" d="M13.4-6.4 0 0l13.4 6.4L8.9 0Z" style="stroke:none;fill:#900;stroke-width:2" transform="matrix(-1 0 0 -1 180.6 74.7)"/></g></g></svg><svg xmlns="http://www.w3.org/2000/svg" xmlns:xlink="http://www.w3.org/1999/xlink" width="258" height="165.6" style="width:258px;height:165.60000610351562px;font-family:Asana-Math,Asana;background:0 0"><path fill="#fff" stroke="#fff" stroke-width=".1" d="M120.9 75.9c0-1.9-1.4-2.2-2.8-2.4q1.3-.4 1.9-1a3 3 0 0 0 1.2-2.3q0-2.2-2.7-2.2h-5.1l-.1.4h.9q.6 0 .6.5t-.2 1.3l-1.4 8.6q0 .4-1 .5l-.1.5h4.3c2 0 4.5-1.6 4.5-4Zm-6.4 3.1.8-5h1.5q2.6 0 2.6 2.1c0 1.8-1.3 3-3 3zm3.1-10.4q2 0 2 1.9 0 2.8-3.3 2.8h-.9l.9-4.6zM56 92.9q0 .3-.7.4h-.7v.6l2-.1h2.1v-.4h-.4c-.8-.2-.8-.2-1-1l-1.5-10.6h-.7L48.7 92q-.7 1.3-1.5 1.4H47v.6l1.9-.1h1.8v-.4h-.9q-.4 0-.5-.4l.4-1 1.8-3h4.2l.4 3.3zm-1.2-9.3.7 4.9h-3.7Z"/><path fill="#900" stroke="#900" stroke-width=".1" d="M172.8 48.7h1.8q1.6 0 1.7.4l.2 1.5h.4q0-1.6.3-2.6h-7.7v.4h1q.5 0 .5.5l-.1 1.3-1.3 7.4c-.3 1.6-.3 1.6-1 1.6l-.6.1v.5h4.5v-.5h-1.1q-.7 0-.6-.5v-.4l.6-3.8h4.3l.3-.7v-.1h-4.4l.7-4.5.2-.6Z"/><svg width="10.3" height="10" x="167.9" y="36.7" overflow="visible"><path d="M10.3 4.9 7 1.4l-.5.5 2 2.4h-.2v.9h.2l-2 2.3.5.5zm-8.6.3h8.1v-.9H1.7z" style="fill:#900;fill-opacity:1;stroke-width:1px;stroke:none;stroke-opacity:1"/></svg><path fill="#900" stroke="#900" stroke-width=".1" d="M184.6 64.8q0 .3-.5.3h-.5v.4h2.9V65h-.3q-.7.2-.7-.6l-1-7.5h-.6l-4.4 7q-.6 1.1-1 1l-.3.1v.4h2.6V65h-.6l-.4-.2.3-.7 1.2-2h3l.3 2.2zm-.8-6.5.4 3.4h-2.6Zm9.5 4.4c0-1.3-1-1.5-2-1.6q1-.3 1.3-.7.9-.7.9-1.7 0-1.5-2-1.5H188v.3h.6q.4 0 .4.4l-.1.9-1 6q0 .3-.7.4v.3h2.9c1.4 0 3.2-1.1 3.2-2.8Zm-4.5 2.2.6-3.5h1q1.8 0 1.8 1.5a2 2 0 0 1-2 2.1zm2.2-7.3q1.4 0 1.4 1.4-.1 1.9-2.3 2h-.6l.5-3.3zM58.8 133.4h1.8q1.6 0 1.7.3l.2 1.6h.4q0-1.7.3-2.6h-7.7v.4h1q.5 0 .5.5l-.1 1.3-1.3 7.4c-.3 1.5-.3 1.5-1 1.6H54v.5h4.5v-.4h-1.1q-.7 0-.6-.6v-.3l.6-3.8h4.3l.3-.7v-.1h-4.4l.7-4.6.2-.5Z"/><svg width="10.3" height="10" x="53.9" y="121.4" overflow="visible"><path d="M10.3 4.9 7 1.4l-.5.5 2 2.4h-.2v.9h.2l-2 2.3.5.5zm-8.6.3h8.1v-.9H1.7z" style="fill:#900;fill-opacity:1;stroke-width:1px;stroke:none;stroke-opacity:1"/></svg><path fill="#900" stroke="#900" stroke-width=".1" d="M67.1 144.4c-.8 0-2.6.7-2.6 2.6q0 1.5 1.5 1.5h.3l-.5.4-.3.6.3.4c-.9.2-2.4.8-2.4 2q.1 1.5 2.2 1.5c1.5 0 2.8-.9 2.8-1.9q0-.6-.7-1.2l-.7-.6q-.6-.6-.6-.8t.3-.5q1.9-.6 2-2.4v-.4h1v-.6h-1.2s-.2-.6-1.4-.6ZM66 150l.9.7q.7.5.7 1.1-.1 1-1.8 1.1-1.5 0-1.6-1.2c0-1.2 1.3-1.6 1.8-1.7Zm.8-5.3q1 0 1 1.2 0 2-1.3 2-1.2 0-1.1-1.3.1-1.9 1.4-2Zm7.4 1 .2-1.4H74q-.5 0-1.1.8l-1.2 1.8.4-1.8.1-.5q0-.3-.3-.3t-1.6.8l-.3.3v.2l.5-.2q.4-.4.5-.3.3 0 .2.2c0 .7-.5 3.2-1 4.7h1l.3-1.5q.3-1.4 1-2.3t1-.8.4.2Zm3.4 1.9-.3 1.5v.6q0 .4.2.4.4 0 1.7-1.1v-.3q-.5.5-1 .6l-.1-.3v-.1l1.1-4.5-.1-.1-.4.2-1-.2-1 .2q-1 .4-1.3 1.3c-.6 1-1 2.5-1 3.4q0 .9.5 1 .7.1 2.7-2.6Zm.6-2.5q-.3 1.8-.9 2.5-1.1 1.6-1.8 1.7-.2 0-.2-.5.1-1.4.8-3.1.3-1 1.1-.9zm3.5-.1h.7q-1.9 2-1.8 3.5t1.3 1.6c1.6 0 3.5-3 3.5-4.7q0-1-.8-1.1h-.4l-.6.7.2.2.3-.1q.5 0 .5.7c0 1.8-1.2 3.7-2.2 3.7q-1 0-1-1.2 0-1.8 1.7-3.8l-.1-.2h-2.6l-.5 1.5h.3l.2-.5q0-.3.6-.3zm4.3.4.1.2.4-.2.6-.3.2.2-.1.6-.8 2.8-.2 1q0 .4.4.4.3 0 1.9-1.1l-.1-.2-.3.2-.8.3-.1-.2v-.5l1-3.6v-.4q0-.3-.2-.3t-1.6.8Zm2.3-3.9q-.5.1-.6.8 0 .5.4.5.7 0 .7-.8 0-.5-.5-.5Zm2.1 3.8-.7 3.4-.1 1q0 .3.3.4.6.1 1.8-1l.4-.3-.1-.2-.6.4-.7.3q-.2 0-.2-.2l.6-3 .1-.8h1.3l.1-.5h-1.3l.5-2.3v-.2l-1 .4-.3 2-1 .5v.1Zm2.4 6.8v.2q0 1 1 1c1.2 0 2.5-1.5 3.2-3.7l1.7-5.2-.1-.1-1 .2-.3 1.5q-.3 1-1 2-.7 1.1-1.2 1.2-.3 0-.3-.6l.2-2.4V145q0-.7-.2-.7-.1-.1-1 .4l-.9.7.1.2.6-.3.3-.2q.3 0 .3.6v.2L94 149v.5q0 .8.5.8.8-.2 2.3-2.3l-.6 2q-.9 3-2 3a1 1 0 0 1-.7-.8v-.2h-.1Zm43.6-17.4h1.8q1.6 0 1.8.3l.1 1.5h.4q0-1.5.4-2.6H133v.5h1q.5 0 .5.5l-.1 1.3-1.3 7.3c-.3 1.6-.3 1.6-1 1.7h-.6v.5h4.5v-.5h-1q-.7 0-.7-.5v-.4l.7-3.8h2l1.7.1h.5l.3-.8h-4.4l.8-4.6.1-.5Z"/><svg width="10.3" height="10" x="131.5" y="122.7" overflow="visible"><path d="M10.3 4.9 7 1.4l-.5.5 2 2.4h-.2v.9h.2l-2 2.3.5.5zm-8.6.3h8.1v-.9H1.7z" style="fill:#900;fill-opacity:1;stroke-width:1px;stroke:none;stroke-opacity:1"/></svg><path fill="#900" stroke="#900" stroke-width=".1" d="M145.6 146.2h-.2l.3-1.4q.2-1.4 1-1.4.6 0 .9.4h.1l.3-.8v-.2l-.8-.2-.4.1-1.6 1.2q-.3.3-.5 1.3l-.2.9-1 .4v.3h1l-.2.7c-.3 2.3-.8 4.5-1 5.3q-.4 1-1 1.1-.4 0-.7-.3h-.1l-.3 1h.4q.8 0 1.6-.9c.8-1 1-2.1 2-6.9h1.3l.2-.7zm5.4-3.4-.1-.2c-.6.3-1 .5-2 .5v.3h.6q.4 0 .4.3v.3l-1.2 5.8-.2 1.2q0 .5.3.5t2-1.1l-.2-.3-.3.2-.7.4-.2-.2v-.4Zm.5 6.8q0 1.8 1.6 1.9a3 3 0 0 0 1.9-.8q1.1-1.2 1.2-3.3 0-1.7-1.6-1.8c-1.2 0-3 1.2-3 4Zm2.7-3.5q1 0 1.1 1.5 0 2-.9 3-.3.4-.9.4-1 0-1-1.4c0-1.4.4-2.8 1-3.3zm2.6 3.5q0 1.8 1.5 1.9a3 3 0 0 0 2-.8q1.1-1.2 1.2-3.3 0-1.7-1.6-1.8c-1.2 0-3.1 1.2-3.1 4Zm2.7-3.5q1 0 1 1.5 0 2-.8 3-.3.4-.9.4-1 0-1-1.4c0-1.4.4-2.8 1-3.3zm6.8 1 .1-1.4h-.2q-.5 0-1.2.8l-1 1.8.3-1.8v-.5q0-.3-.2-.4-.4 0-1.6 1l-.3.1v.3l.4-.3.6-.2q.2 0 .2.2c0 .7-.5 3.2-1 4.7h.8l.1-.1.4-1.4q.2-1.4 1-2.3.6-.9 1-.8l.4.2Z"/></svg></svg>