<svg xmlns="http://www.w3.org/2000/svg" width="315.6" height="112.6" style="width:315.6000061035156px;height:112.5999984741211px;background:0 0;fill:none"><svg xmlns="http://www.w3.org/2000/svg"/><svg xmlns="http://www.w3.org/2000/svg" class="role-diagram-draw-area"><g class="shapes-region" style="stroke:#000;fill:none"><g class="composite-shape"><defs><pattern id="_pgfbj4ias08p" width="11.3" height="11.3" x="0" y="0" patternTransform="rotate(45 0 0)" patternUnits="userSpaceOnUse"><path d="M0 0v11.3M5.7 0v11.3M11.3 0v11.3" style="stroke:#eee;stroke-opacity:1;stroke-width:1;fill:none"/></pattern></defs><path d="M-29 73.3h153v40H-29Z" class="real" style="stroke-width:1;stroke:#000;fill:url(#_pgfbj4ias08p);fill-opacity:1"/></g><g class="composite-shape"><defs><pattern id="_pgfw9nfstvyl" width="11.3" height="11.3" x="0" y="0" patternTransform="rotate(45 0 0)" patternUnits="userSpaceOnUse"><path d="M0 0v11.3M5.7 0v11.3M11.3 0v11.3" style="stroke:#f5eaea;stroke-opacity:1;stroke-width:1;fill:none"/></pattern></defs><path d="M40.5 12h61.3v61.2H40.5Z" class="real" style="stroke-width:1;stroke:#900;stroke-opacity:1;fill:url(#_pgfw9nfstvyl);fill-opacity:1"/></g><g class="arrow-line"><path d="M60.2 73.5V93" class="connection real" style="stroke:#900;stroke-opacity:1;stroke-width:1;fill:none;fill-opacity:1"/><path fill="#900" stroke="none" d="M10.7-5.1 0 0l10.7 5.2L7.1 0Z" style="stroke:none;fill:#900;stroke-width:1" transform="rotate(-90 78.1 18)"/></g><g class="arrow-line"><path d="M81 53.6v19.6" class="connection real" style="stroke:#900;stroke-opacity:1;stroke-width:1;fill:none;fill-opacity:1"/><path fill="#900" stroke="none" d="M10.7-5.1 0 0l10.7 5.2L7.1 0Z" style="stroke:none;fill:#900;stroke-width:1" transform="rotate(90 15.2 65.8)"/></g><g class="composite-shape"><defs><pattern id="_pgfj1hfydoos" width="11.3" height="11.3" x="0" y="0" patternTransform="rotate(45 0 0)" patternUnits="userSpaceOnUse"><path d="M0 0v11.3M5.7 0v11.3M11.3 0v11.3" style="stroke:#f5eaea;stroke-opacity:1;stroke-width:1;fill:none"/></pattern></defs><path d="M261.7 16.5h6.5V23h-6.5Z" class="real" style="stroke-width:1;stroke:#900;stroke-opacity:1;fill:url(#_pgfj1hfydoos);fill-opacity:1"/></g><g class="composite-shape"><defs><pattern id="_pgf1iccqpnp6" width="11.3" height="11.3" x="0" y="0" patternTransform="rotate(45 0 0)" patternUnits="userSpaceOnUse"><path d="M0 0v11.3M5.7 0v11.3M11.3 0v11.3" style="stroke:#eee;stroke-opacity:1;stroke-width:1;fill:none"/></pattern></defs><path d="M225.4 63a39.7 39.7 0 1 1 79.4 0 39.7 39.7 0 0 1-79.4 0Z" class="real" style="stroke-width:1;stroke:#000;fill:url(#_pgf1iccqpnp6);fill-opacity:1"/></g><g class="arrow-line"><path d="M265.1 19.7v19.6" class="connection real" style="stroke:#900;stroke-opacity:1;stroke-width:1;fill:none;fill-opacity:1"/><path fill="#900" stroke="none" d="M10.7-5.1 0 0l10.7 5.2L7.1 0Z" style="stroke:none;fill:#900;stroke-width:1" transform="rotate(-90 153.7 -111.4)"/></g><g class="arrow-line"><path d="M265.1 63V45.4" class="connection real" style="stroke:#900;stroke-opacity:1;stroke-width:1;fill:none;fill-opacity:1"/><path fill="#900" stroke="none" d="M10.7-5.1 0 0l10.7 5.2L7.1 0Z" style="stroke:none;fill:#900;stroke-width:1" transform="rotate(90 111.4 153.7)"/></g><g class="arrow-line"><path d="M214.2 34.5c17.4 14.5 15.4-24.8 45.3-6.9" class="connection real" style="stroke:#900;stroke-opacity:1;stroke-width:1;fill:none;fill-opacity:1"/><path stroke="#900" d="M11-3.3Q5-.5 0 0q5 .5 11 3.3" style="stroke:#900;stroke-width:1" transform="rotate(212.6 134.6 -23.8)"/></g><g class="arrow-line"><path d="M194.9 70.2c17-21.7 39.3 14.2 66.7-10.9" class="connection real" style="stroke:#900;stroke-opacity:1;stroke-width:1;fill:none;fill-opacity:1"/><path stroke="#900" d="M11-3.3Q5-.5 0 0q5 .5 11 3.3" style="stroke:#900;stroke-width:1" transform="rotate(135.7 119.6 82.6)"/></g></g></svg><svg xmlns="http://www.w3.org/2000/svg" xmlns:xlink="http://www.w3.org/1999/xlink" width="314" height="111" style="width:314px;height:111px;font-family:Asana-Math,Asana;background:0 0"><path fill="#900" stroke="#900" stroke-width=".1" d="M72.5 90.4h1.8q1.6 0 1.7.4l.2 1.5h.4q0-1.7.3-2.6h-7.7v.4h.9q.6 0 .6.5t-.2 1.3l-1.2 7.4c-.3 1.5-.3 1.6-1 1.6h-.6l-.1.6h.6l1.6-.1h2.4v-.4H71q-.7 0-.6-.6v-.3l.6-3.8h4.2l.4-.7-.1-.1h-4.4L72 91q0-.4.2-.6Z"/><svg width="10.3" height="10" x="67.6" y="78.4" overflow="visible"><path d="M10.3 4.9 7 1.4l-.5.5 2 2.4h-.2v.9h.2l-2 2.3.5.5zm-8.6.3h8.1v-.9H1.7z" style="fill:#900;fill-opacity:1;stroke-width:1px;stroke:none;stroke-opacity:1"/></svg><path fill="#900" stroke="#900" stroke-width=".1" d="m80.3 98.5-.1-.1q-.7.4-2 .5v.2h.6q.4 0 .4.3v.3l-1.2 6.6q0 .9 1.2 1 .7 0 1.6-.7a5 5 0 0 0 1.9-4q0-.7-.3-1 0-.3-.4-.2t-1 .2q-.8.4-1.7 1.6Zm1 3.6q.6 0 .5.8 0 1.3-.6 2.6-.5 1.2-1.5 1.2-.8 0-.8-.8c0-.4.1-2 1.1-3.1q.7-.6 1.4-.7Zm2 3.2q0 2 1.5 2a3 3 0 0 0 1.9-.9q1.1-1.2 1.2-3.2 0-1.8-1.6-1.8c-1.2 0-3 1.2-3 3.9Zm2.6-3.5q1 0 1.1 1.6c0 1-.3 2.4-.9 3q-.3.3-.9.4-1 0-1-1.5c0-1.3.4-2.8 1-3.3zm2.5 5.3.5.1q.7 0 1.3-.9l.9-1.4v.9q.3 1.5 1 1.4l1-.5.6-.5-.2-.3q-.6.6-.9.6t-.4-.4l-.3-1-.2-1.2.4-.6q.8-1.1 1.2-1 .3 0 .4.2h.2l.2-1-.4-.1q-.7 0-1.7 1.5l-.4.6v-.5q-.3-1.7-1.3-1.6-.5 0-.6.2l-.7 1 .2.1q.5-.6.8-.6.6 0 .9 1.7v.7l-.4.8q-.8 1.2-1.2 1.2l-.4-.1-.1-.4h-.2zM56.5 30.4h1.8q1.6 0 1.7.4l.2 1.5h.4q0-1.7.3-2.6h-7.7v.4h.9q.6 0 .6.5t-.2 1.3l-1.2 7.4c-.3 1.5-.3 1.6-1 1.6h-.6l-.1.6h.6l1.6-.1h2.4V41H55q-.7 0-.6-.6v-.3l.6-3.8h4.2l.4-.7-.1-.1h-4.4L56 31q0-.4.2-.6Z"/><svg width="10.3" height="10" x="51.6" y="18.4" overflow="visible"><path d="M10.3 4.9 7 1.4l-.5.5 2 2.4h-.2v.9h.2l-2 2.3.5.5zm-8.6.3h8.1v-.9H1.7z" style="fill:#900;fill-opacity:1;stroke-width:1px;stroke:none;stroke-opacity:1"/></svg><path fill="#900" stroke="#900" stroke-width=".1" d="M65.6 41.9h-.1l.2-1.3q.3-1.5 1-1.5t1 .5l.3-.9v-.2l-.8-.1h-.4l-1.5 1.2q-.4.4-.5 1.3l-.2 1-1 .4-.1.2h1l-.1.7c-.4 2.3-.8 4.5-1.1 5.4q-.4 1-1 1-.4 0-.6-.3h-.2l-.3 1h.5q.6 0 1.6-.8c.8-1 1-2.2 2-7h1.3l.2-.6v-.1zm5.5-3.4-.2-.1q-.7.4-1.9.5v.2h.5q.5 0 .5.3v.3c-.2.7-1 5.2-1.3 5.8l-.2 1.2q0 .5.4.5.3.1 1.9-1.1l-.1-.2-.4.2-.7.3-.1-.2v-.3Zm.5 6.8q0 2 1.5 2a3 3 0 0 0 2-.9q1-1.2 1.2-3.2 0-1.8-1.6-1.8c-1.3 0-3.1 1.2-3.1 3.9Zm2.6-3.5q1.2 0 1.2 1.6c0 1-.4 2.4-1 3q-.2.4-.8.4-1 0-1.1-1.5c0-1.3.4-2.8 1-3.3zm2.7 3.5q0 2 1.5 2a3 3 0 0 0 1.9-.9q1.1-1.2 1.2-3.2 0-1.8-1.5-1.8c-1.3 0-3.1 1.2-3.1 3.9Zm2.6-3.5q1 0 1.1 1.6c0 1-.3 2.4-.9 3q-.3.4-.8.4-1 0-1.1-1.5c0-1.3.4-2.8 1-3.3zm6.8 1 .2-1.4h-.2q-.6 0-1.2.9-.8 1-1.1 1.8l.3-1.9.1-.5q0-.3-.3-.3t-1.5.8l-.4.3.1.2.4-.2.6-.3.2.3c0 .6-.5 3.1-1 4.6l.1.1.6-.1h.2l.3-1.5q.3-1.4 1-2.3t1-.8q.3 0 .4.3Zm84.8-24h1.8q1.7 0 1.8.4l.1 1.5h.4q0-1.7.4-2.6h-7.7v.4h.9q.6 0 .6.5l-.2 1.3-1.3 7.4c-.3 1.5-.3 1.6-1 1.6h-.6v.6h.5l1.6-.1h2.4v-.4h-1q-.7 0-.7-.6v-.3l.7-3.8h4.2l.3-.7v-.1h-4.4l.8-4.5.1-.6Z"/><svg width="10.3" height="10" x="166.3" y="6.8" overflow="visible"><path d="M10.3 4.9 7 1.4l-.5.5 2 2.4h-.2v.9h.2l-2 2.3.5.5zm-8.6.3h8.1v-.9H1.7z" style="fill:#900;fill-opacity:1;stroke-width:1px;stroke:none;stroke-opacity:1"/></svg><path fill="#900" stroke="#900" stroke-width=".1" d="M179.5 29.8c-.8 0-2.6.7-2.6 2.6q0 1.5 1.4 1.5h.4l-.5.4-.3.6.2.4c-.8.2-2.3.8-2.3 2q.1 1.5 2 1.5c1.6 0 3-.9 3-1.9q0-.6-.8-1.2l-.7-.6q-.6-.5-.6-.8 0-.2.4-.5 1.8-.6 2-2.4V31h.9l.1-.6h-1.2s-.3-.6-1.4-.6Zm-1.2 5.7 1 .7q.7.5.7 1.1-.2 1.1-1.8 1.2t-1.7-1.3c0-1.2 1.3-1.6 1.8-1.7Zm.9-5.3q1 0 1 1.2-.1 2-1.4 2.1-1 0-1.1-1.4 0-1.9 1.5-2Zm7.3 1 .2-1.4h-.2q-.6 0-1.2.9-.8 1-1.1 1.8l.4-1.9v-.5q0-.3-.2-.3t-1.6.8l-.4.3.1.2.4-.2.6-.3q.2 0 .2.3c0 .6-.5 3.1-1 4.6l.1.1.7-.1h.1l.3-1.5q.3-1.4 1-2.3t1-.8q.3 0 .5.3ZM190 33l-.4 1.5v.6q0 .4.2.4.4 0 1.8-1.1l-.1-.3q-.5.5-.9.6-.2 0-.2-.3v-.1l1.1-4.5v-.1l-.5.2-1-.2-.9.2q-1 .4-1.4 1.3a9 9 0 0 0-.9 3.4q0 .9.4 1 .6.1 2.8-2.6Zm.6-2.5q-.4 1.8-1 2.5-1 1.6-1.7 1.7-.2 0-.2-.5c0-.7.3-2.1.7-3q.4-1 1.1-1 .4 0 1 .3Zm3.4-.1h.8q-2 2-1.9 3.6.1 1.4 1.3 1.5c1.7 0 3.5-3 3.5-4.7q0-1-.7-1.1l-.4.1-.6.6.1.2.3-.1q.5 0 .5.7c0 1.8-1.1 3.7-2.2 3.7q-.9 0-1-1.2 0-1.8 1.7-3.8l-.1-.2-.7.1h-1.9l-.4 1.4h.2l.2-.5q.2-.3.6-.3zm4.4.4v.2l.4-.2.6-.3q.2 0 .2.2v.6l-.9 2.8-.1 1q0 .4.3.4.3.1 2-1.1l-.2-.2-.3.2-.7.3q-.2 0-.2-.2l.1-.5 1-3.6V30q0-.3-.3-.3t-1.6.8Zm2.3-3.9q-.6.1-.7.8 0 .5.5.5t.6-.8q0-.5-.4-.5Zm2 3.9-.6 3.3-.2 1q0 .4.4.4.5.1 1.7-1l.4-.3-.1-.2-.5.4-.8.3-.1-.2.5-3 .1-.7h1.3l.2-.6h-1.4l.6-2.3-.2-.2q-.3.3-.9.4l-.3 2-1 .5v.2Zm2.4 6.7v.3q.1.8 1 .9 2.1-.2 3.3-3.7l1.6-5v-.1l-1 .2-.4 1.6q-.2 1-1 2t-1.2 1.1l-.2-.6.2-2.4v-1.2q0-.7-.3-.7l-.9.4-1 .7.2.2.6-.3.3-.2q.2 0 .2.6v.2l-.2 3v.4q0 .8.5.8.9-.2 2.4-2.3l-.6 2q-.8 3-2 3a.7.7 0 0 1-.8-.8v-.2h-.1Zm-35.3 19h1.8q1.6 0 1.7.3l.2 1.5h.4q0-1.5.3-2.6h-7.7v.5h1q.5 0 .5.5V58l-1.3 7.3c-.3 1.6-.3 1.6-1 1.7h-.6v.5h4.5V67h-1.1q-.7 0-.6-.5V66l.6-3.8h2l1.8.1h.5l.3-.8h-4.4l.7-4.6.2-.5Z"/><svg width="10.3" height="10" x="164.9" y="44.5" overflow="visible"><path d="M10.3 4.9 7 1.4l-.5.5 2 2.4h-.2v.9h.2l-2 2.3.5.5zm-8.6.3h8.1v-.9H1.7z" style="fill:#900;fill-opacity:1;stroke-width:1px;stroke:none;stroke-opacity:1"/></svg><path fill="#900" stroke="#900" stroke-width=".1" d="m177.7 64.6-.2-.2q-.7.5-1.9.5v.3h.5q.4 0 .4.3v.3l-1.2 6.5v.1q.2.8 1.2.9.7 0 1.6-.6c1.1-.8 2-2.4 2-4q0-.8-.3-1.1l-.5-.2-1 .3q-.7.4-1.7 1.6Zm1 3.5q.5 0 .5.9 0 1.3-.6 2.5-.7 1.3-1.6 1.2-.8 0-.8-.7c0-.4.2-2.1 1.1-3.1q.7-.7 1.4-.8Zm1.9 3.3q0 1.9 1.5 1.9a3 3 0 0 0 1.9-.8q1.2-1.2 1.3-3.3 0-1.7-1.6-1.8c-1.3 0-3.1 1.2-3.1 4Zm2.6-3.5q1.2 0 1.1 1.5 0 2-.8 3-.4.4-1 .4-1 0-1-1.4c0-1.4.4-2.8 1-3.3zm2.5 5.3h.6q.5 0 1.2-.8l.9-1.4.1.8q.2 1.5.9 1.5.3 0 1-.6l.6-.5-.1-.2q-.7.6-1 .5-.2 0-.4-.3l-.3-1-.2-1.2.4-.6q.8-1.1 1.3-1 .2 0 .3.2h.2l.2-1-.4-.2q-.6 0-1.7 1.5l-.4.7V69q-.2-1.6-1.2-1.6-.5 0-.7.3l-.7 1h.2q.6-.5.8-.5.6 0 .9 1.7l.1.7-.5.7q-.7 1.2-1.2 1.2h-.3l-.2-.4h-.2z"/></svg></svg>