<svg xmlns="http://www.w3.org/2000/svg" xmlns:xlink="http://www.w3.org/1999/xlink" x="0" y="0" width="178.60000610351562" height="112.4000015258789" style="
        width:178.60000610351562px;
        height:112.4000015258789px;
        background: #FFF;
        fill: none;
">
        <svg xmlns="http://www.w3.org/2000/svg"/>
        
        <svg xmlns="http://www.w3.org/2000/svg" class="role-diagram-draw-area"><g class="shapes-region" style="stroke: black; fill: none;"><g class="composite-shape"><defs><!-- react-text: 56421 --> <!-- /react-text --><pattern id="_pgfbj4ias08p" x="0" y="0" width="11.313708498984761" height="11.313708498984761" patternTransform="rotate(45,0,0)" patternUnits="userSpaceOnUse"><path d="M0,0 L0,11.313708498984761" style="stroke: rgb(238, 238, 238); stroke-opacity: 1; stroke-width: 1; fill: none;"/><path d="M5.656854249492381,0 L5.656854249492381,11.313708498984761" style="stroke: rgb(238, 238, 238); stroke-opacity: 1; stroke-width: 1; fill: none;"/><path d="M11.313708498984761,0 L11.313708498984761,11.313708498984761" style="stroke: rgb(238, 238, 238); stroke-opacity: 1; stroke-width: 1; fill: none;"/></pattern></defs><path class="real" d=" M-29,73.3 L123.97,73.3 L123.97,113.3 L-29,113.3 Z" style="stroke-width: 1; stroke: rgb(0, 0, 0); fill: url(&quot;#_pgfbj4ias08p&quot;); fill-opacity: 1;"/></g><g class="composite-shape"><defs><!-- react-text: 56429 --> <!-- /react-text --><pattern id="_pgfw9nfstvyl" x="0" y="0" width="11.313708498984761" height="11.313708498984761" patternTransform="rotate(45,0,0)" patternUnits="userSpaceOnUse"><path d="M0,0 L0,11.313708498984761" style="stroke: rgb(245, 234, 234); stroke-opacity: 1; stroke-width: 1; fill: none;"/><path d="M5.656854249492381,0 L5.656854249492381,11.313708498984761" style="stroke: rgb(245, 234, 234); stroke-opacity: 1; stroke-width: 1; fill: none;"/><path d="M11.313708498984761,0 L11.313708498984761,11.313708498984761" style="stroke: rgb(245, 234, 234); stroke-opacity: 1; stroke-width: 1; fill: none;"/></pattern></defs><path class="real" d=" M40.5,11.92 L101.78,11.92 L101.78,73.2 L40.5,73.2 Z" style="stroke-width: 1; stroke: rgb(153, 0, 0); stroke-opacity: 1; fill: url(&quot;#_pgfw9nfstvyl&quot;); fill-opacity: 1;"/></g><g class="arrow-line"><path class="connection real" stroke-dasharray="" d="  M60.15,73.45 L60.15,93.05" style="stroke: rgb(153, 0, 0); stroke-opacity: 1; stroke-width: 1; fill: none; fill-opacity: 1;"/><g stroke="none" fill="rgb(153,0,0)" fill-opacity="1" transform="matrix(-1.8369701987210297e-16,-1,1,-1.8369701987210297e-16,60.150000000000006,96.0499984741211)" style="stroke: none; fill: rgb(153, 0, 0); stroke-width: 1;"><path d=" M10.72,-5.15 L0,0 L10.72,5.15 L7.12,0 Z"/></g></g><g class="arrow-line"><path class="connection real" stroke-dasharray="" d="  M80.95,53.6 L80.95,73.2" style="stroke: rgb(153, 0, 0); stroke-opacity: 1; stroke-width: 1; fill: none; fill-opacity: 1;"/><g stroke="none" fill="rgb(153,0,0)" fill-opacity="1" transform="matrix(6.123233995736766e-17,1,-1,6.123233995736766e-17,80.94999999999999,50.60001373291017)" style="stroke: none; fill: rgb(153, 0, 0); stroke-width: 1;"><path d=" M10.72,-5.15 L0,0 L10.72,5.15 L7.12,0 Z"/></g></g><g class="composite-shape"><path class="real" d=" M138.86,53.7 C138.86,52.92 139.49,52.28 140.28,52.28 C141.06,52.28 141.7,52.92 141.7,53.7 C141.7,54.49 141.06,55.12 140.28,55.12 C139.49,55.12 138.86,54.49 138.86,53.7 Z" style="stroke-width: 1; stroke: rgb(0, 0, 0); fill: rgb(0, 0, 0); fill-opacity: 1;"/></g><g class="composite-shape"><path class="real" d=" M160.57,54.42 C160.57,53.63 161.21,53 161.99,53 C162.78,53 163.41,53.63 163.41,54.42 C163.41,55.2 162.78,55.84 161.99,55.84 C161.21,55.84 160.57,55.2 160.57,54.42 Z" style="stroke-width: 1; stroke: rgb(0, 0, 0); fill: rgb(0, 0, 0); fill-opacity: 1;"/></g><g class="arrow-line"><path class="connection real" stroke-dasharray="" d="  M140.28,32.68 L140.28,52.28" style="stroke: rgb(153, 0, 0); stroke-opacity: 1; stroke-width: 1; fill: none; fill-opacity: 1;"/><g stroke="none" fill="rgb(153,0,0)" fill-opacity="1" transform="matrix(6.123233995736766e-17,1,-1,6.123233995736766e-17,140.27713797433037,29.682862636021213)" style="stroke: none; fill: rgb(153, 0, 0); stroke-width: 1;"><path d=" M10.72,-5.15 L0,0 L10.72,5.15 L7.12,0 Z"/></g></g><g class="arrow-line"><path class="connection real" stroke-dasharray="" d="  M161.99,55.84 L161.99,75.44" style="stroke: rgb(153, 0, 0); stroke-opacity: 1; stroke-width: 1; fill: none; fill-opacity: 1;"/><g stroke="none" fill="rgb(153,0,0)" fill-opacity="1" transform="matrix(-1.8369701987210297e-16,-1,1,-1.8369701987210297e-16,161.9914236886161,78.43713553292412)" style="stroke: none; fill: rgb(153, 0, 0); stroke-width: 1;"><path d=" M10.72,-5.15 L0,0 L10.72,5.15 L7.12,0 Z"/></g></g><g/></g><g/><g/><g/></svg>
        <svg xmlns="http://www.w3.org/2000/svg" xmlns:xlink="http://www.w3.org/1999/xlink" width="177" height="110.80000305175781" style="width:177px;height:110.80000305175781px;font-family:Asana-Math, Asana;background:#FFF;"><g><g><g><g><g><g><g transform="matrix(1,0,0,1,67.60003662109375,101.39999389648438)"><path transform="matrix(0.017,0,0,-0.017,0,0)" d="M286 646L392 650C454 650 494 641 495 626L503 537L527 537C530 600 537 651 548 689C526 691 498 692 481 692L440 691L275 689L246 689C221 689 181 690 143 691L94 692L91 664L147 662C171 661 182 652 182 635C182 621 178 589 173 559L98 125C81 33 81 32 40 28L4 25L0 -3L34 -2C74 -1 106 0 127 0C145 0 174 -1 213 -2L265 -3L268 25L204 28C177 29 168 37 168 57C168 63 169 74 170 78L206 301L323 301C350 301 381 300 429 298L455 297L474 342L470 349C389 345 329 343 251 343L214 343L260 614C263 630 264 635 269 646Z" stroke="rgb(153,0,0)" stroke-opacity="1" stroke-width="8" fill="rgb(153,0,0)" fill-opacity="1"></path></g></g></g></g><svg x="67.60003662109375" overflow="visible" y="78.39999389648438" height="10" width="10.287500381469727"><path d=" M 10.29 4.85 l -3.15 -3.32 l -0.49 0.52 l 1.93 2.33 h -0.15 v 0.90 h 0.15 l -1.93 2.33 l 0.49 0.52 z  M 1.68 5.23 h 8.15 v -0.90 h -8.15 z" style="fill:rgb(153,0,0);fill-opacity:1;stroke-width:1px;stroke:none;stroke-opacity:1;"></path></svg></g><g><g><g><g><g transform="matrix(1,0,0,1,77.53753662109375,107.10001220703126)"><path transform="matrix(0.0119,0,0,-0.0119,0,0)" d="M235 722L223 733C171 707 135 698 63 691L59 670L107 670C131 670 141 663 141 646C141 639 140 628 139 622L38 71C37 68 37 64 37 61C37 22 85 -11 140 -11C177 -11 228 8 271 39C367 107 433 244 433 376C433 414 424 453 412 468C405 477 392 482 377 482C353 482 323 474 295 460C244 433 211 403 149 324ZM322 424C348 424 361 401 361 352C361 288 340 202 310 137C277 68 237 36 183 36C137 36 112 59 112 101C112 135 127 276 208 361C241 395 293 424 322 424ZM479 152C479 46 524 -11 607 -11C662 -11 722 15 767 57C829 116 873 230 873 331C873 425 823 482 740 482C636 482 479 382 479 152ZM703 444C764 444 797 399 797 315C797 219 766 113 722 60C704 39 678 27 647 27C589 27 555 72 555 151C555 264 594 387 643 427C656 438 679 444 703 444ZM914 1C929 -7 945 -11 957 -11C990 -11 1029 18 1060 65L1136 182L1147 113C1160 28 1183 -11 1219 -11C1241 -11 1273 6 1305 35L1354 79L1345 98C1309 68 1284 53 1268 53C1253 53 1240 63 1230 83C1221 102 1210 139 1205 168L1187 269L1222 318C1269 383 1296 406 1327 406C1343 406 1355 398 1360 383L1374 387L1389 472C1377 479 1368 482 1359 482C1319 482 1279 446 1217 354L1180 299L1174 347C1162 446 1135 482 1076 482C1050 482 1028 474 1019 461L961 378L978 368C1008 402 1028 416 1047 416C1080 416 1102 375 1119 277L1130 215L1090 153C1047 86 1013 54 985 54C970 54 959 58 957 63L946 91L926 88C926 53 918 27 914 1Z" stroke="rgb(153,0,0)" stroke-opacity="1" stroke-width="8" fill="rgb(153,0,0)" fill-opacity="1"></path></g></g></g></g></g></g></g><g><g><g><g><g><g><g transform="matrix(1,0,0,1,51.60003662109375,41.399993896484375)"><path transform="matrix(0.017,0,0,-0.017,0,0)" d="M286 646L392 650C454 650 494 641 495 626L503 537L527 537C530 600 537 651 548 689C526 691 498 692 481 692L440 691L275 689L246 689C221 689 181 690 143 691L94 692L91 664L147 662C171 661 182 652 182 635C182 621 178 589 173 559L98 125C81 33 81 32 40 28L4 25L0 -3L34 -2C74 -1 106 0 127 0C145 0 174 -1 213 -2L265 -3L268 25L204 28C177 29 168 37 168 57C168 63 169 74 170 78L206 301L323 301C350 301 381 300 429 298L455 297L474 342L470 349C389 345 329 343 251 343L214 343L260 614C263 630 264 635 269 646Z" stroke="rgb(153,0,0)" stroke-opacity="1" stroke-width="8" fill="rgb(153,0,0)" fill-opacity="1"></path></g></g></g></g><svg x="51.60003662109375" overflow="visible" y="18.399993896484375" height="10" width="10.287500381469727"><path d=" M 10.29 4.85 l -3.15 -3.32 l -0.49 0.52 l 1.93 2.33 h -0.15 v 0.90 h 0.15 l -1.93 2.33 l 0.49 0.52 z  M 1.68 5.23 h 8.15 v -0.90 h -8.15 z" style="fill:rgb(153,0,0);fill-opacity:1;stroke-width:1px;stroke:none;stroke-opacity:1;"></path></svg></g><g><g><g><g><g transform="matrix(1,0,0,1,61.53753662109375,47.10001220703125)"><path transform="matrix(0.0119,0,0,-0.0119,0,0)" d="M345 437L329 437L350 549C366 635 394 673 440 673C470 673 497 658 512 634L522 638C527 654 537 685 545 705L550 720C534 727 503 733 480 733C469 733 453 730 445 726C421 715 339 654 316 630C294 608 282 578 271 521L256 442C215 422 195 414 170 405L165 383L246 383L237 327C207 132 170 -54 148 -123C130 -182 100 -213 64 -213C41 -213 30 -206 12 -184L-2 -188C-6 -211 -20 -259 -25 -268C-16 -273 -1 -276 10 -276C51 -276 105 -245 144 -198C215 -114 235 -18 319 383L423 383C427 402 434 425 440 439L436 446C407 439 408 437 345 437ZM801 722L789 733C737 707 701 698 629 691L625 670L673 670C697 670 707 663 707 648C707 645 707 640 704 622C693 567 620 182 605 132C592 82 586 52 586 31C586 6 597 -9 616 -9C642 -9 678 12 776 85L766 103L740 86C711 67 689 56 679 56C672 56 666 66 666 76C666 82 667 89 670 104ZM844 152C844 46 889 -11 972 -11C1027 -11 1087 15 1132 57C1194 116 1238 230 1238 331C1238 425 1188 482 1105 482C1001 482 844 382 844 152ZM1068 444C1129 444 1162 399 1162 315C1162 219 1131 113 1087 60C1069 39 1043 27 1012 27C954 27 920 72 920 151C920 264 959 387 1008 427C1021 438 1044 444 1068 444ZM1287 152C1287 46 1332 -11 1415 -11C1470 -11 1530 15 1575 57C1637 116 1681 230 1681 331C1681 425 1631 482 1548 482C1444 482 1287 382 1287 152ZM1511 444C1572 444 1605 399 1605 315C1605 219 1574 113 1530 60C1512 39 1486 27 1455 27C1397 27 1363 72 1363 151C1363 264 1402 387 1451 427C1464 438 1487 444 1511 444ZM2081 365C2084 403 2089 435 2097 476C2086 481 2082 482 2077 482C2046 482 2015 458 1979 407C1940 351 1901 291 1885 256L1917 408C1921 425 1923 438 1923 450C1923 470 1915 482 1900 482C1879 482 1841 461 1767 408L1739 388L1746 368L1778 389C1806 407 1817 412 1826 412C1836 412 1843 403 1843 390C1843 332 1800 126 1760 -2L1770 -9C1785 -4 1801 -1 1824 4L1837 6L1863 126C1881 209 1904 262 1948 319C1982 363 2009 384 2031 384C2046 384 2056 379 2067 365Z" stroke="rgb(153,0,0)" stroke-opacity="1" stroke-width="8" fill="rgb(153,0,0)" fill-opacity="1"></path></g></g></g></g></g></g></g><g><g><g><g transform="matrix(1,0,0,1,133.9375,64.03750610351562)"><path transform="matrix(0.0085,0,0,-0.0085,0,0)" d="M543 227C543 337 459 353 377 365C434 385 459 397 490 425C536 464 559 511 559 562C559 644 501 692 401 692C399 692 389 692 374 691L311 690C299 689 263 689 251 689C232 689 201 690 152 691L100 692L97 664L150 662C174 661 185 653 185 635C185 621 181 589 176 559L89 55C85 37 73 30 31 23L26 -3L63 -2C90 0 105 0 117 0C128 0 154 -1 180 -2L217 -3L237 -4C256 -5 269 -6 277 -6C392 -6 543 87 543 227ZM166 41L217 340L302 340C405 340 455 298 455 211C455 108 382 34 282 34C228 34 207 38 166 41ZM352 655C433 655 473 619 473 544C473 439 399 376 275 376L223 376L272 650C288 650 329 655 352 655ZM627 152C627 46 672 -11 755 -11C810 -11 870 15 915 57C977 116 1021 230 1021 331C1021 425 971 482 888 482C784 482 627 382 627 152ZM851 444C912 444 945 399 945 315C945 219 914 113 870 60C852 39 826 27 795 27C737 27 703 72 703 151C703 264 742 387 791 427C804 438 827 444 851 444ZM1062 1C1077 -7 1093 -11 1105 -11C1138 -11 1177 18 1208 65L1284 182L1295 113C1308 28 1331 -11 1367 -11C1389 -11 1421 6 1453 35L1502 79L1493 98C1457 68 1432 53 1416 53C1401 53 1388 63 1378 83C1369 102 1358 139 1353 168L1335 269L1370 318C1417 383 1444 406 1475 406C1491 406 1503 398 1508 383L1522 387L1537 472C1525 479 1516 482 1507 482C1467 482 1427 446 1365 354L1328 299L1322 347C1310 446 1283 482 1224 482C1198 482 1176 474 1167 461L1109 378L1126 368C1156 402 1176 416 1195 416C1228 416 1250 375 1267 277L1278 215L1238 153C1195 86 1161 54 1133 54C1118 54 1107 58 1105 63L1094 91L1074 88C1074 53 1066 27 1062 1Z" stroke="rgb(0,0,0)" stroke-opacity="1" stroke-width="8" fill="rgb(0,0,0)" fill-opacity="1"></path></g></g></g></g><g><g><g><g transform="matrix(1,0,0,1,152.79998779296875,48.17498779296875)"><path transform="matrix(0.0085,0,0,-0.0085,0,0)" d="M286 646L392 650C454 650 494 641 495 626L503 537L527 537C530 600 537 651 548 689C526 691 498 692 481 692L440 691L275 689L246 689C221 689 181 690 143 691L94 692L91 664L147 662C171 661 182 652 182 635C182 621 178 589 173 559L98 125C81 33 81 32 40 28L4 25L0 -3L34 -2C74 -1 106 0 127 0C145 0 174 -1 213 -2L265 -3L268 25L204 28C177 29 168 37 168 57C168 63 169 74 170 78L206 301L323 301C350 301 381 300 429 298L455 297L474 342L470 349C389 345 329 343 251 343L214 343L260 614C263 630 264 635 269 646ZM806 722L794 733C742 707 706 698 634 691L630 670L678 670C702 670 712 663 712 648C712 645 712 640 709 622C698 567 625 182 610 132C597 82 591 52 591 31C591 6 602 -9 621 -9C647 -9 683 12 781 85L771 103L745 86C716 67 694 56 684 56C677 56 671 66 671 76C671 82 672 89 675 104ZM849 152C849 46 894 -11 977 -11C1032 -11 1092 15 1137 57C1199 116 1243 230 1243 331C1243 425 1193 482 1110 482C1006 482 849 382 849 152ZM1073 444C1134 444 1167 399 1167 315C1167 219 1136 113 1092 60C1074 39 1048 27 1017 27C959 27 925 72 925 151C925 264 964 387 1013 427C1026 438 1049 444 1073 444ZM1292 152C1292 46 1337 -11 1420 -11C1475 -11 1535 15 1580 57C1642 116 1686 230 1686 331C1686 425 1636 482 1553 482C1449 482 1292 382 1292 152ZM1516 444C1577 444 1610 399 1610 315C1610 219 1579 113 1535 60C1517 39 1491 27 1460 27C1402 27 1368 72 1368 151C1368 264 1407 387 1456 427C1469 438 1492 444 1516 444ZM2086 365C2089 403 2094 435 2102 476C2091 481 2087 482 2082 482C2051 482 2020 458 1984 407C1945 351 1906 291 1890 256L1922 408C1926 425 1928 438 1928 450C1928 470 1920 482 1905 482C1884 482 1846 461 1772 408L1744 388L1751 368L1783 389C1811 407 1822 412 1831 412C1841 412 1848 403 1848 390C1848 332 1805 126 1765 -2L1775 -9C1790 -4 1806 -1 1829 4L1842 6L1868 126C1886 209 1909 262 1953 319C1987 363 2014 384 2036 384C2051 384 2061 379 2072 365Z" stroke="rgb(0,0,0)" stroke-opacity="1" stroke-width="8" fill="rgb(0,0,0)" fill-opacity="1"></path></g></g></g></g></svg>
</svg>
