<svg xmlns="http://www.w3.org/2000/svg" xmlns:xlink="http://www.w3.org/1999/xlink" x="0" y="0" width="209.60000610351562" height="104.20000457763672" style="
        width:209.60000610351562px;
        height:104.20000457763672px;
        background: transparent;
        fill: none;
">
        <svg xmlns="http://www.w3.org/2000/svg"/>
        
        <svg xmlns="http://www.w3.org/2000/svg" class="role-diagram-draw-area"><g class="shapes-region" style="stroke: black; fill: none;"><g class="composite-shape"><defs><!-- react-text: 133410 --> <!-- /react-text --><pattern id="_pgfi51eec39h" x="0" y="0" width="11.313708498984761" height="11.313708498984761" patternTransform="rotate(45,0,0)" patternUnits="userSpaceOnUse"><path d="M0,0 L0,11.313708498984761" style="stroke: rgb(7, 5, 5); stroke-opacity: 1; stroke-width: 1; fill: none;"/><path d="M5.656854249492381,0 L5.656854249492381,11.313708498984761" style="stroke: rgb(7, 5, 5); stroke-opacity: 1; stroke-width: 1; fill: none;"/><path d="M11.313708498984761,0 L11.313708498984761,11.313708498984761" style="stroke: rgb(7, 5, 5); stroke-opacity: 1; stroke-width: 1; fill: none;"/></pattern></defs><path class="real" d=" M-36,90.55 L428.5,90.55 L428.5,130.55 L-36,130.55 Z" style="stroke-width: 1; stroke: rgb(0, 0, 0); fill: url(&quot;#_pgfi51eec39h&quot;); fill-opacity: 1;"/></g><g class="arrow-line"><path class="connection real" stroke-dasharray="" d="  M27.47,53.25 L61.8,53.25" style="stroke: rgb(153, 0, 0); stroke-opacity: 1; stroke-width: 2; fill: none; fill-opacity: 1;"/><g stroke="none" fill="rgb(153,0,0)" fill-opacity="1" transform="matrix(-1,1.2246467991473532e-16,-1.2246467991473532e-16,-1,65.80000000000003,53.25000152587899)" style="stroke: none; fill: rgb(153, 0, 0); stroke-width: 2;"><path d=" M13.4,-6.43 L0,0 L13.4,6.44 L8.9,0 Z"/></g></g><g class="composite-shape"><path class="real" d=" M144.45,40.25 L194.45,40.25 L194.45,90.25 L144.45,90.25 Z" style="stroke-width: 1; stroke: rgb(153, 0, 0); stroke-opacity: 1; fill: rgb(153, 0, 0); fill-opacity: 0.5;"/></g><g class="composite-shape"><path class="real" d=" M66.3,12.1 L144.45,12.1 L144.45,90.25 L66.3,90.25 Z" style="stroke-width: 1; stroke: rgb(153, 0, 0); stroke-opacity: 1; fill: rgb(153, 0, 0); fill-opacity: 0.5;"/></g><g/></g><g/><g/><g/></svg>
        <svg xmlns="http://www.w3.org/2000/svg" xmlns:xlink="http://www.w3.org/1999/xlink" width="208" height="102.5999984741211" style="width:208px;height:102.5999984741211px;font-family:Asana-Math, Asana;background:transparent;"><g><g><g><g><g><g><g transform="matrix(1,0,0,1,14.2125244140625,63.04998779296875)"><path transform="matrix(0.017,0,0,-0.017,0,0)" d="M286 646L392 650C454 650 494 641 495 626L503 537L527 537C530 600 537 651 548 689C526 691 498 692 481 692L440 691L275 689L246 689C221 689 181 690 143 691L94 692L91 664L147 662C171 661 182 652 182 635C182 621 178 589 173 559L98 125C81 33 81 32 40 28L4 25L0 -3L34 -2C74 -1 106 0 127 0C145 0 174 -1 213 -2L265 -3L268 25L204 28C177 29 168 37 168 57C168 63 169 74 170 78L206 301L323 301C350 301 381 300 429 298L455 297L474 342L470 349C389 345 329 343 251 343L214 343L260 614C263 630 264 635 269 646Z" stroke="rgb(153,0,0)" stroke-opacity="1" stroke-width="8" fill="rgb(153,0,0)" fill-opacity="1"></path></g></g></g></g><svg x="14.2125244140625" overflow="visible" y="40.04998779296875" height="10" width="10.287500381469727"><path d=" M 10.29 4.85 l -3.15 -3.32 l -0.49 0.52 l 1.93 2.33 h -0.15 v 0.90 h 0.15 l -1.93 2.33 l 0.49 0.52 z  M 1.68 5.23 h 8.15 v -0.90 h -8.15 z" style="fill:rgb(153,0,0);fill-opacity:1;stroke-width:1px;stroke:none;stroke-opacity:1;"></path></svg></g></g></g><g><g><g><g transform="matrix(1,0,0,1,86.54998779296875,57.975006103515625)"><path transform="matrix(0.017,0,0,-0.017,0,0)" d="M16 23L16 -3C203 -3 203 0 239 0C275 0 275 -3 468 -3L468 82C353 77 307 81 122 77L304 270C401 373 431 428 431 503C431 618 353 689 226 689C154 689 105 669 56 619L39 483L68 483L81 529C97 587 133 612 200 612C286 612 341 558 341 473C341 398 299 324 186 204ZM623 111C593 111 566 83 566 53C566 23 593 -5 622 -5C654 -5 682 22 682 53C682 83 654 111 623 111ZM1210 224C1210 345 1103 366 1056 374C1136 436 1166 482 1166 541C1166 630 1092 689 981 689C913 689 868 670 820 622L791 498L822 498L840 554C851 588 914 622 966 622C1031 622 1084 569 1084 506C1084 431 1025 368 954 368C946 368 935 369 922 370L907 371L895 318L902 312C940 329 959 334 986 334C1069 334 1117 281 1117 190C1117 88 1056 21 963 21C917 21 876 36 846 64C822 86 809 109 790 163L763 153C784 92 792 56 798 6C851 -12 895 -20 932 -20C1055 -20 1210 87 1210 224ZM1487 722L1475 733C1423 707 1387 698 1315 691L1311 670L1359 670C1383 670 1393 663 1393 646C1393 638 1392 629 1391 622L1343 354C1329 279 1313 210 1261 1L1270 -9L1337 8L1360 132C1369 180 1393 225 1427 259C1496 59 1528 -9 1553 -9C1566 -9 1590 4 1634 35L1680 67L1672 86L1629 62C1615 54 1608 52 1600 52C1590 52 1583 58 1574 75C1539 139 1517 193 1478 316L1492 330C1553 391 1599 416 1649 416C1657 416 1668 414 1685 410L1702 473C1684 479 1666 482 1654 482C1588 482 1505 405 1380 230ZM1990 482C1923 482 1770 419 1770 259C1770 182 1815 136 1892 136C1900 136 1911 136 1922 137L1881 99C1865 84 1854 66 1854 52C1854 42 1861 31 1875 19C1806 -4 1678 -48 1678 -159C1678 -230 1748 -276 1857 -276C1986 -276 2099 -204 2099 -121C2099 -85 2078 -49 2035 -14L1975 35C1941 62 1928 81 1928 100C1928 114 1943 128 1955 146C2053 170 2124 253 2124 342C2124 357 2121 376 2120 380C2137 378 2145 378 2154 378C2171 378 2181 379 2204 382L2213 427L2210 433C2182 426 2162 424 2108 424C2108 425 2084 482 1990 482ZM1891 1L1968 -58C2014 -94 2033 -121 2033 -154C2033 -206 1964 -248 1881 -248C1799 -248 1742 -206 1742 -145C1742 -43 1852 -11 1891 1ZM1965 448C2023 448 2052 412 2052 341C2052 238 2004 168 1934 168C1873 168 1841 209 1841 288C1841 383 1892 448 1965 448Z" stroke="rgb(255,255,255)" stroke-opacity="1" stroke-width="8" fill="rgb(255,255,255)" fill-opacity="1"></path></g></g></g></g><g><g><g><g transform="matrix(1,0,0,1,150.625,72.04998779296875)"><path transform="matrix(0.017,0,0,-0.017,0,0)" d="M418 -3L418 27L366 30C311 33 301 44 301 96L301 700L60 598L67 548L217 614L217 96C217 44 206 33 152 30L96 27L96 -3C250 0 250 0 261 0C292 0 402 -3 418 -3ZM623 111C593 111 566 83 566 53C566 23 593 -5 622 -5C654 -5 682 22 682 53C682 83 654 111 623 111ZM764 23L764 -3C951 -3 951 0 987 0C1023 0 1023 -3 1216 -3L1216 82C1101 77 1055 81 870 77L1052 270C1149 373 1179 428 1179 503C1179 618 1101 689 974 689C902 689 853 669 804 619L787 483L816 483L829 529C845 587 881 612 948 612C1034 612 1089 558 1089 473C1089 398 1047 324 934 204ZM1487 722L1475 733C1423 707 1387 698 1315 691L1311 670L1359 670C1383 670 1393 663 1393 646C1393 638 1392 629 1391 622L1343 354C1329 279 1313 210 1261 1L1270 -9L1337 8L1360 132C1369 180 1393 225 1427 259C1496 59 1528 -9 1553 -9C1566 -9 1590 4 1634 35L1680 67L1672 86L1629 62C1615 54 1608 52 1600 52C1590 52 1583 58 1574 75C1539 139 1517 193 1478 316L1492 330C1553 391 1599 416 1649 416C1657 416 1668 414 1685 410L1702 473C1684 479 1666 482 1654 482C1588 482 1505 405 1380 230ZM1990 482C1923 482 1770 419 1770 259C1770 182 1815 136 1892 136C1900 136 1911 136 1922 137L1881 99C1865 84 1854 66 1854 52C1854 42 1861 31 1875 19C1806 -4 1678 -48 1678 -159C1678 -230 1748 -276 1857 -276C1986 -276 2099 -204 2099 -121C2099 -85 2078 -49 2035 -14L1975 35C1941 62 1928 81 1928 100C1928 114 1943 128 1955 146C2053 170 2124 253 2124 342C2124 357 2121 376 2120 380C2137 378 2145 378 2154 378C2171 378 2181 379 2204 382L2213 427L2210 433C2182 426 2162 424 2108 424C2108 425 2084 482 1990 482ZM1891 1L1968 -58C2014 -94 2033 -121 2033 -154C2033 -206 1964 -248 1881 -248C1799 -248 1742 -206 1742 -145C1742 -43 1852 -11 1891 1ZM1965 448C2023 448 2052 412 2052 341C2052 238 2004 168 1934 168C1873 168 1841 209 1841 288C1841 383 1892 448 1965 448Z" stroke="rgb(255,255,255)" stroke-opacity="1" stroke-width="8" fill="rgb(255,255,255)" fill-opacity="1"></path></g></g></g></g></svg>
</svg>
