<svg xmlns="http://www.w3.org/2000/svg" width="212.6" height="111.6" style="width:212.60000610351562px;height:111.5999984741211px;background:0 0;fill:none"><svg xmlns="http://www.w3.org/2000/svg"/><svg xmlns="http://www.w3.org/2000/svg" class="role-diagram-draw-area"><g class="shapes-region" style="stroke:#000;fill:none"><g class="composite-shape"><defs><pattern id="_pgfi51eec39h" width="11.314" height="11.314" x="0" y="0" patternTransform="rotate(45 0 0)" patternUnits="userSpaceOnUse"><path d="M0 0v11.314M5.657 0v11.314M11.314 0v11.314" style="stroke:#070505;stroke-opacity:1;stroke-width:1;fill:none"/></pattern></defs><path d="M-30 98.3h464.5v40H-30Z" class="real" style="stroke-width:1;stroke:#000;fill:url(#_pgfi51eec39h);fill-opacity:1"/></g><g class="arrow-line"><path d="M23.5 74.17h34.33" class="connection real" style="stroke:#900;stroke-opacity:1;stroke-width:2;fill:none;fill-opacity:1"/><path fill="#900" stroke="none" d="M13.4-6.43 0 0l13.4 6.44L8.9 0Z" style="stroke:none;fill:#900;stroke-width:2" transform="matrix(-1 0 0 -1 61.833 74.167)"/></g><g class="composite-shape"><path d="M62 48h50v50H62Z" class="real" style="stroke-width:1;stroke:#900;stroke-opacity:1;fill:#900;fill-opacity:.5"/></g><g class="composite-shape"><path d="M112 19.85h78.15V98H112Z" class="real" style="stroke-width:1;stroke:#900;stroke-opacity:1;fill:#900;fill-opacity:.5"/></g></g></svg><svg xmlns="http://www.w3.org/2000/svg" xmlns:xlink="http://www.w3.org/1999/xlink" width="211" height="110" style="width:211px;height:110px;font-family:Asana-Math,Asana;background:0 0"><path fill="#900" stroke="#900" stroke-width=".136" d="m15.112 72.98 1.802-.067c1.054 0 1.734.153 1.751.408l.136 1.513h.408c.051-1.071.17-1.938.357-2.584-.374-.034-.85-.051-1.139-.051l-.697.017-2.805.034h-.493c-.425 0-1.105-.017-1.751-.034l-.833-.017-.051.476.952.034c.408.017.595.17.595.459 0 .238-.068.782-.153 1.292l-1.275 7.378c-.289 1.564-.289 1.58-.986 1.649l-.612.05-.068.477.578-.017c.68-.017 1.224-.034 1.581-.034.306 0 .799.017 1.462.034l.884.017.051-.476-1.088-.051c-.459-.017-.612-.153-.612-.493 0-.102.017-.29.034-.357l.612-3.791h1.989c.459 0 .986.017 1.802.05l.442.018.323-.765-.068-.12a70 70 0 0 1-3.723.103h-.629l.782-4.607c.051-.272.068-.357.153-.544Z"/><svg width="10.288" height="10" x="10.25" y="60.963" overflow="visible"><path d="M10.29 4.85 7.14 1.53l-.49.52 1.93 2.33h-.15v.9h.15L6.65 7.61l.49.52zm-8.61.38h8.15v-.9H1.68z" style="fill:#900;fill-opacity:1;stroke-width:1px;stroke:none;stroke-opacity:1"/></svg><path fill="#fff" stroke="#fff" stroke-width=".136" d="M155.081 61.866c0-1.87-1.428-2.142-2.822-2.346.969-.34 1.394-.544 1.921-1.02.782-.663 1.173-1.462 1.173-2.329 0-1.394-.986-2.21-2.686-2.21-.034 0-.204 0-.459.017l-1.071.017c-.204.017-.816.017-1.02.017-.323 0-.85-.017-1.683-.034l-.884-.017-.051.476.901.034c.408.017.595.153.595.459 0 .238-.068.782-.153 1.292l-1.479 8.568c-.068.306-.272.425-.986.544l-.085.442.629-.017c.459-.034.714-.034.918-.034.187 0 .629.017 1.071.034l.629.017.34.017c.323.017.544.034.68.034 1.955 0 4.522-1.581 4.522-3.961Zm-6.409 3.162.867-5.083h1.445c1.751 0 2.601.714 2.601 2.193 0 1.751-1.241 3.009-2.941 3.009-.918 0-1.275-.068-1.972-.119Zm3.162-10.438c1.377 0 2.057.612 2.057 1.887 0 1.785-1.258 2.856-3.366 2.856h-.884l.833-4.658c.272 0 .969-.085 1.36-.085ZM90.251 78.865c0 .272-.255.425-.73.459l-.749.051v.476c1.734-.051 1.734-.051 2.074-.051s.34 0 2.074.051v-.476l-.442-.051c-.799-.119-.816-.119-.952-.884l-1.479-10.625h-.782l-6.34 10.081c-.613.952-.919 1.224-1.497 1.36l-.34.085v.51c1.564-.051 1.564-.051 1.904-.051.323 0 .357 0 1.82.051v-.476l-.885-.051c-.272-.017-.527-.17-.527-.323 0-.136.12-.374.442-.935l1.734-2.975h4.182l.425 3.196v.051c0 .034.068.289.068.527Zm-1.207-9.282.63 4.896H86Z"/></svg></svg>