<svg xmlns="http://www.w3.org/2000/svg" width="242.6" height="112.4" style="width:242.5999959309896px;height:112.40000406901042px;background:#fff;fill:none"><svg xmlns="http://www.w3.org/2000/svg"/><svg xmlns="http://www.w3.org/2000/svg" class="role-diagram-draw-area" style="overflow:visible"><g class="shapes-region" style="stroke:#000;fill:none"><g class="composite-shape"><defs><pattern id="_pgfdi104ggardg-full-view" width="11.314" height="11.314" x="0" y="0" patternTransform="rotate(45 0 0)" patternUnits="userSpaceOnUse"><path d="M0 0v11.314M5.657 0v11.314M11.314 0v11.314" style="stroke:#eee;stroke-opacity:1;stroke-width:1;fill:none"/></pattern></defs><path d="M-31.5 93.3h287v40h-287Z" class="real" style="stroke-width:1;stroke:#000;fill:url(#_pgfdi104ggardg-full-view);fill-opacity:1"/></g><g class="composite-shape"><path d="M176.29 47.54a8.74 8.74 0 0 1 8.75-8.75c4.83 0 8.75 3.91 8.75 8.75 0 4.83-3.92 8.75-8.75 8.75-4.84 0-8.75-3.92-8.75-8.75Z" class="real" style="stroke-width:1;stroke:#000;fill:none;fill-opacity:1"/></g><g class="arrow-line"><path d="M185.04 56.29v29.55" class="connection real" style="stroke:#000;stroke-width:1;fill:none;fill-opacity:1"/></g><g class="arrow-line"><path d="m200.94 64.11-15.9-7.82" class="connection real" style="stroke:#000;stroke-width:1;fill:none;fill-opacity:1"/></g><g class="arrow-line"><path d="m201.23 58.4-16.19-2.11" class="connection real" style="stroke:#000;stroke-width:1;fill:none;fill-opacity:1"/></g><g class="arrow-line"><path d="m191.29 92.39-6.25-6.55" class="connection real" style="stroke:#000;stroke-width:1;fill:none;fill-opacity:1"/></g><g class="arrow-line"><path d="m179.29 93.39 5.75-7.55" class="connection real" style="stroke:#000;stroke-width:1;fill:none;fill-opacity:1"/></g><g class="composite-shape"><defs><pattern id="_pgf5as5oiqmjdg-full-view" width="11.314" height="11.314" x="0" y="0" patternTransform="rotate(45 0 0)" patternUnits="userSpaceOnUse"><path d="M0 0v11.314M5.657 0v11.314M11.314 0v11.314" style="stroke:#f5eaea;stroke-opacity:1;stroke-width:1;fill:none"/></pattern></defs><path d="M201.51-16.45h53.99V93.3h-53.99Z" class="real" style="stroke-width:1;stroke:#900;fill:url(#_pgf5as5oiqmjdg-full-view);fill-opacity:1;stroke-opacity:1"/></g><g class="composite-shape"><path d="M28.63 47.81c0-4.84 3.92-8.75 8.75-8.75s8.75 3.91 8.75 8.75c0 4.83-3.92 8.75-8.75 8.75s-8.75-3.92-8.75-8.75Z" class="real" style="stroke-width:1;stroke:#000;fill:none;fill-opacity:1"/></g><g class="arrow-line"><path d="M37.38 56.56v29.55" class="connection real" style="stroke:#000;stroke-width:1;fill:none;fill-opacity:1"/></g><g class="arrow-line"><path d="m20.66 51.54 16.72 5.02" class="connection real" style="stroke:#000;stroke-width:1;fill:none;fill-opacity:1"/></g><g class="arrow-line"><path d="m52.94 50.11-15.56 6.45" class="connection real" style="stroke:#000;stroke-width:1;fill:none;fill-opacity:1"/></g><g class="arrow-line"><path d="m43.63 92.66-6.25-6.55" class="connection real" style="stroke:#000;stroke-width:1;fill:none;fill-opacity:1"/></g><g class="arrow-line"><path d="m31.63 93.66 5.75-7.55" class="connection real" style="stroke:#000;stroke-width:1;fill:none;fill-opacity:1"/></g><g class="arrow-line"><path d="M89.23 38.56H57.66" class="connection real" style="stroke:#eee;stroke-width:1;fill:none;fill-opacity:1;stroke-opacity:1"/></g><g class="arrow-line"><path d="m69.23 43.26-11.28-.13" class="connection real" style="stroke:#eee;stroke-width:1;fill:none;fill-opacity:1;stroke-opacity:1"/></g><g class="arrow-line"><path d="M77.8 47.13H57.95" class="connection real" style="stroke:#eee;stroke-opacity:1;stroke-width:1;fill:none;fill-opacity:1"/></g><g class="arrow-line"><path d="M51.51 29.26H20.09" class="connection real" style="stroke:#900;stroke-opacity:1;stroke-width:1;fill:none;fill-opacity:1"/><path stroke="#900" d="M10.93-3.29Q4.96-.45 0 0q4.96.45 10.93 3.29" style="stroke:#900;stroke-width:1" transform="translate(18.086 29.257)"/></g><g class="arrow-line"><path d="M185.04 71.06h-19.67" class="connection real" style="stroke:#900;stroke-opacity:1;stroke-width:1;fill:none;fill-opacity:1"/><path fill="#900" stroke="none" d="M10.72-5.15 0 0l10.72 5.15L7.12 0Z" style="stroke:none;stroke-width:1;fill:#900" transform="translate(162.371 71.06)"/></g><g class="arrow-line"><path d="M220.89 58.4h-19.66" class="connection real" style="stroke:#900;stroke-opacity:1;stroke-width:1;fill:none;fill-opacity:1"/><path fill="#900" stroke="none" d="M10.72-5.15 0 0l10.72 5.15L7.12 0Z" style="stroke:none;fill:#900;stroke-width:1" transform="matrix(-1 0 0 -1 223.893 58.4)"/></g></g></svg><svg xmlns="http://www.w3.org/2000/svg" xmlns:xlink="http://www.w3.org/1999/xlink" width="241" height="110.8" style="width:240.99999999999997px;height:110.79999796549478px;font-family:Asana-Math,Asana;background:#fff"><path fill="#900" stroke="#900" stroke-width=".136" d="M18.472 16.198c.357 0 .629-.017 1.071-.068-1.887 2.04-2.601 3.45-2.601 5.15 0 1.31.782 2.245 1.87 2.245 2.346 0 4.947-4.2 4.947-6.715 0-.97-.442-1.666-1.054-1.666-.221 0-.425.068-.561.204l-.85.799.187.323a.8.8 0 0 1 .459-.153c.459 0 .731.39.731 1.07 0 2.517-1.649 5.288-3.145 5.288-.833 0-1.36-.714-1.36-1.82 0-1.784.663-3.331 2.329-5.405l-.17-.306c-.34.153-.561.204-1.037.204s-1.19-.034-1.683-.085l-.204-.017c-.102-.017-.187-.017-.204-.017-.204 0-.357.034-.544.119-.238.459-.425 1.07-.646 2.006h.374l.289-.714c.119-.29.459-.476.867-.476.561 0 .289.034.935.034Z"/><svg width="9.35" height="10" x="15.65" y="4.338" overflow="visible"><path d="M9.35 4.85 6.2 1.53l-.49.52 1.93 2.33h-.15v.9h.15L5.71 7.61l.49.52zm-7.67.38h7.21v-.9H1.68z" style="fill:#900;fill-opacity:1;stroke-width:1px;stroke:none;stroke-opacity:1"/></svg><path fill="#900" stroke="#900" stroke-width=".136" d="m133.662 54.818 1.802-.068c1.054 0 1.734.153 1.751.408l.136 1.513h.408c.051-1.071.17-1.938.357-2.584-.374-.034-.85-.051-1.139-.051l-.697.017-2.805.034h-.493c-.425 0-1.105-.017-1.751-.034l-.833-.017-.051.476.952.034c.408.017.595.17.595.459 0 .238-.068.782-.153 1.292l-1.275 7.378c-.289 1.564-.289 1.581-.986 1.649l-.612.051-.068.476.578-.017c.68-.017 1.224-.034 1.581-.034.306 0 .799.017 1.462.034l.884.017.051-.476-1.088-.051c-.459-.017-.612-.153-.612-.493 0-.102.017-.289.034-.357l.612-3.791h1.989c.459 0 .986.017 1.802.051l.442.017.323-.765-.068-.119a70 70 0 0 1-3.723.102h-.629l.782-4.607c.051-.272.068-.357.153-.544Z"/><svg width="10.288" height="10" x="128.8" y="42.8" overflow="visible"><path d="M10.29 4.85 7.14 1.53l-.49.52 1.93 2.33h-.15v.9h.15L6.65 7.61l.49.52zm-8.61.38h8.15v-.9H1.68z" style="fill:#900;fill-opacity:1;stroke-width:1px;stroke:none;stroke-opacity:1"/></svg><path fill="#900" stroke="#900" stroke-width=".095" d="M140.725 66.502c.25 0 .404-.012.702-.048-.655.881-1.833 1.88-1.833 3.547 0 .975.417 1.63 1.047 1.63.762 0 1.38-.655 2.261-2.356-.107.523-.142.82-.142 1.094 0 .75.345 1.262.88 1.262 1.595 0 3.416-2.963 3.416-4.7 0-.679-.31-1.167-.738-1.167a.55.55 0 0 0-.393.143l-.595.56.131.225a.6.6 0 0 1 .321-.107c.322 0 .512.274.512.75 0 1.725-1.154 3.7-2.166 3.7-.345 0-.595-.475-.595-1.13 0-.559.107-1.344.25-1.856l.619-2.19-.083-.095-.881.262-.345 1.773c-.143.738-.31 1.214-.655 1.856-.476.893-.928 1.38-1.285 1.38-.416 0-.69-.463-.69-1.153 0-1.417.488-2.57 1.666-3.904l-.119-.214c-.238.107-.393.143-.726.143s-.833-.024-1.178-.06l-.143-.011c-.071-.012-.13-.012-.143-.012a.85.85 0 0 0-.38.083c-.167.321-.298.75-.453 1.404h.262l.202-.5c.084-.202.322-.333.607-.333.405 0 .203.024.667.024Zm9.817 2.57-.345 1.512a2.7 2.7 0 0 0-.071.607c0 .261.107.416.285.416.274 0 .762-.31 1.738-1.119l-.084-.25c-.285.239-.63.56-.892.56-.107 0-.179-.107-.179-.274 0-.06 0-.095.012-.13l1.095-4.51-.119-.108-.393.214c-.487-.178-.69-.226-1.011-.226-.333 0-.571.06-.893.214-.737.37-1.13.726-1.428 1.31-.523 1.058-.892 2.486-.892 3.415 0 .523.178.928.405.928.44 0 1.392-.619 2.772-2.559Zm.571-2.499c-.261 1.297-.487 1.916-.892 2.535-.678 1-1.404 1.69-1.785 1.69-.143 0-.214-.155-.214-.476 0-.762.333-2.154.75-3.106.285-.655.559-.869 1.13-.869.274 0 .488.048 1.011.226Zm4.463-3.665-.143-.13c-.619.309-1.047.416-1.904.5l-.047.249h.57c.286 0 .405.083.405.262 0 .035 0 .095-.035.31-.131.654-1 5.235-1.178 5.83-.155.595-.227.952-.227 1.202 0 .298.131.476.357.476.31 0 .738-.25 1.904-1.119l-.119-.214-.309.203c-.345.226-.607.357-.726.357-.083 0-.155-.12-.155-.238 0-.072.012-.155.048-.334Zm3.296 0-.143-.13c-.618.309-1.047.416-1.904.5l-.047.249h.571c.286 0 .405.083.405.262 0 .035 0 .095-.036.31-.13.654-1 5.235-1.178 5.83-.155.595-.226.952-.226 1.202 0 .298.13.476.357.476.31 0 .738-.25 1.904-1.119l-.12-.214-.309.203c-.345.226-.607.357-.726.357-.083 0-.154-.12-.154-.238 0-.072.012-.155.047-.334Z"/><path fill="#900" stroke="#900" stroke-width=".136" d="m212.224 33.956 1.802-.069c1.054 0 1.734.154 1.751.408l.136 1.513h.408c.051-1.07.17-1.937.357-2.584-.374-.033-.85-.05-1.139-.05l-.697.017-2.805.033h-.493c-.425 0-1.105-.017-1.75-.033l-.834-.018-.05.477.951.033c.408.017.595.17.595.46 0 .237-.068.782-.153 1.291l-1.275 7.379c-.289 1.563-.289 1.58-.986 1.648l-.612.052-.068.476.578-.017c.68-.017 1.224-.035 1.581-.035.306 0 .8.018 1.462.035l.884.017.051-.476-1.088-.051c-.459-.018-.612-.154-.612-.494 0-.102.017-.289.034-.357l.612-3.79h1.99c.458 0 .985.017 1.801.05l.442.017.323-.764-.068-.12a70 70 0 0 1-3.723.102H211l.782-4.607c.051-.272.068-.357.153-.544Z"/><svg width="10.288" height="10" x="207.362" y="21.938" overflow="visible"><path d="M10.29 4.85 7.14 1.53l-.49.52 1.93 2.33h-.15v.9h.15L6.65 7.61l.49.52zm-8.61.38h8.15v-.9H1.68z" style="fill:#900;fill-opacity:1;stroke-width:1px;stroke:none;stroke-opacity:1"/></svg><path fill="#900" stroke="#900" stroke-width=".095" d="M217.217 52.78c-.012.083-.012.154-.012.214 0 .511.44.928.976.928 1.261 0 2.57-1.476 3.272-3.677l1.678-5.236-.13-.107c-.346.13-.62.202-.881.226l-.417 1.57c-.143.56-.56 1.429-.952 2.012-.416.607-1 1.13-1.261 1.13-.143 0-.25-.273-.238-.571l.19-2.463c.024-.37.048-.821.048-1.155 0-.535-.084-.75-.286-.75-.155 0-.321.084-.892.477l-.976.666.13.214.596-.357c.06-.035.19-.142.297-.142.167 0 .262.226.262.618 0 .012 0 .084-.012.179l-.202 2.892-.012.476c0 .5.214.844.512.844.44 0 1.44-1.011 2.332-2.356l-.583 2.035c-.607 2.106-1.202 2.975-2.035 2.975a.727.727 0 0 1-.738-.738c0-.06.012-.154.024-.261l-.12-.048Zm6.223-3.951c0 1.261.536 1.94 1.524 1.94.654 0 1.368-.31 1.904-.81.737-.702 1.261-2.058 1.261-3.26 0-1.119-.595-1.797-1.583-1.797-1.237 0-3.106 1.19-3.106 3.927Zm2.666-3.475c.726 0 1.119.535 1.119 1.535 0 1.142-.37 2.404-.893 3.035a1.14 1.14 0 0 1-.892.392c-.69 0-1.095-.535-1.095-1.475 0-1.345.464-2.809 1.047-3.285.155-.13.428-.202.714-.202Zm8.259-.345-.084-.107-.809.202-.119.607c-.178.928-.476 1.737-.845 2.297-.702 1.083-1.63 1.927-2.106 1.927-.095 0-.155-.107-.155-.309 0-.167.024-.321.084-.619l.678-3.225c.036-.19.06-.357.06-.511 0-.226-.108-.37-.274-.37-.238 0-.69.25-1.571.881l-.333.238.083.238.38-.25c.334-.214.465-.273.572-.273s.202.107.202.238c0 .047-.012.166-.024.214l-.75 3.534a4 4 0 0 0-.047.56c0 .273.179.487.417.487.75 0 2.19-1.332 3.189-2.975l-.44 1.69a3.2 3.2 0 0 0-.131.786c0 .297.13.476.357.476.309 0 .737-.25 1.904-1.119l-.12-.214-.309.202c-.285.19-.595.321-.726.321-.095 0-.154-.083-.154-.202 0-.428.892-4.046 1.07-4.724Z"/></svg></svg>