<svg xmlns="http://www.w3.org/2000/svg" width="330.6" height="167.2" style="width:330.6000061035156px;height:167.1999969482422px;background:0 0;fill:none"><svg xmlns="http://www.w3.org/2000/svg"/><svg xmlns="http://www.w3.org/2000/svg" class="role-diagram-draw-area"><g class="shapes-region" style="stroke:#000;fill:none"><g class="arrow-line"><path d="M249.66 89.07h20.41" class="connection real" style="stroke:#900;stroke-opacity:1;stroke-width:2;fill:none;fill-opacity:1"/><path fill="#900" stroke="none" d="M13.4-6.43 0 0l13.4 6.44L8.9 0Z" style="stroke:none;fill:#900;stroke-width:2" transform="translate(245.657 89.071)"/></g><g class="composite-shape"><path d="M137 33.85h78.15V112H137Z" class="real" style="stroke-width:1;stroke:#900;stroke-opacity:1;fill:#f5eaea;fill-opacity:1"/></g><g class="composite-shape"><defs><pattern id="_pgflxf5zwoh3" width="11.314" height="11.314" x="0" y="0" patternTransform="rotate(45 0 0)" patternUnits="userSpaceOnUse"><path d="M0 0v11.314M5.657 0v11.314M11.314 0v11.314" style="stroke:#eee;stroke-opacity:1;stroke-width:1;fill:none"/></pattern></defs><path d="M-26.33 112.97H229.8v59.46H-26.33Z" class="real" style="stroke-width:1;stroke:#000;fill:url(#_pgflxf5zwoh3);fill-opacity:1"/></g><g class="arrow-line"><path d="M137.17 85.67h34.33" class="connection real" style="stroke:#900;stroke-opacity:1;stroke-width:2;fill:none;fill-opacity:1"/><path fill="#900" stroke="none" d="M13.4-6.43 0 0l13.4 6.44L8.9 0Z" style="stroke:none;fill:#900;stroke-width:2" transform="matrix(-1 0 0 -1 175.5 85.667)"/></g><g class="composite-shape"><path d="M87 62h50v50H87Z" class="real" style="stroke-width:1;stroke:#900;stroke-opacity:1;fill:#900;fill-opacity:.5"/></g><g class="arrow-line"><path d="M66.09 86.33H86.5" class="connection real" style="stroke:#900;stroke-opacity:1;stroke-width:2;fill:none;fill-opacity:1"/><path fill="#900" stroke="none" d="M13.4-6.43 0 0l13.4 6.44L8.9 0Z" style="stroke:none;fill:#900;stroke-width:2" transform="translate(62.086 86.333)"/></g><g class="arrow-line"><path d="M99.4 111.77v29" class="connection real" style="stroke:#900;stroke-opacity:1;stroke-width:2;fill:none;fill-opacity:1"/><path fill="#900" stroke="none" d="M13.4-6.43 0 0l13.4 6.44L8.9 0Z" style="stroke:none;fill:#900;stroke-width:2" transform="rotate(-90 122.083 22.683)"/></g><g class="arrow-line"><path d="M124.4 116.27v29" class="connection real" style="stroke:#900;stroke-opacity:1;stroke-width:2;fill:none;fill-opacity:1"/><path fill="#900" stroke="none" d="M13.4-6.43 0 0l13.4 6.44L8.9 0Z" style="stroke:none;fill:#900;stroke-width:2" transform="rotate(90 6.067 118.333)"/></g><g class="arrow-line"><path d="M271.57 90.57v29" class="connection real" style="stroke:#900;stroke-opacity:1;stroke-width:2;fill:none;fill-opacity:1"/><path fill="#900" stroke="none" d="M13.4-6.43 0 0l13.4 6.44L8.9 0Z" style="stroke:none;fill:#900;stroke-width:2" transform="rotate(-90 197.571 -74)"/></g><g class="arrow-line"><path d="M271.57 58.57v29" class="connection real" style="stroke:#900;stroke-opacity:1;stroke-width:2;fill:none;fill-opacity:1"/><path fill="#900" stroke="none" d="M13.4-6.43 0 0l13.4 6.44L8.9 0Z" style="stroke:none;fill:#900;stroke-width:2" transform="rotate(90 108.5 163.071)"/></g><g class="arrow-line"><path d="M273.07 89.07h34.33" class="connection real" style="stroke:#900;stroke-opacity:1;stroke-width:2;fill:none;fill-opacity:1"/><path fill="#900" stroke="none" d="M13.4-6.43 0 0l13.4 6.44L8.9 0Z" style="stroke:none;fill:#900;stroke-width:2" transform="matrix(-1 0 0 -1 311.405 89.071)"/></g><g class="composite-shape"><path d="M270.07 89.07c0-.83.67-1.5 1.5-1.5s1.5.67 1.5 1.5-.67 1.5-1.5 1.5-1.5-.67-1.5-1.5Z" class="real" style="stroke-width:1;stroke:#000;fill:#000;fill-opacity:1"/></g></g></svg><svg xmlns="http://www.w3.org/2000/svg" xmlns:xlink="http://www.w3.org/1999/xlink" width="329" height="165.6" style="width:329px;height:165.60000610351562px;font-family:Asana-Math,Asana;background:0 0"><path fill="#900" stroke="#900" stroke-width=".136" d="m183.162 84.48 1.802-.068c1.054 0 1.734.153 1.751.408l.136 1.513h.408c.051-1.07.17-1.938.357-2.584-.374-.034-.85-.05-1.139-.05l-.697.016-2.805.034h-.493c-.425 0-1.105-.017-1.751-.034l-.833-.017-.051.476.952.034c.408.017.595.17.595.46 0 .237-.068.781-.153 1.291l-1.275 7.378c-.289 1.564-.289 1.581-.986 1.65l-.612.05-.068.476.578-.017c.68-.017 1.224-.034 1.581-.034.306 0 .799.017 1.462.034l.884.017.051-.476-1.088-.05c-.459-.018-.612-.154-.612-.494 0-.102.017-.289.034-.357l.612-3.79h1.989c.459 0 .986.016 1.802.05l.442.017.323-.765-.068-.119a70 70 0 0 1-3.723.102h-.629l.782-4.607c.051-.272.068-.357.153-.544Z"/><svg width="10.288" height="10" x="178.3" y="72.462" overflow="visible"><path d="M10.29 4.85 7.14 1.53l-.49.52 1.93 2.33h-.15v.9h.15L6.65 7.61l.49.52zm-8.61.38h8.15v-.9H1.68z" style="fill:#900;fill-opacity:1;stroke-width:1px;stroke:none;stroke-opacity:1"/></svg><path fill="#900" stroke="#900" stroke-width=".136" d="M209.081 51.366c0-1.87-1.428-2.142-2.822-2.346.969-.34 1.394-.544 1.921-1.02.782-.663 1.173-1.462 1.173-2.329 0-1.394-.986-2.21-2.686-2.21-.034 0-.204 0-.459.017l-1.071.017c-.204.017-.816.017-1.02.017-.323 0-.85-.017-1.683-.034l-.884-.017-.051.476.901.034c.408.017.595.153.595.459 0 .238-.068.782-.153 1.292l-1.479 8.568c-.068.306-.272.425-.986.544l-.085.442.629-.017c.459-.034.714-.034.918-.034.187 0 .629.017 1.071.034l.629.017.34.017c.323.017.544.034.68.034 1.955 0 4.522-1.581 4.522-3.961Zm-6.409 3.162.867-5.083h1.445c1.751 0 2.601.714 2.601 2.193 0 1.751-1.241 3.009-2.941 3.009-.918 0-1.275-.068-1.972-.119Zm3.162-10.438c1.377 0 2.057.612 2.057 1.887 0 1.785-1.258 2.856-3.366 2.856h-.884l.833-4.658c.272 0 .969-.085 1.36-.085Z"/><path fill="#fff" stroke="#fff" stroke-width=".136" d="M115.251 92.865c0 .272-.255.425-.73.459l-.749.051v.476c1.734-.051 1.734-.051 2.074-.051s.34 0 2.074.051v-.476l-.442-.051c-.799-.119-.816-.119-.952-.884l-1.479-10.625h-.782l-6.34 10.081c-.613.952-.919 1.224-1.497 1.36l-.34.085v.51c1.564-.051 1.564-.051 1.904-.051.323 0 .357 0 1.82.051v-.476l-.885-.051c-.272-.017-.527-.17-.527-.323 0-.136.12-.374.442-.935l1.734-2.975h4.182l.425 3.196v.051c0 .034.068.289.068.527Zm-1.207-9.282.63 4.896H111Z"/><path fill="#900" stroke="#900" stroke-width=".136" d="m36.987 82.406 1.802-.068c1.054 0 1.734.153 1.751.408l.136 1.513h.408c.051-1.071.17-1.938.357-2.584-.374-.034-.85-.051-1.139-.051l-.697.017-2.805.034h-.493c-.425 0-1.105-.017-1.751-.034l-.833-.017-.051.476.952.034c.408.017.595.17.595.459 0 .238-.068.782-.153 1.292l-1.275 7.378c-.289 1.564-.289 1.58-.986 1.649l-.612.05-.068.477.578-.017c.68-.017 1.224-.034 1.581-.034.306 0 .799.017 1.462.034l.884.017.051-.476-1.088-.051c-.459-.017-.612-.153-.612-.493 0-.102.017-.29.034-.357l.612-3.791h1.989c.459 0 .986.017 1.802.05l.442.018.323-.765-.068-.12a70 70 0 0 1-3.723.103h-.629l.782-4.607c.051-.272.068-.357.153-.544Z"/><svg width="10.288" height="10" x="32.125" y="70.388" overflow="visible"><path d="M10.29 4.85 7.14 1.53l-.49.52 1.93 2.33h-.15v.9h.15L6.65 7.61l.49.52zm-8.61.38h8.15v-.9H1.68z" style="fill:#900;fill-opacity:1;stroke-width:1px;stroke:none;stroke-opacity:1"/></svg><path fill="#900" stroke="#900" stroke-width=".095" d="M48.524 96.386c0-1.309-1-1.5-1.975-1.642.678-.238.976-.38 1.345-.714.547-.464.82-1.023.82-1.63 0-.976-.69-1.547-1.88-1.547-.023 0-.142 0-.32.012l-.75.012c-.143.011-.572.011-.715.011-.226 0-.595-.011-1.178-.023l-.619-.012-.035.333.63.024c.286.012.417.107.417.321 0 .167-.048.547-.107.904l-1.035 5.998c-.048.214-.19.297-.69.38l-.06.31.44-.012c.322-.023.5-.023.643-.023.13 0 .44.011.75.023l.44.012.238.012c.226.012.38.024.476.024 1.368 0 3.165-1.107 3.165-2.773ZM44.038 98.6l.607-3.558h1.011c1.226 0 1.821.5 1.821 1.535 0 1.225-.869 2.106-2.059 2.106-.642 0-.892-.048-1.38-.083Zm2.213-7.307c.964 0 1.44.428 1.44 1.32 0 1.25-.88 2-2.356 2h-.619l.583-3.26c.19 0 .679-.06.952-.06Zm9.818 7.14c0 .19-.179.297-.512.321l-.523.036v.333c1.213-.035 1.213-.035 1.451-.035s.238 0 1.452.035v-.333l-.31-.036c-.559-.083-.57-.083-.666-.618l-1.035-7.438h-.547l-4.44 7.057c-.428.666-.642.857-1.046.952l-.238.06v.356c1.094-.035 1.094-.035 1.332-.035.227 0 .25 0 1.274.035v-.333l-.619-.036c-.19-.012-.369-.119-.369-.226 0-.095.083-.262.31-.654l1.213-2.083h2.928l.297 2.237v.036c0 .024.048.202.048.369Zm-.845-6.497.44 3.427h-2.57Z"/><path fill="#900" stroke="#900" stroke-width=".136" d="m51.662 133.08 1.802-.068c1.054 0 1.734.154 1.751.409l.136 1.513h.408c.051-1.071.17-1.939.357-2.584a14 14 0 0 0-1.139-.052l-.697.017-2.805.035h-.493c-.425 0-1.105-.017-1.751-.035l-.833-.017-.051.476.952.035c.408.017.595.17.595.459 0 .238-.068.781-.153 1.292l-1.275 7.377c-.289 1.564-.289 1.581-.986 1.65l-.612.05-.068.476.578-.017c.68-.017 1.224-.034 1.581-.034.306 0 .799.017 1.462.034l.884.017.051-.476-1.088-.05c-.459-.017-.612-.153-.612-.493 0-.102.017-.29.034-.357l.612-3.791h1.989c.459 0 .986.017 1.802.05l.442.017.323-.764-.068-.12a70 70 0 0 1-3.723.103h-.629l.782-4.607c.051-.273.068-.357.153-.544Z"/><svg width="10.288" height="10" x="46.8" y="121.063" overflow="visible"><path d="M10.29 4.85 7.14 1.53l-.49.52 1.93 2.33h-.15v.9h.15L6.65 7.61l.49.52zm-8.61.38h8.15v-.9H1.68z" style="fill:#900;fill-opacity:1;stroke-width:1px;stroke:none;stroke-opacity:1"/></svg><path fill="#900" stroke="#900" stroke-width=".095" d="M60.01 144.027c-.797 0-2.618.75-2.618 2.653 0 .917.535 1.464 1.452 1.464.095 0 .226 0 .357-.012l-.488.452c-.19.179-.321.393-.321.56q0 .179.25.392c-.822.274-2.345.798-2.345 2.119 0 .845.833 1.392 2.13 1.392 1.535 0 2.88-.857 2.88-1.845 0-.428-.25-.856-.762-1.273l-.714-.583c-.404-.321-.559-.547-.559-.773 0-.167.179-.334.321-.548 1.167-.285 2.012-1.273 2.012-2.332 0-.179-.036-.405-.048-.452.202.023.297.023.405.023.202 0 .32-.012.595-.047l.107-.536-.036-.071c-.333.083-.571.107-1.214.107 0-.012-.285-.69-1.404-.69Zm-1.178 5.724.916.702c.548.428.774.75.774 1.142 0 .619-.821 1.119-1.81 1.119-.975 0-1.653-.5-1.653-1.226 0-1.214 1.309-1.595 1.773-1.737Zm.88-5.32c.69 0 1.036.429 1.036 1.274 0 1.225-.571 2.058-1.404 2.058-.726 0-1.107-.488-1.107-1.428 0-1.13.607-1.904 1.475-1.904Zm7.343.988c.035-.452.095-.833.19-1.32-.13-.06-.178-.072-.238-.072-.369 0-.738.285-1.166.892-.464.667-.928 1.38-1.119 1.797l.381-1.809c.048-.202.072-.357.072-.5 0-.237-.096-.38-.274-.38-.25 0-.702.25-1.583.88l-.333.238.083.238.381-.25c.333-.214.464-.273.571-.273.12 0 .203.107.203.262 0 .69-.512 3.141-.988 4.664l.119.084c.178-.06.369-.096.642-.155l.155-.024.31-1.428c.214-.988.487-1.618 1.011-2.297.405-.523.726-.773.988-.773.178 0 .297.06.428.226Zm3.463 1.916-.345 1.511a2.7 2.7 0 0 0-.072.607c0 .262.107.417.286.417.273 0 .761-.31 1.737-1.119l-.083-.25c-.286.238-.63.56-.893.56-.107 0-.178-.108-.178-.274 0-.06 0-.095.012-.131l1.095-4.51-.12-.107-.392.214c-.488-.179-.69-.226-1.012-.226-.333 0-.57.06-.892.214-.738.369-1.13.726-1.428 1.309-.524 1.059-.893 2.487-.893 3.415 0 .524.179.928.405.928.44 0 1.392-.618 2.773-2.558Zm.57-2.5c-.26 1.298-.487 1.917-.892 2.536-.678 1-1.404 1.69-1.785 1.69-.142 0-.214-.155-.214-.477 0-.761.333-2.153.75-3.105.285-.655.56-.87 1.13-.87.274 0 .488.048 1.012.227Zm3.452-.07c.25 0 .44-.012.75-.048-1.321 1.428-1.821 2.416-1.821 3.606 0 .916.547 1.57 1.309 1.57 1.642 0 3.463-2.939 3.463-4.7 0-.678-.31-1.166-.738-1.166a.55.55 0 0 0-.393.143l-.595.559.131.226a.6.6 0 0 1 .321-.107c.322 0 .512.274.512.75 0 1.76-1.154 3.7-2.201 3.7-.583 0-.952-.5-.952-1.273 0-1.25.464-2.332 1.63-3.784l-.119-.214c-.238.107-.393.143-.726.143s-.833-.024-1.178-.06l-.143-.012c-.071-.012-.13-.012-.143-.012a.85.85 0 0 0-.38.084c-.167.32-.298.75-.453 1.404h.262l.202-.5c.084-.202.322-.333.607-.333.393 0 .203.024.655.024Zm4.367.38.083.238.381-.25c.44-.273.476-.297.56-.297.119 0 .214.119.214.274 0 .083-.048.357-.095.523l-.786 2.856c-.095.37-.155.69-.155.917 0 .285.131.464.357.464.31 0 .738-.25 1.904-1.119l-.119-.214-.309.202c-.345.226-.619.357-.726.357-.083 0-.155-.119-.155-.238s.024-.226.084-.476l.916-3.617c.048-.203.071-.334.071-.429 0-.202-.107-.31-.297-.31-.262 0-.702.25-1.595.881Zm2.309-3.855c-.345 0-.69.392-.69.797 0 .298.178.488.464.488.369 0 .654-.345.654-.797 0-.286-.178-.488-.428-.488Zm2.07 3.832-.666 3.367c-.012.095-.155.548-.155.905 0 .297.131.476.357.476.417 0 .833-.238 1.761-.988l.37-.298-.12-.214-.535.37q-.517.356-.714.356c-.107 0-.167-.095-.167-.238 0-.31.167-1.273.512-2.999l.155-.737h1.273l.13-.595c-.451.047-.856.07-1.308.07.19-1.118.321-1.7.535-2.343l-.13-.179c-.239.143-.56.286-.929.429l-.297 2.023c-.524.25-.833.38-1.047.44l-.024.155Zm2.38 6.783c-.012.083-.012.154-.012.214 0 .511.44.928.976.928 1.262 0 2.57-1.476 3.273-3.677l1.678-5.236-.131-.107c-.345.13-.619.202-.88.226l-.417 1.57c-.143.56-.56 1.429-.952 2.012-.417.607-1 1.13-1.262 1.13-.143 0-.25-.273-.238-.571l.19-2.463c.024-.37.048-.821.048-1.155 0-.535-.083-.75-.285-.75-.155 0-.322.084-.893.477l-.976.666.131.214.595-.357c.06-.035.19-.142.298-.142.166 0 .262.226.262.618 0 .012 0 .084-.012.179l-.203 2.892-.012.476c0 .5.215.844.512.844.44 0 1.44-1.011 2.333-2.356l-.584 2.035c-.606 2.106-1.201 2.975-2.034 2.975a.727.727 0 0 1-.738-.738c0-.06.012-.154.024-.261l-.12-.048Z"/><path fill="#900" stroke="#900" stroke-width=".136" d="m140.612 134.006 1.802-.068c1.054 0 1.734.153 1.751.408l.136 1.513h.408c.051-1.071.17-1.938.357-2.584-.374-.034-.85-.051-1.139-.051l-.697.017-2.805.034h-.493c-.425 0-1.105-.017-1.751-.034l-.833-.017-.051.476.952.034c.408.017.595.17.595.459 0 .238-.068.782-.153 1.292l-1.275 7.378c-.289 1.564-.289 1.58-.986 1.649l-.612.05-.068.477.578-.017c.68-.017 1.224-.034 1.581-.034.306 0 .799.017 1.462.034l.884.017.051-.476-1.088-.051c-.459-.017-.612-.153-.612-.493 0-.102.017-.29.034-.357l.612-3.791h1.989c.459 0 .986.017 1.802.05l.442.018.323-.765-.068-.12a70 70 0 0 1-3.723.103h-.629l.782-4.607c.051-.272.068-.357.153-.544Z"/><svg width="10.288" height="10" x="135.75" y="121.988" overflow="visible"><path d="M10.29 4.85 7.14 1.53l-.49.52 1.93 2.33h-.15v.9h.15L6.65 7.61l.49.52zm-8.61.38h8.15v-.9H1.68z" style="fill:#900;fill-opacity:1;stroke-width:1px;stroke:none;stroke-opacity:1"/></svg><path fill="#900" stroke="#900" stroke-width=".095" d="M149.793 145.487h-.19l.25-1.333c.19-1.023.523-1.475 1.07-1.475.357 0 .679.178.857.464l.12-.048c.059-.19.178-.559.273-.797l.06-.178a2.5 2.5 0 0 0-.834-.155c-.13 0-.32.036-.416.083-.286.131-1.261.857-1.535 1.143-.262.261-.405.618-.536 1.297l-.178.94a9 9 0 0 1-1.024.44l-.059.262h.964l-.107.666c-.357 2.32-.798 4.534-1.06 5.355-.214.702-.57 1.071-.999 1.071-.274 0-.405-.083-.619-.345l-.166.048c-.048.273-.214.845-.274.952.107.06.286.095.417.095.487 0 1.13-.369 1.594-.928.845-1 1.083-2.142 2.083-6.914h1.237c.048-.226.131-.5.202-.667l-.047-.083c-.345.083-.333.107-1.083.107Zm5.426-3.391-.142-.131c-.62.31-1.048.416-1.904.5l-.048.25h.571c.286 0 .405.083.405.261 0 .036 0 .096-.036.31-.13.654-1 5.236-1.178 5.83-.155.596-.226.953-.226 1.203 0 .297.13.476.357.476.31 0 .738-.25 1.904-1.119l-.12-.214-.308.202c-.346.226-.607.357-.726.357-.084 0-.155-.119-.155-.238 0-.071.012-.155.048-.333Zm.512 6.783c0 1.261.536 1.94 1.523 1.94.655 0 1.369-.31 1.904-.81.738-.702 1.262-2.058 1.262-3.26 0-1.119-.595-1.797-1.583-1.797-1.238 0-3.106 1.19-3.106 3.927Zm2.666-3.475c.726 0 1.118.535 1.118 1.535 0 1.142-.369 2.404-.892 3.035-.214.25-.524.392-.893.392-.69 0-1.094-.535-1.094-1.475 0-1.345.464-2.809 1.047-3.285.154-.13.428-.202.714-.202Zm2.606 3.475c0 1.261.535 1.94 1.523 1.94.654 0 1.368-.31 1.904-.81.738-.702 1.261-2.058 1.261-3.26 0-1.119-.595-1.797-1.582-1.797-1.238 0-3.106 1.19-3.106 3.927Zm2.665-3.475c.726 0 1.119.535 1.119 1.535 0 1.142-.369 2.404-.893 3.035a1.14 1.14 0 0 1-.892.392c-.69 0-1.095-.535-1.095-1.475 0-1.345.464-2.809 1.047-3.285.155-.13.429-.202.714-.202Zm6.783.94c.036-.452.096-.833.19-1.32-.13-.06-.178-.072-.237-.072-.37 0-.738.285-1.166.892-.464.667-.929 1.38-1.119 1.797l.38-1.809c.048-.202.072-.357.072-.5 0-.237-.095-.38-.273-.38-.25 0-.703.25-1.583.88l-.333.238.083.238.38-.25c.334-.214.465-.273.572-.273.119 0 .202.107.202.262 0 .69-.511 3.141-.987 4.664l.118.084c.179-.06.37-.096.643-.155l.155-.024.31-1.428c.213-.988.487-1.618 1.01-2.297.405-.523.727-.773.988-.773.179 0 .298.06.429.226Z"/></svg></svg>