<svg xmlns="http://www.w3.org/2000/svg" width="249.6" height="146" style="width:249.60000610351562px;height:146px;background:0 0;fill:none"><svg xmlns="http://www.w3.org/2000/svg"/><svg xmlns="http://www.w3.org/2000/svg" class="role-diagram-draw-area" style="overflow:visible"><g class="shapes-region" style="stroke:#000;fill:none"><g class="composite-shape"><defs><pattern id="_pgfi51eec39hdg-full-view" width="11.3" height="11.3" x="0" y="0" patternTransform="rotate(45 0 0)" patternUnits="userSpaceOnUse"><path d="M0 0v11.3M5.7 0v11.3M11.3 0v11.3" style="stroke:#070505;stroke-opacity:1;stroke-width:1;fill:none"/></pattern></defs><path d="M-30 133.8h464.5v40H-30Z" class="real" style="stroke-width:1;stroke:#000;fill:url(#_pgfi51eec39hdg-full-view);fill-opacity:1"/></g><g class="arrow-line"><path d="M135.7 66.5H170" class="connection real" style="stroke:#900;stroke-opacity:1;stroke-width:2;fill:none;fill-opacity:1"/><path fill="#900" stroke="none" d="M13.4-6.4 0 0l13.4 6.4L8.9 0Z" style="stroke:none;fill:#900;stroke-width:2" transform="matrix(-1 0 0 -1 174 66.5)"/></g><g class="composite-shape"><path d="M135 83h50v50h-50Z" class="real" style="stroke-width:1;stroke:#900;stroke-opacity:1;fill:#900;fill-opacity:.5"/></g><g class="composite-shape"><path d="M56.9 54.9h78.2v78.2H56.9Z" class="real" style="stroke-width:1;stroke:#900;stroke-opacity:1;fill:#900;fill-opacity:.5"/></g><g class="arrow-line"><path d="M186 110.3h14" class="connection real" style="stroke:#900;stroke-opacity:1;stroke-width:2;fill:none;fill-opacity:1"/><path fill="#900" stroke="none" d="M13.4-6.4 0 0l13.4 6.4L8.9 0Z" style="stroke:none;fill:#900;stroke-width:2" transform="matrix(-1 0 0 -1 204 110.3)"/></g><g class="arrow-line"><path d="M43 96h14" class="connection real" style="stroke:#900;stroke-opacity:1;stroke-width:2;fill:none;fill-opacity:1"/><path fill="#900" stroke="none" d="M13.4-6.4 0 0l13.4 6.4L8.9 0Z" style="stroke:none;fill:#900;stroke-width:2" transform="translate(39 96)"/></g><g class="composite-shape"><path d="M88.5 15.7a5.2 5.2 0 1 1 10.3 0 5.2 5.2 0 0 1-10.3 0Z" class="real" style="stroke-width:1;stroke:#000;fill:#000;fill-opacity:1"/></g><g class="composite-shape"><path d="M156.5 15.2a5.2 5.2 0 1 1 10.3 0 5.2 5.2 0 0 1-10.3 0Z" class="real" style="stroke-width:1;stroke:#000;fill:#000;fill-opacity:1"/></g><g class="arrow-line"><path d="M98.8 15.7h34.4" class="connection real" style="stroke:#900;stroke-opacity:1;stroke-width:2;fill:none;fill-opacity:1"/><path fill="#900" stroke="none" d="M13.4-6.4 0 0l13.4 6.4L8.9 0Z" style="stroke:none;fill:#900;stroke-width:2" transform="matrix(-1 0 0 -1 137.2 15.7)"/></g><g class="arrow-line"><path d="M74.5 15.7h14" class="connection real" style="stroke:#900;stroke-opacity:1;stroke-width:2;fill:none;fill-opacity:1"/><path fill="#900" stroke="none" d="M13.4-6.4 0 0l13.4 6.4L8.9 0Z" style="stroke:none;fill:#900;stroke-width:2" transform="translate(70.5 15.7)"/></g><g class="arrow-line"><path d="M166.8 15.2h14" class="connection real" style="stroke:#900;stroke-opacity:1;stroke-width:2;fill:none;fill-opacity:1"/><path fill="#900" stroke="none" d="M13.4-6.4 0 0l13.4 6.4L8.9 0Z" style="stroke:none;fill:#900;stroke-width:2" transform="matrix(-1 0 0 -1 184.8 15.2)"/></g></g></svg><svg xmlns="http://www.w3.org/2000/svg" xmlns:xlink="http://www.w3.org/1999/xlink" width="248" height="144.4" style="width:248px;height:144.40000915527344px;font-family:Asana-Math,Asana;background:0 0"><path fill="#900" stroke="#900" stroke-width=".1" d="M181.1 61.2h1.8q1.7 0 1.8.3l.1 1.5h.4q0-1.5.4-2.5h-7.7v.4h.9q.6 0 .6.5l-.2 1.3-1.3 7.4c-.3 1.5-.3 1.5-1 1.6h-.6v.5h4.5v-.4l-1-.1q-.7 0-.7-.5v-.4l.7-3.7h4.2l.3-.7v-.2l-3.8.1h-.6l.8-4.6.1-.5Z"/><svg width="10.3" height="10" x="176.3" y="49.2" overflow="visible"><path d="M10.3 4.9 7 1.4l-.5.5 2 2.4h-.2v.9h.2l-2 2.3.5.5zm-8.6.3h8.1v-.9H1.7z" style="fill:#900;fill-opacity:1;stroke-width:1px;stroke:none;stroke-opacity:1"/></svg><path fill="#fff" stroke="#fff" stroke-width=".1" d="M71 74.1q0 .4-.8.5h-.7v.5h4.1v-.5h-.4c-.8-.1-.9-.1-1-1l-1.5-10.5H70l-6.4 10q-.8 1.4-1.5 1.4h-.3v.6h3.7v-.5h-.9q-.5 0-.5-.3l.4-1 1.8-3h4.1l.5 3.2zm-1.3-9.3.7 5h-3.7Zm110.6 33.9c0-1.9-1.4-2.1-2.8-2.3l2-1a3 3 0 0 0 1.1-2.4q0-2.2-2.7-2.2h-5.1v.5h.8q.7 0 .6.5l-.1 1.3-1.5 8.5q0 .4-1 .6v.4h4.2c2 0 4.5-1.5 4.5-3.9Zm-6.4 3.2.9-5.1h1.4q2.7 0 2.6 2.2c0 1.7-1.2 3-3 3zm3.2-10.5q2 0 2 2 0 2.7-3.3 2.8h-1l1-4.7z"/><path fill="#900" stroke="#900" stroke-width=".1" d="M211.7 106.4h1.8q1.6 0 1.8.4l.1 1.5h.4q0-1.7.4-2.6h-7.8v.4h1q.5 0 .5.5l-.1 1.3-1.3 7.4c-.3 1.5-.3 1.6-1 1.6h-.6v.6h.5l1.6-.1h2.4v-.4h-1q-.7 0-.7-.6v-.3l.7-3.8h4.2l.3-.7v-.1h-4.4l.8-4.5.1-.6Z"/><svg width="10.3" height="10" x="206.8" y="94.4" overflow="visible"><path d="M10.3 4.9 7 1.4l-.5.5 2 2.4h-.2v.9h.2l-2 2.3.5.5zm-8.6.3h8.1v-.9H1.7z" style="fill:#900;fill-opacity:1;stroke-width:1px;stroke:none;stroke-opacity:1"/></svg><path fill="#900" stroke="#900" stroke-width=".1" d="M223.5 122.4q0 .3-.5.4h-.5v.3h2.9v-.3h-.3q-.7 0-.7-.7l-1-7.4h-.6l-4.4 7q-.5 1-1 1h-.3v.4h2.6v-.3h-.6q-.3 0-.4-.3l.3-.6 1.3-2.1h2.9l.3 2.2zm-.8-6.5.4 3.5h-2.5Zm9.5 4.5c0-1.3-1-1.5-2-1.6q1-.3 1.4-.8.8-.7.8-1.6 0-1.5-1.9-1.5h-3.6v.3h.6q.4 0 .4.3v1l-1.1 6q0 .2-.7.3v.3h2.9c1.4 0 3.2-1 3.2-2.7Zm-4.5 2.2.6-3.5h1q1.8 0 1.8 1.5a2 2 0 0 1-2 2.1zm2.2-7.3q1.5 0 1.5 1.3-.2 2-2.4 2h-.6l.6-3.2zM13.9 92h1.8q1.6 0 1.7.4l.2 1.5h.4q0-1.7.3-2.6h-7.7v.4h1q.5 0 .5.5l-.1 1.3-1.3 7.4c-.3 1.5-.3 1.6-1 1.6H9v.6h.5l1.6-.1h2.4v-.4h-1.1q-.7 0-.6-.6v-.3l.6-3.8h4.2l.4-.7-.1-.1h-4.3l.7-4.5.2-.6Z"/><svg width="10.3" height="10" x="9" y="80" overflow="visible"><path d="M10.3 4.9 7 1.4l-.5.5 2 2.4h-.2v.9h.2l-2 2.3.5.5zm-8.6.3h8.1v-.9H1.7z" style="fill:#900;fill-opacity:1;stroke-width:1px;stroke:none;stroke-opacity:1"/></svg><path fill="#900" stroke="#900" stroke-width=".1" d="M25.4 106c0-1.3-1-1.5-2-1.6q1-.3 1.4-.8.8-.7.8-1.6 0-1.5-1.9-1.5h-3.6v.3h.6q.5 0 .5.3l-.2 1-1 6q0 .2-.7.3v.3h2.9c1.4 0 3.2-1 3.2-2.7Zm-4.5 2.2.6-3.5h1q2 0 1.9 1.5a2 2 0 0 1-2 2.1zm2.2-7.3q1.5 0 1.5 1.3 0 2-2.4 2h-.6l.6-3.2zM33 108q0 .3-.6.4H32v.3h2.9v-.3h-.3q-.7 0-.7-.7l-1-7.4h-.5l-4.5 7q-.5 1-1 1h-.3v.4h2.6v-.3h-.6q-.3 0-.3-.3l.3-.6 1.2-2.1h3l.2 2.2zm-.9-6.5.5 3.5H30Z"/><path fill="#fff" stroke="#fff" stroke-width=".1" d="M95.4 17.8q0 .2-.4.2h-.4v.3h2.1v-.2h-.2q-.5 0-.5-.5l-.7-5.3h-.4l-3.2 5q-.4.7-.8.7h-.1v.3h1.8v-.2h-.4l-.3-.2.3-.5.8-1.4h2.1l.2 1.6zm-.6-4.6.3 2.4h-1.9Zm68.4 2.7c0-1-.8-1.1-1.5-1.2l1-.5q.6-.6.6-1.2 0-1-1.4-1h-2.5v.1h.4q.3 0 .3.3v.6l-.8 4.3q0 .2-.5.3v.2h2.1c1 0 2.3-.8 2.3-2Zm-3.2 1.5.4-2.5h.7q1.3 0 1.3 1 0 1.5-1.5 1.6zm1.5-5.2q1 0 1 1 0 1.4-1.6 1.4h-.5l.5-2.3z"/></svg></svg>