<svg xmlns="http://www.w3.org/2000/svg" width="242.6" height="112.4" style="width:242.6px;height:112.4px;background:#fff;fill:none"><svg xmlns="http://www.w3.org/2000/svg"/><svg xmlns="http://www.w3.org/2000/svg" class="role-diagram-draw-area" style="overflow:visible"><g class="shapes-region" style="stroke:#000;fill:none"><g class="composite-shape"><defs><pattern id="_pgfbj4ias08pdg-full-view" width="11.314" height="11.314" x="0" y="0" patternTransform="rotate(45 0 0)" patternUnits="userSpaceOnUse"><path d="M0 0v11.314M5.657 0v11.314M11.314 0v11.314" style="stroke:#eee;stroke-opacity:1;stroke-width:1;fill:none"/></pattern></defs><path d="M-29 73.3h287v40H-29Z" class="real" style="stroke-width:1;stroke:#000;fill:url(#_pgfbj4ias08pdg-full-view);fill-opacity:1"/></g><g class="composite-shape"><defs><pattern id="_pgfw9nfstvyldg-full-view" width="11.314" height="11.314" x="0" y="0" patternTransform="rotate(45 0 0)" patternUnits="userSpaceOnUse"><path d="M0 0v11.314M5.657 0v11.314M11.314 0v11.314" style="stroke:#f5eaea;stroke-opacity:1;stroke-width:1;fill:none"/></pattern></defs><path d="M40.5 11.92h61.28V73.2H40.5Z" class="real" style="stroke-width:1;stroke:#900;fill:url(#_pgfw9nfstvyldg-full-view);fill-opacity:1;stroke-opacity:1"/></g><g class="arrow-line"><path d="M60.15 73.45v19.6" class="connection real" style="stroke:#900;stroke-width:1;fill:none;fill-opacity:1;stroke-opacity:1"/><path fill="#900" stroke="none" d="M10.72-5.15 0 0l10.72 5.15L7.12 0Z" style="stroke:none;stroke-width:1;fill:#900" transform="rotate(-90 78.1 17.95)"/></g><g class="arrow-line"><path d="M80.95 53.6v19.6" class="connection real" style="stroke:#900;stroke-opacity:1;stroke-width:1;fill:none;fill-opacity:1"/><path fill="#900" stroke="none" d="M10.72-5.15 0 0l10.72 5.15L7.12 0Z" style="stroke:none;fill:#900;stroke-width:1" transform="rotate(90 15.175 65.775)"/></g></g></svg><svg xmlns="http://www.w3.org/2000/svg" xmlns:xlink="http://www.w3.org/1999/xlink" width="241" height="110.8" style="width:241px;height:110.8px;font-family:Asana-Math,Asana;background:#fff"><path fill="#900" stroke="#900" stroke-width=".136" d="m72.462 90.418 1.802-.068c1.054 0 1.734.153 1.751.408l.136 1.513h.408c.051-1.071.17-1.938.357-2.584-.374-.034-.85-.051-1.139-.051l-.697.017-2.805.034h-.493c-.425 0-1.105-.017-1.751-.034l-.833-.017-.051.476.952.034c.408.017.595.17.595.459 0 .238-.068.782-.153 1.292l-1.275 7.378c-.289 1.564-.289 1.581-.986 1.649l-.612.051-.068.476.578-.017c.68-.017 1.224-.034 1.581-.034.306 0 .799.017 1.462.034l.884.017.051-.476-1.088-.051c-.459-.017-.612-.153-.612-.493 0-.102.017-.289.034-.357l.612-3.791h1.989c.459 0 .986.017 1.802.051l.442.017.323-.765-.068-.119a70 70 0 0 1-3.723.102h-.629l.782-4.607c.051-.272.068-.357.153-.544Z"/><svg width="10.287" height="10" x="67.6" y="78.4" overflow="visible"><path d="M10.29 4.85 7.14 1.53l-.49.52 1.93 2.33h-.15v.9h.15L6.65 7.61l.49.52zm-8.61.38h8.15v-.9H1.68z" style="fill:#900;fill-opacity:1;stroke-width:1px;stroke:none;stroke-opacity:1"/></svg><path fill="#900" stroke="#900" stroke-width=".095" d="m80.334 98.508-.143-.13c-.619.309-1.047.416-1.904.5l-.047.249h.57c.286 0 .405.083.405.286 0 .083-.011.214-.023.285l-1.202 6.557c-.012.036-.012.083-.012.12 0 .463.571.856 1.226.856.44 0 1.047-.226 1.558-.595 1.143-.81 1.928-2.44 1.928-4.01 0-.453-.107-.917-.25-1.095-.083-.107-.238-.167-.416-.167-.286 0-.643.095-.976.262-.607.321-1 .678-1.737 1.618Zm1.035 3.546c.31 0 .464.274.464.857 0 .762-.25 1.785-.606 2.559-.393.82-.87 1.202-1.512 1.202-.547 0-.845-.274-.845-.774 0-.404.179-2.082 1.143-3.094.392-.404 1.011-.75 1.356-.75Zm1.869 3.237c0 1.262.535 1.94 1.523 1.94.654 0 1.368-.31 1.904-.81.738-.701 1.261-2.058 1.261-3.26 0-1.118-.595-1.797-1.582-1.797-1.238 0-3.106 1.19-3.106 3.927Zm2.665-3.475c.726 0 1.119.536 1.119 1.535 0 1.143-.37 2.404-.893 3.035a1.14 1.14 0 0 1-.892.393c-.69 0-1.095-.536-1.095-1.476 0-1.345.464-2.808 1.047-3.284.155-.131.429-.203.714-.203Zm2.511 5.272c.179.095.369.143.512.143.393 0 .857-.345 1.226-.904l.904-1.393.13.821c.156 1.012.43 1.476.858 1.476.261 0 .642-.202 1.023-.547l.583-.524-.107-.226c-.428.357-.726.535-.916.535-.179 0-.333-.119-.452-.357a4.7 4.7 0 0 1-.298-1.011l-.214-1.202.416-.583c.56-.774.88-1.047 1.25-1.047.19 0 .333.095.393.273l.166-.047.179-1.012c-.143-.083-.25-.119-.357-.119-.476 0-.952.429-1.69 1.523l-.44.655-.072-.571c-.143-1.178-.464-1.607-1.166-1.607-.31 0-.571.095-.678.25l-.69.988.202.119c.357-.405.595-.571.82-.571.394 0 .655.487.858 1.654l.13.738-.475.737c-.512.798-.917 1.178-1.25 1.178-.178 0-.31-.047-.333-.107l-.131-.333-.238.036c0 .416-.095.726-.143 1.035Z"/><path fill="#900" stroke="#900" stroke-width=".136" d="m56.462 30.418 1.802-.068c1.054 0 1.734.153 1.751.408l.136 1.513h.408c.051-1.071.17-1.938.357-2.584-.374-.034-.85-.051-1.139-.051l-.697.017-2.805.034h-.493c-.425 0-1.105-.017-1.751-.034l-.833-.017-.051.476.952.034c.408.017.595.17.595.459 0 .238-.068.782-.153 1.292l-1.275 7.378c-.289 1.564-.289 1.581-.986 1.649l-.612.051-.068.476.578-.017c.68-.017 1.224-.034 1.581-.034.306 0 .799.017 1.462.034l.884.017.051-.476-1.088-.051c-.459-.017-.612-.153-.612-.493 0-.102.017-.289.034-.357l.612-3.791h1.989c.459 0 .986.017 1.802.051l.442.017.323-.765-.068-.119a70 70 0 0 1-3.723.102h-.629l.782-4.607c.051-.272.068-.357.153-.544Z"/><svg width="10.287" height="10" x="51.6" y="18.4" overflow="visible"><path d="M10.29 4.85 7.14 1.53l-.49.52 1.93 2.33h-.15v.9h.15L6.65 7.61l.49.52zm-8.61.38h8.15v-.9H1.68z" style="fill:#900;fill-opacity:1;stroke-width:1px;stroke:none;stroke-opacity:1"/></svg><path fill="#900" stroke="#900" stroke-width=".095" d="M65.643 41.9h-.19l.25-1.333c.19-1.023.523-1.476 1.07-1.476.358 0 .679.179.857.464l.12-.047c.059-.19.178-.56.273-.797l.06-.179a2.5 2.5 0 0 0-.833-.155c-.131 0-.322.036-.417.084-.286.13-1.261.856-1.535 1.142-.262.262-.405.619-.536 1.297l-.178.94a9 9 0 0 1-1.023.44l-.06.262h.964l-.107.667c-.357 2.32-.797 4.534-1.06 5.355-.213.702-.57 1.07-.999 1.07-.274 0-.404-.083-.619-.344l-.166.047c-.048.274-.214.845-.274.952.107.06.286.095.417.095.487 0 1.13-.368 1.594-.928.845-1 1.083-2.142 2.083-6.914h1.237c.048-.226.131-.5.203-.666l-.048-.083c-.345.083-.333.107-1.083.107Zm5.426-3.392-.142-.13c-.62.309-1.048.416-1.904.5l-.048.249h.571c.286 0 .405.083.405.262 0 .035 0 .095-.036.31-.13.654-1 5.235-1.178 5.83-.155.595-.226.952-.226 1.202 0 .298.13.476.357.476.31 0 .738-.25 1.904-1.118l-.12-.215-.308.203c-.346.226-.607.357-.726.357-.084 0-.155-.12-.155-.238 0-.072.012-.155.048-.334Zm.512 6.783c0 1.262.536 1.94 1.523 1.94.655 0 1.369-.31 1.904-.81.738-.701 1.262-2.058 1.262-3.26 0-1.118-.595-1.797-1.583-1.797-1.238 0-3.106 1.19-3.106 3.927Zm2.666-3.475c.726 0 1.118.536 1.118 1.535 0 1.143-.369 2.404-.892 3.035-.214.25-.524.393-.893.393-.69 0-1.094-.536-1.094-1.476 0-1.345.464-2.808 1.047-3.284.154-.131.428-.203.714-.203Zm2.606 3.475c0 1.262.535 1.94 1.523 1.94.655 0 1.369-.31 1.904-.81.738-.701 1.261-2.058 1.261-3.26 0-1.118-.595-1.797-1.582-1.797-1.238 0-3.106 1.19-3.106 3.927Zm2.665-3.475c.726 0 1.119.536 1.119 1.535 0 1.143-.369 2.404-.892 3.035-.215.25-.524.393-.893.393-.69 0-1.095-.536-1.095-1.476 0-1.345.464-2.808 1.047-3.284.155-.131.429-.203.714-.203Zm6.783.94c.036-.452.096-.832.19-1.32-.13-.06-.178-.072-.237-.072-.37 0-.738.286-1.166.893-.464.666-.929 1.38-1.119 1.797l.38-1.81c.048-.201.072-.356.072-.499 0-.238-.095-.38-.273-.38-.25 0-.703.25-1.583.88l-.333.238.083.238.38-.25c.334-.214.465-.274.572-.274.119 0 .202.107.202.262 0 .69-.511 3.142-.987 4.665l.119.083c.178-.06.368-.095.642-.155l.155-.023.31-1.428c.213-.988.487-1.619 1.01-2.297.405-.524.727-.774.988-.774.179 0 .298.06.429.227Z"/></svg></svg>