<svg xmlns="http://www.w3.org/2000/svg" width="209.6" height="104.2" style="width:209.60000610351562px;height:104.20000457763672px;background:0 0;fill:none"><svg xmlns="http://www.w3.org/2000/svg"/><svg xmlns="http://www.w3.org/2000/svg" class="role-diagram-draw-area"><g class="shapes-region" style="stroke:#000;fill:none"><g class="composite-shape"><defs><pattern id="_pgfi51eec39h" width="11.314" height="11.314" x="0" y="0" patternTransform="rotate(45 0 0)" patternUnits="userSpaceOnUse"><path d="M0 0v11.314M5.657 0v11.314M11.314 0v11.314" style="stroke:#070505;stroke-opacity:1;stroke-width:1;fill:none"/></pattern></defs><path d="M-36 90.55h464.5v40H-36Z" class="real" style="stroke-width:1;stroke:#000;fill:url(#_pgfi51eec39h);fill-opacity:1"/></g><g class="arrow-line"><path d="M27.47 53.25H61.8" class="connection real" style="stroke:#900;stroke-opacity:1;stroke-width:2;fill:none;fill-opacity:1"/><path fill="#900" stroke="none" d="M13.4-6.43 0 0l13.4 6.44L8.9 0Z" style="stroke:none;fill:#900;stroke-width:2" transform="matrix(-1 0 0 -1 65.8 53.25)"/></g><g class="composite-shape"><path d="M144.45 40.25h50v50h-50Z" class="real" style="stroke-width:1;stroke:#900;stroke-opacity:1;fill:#900;fill-opacity:.5"/></g><g class="composite-shape"><path d="M66.3 12.1h78.15v78.15H66.3Z" class="real" style="stroke-width:1;stroke:#900;stroke-opacity:1;fill:#900;fill-opacity:.5"/></g></g></svg><svg xmlns="http://www.w3.org/2000/svg" xmlns:xlink="http://www.w3.org/1999/xlink" width="208" height="102.6" style="width:208px;height:102.5999984741211px;font-family:Asana-Math,Asana;background:0 0"><path fill="#900" stroke="#900" stroke-width=".136" d="M19.075 52.068 20.877 52c1.054 0 1.734.153 1.75.408l.137 1.513h.408c.05-1.071.17-1.938.357-2.584-.374-.034-.85-.051-1.14-.051l-.696.017-2.805.034h-.493c-.425 0-1.105-.017-1.751-.034l-.833-.017-.051.476.952.034c.408.017.595.17.595.459 0 .238-.068.782-.153 1.292l-1.275 7.378c-.29 1.564-.29 1.581-.986 1.649l-.612.051-.068.476.578-.017c.68-.017 1.224-.034 1.58-.034.307 0 .8.017 1.463.034l.884.017.05-.476-1.087-.051c-.46-.017-.612-.153-.612-.493 0-.102.017-.289.034-.357l.612-3.791h1.989c.459 0 .986.017 1.802.051l.442.017.323-.765-.068-.119a70 70 0 0 1-3.723.102h-.63l.783-4.607c.05-.272.068-.357.153-.544Z"/><svg width="10.288" height="10" x="14.213" y="40.05" overflow="visible"><path d="M10.29 4.85 7.14 1.53l-.49.52 1.93 2.33h-.15v.9h.15L6.65 7.61l.49.52zm-8.61.38h8.15v-.9H1.68z" style="fill:#900;fill-opacity:1;stroke-width:1px;stroke:none;stroke-opacity:1"/></svg><path fill="#fff" stroke="#fff" stroke-width=".136" d="M86.822 57.584v.442c3.179 0 3.179-.051 3.791-.051s.612.051 3.893.051v-1.445c-1.955.085-2.737.017-5.882.085l3.094-3.281c1.649-1.751 2.159-2.686 2.159-3.961 0-1.955-1.326-3.162-3.485-3.162-1.224 0-2.057.34-2.89 1.19l-.289 2.312h.493l.221-.782c.272-.986.884-1.411 2.023-1.411 1.462 0 2.397.918 2.397 2.363 0 1.275-.714 2.533-2.635 4.573Zm10.319-1.496c-.51 0-.969.476-.969.986s.459.986.952.986c.544 0 1.02-.459 1.02-.986 0-.51-.476-.986-1.003-.986Zm9.979-1.921c0-2.057-1.819-2.414-2.618-2.55 1.36-1.054 1.87-1.836 1.87-2.839 0-1.513-1.258-2.516-3.145-2.516-1.156 0-1.921.323-2.737 1.139l-.493 2.108h.527l.306-.952c.187-.578 1.258-1.156 2.142-1.156 1.105 0 2.006.901 2.006 1.972 0 1.275-1.003 2.346-2.21 2.346-.136 0-.323-.017-.544-.034l-.255-.017-.204.901.119.102c.646-.289.969-.374 1.428-.374 1.411 0 2.227.901 2.227 2.448 0 1.734-1.037 2.873-2.618 2.873-.782 0-1.479-.255-1.989-.731-.408-.374-.629-.765-.952-1.683l-.459.17c.357 1.037.493 1.649.595 2.499.901.306 1.649.442 2.278.442 2.091 0 4.726-1.819 4.726-4.148Zm4.709-8.466-.204-.187c-.884.442-1.496.595-2.72.714l-.068.357h.816c.408 0 .578.119.578.408 0 .136-.017.289-.034.408l-.816 4.556c-.238 1.275-.51 2.448-1.394 6.001l.153.17 1.139-.289.391-2.108a4.17 4.17 0 0 1 1.139-2.159c1.173 3.4 1.717 4.556 2.142 4.556.221 0 .629-.221 1.377-.748l.782-.544-.136-.323-.731.408c-.238.136-.357.17-.493.17-.17 0-.289-.102-.442-.391-.595-1.088-.969-2.006-1.632-4.097l.238-.238c1.037-1.037 1.819-1.462 2.669-1.462.136 0 .323.034.612.102l.289-1.071a2.8 2.8 0 0 0-.816-.153c-1.122 0-2.533 1.309-4.658 4.284Zm8.551 4.08c-1.139 0-3.74 1.071-3.74 3.791 0 1.309.765 2.091 2.074 2.091.136 0 .323 0 .51-.017l-.697.646c-.272.255-.459.561-.459.799q0 .255.357.561c-1.173.391-3.349 1.139-3.349 3.026 0 1.207 1.19 1.989 3.043 1.989 2.193 0 4.114-1.224 4.114-2.635 0-.612-.357-1.224-1.088-1.819l-1.02-.833c-.578-.459-.799-.782-.799-1.105 0-.238.255-.476.459-.782 1.666-.408 2.873-1.819 2.873-3.332 0-.255-.051-.578-.068-.646.289.034.425.034.578.034.289 0 .459-.017.85-.068l.153-.765-.051-.102c-.476.119-.816.153-1.734.153 0-.017-.408-.986-2.006-.986Zm-1.683 8.177 1.309 1.003c.782.612 1.105 1.071 1.105 1.632 0 .884-1.173 1.598-2.584 1.598-1.394 0-2.363-.714-2.363-1.751 0-1.734 1.87-2.278 2.533-2.482Zm1.258-7.599c.986 0 1.479.612 1.479 1.819 0 1.751-.816 2.941-2.006 2.941-1.037 0-1.581-.697-1.581-2.04 0-1.615.867-2.72 2.108-2.72Zm37.776 21.742v-.51l-.884-.051c-.935-.051-1.105-.238-1.105-1.122V60.15l-4.097 1.734.119.85 2.55-1.122v8.806c0 .884-.187 1.071-1.105 1.122l-.952.051v.51c2.618-.051 2.618-.051 2.805-.051.527 0 2.397.051 2.669.051Zm3.485-1.938c-.51 0-.969.476-.969.986s.459.986.952.986c.544 0 1.02-.459 1.02-.986 0-.51-.476-.986-1.003-.986Zm2.397 1.496v.442c3.179 0 3.179-.051 3.791-.051s.612.051 3.893.051v-1.445c-1.955.085-2.737.017-5.882.085l3.094-3.281c1.649-1.751 2.159-2.686 2.159-3.961 0-1.955-1.326-3.162-3.485-3.162-1.224 0-2.057.34-2.89 1.19l-.289 2.312h.493l.221-.782c.272-.986.884-1.411 2.023-1.411 1.462 0 2.397.918 2.397 2.363 0 1.275-.714 2.533-2.635 4.573Zm12.291-11.883-.204-.187c-.884.442-1.496.595-2.72.714l-.068.357h.816c.408 0 .578.119.578.408 0 .136-.017.289-.034.408l-.816 4.556c-.238 1.275-.51 2.448-1.394 6.001l.153.17 1.139-.289.391-2.108a4.17 4.17 0 0 1 1.139-2.159c1.173 3.4 1.717 4.556 2.142 4.556.221 0 .629-.221 1.377-.748l.782-.544-.136-.323-.731.408c-.238.136-.357.17-.493.17-.17 0-.289-.102-.442-.391-.595-1.088-.969-2.006-1.632-4.097l.238-.238c1.037-1.037 1.819-1.462 2.669-1.462.136 0 .323.034.612.102l.289-1.071a2.8 2.8 0 0 0-.816-.153c-1.122 0-2.533 1.309-4.658 4.284Zm8.551 4.08c-1.139 0-3.74 1.071-3.74 3.791 0 1.309.765 2.091 2.074 2.091.136 0 .323 0 .51-.017l-.697.646c-.272.255-.459.561-.459.799q0 .255.357.561c-1.173.391-3.349 1.139-3.349 3.026 0 1.207 1.19 1.989 3.043 1.989 2.193 0 4.114-1.224 4.114-2.635 0-.612-.357-1.224-1.088-1.819l-1.02-.833c-.578-.459-.799-.782-.799-1.105 0-.238.255-.476.459-.782 1.666-.408 2.873-1.819 2.873-3.332 0-.255-.051-.578-.068-.646.289.034.425.034.578.034.289 0 .459-.017.85-.068l.153-.765-.051-.102c-.476.119-.816.153-1.734.153 0-.017-.408-.986-2.006-.986Zm-1.683 8.177 1.309 1.003c.782.612 1.105 1.071 1.105 1.632 0 .884-1.173 1.598-2.584 1.598-1.394 0-2.363-.714-2.363-1.751 0-1.734 1.87-2.278 2.533-2.482Zm1.258-7.599c.986 0 1.479.612 1.479 1.819 0 1.751-.816 2.941-2.006 2.941-1.037 0-1.581-.697-1.581-2.04 0-1.615.867-2.72 2.108-2.72Z"/></svg></svg>