<svg xmlns="http://www.w3.org/2000/svg" xmlns:xlink="http://www.w3.org/1999/xlink" x="0" y="0" width="242.5999959309896" height="112.40000406901042" style="
        width:242.5999959309896px;
        height:112.40000406901042px;
        background: #FFF;
        fill: none;
">
        <svg xmlns="http://www.w3.org/2000/svg"/>
        
        <svg xmlns="http://www.w3.org/2000/svg" class="role-diagram-draw-area" style="overflow: visible;"><g class="shapes-region" style="stroke: black; fill: none;"><g class="composite-shape"><defs><!-- react-text: 14966 --> <!-- /react-text --><pattern id="_pgfdi104ggardg-full-view" x="0" y="0" width="11.313708498984761" height="11.313708498984761" patternTransform="rotate(45,0,0)" patternUnits="userSpaceOnUse"><path d="M0,0 L0,11.313708498984761" style="stroke: rgb(238, 238, 238); stroke-opacity: 1; stroke-width: 1; fill: none;"/><path d="M5.656854249492381,0 L5.656854249492381,11.313708498984761" style="stroke: rgb(238, 238, 238); stroke-opacity: 1; stroke-width: 1; fill: none;"/><path d="M11.313708498984761,0 L11.313708498984761,11.313708498984761" style="stroke: rgb(238, 238, 238); stroke-opacity: 1; stroke-width: 1; fill: none;"/></pattern></defs><path class="real" d=" M-31.5,93.3 L255.5,93.3 L255.5,133.3 L-31.5,133.3 Z" style="stroke-width: 1; stroke: rgb(0, 0, 0); fill: url(&quot;#_pgfdi104ggardg-full-view&quot;); fill-opacity: 1;"/></g><g class="composite-shape"><path class="real" d=" M176.29,47.54 C176.29,42.7 180.2,38.79 185.04,38.79 C189.87,38.79 193.79,42.7 193.79,47.54 C193.79,52.37 189.87,56.29 185.04,56.29 C180.2,56.29 176.29,52.37 176.29,47.54 Z" style="stroke-width: 1; stroke: rgb(0, 0, 0); fill: none; fill-opacity: 1;"/></g><g class="arrow-line"><path class="connection real" stroke-dasharray="" d="  M185.04,56.29 L185.04,85.84" style="stroke: rgb(0, 0, 0); stroke-width: 1; fill: none; fill-opacity: 1;"/></g><g class="arrow-line"><path class="connection real" stroke-dasharray="" d="  M200.94,64.11 L185.04,56.29" style="stroke: rgb(0, 0, 0); stroke-width: 1; fill: none; fill-opacity: 1;"/></g><g class="arrow-line"><path class="connection real" stroke-dasharray="" d="  M201.23,58.4 L185.04,56.29" style="stroke: rgb(0, 0, 0); stroke-width: 1; fill: none; fill-opacity: 1;"/></g><g class="arrow-line"><path class="connection real" stroke-dasharray="" d="  M191.29,92.39 L185.04,85.84" style="stroke: rgb(0, 0, 0); stroke-width: 1; fill: none; fill-opacity: 1;"/></g><g class="arrow-line"><path class="connection real" stroke-dasharray="" d="  M179.29,93.39 L185.04,85.84" style="stroke: rgb(0, 0, 0); stroke-width: 1; fill: none; fill-opacity: 1;"/></g><g class="composite-shape"><defs><!-- react-text: 16614 --> <!-- /react-text --><pattern id="_pgf5as5oiqmjdg-full-view" x="0" y="0" width="11.313708498984761" height="11.313708498984761" patternTransform="rotate(45,0,0)" patternUnits="userSpaceOnUse"><path d="M0,0 L0,11.313708498984761" style="stroke: rgb(245, 234, 234); stroke-opacity: 1; stroke-width: 1; fill: none;"/><path d="M5.656854249492381,0 L5.656854249492381,11.313708498984761" style="stroke: rgb(245, 234, 234); stroke-opacity: 1; stroke-width: 1; fill: none;"/><path d="M11.313708498984761,0 L11.313708498984761,11.313708498984761" style="stroke: rgb(245, 234, 234); stroke-opacity: 1; stroke-width: 1; fill: none;"/></pattern></defs><path class="real" d=" M201.51,-16.45 L255.5,-16.45 L255.5,93.3 L201.51,93.3 Z" style="stroke-width: 1; stroke: rgb(153, 0, 0); fill: url(&quot;#_pgf5as5oiqmjdg-full-view&quot;); fill-opacity: 1; stroke-opacity: 1;"/></g><g class="composite-shape"><path class="real" d=" M28.63,47.81 C28.63,42.97 32.55,39.06 37.38,39.06 C42.21,39.06 46.13,42.97 46.13,47.81 C46.13,52.64 42.21,56.56 37.38,56.56 C32.55,56.56 28.63,52.64 28.63,47.81 Z" style="stroke-width: 1; stroke: rgb(0, 0, 0); fill: none; fill-opacity: 1;"/></g><g class="arrow-line"><path class="connection real" stroke-dasharray="" d="  M37.38,56.56 L37.38,86.11" style="stroke: rgb(0, 0, 0); stroke-width: 1; fill: none; fill-opacity: 1;"/></g><g class="arrow-line"><path class="connection real" stroke-dasharray="" d="  M20.66,51.54 L37.38,56.56" style="stroke: rgb(0, 0, 0); stroke-width: 1; fill: none; fill-opacity: 1;"/></g><g class="arrow-line"><path class="connection real" stroke-dasharray="" d="  M52.94,50.11 L37.38,56.56" style="stroke: rgb(0, 0, 0); stroke-width: 1; fill: none; fill-opacity: 1;"/></g><g class="arrow-line"><path class="connection real" stroke-dasharray="" d="  M43.63,92.66 L37.38,86.11" style="stroke: rgb(0, 0, 0); stroke-width: 1; fill: none; fill-opacity: 1;"/></g><g class="arrow-line"><path class="connection real" stroke-dasharray="" d="  M31.63,93.66 L37.38,86.11" style="stroke: rgb(0, 0, 0); stroke-width: 1; fill: none; fill-opacity: 1;"/></g><g class="arrow-line"><path class="connection real" stroke-dasharray="" d="  M89.23,38.56 L57.66,38.56" style="stroke: rgb(238, 238, 238); stroke-width: 1; fill: none; fill-opacity: 1; stroke-opacity: 1;"/></g><g class="arrow-line"><path class="connection real" stroke-dasharray="" d="  M69.23,43.26 L57.95,43.13" style="stroke: rgb(238, 238, 238); stroke-width: 1; fill: none; fill-opacity: 1; stroke-opacity: 1;"/></g><g class="arrow-line"><path class="connection real" stroke-dasharray="" d="  M77.8,47.13 L57.95,47.13" style="stroke: rgb(238, 238, 238); stroke-opacity: 1; stroke-width: 1; fill: none; fill-opacity: 1;"/></g><g class="arrow-line"><path class="connection real" stroke-dasharray="" d="  M51.51,29.26 L20.09,29.26" style="stroke: rgb(153, 0, 0); stroke-opacity: 1; stroke-width: 1; fill: none; fill-opacity: 1;"/><g stroke="rgb(153,0,0)" stroke-opacity="1" transform="matrix(1,-2.4492935982947064e-16,2.4492935982947064e-16,1,18.085710797991094,29.257141113281243)" style="stroke: rgb(153, 0, 0); stroke-width: 1;"><path d=" M10.93,-3.29 Q4.96,-0.45 0,0 Q4.96,0.45 10.93,3.29"/></g></g><g class="arrow-line"><path class="connection real" stroke-dasharray="" d="  M185.04,71.06 L165.37,71.06" style="stroke: rgb(153, 0, 0); stroke-opacity: 1; stroke-width: 1; fill: none; fill-opacity: 1;"/><g stroke="none" transform="matrix(1,-2.4492935982947064e-16,2.4492935982947064e-16,1,162.37142508370536,71.06071199689595)" style="stroke: none; stroke-width: 1; fill: rgb(153, 0, 0);" fill="rgb(153,0,0)" fill-opacity="1"><path d=" M10.72,-5.15 L0,0 L10.72,5.15 L7.12,0 Z"/></g></g><g class="arrow-line"><path class="connection real" stroke-dasharray="" d="  M220.89,58.4 L201.23,58.4" style="stroke: rgb(153, 0, 0); stroke-opacity: 1; stroke-width: 1; fill: none; fill-opacity: 1;"/><g stroke="none" fill="rgb(153,0,0)" fill-opacity="1" transform="matrix(-1,1.2246467991473532e-16,-1.2246467991473532e-16,-1,223.89285714285717,58.39999825613839)" style="stroke: none; fill: rgb(153, 0, 0); stroke-width: 1;"><path d=" M10.72,-5.15 L0,0 L10.72,5.15 L7.12,0 Z"/></g></g><g/></g><g/><g/><g/></svg>
        <svg xmlns="http://www.w3.org/2000/svg" xmlns:xlink="http://www.w3.org/1999/xlink" width="240.99999999999997" height="110.79999796549478" style="width:240.99999999999997px;height:110.79999796549478px;font-family:Asana-Math, Asana;background:#FFF;"><g><g><g><g><g><g><g transform="matrix(1,0,0,1,15.649983723958332,23.337504069010414)"><path transform="matrix(0.017,0,0,-0.017,0,0)" d="M166 420C187 420 203 421 229 424C118 304 76 221 76 121C76 44 122 -11 186 -11C324 -11 477 236 477 384C477 441 451 482 415 482C402 482 390 478 382 470L332 423L343 404C352 410 361 413 370 413C397 413 413 390 413 350C413 202 316 39 228 39C179 39 148 81 148 146C148 251 187 342 285 464L275 482C255 473 242 470 214 470C186 470 144 472 115 475L103 476C97 477 92 477 91 477C79 477 70 475 59 470C45 443 34 407 21 352L43 352L60 394C67 411 87 422 111 422C144 422 128 420 166 420Z" stroke="rgb(153,0,0)" stroke-opacity="1" stroke-width="8" fill="rgb(153,0,0)" fill-opacity="1"></path></g></g></g></g><svg x="15.649983723958332" overflow="visible" y="4.337504069010416" height="10" width="9.350000381469727"><path d=" M 9.35 4.85 l -3.15 -3.32 l -0.49 0.52 l 1.93 2.33 h -0.15 v 0.90 h 0.15 l -1.93 2.33 l 0.49 0.52 z  M 1.68 5.23 h 7.21 v -0.90 h -7.21 z" style="fill:rgb(153,0,0);fill-opacity:1;stroke-width:1px;stroke:none;stroke-opacity:1;"></path></svg></g></g></g><g><g><g><g><g><g><g transform="matrix(1,0,0,1,128.79996744791666,65.80000813802084)"><path transform="matrix(0.017,0,0,-0.017,0,0)" d="M286 646L392 650C454 650 494 641 495 626L503 537L527 537C530 600 537 651 548 689C526 691 498 692 481 692L440 691L275 689L246 689C221 689 181 690 143 691L94 692L91 664L147 662C171 661 182 652 182 635C182 621 178 589 173 559L98 125C81 33 81 32 40 28L4 25L0 -3L34 -2C74 -1 106 0 127 0C145 0 174 -1 213 -2L265 -3L268 25L204 28C177 29 168 37 168 57C168 63 169 74 170 78L206 301L323 301C350 301 381 300 429 298L455 297L474 342L470 349C389 345 329 343 251 343L214 343L260 614C263 630 264 635 269 646Z" stroke="rgb(153,0,0)" stroke-opacity="1" stroke-width="8" fill="rgb(153,0,0)" fill-opacity="1"></path></g></g></g></g><svg x="128.79996744791666" overflow="visible" y="42.800008138020836" height="10" width="10.287500381469727"><path d=" M 10.29 4.85 l -3.15 -3.32 l -0.49 0.52 l 1.93 2.33 h -0.15 v 0.90 h 0.15 l -1.93 2.33 l 0.49 0.52 z  M 1.68 5.23 h 8.15 v -0.90 h -8.15 z" style="fill:rgb(153,0,0);fill-opacity:1;stroke-width:1px;stroke:none;stroke-opacity:1;"></path></svg></g><g><g><g><g><g transform="matrix(1,0,0,1,138.73746744791666,71.49999593098958)"><path transform="matrix(0.0119,0,0,-0.0119,0,0)" d="M167 420C188 420 201 421 226 424C171 350 72 266 72 126C72 44 107 -11 160 -11C224 -11 276 44 350 187C341 143 338 118 338 95C338 32 367 -11 412 -11C546 -11 699 238 699 384C699 441 673 482 637 482C624 482 612 478 604 470L554 423L565 404C574 410 583 413 592 413C619 413 635 390 635 350C635 205 538 39 453 39C424 39 403 79 403 134C403 181 412 247 424 290L476 474L469 482L395 460L366 311C354 249 340 209 311 155C271 80 233 39 203 39C168 39 145 78 145 136C145 255 186 352 285 464L275 482C255 473 242 470 214 470C186 470 144 472 115 475L103 476C97 477 92 477 91 477C79 477 70 475 59 470C45 443 34 407 21 352L43 352L60 394C67 411 87 422 111 422C145 422 128 420 167 420ZM992 204L963 77C959 60 957 42 957 26C957 4 966 -9 981 -9C1004 -9 1045 17 1127 85L1120 106C1096 86 1067 59 1045 59C1036 59 1030 68 1030 82C1030 87 1030 90 1031 93L1123 472L1113 481L1080 463C1039 478 1022 482 995 482C967 482 947 477 920 464C858 433 825 403 800 354C756 265 725 145 725 67C725 23 740 -11 759 -11C796 -11 876 41 992 204ZM1040 414C1018 305 999 253 965 201C908 117 847 59 815 59C803 59 797 72 797 99C797 163 825 280 860 360C884 415 907 433 955 433C978 433 996 429 1040 414ZM1415 722L1403 733C1351 707 1315 698 1243 691L1239 670L1287 670C1311 670 1321 663 1321 648C1321 645 1321 640 1318 622C1307 567 1234 182 1219 132C1206 82 1200 52 1200 31C1200 6 1211 -9 1230 -9C1256 -9 1292 12 1390 85L1380 103L1354 86C1325 67 1303 56 1293 56C1286 56 1280 66 1280 76C1280 82 1281 89 1284 104ZM1692 722L1680 733C1628 707 1592 698 1520 691L1516 670L1564 670C1588 670 1598 663 1598 648C1598 645 1598 640 1595 622C1584 567 1511 182 1496 132C1483 82 1477 52 1477 31C1477 6 1488 -9 1507 -9C1533 -9 1569 12 1667 85L1657 103L1631 86C1602 67 1580 56 1570 56C1563 56 1557 66 1557 76C1557 82 1558 89 1561 104Z" stroke="rgb(153,0,0)" stroke-opacity="1" stroke-width="8" fill="rgb(153,0,0)" fill-opacity="1"></path></g></g></g></g></g></g></g><g><g><g><g><g><g><g transform="matrix(1,0,0,1,207.36246744791666,44.9375)"><path transform="matrix(0.017,0,0,-0.017,0,0)" d="M286 646L392 650C454 650 494 641 495 626L503 537L527 537C530 600 537 651 548 689C526 691 498 692 481 692L440 691L275 689L246 689C221 689 181 690 143 691L94 692L91 664L147 662C171 661 182 652 182 635C182 621 178 589 173 559L98 125C81 33 81 32 40 28L4 25L0 -3L34 -2C74 -1 106 0 127 0C145 0 174 -1 213 -2L265 -3L268 25L204 28C177 29 168 37 168 57C168 63 169 74 170 78L206 301L323 301C350 301 381 300 429 298L455 297L474 342L470 349C389 345 329 343 251 343L214 343L260 614C263 630 264 635 269 646Z" stroke="rgb(153,0,0)" stroke-opacity="1" stroke-width="8" fill="rgb(153,0,0)" fill-opacity="1"></path></g></g></g></g><svg x="207.36246744791666" overflow="visible" y="21.9375" height="10" width="10.287500381469727"><path d=" M 10.29 4.85 l -3.15 -3.32 l -0.49 0.52 l 1.93 2.33 h -0.15 v 0.90 h 0.15 l -1.93 2.33 l 0.49 0.52 z  M 1.68 5.23 h 8.15 v -0.90 h -8.15 z" style="fill:rgb(153,0,0);fill-opacity:1;stroke-width:1px;stroke:none;stroke-opacity:1;"></path></svg></g><g><g><g><g><g transform="matrix(1,0,0,1,217.30000813802081,50.637508138020834)"><path transform="matrix(0.0119,0,0,-0.0119,0,0)" d="M-7 -180C-8 -187 -8 -193 -8 -198C-8 -241 29 -276 74 -276C180 -276 290 -152 349 33L490 473L479 482C450 471 427 465 405 463L370 331C358 284 323 211 290 162C255 111 206 67 184 67C172 67 163 90 164 115L180 322C182 353 184 391 184 419C184 464 177 482 160 482C147 482 133 475 85 442L3 386L14 368L64 398C69 401 80 410 89 410C103 410 111 391 111 358C111 357 111 351 110 343L93 100L92 60C92 18 110 -11 135 -11C172 -11 256 74 331 187L282 16C231 -161 181 -234 111 -234C76 -234 49 -207 49 -172C49 -167 50 -159 51 -150L41 -146ZM516 152C516 46 561 -11 644 -11C699 -11 759 15 804 57C866 116 910 230 910 331C910 425 860 482 777 482C673 482 516 382 516 152ZM740 444C801 444 834 399 834 315C834 219 803 113 759 60C741 39 715 27 684 27C626 27 592 72 592 151C592 264 631 387 680 427C693 438 716 444 740 444ZM1434 473L1427 482L1359 465L1349 414C1334 336 1309 268 1278 221C1219 130 1141 59 1101 59C1093 59 1088 68 1088 85C1088 99 1090 112 1095 137L1152 408C1155 424 1157 438 1157 451C1157 470 1148 482 1134 482C1114 482 1076 461 1002 408L974 388L981 368L1013 389C1041 407 1052 412 1061 412C1070 412 1078 403 1078 392C1078 388 1077 378 1076 374L1013 77C1011 68 1009 44 1009 30C1009 7 1024 -11 1044 -11C1107 -11 1228 101 1312 239L1275 97C1268 73 1264 46 1264 31C1264 6 1275 -9 1294 -9C1320 -9 1356 12 1454 85L1444 103L1418 86C1394 70 1368 59 1357 59C1349 59 1344 66 1344 76C1344 112 1419 416 1434 473Z" stroke="rgb(153,0,0)" stroke-opacity="1" stroke-width="8" fill="rgb(153,0,0)" fill-opacity="1"></path></g></g></g></g></g></g></g></svg>
</svg>
