<svg xmlns="http://www.w3.org/2000/svg" width="177.6" height="139.675" style="width:177.60000610351562px;height:139.6750030517578px;background:#fff;fill:none"><svg xmlns="http://www.w3.org/2000/svg"/><svg xmlns="http://www.w3.org/2000/svg" class="role-diagram-draw-area"><g class="shapes-region" style="stroke:#000;fill:none"><g class="composite-shape"><defs><pattern id="_pgfx7x6vow4o" width="11.314" height="11.314" x="0" y="0" patternTransform="rotate(45 0 0)" patternUnits="userSpaceOnUse"><path d="M0 0v11.314M5.657 0v11.314M11.314 0v11.314" style="stroke:#eee;stroke-opacity:1;stroke-width:1;fill:none"/></pattern></defs><path d="M43.82 47.96h32.32v32.32H43.82Z" class="real" style="stroke-width:1;stroke:#000;stroke-opacity:1;fill:url(#_pgfx7x6vow4o);fill-opacity:1"/></g><g class="composite-shape"><defs><pattern id="_pgfipermy6yt" width="11.314" height="11.314" x="0" y="0" patternTransform="rotate(45 0 0)" patternUnits="userSpaceOnUse"><path d="M0 0v11.314M5.657 0v11.314M11.314 0v11.314" style="stroke:#f5eaea;stroke-opacity:1;stroke-width:1;fill:none"/></pattern></defs><path d="M76.14 19h61.28v61.28H76.14Z" class="real" style="stroke-width:1;stroke:#900;stroke-opacity:1;fill:url(#_pgfipermy6yt);fill-opacity:1"/></g><g class="arrow-line"><path d="M55 64.12h20.43" class="connection real" style="stroke:#900;stroke-opacity:1;stroke-width:1;fill:none;fill-opacity:1"/><path fill="#900" stroke="none" d="M10.72-5.15 0 0l10.72 5.15L7.12 0Z" style="stroke:none;fill:#900;stroke-width:1" transform="translate(52 64.12)"/></g><g class="arrow-line"><path d="M75.43 64.12h20.43" class="connection real" style="stroke:#000;stroke-width:1;fill:none;fill-opacity:1"/><path fill="#000" stroke="none" d="M10.72-5.15 0 0l10.72 5.15L7.12 0Z" style="stroke:none;fill:#000;stroke-width:1" transform="matrix(-1 0 0 -1 98.86 64.12)"/></g><g class="composite-shape"><path d="M65.43 110.58c0-.86.69-1.55 1.55-1.55s1.55.69 1.55 1.55-.69 1.55-1.55 1.55-1.55-.69-1.55-1.55Z" class="real" style="stroke-width:1;stroke:#000;fill:#000;fill-opacity:1"/></g><g class="composite-shape"><path d="M112.23 110.58c0-.86.69-1.55 1.55-1.55s1.55.69 1.55 1.55-.69 1.55-1.55 1.55-1.55-.69-1.55-1.55Z" class="real" style="stroke-width:1;stroke:#900;stroke-opacity:1;fill:#900;fill-opacity:1"/></g><g class="arrow-line"><path d="M115.33 110.58h20.43" class="connection real" style="stroke:#000;stroke-width:1;fill:none;fill-opacity:1"/><path fill="#000" stroke="none" d="M10.72-5.15 0 0l10.72 5.15L7.12 0Z" style="stroke:none;fill:#000;stroke-width:1" transform="matrix(-1 0 0 -1 138.76 110.58)"/></g><g class="arrow-line"><path d="M45 110.58h20.43" class="connection real" style="stroke:#900;stroke-opacity:1;stroke-width:1;fill:none;fill-opacity:1"/><path fill="#900" stroke="none" d="M10.72-5.15 0 0l10.72 5.15L7.12 0Z" style="stroke:none;fill:#900;stroke-width:1" transform="translate(42 110.58)"/></g></g></svg><svg xmlns="http://www.w3.org/2000/svg" xmlns:xlink="http://www.w3.org/1999/xlink" width="176" height="138.075" style="width:176px;height:138.0749969482422px;font-family:Asana-Math,Asana;background:#fff"><path fill="#000" stroke="#000" stroke-width=".136" d="M37.876 53.815c0 .272-.255.425-.73.459l-.749.051v.476c1.734-.051 1.734-.051 2.074-.051s.34 0 2.074.051v-.476l-.442-.051c-.799-.119-.816-.119-.952-.884l-1.479-10.625h-.782l-6.34 10.081c-.613.952-.919 1.224-1.497 1.36l-.34.085v.51c1.564-.051 1.564-.051 1.904-.051.323 0 .357 0 1.82.051v-.476l-.885-.051c-.272-.017-.527-.17-.527-.323 0-.136.12-.374.442-.935l1.734-2.975h4.182l.425 3.196v.051c0 .034.068.289.068.527Zm-1.207-9.282.63 4.896h-3.673Z"/><path fill="#900" stroke="#900" stroke-width=".136" d="M149.444 21.941c0-1.87-1.428-2.142-2.822-2.346.969-.34 1.394-.544 1.92-1.02.783-.663 1.174-1.462 1.174-2.329 0-1.394-.986-2.21-2.686-2.21-.034 0-.204 0-.46.017l-1.07.017c-.204.017-.816.017-1.02.017-.323 0-.85-.017-1.683-.034l-.884-.017-.051.476.9.034c.409.017.596.153.596.459 0 .238-.068.782-.153 1.292l-1.48 8.568c-.067.306-.271.425-.985.544l-.085.442.629-.017c.459-.034.714-.034.918-.034.187 0 .629.017 1.07.034l.63.017.34.017c.323.017.544.034.68.034 1.955 0 4.522-1.581 4.522-3.961Zm-6.41 3.162.868-5.083h1.445c1.75 0 2.6.714 2.6 2.193 0 1.751-1.24 3.009-2.94 3.009-.918 0-1.275-.068-1.972-.119Zm3.163-10.438c1.377 0 2.057.612 2.057 1.887 0 1.785-1.258 2.856-3.366 2.856h-.884l.833-4.658c.272 0 .969-.085 1.36-.085Z"/><path fill="#000" stroke="#000" stroke-width=".136" d="M70.227 128.99c0 .272-.255.425-.731.459l-.748.051v.476c1.734-.051 1.734-.051 2.074-.051s.34 0 2.074.051v-.476l-.442-.051c-.8-.119-.816-.119-.952-.884l-1.48-10.625h-.781L62.9 128.021c-.612.952-.918 1.224-1.496 1.36l-.34.085v.51c1.564-.051 1.564-.051 1.904-.051.323 0 .357 0 1.819.051v-.476l-.884-.051c-.272-.017-.527-.17-.527-.323 0-.136.119-.374.442-.935l1.734-2.975h4.182l.425 3.196v.051c0 .034.068.289.068.527Zm-1.207-9.282.629 4.896h-3.672Z"/><path fill="#900" stroke="#900" stroke-width=".136" d="M117.781 126.066c0-1.87-1.428-2.142-2.822-2.346.969-.34 1.394-.544 1.921-1.02.782-.663 1.173-1.462 1.173-2.329 0-1.394-.986-2.21-2.686-2.21-.034 0-.204 0-.459.017l-1.071.017c-.204.017-.816.017-1.02.017-.323 0-.85-.017-1.683-.034l-.884-.017-.051.476.901.034c.408.017.595.153.595.459 0 .238-.068.782-.153 1.292l-1.479 8.568c-.068.306-.272.425-.986.544l-.085.442.629-.017c.459-.034.714-.034.918-.034.187 0 .629.017 1.071.034l.629.017.34.017c.323.017.544.034.68.034 1.955 0 4.522-1.581 4.522-3.961Zm-6.409 3.162.867-5.083h1.445c1.751 0 2.601.714 2.601 2.193 0 1.751-1.241 3.009-2.941 3.009-.918 0-1.275-.068-1.972-.119Zm3.162-10.438c1.377 0 2.057.612 2.057 1.887 0 1.785-1.258 2.856-3.366 2.856h-.884l.833-4.658c.272 0 .969-.085 1.36-.085Zm-97.622-12.134 1.802-.068c1.054 0 1.734.153 1.751.408l.136 1.513h.408c.051-1.071.17-1.938.357-2.584-.374-.034-.85-.051-1.139-.051l-.697.017-2.805.034h-.493c-.425 0-1.105-.017-1.751-.034l-.833-.017-.051.476.952.034c.408.017.595.17.595.459 0 .238-.068.782-.153 1.292l-1.275 7.378c-.289 1.564-.289 1.58-.986 1.649l-.612.05-.068.477.578-.017c.68-.017 1.224-.034 1.581-.034.306 0 .799.017 1.462.034l.884.017.051-.476-1.088-.051c-.459-.017-.612-.153-.612-.493 0-.102.017-.29.034-.357l.612-3.791h1.989c.459 0 .986.017 1.802.05l.442.018.323-.765-.068-.12a70 70 0 0 1-3.723.103h-.629l.782-4.607c.051-.272.068-.357.153-.544Z"/><svg width="10.288" height="10" x="12.05" y="94.638" overflow="visible"><path d="M10.29 4.85 7.14 1.53l-.49.52 1.93 2.33h-.15v.9h.15L6.65 7.61l.49.52zm-8.61.38h8.15v-.9H1.68z" style="fill:#900;fill-opacity:1;stroke-width:1px;stroke:none;stroke-opacity:1"/></svg><path fill="#900" stroke="#900" stroke-width=".095" d="M28.735 122.683c0 .19-.179.297-.512.321l-.524.036v.333c1.214-.035 1.214-.035 1.452-.035s.238 0 1.452.035v-.333l-.31-.036c-.559-.083-.57-.083-.666-.618l-1.035-7.438h-.547l-4.44 7.057c-.428.666-.642.857-1.046.952l-.238.06v.356c1.094-.035 1.094-.035 1.332-.035.227 0 .25 0 1.274.035v-.333l-.619-.036c-.19-.012-.369-.119-.369-.226 0-.095.083-.262.31-.654l1.213-2.083h2.928l.297 2.237v.036c0 .024.048.202.048.369Zm-.845-6.497.44 3.427h-2.57Zm9.496 4.45c0-1.309-1-1.5-1.975-1.642.678-.238.975-.38 1.344-.714.548-.464.821-1.023.821-1.63 0-.976-.69-1.547-1.88-1.547-.024 0-.143 0-.321.012l-.75.012c-.143.011-.57.011-.714.011-.226 0-.595-.011-1.178-.023l-.619-.012-.035.333.63.024c.286.012.417.107.417.321 0 .167-.048.547-.107.904l-1.036 5.998c-.047.214-.19.297-.69.38l-.06.31.441-.012c.321-.023.5-.023.643-.023.13 0 .44.011.75.023l.44.012.238.012c.226.012.38.024.476.024 1.368 0 3.165-1.107 3.165-2.773ZM32.9 122.85l.607-3.558h1.011c1.226 0 1.82.5 1.82 1.535 0 1.225-.868 2.106-2.058 2.106-.642 0-.892-.048-1.38-.083Zm2.213-7.307c.964 0 1.44.428 1.44 1.32 0 1.25-.88 2-2.356 2h-.619l.583-3.26c.19 0 .678-.06.952-.06Z"/><path fill="#000" stroke="#000" stroke-width=".136" d="m146.412 106.656 1.802-.068c1.054 0 1.734.153 1.751.408l.136 1.513h.408c.051-1.071.17-1.938.357-2.584-.374-.034-.85-.051-1.139-.051l-.697.017-2.805.034h-.493c-.425 0-1.105-.017-1.751-.034l-.833-.017-.051.476.952.034c.408.017.595.17.595.459 0 .238-.068.782-.153 1.292l-1.275 7.378c-.289 1.564-.289 1.58-.986 1.649l-.612.05-.068.477.578-.017c.68-.017 1.224-.034 1.581-.034.306 0 .799.017 1.462.034l.884.017.051-.476-1.088-.051c-.459-.017-.612-.153-.612-.493 0-.102.017-.29.034-.357l.612-3.791h1.989c.459 0 .986.017 1.802.05l.442.018.323-.765-.068-.12a70 70 0 0 1-3.723.103h-.629l.782-4.607c.051-.272.068-.357.153-.544Z"/><svg width="10.288" height="10" x="141.55" y="94.638" overflow="visible"><path d="M10.29 4.85 7.14 1.53l-.49.52 1.93 2.33h-.15v.9h.15L6.65 7.61l.49.52zm-8.61.38h8.15v-.9H1.68z" style="fill:#000;fill-opacity:1;stroke-width:1px;stroke:none;stroke-opacity:1"/></svg><path fill="#000" stroke="#000" stroke-width=".095" d="M158.235 122.683c0 .19-.179.297-.512.321l-.524.036v.333c1.214-.035 1.214-.035 1.452-.035s.238 0 1.452.035v-.333l-.31-.036c-.559-.083-.57-.083-.666-.618l-1.035-7.438h-.547l-4.44 7.057c-.428.666-.642.857-1.046.952l-.238.06v.356c1.094-.035 1.094-.035 1.332-.035.227 0 .25 0 1.274.035v-.333l-.619-.036c-.19-.012-.369-.119-.369-.226 0-.095.083-.262.31-.654l1.213-2.083h2.928l.297 2.237v.036c0 .024.048.202.048.369Zm-.845-6.497.44 3.427h-2.57Zm9.496 4.45c0-1.309-1-1.5-1.975-1.642.678-.238.975-.38 1.344-.714.548-.464.821-1.023.821-1.63 0-.976-.69-1.547-1.88-1.547-.024 0-.143 0-.321.012l-.75.012c-.143.011-.57.011-.714.011-.226 0-.595-.011-1.178-.023l-.619-.012-.035.333.63.024c.286.012.417.107.417.321 0 .167-.048.547-.107.904l-1.036 5.998c-.047.214-.19.297-.69.38l-.06.31.441-.012c.321-.023.5-.023.643-.023.13 0 .44.011.75.023l.44.012.238.012c.226.012.38.024.476.024 1.368 0 3.165-1.107 3.165-2.773Zm-4.486 2.214.607-3.558h1.011c1.226 0 1.82.5 1.82 1.535 0 1.225-.868 2.106-2.058 2.106-.642 0-.892-.048-1.38-.083Zm2.213-7.307c.964 0 1.44.428 1.44 1.32 0 1.25-.88 2-2.356 2h-.619l.583-3.26c.19 0 .678-.06.952-.06Z"/></svg></svg>