<svg xmlns="http://www.w3.org/2000/svg" width="178.6" height="112.4" style="width:178.60000610351562px;height:112.4000015258789px;background:#fff;fill:none"><svg xmlns="http://www.w3.org/2000/svg"/><svg xmlns="http://www.w3.org/2000/svg" class="role-diagram-draw-area"><g class="shapes-region" style="stroke:#000;fill:none"><g class="composite-shape"><defs><pattern id="_pgfbj4ias08p" width="11.3" height="11.3" x="0" y="0" patternTransform="rotate(45 0 0)" patternUnits="userSpaceOnUse"><path d="M0 0v11.3M5.7 0v11.3M11.3 0v11.3" style="stroke:#eee;stroke-opacity:1;stroke-width:1;fill:none"/></pattern></defs><path d="M-29 73.3h153v40H-29Z" class="real" style="stroke-width:1;stroke:#000;fill:url(#_pgfbj4ias08p);fill-opacity:1"/></g><g class="composite-shape"><defs><pattern id="_pgfw9nfstvyl" width="11.3" height="11.3" x="0" y="0" patternTransform="rotate(45 0 0)" patternUnits="userSpaceOnUse"><path d="M0 0v11.3M5.7 0v11.3M11.3 0v11.3" style="stroke:#f5eaea;stroke-opacity:1;stroke-width:1;fill:none"/></pattern></defs><path d="M40.5 12h61.3v61.2H40.5Z" class="real" style="stroke-width:1;stroke:#900;stroke-opacity:1;fill:url(#_pgfw9nfstvyl);fill-opacity:1"/></g><g class="arrow-line"><path d="M60.2 73.5V93" class="connection real" style="stroke:#900;stroke-opacity:1;stroke-width:1;fill:none;fill-opacity:1"/><path fill="#900" stroke="none" d="M10.7-5.1 0 0l10.7 5.2L7.1 0Z" style="stroke:none;fill:#900;stroke-width:1" transform="rotate(-90 78.1 18)"/></g><g class="arrow-line"><path d="M81 53.6v19.6" class="connection real" style="stroke:#900;stroke-opacity:1;stroke-width:1;fill:none;fill-opacity:1"/><path fill="#900" stroke="none" d="M10.7-5.1 0 0l10.7 5.2L7.1 0Z" style="stroke:none;fill:#900;stroke-width:1" transform="rotate(90 15.2 65.8)"/></g><g class="composite-shape"><path d="M138.9 53.7a1.4 1.4 0 1 1 2.8 0 1.4 1.4 0 0 1-2.8 0Z" class="real" style="stroke-width:1;stroke:#000;fill:#000;fill-opacity:1"/></g><g class="composite-shape"><path d="M160.6 54.4a1.4 1.4 0 1 1 2.8 0 1.4 1.4 0 0 1-2.8 0Z" class="real" style="stroke-width:1;stroke:#000;fill:#000;fill-opacity:1"/></g><g class="arrow-line"><path d="M140.3 32.7v19.6" class="connection real" style="stroke:#900;stroke-opacity:1;stroke-width:1;fill:none;fill-opacity:1"/><path fill="#900" stroke="none" d="M10.7-5.1 0 0l10.7 5.2L7.1 0Z" style="stroke:none;fill:#900;stroke-width:1" transform="rotate(90 55.3 85)"/></g><g class="arrow-line"><path d="M162 55.8v19.6" class="connection real" style="stroke:#900;stroke-opacity:1;stroke-width:1;fill:none;fill-opacity:1"/><path fill="#900" stroke="none" d="M10.7-5.1 0 0l10.7 5.2L7.1 0Z" style="stroke:none;fill:#900;stroke-width:1" transform="rotate(-90 120.2 -41.8)"/></g></g></svg><svg xmlns="http://www.w3.org/2000/svg" xmlns:xlink="http://www.w3.org/1999/xlink" width="177" height="110.8" style="width:177px;height:110.80000305175781px;font-family:Asana-Math,Asana;background:#fff"><path fill="#900" stroke="#900" stroke-width=".1" d="M72.5 90.4h1.8q1.6 0 1.7.4l.2 1.5h.4q0-1.7.3-2.6h-7.7v.4h.9q.6 0 .6.5t-.2 1.3l-1.2 7.4c-.3 1.5-.3 1.6-1 1.6h-.6l-.1.6h.6l1.6-.1h2.4v-.4H71q-.7 0-.6-.6v-.3l.6-3.8h4.2l.4-.7-.1-.1h-4.4L72 91q0-.4.2-.6Z"/><svg width="10.3" height="10" x="67.6" y="78.4" overflow="visible"><path d="M10.3 4.9 7 1.4l-.5.5 2 2.4h-.2v.9h.2l-2 2.3.5.5zm-8.6.3h8.1v-.9H1.7z" style="fill:#900;fill-opacity:1;stroke-width:1px;stroke:none;stroke-opacity:1"/></svg><path fill="#900" stroke="#900" stroke-width=".1" d="m80.3 98.5-.1-.1q-.7.4-2 .5v.2h.6q.4 0 .4.3v.3l-1.2 6.6q0 .9 1.2 1 .7 0 1.6-.7a5 5 0 0 0 1.9-4q0-.7-.3-1 0-.3-.4-.2t-1 .2q-.8.4-1.7 1.6Zm1 3.6q.6 0 .5.8 0 1.3-.6 2.6-.5 1.2-1.5 1.2-.8 0-.8-.8c0-.4.1-2 1.1-3.1q.7-.6 1.4-.7Zm2 3.2q0 2 1.5 2a3 3 0 0 0 1.9-.9q1.1-1.2 1.2-3.2 0-1.8-1.6-1.8c-1.2 0-3 1.2-3 3.9Zm2.6-3.5q1 0 1.1 1.6c0 1-.3 2.4-.9 3q-.3.3-.9.4-1 0-1-1.5c0-1.3.4-2.8 1-3.3zm2.5 5.3.5.1q.7 0 1.3-.9l.9-1.4v.9q.3 1.5 1 1.4l1-.5.6-.5-.2-.3q-.6.6-.9.6t-.4-.4l-.3-1-.2-1.2.4-.6q.8-1.1 1.2-1 .3 0 .4.2h.2l.2-1-.4-.1q-.7 0-1.7 1.5l-.4.6v-.5q-.3-1.7-1.3-1.6-.5 0-.6.2l-.7 1 .2.1q.5-.6.8-.6.6 0 .9 1.7v.7l-.4.8q-.8 1.2-1.2 1.2l-.4-.1-.1-.4h-.2zM56.5 30.4h1.8q1.6 0 1.7.4l.2 1.5h.4q0-1.7.3-2.6h-7.7v.4h.9q.6 0 .6.5t-.2 1.3l-1.2 7.4c-.3 1.5-.3 1.6-1 1.6h-.6l-.1.6h.6l1.6-.1h2.4V41H55q-.7 0-.6-.6v-.3l.6-3.8h4.2l.4-.7-.1-.1h-4.4L56 31q0-.4.2-.6Z"/><svg width="10.3" height="10" x="51.6" y="18.4" overflow="visible"><path d="M10.3 4.9 7 1.4l-.5.5 2 2.4h-.2v.9h.2l-2 2.3.5.5zm-8.6.3h8.1v-.9H1.7z" style="fill:#900;fill-opacity:1;stroke-width:1px;stroke:none;stroke-opacity:1"/></svg><path fill="#900" stroke="#900" stroke-width=".1" d="M65.6 41.9h-.1l.2-1.3q.3-1.5 1-1.5t1 .5l.3-.9v-.2l-.8-.1h-.4l-1.5 1.2q-.4.4-.5 1.3l-.2 1-1 .4-.1.2h1l-.1.7c-.4 2.3-.8 4.5-1.1 5.4q-.4 1-1 1-.4 0-.6-.3h-.2l-.3 1h.5q.6 0 1.6-.8c.8-1 1-2.2 2-7h1.3l.2-.6v-.1zm5.5-3.4-.2-.1q-.7.4-1.9.5v.2h.5q.5 0 .5.3v.3c-.2.7-1 5.2-1.3 5.8l-.2 1.2q0 .5.4.5.3.1 1.9-1.1l-.1-.2-.4.2-.7.3-.1-.2v-.3Zm.5 6.8q0 2 1.5 2a3 3 0 0 0 2-.9q1-1.2 1.2-3.2 0-1.8-1.6-1.8c-1.3 0-3.1 1.2-3.1 3.9Zm2.6-3.5q1.2 0 1.2 1.6c0 1-.4 2.4-1 3q-.2.4-.8.4-1 0-1.1-1.5c0-1.3.4-2.8 1-3.3zm2.7 3.5q0 2 1.5 2a3 3 0 0 0 1.9-.9q1.1-1.2 1.2-3.2 0-1.8-1.5-1.8c-1.3 0-3.1 1.2-3.1 3.9Zm2.6-3.5q1 0 1.1 1.6c0 1-.3 2.4-.9 3q-.3.4-.8.4-1 0-1.1-1.5c0-1.3.4-2.8 1-3.3zm6.8 1 .2-1.4h-.2q-.6 0-1.2.9-.8 1-1.1 1.8l.3-1.9.1-.5q0-.3-.3-.3t-1.5.8l-.4.3.1.2.4-.2.6-.3.2.3c0 .6-.5 3.1-1 4.6l.1.1.6-.1h.2l.3-1.5q.3-1.4 1-2.3t1-.8q.3 0 .4.3Z"/><path fill="#000" stroke="#000" stroke-width=".1" d="M138.6 62.1c0-1-.8-1-1.5-1.2q.6-.1 1-.5.6-.5.6-1.1 0-1-1.4-1.1h-2.5v.2h.4q.3 0 .3.2v.7l-.8 4.3q0 .2-.5.2v.3h2.1c1 0 2.3-.8 2.3-2Zm-3.3 1.6.5-2.6h.7q1.3 0 1.3 1.1 0 1.5-1.5 1.5zm1.6-5.2q1 0 1 1 0 1.3-1.6 1.3h-.5l.4-2.3zm2.4 4.2q0 1.5 1 1.4.8 0 1.4-.5.9-.9 1-2.4 0-1.2-1.2-1.3c-.9 0-2.2.9-2.2 2.8Zm1.9-2.4q.8 0 .8 1 0 1.5-.7 2.2-.2.3-.6.3-.8 0-.8-1 0-1.6.8-2.4zM143 64l.3.1q.4 0 1-.6l.6-1v.6q.3 1 .7 1l.7-.4.4-.3v-.2l-.7.4q-.3 0-.3-.3l-.3-.7-.1-.8.3-.5q.5-.7.9-.7.2 0 .3.2l.2-.8h-.3q-.4-.1-1.2 1l-.3.5v-.4q-.2-1.3-.9-1.2l-.4.2-.5.7.1.1q.4-.4.6-.4.5 0 .6 1.2l.1.5-.3.5q-.6.9-1 .9l-.2-.1v-.2h-.2zm12.2-21.3h1q.8 0 .8.2v.7h.3q0-.8.2-1.3h-3.9v.2h.4q.4 0 .3.3v.6l-.7 3.7q0 1-.5.8h-.3v.3h2.3V48h-.6q-.3 0-.3-.3v-.2l.4-1.9h2.1l.1-.3h-2.2l.4-2.3v-.3Zm4.5-.7h-.2l-1.3.3v.2h.4q.3 0 .3.2v.2l-1 4.2v.8q0 .4.2.4t1.3-.8v-.2l-.3.1-.5.3-.1-.2v-.2Zm.3 4.9q0 1.4 1.1 1.4.8 0 1.4-.6.8-1 .9-2.3t-1.2-1.3c-.8 0-2.2.8-2.2 2.8Zm2-2.5q.7 0 .7 1.1 0 1.3-.6 2.2l-.7.2q-.7 0-.7-1 0-1.6.7-2.4zm1.8 2.5q0 1.4 1 1.4.8 0 1.4-.6 1-1 1-2.3T166 44c-.9 0-2.2.8-2.2 2.8Zm1.9-2.5q.8 0 .8 1.1 0 1.3-.7 2.2l-.6.2q-.8 0-.8-1 .1-1.6.8-2.4zm4.8.7.2-1h-.2q-.4 0-.8.6l-.8 1.3.2-1.3v-.4l-.1-.2-1.1.6-.3.2v.1l.4-.1.4-.2.1.2c0 .5-.4 2.2-.7 3.3h.7l.2-1.1q.1-1 .7-1.6.4-.6.7-.6t.3.2Z"/></svg></svg>