<svg xmlns="http://www.w3.org/2000/svg" xmlns:xlink="http://www.w3.org/1999/xlink" x="0" y="0" width="224.60000610351562" height="122.7249984741211" style="
        width:224.60000610351562px;
        height:122.7249984741211px;
        background: #FFF;
        fill: none;
">
        <svg xmlns="http://www.w3.org/2000/svg"/>
        
        <svg xmlns="http://www.w3.org/2000/svg" class="role-diagram-draw-area"><g class="shapes-region" style="stroke: black; fill: none;"><g class="composite-shape"><defs><!-- react-text: 10584 --> <!-- /react-text --><pattern id="_pgfh59d96co4" x="0" y="0" width="11.313708498984761" height="11.313708498984761" patternTransform="rotate(45,0,0)" patternUnits="userSpaceOnUse"><path d="M0,0 L0,11.313708498984761" style="stroke: rgb(238, 238, 238); stroke-opacity: 1; stroke-width: 1; fill: none;"/><path d="M5.656854249492381,0 L5.656854249492381,11.313708498984761" style="stroke: rgb(238, 238, 238); stroke-opacity: 1; stroke-width: 1; fill: none;"/><path d="M11.313708498984761,0 L11.313708498984761,11.313708498984761" style="stroke: rgb(238, 238, 238); stroke-opacity: 1; stroke-width: 1; fill: none;"/></pattern></defs><path class="real" d=" M-18.3,59.22 L138.2,59.22 L138.2,148.72 L-18.3,148.72 Z" style="stroke-width: 1; stroke: rgb(0, 0, 0); fill: url(&quot;#_pgfh59d96co4&quot;); fill-opacity: 1;"/></g><g class="arrow-line"><path class="connection real" stroke-dasharray="" d="  M173.85,7.08 L173.85,59.84" style="stroke: rgb(153, 0, 0); stroke-opacity: 1; stroke-width: 2; fill: none; fill-opacity: 1;"/><g stroke="none" fill="rgb(153,0,0)" fill-opacity="1" transform="matrix(6.123233995736766e-17,1,-1,6.123233995736766e-17,173.84999389648436,3.080347292490103)" style="stroke: none; fill: rgb(153, 0, 0); stroke-width: 2;"><path d=" M13.4,-6.43 L0,0 L13.4,6.44 L8.9,0 Z"/></g></g><g class="arrow-line"><path class="connection real" stroke-dasharray="" d="  M173.85,59.84 L173.85,112.59" style="stroke: rgb(153, 0, 0); stroke-opacity: 1; stroke-width: 2; fill: none; fill-opacity: 1;"/><g stroke="none" fill="rgb(153,0,0)" fill-opacity="1" transform="matrix(-1.8369701987210297e-16,-1,1,-1.8369701987210297e-16,173.84999389648436,116.59165445963541)" style="stroke: none; fill: rgb(153, 0, 0); stroke-width: 2;"><path d=" M13.4,-6.43 L0,0 L13.4,6.44 L8.9,0 Z"/></g></g><g class="composite-shape"><defs><!-- react-text: 10602 --> <!-- /react-text --><pattern id="_pgf3oneagwxz" x="0" y="0" width="11.313708498984761" height="11.313708498984761" patternTransform="rotate(45,0,0)" patternUnits="userSpaceOnUse"><path d="M0,0 L0,11.313708498984761" style="stroke: rgb(0, 0, 0); stroke-opacity: 1; stroke-width: 1; fill: none;"/><path d="M5.656854249492381,0 L5.656854249492381,11.313708498984761" style="stroke: rgb(0, 0, 0); stroke-opacity: 1; stroke-width: 1; fill: none;"/><path d="M11.313708498984761,0 L11.313708498984761,11.313708498984761" style="stroke: rgb(0, 0, 0); stroke-opacity: 1; stroke-width: 1; fill: none;"/></pattern></defs><path class="real" d=" M46.2,5.25 L101.25,5.25 L101.25,59.22 L46.2,59.22 Z" style="stroke-width: 1; stroke: rgb(0, 0, 0); fill: url(&quot;#_pgf3oneagwxz&quot;); fill-opacity: 1;"/></g><g class="arrow-line"><path class="connection real" stroke-dasharray="" d="  M86.31,59.57 L86.31,112.32" style="stroke: rgb(153, 0, 0); stroke-opacity: 1; stroke-width: 2; fill: none; fill-opacity: 1;"/><g stroke="none" fill="rgb(153,0,0)" fill-opacity="1" transform="matrix(-1.8369701987210297e-16,-1,1,-1.8369701987210297e-16,86.30904599144344,116.32498779296878)" style="stroke: none; fill: rgb(153, 0, 0); stroke-width: 2;"><path d=" M13.4,-6.43 L0,0 L13.4,6.44 L8.9,0 Z"/></g></g><g class="arrow-line"><path class="connection real" stroke-dasharray="" d="  M60.98,63.56 L60.98,74.51 L60.98,116.32" style="stroke: rgb(153, 0, 0); stroke-opacity: 1; stroke-width: 2; fill: none; fill-opacity: 1;"/><g stroke="none" fill="rgb(153,0,0)" fill-opacity="1" transform="matrix(6.123233995736766e-17,1,-1,6.123233995736766e-17,60.975712658110105,59.56368062582342)" style="stroke: none; fill: rgb(153, 0, 0); stroke-width: 2;"><path d=" M13.4,-6.43 L0,0 L13.4,6.44 L8.9,0 Z"/></g></g><g class="composite-shape"><path class="real" d=" M171.7,59.84 C171.7,58.65 172.66,57.69 173.85,57.69 C175.04,57.69 176,58.65 176,59.84 C176,61.02 175.04,61.99 173.85,61.99 C172.66,61.99 171.7,61.02 171.7,59.84 Z" style="stroke-width: 1; stroke: rgb(0, 0, 0); fill: rgb(0, 0, 0); fill-opacity: 1;"/></g><g/></g><g/><g/><g/></svg>
        <svg xmlns="http://www.w3.org/2000/svg" xmlns:xlink="http://www.w3.org/1999/xlink" width="223" height="121.125" style="width:223px;height:121.125px;font-family:Asana-Math, Asana;background:#FFF;"><g><g><g><g><g><g><g transform="matrix(1,0,0,1,94.4625244140625,90.47499084472656)"><path transform="matrix(0.017,0,0,-0.017,0,0)" d="M286 646L392 650C454 650 494 641 495 626L503 537L527 537C530 600 537 651 548 689C526 691 498 692 481 692L440 691L275 689L246 689C221 689 181 690 143 691L94 692L91 664L147 662C171 661 182 652 182 635C182 621 178 589 173 559L98 125C81 33 81 32 40 28L4 25L0 -3L34 -2C74 -1 106 0 127 0C145 0 174 -1 213 -2L265 -3L268 25L204 28C177 29 168 37 168 57C168 63 169 74 170 78L206 301L323 301C350 301 381 300 429 298L455 297L474 342L470 349C389 345 329 343 251 343L214 343L260 614C263 630 264 635 269 646Z" stroke="rgb(153,0,0)" stroke-opacity="1" stroke-width="8" fill="rgb(153,0,0)" fill-opacity="1"></path></g></g></g></g><svg x="94.4625244140625" overflow="visible" y="67.47499084472656" height="10" width="10.287500381469727"><path d=" M 10.29 4.85 l -3.15 -3.32 l -0.49 0.52 l 1.93 2.33 h -0.15 v 0.90 h 0.15 l -1.93 2.33 l 0.49 0.52 z  M 1.68 5.23 h 8.15 v -0.90 h -8.15 z" style="fill:rgb(153,0,0);fill-opacity:1;stroke-width:1px;stroke:none;stroke-opacity:1;"></path></svg></g><g><g><g><g><g transform="matrix(1,0,0,1,104.4000244140625,96.17499389648438)"><path transform="matrix(0.0119,0,0,-0.0119,0,0)" d="M235 722L223 733C171 707 135 698 63 691L59 670L107 670C131 670 141 663 141 646C141 639 140 628 139 622L38 71C37 68 37 64 37 61C37 22 85 -11 140 -11C177 -11 228 8 271 39C367 107 433 244 433 376C433 414 424 453 412 468C405 477 392 482 377 482C353 482 323 474 295 460C244 433 211 403 149 324ZM322 424C348 424 361 401 361 352C361 288 340 202 310 137C277 68 237 36 183 36C137 36 112 59 112 101C112 135 127 276 208 361C241 395 293 424 322 424ZM479 152C479 46 524 -11 607 -11C662 -11 722 15 767 57C829 116 873 230 873 331C873 425 823 482 740 482C636 482 479 382 479 152ZM703 444C764 444 797 399 797 315C797 219 766 113 722 60C704 39 678 27 647 27C589 27 555 72 555 151C555 264 594 387 643 427C656 438 679 444 703 444ZM914 1C929 -7 945 -11 957 -11C990 -11 1029 18 1060 65L1136 182L1147 113C1160 28 1183 -11 1219 -11C1241 -11 1273 6 1305 35L1354 79L1345 98C1309 68 1284 53 1268 53C1253 53 1240 63 1230 83C1221 102 1210 139 1205 168L1187 269L1222 318C1269 383 1296 406 1327 406C1343 406 1355 398 1360 383L1374 387L1389 472C1377 479 1368 482 1359 482C1319 482 1279 446 1217 354L1180 299L1174 347C1162 446 1135 482 1076 482C1050 482 1028 474 1019 461L961 378L978 368C1008 402 1028 416 1047 416C1080 416 1102 375 1119 277L1130 215L1090 153C1047 86 1013 54 985 54C970 54 959 58 957 63L946 91L926 88C926 53 918 27 914 1Z" stroke="rgb(153,0,0)" stroke-opacity="1" stroke-width="8" fill="rgb(153,0,0)" fill-opacity="1"></path></g></g></g></g></g></g></g><g><g><g><g><g><g><g transform="matrix(1,0,0,1,35.79998779296875,88.375)"><path transform="matrix(0.017,0,0,-0.017,0,0)" d="M582 103L237 692L75 692L70 664L105 662C150 660 184 615 185 606L92 102C80 40 74 32 38 28L7 25L2 -3L113 0C125 0 126 0 223 -3L228 25L186 28C146 31 137 39 137 72C137 80 138 91 140 102L220 566L558 -11L608 -11L702 542C723 655 725 659 762 662L799 664L802 691L589 692L584 664L631 662C657 661 667 654 667 638C667 631 584 116 582 103Z" stroke="rgb(153,0,0)" stroke-opacity="1" stroke-width="8" fill="rgb(153,0,0)" fill-opacity="1"></path></g></g></g></g><svg x="35.79998779296875" overflow="visible" y="65.375" height="10" width="14.0625"><path d=" M 14.06 4.85 l -3.15 -3.32 l -0.49 0.52 l 1.93 2.33 h -0.15 v 0.90 h 0.15 l -1.93 2.33 l 0.49 0.52 z  M 1.68 5.23 h 11.92 v -0.90 h -11.92 z" style="fill:rgb(153,0,0);fill-opacity:1;stroke-width:1px;stroke:none;stroke-opacity:1;"></path></svg></g></g></g><g><g><g><g><g><g><g transform="matrix(1,0,0,1,184.29998779296875,27.42498779296875)"><path transform="matrix(0.017,0,0,-0.017,0,0)" d="M582 103L237 692L75 692L70 664L105 662C150 660 184 615 185 606L92 102C80 40 74 32 38 28L7 25L2 -3L113 0C125 0 126 0 223 -3L228 25L186 28C146 31 137 39 137 72C137 80 138 91 140 102L220 566L558 -11L608 -11L702 542C723 655 725 659 762 662L799 664L802 691L589 692L584 664L631 662C657 661 667 654 667 638C667 631 584 116 582 103Z" stroke="rgb(153,0,0)" stroke-opacity="1" stroke-width="8" fill="rgb(153,0,0)" fill-opacity="1"></path></g></g></g></g><svg x="184.29998779296875" overflow="visible" y="4.42498779296875" height="10" width="14.0625"><path d=" M 14.06 4.85 l -3.15 -3.32 l -0.49 0.52 l 1.93 2.33 h -0.15 v 0.90 h 0.15 l -1.93 2.33 l 0.49 0.52 z  M 1.68 5.23 h 11.92 v -0.90 h -11.92 z" style="fill:rgb(153,0,0);fill-opacity:1;stroke-width:1px;stroke:none;stroke-opacity:1;"></path></svg></g></g></g><g><g><g><g><g><g><g transform="matrix(1,0,0,1,185.4625244140625,103.92500305175781)"><path transform="matrix(0.017,0,0,-0.017,0,0)" d="M286 646L392 650C454 650 494 641 495 626L503 537L527 537C530 600 537 651 548 689C526 691 498 692 481 692L440 691L275 689L246 689C221 689 181 690 143 691L94 692L91 664L147 662C171 661 182 652 182 635C182 621 178 589 173 559L98 125C81 33 81 32 40 28L4 25L0 -3L34 -2C74 -1 106 0 127 0C145 0 174 -1 213 -2L265 -3L268 25L204 28C177 29 168 37 168 57C168 63 169 74 170 78L206 301L323 301C350 301 381 300 429 298L455 297L474 342L470 349C389 345 329 343 251 343L214 343L260 614C263 630 264 635 269 646Z" stroke="rgb(153,0,0)" stroke-opacity="1" stroke-width="8" fill="rgb(153,0,0)" fill-opacity="1"></path></g></g></g></g><svg x="185.4625244140625" overflow="visible" y="80.92498779296875" height="10" width="10.287500381469727"><path d=" M 10.29 4.85 l -3.15 -3.32 l -0.49 0.52 l 1.93 2.33 h -0.15 v 0.90 h 0.15 l -1.93 2.33 l 0.49 0.52 z  M 1.68 5.23 h 8.15 v -0.90 h -8.15 z" style="fill:rgb(153,0,0);fill-opacity:1;stroke-width:1px;stroke:none;stroke-opacity:1;"></path></svg></g><g><g><g><g><g transform="matrix(1,0,0,1,195.4000244140625,109.62499084472657)"><path transform="matrix(0.0119,0,0,-0.0119,0,0)" d="M235 722L223 733C171 707 135 698 63 691L59 670L107 670C131 670 141 663 141 646C141 639 140 628 139 622L38 71C37 68 37 64 37 61C37 22 85 -11 140 -11C177 -11 228 8 271 39C367 107 433 244 433 376C433 414 424 453 412 468C405 477 392 482 377 482C353 482 323 474 295 460C244 433 211 403 149 324ZM322 424C348 424 361 401 361 352C361 288 340 202 310 137C277 68 237 36 183 36C137 36 112 59 112 101C112 135 127 276 208 361C241 395 293 424 322 424ZM479 152C479 46 524 -11 607 -11C662 -11 722 15 767 57C829 116 873 230 873 331C873 425 823 482 740 482C636 482 479 382 479 152ZM703 444C764 444 797 399 797 315C797 219 766 113 722 60C704 39 678 27 647 27C589 27 555 72 555 151C555 264 594 387 643 427C656 438 679 444 703 444ZM914 1C929 -7 945 -11 957 -11C990 -11 1029 18 1060 65L1136 182L1147 113C1160 28 1183 -11 1219 -11C1241 -11 1273 6 1305 35L1354 79L1345 98C1309 68 1284 53 1268 53C1253 53 1240 63 1230 83C1221 102 1210 139 1205 168L1187 269L1222 318C1269 383 1296 406 1327 406C1343 406 1355 398 1360 383L1374 387L1389 472C1377 479 1368 482 1359 482C1319 482 1279 446 1217 354L1180 299L1174 347C1162 446 1135 482 1076 482C1050 482 1028 474 1019 461L961 378L978 368C1008 402 1028 416 1047 416C1080 416 1102 375 1119 277L1130 215L1090 153C1047 86 1013 54 985 54C970 54 959 58 957 63L946 91L926 88C926 53 918 27 914 1Z" stroke="rgb(153,0,0)" stroke-opacity="1" stroke-width="8" fill="rgb(153,0,0)" fill-opacity="1"></path></g></g></g></g></g></g></g></svg>
</svg>
