<svg xmlns="http://www.w3.org/2000/svg" xmlns:xlink="http://www.w3.org/1999/xlink" x="0" y="0" width="161.60000610351562" height="240.1999969482422" style="
        width:161.60000610351562px;
        height:240.1999969482422px;
        background: #FFF;
        fill: none;
">
        <svg xmlns="http://www.w3.org/2000/svg"/>
        
        <svg xmlns="http://www.w3.org/2000/svg" class="role-diagram-draw-area"><g class="shapes-region" style="stroke: black; fill: none;"><g class="composite-shape"><path class="real" d=" M22,45.52 C22,41.75 25.05,38.7 28.82,38.7 L49.28,38.7 C53.05,38.7 56.1,41.75 56.1,45.52 L56.1,125.23 C56.1,129 53.05,132.05 49.28,132.05 L28.82,132.05 C25.05,132.05 22,129 22,125.23 Z" style="stroke-width: 1; stroke: rgb(0, 0, 0); fill: rgb(238, 238, 238); fill-opacity: 1;"/></g><g class="composite-shape"><defs><!-- react-text: 84888 --> <!-- /react-text --><pattern id="_pgf58tp66kg9" x="0" y="0" width="11.313708498984761" height="11.313708498984761" patternTransform="rotate(45,0,0)" patternUnits="userSpaceOnUse"><path d="M0,0 L0,11.313708498984761" style="stroke: rgb(0, 0, 0); stroke-opacity: 1; stroke-width: 1; fill: none;"/><path d="M5.656854249492381,0 L5.656854249492381,11.313708498984761" style="stroke: rgb(0, 0, 0); stroke-opacity: 1; stroke-width: 1; fill: none;"/><path d="M11.313708498984761,0 L11.313708498984761,11.313708498984761" style="stroke: rgb(0, 0, 0); stroke-opacity: 1; stroke-width: 1; fill: none;"/></pattern></defs><path class="real" d=" M-13.5,-24 L373.7,-24 L373.7,16 L-13.5,16 Z" style="stroke-width: 1; stroke: rgb(0, 0, 0); fill: url(&quot;#_pgf58tp66kg9&quot;); fill-opacity: 1;"/></g><g class="composite-shape"><path class="real" d=" M31.05,50.07 C31.05,48.31 32.48,46.87 34.25,46.87 L43.85,46.87 C45.62,46.87 47.05,48.31 47.05,50.07 L47.05,120.67 C47.05,122.44 45.62,123.87 43.85,123.87 L34.25,123.87 C32.48,123.87 31.05,122.44 31.05,120.67 Z" style="stroke-width: 1; stroke: rgb(0, 0, 0); fill: rgb(255, 255, 255); fill-opacity: 1;"/></g><g class="composite-shape"><path class="real" d=" M44.4,47.03 C44.47,47.27 44.5,47.53 44.5,47.81 C44.5,52.81 33.3,52.81 33.3,50.81 C33.3,48.81 44.5,48.81 44.5,53.81 C44.5,58.81 33.3,58.81 33.3,56.81 C33.3,54.81 44.5,54.81 44.5,59.81 C44.5,64.81 33.3,64.81 33.3,62.81 C33.3,60.81 44.5,60.81 44.5,65.81 C44.5,70.81 33.3,70.81 33.3,68.81 C33.3,66.81 44.5,66.81 44.5,71.81 C44.5,76.81 33.3,76.81 33.3,74.81 C33.3,72.81 44.5,72.81 44.5,77.81 C44.5,82.81 33.3,82.81 33.3,80.81 C33.3,78.81 44.5,78.81 44.5,83.81 C44.5,88.81 33.3,88.81 33.3,86.81 C33.3,84.81 44.5,84.81 44.5,89.81 C44.5,94.81 33.3,94.81 33.3,92.81 C33.3,90.81 44.5,90.81 44.5,95.81 C44.5,100.81 33.3,100.81 33.3,98.81 C33.3,96.81 44.5,96.81 44.5,101.81 C44.5,106.81 33.3,106.81 33.3,104.81 C33.3,102.81 44.5,102.81 44.5,107.81 C44.5,112.81 33.3,112.81 33.3,110.81 C33.3,108.81 44.5,108.81 44.5,113.81 C44.5,118.81 33.3,118.81 33.3,116.81 C33.3,114.81 44.5,114.81 44.5,119.81 C44.5,121.87 42.6,123.08 40.37,123.65" style="stroke-width: 1; stroke: rgb(0, 0, 0);"/></g><g class="composite-shape"><path class="real" d=" M25.08,146.89 C27.67,142.35 32.56,139.3 38.16,139.3 C46.49,139.3 53.24,146.05 53.24,154.37 C53.24,162.7 46.49,169.45 38.16,169.45 C34.27,169.45 30.72,167.97 28.05,165.55 L38.16,154.37 Z" style="stroke-width: 1; stroke: none; fill: none; fill-opacity: 1;"/><path class="real" d=" M25.08,146.89 C27.67,142.35 32.56,139.3 38.16,139.3 C46.49,139.3 53.24,146.05 53.24,154.37 C53.24,162.7 46.49,169.45 38.16,169.45 C34.27,169.45 30.72,167.97 28.05,165.55" style="stroke-width: 1; stroke: rgb(0, 0, 0); fill: none; fill-opacity: 1;"/></g><g class="arrow-line"><path class="connection real" stroke-dasharray="" d="  M38.75,132.28 L38.75,139.03" style="stroke: rgb(0, 0, 0); stroke-width: 1; fill: none; fill-opacity: 1;"/></g><g class="composite-shape"><path class="real" d=" M13.55,199.85 C13.55,186.04 24.74,174.85 38.55,174.85 C52.36,174.85 63.55,186.04 63.55,199.85 C63.55,213.66 52.36,224.85 38.55,224.85 C24.74,224.85 13.55,213.66 13.55,199.85 Z" style="stroke-width: 1; stroke: rgb(153, 0, 0); stroke-opacity: 1; fill: rgb(153, 0, 0); fill-opacity: 1;"/></g><g class="composite-shape"><path class="real" d=" M33.64,169.94 C33.64,167.22 35.84,165.03 38.55,165.03 C41.26,165.03 43.46,167.22 43.46,169.94 C43.46,172.65 41.26,174.85 38.55,174.85 C35.84,174.85 33.64,172.65 33.64,169.94 Z" style="stroke-width: 1; stroke: rgb(0, 0, 0); fill: none; fill-opacity: 1;"/></g><g class="arrow-line"><path class="connection real" stroke-dasharray="" d="  M38.75,16 L38.75,38.23" style="stroke: rgb(0, 0, 0); stroke-width: 1; fill: none; fill-opacity: 1;"/></g><g class="composite-shape"><path class="real" d=" M93.8,83.68 C93.8,82.51 94.75,81.56 95.92,81.56 C97.09,81.56 98.04,82.51 98.04,83.68 C98.04,84.85 97.09,85.8 95.92,85.8 C94.75,85.8 93.8,84.85 93.8,83.68 Z" style="stroke-width: 1; stroke: rgb(0, 0, 0); fill: rgb(0, 0, 0); fill-opacity: 1;"/></g><g class="arrow-line"><path class="connection real" stroke-dasharray="" d="  M95.92,85.8 L95.92,131.92" style="stroke: rgb(153, 0, 0); stroke-opacity: 1; stroke-width: 1; fill: none; fill-opacity: 1;"/><g stroke="none" fill="rgb(153,0,0)" fill-opacity="1" transform="matrix(-1.8369701987210297e-16,-1,1,-1.8369701987210297e-16,95.91999511718748,134.9199996948242)" style="stroke: none; fill: rgb(153, 0, 0); stroke-width: 1;"><path d=" M10.72,-5.15 L0,0 L10.72,5.15 L7.12,0 Z"/></g></g><g class="arrow-line"><path class="connection real" stroke-dasharray="" d="  M95.92,35.44 L95.92,81.56" style="stroke: rgb(153, 0, 0); stroke-opacity: 1; stroke-width: 1; fill: none; fill-opacity: 1;"/><g stroke="none" fill="rgb(153,0,0)" fill-opacity="1" transform="matrix(6.123233995736766e-17,1,-1,6.123233995736766e-17,95.91999511718748,32.43998870849609)" style="stroke: none; fill: rgb(153, 0, 0); stroke-width: 1;"><path d=" M10.72,-5.15 L0,0 L10.72,5.15 L7.12,0 Z"/></g></g><g/></g><g/><g/><g/></svg>
        <svg xmlns="http://www.w3.org/2000/svg" xmlns:xlink="http://www.w3.org/1999/xlink" width="160" height="238.60000610351562" style="width:160px;height:238.60000610351562px;font-family:Asana-Math, Asana;background:#FFF;"><g><g><g><g transform="matrix(1,0,0,1,31.94378662109375,206.64999389648438)"><path transform="matrix(0.017,0,0,-0.017,0,0)" d="M730 103L704 86C675 67 653 56 643 56C636 56 630 65 630 76C630 86 632 95 637 116L712 413C716 430 719 446 719 454C719 471 709 482 693 482C664 482 626 464 565 421C502 376 467 341 418 272L448 409C452 429 455 444 455 451C455 470 445 482 429 482C399 482 353 460 298 418C254 384 234 363 169 275L202 408C206 424 208 439 208 451C208 470 199 482 185 482C164 482 126 461 52 408L24 388L31 368C68 391 103 414 110 414C121 414 128 404 128 389C128 338 87 145 46 2L49 -9L117 6L139 108C163 219 190 278 245 338C287 384 332 414 360 414C367 414 371 406 371 393C371 358 349 244 308 69L292 2L297 -9L366 6L387 113C403 194 437 269 481 318C536 379 586 414 618 414C626 414 631 405 631 389C631 365 628 351 606 264C566 105 550 84 550 31C550 6 561 -9 580 -9C606 -9 642 12 740 85Z" stroke="rgb(255,255,255)" stroke-opacity="1" stroke-width="8" fill="rgb(255,255,255)" fill-opacity="1"></path></g></g></g></g><g><g><g><g><g><g><g transform="matrix(1,0,0,1,104.60003662109375,144.35000610351562)"><path transform="matrix(0.017,0,0,-0.017,0,0)" d="M167 420C188 420 201 421 226 424C171 350 72 266 72 126C72 44 107 -11 160 -11C224 -11 276 44 350 187C341 143 338 118 338 95C338 32 367 -11 412 -11C546 -11 699 238 699 384C699 441 673 482 637 482C624 482 612 478 604 470L554 423L565 404C574 410 583 413 592 413C619 413 635 390 635 350C635 205 538 39 453 39C424 39 403 79 403 134C403 181 412 247 424 290L476 474L469 482L395 460L366 311C354 249 340 209 311 155C271 80 233 39 203 39C168 39 145 78 145 136C145 255 186 352 285 464L275 482C255 473 242 470 214 470C186 470 144 472 115 475L103 476C97 477 92 477 91 477C79 477 70 475 59 470C45 443 34 407 21 352L43 352L60 394C67 411 87 422 111 422C145 422 128 420 167 420Z" stroke="rgb(153,0,0)" stroke-opacity="1" stroke-width="8" fill="rgb(153,0,0)" fill-opacity="1"></path></g></g></g></g><svg x="104.60003662109375" overflow="visible" y="125.35000610351562" height="10" width="13.112500190734863"><path d=" M 13.11 4.85 l -3.15 -3.32 l -0.49 0.52 l 1.93 2.33 h -0.15 v 0.90 h 0.15 l -1.93 2.33 l 0.49 0.52 z  M 1.68 5.23 h 10.97 v -0.90 h -10.97 z" style="fill:rgb(153,0,0);fill-opacity:1;stroke-width:1px;stroke:none;stroke-opacity:1;"></path></svg></g><g><g><g><g><g transform="matrix(1,0,0,1,117.36248779296875,150.05000915527344)"><path transform="matrix(0.0119,0,0,-0.0119,0,0)" d="M235 722L223 733C171 707 135 698 63 691L59 670L107 670C131 670 141 663 141 646C141 639 140 628 139 622L38 71C37 68 37 64 37 61C37 22 85 -11 140 -11C177 -11 228 8 271 39C367 107 433 244 433 376C433 414 424 453 412 468C405 477 392 482 377 482C353 482 323 474 295 460C244 433 211 403 149 324ZM322 424C348 424 361 401 361 352C361 288 340 202 310 137C277 68 237 36 183 36C137 36 112 59 112 101C112 135 127 276 208 361C241 395 293 424 322 424ZM733 204L704 77C700 60 698 42 698 26C698 4 707 -9 722 -9C745 -9 786 17 868 85L861 106C837 86 808 59 786 59C777 59 771 68 771 82C771 87 771 90 772 93L864 472L854 481L821 463C780 478 763 482 736 482C708 482 688 477 661 464C599 433 566 403 541 354C497 265 466 145 466 67C466 23 481 -11 500 -11C537 -11 617 41 733 204ZM781 414C759 305 740 253 706 201C649 117 588 59 556 59C544 59 538 72 538 99C538 163 566 280 601 360C625 415 648 433 696 433C719 433 737 429 781 414ZM1156 722L1144 733C1092 707 1056 698 984 691L980 670L1028 670C1052 670 1062 663 1062 648C1062 645 1062 640 1059 622C1048 567 975 182 960 132C947 82 941 52 941 31C941 6 952 -9 971 -9C997 -9 1033 12 1131 85L1121 103L1095 86C1066 67 1044 56 1034 56C1027 56 1021 66 1021 76C1021 82 1022 89 1025 104ZM1433 722L1421 733C1369 707 1333 698 1261 691L1257 670L1305 670C1329 670 1339 663 1339 648C1339 645 1339 640 1336 622C1325 567 1252 182 1237 132C1224 82 1218 52 1218 31C1218 6 1229 -9 1248 -9C1274 -9 1310 12 1408 85L1398 103L1372 86C1343 67 1321 56 1311 56C1304 56 1298 66 1298 76C1298 82 1299 89 1302 104Z" stroke="rgb(153,0,0)" stroke-opacity="1" stroke-width="8" fill="rgb(153,0,0)" fill-opacity="1"></path></g></g></g></g></g></g></g><g><g><g><g><g><g><g transform="matrix(1,0,0,1,105.4000244140625,47.15000915527344)"><path transform="matrix(0.017,0,0,-0.017,0,0)" d="M286 646L392 650C454 650 494 641 495 626L503 537L527 537C530 600 537 651 548 689C526 691 498 692 481 692L440 691L275 689L246 689C221 689 181 690 143 691L94 692L91 664L147 662C171 661 182 652 182 635C182 621 178 589 173 559L98 125C81 33 81 32 40 28L4 25L0 -3L34 -2C74 -1 106 0 127 0C145 0 174 -1 213 -2L265 -3L268 25L204 28C177 29 168 37 168 57C168 63 169 74 170 78L206 301L323 301C350 301 381 300 429 298L455 297L474 342L470 349C389 345 329 343 251 343L214 343L260 614C263 630 264 635 269 646Z" stroke="rgb(153,0,0)" stroke-opacity="1" stroke-width="8" fill="rgb(153,0,0)" fill-opacity="1"></path></g></g></g></g><svg x="105.4000244140625" overflow="visible" y="24.150001525878906" height="10" width="10.287500381469727"><path d=" M 10.29 4.85 l -3.15 -3.32 l -0.49 0.52 l 1.93 2.33 h -0.15 v 0.90 h 0.15 l -1.93 2.33 l 0.49 0.52 z  M 1.68 5.23 h 8.15 v -0.90 h -8.15 z" style="fill:rgb(153,0,0);fill-opacity:1;stroke-width:1px;stroke:none;stroke-opacity:1;"></path></svg></g><g><g><g><g><g transform="matrix(1,0,0,1,115.3375244140625,52.849996948242186)"><path transform="matrix(0.0119,0,0,-0.0119,0,0)" d="M31 148C26 97 20 62 9 16C47 -2 81 -11 116 -11C165 -11 211 7 262 47C313 87 334 124 334 174C334 228 302 257 228 271L185 279C125 290 106 307 106 348C106 401 151 442 208 442C249 442 287 424 303 397L303 342L326 342C330 377 334 404 345 455C306 474 278 482 245 482C193 482 132 452 84 404C58 377 47 352 47 316C47 260 78 228 144 215L207 203C251 195 267 177 267 138C267 73 221 29 150 29C115 29 84 40 56 64L56 148ZM564 -11C620 -11 735 62 778 125C819 186 853 296 853 371C853 438 830 482 794 482C752 482 699 456 647 409C606 374 586 348 550 289L574 408C577 425 579 440 579 452C579 471 571 482 557 482C536 482 498 461 424 408L396 388L403 368L435 389C463 407 474 412 483 412C493 412 500 403 500 389C500 381 498 361 496 351L438 8C428 -52 409 -143 389 -233L381 -270L388 -276C409 -269 429 -264 461 -259L503 3C524 -4 546 -11 564 -11ZM531 165C553 293 660 424 743 424C769 424 781 402 781 356C781 275 741 156 688 80C668 51 636 36 595 36C564 36 539 43 513 59ZM1255 365C1258 403 1263 435 1271 476C1260 481 1256 482 1251 482C1220 482 1189 458 1153 407C1114 351 1075 291 1059 256L1091 408C1095 425 1097 438 1097 450C1097 470 1089 482 1074 482C1053 482 1015 461 941 408L913 388L920 368L952 389C980 407 991 412 1000 412C1010 412 1017 403 1017 390C1017 332 974 126 934 -2L944 -9C959 -4 975 -1 998 4L1011 6L1037 126C1055 209 1078 262 1122 319C1156 363 1183 384 1205 384C1220 384 1230 379 1241 365ZM1309 388L1316 368L1348 389C1385 412 1388 414 1395 414C1405 414 1413 404 1413 391C1413 384 1409 361 1405 347L1339 107C1331 76 1326 49 1326 30C1326 6 1337 -9 1356 -9C1382 -9 1418 12 1516 85L1506 103L1480 86C1451 67 1428 56 1419 56C1412 56 1406 66 1406 76C1406 86 1408 95 1413 116L1490 420C1494 437 1496 448 1496 456C1496 473 1487 482 1471 482C1449 482 1412 461 1337 408ZM1503 712C1474 712 1445 679 1445 645C1445 620 1460 604 1484 604C1515 604 1539 633 1539 671C1539 695 1524 712 1503 712ZM1576 388L1583 368L1615 389C1652 412 1655 414 1662 414C1673 414 1680 404 1680 389C1680 338 1639 145 1598 2L1605 -9C1630 -2 1653 4 1675 8C1694 134 1715 199 1761 268C1815 352 1890 414 1935 414C1946 414 1952 405 1952 390C1952 372 1949 351 1941 319L1889 107C1880 70 1876 47 1876 31C1876 6 1887 -9 1906 -9C1932 -9 1968 12 2066 85L2056 103L2030 86C2001 67 1979 56 1969 56C1962 56 1956 65 1956 76C1956 81 1957 92 1958 96L2024 372C2031 401 2035 429 2035 446C2035 469 2024 482 2004 482C1962 482 1893 444 1834 389C1796 354 1768 320 1716 247L1754 408C1758 426 1760 438 1760 449C1760 470 1752 482 1737 482C1716 482 1677 460 1604 408ZM2382 482C2315 482 2162 419 2162 259C2162 182 2207 136 2284 136C2292 136 2303 136 2314 137L2273 99C2257 84 2246 66 2246 52C2246 42 2253 31 2267 19C2198 -4 2070 -48 2070 -159C2070 -230 2140 -276 2249 -276C2378 -276 2491 -204 2491 -121C2491 -85 2470 -49 2427 -14L2367 35C2333 62 2320 81 2320 100C2320 114 2335 128 2347 146C2445 170 2516 253 2516 342C2516 357 2513 376 2512 380C2529 378 2537 378 2546 378C2563 378 2573 379 2596 382L2605 427L2602 433C2574 426 2554 424 2500 424C2500 425 2476 482 2382 482ZM2283 1L2360 -58C2406 -94 2425 -121 2425 -154C2425 -206 2356 -248 2273 -248C2191 -248 2134 -206 2134 -145C2134 -43 2244 -11 2283 1ZM2357 448C2415 448 2444 412 2444 341C2444 238 2396 168 2326 168C2265 168 2233 209 2233 288C2233 383 2284 448 2357 448Z" stroke="rgb(153,0,0)" stroke-opacity="1" stroke-width="8" fill="rgb(153,0,0)" fill-opacity="1"></path></g></g></g></g></g></g></g></svg>
</svg>
