<svg xmlns="http://www.w3.org/2000/svg" xmlns:xlink="http://www.w3.org/1999/xlink" x="0" y="0" width="360.6" height="214.525" style="
        width:360.6px;
        height:214.525px;
        background: #FFF;
        fill: none;
">
        <svg xmlns="http://www.w3.org/2000/svg"/>
        
        <svg xmlns="http://www.w3.org/2000/svg" class="role-diagram-draw-area" style="overflow: visible;"><g class="shapes-region" style="stroke: black; fill: none;"><g class="composite-shape"><path class="real" d=" M172.2,121.09 L188.39,104.9 L256.41,104.9 L272.6,121.09 L272.6,151.15 L272.6,151.15 L172.2,151.15 L172.2,151.15 Z" style="stroke-width: 1; stroke: rgb(0, 0, 0); fill: rgb(238, 238, 238); fill-opacity: 1;"/></g><g class="composite-shape"><path class="real" d=" M197.47,36.23 L247.47,36.23 L247.47,86.23 L197.47,86.23 Z" style="stroke-width: 1; stroke: rgb(153, 0, 0); stroke-opacity: 1; fill: rgb(250, 229, 229); fill-opacity: 1;"/></g><g class="composite-shape"><defs><!-- react-text: 41492 --> <!-- /react-text --><pattern id="_pgfigh2uix7gdg-full-view" x="0" y="0" width="11.313708498984761" height="11.313708498984761" patternTransform="rotate(45,0,0)" patternUnits="userSpaceOnUse"><path d="M0,0 L0,11.313708498984761" style="stroke: rgb(238, 238, 238); stroke-opacity: 1; stroke-width: 1; fill: none;"/><path d="M5.656854249492381,0 L5.656854249492381,11.313708498984761" style="stroke: rgb(238, 238, 238); stroke-opacity: 1; stroke-width: 1; fill: none;"/><path d="M11.313708498984761,0 L11.313708498984761,11.313708498984761" style="stroke: rgb(238, 238, 238); stroke-opacity: 1; stroke-width: 1; fill: none;"/></pattern></defs><path class="real" d=" M-11.16,151.46 L283,151.46 L283,240.02 L-11.16,240.02 Z" style="stroke-width: 1; stroke: rgb(0, 0, 0); fill: url(&quot;#_pgfigh2uix7gdg-full-view&quot;); fill-opacity: 1;"/></g><g class="composite-shape"><path class="real" d=" M202.71,104.04 C202.47,103.84 202.33,103.62 202.33,103.39 C202.33,99.39 242.33,99.39 242.33,101.39 C242.33,103.39 202.33,103.39 202.33,99.39 C202.33,99.15 202.48,98.92 202.76,98.71" style="stroke-width: 1; stroke: rgb(0, 0, 0);"/></g><g class="composite-shape"><path class="real" d=" M34.05,104.37 C33.8,104.17 33.67,103.95 33.67,103.72 C33.67,99.72 73.67,99.72 73.67,101.72 C73.67,103.72 33.67,103.72 33.67,99.72 C33.67,99.48 33.81,99.26 34.09,99.04" style="stroke-width: 1; stroke: rgb(0, 0, 0);"/></g><g class="composite-shape"><path class="real" d=" M4.2,121.49 L20.39,105.3 L88.41,105.3 L104.6,121.49 L104.6,151.55 L104.6,151.55 L4.2,151.55 L4.2,151.55 Z" style="stroke-width: 1; stroke: rgb(0, 0, 0); fill: rgb(238, 238, 238); fill-opacity: 1;"/></g><g class="composite-shape"><path class="real" d=" M11.3,87.22 L95.8,87.22 L95.8,98.47 L11.3,98.47 Z" style="stroke-width: 1; stroke: rgb(0, 0, 0); fill: rgb(0, 0, 0); fill-opacity: 0.5;"/></g><g class="composite-shape"><path class="real" d=" M28.67,36.63 L78.67,36.63 L78.67,86.63 L28.67,86.63 Z" style="stroke-width: 1; stroke: rgb(153, 0, 0); stroke-opacity: 1; fill: rgb(250, 229, 229); fill-opacity: 1;"/></g><g class="arrow-line"><path class="connection real" stroke-dasharray="" d="  M44.82,90.08 L44.82,94.34 L44.82,133.53" style="stroke: rgb(153, 0, 0); stroke-opacity: 1; stroke-width: 1; fill: none; fill-opacity: 1;"/><g stroke="none" fill="rgb(153,0,0)" fill-opacity="1" transform="matrix(6.123233995736766e-17,1,-1,6.123233995736766e-17,44.81666666666666,87.08333352406822)" style="stroke: none; fill: rgb(153, 0, 0); stroke-width: 1;"><path d=" M10.72,-5.15 L0,0 L10.72,5.15 L7.12,0 Z"/></g></g><g class="composite-shape"><path class="real" d=" M180,87.15 L264.5,87.15 L264.5,98.4 L180,98.4 Z" style="stroke-width: 1; stroke: rgb(0, 0, 0); fill: rgb(0, 0, 0); fill-opacity: 0.5;"/></g><g class="arrow-line"><path class="connection real" stroke-dasharray="" d="  M222.5,86.76 L222.5,130.21" style="stroke: rgb(153, 0, 0); stroke-opacity: 1; stroke-width: 1; fill: none; fill-opacity: 1;"/><g stroke="none" fill="rgb(153,0,0)" fill-opacity="1" transform="matrix(-1.8369701987210297e-16,-1,1,-1.8369701987210297e-16,222.5,133.20833670298256)" style="stroke: none; fill: rgb(153, 0, 0); stroke-width: 1;"><path d=" M10.72,-5.15 L0,0 L10.72,5.15 L7.12,0 Z"/></g></g><g class="arrow-line"><path class="connection real" stroke-dasharray="" d="  M62.37,87.53 L62.37,130.98" style="stroke: rgb(153, 0, 0); stroke-opacity: 1; stroke-width: 1; fill: none; fill-opacity: 1;"/><g stroke="none" fill="rgb(153,0,0)" fill-opacity="1" transform="matrix(-1.8369701987210297e-16,-1,1,-1.8369701987210297e-16,62.36666666666666,133.9833331425985)" style="stroke: none; fill: rgb(153, 0, 0); stroke-width: 1;"><path d=" M10.72,-5.15 L0,0 L10.72,5.15 L7.12,0 Z"/></g></g><g class="arrow-line"><path class="connection real" stroke-dasharray="" d="  M222.44,151.46 L222.44,194.91" style="stroke: rgb(153, 0, 0); stroke-opacity: 1; stroke-width: 1; fill: none; fill-opacity: 1;"/><g stroke="none" fill="rgb(153,0,0)" fill-opacity="1" transform="matrix(-1.8369701987210297e-16,-1,1,-1.8369701987210297e-16,222.439990234375,197.90833276112872)" style="stroke: none; fill: rgb(153, 0, 0); stroke-width: 1;"><path d=" M10.72,-5.15 L0,0 L10.72,5.15 L7.12,0 Z"/></g></g><g class="arrow-line"><path class="connection real" stroke-dasharray="" d="  M198.25,206.95 L198.25,154.7" style="stroke: rgb(153, 0, 0); stroke-opacity: 1; stroke-width: 1; fill: none; fill-opacity: 1;"/><g stroke="none" fill="rgb(153,0,0)" fill-opacity="1" transform="matrix(3.061616997868383e-16,1,-1,3.061616997868383e-16,198.25,151.70000457763672)" style="stroke: none; fill: rgb(153, 0, 0); stroke-width: 1;"><path d=" M10.72,-5.15 L0,0 L10.72,5.15 L7.12,0 Z"/></g></g><g class="arrow-line"><path class="connection real" stroke-dasharray="" d="  M191.58,180.1 L204.24,175.43" style="stroke: rgb(153, 0, 0); stroke-width: 1; fill: none; fill-opacity: 1; stroke-opacity: 1;"/></g><g class="arrow-line"><path class="connection real" stroke-dasharray="" d="  M192.02,184.32 L204.69,179.65" style="stroke: rgb(153, 0, 0); stroke-opacity: 1; stroke-width: 1; fill: none; fill-opacity: 1;"/></g><g class="arrow-line"><path class="connection real" stroke-dasharray="" d="  M119.61,48.1 L119.61,52.35 L119.61,91.55" style="stroke: rgb(153, 0, 0); stroke-opacity: 1; stroke-width: 1; fill: none; fill-opacity: 1;"/><g stroke="none" fill="rgb(153,0,0)" fill-opacity="1" transform="matrix(6.123233995736766e-17,1,-1,6.123233995736766e-17,119.61428724016463,45.09642723628454)" style="stroke: none; fill: rgb(153, 0, 0); stroke-width: 1;"><path d=" M10.72,-5.15 L0,0 L10.72,5.15 L7.12,0 Z"/></g></g><g class="arrow-line"><path class="connection real" stroke-dasharray="" d="  M119.61,94.35 L119.61,137.8" style="stroke: rgb(153, 0, 0); stroke-opacity: 1; stroke-width: 1; fill: none; fill-opacity: 1;"/><g stroke="none" fill="rgb(153,0,0)" fill-opacity="1" transform="matrix(-1.8369701987210297e-16,-1,1,-1.8369701987210297e-16,119.61428724016463,140.79642990657263)" style="stroke: none; fill: rgb(153, 0, 0); stroke-width: 1;"><path d=" M10.72,-5.15 L0,0 L10.72,5.15 L7.12,0 Z"/></g></g><g class="composite-shape"><path class="real" d=" M118.21,92.95 C118.21,92.17 118.84,91.55 119.61,91.55 C120.39,91.55 121.01,92.17 121.01,92.95 C121.01,93.72 120.39,94.35 119.61,94.35 C118.84,94.35 118.21,93.72 118.21,92.95 Z" style="stroke-width: 1; stroke: rgb(0, 0, 0); fill: rgb(0, 0, 0); fill-opacity: 1;"/></g><g class="composite-shape"><path class="real" d=" M305.45,105.2 C305.45,104.42 306.08,103.8 306.85,103.8 C307.63,103.8 308.25,104.42 308.25,105.2 C308.25,105.97 307.63,106.6 306.85,106.6 C306.08,106.6 305.45,105.97 305.45,105.2 Z" style="stroke-width: 1; stroke: rgb(0, 0, 0); fill: rgb(0, 0, 0); fill-opacity: 1;"/></g><g class="arrow-line"><path class="connection real" stroke-dasharray="" d="  M306.85,106.6 L306.85,150.05" style="stroke: rgb(153, 0, 0); stroke-opacity: 1; stroke-width: 1; fill: none; fill-opacity: 1;"/><g stroke="none" fill="rgb(153,0,0)" fill-opacity="1" transform="matrix(-1.8369701987210297e-16,-1,1,-1.8369701987210297e-16,306.8523824782599,153.0464298793247)" style="stroke: none; fill: rgb(153, 0, 0); stroke-width: 1;"><path d=" M10.72,-5.15 L0,0 L10.72,5.15 L7.12,0 Z"/></g></g><g class="arrow-line"><path class="connection real" stroke-dasharray="" d="  M306.85,153.05 L306.85,196.5" style="stroke: rgb(153, 0, 0); stroke-opacity: 1; stroke-width: 1; fill: none; fill-opacity: 1;"/><g stroke="none" fill="rgb(153,0,0)" fill-opacity="1" transform="matrix(-1.8369701987210297e-16,-1,1,-1.8369701987210297e-16,306.8523824782599,199.49642968858984)" style="stroke: none; fill: rgb(153, 0, 0); stroke-width: 1;"><path d=" M10.72,-5.15 L0,0 L10.72,5.15 L7.12,0 Z"/></g></g><g class="arrow-line"><path class="connection real" stroke-dasharray="" d="  M306.85,103.8 L306.85,13.9" style="stroke: rgb(153, 0, 0); stroke-opacity: 1; stroke-width: 1; fill: none; fill-opacity: 1;"/><g stroke="none" fill="rgb(153,0,0)" fill-opacity="1" transform="matrix(3.061616997868383e-16,1,-1,3.061616997868383e-16,306.8523824782599,10.89642739977154)" style="stroke: none; fill: rgb(153, 0, 0); stroke-width: 1;"><path d=" M10.72,-5.15 L0,0 L10.72,5.15 L7.12,0 Z"/></g></g><g/></g><g/><g/><g/></svg>
        <svg xmlns="http://www.w3.org/2000/svg" xmlns:xlink="http://www.w3.org/1999/xlink" width="359" height="212.92499999999998" style="width:359px;height:212.92499999999998px;font-family:Asana-Math, Asana;background:#FFF;"><g><g><g><g><g><g><g transform="matrix(1,0,0,1,17.568749999999998,138.06251220703123)"><path transform="matrix(0.017,0,0,-0.017,0,0)" d="M582 103L237 692L75 692L70 664L105 662C150 660 184 615 185 606L92 102C80 40 74 32 38 28L7 25L2 -3L113 0C125 0 126 0 223 -3L228 25L186 28C146 31 137 39 137 72C137 80 138 91 140 102L220 566L558 -11L608 -11L702 542C723 655 725 659 762 662L799 664L802 691L589 692L584 664L631 662C657 661 667 654 667 638C667 631 584 116 582 103Z" stroke="rgb(153,0,0)" stroke-opacity="1" stroke-width="8" fill="rgb(153,0,0)" fill-opacity="1"></path></g></g></g></g><svg x="17.568749999999998" overflow="visible" y="115.06251220703123" height="10" width="14.0625"><path d=" M 14.06 4.85 l -3.15 -3.32 l -0.49 0.52 l 1.93 2.33 h -0.15 v 0.90 h 0.15 l -1.93 2.33 l 0.49 0.52 z  M 1.68 5.23 h 11.92 v -0.90 h -11.92 z" style="fill:rgb(153,0,0);fill-opacity:1;stroke-width:1px;stroke:none;stroke-opacity:1;"></path></svg></g><g><g><g><g><g transform="matrix(1,0,0,1,31.281249999999996,143.76251220703125)"><path transform="matrix(0.0119,0,0,-0.0119,0,0)" d="M31 148C26 97 20 62 9 16C47 -2 81 -11 116 -11C165 -11 211 7 262 47C313 87 334 124 334 174C334 228 302 257 228 271L185 279C125 290 106 307 106 348C106 401 151 442 208 442C249 442 287 424 303 397L303 342L326 342C330 377 334 404 345 455C306 474 278 482 245 482C193 482 132 452 84 404C58 377 47 352 47 316C47 260 78 228 144 215L207 203C251 195 267 177 267 138C267 73 221 29 150 29C115 29 84 40 56 64L56 148ZM730 330L753 330C761 395 768 432 777 458C753 473 718 482 681 482C636 483 563 463 506 400C452 352 413 241 413 136C413 40 455 -11 535 -11C589 -11 637 9 692 54L742 95L734 115L719 105C647 57 609 40 574 40C518 40 489 80 489 159C489 267 524 371 573 409C594 425 618 433 649 433C694 433 730 414 730 390ZM1065 204L1036 77C1032 60 1030 42 1030 26C1030 4 1039 -9 1054 -9C1077 -9 1118 17 1200 85L1193 106C1169 86 1140 59 1118 59C1109 59 1103 68 1103 82C1103 87 1103 90 1104 93L1196 472L1186 481L1153 463C1112 478 1095 482 1068 482C1040 482 1020 477 993 464C931 433 898 403 873 354C829 265 798 145 798 67C798 23 813 -11 832 -11C869 -11 949 41 1065 204ZM1113 414C1091 305 1072 253 1038 201C981 117 920 59 888 59C876 59 870 72 870 99C870 163 898 280 933 360C957 415 980 433 1028 433C1051 433 1069 429 1113 414ZM1488 722L1476 733C1424 707 1388 698 1316 691L1312 670L1360 670C1384 670 1394 663 1394 648C1394 645 1394 640 1391 622C1380 567 1307 182 1292 132C1279 82 1273 52 1273 31C1273 6 1284 -9 1303 -9C1329 -9 1365 12 1463 85L1453 103L1427 86C1398 67 1376 56 1366 56C1359 56 1353 66 1353 76C1353 82 1354 89 1357 104ZM1842 111L1818 94C1765 56 1717 36 1681 36C1634 36 1605 73 1605 133C1605 158 1608 185 1613 214C1630 218 1739 248 1764 259C1849 296 1888 342 1888 404C1888 451 1854 482 1804 482C1736 496 1626 423 1589 349C1559 299 1529 180 1529 113C1529 35 1573 -11 1645 -11C1702 -11 1758 17 1850 92ZM1627 274C1644 343 1664 386 1693 412C1711 428 1742 440 1766 440C1795 440 1814 420 1814 388C1814 344 1779 297 1727 272C1699 258 1663 247 1618 237Z" stroke="rgb(153,0,0)" stroke-opacity="1" stroke-width="8" fill="rgb(153,0,0)" fill-opacity="1"></path></g></g></g></g></g></g></g><g><g><g><g><g><g><g transform="matrix(1,0,0,1,68.76875,134.51251220703125)"><path transform="matrix(0.017,0,0,-0.017,0,0)" d="M167 420C188 420 201 421 226 424C171 350 72 266 72 126C72 44 107 -11 160 -11C224 -11 276 44 350 187C341 143 338 118 338 95C338 32 367 -11 412 -11C546 -11 699 238 699 384C699 441 673 482 637 482C624 482 612 478 604 470L554 423L565 404C574 410 583 413 592 413C619 413 635 390 635 350C635 205 538 39 453 39C424 39 403 79 403 134C403 181 412 247 424 290L476 474L469 482L395 460L366 311C354 249 340 209 311 155C271 80 233 39 203 39C168 39 145 78 145 136C145 255 186 352 285 464L275 482C255 473 242 470 214 470C186 470 144 472 115 475L103 476C97 477 92 477 91 477C79 477 70 475 59 470C45 443 34 407 21 352L43 352L60 394C67 411 87 422 111 422C145 422 128 420 167 420Z" stroke="rgb(153,0,0)" stroke-opacity="1" stroke-width="8" fill="rgb(153,0,0)" fill-opacity="1"></path></g></g></g></g><svg x="68.76875" overflow="visible" y="115.51251220703125" height="10" width="13.112500000000011"><path d=" M 13.11 4.85 l -3.15 -3.32 l -0.49 0.52 l 1.93 2.33 h -0.15 v 0.90 h 0.15 l -1.93 2.33 l 0.49 0.52 z  M 1.68 5.23 h 10.97 v -0.90 h -10.97 z" style="fill:rgb(153,0,0);fill-opacity:1;stroke-width:1px;stroke:none;stroke-opacity:1;"></path></svg></g><g><g><g><g><g transform="matrix(1,0,0,1,81.53125,140.21251220703124)"><path transform="matrix(0.0119,0,0,-0.0119,0,0)" d="M235 722L223 733C171 707 135 698 63 691L59 670L107 670C131 670 141 663 141 646C141 639 140 628 139 622L38 71C37 68 37 64 37 61C37 22 85 -11 140 -11C177 -11 228 8 271 39C367 107 433 244 433 376C433 414 424 453 412 468C405 477 392 482 377 482C353 482 323 474 295 460C244 433 211 403 149 324ZM322 424C348 424 361 401 361 352C361 288 340 202 310 137C277 68 237 36 183 36C137 36 112 59 112 101C112 135 127 276 208 361C241 395 293 424 322 424ZM479 152C479 46 524 -11 607 -11C662 -11 722 15 767 57C829 116 873 230 873 331C873 425 823 482 740 482C636 482 479 382 479 152ZM703 444C764 444 797 399 797 315C797 219 766 113 722 60C704 39 678 27 647 27C589 27 555 72 555 151C555 264 594 387 643 427C656 438 679 444 703 444ZM914 1C929 -7 945 -11 957 -11C990 -11 1029 18 1060 65L1136 182L1147 113C1160 28 1183 -11 1219 -11C1241 -11 1273 6 1305 35L1354 79L1345 98C1309 68 1284 53 1268 53C1253 53 1240 63 1230 83C1221 102 1210 139 1205 168L1187 269L1222 318C1269 383 1296 406 1327 406C1343 406 1355 398 1360 383L1374 387L1389 472C1377 479 1368 482 1359 482C1319 482 1279 446 1217 354L1180 299L1174 347C1162 446 1135 482 1076 482C1050 482 1028 474 1019 461L961 378L978 368C1008 402 1028 416 1047 416C1080 416 1102 375 1119 277L1130 215L1090 153C1047 86 1013 54 985 54C970 54 959 58 957 63L946 91L926 88C926 53 918 27 914 1Z" stroke="rgb(153,0,0)" stroke-opacity="1" stroke-width="8" fill="rgb(153,0,0)" fill-opacity="1"></path></g></g></g></g></g></g></g><g><g><g><g transform="matrix(1,0,0,1,41.8625,169.77501220703124)"><path transform="matrix(0.015,0,0,-0.015,0,0)" d="M28 652C98 652 106 645 106 596L106 0L131 0C132 1 140 15 167 62C182 39 224 -11 298 -11C417 -11 521 87 521 216C521 343 423 442 309 442C231 442 188 395 172 377L172 694L28 683ZM175 114L175 320C175 339 175 340 186 356C225 412 280 420 304 420C349 420 385 394 409 356C435 315 438 258 438 217C438 180 436 120 407 75C386 44 348 11 294 11C249 11 213 35 189 72C175 93 175 96 175 114ZM611 214C611 85 715 -11 832 -11C953 -11 1054 87 1054 214C1054 342 954 448 833 448C708 448 611 339 611 214ZM694 222C694 261 694 315 718 359C745 405 792 426 832 426C876 426 919 404 945 361C971 318 971 260 971 222C971 186 971 132 949 88C927 43 883 14 833 14C790 14 746 35 719 81C694 125 694 186 694 222ZM1067 0C1093 2 1124 3 1150 3C1179 3 1221 1 1245 0L1245 31C1223 34 1216 47 1216 62C1216 84 1245 117 1306 189L1382 89C1390 78 1403 62 1403 56C1403 47 1394 32 1367 31L1367 0C1397 1 1453 3 1475 3C1502 3 1541 2 1571 0L1571 31C1517 31 1499 33 1476 62L1342 235C1372 273 1410 322 1434 348C1465 384 1506 399 1553 400L1553 431C1527 429 1497 428 1471 428C1441 428 1388 430 1375 431L1375 400C1396 398 1404 385 1404 369C1404 353 1394 340 1389 334L1327 256L1249 357C1240 367 1240 369 1240 375C1240 390 1255 399 1275 400L1275 431C1249 430 1183 428 1167 428C1146 428 1099 429 1072 431L1072 400C1142 400 1143 399 1190 339L1289 210L1195 91C1147 33 1088 31 1067 31Z" stroke="rgb(0,0,0)" stroke-opacity="1" stroke-width="8" fill="rgb(0,0,0)" fill-opacity="1"></path></g></g></g></g><g><g><g><g><g><g><g transform="matrix(1,0,0,1,230.53126220703123,137.72501220703126)"><path transform="matrix(0.017,0,0,-0.017,0,0)" d="M286 646L392 650C454 650 494 641 495 626L503 537L527 537C530 600 537 651 548 689C526 691 498 692 481 692L440 691L275 689L246 689C221 689 181 690 143 691L94 692L91 664L147 662C171 661 182 652 182 635C182 621 178 589 173 559L98 125C81 33 81 32 40 28L4 25L0 -3L34 -2C74 -1 106 0 127 0C145 0 174 -1 213 -2L265 -3L268 25L204 28C177 29 168 37 168 57C168 63 169 74 170 78L206 301L323 301C350 301 381 300 429 298L455 297L474 342L470 349C389 345 329 343 251 343L214 343L260 614C263 630 264 635 269 646Z" stroke="rgb(153,0,0)" stroke-opacity="1" stroke-width="8" fill="rgb(153,0,0)" fill-opacity="1"></path></g></g></g></g><svg x="230.53126220703123" overflow="visible" y="114.72501220703126" height="10" width="10.287499999999994"><path d=" M 10.29 4.85 l -3.15 -3.32 l -0.49 0.52 l 1.93 2.33 h -0.15 v 0.90 h 0.15 l -1.93 2.33 l 0.49 0.52 z  M 1.68 5.23 h 8.15 v -0.90 h -8.15 z" style="fill:rgb(153,0,0);fill-opacity:1;stroke-width:1px;stroke:none;stroke-opacity:1;"></path></svg></g><g><g><g><g><g transform="matrix(1,0,0,1,240.46876220703126,143.42501220703124)"><path transform="matrix(0.0119,0,0,-0.0119,0,0)" d="M235 722L223 733C171 707 135 698 63 691L59 670L107 670C131 670 141 663 141 646C141 639 140 628 139 622L38 71C37 68 37 64 37 61C37 22 85 -11 140 -11C177 -11 228 8 271 39C367 107 433 244 433 376C433 414 424 453 412 468C405 477 392 482 377 482C353 482 323 474 295 460C244 433 211 403 149 324ZM322 424C348 424 361 401 361 352C361 288 340 202 310 137C277 68 237 36 183 36C137 36 112 59 112 101C112 135 127 276 208 361C241 395 293 424 322 424ZM479 152C479 46 524 -11 607 -11C662 -11 722 15 767 57C829 116 873 230 873 331C873 425 823 482 740 482C636 482 479 382 479 152ZM703 444C764 444 797 399 797 315C797 219 766 113 722 60C704 39 678 27 647 27C589 27 555 72 555 151C555 264 594 387 643 427C656 438 679 444 703 444ZM914 1C929 -7 945 -11 957 -11C990 -11 1029 18 1060 65L1136 182L1147 113C1160 28 1183 -11 1219 -11C1241 -11 1273 6 1305 35L1354 79L1345 98C1309 68 1284 53 1268 53C1253 53 1240 63 1230 83C1221 102 1210 139 1205 168L1187 269L1222 318C1269 383 1296 406 1327 406C1343 406 1355 398 1360 383L1374 387L1389 472C1377 479 1368 482 1359 482C1319 482 1279 446 1217 354L1180 299L1174 347C1162 446 1135 482 1076 482C1050 482 1028 474 1019 461L961 378L978 368C1008 402 1028 416 1047 416C1080 416 1102 375 1119 277L1130 215L1090 153C1047 86 1013 54 985 54C970 54 959 58 957 63L946 91L926 88C926 53 918 27 914 1Z" stroke="rgb(153,0,0)" stroke-opacity="1" stroke-width="8" fill="rgb(153,0,0)" fill-opacity="1"></path></g></g></g></g></g></g></g><g><g><g><g><g><g><g transform="matrix(1,0,0,1,230.15626220703123,198.52501220703124)"><path transform="matrix(0.017,0,0,-0.017,0,0)" d="M167 420C188 420 201 421 226 424C171 350 72 266 72 126C72 44 107 -11 160 -11C224 -11 276 44 350 187C341 143 338 118 338 95C338 32 367 -11 412 -11C546 -11 699 238 699 384C699 441 673 482 637 482C624 482 612 478 604 470L554 423L565 404C574 410 583 413 592 413C619 413 635 390 635 350C635 205 538 39 453 39C424 39 403 79 403 134C403 181 412 247 424 290L476 474L469 482L395 460L366 311C354 249 340 209 311 155C271 80 233 39 203 39C168 39 145 78 145 136C145 255 186 352 285 464L275 482C255 473 242 470 214 470C186 470 144 472 115 475L103 476C97 477 92 477 91 477C79 477 70 475 59 470C45 443 34 407 21 352L43 352L60 394C67 411 87 422 111 422C145 422 128 420 167 420Z" stroke="rgb(153,0,0)" stroke-opacity="1" stroke-width="8" fill="rgb(153,0,0)" fill-opacity="1"></path></g></g></g></g><svg x="230.15626220703123" overflow="visible" y="179.52501220703124" height="10" width="13.112499999999983"><path d=" M 13.11 4.85 l -3.15 -3.32 l -0.49 0.52 l 1.93 2.33 h -0.15 v 0.90 h 0.15 l -1.93 2.33 l 0.49 0.52 z  M 1.68 5.23 h 10.97 v -0.90 h -10.97 z" style="fill:rgb(153,0,0);fill-opacity:1;stroke-width:1px;stroke:none;stroke-opacity:1;"></path></svg></g><g><g><g><g><g transform="matrix(1,0,0,1,242.91876220703125,204.22501220703126)"><path transform="matrix(0.0119,0,0,-0.0119,0,0)" d="M31 148C26 97 20 62 9 16C47 -2 81 -11 116 -11C165 -11 211 7 262 47C313 87 334 124 334 174C334 228 302 257 228 271L185 279C125 290 106 307 106 348C106 401 151 442 208 442C249 442 287 424 303 397L303 342L326 342C330 377 334 404 345 455C306 474 278 482 245 482C193 482 132 452 84 404C58 377 47 352 47 316C47 260 78 228 144 215L207 203C251 195 267 177 267 138C267 73 221 29 150 29C115 29 84 40 56 64L56 148ZM730 330L753 330C761 395 768 432 777 458C753 473 718 482 681 482C636 483 563 463 506 400C452 352 413 241 413 136C413 40 455 -11 535 -11C589 -11 637 9 692 54L742 95L734 115L719 105C647 57 609 40 574 40C518 40 489 80 489 159C489 267 524 371 573 409C594 425 618 433 649 433C694 433 730 414 730 390ZM1065 204L1036 77C1032 60 1030 42 1030 26C1030 4 1039 -9 1054 -9C1077 -9 1118 17 1200 85L1193 106C1169 86 1140 59 1118 59C1109 59 1103 68 1103 82C1103 87 1103 90 1104 93L1196 472L1186 481L1153 463C1112 478 1095 482 1068 482C1040 482 1020 477 993 464C931 433 898 403 873 354C829 265 798 145 798 67C798 23 813 -11 832 -11C869 -11 949 41 1065 204ZM1113 414C1091 305 1072 253 1038 201C981 117 920 59 888 59C876 59 870 72 870 99C870 163 898 280 933 360C957 415 980 433 1028 433C1051 433 1069 429 1113 414ZM1488 722L1476 733C1424 707 1388 698 1316 691L1312 670L1360 670C1384 670 1394 663 1394 648C1394 645 1394 640 1391 622C1380 567 1307 182 1292 132C1279 82 1273 52 1273 31C1273 6 1284 -9 1303 -9C1329 -9 1365 12 1463 85L1453 103L1427 86C1398 67 1376 56 1366 56C1359 56 1353 66 1353 76C1353 82 1354 89 1357 104ZM1842 111L1818 94C1765 56 1717 36 1681 36C1634 36 1605 73 1605 133C1605 158 1608 185 1613 214C1630 218 1739 248 1764 259C1849 296 1888 342 1888 404C1888 451 1854 482 1804 482C1736 496 1626 423 1589 349C1559 299 1529 180 1529 113C1529 35 1573 -11 1645 -11C1702 -11 1758 17 1850 92ZM1627 274C1644 343 1664 386 1693 412C1711 428 1742 440 1766 440C1795 440 1814 420 1814 388C1814 344 1779 297 1727 272C1699 258 1663 247 1618 237Z" stroke="rgb(153,0,0)" stroke-opacity="1" stroke-width="8" fill="rgb(153,0,0)" fill-opacity="1"></path></g></g></g></g></g></g></g><g><g><g><g><g><g><g transform="matrix(1,0,0,1,153.97501220703123,196.98751220703124)"><path transform="matrix(0.017,0,0,-0.017,0,0)" d="M582 103L237 692L75 692L70 664L105 662C150 660 184 615 185 606L92 102C80 40 74 32 38 28L7 25L2 -3L113 0C125 0 126 0 223 -3L228 25L186 28C146 31 137 39 137 72C137 80 138 91 140 102L220 566L558 -11L608 -11L702 542C723 655 725 659 762 662L799 664L802 691L589 692L584 664L631 662C657 661 667 654 667 638C667 631 584 116 582 103Z" stroke="rgb(153,0,0)" stroke-opacity="1" stroke-width="8" fill="rgb(153,0,0)" fill-opacity="1"></path></g></g></g></g><svg x="153.97501220703123" overflow="visible" y="173.98751220703124" height="10" width="14.0625"><path d=" M 14.06 4.85 l -3.15 -3.32 l -0.49 0.52 l 1.93 2.33 h -0.15 v 0.90 h 0.15 l -1.93 2.33 l 0.49 0.52 z  M 1.68 5.23 h 11.92 v -0.90 h -11.92 z" style="fill:rgb(153,0,0);fill-opacity:1;stroke-width:1px;stroke:none;stroke-opacity:1;"></path></svg></g><g><g><g><g><g transform="matrix(1,0,0,1,167.68751220703123,202.68751220703126)"><path transform="matrix(0.0119,0,0,-0.0119,0,0)" d="M345 437L329 437L350 549C366 635 394 673 440 673C470 673 497 658 512 634L522 638C527 654 537 685 545 705L550 720C534 727 503 733 480 733C469 733 453 730 445 726C421 715 339 654 316 630C294 608 282 578 271 521L256 442C215 422 195 414 170 405L165 383L246 383L237 327C207 132 170 -54 148 -123C130 -182 100 -213 64 -213C41 -213 30 -206 12 -184L-2 -188C-6 -211 -20 -259 -25 -268C-16 -273 -1 -276 10 -276C51 -276 105 -245 144 -198C215 -114 235 -18 319 383L423 383C427 402 434 425 440 439L436 446C407 439 408 437 345 437ZM801 722L789 733C737 707 701 698 629 691L625 670L673 670C697 670 707 663 707 648C707 645 707 640 704 622C693 567 620 182 605 132C592 82 586 52 586 31C586 6 597 -9 616 -9C642 -9 678 12 776 85L766 103L740 86C711 67 689 56 679 56C672 56 666 66 666 76C666 82 667 89 670 104ZM844 152C844 46 889 -11 972 -11C1027 -11 1087 15 1132 57C1194 116 1238 230 1238 331C1238 425 1188 482 1105 482C1001 482 844 382 844 152ZM1068 444C1129 444 1162 399 1162 315C1162 219 1131 113 1087 60C1069 39 1043 27 1012 27C954 27 920 72 920 151C920 264 959 387 1008 427C1021 438 1044 444 1068 444ZM1287 152C1287 46 1332 -11 1415 -11C1470 -11 1530 15 1575 57C1637 116 1681 230 1681 331C1681 425 1631 482 1548 482C1444 482 1287 382 1287 152ZM1511 444C1572 444 1605 399 1605 315C1605 219 1574 113 1530 60C1512 39 1486 27 1455 27C1397 27 1363 72 1363 151C1363 264 1402 387 1451 427C1464 438 1487 444 1511 444ZM2081 365C2084 403 2089 435 2097 476C2086 481 2082 482 2077 482C2046 482 2015 458 1979 407C1940 351 1901 291 1885 256L1917 408C1921 425 1923 438 1923 450C1923 470 1915 482 1900 482C1879 482 1841 461 1767 408L1739 388L1746 368L1778 389C1806 407 1817 412 1826 412C1836 412 1843 403 1843 390C1843 332 1800 126 1760 -2L1770 -9C1785 -4 1801 -1 1824 4L1837 6L1863 126C1881 209 1904 262 1948 319C1982 363 2009 384 2031 384C2046 384 2056 379 2067 365Z" stroke="rgb(153,0,0)" stroke-opacity="1" stroke-width="8" fill="rgb(153,0,0)" fill-opacity="1"></path></g></g></g></g></g></g></g></svg>
</svg>
