<svg xmlns="http://www.w3.org/2000/svg" width="360.6" height="214.5" style="width:360.6px;height:214.525px;background:#fff;fill:none"><svg xmlns="http://www.w3.org/2000/svg"/><svg xmlns="http://www.w3.org/2000/svg" class="role-diagram-draw-area" style="overflow:visible"><g class="shapes-region" style="stroke:#000;fill:none"><g class="composite-shape"><path d="m172.2 121 16.2-16.1h68l16.2 16.2v30H172.2Z" class="real" style="stroke-width:1;stroke:#000;fill:#eee;fill-opacity:1"/></g><g class="composite-shape"><path d="M197.5 36.2h50v50h-50Z" class="real" style="stroke-width:1;stroke:#900;stroke-opacity:1;fill:#fae5e5;fill-opacity:1"/></g><g class="composite-shape"><defs><pattern id="_pgfigh2uix7gdg-full-view" width="11.3" height="11.3" x="0" y="0" patternTransform="rotate(45 0 0)" patternUnits="userSpaceOnUse"><path d="M0 0v11.3M5.7 0v11.3M11.3 0v11.3" style="stroke:#eee;stroke-opacity:1;stroke-width:1;fill:none"/></pattern></defs><path d="M-11.2 151.5H283V240H-11.2Z" class="real" style="stroke-width:1;stroke:#000;fill:url(#_pgfigh2uix7gdg-full-view);fill-opacity:1"/></g><g class="composite-shape"><path d="m202.7 104-.4-.6c0-4 40-4 40-2s-40 2-40-2q0-.3.5-.7" class="real" style="stroke-width:1;stroke:#000"/></g><g class="composite-shape"><path d="M34 104.4q-.3-.4-.3-.7c0-4 40-4 40-2s-40 2-40-2q0-.3.4-.7" class="real" style="stroke-width:1;stroke:#000"/></g><g class="composite-shape"><path d="m4.2 121.5 16.2-16.2h68l16.2 16.2v30H4.2Z" class="real" style="stroke-width:1;stroke:#000;fill:#eee;fill-opacity:1"/></g><g class="composite-shape"><path d="M11.3 87.2h84.5v11.3H11.3Z" class="real" style="stroke-width:1;stroke:#000;fill:#000;fill-opacity:.5"/></g><g class="composite-shape"><path d="M28.7 36.6h50v50h-50Z" class="real" style="stroke-width:1;stroke:#900;stroke-opacity:1;fill:#fae5e5;fill-opacity:1"/></g><g class="arrow-line"><path d="M44.8 90v43.5" class="connection real" style="stroke:#900;stroke-opacity:1;stroke-width:1;fill:none;fill-opacity:1"/><path fill="#900" stroke="none" d="M10.7-5.1 0 0l10.7 5.2L7.1 0Z" style="stroke:none;fill:#900;stroke-width:1" transform="rotate(90 -21.1 66)"/></g><g class="composite-shape"><path d="M180 87.2h84.5v11.2H180Z" class="real" style="stroke-width:1;stroke:#000;fill:#000;fill-opacity:.5"/></g><g class="arrow-line"><path d="M222.5 86.8v43.4" class="connection real" style="stroke:#900;stroke-opacity:1;stroke-width:1;fill:none;fill-opacity:1"/><path fill="#900" stroke="none" d="M10.7-5.1 0 0l10.7 5.2L7.1 0Z" style="stroke:none;fill:#900;stroke-width:1" transform="rotate(-90 177.9 -44.6)"/></g><g class="arrow-line"><path d="M62.4 87.5V131" class="connection real" style="stroke:#900;stroke-opacity:1;stroke-width:1;fill:none;fill-opacity:1"/><path fill="#900" stroke="none" d="M10.7-5.1 0 0l10.7 5.2L7.1 0Z" style="stroke:none;fill:#900;stroke-width:1" transform="rotate(-90 98.2 35.8)"/></g><g class="arrow-line"><path d="M222.4 151.5v43.4" class="connection real" style="stroke:#900;stroke-opacity:1;stroke-width:1;fill:none;fill-opacity:1"/><path fill="#900" stroke="none" d="M10.7-5.1 0 0l10.7 5.2L7.1 0Z" style="stroke:none;fill:#900;stroke-width:1" transform="rotate(-90 210.2 -12.3)"/></g><g class="arrow-line"><path d="M198.3 207v-52.3" class="connection real" style="stroke:#900;stroke-opacity:1;stroke-width:1;fill:none;fill-opacity:1"/><path fill="#900" stroke="none" d="M10.7-5.1 0 0l10.7 5.2L7.1 0Z" style="stroke:none;fill:#900;stroke-width:1" transform="rotate(90 23.3 175)"/></g><g class="arrow-line"><path d="m191.6 180.1 12.6-4.7" class="connection real" style="stroke:#900;stroke-width:1;fill:none;fill-opacity:1;stroke-opacity:1"/></g><g class="arrow-line"><path d="m192 184.3 12.7-4.7" class="connection real" style="stroke:#900;stroke-opacity:1;stroke-width:1;fill:none;fill-opacity:1"/></g><g class="arrow-line"><path d="M119.6 48.1v43.5" class="connection real" style="stroke:#900;stroke-opacity:1;stroke-width:1;fill:none;fill-opacity:1"/><path fill="#900" stroke="none" d="M10.7-5.1 0 0l10.7 5.2L7.1 0Z" style="stroke:none;fill:#900;stroke-width:1" transform="rotate(90 37.3 82.4)"/></g><g class="arrow-line"><path d="M119.6 94.4v43.4" class="connection real" style="stroke:#900;stroke-opacity:1;stroke-width:1;fill:none;fill-opacity:1"/><path fill="#900" stroke="none" d="M10.7-5.1 0 0l10.7 5.2L7.1 0Z" style="stroke:none;fill:#900;stroke-width:1" transform="rotate(-90 130.2 10.6)"/></g><g class="composite-shape"><path d="M118.2 93a1.4 1.4 0 1 1 2.8 0 1.4 1.4 0 0 1-2.8 0Z" class="real" style="stroke-width:1;stroke:#000;fill:#000;fill-opacity:1"/></g><g class="composite-shape"><path d="M305.5 105.2a1.4 1.4 0 1 1 2.7 0 1.4 1.4 0 0 1-2.7 0Z" class="real" style="stroke-width:1;stroke:#000;fill:#000;fill-opacity:1"/></g><g class="arrow-line"><path d="M306.9 106.6v43.5" class="connection real" style="stroke:#900;stroke-opacity:1;stroke-width:1;fill:none;fill-opacity:1"/><path fill="#900" stroke="none" d="M10.7-5.1 0 0l10.7 5.2L7.1 0Z" style="stroke:none;fill:#900;stroke-width:1" transform="rotate(-90 230 -76.9)"/></g><g class="arrow-line"><path d="M306.9 153v43.5" class="connection real" style="stroke:#900;stroke-opacity:1;stroke-width:1;fill:none;fill-opacity:1"/><path fill="#900" stroke="none" d="M10.7-5.1 0 0l10.7 5.2L7.1 0Z" style="stroke:none;fill:#900;stroke-width:1" transform="rotate(-90 253.2 -53.7)"/></g><g class="arrow-line"><path d="M306.9 103.8V13.9" class="connection real" style="stroke:#900;stroke-opacity:1;stroke-width:1;fill:none;fill-opacity:1"/><path fill="#900" stroke="none" d="M10.7-5.1 0 0l10.7 5.2L7.1 0Z" style="stroke:none;fill:#900;stroke-width:1" transform="rotate(90 148 158.9)"/></g></g></svg><svg xmlns="http://www.w3.org/2000/svg" xmlns:xlink="http://www.w3.org/1999/xlink" width="359" height="212.9" style="width:359px;height:212.92499999999998px;font-family:Asana-Math,Asana;background:#fff"><path fill="#900" stroke="#900" stroke-width=".1" d="m27.5 136.3-5.9-10h-2.8v.5h.6c.7 0 1.3.8 1.3 1l-1.6 8.5q-.2 1.3-.9 1.3h-.5l-.1.5h3.8v-.5h-.7q-.9 0-.8-.8v-.5l1.4-7.9 5.8 9.8h.8l1.6-9.4c.4-1.9.4-2 1-2h.7v-.5h-3.6l-.1.5h.8q.6 0 .6.4z"/><svg width="14.1" height="10" x="17.6" y="115.1" overflow="visible"><path d="m14 4.9-3-3.4-.6.5 2 2.4h-.2v.9h.2l-2 2.3.5.5zm-12.3.3h11.9v-.9h-12z" style="fill:#900;fill-opacity:1;stroke-width:1px;stroke:none;stroke-opacity:1"/></svg><path fill="#900" stroke="#900" stroke-width=".1" d="m31.7 142-.3 1.6q.6.3 1.3.3t1.7-.7q.9-.7.9-1.5 0-1-1.3-1.2h-.5q-1-.2-1-.9.1-1 1.3-1.1.7 0 1 .5v.7h.4l.2-1.4-1.2-.3a3 3 0 0 0-2 1q-.4.4-.4 1 0 1 1.2 1.2l.7.1q.9.2.8.8-.1 1.3-1.4 1.3-.7 0-1.2-.4v-1Zm8.3-2.2h.2l.3-1.5q-.5-.3-1.1-.3-1 0-2.1 1c-.6.6-1.1 1.9-1.1 3.1q0 1.8 1.4 1.8 1 0 2-.8l.5-.5v-.2l-.3.1q-1.1.8-1.7.8-1 0-1-1.4c0-1.3.4-2.6 1-3q.3-.3.9-.3.9 0 1 .5Zm4 1.5-.4 1.5v.7q0 .3.2.4.4 0 1.8-1.1l-.1-.3-1 .6v-.4l1-4.6h-.1l-.4.2-1-.3q-.5 0-.9.2-1 .6-1.4 1.3-1 1.8-1 3.5.1.8.5.9c.4 0 1.4-.6 2.8-2.6Zm.5-2.5q-.3 1.8-.9 2.6-1 1.6-1.8 1.7l-.2-.5c0-.8.4-2.2.8-3.1q.3-1 1.1-.9zm4.5-3.6-.2-.2q-.7.5-1.9.5v.3h.6q.4 0 .4.3v.3l-1.2 5.8-.3 1.2q0 .5.4.5.3 0 1.9-1.1l-.1-.3-.3.2-.8.4-.1-.2v-.4Zm4.2 7.2-.3.2a3 3 0 0 1-1.6.7q-1 0-1-1.1l.2-1 1.8-.5q1.4-.7 1.4-1.7t-1-1c-.8-.1-2 .7-2.5 1.6-.4.6-.7 2-.7 2.8q0 1.5 1.4 1.5.8 0 2.4-1.2Zm-2.6-1.9q.3-1.2.8-1.6.4-.3.9-.4.5 0 .6.6 0 1-1 1.4l-1.4.4Zm21-13.1 1-.1c-1 1.3-2.6 2.7-2.6 5q0 2.3 1.5 2.4t3.2-3.4l-.2 1.6q0 1.7 1.3 1.8c2.3 0 4.9-4.2 4.9-6.7q-.1-1.6-1.1-1.7l-.6.2-.8.8.2.3.4-.1q.8 0 .8 1c0 2.5-1.7 5.3-3.1 5.3q-.8 0-.9-1.6 0-1.4.4-2.6l.9-3.1-.2-.2-1.2.4-.5 2.5q-.3 1.4-1 2.7-1 2-1.8 2-1-.1-1-1.7a8 8 0 0 1 2.4-5.6l-.2-.3q-.3.3-1 .2h-1.9l-.2-.1-.5.1-.7 2h.4l.3-.7q.2-.5.9-.5z"/><svg width="13.1" height="10" x="68.8" y="115.5" overflow="visible"><path d="M13.1 4.9 10 1.4l-.5.5 1.9 2.4h-.2v.9h.2l-2 2.3.6.5zm-11.4.3h11v-.9h-11z" style="fill:#900;fill-opacity:1;stroke-width:1px;stroke:none;stroke-opacity:1"/></svg><path fill="#900" stroke="#900" stroke-width=".1" d="m84.3 131.6-.1-.1q-.7.4-2 .5v.2h.6q.4 0 .4.3v.3l-1.2 6.6q0 1 1.2 1 .7 0 1.6-.7 1.8-1.4 1.9-4 0-.7-.3-1 0-.2-.4-.2t-1 .2q-.8.4-1.7 1.7Zm1 3.6q.6 0 .5.8 0 1.3-.6 2.6-.5 1.2-1.5 1.2-.8 0-.8-.8c0-.4.1-2 1.1-3q.7-.8 1.4-.8Zm2 3.2q0 2 1.5 2a3 3 0 0 0 1.9-.9q1.1-1.2 1.2-3.2 0-1.7-1.6-1.8c-1.2 0-3 1.2-3 3.9Zm2.6-3.5q1 0 1.1 1.6c0 1.1-.4 2.4-.9 3q-.3.4-.9.4-1 0-1-1.5c0-1.3.4-2.8 1-3.3zm2.5 5.3.5.1q.7 0 1.2-.9l1-1.4v.9q.3 1.4 1 1.4l1-.5.5-.5v-.3q-.7.6-1 .6t-.4-.4-.3-1l-.2-1.2.4-.6q.8-1 1.2-1t.4.3h.2l.2-1.1-.4-.1q-.7 0-1.7 1.5l-.4.7-.1-.6q-.1-1.7-1.2-1.6-.5 0-.6.2l-.7 1 .2.1q.5-.5.8-.5.5 0 .8 1.6l.2.8-.5.7q-.8 1.2-1.2 1.2l-.4-.1-.1-.4h-.2z"/><path fill="#000" stroke="#000" stroke-width=".1" d="M42.3 160q1.3-.1 1.2.8v9h.3l.6-1c.2.4.8 1.1 2 1.1 1.7 0 3.3-1.4 3.3-3.4 0-1.9-1.5-3.4-3.2-3.4-1.2 0-1.8.8-2 1v-4.7l-2.2.1Zm2.2 8v-3l.2-.6c.5-.8 1.4-1 1.7-1q1 .1 1.6 1 .5 1.1.4 2.1a4 4 0 0 1-.4 2.2 2 2 0 0 1-1.7 1q-1 0-1.6-1zm6.5-1.4c0 1.9 1.6 3.3 3.3 3.3 1.9 0 3.4-1.4 3.4-3.3 0-2-1.5-3.5-3.3-3.5-2 0-3.4 1.6-3.4 3.5Zm1.3-.2q0-.9.3-2a2 2 0 0 1 1.7-1 2 2 0 0 1 1.7 1q.5 1 .4 2t-.3 2a2 2 0 0 1-3.5.2q-.4-1.2-.3-2.2Zm5.6 3.4h2.6v-.5q-.4 0-.4-.5t1.4-1.9l1 1.5.4.5q0 .3-.5.4v.5h3v-.5c-.8 0-1 0-1.4-.5l-2-2.5 1.4-1.7q.6-.8 1.8-.8v-.5h-2.7v.5q.4 0 .4.4l-.2.6-1 1.1-1.1-1.5-.1-.2q0-.4.5-.4v-.5h-3v.5c1 0 1 0 1.7.9l1.5 2-1.4 1.7q-1.2 1.2-2 1Z"/><path fill="#900" stroke="#900" stroke-width=".1" d="M235.4 126.7h1.8q1.6 0 1.7.4l.2 1.5h.4q0-1.6.3-2.6h-7.7v.4h1q.5 0 .5.5l-.1 1.3-1.3 7.4c-.3 1.6-.3 1.6-1 1.6l-.6.1v.5h4.4v-.5h-1q-.7 0-.6-.5v-.4l.6-3.8h4.3l.3-.7v-.1h-4.4l.8-4.5.1-.6Z"/><svg width="10.3" height="10" x="230.5" y="114.7" overflow="visible"><path d="M10.3 4.9 7 1.4l-.5.5 2 2.4h-.2v.9h.2l-2 2.3.5.5zm-8.6.3h8.1v-.9H1.7z" style="fill:#900;fill-opacity:1;stroke-width:1px;stroke:none;stroke-opacity:1"/></svg><path fill="#900" stroke="#900" stroke-width=".1" d="m243.3 134.8-.2-.1q-.7.4-1.9.5v.3h.5q.4 0 .4.2v.3l-1.2 6.6v.1q.1.8 1.2.9.7 0 1.6-.6c1.1-.8 2-2.5 2-4q0-.8-.3-1.1l-.4-.2q-.5 0-1 .3-.7.3-1.8 1.6Zm1 3.6q.5 0 .5.8 0 1.3-.6 2.6-.7 1.2-1.6 1.2-.8 0-.8-.8c0-.4.2-2 1.1-3q.7-.8 1.4-.8Zm1.9 3.2q0 2 1.5 2a3 3 0 0 0 1.9-.9q1.2-1.2 1.3-3.2 0-1.7-1.6-1.8c-1.3 0-3.1 1.2-3.1 4Zm2.6-3.5q1.2 0 1.2 1.6c0 1.1-.4 2.4-1 3q-.3.4-.8.4-1 0-1.1-1.5c0-1.3.4-2.8 1-3.3zm2.5 5.3.6.2q.5 0 1.2-1l.9-1.3.1.8q.2 1.5.9 1.5.3 0 1-.6l.6-.5-.1-.2-1 .5q-.2 0-.4-.4l-.3-1-.2-1.2.4-.6q.8-1 1.3-1 .3 0 .4.3h.1l.2-1-.4-.2q-.6 0-1.6 1.5l-.5.7v-.6q-.2-1.7-1.2-1.6-.5 0-.7.2l-.7 1 .2.1q.6-.6.8-.5.6 0 .9 1.6l.1.8-.5.7q-.7 1.2-1.2 1.2l-.3-.1-.2-.4h-.2zm-18.3 48h1c-1 1.2-2.6 2.6-2.6 5q0 2.2 1.5 2.3 1.4.1 3.2-3.4l-.2 1.6q0 1.6 1.3 1.8c2.2 0 4.8-4.2 4.8-6.7q0-1.6-1-1.7l-.6.2-.8.8.2.4.4-.2q.8 0 .8 1c0 2.5-1.7 5.4-3.1 5.4q-.8-.1-.9-1.7 0-1.4.4-2.6l.8-3.1v-.2l-1.3.4-.5 2.5q-.3 1.4-1 2.7-1 2-1.8 2-1-.1-1-1.7a8 8 0 0 1 2.4-5.6l-.2-.3q-.4.2-1 .2h-2.6l-.7 2h.4l.3-.7q.2-.4.8-.4z"/><svg width="13.1" height="10" x="230.2" y="179.5" overflow="visible"><path d="M13.1 4.9 10 1.4l-.5.5 1.9 2.4h-.2v.9h.2l-2 2.3.6.5zm-11.4.3h11v-.9h-11z" style="fill:#900;fill-opacity:1;stroke-width:1px;stroke:none;stroke-opacity:1"/></svg><path fill="#900" stroke="#900" stroke-width=".1" d="M243.3 202.5q0 .8-.3 1.5l1.3.4q.8 0 1.7-.7t.9-1.5q0-1-1.3-1.2l-.5-.1q-1-.1-1-.8.1-1 1.3-1.1.9 0 1.1.5v.7h.3l.2-1.4-1.2-.3a3 3 0 0 0-1.9 1q-.4.3-.4 1 0 .9 1.1 1.2l.8.1q.7.1.7.8-.1 1.3-1.4 1.3-.6 0-1.1-.4v-1Zm8.3-2.2h.3q0-1.1.3-1.5-.4-.3-1.2-.3-1-.1-2 1c-.7.5-1.2 1.9-1.2 3.1q0 1.7 1.5 1.8.9 0 1.9-.8l.5-.5v-.2h-.2q-1.2.8-1.8.8-1 0-1-1.4.1-2.1 1-3l1-.2q.9 0 1 .5Zm4 1.5-.4 1.5v.6q0 .4.3.4t1.7-1v-.3l-1 .5-.2-.3 1.2-4.6-.2-.1-.4.2-1-.2-.9.2q-1 .5-1.4 1.3a9 9 0 0 0-.9 3.4q0 1 .4 1 .7.1 2.8-2.6Zm.6-2.5q-.3 1.9-1 2.5-1 1.6-1.7 1.7-.2 0-.2-.5c0-.7.3-2.1.7-3q.4-1 1.2-1zm4.4-3.7-.1-.1c-.6.3-1 .4-2 .5v.3h.6q.4 0 .4.2v.3l-1.2 5.9-.2 1.2q0 .4.3.4t2-1l-.2-.3-.3.2-.7.4-.2-.3v-.3Zm4.2 7.3-.2.2a3 3 0 0 1-1.7.7q-.8 0-.9-1.2l.1-1 1.8-.5q1.5-.6 1.5-1.7 0-.9-1-1c-.8 0-2.1.8-2.6 1.7-.3.6-.7 2-.7 2.8q0 1.5 1.4 1.5.9 0 2.4-1.3Zm-2.5-2q.2-1.2.8-1.6.3-.3.8-.3t.6.6q0 .8-1 1.4l-1.3.4Zm-98.4-5.7-5.9-10h-2.7l-.1.5h.6c.7 0 1.3.8 1.3 1l-1.6 8.6c-.2 1-.3 1.1-.9 1.2h-.5v.5h3.7v-.4h-.7q-.8-.1-.8-.8v-.5l1.4-8 5.8 9.9h.8l1.6-9.4c.4-2 .4-2 1-2l.7-.1v-.5H164l-.1.5h.8q.6 0 .6.4z"/><svg width="14.1" height="10" x="154" y="174" overflow="visible"><path d="m14 4.9-3-3.4-.6.5 2 2.4h-.2v.9h.2l-2 2.3.5.5zm-12.3.3h11.9v-.9h-12z" style="fill:#900;fill-opacity:1;stroke-width:1px;stroke:none;stroke-opacity:1"/></svg><path fill="#900" stroke="#900" stroke-width=".1" d="M171.8 197.5h-.2l.3-1.3q.2-1.5 1-1.5.6 0 .9.4h.1l.3-.8v-.2l-.8-.1h-.4l-1.6 1.2q-.3.3-.5 1.3l-.2 1-1 .4v.2h1l-.2.7c-.3 2.3-.8 4.5-1 5.4q-.4 1-1 1-.4 0-.7-.3h-.1l-.3 1h.4q.8 0 1.6-.9c.8-1 1-2.1 2-6.9h1.3l.2-.6v-.1zm5.4-3.4-.1-.1q-.7.4-2 .5v.2h.6q.4 0 .4.3v.3l-1.2 5.8-.2 1.2q0 .5.3.5t2-1.1l-.2-.2-.3.2-.7.3-.2-.2v-.4Zm.5 6.8q0 1.9 1.6 2a3 3 0 0 0 1.9-.9q1.1-1.2 1.2-3.3 0-1.6-1.6-1.7c-1.2 0-3 1.1-3 3.9Zm2.7-3.5q1 0 1.1 1.5 0 2-.9 3-.3.5-.9.5-1 0-1-1.5c0-1.4.4-2.8 1-3.3zm2.6 3.5q0 1.9 1.5 2a3 3 0 0 0 2-.9q1.1-1.2 1.2-3.3 0-1.6-1.6-1.7c-1.2 0-3.1 1.1-3.1 3.9Zm2.7-3.5q1 0 1 1.5 0 2-.8 3-.3.5-.9.5-1 0-1-1.5c0-1.4.4-2.8 1-3.3zm6.8 1 .1-1.4h-.2q-.5 0-1.2.8l-1 1.8.3-1.8v-.5q0-.3-.2-.3t-1.6.8l-.3.3v.2l.4-.2.6-.3q.2 0 .2.2c0 .7-.5 3.2-1 4.7h.9l.4-1.5q.2-1.4 1-2.3.6-.8 1-.8l.4.2Z"/></svg></svg>