<svg xmlns="http://www.w3.org/2000/svg" width="315.6" height="112.6" style="width:315.6000061035156px;height:112.5999984741211px;background:#fff;fill:none"><svg xmlns="http://www.w3.org/2000/svg"/><svg xmlns="http://www.w3.org/2000/svg" class="role-diagram-draw-area"><g class="shapes-region" style="stroke:#000;fill:none"><g class="composite-shape"><defs><pattern id="_pgfe7949ts6e" width="11.314" height="11.314" x="0" y="0" patternTransform="rotate(45 0 0)" patternUnits="userSpaceOnUse"><path d="M0 0v11.314M5.657 0v11.314M11.314 0v11.314" style="stroke:#eee;stroke-opacity:1;stroke-width:1;fill:none"/></pattern></defs><path d="M-29 73.3h152.97v40H-29Z" class="real" style="stroke-width:1;stroke:#000;fill:url(#_pgfe7949ts6e);fill-opacity:1"/></g><g class="composite-shape"><defs><pattern id="_pgfstz9fni5p" width="11.314" height="11.314" x="0" y="0" patternTransform="rotate(45 0 0)" patternUnits="userSpaceOnUse"><path d="M0 0v11.314M5.657 0v11.314M11.314 0v11.314" style="stroke:#f5eaea;stroke-opacity:1;stroke-width:1;fill:none"/></pattern></defs><path d="M40.5 11.92h61.28V73.2H40.5Z" class="real" style="stroke-width:1;stroke:#900;stroke-opacity:1;fill:url(#_pgfstz9fni5p);fill-opacity:1"/></g><g class="arrow-line"><path d="M60.15 73.45v19.6" class="connection real" style="stroke:#900;stroke-opacity:1;stroke-width:1;fill:none;fill-opacity:1"/><path fill="#900" stroke="none" d="M10.72-5.15 0 0l10.72 5.15L7.12 0Z" style="stroke:none;fill:#900;stroke-width:1" transform="rotate(-90 78.1 17.95)"/></g><g class="arrow-line"><path d="M80.95 53.6v19.6" class="connection real" style="stroke:#900;stroke-opacity:1;stroke-width:1;fill:none;fill-opacity:1"/><path fill="#900" stroke="none" d="M10.72-5.15 0 0l10.72 5.15L7.12 0Z" style="stroke:none;fill:#900;stroke-width:1" transform="rotate(90 15.175 65.775)"/></g><g class="composite-shape"><defs><pattern id="_pgfmnx8t41jq" width="11.314" height="11.314" x="0" y="0" patternTransform="rotate(45 0 0)" patternUnits="userSpaceOnUse"><path d="M0 0v11.314M5.657 0v11.314M11.314 0v11.314" style="stroke:#f5eaea;stroke-opacity:1;stroke-width:1;fill:none"/></pattern></defs><path d="M261.67 16.48h6.5v6.5h-6.5Z" class="real" style="stroke-width:1;stroke:#900;stroke-opacity:1;fill:url(#_pgfmnx8t41jq);fill-opacity:1"/></g><g class="composite-shape"><defs><pattern id="_pgf8jmxxlv5i" width="11.314" height="11.314" x="0" y="0" patternTransform="rotate(45 0 0)" patternUnits="userSpaceOnUse"><path d="M0 0v11.314M5.657 0v11.314M11.314 0v11.314" style="stroke:#eee;stroke-opacity:1;stroke-width:1;fill:none"/></pattern></defs><path d="M225.39 63.06c0-21.94 17.78-39.73 39.72-39.73s39.72 17.79 39.72 39.73c0 21.93-17.78 39.72-39.72 39.72s-39.72-17.79-39.72-39.72Z" class="real" style="stroke-width:1;stroke:#000;fill:url(#_pgf8jmxxlv5i);fill-opacity:1"/></g><g class="arrow-line"><path d="M265.11 19.73v19.6" class="connection real" style="stroke:#900;stroke-opacity:1;stroke-width:1;fill:none;fill-opacity:1"/><path fill="#900" stroke="none" d="M10.72-5.15 0 0l10.72 5.15L7.12 0Z" style="stroke:none;fill:#900;stroke-width:1" transform="rotate(-90 153.722 -111.389)"/></g><g class="arrow-line"><path d="M265.11 63.06V45.33" class="connection real" style="stroke:#900;stroke-opacity:1;stroke-width:1;fill:none;fill-opacity:1"/><path fill="#900" stroke="none" d="M10.72-5.15 0 0l10.72 5.15L7.12 0Z" style="stroke:none;fill:#900;stroke-width:1" transform="rotate(90 111.389 153.722)"/></g><g class="arrow-line"><path d="M214.2 34.5c17.4 14.45 15.4-24.79 45.28-6.86" class="connection real" style="stroke:#900;stroke-opacity:1;stroke-width:1;fill:none;fill-opacity:1"/><path stroke="#900" d="M10.93-3.29Q4.96-.45 0 0q4.96.45 10.93 3.29" style="stroke:#900;stroke-width:1" transform="rotate(212.55 134.594 -23.83)"/></g><g class="arrow-line"><path d="M194.87 70.17c17.07-21.67 39.32 14.22 66.74-10.82" class="connection real" style="stroke:#900;stroke-opacity:1;stroke-width:1;fill:none;fill-opacity:1"/><path stroke="#900" d="M10.93-3.29Q4.96-.45 0 0q4.96.45 10.93 3.29" style="stroke:#900;stroke-width:1" transform="rotate(135.69 119.591 82.6)"/></g></g></svg><svg xmlns="http://www.w3.org/2000/svg" xmlns:xlink="http://www.w3.org/1999/xlink" width="314" height="111" style="width:314px;height:111px;font-family:Asana-Math,Asana;background:#fff"><path fill="#900" stroke="#900" stroke-width=".136" d="m72.462 90.418 1.802-.068c1.054 0 1.734.153 1.751.408l.136 1.513h.408c.051-1.071.17-1.938.357-2.584-.374-.034-.85-.051-1.139-.051l-.697.017-2.805.034h-.493c-.425 0-1.105-.017-1.751-.034l-.833-.017-.051.476.952.034c.408.017.595.17.595.459 0 .238-.068.782-.153 1.292l-1.275 7.378c-.289 1.564-.289 1.581-.986 1.649l-.612.051-.068.476.578-.017c.68-.017 1.224-.034 1.581-.034.306 0 .799.017 1.462.034l.884.017.051-.476-1.088-.051c-.459-.017-.612-.153-.612-.493 0-.102.017-.289.034-.357l.612-3.791h1.989c.459 0 .986.017 1.802.051l.442.017.323-.765-.068-.119a70 70 0 0 1-3.723.102h-.629l.782-4.607c.051-.272.068-.357.153-.544Z"/><svg width="10.288" height="10" x="67.6" y="78.4" overflow="visible"><path d="M10.29 4.85 7.14 1.53l-.49.52 1.93 2.33h-.15v.9h.15L6.65 7.61l.49.52zm-8.61.38h8.15v-.9H1.68z" style="fill:#900;fill-opacity:1;stroke-width:1px;stroke:none;stroke-opacity:1"/></svg><path fill="#900" stroke="#900" stroke-width=".095" d="m80.334 98.508-.143-.13c-.619.309-1.047.416-1.904.5l-.047.249h.57c.286 0 .405.083.405.286 0 .083-.011.214-.023.285l-1.202 6.557c-.012.036-.012.083-.012.12 0 .463.571.856 1.226.856.44 0 1.047-.226 1.558-.595 1.143-.81 1.928-2.44 1.928-4.01 0-.453-.107-.917-.25-1.095-.083-.107-.238-.167-.416-.167-.286 0-.643.095-.976.262-.607.321-1 .678-1.737 1.618Zm1.035 3.546c.31 0 .464.274.464.857 0 .762-.25 1.785-.606 2.559-.393.82-.87 1.202-1.512 1.202-.547 0-.845-.274-.845-.774 0-.404.179-2.082 1.143-3.094.392-.404 1.011-.75 1.356-.75Zm1.869 3.237c0 1.262.535 1.94 1.523 1.94.654 0 1.368-.31 1.904-.81.738-.701 1.261-2.058 1.261-3.26 0-1.118-.595-1.797-1.582-1.797-1.238 0-3.106 1.19-3.106 3.927Zm2.665-3.475c.726 0 1.119.536 1.119 1.536 0 1.142-.37 2.403-.893 3.034a1.14 1.14 0 0 1-.892.393c-.69 0-1.095-.536-1.095-1.476 0-1.345.464-2.808 1.047-3.284.155-.131.429-.203.714-.203Zm2.511 5.272c.179.095.369.143.512.143.393 0 .857-.345 1.226-.904l.904-1.393.13.821c.156 1.012.43 1.476.858 1.476.261 0 .642-.202 1.023-.547l.583-.524-.107-.226c-.428.357-.726.535-.916.535-.179 0-.333-.119-.452-.357a4.7 4.7 0 0 1-.298-1.011l-.214-1.202.416-.583c.56-.774.88-1.047 1.25-1.047.19 0 .333.095.393.273l.166-.047.179-1.012c-.143-.083-.25-.119-.357-.119-.476 0-.952.429-1.69 1.523l-.44.655-.072-.571c-.143-1.178-.464-1.607-1.166-1.607-.31 0-.571.095-.678.25l-.69.988.202.119c.357-.405.595-.571.82-.571.394 0 .655.488.858 1.654l.13.738-.475.737c-.512.798-.917 1.178-1.25 1.178-.178 0-.31-.047-.333-.107l-.131-.333-.238.036c0 .416-.095.726-.143 1.035Z"/><path fill="#900" stroke="#900" stroke-width=".136" d="m75.494 47.649-5.865-10.013h-2.754l-.085.476.595.034c.765.034 1.343.799 1.36.952l-1.581 8.568c-.204 1.054-.306 1.19-.918 1.258l-.527.051-.085.476 1.887-.051c.204 0 .221 0 1.87.051l.085-.476-.714-.051c-.68-.051-.833-.187-.833-.748 0-.136.017-.323.051-.51l1.36-7.888 5.746 9.809h.85l1.598-9.401c.357-1.921.391-1.989 1.02-2.04l.629-.034.051-.459-3.621-.017-.085.476.799.034c.442.017.612.136.612.408 0 .119-1.411 8.874-1.445 9.095Z"/><svg width="14.063" height="10" x="65.6" y="26.4" overflow="visible"><path d="m14.06 4.85-3.15-3.32-.49.52 1.93 2.33h-.15v.9h.15l-1.93 2.33.49.52zm-12.38.38H13.6v-.9H1.68z" style="fill:#900;fill-opacity:1;stroke-width:1px;stroke:none;stroke-opacity:1"/></svg><path fill="#900" stroke="#900" stroke-width=".136" d="M201.102 31.66c.357 0 .578-.017 1.003-.068-.935 1.258-2.618 2.686-2.618 5.066 0 1.394.595 2.329 1.496 2.329 1.088 0 1.972-.935 3.23-3.366-.153.748-.204 1.173-.204 1.564 0 1.071.493 1.802 1.258 1.802 2.278 0 4.879-4.233 4.879-6.715 0-.969-.442-1.666-1.054-1.666-.221 0-.425.068-.561.204l-.85.799.187.323a.8.8 0 0 1 .459-.153c.459 0 .73.391.73 1.071 0 2.465-1.648 5.287-3.093 5.287-.493 0-.85-.68-.85-1.615 0-.799.153-1.921.357-2.652l.884-3.128-.12-.136-1.257.374-.493 2.533c-.204 1.054-.442 1.734-.935 2.652-.68 1.275-1.326 1.972-1.836 1.972-.595 0-.986-.663-.986-1.649 0-2.023.697-3.672 2.38-5.576l-.17-.306c-.34.153-.561.204-1.037.204s-1.19-.034-1.683-.085l-.204-.017c-.102-.017-.187-.017-.204-.017-.204 0-.357.034-.544.119-.238.459-.425 1.071-.646 2.006h.374l.289-.714c.119-.289.459-.476.867-.476.578 0 .289.034.952.034Z"/><svg width="13.113" height="10" x="198.263" y="19.8" overflow="visible"><path d="M13.11 4.85 9.96 1.53l-.49.52 1.93 2.33h-.15v.9h.15L9.47 7.61l.49.52zm-11.43.38h10.97v-.9H1.68z" style="fill:#900;fill-opacity:1;stroke-width:1px;stroke:none;stroke-opacity:1"/></svg><path fill="#900" stroke="#900" stroke-width=".136" d="m169.787 56.48 1.802-.067c1.054 0 1.734.153 1.751.408l.136 1.513h.408c.051-1.071.17-1.938.357-2.584-.374-.034-.85-.051-1.139-.051l-.697.017-2.805.034h-.493c-.425 0-1.105-.017-1.751-.034l-.833-.017-.051.476.952.034c.408.017.595.17.595.459 0 .238-.068.782-.153 1.292l-1.275 7.378c-.289 1.564-.289 1.58-.986 1.649l-.612.05-.068.477.578-.017c.68-.017 1.224-.034 1.581-.034.306 0 .799.017 1.462.034l.884.017.051-.476-1.088-.051c-.459-.017-.612-.153-.612-.493 0-.102.017-.29.034-.357l.612-3.791h1.989c.459 0 .986.017 1.802.05l.442.018.323-.765-.068-.12a70 70 0 0 1-3.723.103h-.629l.782-4.607c.051-.272.068-.357.153-.544Z"/><svg width="10.288" height="10" x="164.925" y="44.463" overflow="visible"><path d="M10.29 4.85 7.14 1.53l-.49.52 1.93 2.33h-.15v.9h.15L6.65 7.61l.49.52zm-8.61.38h8.15v-.9H1.68z" style="fill:#900;fill-opacity:1;stroke-width:1px;stroke:none;stroke-opacity:1"/></svg><path fill="#900" stroke="#900" stroke-width=".095" d="m177.659 64.57-.143-.13c-.619.31-1.047.416-1.904.5l-.047.25h.57c.286 0 .405.083.405.285 0 .083-.012.214-.023.286l-1.202 6.557c-.012.035-.012.083-.012.119 0 .464.571.856 1.225.856.44 0 1.048-.226 1.56-.595 1.142-.809 1.927-2.44 1.927-4.01 0-.452-.107-.916-.25-1.095-.083-.107-.238-.166-.416-.166-.286 0-.643.095-.976.262-.607.32-1 .678-1.737 1.618Zm1.035 3.547c.31 0 .464.274.464.857 0 .761-.25 1.785-.607 2.558-.392.821-.868 1.202-1.51 1.202-.548 0-.846-.274-.846-.773 0-.405.179-2.083 1.143-3.094.392-.405 1.011-.75 1.356-.75Zm1.869 3.237c0 1.261.535 1.94 1.523 1.94.654 0 1.368-.31 1.904-.81.738-.702 1.261-2.058 1.261-3.26 0-1.119-.595-1.797-1.583-1.797-1.237 0-3.105 1.19-3.105 3.927Zm2.665-3.475c.726 0 1.119.535 1.119 1.535 0 1.142-.37 2.404-.893 3.035a1.14 1.14 0 0 1-.892.392c-.69 0-1.095-.535-1.095-1.475 0-1.345.464-2.809 1.047-3.285.155-.13.429-.202.714-.202Zm2.511 5.272c.179.095.369.142.512.142.392 0 .857-.345 1.225-.904l.905-1.392.13.82c.155 1.012.43 1.476.858 1.476.261 0 .642-.202 1.023-.547l.583-.524-.107-.226c-.428.357-.726.536-.916.536-.179 0-.334-.12-.453-.357a4.7 4.7 0 0 1-.297-1.012l-.214-1.202.416-.583c.56-.773.88-1.047 1.25-1.047.19 0 .333.095.392.274l.167-.048.179-1.011c-.143-.084-.25-.12-.357-.12-.476 0-.952.43-1.69 1.524l-.44.654-.072-.57c-.143-1.179-.464-1.607-1.166-1.607-.31 0-.571.095-.678.25l-.69.987.202.12c.357-.405.595-.572.82-.572.393 0 .655.488.858 1.654l.13.738-.476.738c-.511.797-.916 1.178-1.249 1.178-.179 0-.31-.048-.333-.107l-.131-.333-.238.035c0 .417-.095.726-.143 1.036Z"/></svg></svg>