<svg xmlns="http://www.w3.org/2000/svg" width="161.6" height="240.2" style="width:161.60000610351562px;height:240.1999969482422px;background:#fff;fill:none"><svg xmlns="http://www.w3.org/2000/svg"/><svg xmlns="http://www.w3.org/2000/svg" class="role-diagram-draw-area"><g class="shapes-region" style="stroke:#000;fill:none"><g class="composite-shape"><path d="M22 45.52c0-3.77 3.05-6.82 6.82-6.82h20.46c3.77 0 6.82 3.05 6.82 6.82v79.71c0 3.77-3.05 6.82-6.82 6.82H28.82c-3.77 0-6.82-3.05-6.82-6.82Z" class="real" style="stroke-width:1;stroke:#000;fill:#eee;fill-opacity:1"/></g><g class="composite-shape"><defs><pattern id="_pgf58tp66kg9" width="11.314" height="11.314" x="0" y="0" patternTransform="rotate(45 0 0)" patternUnits="userSpaceOnUse"><path d="M0 0v11.314M5.657 0v11.314M11.314 0v11.314" style="stroke:#000;stroke-opacity:1;stroke-width:1;fill:none"/></pattern></defs><path d="M-13.5-24h387.2v40H-13.5Z" class="real" style="stroke-width:1;stroke:#000;fill:url(#_pgf58tp66kg9);fill-opacity:1"/></g><g class="composite-shape"><path d="M31.05 50.07c0-1.76 1.43-3.2 3.2-3.2h9.6c1.77 0 3.2 1.44 3.2 3.2v70.6c0 1.77-1.43 3.2-3.2 3.2h-9.6c-1.77 0-3.2-1.43-3.2-3.2Z" class="real" style="stroke-width:1;stroke:#000;fill:#fff;fill-opacity:1"/></g><g class="composite-shape"><path d="M44.4 47.03c.07.24.1.5.1.78 0 5-11.2 5-11.2 3s11.2-2 11.2 3-11.2 5-11.2 3 11.2-2 11.2 3-11.2 5-11.2 3 11.2-2 11.2 3-11.2 5-11.2 3 11.2-2 11.2 3-11.2 5-11.2 3 11.2-2 11.2 3-11.2 5-11.2 3 11.2-2 11.2 3-11.2 5-11.2 3 11.2-2 11.2 3-11.2 5-11.2 3 11.2-2 11.2 3-11.2 5-11.2 3 11.2-2 11.2 3-11.2 5-11.2 3 11.2-2 11.2 3-11.2 5-11.2 3 11.2-2 11.2 3-11.2 5-11.2 3 11.2-2 11.2 3c0 2.06-1.9 3.27-4.13 3.84" class="real" style="stroke-width:1;stroke:#000"/></g><g class="composite-shape"><path stroke="none" d="M25.08 146.89c2.59-4.54 7.48-7.59 13.08-7.59 8.33 0 15.08 6.75 15.08 15.07 0 8.33-6.75 15.08-15.08 15.08-3.89 0-7.44-1.48-10.11-3.9l10.11-11.18Z" class="real" style="stroke-width:1;stroke:none;fill:none;fill-opacity:1"/><path d="M25.08 146.89c2.59-4.54 7.48-7.59 13.08-7.59 8.33 0 15.08 6.75 15.08 15.07 0 8.33-6.75 15.08-15.08 15.08-3.89 0-7.44-1.48-10.11-3.9" class="real" style="stroke-width:1;stroke:#000;fill:none;fill-opacity:1"/></g><g class="arrow-line"><path d="M38.75 132.28v6.75" class="connection real" style="stroke:#000;stroke-width:1;fill:none;fill-opacity:1"/></g><g class="composite-shape"><path d="M13.55 199.85c0-13.81 11.19-25 25-25s25 11.19 25 25-11.19 25-25 25-25-11.19-25-25Z" class="real" style="stroke-width:1;stroke:#900;stroke-opacity:1;fill:#900;fill-opacity:1"/></g><g class="composite-shape"><path d="M33.64 169.94c0-2.72 2.2-4.91 4.91-4.91s4.91 2.19 4.91 4.91c0 2.71-2.2 4.91-4.91 4.91s-4.91-2.2-4.91-4.91Z" class="real" style="stroke-width:1;stroke:#000;fill:none;fill-opacity:1"/></g><g class="arrow-line"><path d="M38.75 16v22.23" class="connection real" style="stroke:#000;stroke-width:1;fill:none;fill-opacity:1"/></g><g class="composite-shape"><path d="M93.8 83.68a2.121 2.121 0 0 1 4.24 0 2.121 2.121 0 0 1-4.24 0Z" class="real" style="stroke-width:1;stroke:#000;fill:#000;fill-opacity:1"/></g><g class="arrow-line"><path d="M95.92 85.8v46.12" class="connection real" style="stroke:#900;stroke-opacity:1;stroke-width:1;fill:none;fill-opacity:1"/><path fill="#900" stroke="none" d="M10.72-5.15 0 0l10.72 5.15L7.12 0Z" style="stroke:none;fill:#900;stroke-width:1" transform="rotate(-90 115.42 19.5)"/></g><g class="arrow-line"><path d="M95.92 35.44v46.12" class="connection real" style="stroke:#900;stroke-opacity:1;stroke-width:1;fill:none;fill-opacity:1"/><path fill="#900" stroke="none" d="M10.72-5.15 0 0l10.72 5.15L7.12 0Z" style="stroke:none;fill:#900;stroke-width:1" transform="rotate(90 31.74 64.18)"/></g></g></svg><svg xmlns="http://www.w3.org/2000/svg" xmlns:xlink="http://www.w3.org/1999/xlink" width="160" height="238.6" style="width:160px;height:238.60000610351562px;font-family:Asana-Math,Asana;background:#fff"><path fill="#fff" stroke="#fff" stroke-width=".136" d="m44.354 204.899-.442.289c-.493.323-.867.51-1.037.51-.12 0-.221-.153-.221-.34 0-.17.034-.323.119-.68l1.275-5.049c.068-.289.119-.561.119-.697 0-.289-.17-.476-.442-.476-.493 0-1.14.306-2.176 1.037-1.071.765-1.666 1.36-2.5 2.533l.51-2.329c.069-.34.12-.595.12-.714 0-.323-.17-.527-.442-.527-.51 0-1.292.374-2.227 1.088-.748.578-1.088.935-2.193 2.431l.56-2.261a3 3 0 0 0 .103-.731c0-.323-.153-.527-.391-.527-.357 0-1.003.357-2.261 1.258l-.476.34.119.34c.629-.391 1.224-.782 1.343-.782.187 0 .306.17.306.425 0 .867-.697 4.148-1.394 6.579l.05.187 1.157-.255.374-1.734c.408-1.887.867-2.89 1.802-3.91.714-.782 1.479-1.292 1.955-1.292.119 0 .187.136.187.357 0 .595-.374 2.533-1.071 5.508l-.272 1.139.085.187 1.173-.255.357-1.819c.272-1.377.85-2.652 1.598-3.485.935-1.037 1.785-1.632 2.329-1.632.136 0 .22.153.22.425 0 .408-.05.646-.424 2.125-.68 2.703-.952 3.06-.952 3.961 0 .425.187.68.51.68.442 0 1.054-.357 2.72-1.598Z"/><path fill="#900" stroke="#900" stroke-width=".136" d="M107.439 137.21c.357 0 .578-.017 1.003-.068-.935 1.258-2.618 2.686-2.618 5.066 0 1.394.595 2.329 1.496 2.329 1.088 0 1.972-.935 3.23-3.366-.153.748-.204 1.173-.204 1.564 0 1.071.493 1.802 1.258 1.802 2.278 0 4.879-4.233 4.879-6.715 0-.969-.442-1.666-1.054-1.666-.221 0-.425.068-.561.204l-.85.799.187.323a.8.8 0 0 1 .459-.153c.459 0 .731.391.731 1.071 0 2.465-1.649 5.287-3.094 5.287-.493 0-.85-.68-.85-1.615 0-.799.153-1.921.357-2.652l.884-3.128-.119-.136-1.258.374-.493 2.533c-.204 1.054-.442 1.734-.935 2.652-.68 1.275-1.326 1.972-1.836 1.972-.595 0-.986-.663-.986-1.649 0-2.023.697-3.672 2.38-5.576l-.17-.306c-.34.153-.561.204-1.037.204s-1.19-.034-1.683-.085l-.204-.017c-.102-.017-.187-.017-.204-.017-.204 0-.357.034-.544.119-.238.459-.425 1.071-.646 2.006h.374l.289-.714c.119-.289.459-.476.867-.476.578 0 .289.034.952.034Z"/><svg width="13.113" height="10" x="104.6" y="125.35" overflow="visible"><path d="M13.11 4.85 9.96 1.53l-.49.52 1.93 2.33h-.15v.9h.15L9.47 7.61l.49.52zm-11.43.38h10.97v-.9H1.68z" style="fill:#900;fill-opacity:1;stroke-width:1px;stroke:none;stroke-opacity:1"/></svg><path fill="#900" stroke="#900" stroke-width=".095" d="m120.159 141.458-.143-.13c-.619.309-1.047.416-1.904.5l-.047.249h.57c.286 0 .405.083.405.286 0 .083-.012.214-.023.285l-1.202 6.557c-.012.036-.012.083-.012.12 0 .463.571.856 1.225.856.44 0 1.048-.226 1.56-.595 1.142-.81 1.927-2.44 1.927-4.01 0-.453-.107-.917-.25-1.095-.083-.107-.238-.167-.416-.167-.286 0-.643.095-.976.262-.607.321-1 .678-1.737 1.618Zm1.035 3.546c.31 0 .464.274.464.857 0 .762-.25 1.785-.607 2.559-.392.82-.868 1.202-1.51 1.202-.548 0-.846-.274-.846-.774 0-.404.179-2.082 1.143-3.094.392-.404 1.011-.75 1.356-.75Zm4.891 2.618-.345 1.512a2.7 2.7 0 0 0-.071.607c0 .261.107.416.285.416.274 0 .762-.31 1.738-1.118l-.084-.25c-.285.238-.63.559-.892.559-.107 0-.179-.107-.179-.274 0-.06 0-.095.012-.13l1.095-4.51-.119-.108-.393.214c-.488-.178-.69-.226-1.011-.226-.333 0-.571.06-.893.214-.737.37-1.13.726-1.428 1.31-.523 1.059-.892 2.487-.892 3.415 0 .523.178.928.404.928.44 0 1.393-.619 2.773-2.559Zm.571-2.499c-.261 1.298-.488 1.916-.892 2.535-.678 1-1.404 1.69-1.785 1.69-.143 0-.214-.155-.214-.476 0-.762.333-2.154.75-3.106.285-.654.559-.869 1.13-.869.274 0 .488.048 1.011.226Zm4.463-3.665-.143-.13c-.619.309-1.047.416-1.904.5l-.048.249h.572c.285 0 .404.083.404.262 0 .036 0 .095-.035.31-.131.654-1 5.235-1.179 5.83-.154.595-.226.952-.226 1.202 0 .298.131.476.357.476.31 0 .738-.25 1.904-1.118l-.119-.215-.309.203c-.345.226-.607.357-.726.357-.083 0-.155-.12-.155-.238 0-.072.012-.155.048-.334Zm3.296 0-.143-.13c-.618.309-1.047.416-1.904.5l-.047.249h.571c.286 0 .405.083.405.262 0 .036 0 .095-.036.31-.131.654-1 5.235-1.178 5.83-.155.595-.226.952-.226 1.202 0 .298.13.476.357.476.31 0 .737-.25 1.904-1.118l-.12-.215-.309.203c-.345.226-.607.357-.726.357-.083 0-.154-.12-.154-.238 0-.072.012-.155.047-.334Z"/><path fill="#900" stroke="#900" stroke-width=".136" d="m110.262 36.168 1.802-.068c1.054 0 1.734.153 1.751.408l.136 1.513h.408c.051-1.071.17-1.938.357-2.584-.374-.034-.85-.051-1.139-.051l-.697.017-2.805.034h-.493c-.425 0-1.105-.017-1.751-.034l-.833-.017-.051.476.952.034c.408.017.595.17.595.459 0 .238-.068.782-.153 1.292l-1.275 7.378c-.289 1.564-.289 1.581-.986 1.649l-.612.051-.068.476.578-.017c.68-.017 1.224-.034 1.581-.034.306 0 .799.017 1.462.034l.884.017.051-.476-1.088-.051c-.459-.017-.612-.153-.612-.493 0-.102.017-.289.034-.357l.612-3.791h1.989c.459 0 .986.017 1.802.051l.442.017.323-.765-.068-.119a70 70 0 0 1-3.723.102h-.629l.782-4.607c.051-.272.068-.357.153-.544Z"/><svg width="10.288" height="10" x="105.4" y="24.15" overflow="visible"><path d="M10.29 4.85 7.14 1.53l-.49.52 1.93 2.33h-.15v.9h.15L6.65 7.61l.49.52zm-8.61.38h8.15v-.9H1.68z" style="fill:#900;fill-opacity:1;stroke-width:1px;stroke:none;stroke-opacity:1"/></svg><path fill="#900" stroke="#900" stroke-width=".095" d="M115.706 51.089a10.6 10.6 0 0 1-.261 1.57c.452.215.856.322 1.273.322.583 0 1.13-.214 1.737-.69s.857-.917.857-1.512c0-.642-.38-.987-1.261-1.154l-.512-.095c-.714-.131-.94-.333-.94-.821 0-.63.535-1.119 1.214-1.119.488 0 .94.214 1.13.536v.654h.274c.048-.416.095-.738.226-1.345-.464-.226-.797-.32-1.19-.32-.619 0-1.345.356-1.916.927-.31.322-.44.62-.44 1.048 0 .666.369 1.047 1.154 1.201l.75.143c.523.095.714.31.714.774 0 .773-.548 1.297-1.392 1.297-.417 0-.786-.131-1.12-.417v-1Zm6.343 1.892c.667 0 2.035-.869 2.547-1.619.488-.725.892-2.034.892-2.927 0-.797-.273-1.32-.702-1.32-.5 0-1.13.309-1.75.868-.487.416-.725.726-1.153 1.428l.285-1.416c.036-.203.06-.381.06-.524 0-.226-.096-.357-.262-.357-.25 0-.702.25-1.583.88l-.333.239.083.238.381-.25c.333-.214.464-.274.571-.274.12 0 .203.107.203.274 0 .095-.024.333-.048.452l-.69 4.082a62 62 0 0 1-.583 2.868l-.096.44.084.071a5 5 0 0 1 .868-.202l.5-3.118c.25.084.512.167.726.167Zm-.393-2.095c.262-1.523 1.536-3.082 2.523-3.082.31 0 .452.262.452.81 0 .963-.476 2.38-1.106 3.284-.238.345-.62.524-1.107.524a1.76 1.76 0 0 1-.976-.274Zm8.616-2.38c.036-.452.095-.833.19-1.32-.13-.06-.178-.072-.238-.072-.368 0-.737.286-1.166.893-.464.666-.928 1.38-1.118 1.797l.38-1.81c.048-.202.072-.356.072-.499 0-.238-.095-.38-.274-.38-.25 0-.702.25-1.583.88l-.333.238.084.238.38-.25c.334-.214.464-.274.572-.274.119 0 .202.107.202.262 0 .69-.512 3.142-.988 4.665l.12.083c.178-.06.368-.095.642-.155l.154-.023.31-1.428c.214-.988.488-1.619 1.011-2.297.405-.524.726-.774.988-.774.179 0 .298.06.428.226Zm.643-.273.083.238.38-.25c.441-.274.477-.298.56-.298.119 0 .214.12.214.274 0 .083-.047.357-.095.524l-.785 2.856c-.096.369-.155.69-.155.916 0 .286.13.464.357.464.31 0 .738-.25 1.904-1.119l-.12-.214-.308.203c-.346.226-.62.357-.726.357-.084 0-.155-.12-.155-.238 0-.12.024-.227.083-.476l.917-3.618c.047-.202.07-.333.07-.428 0-.203-.106-.31-.297-.31-.261 0-.702.25-1.594.88Zm2.308-3.856c-.345 0-.69.393-.69.797 0 .298.179.488.464.488.369 0 .655-.345.655-.797 0-.286-.179-.488-.429-.488Zm.869 3.856.083.238.381-.25c.44-.274.476-.298.56-.298.13 0 .214.12.214.298 0 .607-.488 2.903-.976 4.605l.083.131c.298-.083.571-.155.833-.202.226-1.5.476-2.273 1.023-3.094.643-1 1.536-1.738 2.071-1.738.13 0 .202.107.202.286 0 .214-.035.464-.13.845l-.62 2.523c-.106.44-.154.714-.154.904 0 .298.13.476.357.476.31 0 .738-.25 1.904-1.119l-.12-.214-.308.203c-.346.226-.607.357-.726.357-.084 0-.155-.108-.155-.238 0-.06.012-.19.024-.238l.785-3.285c.083-.345.131-.678.131-.88 0-.274-.13-.429-.369-.429-.5 0-1.32.452-2.023 1.107-.452.416-.785.821-1.404 1.69l.452-1.916c.048-.214.072-.357.072-.488 0-.25-.096-.393-.274-.393-.25 0-.714.262-1.583.88Zm9.591-1.119c-.797 0-2.618.75-2.618 2.654 0 .916.536 1.464 1.452 1.464.095 0 .226 0 .357-.012l-.488.452c-.19.178-.321.393-.321.56q0 .178.25.392c-.821.274-2.344.797-2.344 2.118 0 .845.833 1.392 2.13 1.392 1.535 0 2.88-.856 2.88-1.844 0-.429-.25-.857-.762-1.273l-.714-.584c-.405-.32-.56-.547-.56-.773 0-.167.179-.333.322-.547 1.166-.286 2.01-1.274 2.01-2.333 0-.178-.035-.404-.047-.452.203.024.298.024.405.024.202 0 .321-.012.595-.048l.107-.535-.036-.072c-.333.084-.57.107-1.213.107 0-.012-.286-.69-1.405-.69Zm-1.178 5.724.917.702c.547.429.773.75.773 1.143 0 .618-.821 1.118-1.809 1.118-.976 0-1.654-.5-1.654-1.226 0-1.213 1.31-1.594 1.773-1.737Zm.88-5.32c.691 0 1.036.43 1.036 1.274 0 1.226-.571 2.059-1.404 2.059-.726 0-1.107-.488-1.107-1.428 0-1.13.607-1.904 1.476-1.904Z"/></svg></svg>