<svg xmlns="http://www.w3.org/2000/svg" width="224.6" height="122.725" style="width:224.60000610351562px;height:122.7249984741211px;background:#fff;fill:none"><svg xmlns="http://www.w3.org/2000/svg"/><svg xmlns="http://www.w3.org/2000/svg" class="role-diagram-draw-area"><g class="shapes-region" style="stroke:#000;fill:none"><g class="composite-shape"><defs><pattern id="_pgfh59d96co4" width="11.314" height="11.314" x="0" y="0" patternTransform="rotate(45 0 0)" patternUnits="userSpaceOnUse"><path d="M0 0v11.314M5.657 0v11.314M11.314 0v11.314" style="stroke:#eee;stroke-opacity:1;stroke-width:1;fill:none"/></pattern></defs><path d="M-18.3 59.22h156.5v89.5H-18.3Z" class="real" style="stroke-width:1;stroke:#000;fill:url(#_pgfh59d96co4);fill-opacity:1"/></g><g class="arrow-line"><path d="M173.85 7.08v52.76" class="connection real" style="stroke:#900;stroke-opacity:1;stroke-width:2;fill:none;fill-opacity:1"/><path fill="#900" stroke="none" d="M13.4-6.43 0 0l13.4 6.44L8.9 0Z" style="stroke:none;fill:#900;stroke-width:2" transform="rotate(90 85.385 88.465)"/></g><g class="arrow-line"><path d="M173.85 59.84v52.75" class="connection real" style="stroke:#900;stroke-opacity:1;stroke-width:2;fill:none;fill-opacity:1"/><path fill="#900" stroke="none" d="M13.4-6.43 0 0l13.4 6.44L8.9 0Z" style="stroke:none;fill:#900;stroke-width:2" transform="rotate(-90 145.22 -28.63)"/></g><g class="composite-shape"><defs><pattern id="_pgf3oneagwxz" width="11.314" height="11.314" x="0" y="0" patternTransform="rotate(45 0 0)" patternUnits="userSpaceOnUse"><path d="M0 0v11.314M5.657 0v11.314M11.314 0v11.314" style="stroke:#000;stroke-opacity:1;stroke-width:1;fill:none"/></pattern></defs><path d="M46.2 5.25h55.05v53.97H46.2Z" class="real" style="stroke-width:1;stroke:#000;fill:url(#_pgf3oneagwxz);fill-opacity:1"/></g><g class="arrow-line"><path d="M86.31 59.57v52.75" class="connection real" style="stroke:#900;stroke-opacity:1;stroke-width:2;fill:none;fill-opacity:1"/><path fill="#900" stroke="none" d="M13.4-6.43 0 0l13.4 6.44L8.9 0Z" style="stroke:none;fill:#900;stroke-width:2" transform="rotate(-90 101.317 15.008)"/></g><g class="arrow-line"><path d="M60.98 63.56v52.76" class="connection real" style="stroke:#900;stroke-opacity:1;stroke-width:2;fill:none;fill-opacity:1"/><path fill="#900" stroke="none" d="M13.4-6.43 0 0l13.4 6.44L8.9 0Z" style="stroke:none;fill:#900;stroke-width:2" transform="rotate(90 .706 60.27)"/></g><g class="composite-shape"><path d="M171.7 59.84c0-1.19.96-2.15 2.15-2.15s2.15.96 2.15 2.15c0 1.18-.96 2.15-2.15 2.15s-2.15-.97-2.15-2.15Z" class="real" style="stroke-width:1;stroke:#000;fill:#000;fill-opacity:1"/></g></g></svg><svg xmlns="http://www.w3.org/2000/svg" xmlns:xlink="http://www.w3.org/1999/xlink" width="223" height="121.125" style="width:223px;height:121.125px;font-family:Asana-Math,Asana;background:#fff"><path fill="#900" stroke="#900" stroke-width=".136" d="m99.325 79.493 1.802-.068c1.054 0 1.734.153 1.75.408l.137 1.513h.408c.05-1.071.17-1.938.357-2.584-.374-.034-.85-.051-1.14-.051l-.696.017-2.805.034h-.493c-.425 0-1.105-.017-1.751-.034l-.833-.017-.051.476.952.034c.408.017.595.17.595.459 0 .238-.068.782-.153 1.292l-1.275 7.378c-.29 1.564-.29 1.581-.986 1.649l-.612.051-.068.476.578-.017c.68-.017 1.224-.034 1.58-.034.307 0 .8.017 1.463.034l.884.017.05-.476-1.087-.051c-.46-.017-.612-.153-.612-.493 0-.102.017-.289.034-.357l.612-3.791h1.989c.459 0 .986.017 1.802.051l.442.017.323-.765-.068-.119a70 70 0 0 1-3.723.102h-.63l.783-4.607c.05-.272.068-.357.153-.544Z"/><svg width="10.288" height="10" x="94.463" y="67.475" overflow="visible"><path d="M10.29 4.85 7.14 1.53l-.49.52 1.93 2.33h-.15v.9h.15L6.65 7.61l.49.52zm-8.61.38h8.15v-.9H1.68z" style="fill:#900;fill-opacity:1;stroke-width:1px;stroke:none;stroke-opacity:1"/></svg><path fill="#900" stroke="#900" stroke-width=".095" d="m107.197 87.583-.143-.13c-.62.309-1.047.416-1.904.5l-.048.249h.571c.286 0 .405.083.405.286 0 .083-.012.214-.024.285l-1.202 6.557c-.012.036-.012.083-.012.12 0 .463.572.856 1.226.856.44 0 1.047-.226 1.559-.595 1.142-.81 1.928-2.44 1.928-4.01 0-.453-.107-.917-.25-1.095-.083-.107-.238-.167-.417-.167-.285 0-.642.095-.975.262-.607.321-1 .678-1.738 1.618Zm1.035 3.546c.31 0 .464.274.464.857 0 .762-.25 1.785-.607 2.559-.393.82-.869 1.202-1.511 1.202-.548 0-.845-.274-.845-.774 0-.405.178-2.082 1.142-3.094.393-.405 1.012-.75 1.357-.75Zm1.868 3.237c0 1.262.536 1.94 1.523 1.94.655 0 1.369-.31 1.904-.81.738-.701 1.262-2.058 1.262-3.26 0-1.119-.595-1.797-1.583-1.797-1.238 0-3.106 1.19-3.106 3.927Zm2.666-3.475c.726 0 1.118.536 1.118 1.535 0 1.143-.369 2.404-.892 3.035-.214.25-.524.393-.893.393-.69 0-1.094-.536-1.094-1.476 0-1.345.464-2.808 1.047-3.284.154-.131.428-.203.714-.203Zm2.51 5.272c.18.095.37.143.512.143.393 0 .857-.345 1.226-.905l.904-1.392.131.821c.155 1.012.429 1.476.857 1.476.262 0 .643-.202 1.024-.548l.583-.523-.107-.226c-.429.357-.726.535-.917.535-.178 0-.333-.119-.452-.357a4.7 4.7 0 0 1-.297-1.011l-.215-1.202.417-.583c.56-.774.88-1.047 1.25-1.047.19 0 .333.095.392.273l.167-.047.178-1.012c-.143-.083-.25-.119-.357-.119-.476 0-.952.429-1.69 1.523l-.44.655-.071-.571c-.143-1.178-.464-1.607-1.167-1.607-.309 0-.57.095-.678.25l-.69.988.202.119c.357-.405.595-.571.821-.571.393 0 .655.487.857 1.654l.131.737-.476.738c-.512.798-.916 1.178-1.25 1.178-.178 0-.309-.047-.333-.107l-.13-.333-.239.036c0 .416-.095.726-.142 1.035Z"/><path fill="#900" stroke="#900" stroke-width=".136" d="m45.694 86.624-5.865-10.013h-2.754l-.085.476.595.034c.765.034 1.343.799 1.36.952l-1.581 8.568c-.204 1.054-.306 1.19-.918 1.258l-.527.051-.085.476 1.887-.051c.204 0 .221 0 1.87.051l.085-.476-.714-.051c-.68-.051-.833-.187-.833-.748 0-.136.017-.323.051-.51l1.36-7.888 5.746 9.809h.85l1.598-9.401c.357-1.921.391-1.989 1.02-2.04l.629-.034.051-.459-3.621-.017-.085.476.799.034c.442.017.612.136.612.408 0 .119-1.411 8.874-1.445 9.095Z"/><svg width="14.063" height="10" x="35.8" y="65.375" overflow="visible"><path d="m14.06 4.85-3.15-3.32-.49.52 1.93 2.33h-.15v.9h.15l-1.93 2.33.49.52zm-12.38.38H13.6v-.9H1.68z" style="fill:#900;fill-opacity:1;stroke-width:1px;stroke:none;stroke-opacity:1"/></svg><path fill="#900" stroke="#900" stroke-width=".136" d="m194.194 25.674-5.865-10.013h-2.754l-.085.476.595.034c.765.034 1.343.799 1.36.952l-1.581 8.568c-.204 1.054-.306 1.19-.918 1.258l-.527.051-.085.476 1.887-.051c.204 0 .221 0 1.87.051l.085-.476-.714-.051c-.68-.051-.833-.187-.833-.748 0-.136.017-.323.051-.51l1.36-7.888 5.746 9.809h.85l1.598-9.401c.357-1.921.391-1.989 1.02-2.04l.629-.034.051-.459-3.621-.017-.085.476.799.034c.442.017.612.136.612.408 0 .119-1.411 8.874-1.445 9.095Z"/><svg width="14.063" height="10" x="184.3" y="4.425" overflow="visible"><path d="m14.06 4.85-3.15-3.32-.49.52 1.93 2.33h-.15v.9h.15l-1.93 2.33.49.52zm-12.38.38H13.6v-.9H1.68z" style="fill:#900;fill-opacity:1;stroke-width:1px;stroke:none;stroke-opacity:1"/></svg><path fill="#900" stroke="#900" stroke-width=".136" d="m190.325 92.943 1.802-.068c1.054 0 1.734.153 1.75.408l.137 1.513h.408c.05-1.071.17-1.938.357-2.584-.374-.034-.85-.051-1.14-.051l-.696.017-2.805.034h-.493c-.425 0-1.105-.017-1.751-.034l-.833-.017-.051.476.952.034c.408.017.595.17.595.459 0 .238-.068.782-.153 1.292l-1.275 7.378c-.29 1.564-.29 1.581-.986 1.649l-.612.051-.068.476.578-.017c.68-.017 1.224-.034 1.58-.034.307 0 .8.017 1.463.034l.884.017.05-.476-1.087-.051c-.46-.017-.612-.153-.612-.493 0-.102.017-.289.034-.357l.612-3.791h1.989c.459 0 .986.017 1.802.051l.442.017.323-.765-.068-.119a70 70 0 0 1-3.723.102h-.63l.783-4.607c.05-.272.068-.357.153-.544Z"/><svg width="10.288" height="10" x="185.463" y="80.925" overflow="visible"><path d="M10.29 4.85 7.14 1.53l-.49.52 1.93 2.33h-.15v.9h.15L6.65 7.61l.49.52zm-8.61.38h8.15v-.9H1.68z" style="fill:#900;fill-opacity:1;stroke-width:1px;stroke:none;stroke-opacity:1"/></svg><path fill="#900" stroke="#900" stroke-width=".095" d="m198.197 101.033-.143-.13c-.62.309-1.047.416-1.904.5l-.048.249h.571c.286 0 .405.083.405.286 0 .083-.012.214-.024.285l-1.202 6.557c-.012.036-.012.083-.012.12 0 .463.572.856 1.226.856.44 0 1.047-.226 1.559-.595 1.142-.81 1.928-2.44 1.928-4.01 0-.453-.107-.917-.25-1.095-.083-.107-.238-.167-.417-.167-.285 0-.642.095-.975.262-.607.321-1 .678-1.738 1.618Zm1.035 3.546c.31 0 .464.274.464.857 0 .762-.25 1.785-.607 2.559-.393.82-.869 1.202-1.511 1.202-.548 0-.845-.274-.845-.774 0-.405.178-2.082 1.142-3.094.393-.405 1.012-.75 1.357-.75Zm1.868 3.237c0 1.262.536 1.94 1.523 1.94.655 0 1.369-.31 1.904-.81.738-.701 1.262-2.058 1.262-3.26 0-1.119-.595-1.797-1.583-1.797-1.238 0-3.106 1.19-3.106 3.927Zm2.666-3.475c.726 0 1.118.536 1.118 1.535 0 1.143-.369 2.404-.892 3.035-.214.25-.524.393-.893.393-.69 0-1.094-.536-1.094-1.476 0-1.345.464-2.808 1.047-3.284.154-.131.428-.203.714-.203Zm2.51 5.272c.18.095.37.143.512.143.393 0 .857-.345 1.226-.905l.904-1.392.131.821c.155 1.012.429 1.476.857 1.476.262 0 .643-.202 1.024-.548l.583-.523-.107-.226c-.429.357-.726.535-.917.535-.178 0-.333-.119-.452-.357a4.7 4.7 0 0 1-.297-1.011l-.215-1.202.417-.583c.56-.774.88-1.047 1.25-1.047.19 0 .333.095.392.273l.167-.047.178-1.012c-.143-.083-.25-.119-.357-.119-.476 0-.952.429-1.69 1.523l-.44.655-.071-.571c-.143-1.178-.464-1.607-1.167-1.607-.309 0-.57.095-.678.25l-.69.988.202.119c.357-.405.595-.571.821-.571.393 0 .655.487.857 1.654l.131.737-.476.738c-.512.798-.916 1.178-1.25 1.178-.178 0-.309-.047-.333-.107l-.13-.333-.239.036c0 .416-.095.726-.142 1.035Z"/></svg></svg>