<svg xmlns="http://www.w3.org/2000/svg" width="201.6" height="217.2" style="width:201.60000610351562px;height:217.1999969482422px;background:0 0;fill:none"><svg xmlns="http://www.w3.org/2000/svg"/><svg xmlns="http://www.w3.org/2000/svg" class="role-diagram-draw-area" style="overflow:visible"><g class="shapes-region" style="stroke:#000;fill:none"><g class="composite-shape"><defs><pattern id="_pgfr6g2d4jopdg-full-view" width="11.314" height="11.314" x="0" y="0" patternTransform="rotate(45 0 0)" patternUnits="userSpaceOnUse"><path d="M0 0v11.314M5.657 0v11.314M11.314 0v11.314" style="stroke:#900;stroke-opacity:1;stroke-width:1;fill:none"/></pattern></defs><path d="M65.64 35.36h61.28v61.28H65.64Z" class="real" style="stroke-width:1;stroke:#900;stroke-opacity:1;fill:url(#_pgfr6g2d4jopdg-full-view);fill-opacity:1"/></g><g class="arrow-line"><defs><pattern id="_pgfddpbo3z7ndg-full-view" width="11.314" height="11.314" x="0" y="0" patternTransform="rotate(45 0 0)" patternUnits="userSpaceOnUse"><path d="M0 0v11.314M5.657 0v11.314M11.314 0v11.314" style="stroke:#900;stroke-opacity:1;stroke-width:1;fill:none"/></pattern></defs><path d="M11.7 64.98h51.16" class="connection real" style="stroke:#900;stroke-opacity:1;stroke-width:1;fill:url(#_pgfddpbo3z7ndg-full-view);fill-opacity:1"/><path fill="#900" stroke="none" d="M10.72-5.15 0 0l10.72 5.15L7.12 0Z" style="stroke:none;fill:#900;stroke-width:1" transform="matrix(-1 0 0 -1 65.86 64.976)"/></g><g class="composite-shape"><defs><pattern id="_pgf8cccpdkh6dg-full-view" width="11.314" height="11.314" x="0" y="0" patternTransform="rotate(45 0 0)" patternUnits="userSpaceOnUse"><path d="M0 0v11.314M5.657 0v11.314M11.314 0v11.314" style="stroke:#eee;stroke-opacity:1;stroke-width:1;fill:none"/></pattern></defs><path d="M126.92-5h84.92v249.66h-84.92Z" class="real" style="stroke-width:1;stroke:#000;fill:url(#_pgf8cccpdkh6dg-full-view);fill-opacity:1"/></g><g class="arrow-line"><defs><pattern id="_pgf7cfx40hrndg-full-view" width="11.314" height="11.314" x="0" y="0" patternTransform="rotate(45 0 0)" patternUnits="userSpaceOnUse"><path d="M0 0v11.314M5.657 0v11.314M11.314 0v11.314" style="stroke:#900;stroke-opacity:1;stroke-width:1;fill:none"/></pattern></defs><path d="M130.3 85.78h51.16" class="connection real" style="stroke:#900;stroke-opacity:1;stroke-width:1;fill:url(#_pgf7cfx40hrndg-full-view);fill-opacity:1"/><path fill="#900" stroke="none" d="M10.72-5.15 0 0l10.72 5.15L7.12 0Z" style="stroke:none;fill:#900;stroke-width:1" transform="translate(127.3 85.776)"/></g><g class="arrow-line"><defs><pattern id="_pgf1lich3d0fdg-full-view" width="11.314" height="11.314" x="0" y="0" patternTransform="rotate(45 0 0)" patternUnits="userSpaceOnUse"><path d="M0 0v11.314M5.657 0v11.314M11.314 0v11.314" style="stroke:#900;stroke-opacity:1;stroke-width:1;fill:none"/></pattern></defs><path d="M96.12 97.26v29.32" class="connection real" style="stroke:#900;stroke-opacity:1;stroke-width:1;fill:url(#_pgf1lich3d0fdg-full-view);fill-opacity:1"/><path fill="#900" stroke="none" d="M10.72-5.15 0 0l10.72 5.15L7.12 0Z" style="stroke:none;fill:#900;stroke-width:1" transform="rotate(-90 112.848 16.728)"/></g><g class="arrow-line"><defs><pattern id="_pgf1ax3i1ijedg-full-view" width="11.314" height="11.314" x="0" y="0" patternTransform="rotate(45 0 0)" patternUnits="userSpaceOnUse"><path d="M0 0v11.314M5.657 0v11.314M11.314 0v11.314" style="stroke:#900;stroke-opacity:1;stroke-width:1;fill:none"/></pattern></defs><path d="M65.32 152.26v29.32" class="connection real" style="stroke:#900;stroke-opacity:1;stroke-width:1;fill:url(#_pgf1ax3i1ijedg-full-view);fill-opacity:1"/><path fill="#900" stroke="none" d="M10.72-5.15 0 0l10.72 5.15L7.12 0Z" style="stroke:none;fill:#900;stroke-width:1" transform="rotate(-90 124.948 59.628)"/></g><g class="arrow-line"><defs><pattern id="_pgffx2un7ocidg-full-view" width="11.314" height="11.314" x="0" y="0" patternTransform="rotate(45 0 0)" patternUnits="userSpaceOnUse"><path d="M0 0v11.314M5.657 0v11.314M11.314 0v11.314" style="stroke:#900;stroke-opacity:1;stroke-width:1;fill:none"/></pattern></defs><path d="M14.16 152.26h51.16" class="connection real" style="stroke:#900;stroke-opacity:1;stroke-width:1;fill:url(#_pgffx2un7ocidg-full-view);fill-opacity:1"/><path fill="#900" stroke="none" d="M10.72-5.15 0 0l10.72 5.15L7.12 0Z" style="stroke:none;fill:#900;stroke-width:1" transform="translate(11.16 152.256)"/></g><g class="arrow-line"><defs><pattern id="_pgfzqkpzml2wdg-full-view" width="11.314" height="11.314" x="0" y="0" patternTransform="rotate(45 0 0)" patternUnits="userSpaceOnUse"><path d="M0 0v11.314M5.657 0v11.314M11.314 0v11.314" style="stroke:#900;stroke-opacity:1;stroke-width:1;fill:none"/></pattern></defs><path d="M65.32 152.26h51.16" class="connection real" style="stroke:#900;stroke-opacity:1;stroke-width:1;fill:url(#_pgfzqkpzml2wdg-full-view);fill-opacity:1"/><path fill="#900" stroke="none" d="M10.72-5.15 0 0l10.72 5.15L7.12 0Z" style="stroke:none;fill:#900;stroke-width:1" transform="matrix(-1 0 0 -1 119.48 152.256)"/></g><g class="composite-shape"><path d="M63.6 152.26a1.72 1.72 0 1 1 3.44 0 1.72 1.72 0 0 1-3.44 0Z" class="real" style="stroke-width:1;stroke:#000;fill:#000;fill-opacity:1"/></g></g></svg><svg xmlns="http://www.w3.org/2000/svg" xmlns:xlink="http://www.w3.org/1999/xlink" width="200" height="215.6" style="width:200px;height:215.60000610351562px;font-family:Asana-Math,Asana;background:0 0"><path fill="#900" stroke="#900" stroke-width=".136" d="m37.662 48.668 1.802-.068c1.054 0 1.734.153 1.751.408l.136 1.513h.408c.051-1.071.17-1.938.357-2.584-.374-.034-.85-.051-1.139-.051l-.697.017-2.805.034h-.493c-.425 0-1.105-.017-1.751-.034l-.833-.017-.051.476.952.034c.408.017.595.17.595.459 0 .238-.068.782-.153 1.292l-1.275 7.378c-.289 1.564-.289 1.581-.986 1.649l-.612.051-.068.476.578-.017c.68-.017 1.224-.034 1.581-.034.306 0 .799.017 1.462.034l.884.017.051-.476-1.088-.051c-.459-.017-.612-.153-.612-.493 0-.102.017-.289.034-.357l.612-3.791h1.989c.459 0 .986.017 1.802.051l.442.017.323-.765-.068-.119a70 70 0 0 1-3.723.102h-.629l.782-4.607c.051-.272.068-.357.153-.544Z"/><svg width="10.288" height="10" x="32.8" y="36.65" overflow="visible"><path d="M10.29 4.85 7.14 1.53l-.49.52 1.93 2.33h-.15v.9h.15L6.65 7.61l.49.52zm-8.61.38h8.15v-.9H1.68z" style="fill:#900;fill-opacity:1;stroke-width:1px;stroke:none;stroke-opacity:1"/></svg><path fill="#900" stroke="#900" stroke-width=".136" d="m142.694 74.299-5.865-10.013h-2.754l-.085.476.595.034c.765.034 1.343.799 1.36.952l-1.581 8.568c-.204 1.054-.306 1.19-.918 1.258l-.527.051-.085.476 1.887-.051c.204 0 .221 0 1.87.051l.085-.476-.714-.051c-.68-.051-.833-.187-.833-.748 0-.136.017-.323.051-.51l1.36-7.888 5.746 9.809h.85l1.598-9.401c.357-1.921.391-1.989 1.02-2.04l.629-.034.051-.459-3.621-.017-.085.476.799.034c.442.017.612.136.612.408 0 .119-1.411 8.874-1.445 9.095Z"/><svg width="14.063" height="10" x="132.8" y="53.05" overflow="visible"><path d="m14.06 4.85-3.15-3.32-.49.52 1.93 2.33h-.15v.9h.15l-1.93 2.33.49.52zm-12.38.38H13.6v-.9H1.68z" style="fill:#900;fill-opacity:1;stroke-width:1px;stroke:none;stroke-opacity:1"/></svg><path fill="#900" stroke="#900" stroke-width=".136" d="M78.839 118.31c.357 0 .578-.017 1.003-.068-.935 1.258-2.618 2.686-2.618 5.066 0 1.394.595 2.329 1.496 2.329 1.088 0 1.972-.935 3.23-3.366-.153.748-.204 1.173-.204 1.564 0 1.071.493 1.802 1.258 1.802 2.278 0 4.879-4.233 4.879-6.715 0-.969-.442-1.666-1.054-1.666-.221 0-.425.068-.561.204l-.85.799.187.323a.8.8 0 0 1 .459-.153c.459 0 .731.391.731 1.071 0 2.465-1.649 5.287-3.094 5.287-.493 0-.85-.68-.85-1.615 0-.799.153-1.921.357-2.652l.884-3.128-.119-.136-1.258.374-.493 2.533c-.204 1.054-.442 1.734-.935 2.652-.68 1.275-1.326 1.972-1.836 1.972-.595 0-.986-.663-.986-1.649 0-2.023.697-3.672 2.38-5.576l-.17-.306c-.34.153-.561.204-1.037.204s-1.19-.034-1.683-.085l-.204-.017c-.102-.017-.187-.017-.204-.017-.204 0-.357.034-.544.119-.238.459-.425 1.071-.646 2.006h.374l.289-.714c.119-.289.459-.476.867-.476.578 0 .289.034.952.034Z"/><svg width="13.113" height="10" x="76" y="106.45" overflow="visible"><path d="M13.11 4.85 9.96 1.53l-.49.52 1.93 2.33h-.15v.9h.15L9.47 7.61l.49.52zm-11.43.38h10.97v-.9H1.68z" style="fill:#900;fill-opacity:1;stroke-width:1px;stroke:none;stroke-opacity:1"/></svg></svg></svg>