<svg xmlns="http://www.w3.org/2000/svg" width="377.6" height="211.9" style="width:377.6000061035156px;height:211.90000915527344px;background:#fff;fill:none"><svg xmlns="http://www.w3.org/2000/svg"/><svg xmlns="http://www.w3.org/2000/svg" class="role-diagram-draw-area"><g class="shapes-region" style="stroke:#000;fill:none"><g class="composite-shape"><path d="M83.1 56v62.3H21V56.1Z" class="real" style="stroke-width:1;stroke:#900;stroke-opacity:1;fill:#f5eaea;fill-opacity:1"/></g><g class="composite-shape"><path d="M209.2 56v62.3H147V56.1Z" class="real" style="stroke-width:1;stroke:#900;stroke-opacity:1;fill:#f5eaea;fill-opacity:1"/></g><g class="arrow-line"><path d="M147 87.2H83.4" class="connection real" style="stroke:#000;stroke-width:1;fill:none;fill-opacity:1"/></g><g class="arrow-line"><path d="M147 87.2h12.4" class="connection real" style="stroke:#000;stroke-opacity:1;stroke-width:1;fill:none;fill-opacity:1"/><path fill="#000" stroke="none" d="M10.7-5.1 0 0l10.7 5.2L7.1 0Z" style="stroke:none;fill:#000;stroke-width:1" transform="matrix(-1 0 0 -1 162.5 87.2)"/></g><g class="arrow-line"><path d="M51.6 153.9v-35.6" class="connection real" style="stroke:#900;stroke-opacity:1;stroke-width:1;fill:none;fill-opacity:1"/><path fill="#900" stroke="none" d="M10.7-5.1 0 0l10.7 5.2L7.1 0Z" style="stroke:none;fill:#900;stroke-width:1" transform="rotate(-90 104.2 52.7)"/></g><g class="arrow-line"><path d="M178.8 154.2v-35.5" class="connection real" style="stroke:#900;stroke-opacity:1;stroke-width:1;fill:none;fill-opacity:1"/><path fill="#900" stroke="none" d="M10.7-5.1 0 0l10.7 5.2L7.1 0Z" style="stroke:none;fill:#900;stroke-width:1" transform="rotate(-90 168 -10.8)"/></g><g class="arrow-line"><path d="M52 55.6V20" class="connection real" style="stroke:#900;stroke-opacity:1;stroke-width:1;fill:none;fill-opacity:1"/><path fill="#900" stroke="none" d="M10.7-5.1 0 0l10.7 5.2L7.1 0Z" style="stroke:none;fill:#900;stroke-width:1" transform="rotate(90 17.5 34.5)"/></g><g class="arrow-line"><path d="M178 55.6V20" class="connection real" style="stroke:#900;stroke-opacity:1;stroke-width:1;fill:none;fill-opacity:1"/><path fill="#900" stroke="none" d="M10.7-5.1 0 0l10.7 5.2L7.1 0Z" style="stroke:none;fill:#900;stroke-width:1" transform="rotate(90 80.5 97.5)"/></g><g class="arrow-line"><path d="M224 87.6h-14" class="connection real" style="stroke:#000;stroke-width:1;fill:none;fill-opacity:1"/></g><g class="arrow-line"><path d="M224 87.6h28" class="connection real" style="stroke:#900;stroke-opacity:1;stroke-width:1;fill:none;fill-opacity:1"/><path fill="#900" stroke="none" d="M10.7-5.1 0 0l10.7 5.2L7.1 0Z" style="stroke:none;fill:#900;stroke-width:1" transform="matrix(-1 0 0 -1 255 87.6)"/></g><g class="arrow-line"><path d="M134.5 87.2H147" class="connection real" style="stroke:#900;stroke-opacity:1;stroke-width:1;fill:none;fill-opacity:1"/><path fill="#900" stroke="none" d="M10.7-5.1 0 0l10.7 5.2L7.1 0Z" style="stroke:none;fill:#900;stroke-width:1" transform="translate(131.5 87.2)"/></g><g class="arrow-line"><path d="M70.9 87.2h12.4" class="connection real" style="stroke:#000;stroke-opacity:1;stroke-width:1;fill:none;fill-opacity:1"/><path fill="#000" stroke="none" d="M10.7-5.1 0 0l10.7 5.2L7.1 0Z" style="stroke:none;fill:#000;stroke-width:1" transform="translate(67.9 87.2)"/></g><g class="arrow-line"><path d="M83.4 87.2h12.4" class="connection real" style="stroke:#900;stroke-opacity:1;stroke-width:1;fill:none;fill-opacity:1"/><path fill="#900" stroke="none" d="M10.7-5.1 0 0l10.7 5.2L7.1 0Z" style="stroke:none;fill:#900;stroke-width:1" transform="matrix(-1 0 0 -1 98.8 87.2)"/></g><g class="arrow-line"><path d="M-17.7 118.3H298" class="connection real" style="stroke:#000;stroke-width:1;fill:none;fill-opacity:1"/></g><g class="composite-shape"><path d="M117 35c0-17.4 14-31.4 31.3-31.4h93.9c17.3 0 31.3 14 31.3 31.3v96.5c0 17.3-14 31.3-31.3 31.3h-93.9c-17.3 0-31.3-14-31.3-31.3Z" class="real" style="stroke-width:1;stroke:#000;stroke-opacity:.5;fill:none;fill-opacity:1"/></g><g class="composite-shape"><path d="M310.7 97.3c0-1.5 1.2-2.7 2.6-2.7a2.7 2.7 0 1 1 0 5.4 2.7 2.7 0 0 1-2.7-2.7Z" class="real" style="stroke-width:1;stroke:#000;fill:#000;fill-opacity:1"/></g><g class="arrow-line"><path d="M316 97.3h28" class="connection real" style="stroke:#900;stroke-opacity:1;stroke-width:1;fill:none;fill-opacity:1"/><path fill="#900" stroke="none" d="M10.7-5.1 0 0l10.7 5.2L7.1 0Z" style="stroke:none;fill:#900;stroke-width:1" transform="matrix(-1 0 0 -1 347 97.3)"/></g><g class="arrow-line"><path d="M190.4 185v-20.6" class="connection real" style="stroke:#000;stroke-width:1;fill:none;fill-opacity:1"/><path d="M11-3.3Q5-.5 0 0q5 .5 11 3.3" style="stroke:#000;stroke-width:1" transform="rotate(90 14 176.4)"/></g><g class="arrow-line"><path d="M313.3 135.5V100" class="connection real" style="stroke:#900;stroke-opacity:1;stroke-width:1;fill:none;fill-opacity:1"/><path fill="#900" stroke="none" d="M10.7-5.1 0 0l10.7 5.2L7.1 0Z" style="stroke:none;fill:#900;stroke-width:1" transform="rotate(-90 226 -87.4)"/></g><g class="arrow-line"><path d="M313.3 94.6V59.1" class="connection real" style="stroke:#900;stroke-opacity:1;stroke-width:1;fill:none;fill-opacity:1"/><path fill="#900" stroke="none" d="M10.7-5.1 0 0l10.7 5.2L7.1 0Z" style="stroke:none;fill:#900;stroke-width:1" transform="rotate(90 128.6 184.7)"/></g><g class="arrow-line"><path d="M298.2 97.3h12.4" class="connection real" style="stroke:#900;stroke-opacity:1;stroke-width:1;fill:none;fill-opacity:1"/><path fill="#900" stroke="none" d="M10.7-5.1 0 0l10.7 5.2L7.1 0Z" style="stroke:none;fill:#900;stroke-width:1" transform="translate(295.2 97.3)"/></g></g></svg><svg xmlns="http://www.w3.org/2000/svg" xmlns:xlink="http://www.w3.org/1999/xlink" width="376" height="210.3" style="width:376px;height:210.3000030517578px;font-family:Asana-Math,Asana;background:#fff"><path fill="#000" stroke="#000" stroke-width=".1" d="M51.6 83.1h1.1q1.7 0 1.8.3v1.5h.4l.4-2.5h-8.6l-.3 2.5h.5l.2-1 .3-.6 1.2-.2h1.7l-1.3 8c-.2 1.4-.3 1.4-.9 1.5h-.8v.4h4.2v-.4h-.9q-.5 0-.5-.5v-.5Z"/><svg width="10.1" height="9" x="45.6" y="72.7" overflow="visible"><path d="m10.1 4.4-2.8-3-.5.5 1.8 2h-.2v.8h.2L6.8 6.9l.5.5zm-8.6.3h8.2V4H1.5z" style="fill:#000;fill-opacity:1;stroke-width:1px;stroke:none;stroke-opacity:1"/></svg><path fill="#000" stroke="#000" stroke-width=".1" d="M61.2 97.1c0-1.2-.9-1.3-1.8-1.5l1.2-.6q.8-.7.8-1.5 0-1.3-1.7-1.4h-3.2v.3h.5q.4 0 .4.3l-.1.9-1 5.4q0 .2-.6.3v.3h2.7c1.2 0 2.8-1 2.8-2.5Zm-4 2 .5-3.2h1q1.6 0 1.6 1.4c0 1-.8 1.9-1.9 1.9zm2-6.6q1.3 0 1.3 1.2 0 1.7-2.2 1.8h-.5l.5-3zm116.4-9.4h1.1q1.8 0 1.8.3v1.5h.4l.4-2.5h-8.6l-.3 2.5h.5l.2-1 .3-.6 1.2-.2h1.7l-1.3 8c-.2 1.4-.3 1.4-.9 1.5h-.7l-.1.4h4.2v-.4h-.9q-.6 0-.5-.5v-.5Z"/><svg width="10.1" height="9" x="169.6" y="72.7" overflow="visible"><path d="m10.1 4.4-2.8-3-.5.5 1.8 2h-.2v.8h.2L6.8 6.9l.5.5zm-8.6.3h8.2V4H1.5z" style="fill:#000;fill-opacity:1;stroke-width:1px;stroke:none;stroke-opacity:1"/></svg><path fill="#000" stroke="#000" stroke-width=".1" d="M185.5 99q0 .2-.5.2h-.4v.4h2.6v-.3h-.3q-.6 0-.6-.6l-1-6.7h-.4l-4 6.3q-.5.8-1 .9h-.2v.4h2.4v-.3h-.6q-.3 0-.3-.3l.2-.5 1.1-2h2.7l.2 2v.5Zm-.8-5.9.4 3.1h-2.3Z"/><path fill="#900" stroke="#900" stroke-width=".1" d="M103.1 73.5h1.1q1.8 0 1.8.2v1.6h.5l.4-2.5h-8.7l-.2 2.5h.4l.2-1 .3-.6 1.2-.2h1.8l-1.4 8c-.2 1.3-.2 1.4-.8 1.4h-.8v.5h4.1V83h-.8q-.6 0-.6-.5v-.6Z"/><svg width="10.1" height="9" x="97.2" y="63" overflow="visible"><path d="m10.1 4.4-2.8-3-.5.5 1.8 2h-.2v.8h.2L6.8 6.9l.5.5zm-8.6.3h8.2V4H1.5z" style="fill:#900;fill-opacity:1;stroke-width:1px;stroke:none;stroke-opacity:1"/></svg><path fill="#900" stroke="#900" stroke-width=".1" d="M135 73.4h1.1q1.8 0 1.8.3l.1.5v1h.4l.4-2.5H130l-.2 2.5h.4l.2-1 .3-.6 1.3-.2h1.7l-1.3 8c-.3 1.4-.3 1.4-1 1.5h-.7v.4h4.1V83h-.8q-.6 0-.6-.5V82Z"/><svg width="10.1" height="9" x="129.1" y="63" overflow="visible"><path d="m10.1 4.4-2.8-3-.5.5 1.8 2h-.2v.8h.2L6.8 6.9l.5.5zm-8.6.3h8.2V4H1.5z" style="fill:#900;fill-opacity:1;stroke-width:1px;stroke:none;stroke-opacity:1"/></svg><path fill="#900" stroke="#900" stroke-width=".1" d="M194.3 145.7h.9c-.9 1-2.4 2.4-2.4 4.5q0 2 1.3 2c1 0 1.8-.7 3-3l-.2 1.5q0 1.6 1.1 1.6c2 0 4.4-3.8 4.4-6q0-1.5-1-1.5l-.5.1-.7.8.1.2h.5q.6 0 .6.9c0 2.2-1.5 4.7-2.8 4.7q-.6-.1-.7-1.4c0-.7.1-1.8.3-2.4l.8-2.8-.1-.1-1.2.3-.4 2.3c-.2 1-.4 1.5-.8 2.4q-1 1.7-1.7 1.7-.8 0-.9-1.5-.1-2.6 2.2-5l-.2-.2-1 .1h-2.3l-.6 1.8h.4l.2-.6q.2-.4.8-.4z"/><svg width="11.8" height="9" x="191.7" y="134.8" overflow="visible"><path d="M11.8 4.4 9 1.4l-.5.5 1.8 2H10v.8h.2L8.5 6.9l.5.5zm-10.3.3h9.9V4H1.5z" style="fill:#900;fill-opacity:1;stroke-width:1px;stroke:none;stroke-opacity:1"/></svg><path fill="#900" stroke="#900" stroke-width=".1" d="M209.3 158.1q0 .3-.5.3h-.5v.3h2.6v-.3h-.2q-.7.2-.6-.6l-1-6.7h-.5l-4 6.4q-.4.9-.9.8l-.2.1v.3h2.3v-.3h-.5l-.4-.2.3-.6 1.1-1.9h2.6l.3 2zm-.8-5.9.4 3.1h-2.3ZM75.7 35.6l-5.3-9H68l-.1.4h.5c.7 0 1.2.7 1.2.9l-1.4 7.7c-.2 1-.3 1-.8 1.1h-.5v.5h3.3l.1-.4h-.6q-1 0-.8-.8v-.4l1.3-7.1 5.1 8.8h.8l1.5-8.4c.3-1.8.3-1.8.9-1.9h.5v-.4h-3.2v.4h.7q.6 0 .5.4z"/><svg width="12.7" height="9" x="66.8" y="16.9" overflow="visible"><path d="m12.7 4.4-2.9-3-.4.5 1.7 2H11v.8h.1L9.4 6.9l.4.5zm-11.2.3h10.7V4H1.5z" style="fill:#900;fill-opacity:1;stroke-width:1px;stroke:none;stroke-opacity:1"/></svg><path fill="#900" stroke="#900" stroke-width=".1" d="M85 41.3c0-1.2-1-1.4-1.8-1.5l1.2-.6q.7-.8.7-1.5 0-1.4-1.7-1.4h-3.2v.3h.6q.3 0 .3.3v.8l-1 5.4q0 .3-.6.4v.2H82c1.2 0 2.9-1 2.9-2.4Zm-4 2 .5-3.2h.9q1.5 0 1.6 1.4-.2 1.6-1.8 1.8zm2-6.6q1.2 0 1.2 1.2 0 1.7-2.1 1.8h-.6l.6-3zm179.2 49.7h1.7q1.5 0 1.5.3l.2 1.3h.3q0-1.4.3-2.3h-6.9v.4h.8q.5 0 .5.4v1.2l-1.2 6.7c-.3 1.4-.3 1.4-1 1.4h-.5v.5h4V96h-1q-.5 0-.5-.5V95l.6-3.4h3.8l.3-.7h-4l.7-4.1q0-.4.2-.5Z"/><svg width="9.3" height="9" x="257.9" y="76" overflow="visible"><path d="m9.3 4.4-2.9-3-.4.5 1.7 2h-.1v.8h.1L6 6.9l.4.5zm-7.8.3h7.3V4H1.5z" style="fill:#900;fill-opacity:1;stroke-width:1px;stroke:none;stroke-opacity:1"/></svg><path fill="#000" stroke="#000" stroke-width=".1" d="m131.7 198-.1 2.2 2 .3c2 0 3.5-1 3.5-2.5 0-2.7-4.4-1.3-4.4-3.2q0-1.2 1.5-1.2 1.7 0 1.8 1.2v.4h.5v-1.8q-1-.3-2-.3-2.7 0-2.8 2.2 0 1 1 1.6c1.8.8 3.3.4 3.3 1.7q-.1 1.3-1.9 1.4-1.8-.1-1.9-1.3v-.7Zm10.4 1-.8-1.8-1-2.5v-.7q-.1-.3.4-.3h.6v-.5h-3.5v.4h.2q.6.1.8.8l1.7 4 .9 2.2-.4 1q-.7 1.9-1.7 2l-.7-.4h-.2l-.4 1.1q.4.3.8.3 1.4 0 2.3-2l3-7q1-2 1.4-2h.4v-.4H143v.4h.4q.6.1.6.5v.4Zm4.6-1q0 1.5-.2 2.2l2.1.3c2 0 3.5-1 3.5-2.5 0-2.7-4.4-1.3-4.4-3.2q0-1.2 1.5-1.2 1.7 0 1.8 1.2v.4h.4v-1.8l-1.9-.3q-2.8 0-2.9 2.2 0 1 1 1.6c1.9.8 3.3.4 3.3 1.7q0 1.3-1.8 1.4-1.8-.1-2-1.3v-.7Zm7.3-3.6v4.4q0 1.6 1.7 1.6.6 0 .8-.2l.8-.8-.2-.2q-.5.3-1 .3-.8 0-.8-1.1v-4h2l.1-.8h-2v-.5l.1-2.2-.2-.2-1.3.6v2.3l-1.1.5v.4Zm7.3 6.1c1 0 2.4-.5 2.6-.8l.3-.5-.2-.2c-1 .6-1.3.7-2 .7q-1.6 0-2.2-1.2-.4-.6-.5-1.8h1.3c1.4 0 3 0 3.7-.2v-.5q0-2.8-2.8-3-.8 0-1.8.5-1.9 1-1.8 3.4c0 3 2 3.6 3.4 3.6Zm1.7-4.3h-3.6q0-1 .2-1.5.6-1 1.7-1.1.9 0 1.2.6.6.6.5 2Zm2.1-2h.6c.6 0 .6 0 .6 1v3.5c0 1 0 1-.5 1l-.7.1v.5h3.7v-.5h-.6q-.7.1-.6-1.1v-3.3c0-.7 1-1.4 2-1.4q1.3.1 1.4 2v2.7c0 1 0 1-.6 1l-.7.1v.5h3.9v-.5h-.8q-.7.1-.6-1.1v-3.3c0-.7 1-1.4 2-1.4q1.3.1 1.4 2v4.3h2.5v-.5h-.7q-.7.1-.6-1.1v-3.2q0-2.3-2.3-2.4-.8 0-1.2.3l-1.2 1q-.6-1.4-2.1-1.3-.9 0-1.3.3l-1 1v-1.3h-.2l-2.4.6Zm21.3-1.1c-2.2 0-3.8 1.5-3.8 3.8s1.4 3.6 3.4 3.6c2.3 0 4-1.6 4-3.9 0-2-1.5-3.5-3.6-3.5Zm-.3.5c1.4 0 2.5 1.5 2.5 3.6q-.1 2.7-2 2.8-2.4-.2-2.5-3.6 0-2.7 2-2.8Zm9.6-4.3-1-.3c-1.7 0-2.6 2.7-2.6 4v.6l-1 .5v.3h1v4.3c0 1 0 1-.6 1l-.7.1v.5h3.9v-.5h-.8q-.6.1-.5-1.1v-4.4h1.9v-.8l-2 .1v-1.3c0-1.8.3-2.2 1.2-2.2q.5 0 1 .4h.2Zm6.5 3.8h-.1l-2.4.6v.4h.6q.8-.2.7 1.1v3.5c0 1 0 1-.6 1l-.7.1v.5h3.9v-.5h-.8q-.7.1-.6-1.1Zm-.7-3.4q-.7 0-.8.9.1.7.8.8.8-.1.9-.8t-.9-.9Zm8.6 10.6h2.5v-.5h-.7q-.6.2-.5-1.1v-3q0-2.7-2.6-2.6-.8 0-1.2.3l-1.2 1v-1.3h-.1l-2.4.6v.4h.6q.8-.2.6 1.1v3.5c0 1 0 1-.5 1l-.7.1v.5h3.8v-.5h-.7q-.7.1-.6-1.1v-3.3c0-.7 1-1.4 2-1.4q1.6.1 1.7 2Zm4-6v4.5q0 1.6 1.8 1.6.6 0 .8-.2l.7-.8-.2-.2-.9.3q-.9 0-.8-1.1v-4h2v-.8h-2v-.5l.1-2.2-.1-.2-1.3.6v2.3l-1.2.5v.4Zm7.4 6.2c1 0 2.4-.5 2.5-.8l.4-.5-.2-.2q-1.3.8-2 .7-1.6 0-2.3-1.2-.4-.6-.4-1.8h1.3c1.3 0 3 0 3.7-.2v-.5q-.1-2.8-2.8-3-1 0-1.9.5-1.7 1-1.7 3.4c0 3 2 3.6 3.4 3.6Zm1.7-4.3h-3.7q0-1 .3-1.5.6-1 1.7-1.1.8 0 1.2.6t.5 2Zm2.1-2h.6c.6 0 .7 0 .7 1v3.5c0 1 0 1-.6 1l-.7.1v.5h4.1v-.5h-.8c-.7 0-.7-.1-.7-1.1V196q.1-1.5 1.3-1.6.7 0 1 .7h.4l.1-1.9-.7-.1q-.8 0-1.3.6l-.8 1v-1.6h-.2l-2.4.6Zm9.5 6.3c1 0 2.4-.5 2.6-.8l.3-.5-.2-.2c-1 .6-1.3.7-2 .7q-1.6 0-2.2-1.2-.4-.6-.5-1.8h1.3c1.3 0 3 0 3.7-.2v-.5q0-2.8-2.8-3-.9 0-1.9.5-1.7 1-1.7 3.4c0 3 2 3.6 3.4 3.6Zm1.7-4.3h-3.6q0-1 .2-1.5.6-1 1.7-1.1.8 0 1.2.6.5.6.5 2Zm2.4 1.8-.1 2.2 2 .3c2 0 3.5-1 3.5-2.5 0-2.7-4.3-1.3-4.3-3.2q0-1.2 1.4-1.2 1.6 0 1.8 1.2v.4h.5v-1.8q-1-.3-2-.3-2.7 0-2.8 2.2 0 1 1 1.6c1.8.8 3.3.4 3.3 1.7q-.1 1.3-1.9 1.4-1.8-.1-1.9-1.3v-.7Zm7.4-3.6v4.4q0 1.6 1.7 1.6.6 0 .8-.2l.7-.8-.2-.2-.9.3q-.8 0-.8-1.1v-4h2v-.8h-2v-.5l.1-2.2-.1-.2-1.3.6v2.3l-1.2.5v.4Z"/><path fill="#900" stroke="#900" stroke-width=".1" d="m311.6 45-5.3-9h-2.5v.4h.5c.7 0 1.2.8 1.2.9l-1.4 7.7c-.2 1-.3 1-.8 1.1h-.5v.5h3.3v-.4h-.6q-.8 0-.7-.7V45l1.2-7.1 5.2 8.8h.8l1.4-8.4c.3-1.8.4-1.8 1-1.9h.5V36h-3.2v.4h.6q.6 0 .6.4z"/><svg width="12.7" height="9" x="302.7" y="26.3" overflow="visible"><path d="m12.7 4.4-2.9-3-.4.5 1.7 2H11v.8h.1L9.4 6.9l.4.5zm-11.2.3h10.7V4H1.5z" style="fill:#900;fill-opacity:1;stroke-width:1px;stroke:none;stroke-opacity:1"/></svg><path fill="#900" stroke="#900" stroke-width=".1" d="M321 52.5q.1.3-.4.3h-.4v.4h2.6v-.3h-.3q-.6-.1-.6-.6l-1-6.7h-.4l-4 6.3q-.5.8-1 .9h-.2v.4h2.4v-.3h-.6q-.3 0-.3-.3l.2-.6 1.1-1.8h2.7l.2 2zm-.7-5.8.4 3h-2.3Zm36 50.3h1.6q1.6 0 1.6.3l.1 1.4h.4q0-1.4.3-2.3h-6.9v.4h.8q.5 0 .5.4l-.1 1.2-1.2 6.6c-.2 1.4-.2 1.4-.9 1.5h-.5v.5h4v-.5h-1q-.6 0-.5-.4v-.4l.6-3.4h3.8l.3-.6v-.1h-4l.7-4 .1-.6Z"/><svg width="9.3" height="9" x="351.9" y="86.6" overflow="visible"><path d="m9.3 4.4-2.9-3-.4.5 1.7 2h-.1v.8h.1L6 6.9l.4.5zm-7.8.3h7.3V4H1.5z" style="fill:#900;fill-opacity:1;stroke-width:1px;stroke:none;stroke-opacity:1"/></svg><path fill="#900" stroke="#900" stroke-width=".1" d="m202 36.3-5.3-9h-2.5v.5h.5c.6 0 1.2.7 1.2.8l-1.4 7.8q-.2 1.2-.9 1l-.4.1-.1.5h3.4v-.5h-.6q-.9 0-.8-.7v-.4l1.3-7.1 5.2 8.8h.8l1.4-8.5c.3-1.7.3-1.8 1-1.8h.5v-.5h-3.2l-.1.5h.7q.6 0 .6.4z"/><svg width="12.7" height="9" x="193" y="17.6" overflow="visible"><path d="m12.7 4.4-2.9-3-.4.5 1.7 2H11v.8h.1L9.4 6.9l.4.5zm-11.2.3h10.7V4H1.5z" style="fill:#900;fill-opacity:1;stroke-width:1px;stroke:none;stroke-opacity:1"/></svg><path fill="#900" stroke="#900" stroke-width=".1" d="M211.5 43.9q0 .3-.5.3h-.5v.3h2.6v-.3h-.2q-.7 0-.6-.6l-1-6.7h-.5l-4 6.4q-.4.8-.9.8h-.2v.4h2.3v-.3h-.5l-.4-.2.3-.6 1.1-1.9h2.6l.3 2zm-.8-5.9.4 3.1h-2.3ZM67.9 143h.9c-.9 1.2-2.4 2.4-2.4 4.6q0 1.9 1.4 2t2.9-3l-.2 1.5q0 1.6 1.1 1.6c2 0 4.4-3.8 4.4-6q0-1.5-1-1.6l-.4.2-.8.7.2.3.4-.1q.6 0 .6 1c0 2.2-1.5 4.7-2.8 4.7q-.7-.1-.7-1.4t.3-2.4l.8-2.8-.1-.2-1.1.4-.5 2.3q-.2 1.2-.8 2.3-1 1.8-1.7 1.8-.8 0-.9-1.5 0-2.6 2.2-5l-.2-.3-1 .2h-2.3l-.6 1.8h.4l.2-.6q.2-.4.8-.4z"/><svg width="11.8" height="9" x="65.3" y="132.2" overflow="visible"><path d="M11.8 4.4 9 1.4l-.5.5 1.8 2H10v.8h.2L8.5 6.9l.5.5zm-10.3.3h9.9V4H1.5z" style="fill:#900;fill-opacity:1;stroke-width:1px;stroke:none;stroke-opacity:1"/></svg><path fill="#900" stroke="#900" stroke-width=".1" d="M82.6 153.6c0-1.1-.9-1.3-1.8-1.4l1.2-.7q.8-.6.8-1.4 0-1.4-1.7-1.4h-3.2v.3h.5q.4 0 .4.3l-.1.8-1 5.4q0 .3-.6.3v.3h2.7c1.2 0 2.8-1 2.8-2.5Zm-4 2 .5-3.2h1q1.5 0 1.6 1.4-.1 1.8-1.9 2zm2-6.5q1.3 0 1.3 1.1 0 1.8-2.2 1.8h-.5l.5-2.9zm225.8 1.1h1c-1 1-2.4 2.3-2.4 4.5q0 1.9 1.3 2t3-3l-.3 1.5q0 1.6 1.2 1.6c2 0 4.4-3.8 4.4-6q0-1.5-1-1.6l-.5.2-.8.7.2.3.4-.1q.6 0 .7 1c0 2.2-1.5 4.7-2.8 4.7q-.8-.1-.8-1.4l.3-2.4.8-2.8v-.2l-1.2.4-.4 2.3q-.2 1.2-.9 2.3-1 1.8-1.6 1.8-1 0-1-1.5 0-2.6 2.2-5l-.1-.3-1 .2h-2.3l-.6 1.8h.3l.3-.6q.1-.4.8-.4z"/><svg width="11.8" height="9" x="303.9" y="139.3" overflow="visible"><path d="M11.8 4.4 9 1.4l-.5.5 1.8 2H10v.8h.2L8.5 6.9l.5.5zm-10.3.3h9.9V4H1.5z" style="fill:#900;fill-opacity:1;stroke-width:1px;stroke:none;stroke-opacity:1"/></svg><path fill="#900" stroke="#900" stroke-width=".1" d="M321.2 160.7c0-1.1-1-1.3-1.8-1.4l1.2-.7q.7-.6.7-1.4 0-1.4-1.7-1.4h-3.2v.3h.6q.3 0 .3.3v.8l-1 5.4q0 .3-.6.3v.3h2.6c1.2 0 2.9-1 2.9-2.5Zm-4 2 .5-3.2h.9q1.6 0 1.6 1.4-.1 1.8-1.8 2zm2-6.5q1.2 0 1.2 1.1 0 1.8-2.1 1.8h-.6l.6-2.9zM287.9 96h1q1.9 0 1.9.3v1.6h.4l.4-2.6H283l-.3 2.5h.5l.2-.9q0-.5.3-.7l1.2-.2h1.7l-1.3 8c-.2 1.4-.3 1.4-.9 1.5h-.8v.5h4.2v-.5h-.9q-.5 0-.5-.5v-.5Z"/><svg width="10.1" height="9" x="281.9" y="85.6" overflow="visible"><path d="m10.1 4.4-2.8-3-.5.5 1.8 2h-.2v.8h.2L6.8 6.9l.5.5zm-8.6.3h8.2V4H1.5z" style="fill:#900;fill-opacity:1;stroke-width:1px;stroke:none;stroke-opacity:1"/></svg></svg></svg>