<svg xmlns="http://www.w3.org/2000/svg" width="186.6" height="100.625" style="width:186.60000610351562px;height:100.625px;background:0 0;fill:none"><svg xmlns="http://www.w3.org/2000/svg"/><svg xmlns="http://www.w3.org/2000/svg" class="role-diagram-draw-area"><g class="shapes-region" style="stroke:#000;fill:none"><g class="arrow-line"><path d="M19.27 61h38" class="connection real" style="stroke:#900;stroke-opacity:1;stroke-width:1;fill:#900;fill-opacity:.59"/><path fill="#900" stroke="none" d="M10.72-5.15 0 0l10.72 5.15L7.12 0Z" style="stroke:none;fill:#900;stroke-width:1" transform="matrix(-1 0 0 -1 60.267 61.004)"/></g><g class="composite-shape"><defs><pattern id="_pgf5dmfi15ke" width="11.314" height="11.314" x="0" y="0" patternTransform="rotate(45 0 0)" patternUnits="userSpaceOnUse"><path d="M0 0v11.314M5.657 0v11.314M11.314 0v11.314" style="stroke:#000;stroke-opacity:1;stroke-width:1;fill:none"/></pattern></defs><path d="M-12.5 71.13h250v40h-250Z" class="real" style="stroke-width:1;stroke:#000;fill:url(#_pgf5dmfi15ke);fill-opacity:1"/></g><g class="composite-shape"><path d="M60.04 48.33h103.2v22.52H60.04Z" class="real" style="stroke-width:1;stroke:#900;stroke-opacity:1;fill:#900;fill-opacity:.5"/></g><g class="composite-shape"><path d="M84.84 16.58h62v31.25h-62Z" class="real" style="stroke-width:1;stroke:#900;stroke-opacity:1;fill:#900;fill-opacity:.5"/></g></g></svg><svg xmlns="http://www.w3.org/2000/svg" xmlns:xlink="http://www.w3.org/1999/xlink" width="185" height="99.025" style="width:185px;height:99.0250015258789px;font-family:Asana-Math,Asana;background:0 0"><path fill="#fff" stroke="#fff" stroke-width=".136" d="m121.641 37.249-.442.289c-.493.323-.867.51-1.037.51-.119 0-.22-.153-.22-.34 0-.17.033-.323.118-.68l1.275-5.049c.068-.289.12-.561.12-.697 0-.289-.17-.476-.443-.476-.493 0-1.139.306-2.176 1.037-1.07.765-1.666 1.36-2.499 2.533l.51-2.329c.068-.34.12-.595.12-.714 0-.323-.17-.527-.443-.527-.51 0-1.292.374-2.227 1.088-.748.578-1.088.935-2.193 2.431l.561-2.261c.068-.272.102-.527.102-.731 0-.323-.153-.527-.39-.527-.358 0-1.004.357-2.262 1.258l-.476.34.12.34c.628-.391 1.223-.782 1.342-.782.187 0 .306.17.306.425 0 .867-.697 4.148-1.394 6.579l.051.187 1.156-.255.374-1.734c.408-1.887.867-2.89 1.802-3.91.714-.782 1.48-1.292 1.955-1.292.12 0 .187.136.187.357 0 .595-.374 2.533-1.07 5.508l-.273 1.139.085.187 1.173-.255.357-1.819c.272-1.377.85-2.652 1.598-3.485.935-1.037 1.785-1.632 2.33-1.632.135 0 .22.153.22.425 0 .408-.05.646-.425 2.125-.68 2.703-.952 3.06-.952 3.961 0 .425.187.68.51.68.442 0 1.054-.357 2.72-1.598ZM119.46 55.1l.221-.527c-.476-.068-2.975-.102-3.009.05l-1.445 2.653-4.182 7.174-2.55-9.826c-.39.102-2.482.034-2.839 0l-.05.476.441.034c.884.068 1.19.238 1.19.68 0 .102-2.482 8.874-2.516 8.993-.272.884-.527 1.105-1.462 1.19l-.05.442.662-.017c.578-.017 1.003-.034 1.241-.034s.68.017 1.275.034l.595.017.051-.476-.646-.051c-.544-.034-.833-.204-.833-.46 0-.17.034-.39.12-.696l2.107-7.888 2.533 9.826h.391l.97-1.768 4.062-7.038.884-1.48-.629 8.84c-.068.477-.272.596-1.139.664l-.527.05-.05.477.798-.017c.714-.017 1.224-.034 1.48-.034.271 0 .781.017 1.478.034l.782.017.051-.476-.629-.051c-.612-.051-.918-.238-.918-.595l.017-.63.697-9.026c.034-.323.29-.493.782-.527Z"/><path fill="#900" stroke="#900" stroke-width=".136" d="m48.662 41.443 1.802-.068c1.054 0 1.734.153 1.751.408l.136 1.513h.408c.051-1.071.17-1.938.357-2.584-.374-.034-.85-.051-1.139-.051l-.697.017-2.805.034h-.493c-.425 0-1.105-.017-1.751-.034l-.833-.017-.051.476.952.034c.408.017.595.17.595.459 0 .238-.068.782-.153 1.292L45.466 50.3c-.289 1.564-.289 1.581-.986 1.649l-.612.051-.068.476.578-.017c.68-.017 1.224-.034 1.581-.034.306 0 .799.017 1.462.034l.884.017.051-.476-1.088-.051c-.459-.017-.612-.153-.612-.493 0-.102.017-.289.034-.357l.612-3.791h1.989c.459 0 .986.017 1.802.051l.442.017.323-.765-.068-.119a70 70 0 0 1-3.723.102h-.629l.782-4.607c.051-.272.068-.357.153-.544Z"/><svg width="10.288" height="10" x="43.8" y="29.425" overflow="visible"><path d="M10.29 4.85 7.14 1.53l-.49.52 1.93 2.33h-.15v.9h.15L6.65 7.61l.49.52zm-8.61.38h8.15v-.9H1.68z" style="fill:#900;fill-opacity:1;stroke-width:1px;stroke:none;stroke-opacity:1"/></svg></svg></svg>