<svg xmlns="http://www.w3.org/2000/svg" xmlns:xlink="http://www.w3.org/1999/xlink" x="0" y="0" width="377.6000061035156" height="211.90000915527344" style="
        width:377.6000061035156px;
        height:211.90000915527344px;
        background: #FFF;
        fill: none;
">
        <svg xmlns="http://www.w3.org/2000/svg"/>
        
        <svg xmlns="http://www.w3.org/2000/svg" class="role-diagram-draw-area"><g class="shapes-region" style="stroke: black; fill: none;"><g class="composite-shape"><path class="real" d=" M83.13,56.08 L83.13,118.31 L20.91,118.31 L20.91,56.08 Z" style="stroke-width: 1; stroke: rgb(153, 0, 0); stroke-opacity: 1; fill: rgb(245, 234, 234); fill-opacity: 1;"/></g><g class="composite-shape"><path class="real" d=" M209.24,56.08 L209.24,118.31 L147.01,118.31 L147.01,56.08 Z" style="stroke-width: 1; stroke: rgb(153, 0, 0); stroke-opacity: 1; fill: rgb(245, 234, 234); fill-opacity: 1;"/></g><g class="arrow-line"><path class="connection real" stroke-dasharray="" d="  M146.96,87.2 L83.35,87.2" style="stroke: rgb(0, 0, 0); stroke-width: 1; fill: none; fill-opacity: 1;"/></g><g class="arrow-line"><path class="connection real" stroke-dasharray="" d="  M146.96,87.2 L159.45,87.2" style="stroke: rgb(0, 0, 0); stroke-opacity: 1; stroke-width: 1; fill: none; fill-opacity: 1;"/><g stroke="none" fill="rgb(0,0,0)" fill-opacity="1" transform="matrix(-1,1.2246467991473532e-16,-1.2246467991473532e-16,-1,162.45239924727622,87.19792725111138)" style="stroke: none; fill: rgb(0, 0, 0); stroke-width: 1;"><path d=" M10.72,-5.15 L0,0 L10.72,5.15 L7.12,0 Z"/></g></g><g class="arrow-line"><path class="connection real" stroke-dasharray="" d="  M51.56,153.86 L51.56,118.31" style="stroke: rgb(153, 0, 0); stroke-opacity: 1; stroke-width: 1; fill: none; fill-opacity: 1;"/><g stroke="none" fill="rgb(153,0,0)" fill-opacity="1" transform="matrix(-1.8369701987210297e-16,-1,1,-1.8369701987210297e-16,51.55905664479236,156.86212678291105)" style="stroke: none; fill: rgb(153, 0, 0); stroke-width: 1;"><path d=" M10.72,-5.15 L0,0 L10.72,5.15 L7.12,0 Z"/></g></g><g class="arrow-line"><path class="connection real" stroke-dasharray="" d="  M178.77,154.24 L178.77,118.69" style="stroke: rgb(153, 0, 0); stroke-opacity: 1; stroke-width: 1; fill: none; fill-opacity: 1;"/><g stroke="none" fill="rgb(153,0,0)" fill-opacity="1" transform="matrix(-1.8369701987210297e-16,-1,1,-1.8369701987210297e-16,178.76743431026208,157.2443252135534)" style="stroke: none; fill: rgb(153, 0, 0); stroke-width: 1;"><path d=" M10.72,-5.15 L0,0 L10.72,5.15 L7.12,0 Z"/></g></g><g class="arrow-line"><path class="connection real" stroke-dasharray="" d="  M51.94,55.58 L51.94,20.03" style="stroke: rgb(153, 0, 0); stroke-opacity: 1; stroke-width: 1; fill: none; fill-opacity: 1;"/><g stroke="none" fill="rgb(153,0,0)" fill-opacity="1" transform="matrix(3.061616997868383e-16,1,-1,3.061616997868383e-16,51.94125507543474,17.029278248671382)" style="stroke: none; fill: rgb(153, 0, 0); stroke-width: 1;"><path d=" M10.72,-5.15 L0,0 L10.72,5.15 L7.12,0 Z"/></g></g><g class="arrow-line"><path class="connection real" stroke-dasharray="" d="  M178,55.58 L178,20.03" style="stroke: rgb(153, 0, 0); stroke-opacity: 1; stroke-width: 1; fill: none; fill-opacity: 1;"/><g stroke="none" fill="rgb(153,0,0)" fill-opacity="1" transform="matrix(3.061616997868383e-16,1,-1,3.061616997868383e-16,178.00303744897735,17.029278248671375)" style="stroke: none; fill: rgb(153, 0, 0); stroke-width: 1;"><path d=" M10.72,-5.15 L0,0 L10.72,5.15 L7.12,0 Z"/></g></g><g class="arrow-line"><path class="connection real" stroke-dasharray="" d="  M224.09,87.64 L209.93,87.64" style="stroke: rgb(0, 0, 0); stroke-width: 1; fill: none; fill-opacity: 1;"/></g><g class="arrow-line"><path class="connection real" stroke-dasharray="" d="  M224.09,87.64 L252.07,87.64" style="stroke: rgb(153, 0, 0); stroke-opacity: 1; stroke-width: 1; fill: none; fill-opacity: 1;"/><g stroke="none" fill="rgb(153,0,0)" fill-opacity="1" transform="matrix(-1,1.2246467991473532e-16,-1.2246467991473532e-16,-1,255.07349718608458,87.64382542019413)" style="stroke: none; fill: rgb(153, 0, 0); stroke-width: 1;"><path d=" M10.72,-5.15 L0,0 L10.72,5.15 L7.12,0 Z"/></g></g><g class="arrow-line"><path class="connection real" stroke-dasharray="" d="  M134.47,87.2 L146.96,87.2" style="stroke: rgb(153, 0, 0); stroke-opacity: 1; stroke-width: 1; fill: none; fill-opacity: 1;"/><g stroke="none" fill="rgb(153,0,0)" fill-opacity="1" transform="matrix(1,0,0,1,131.46547572525145,87.19792725111137)" style="stroke: none; fill: rgb(153, 0, 0); stroke-width: 1;"><path d=" M10.72,-5.15 L0,0 L10.72,5.15 L7.12,0 Z"/></g></g><g class="arrow-line"><path class="connection real" stroke-dasharray="" d="  M70.86,87.2 L83.35,87.2" style="stroke: rgb(0, 0, 0); stroke-opacity: 1; stroke-width: 1; fill: none; fill-opacity: 1;"/><g stroke="none" fill="rgb(0,0,0)" fill-opacity="1" transform="matrix(1,0,0,1,67.85809973686226,87.19792725111137)" style="stroke: none; fill: rgb(0, 0, 0); stroke-width: 1;"><path d=" M10.72,-5.15 L0,0 L10.72,5.15 L7.12,0 Z"/></g></g><g class="arrow-line"><path class="connection real" stroke-dasharray="" d="  M83.35,87.2 L95.85,87.2" style="stroke: rgb(153, 0, 0); stroke-opacity: 1; stroke-width: 1; fill: none; fill-opacity: 1;"/><g stroke="none" fill="rgb(153,0,0)" fill-opacity="1" transform="matrix(-1,1.2246467991473532e-16,-1.2246467991473532e-16,-1,98.845023258887,87.19792725111138)" style="stroke: none; fill: rgb(153, 0, 0); stroke-width: 1;"><path d=" M10.72,-5.15 L0,0 L10.72,5.15 L7.12,0 Z"/></g></g><g class="arrow-line"><path class="connection real" stroke-dasharray="" d="  M-17.67,118.31 L297.85,118.31" style="stroke: rgb(0, 0, 0); stroke-width: 1; fill: none; fill-opacity: 1;"/></g><g class="composite-shape"><path class="real" d=" M117,34.91 C117,17.63 131.01,3.61 148.3,3.61 L242.2,3.61 C259.49,3.61 273.5,17.63 273.5,34.91 L273.5,131.39 C273.5,148.68 259.49,162.69 242.2,162.69 L148.3,162.69 C131.01,162.69 117,148.68 117,131.39 Z" style="stroke-width: 1; stroke: rgb(0, 0, 0); stroke-opacity: 0.5; fill: none; fill-opacity: 1;"/></g><g class="composite-shape"><path class="real" d=" M310.65,97.29 C310.65,95.81 311.85,94.62 313.33,94.62 C314.81,94.62 316.01,95.81 316.01,97.29 C316.01,98.77 314.81,99.97 313.33,99.97 C311.85,99.97 310.65,98.77 310.65,97.29 Z" style="stroke-width: 1; stroke: rgb(0, 0, 0); fill: rgb(0, 0, 0); fill-opacity: 1;"/></g><g class="arrow-line"><path class="connection real" stroke-dasharray="" d="  M316.01,97.29 L343.99,97.29" style="stroke: rgb(153, 0, 0); stroke-opacity: 1; stroke-width: 1; fill: none; fill-opacity: 1;"/><g stroke="none" fill="rgb(153,0,0)" fill-opacity="1" transform="matrix(-1,1.2246467991473532e-16,-1.2246467991473532e-16,-1,346.9922267538375,97.29172563647984)" style="stroke: none; fill: rgb(153, 0, 0); stroke-width: 1;"><path d=" M10.72,-5.15 L0,0 L10.72,5.15 L7.12,0 Z"/></g></g><g class="arrow-line"><path class="connection real" stroke-dasharray="" d="  M190.43,184.94 L190.43,164.36" style="stroke: rgb(0, 0, 0); stroke-width: 1; fill: none; fill-opacity: 1;"/><g stroke="#000" transform="matrix(3.061616997868383e-16,1,-1,3.061616997868383e-16,190.43454266951625,162.36109706840443)" style="stroke: rgb(0, 0, 0); stroke-width: 1;"><path d=" M10.93,-3.29 Q4.96,-0.45 0,0 Q4.96,0.45 10.93,3.29"/></g></g><g class="arrow-line"><path class="connection real" stroke-dasharray="" d="  M313.33,135.52 L313.33,99.97" style="stroke: rgb(153, 0, 0); stroke-opacity: 1; stroke-width: 1; fill: none; fill-opacity: 1;"/><g stroke="none" fill="rgb(153,0,0)" fill-opacity="1" transform="matrix(-1.8369701987210297e-16,-1,1,-1.8369701987210297e-16,313.3299142173162,138.51737906498738)" style="stroke: none; fill: rgb(153, 0, 0); stroke-width: 1;"><path d=" M10.72,-5.15 L0,0 L10.72,5.15 L7.12,0 Z"/></g></g><g class="arrow-line"><path class="connection real" stroke-dasharray="" d="  M313.33,94.62 L313.33,74.58 L313.33,59.07" style="stroke: rgb(153, 0, 0); stroke-opacity: 1; stroke-width: 1; fill: none; fill-opacity: 1;"/><g stroke="none" fill="rgb(153,0,0)" fill-opacity="1" transform="matrix(3.061616997868383e-16,1,-1,3.061616997868383e-16,313.3299142173162,56.0660722079723)" style="stroke: none; fill: rgb(153, 0, 0); stroke-width: 1;"><path d=" M10.72,-5.15 L0,0 L10.72,5.15 L7.12,0 Z"/></g></g><g class="arrow-line"><path class="connection real" stroke-dasharray="" d="  M298.16,97.29 L310.65,97.29" style="stroke: rgb(153, 0, 0); stroke-opacity: 1; stroke-width: 1; fill: none; fill-opacity: 1;"/><g stroke="none" fill="rgb(153,0,0)" fill-opacity="1" transform="matrix(1,0,0,1,295.1610634418072,97.29172563647982)" style="stroke: none; fill: rgb(153, 0, 0); stroke-width: 1;"><path d=" M10.72,-5.15 L0,0 L10.72,5.15 L7.12,0 Z"/></g></g><g/></g><g/><g/><g/></svg>
        <svg xmlns="http://www.w3.org/2000/svg" xmlns:xlink="http://www.w3.org/1999/xlink" width="376" height="210.3000030517578" style="width:376px;height:210.3000030517578px;font-family:Asana-Math, Asana;background:#FFF;"><g><g><g><g><g><g><g transform="matrix(1,0,0,1,45.61248779296875,92.9875)"><path transform="matrix(0.015300000000000001,0,0,-0.015300000000000001,0,0)" d="M390 646L463 646C541 646 577 641 580 629C583 621 585 602 584 592L580 528L608 528L635 692L544 691C456 690 388 689 353 689C316 689 252 690 166 691L71 692L53 528L82 528L97 588C102 610 109 626 115 633C121 640 159 646 196 646L308 646L222 125C206 34 204 31 164 28L113 25L109 -3L166 -2C206 -1 235 0 251 0C270 0 301 -1 340 -2L384 -3L387 25L328 28C302 29 292 37 292 58C292 67 293 74 296 93Z" stroke="rgb(0,0,0)" stroke-opacity="1" stroke-width="8" fill="rgb(0,0,0)" fill-opacity="1"></path></g></g></g></g><svg x="45.61248779296875" overflow="visible" y="72.6875" height="9" width="10.100000381469727"><path d=" M 10.10 4.37 l -2.84 -2.99 l -0.44 0.47 l 1.74 2.09 h -0.14 v 0.81 h 0.14 l -1.74 2.09 l 0.44 0.47 z  M 1.51 4.71 h 8.17 v -0.81 h -8.17 z" style="fill:rgb(0,0,0);fill-opacity:1;stroke-width:1px;stroke:none;stroke-opacity:1;"></path></svg></g><g><g><g><g><g transform="matrix(1,0,0,1,55.4000244140625,99.54752441406251)"><path transform="matrix(0.01071,0,0,-0.01071,0,0)" d="M543 227C543 337 459 353 377 365C434 385 459 397 490 425C536 464 559 511 559 562C559 644 501 692 401 692C399 692 389 692 374 691L311 690C299 689 263 689 251 689C232 689 201 690 152 691L100 692L97 664L150 662C174 661 185 653 185 635C185 621 181 589 176 559L89 55C85 37 73 30 31 23L26 -3L63 -2C90 0 105 0 117 0C128 0 154 -1 180 -2L217 -3L237 -4C256 -5 269 -6 277 -6C392 -6 543 87 543 227ZM166 41L217 340L302 340C405 340 455 298 455 211C455 108 382 34 282 34C228 34 207 38 166 41ZM352 655C433 655 473 619 473 544C473 439 399 376 275 376L223 376L272 650C288 650 329 655 352 655Z" stroke="rgb(0,0,0)" stroke-opacity="1" stroke-width="8" fill="rgb(0,0,0)" fill-opacity="1"></path></g></g></g></g></g></g></g><g><g><g><g><g><g><g transform="matrix(1,0,0,1,169.625,92.9875)"><path transform="matrix(0.015300000000000001,0,0,-0.015300000000000001,0,0)" d="M390 646L463 646C541 646 577 641 580 629C583 621 585 602 584 592L580 528L608 528L635 692L544 691C456 690 388 689 353 689C316 689 252 690 166 691L71 692L53 528L82 528L97 588C102 610 109 626 115 633C121 640 159 646 196 646L308 646L222 125C206 34 204 31 164 28L113 25L109 -3L166 -2C206 -1 235 0 251 0C270 0 301 -1 340 -2L384 -3L387 25L328 28C302 29 292 37 292 58C292 67 293 74 296 93Z" stroke="rgb(0,0,0)" stroke-opacity="1" stroke-width="8" fill="rgb(0,0,0)" fill-opacity="1"></path></g></g></g></g><svg x="169.625" overflow="visible" y="72.6875" height="9" width="10.100000381469727"><path d=" M 10.10 4.37 l -2.84 -2.99 l -0.44 0.47 l 1.74 2.09 h -0.14 v 0.81 h 0.14 l -1.74 2.09 l 0.44 0.47 z  M 1.51 4.71 h 8.17 v -0.81 h -8.17 z" style="fill:rgb(0,0,0);fill-opacity:1;stroke-width:1px;stroke:none;stroke-opacity:1;"></path></svg></g><g><g><g><g><g transform="matrix(1,0,0,1,179.41253662109375,99.54752441406251)"><path transform="matrix(0.01071,0,0,-0.01071,0,0)" d="M567 55C567 39 552 30 524 28L480 25L480 -3C582 0 582 0 602 0C622 0 622 0 724 -3L724 25L698 28C651 35 650 35 642 80L555 705L509 705L136 112C100 56 82 40 48 32L28 27L28 -3C120 0 120 0 140 0C159 0 161 0 247 -3L247 25L195 28C179 29 164 38 164 47C164 55 171 69 190 102L292 277L538 277L563 89L563 86C563 84 567 69 567 55ZM496 601L533 313L317 313Z" stroke="rgb(0,0,0)" stroke-opacity="1" stroke-width="8" fill="rgb(0,0,0)" fill-opacity="1"></path></g></g></g></g></g></g></g><g><g><g><g><g><g><g transform="matrix(1,0,0,1,97.1500244140625,83.34998779296875)"><path transform="matrix(0.015300000000000001,0,0,-0.015300000000000001,0,0)" d="M390 646L463 646C541 646 577 641 580 629C583 621 585 602 584 592L580 528L608 528L635 692L544 691C456 690 388 689 353 689C316 689 252 690 166 691L71 692L53 528L82 528L97 588C102 610 109 626 115 633C121 640 159 646 196 646L308 646L222 125C206 34 204 31 164 28L113 25L109 -3L166 -2C206 -1 235 0 251 0C270 0 301 -1 340 -2L384 -3L387 25L328 28C302 29 292 37 292 58C292 67 293 74 296 93Z" stroke="rgb(153,0,0)" stroke-opacity="1" stroke-width="8" fill="rgb(153,0,0)" fill-opacity="1"></path></g></g></g></g><svg x="97.1500244140625" overflow="visible" y="63.04998779296875" height="9" width="10.100000381469727"><path d=" M 10.10 4.37 l -2.84 -2.99 l -0.44 0.47 l 1.74 2.09 h -0.14 v 0.81 h 0.14 l -1.74 2.09 l 0.44 0.47 z  M 1.51 4.71 h 8.17 v -0.81 h -8.17 z" style="fill:rgb(153,0,0);fill-opacity:1;stroke-width:1px;stroke:none;stroke-opacity:1;"></path></svg></g></g></g><g><g><g><g><g><g><g transform="matrix(1,0,0,1,129.0625,83.28748779296875)"><path transform="matrix(0.015300000000000001,0,0,-0.015300000000000001,0,0)" d="M390 646L463 646C541 646 577 641 580 629C583 621 585 602 584 592L580 528L608 528L635 692L544 691C456 690 388 689 353 689C316 689 252 690 166 691L71 692L53 528L82 528L97 588C102 610 109 626 115 633C121 640 159 646 196 646L308 646L222 125C206 34 204 31 164 28L113 25L109 -3L166 -2C206 -1 235 0 251 0C270 0 301 -1 340 -2L384 -3L387 25L328 28C302 29 292 37 292 58C292 67 293 74 296 93Z" stroke="rgb(153,0,0)" stroke-opacity="1" stroke-width="8" fill="rgb(153,0,0)" fill-opacity="1"></path></g></g></g></g><svg x="129.0625" overflow="visible" y="62.98748779296875" height="9" width="10.100000381469727"><path d=" M 10.10 4.37 l -2.84 -2.99 l -0.44 0.47 l 1.74 2.09 h -0.14 v 0.81 h 0.14 l -1.74 2.09 l 0.44 0.47 z  M 1.51 4.71 h 8.17 v -0.81 h -8.17 z" style="fill:rgb(153,0,0);fill-opacity:1;stroke-width:1px;stroke:none;stroke-opacity:1;"></path></svg></g></g></g><g><g><g><g><g><g><g transform="matrix(1,0,0,1,191.70001220703125,152.12501220703126)"><path transform="matrix(0.015300000000000001,0,0,-0.015300000000000001,0,0)" d="M167 420C188 420 201 421 226 424C171 350 72 266 72 126C72 44 107 -11 160 -11C224 -11 276 44 350 187C341 143 338 118 338 95C338 32 367 -11 412 -11C546 -11 699 238 699 384C699 441 673 482 637 482C624 482 612 478 604 470L554 423L565 404C574 410 583 413 592 413C619 413 635 390 635 350C635 205 538 39 453 39C424 39 403 79 403 134C403 181 412 247 424 290L476 474L469 482L395 460L366 311C354 249 340 209 311 155C271 80 233 39 203 39C168 39 145 78 145 136C145 255 186 352 285 464L275 482C255 473 242 470 214 470C186 470 144 472 115 475L103 476C97 477 92 477 91 477C79 477 70 475 59 470C45 443 34 407 21 352L43 352L60 394C67 411 87 422 111 422C145 422 128 420 167 420Z" stroke="rgb(153,0,0)" stroke-opacity="1" stroke-width="8" fill="rgb(153,0,0)" fill-opacity="1"></path></g></g></g></g><svg x="191.70001220703125" overflow="visible" y="134.82501220703125" height="9" width="11.800000190734863"><path d=" M 11.80 4.37 l -2.84 -2.99 l -0.44 0.47 l 1.74 2.09 h -0.14 v 0.81 h 0.14 l -1.74 2.09 l 0.44 0.47 z  M 1.51 4.71 h 9.87 v -0.81 h -9.87 z" style="fill:rgb(153,0,0);fill-opacity:1;stroke-width:1px;stroke:none;stroke-opacity:1;"></path></svg></g><g><g><g><g><g transform="matrix(1,0,0,1,203.1875,158.68503662109376)"><path transform="matrix(0.01071,0,0,-0.01071,0,0)" d="M567 55C567 39 552 30 524 28L480 25L480 -3C582 0 582 0 602 0C622 0 622 0 724 -3L724 25L698 28C651 35 650 35 642 80L555 705L509 705L136 112C100 56 82 40 48 32L28 27L28 -3C120 0 120 0 140 0C159 0 161 0 247 -3L247 25L195 28C179 29 164 38 164 47C164 55 171 69 190 102L292 277L538 277L563 89L563 86C563 84 567 69 567 55ZM496 601L533 313L317 313Z" stroke="rgb(153,0,0)" stroke-opacity="1" stroke-width="8" fill="rgb(153,0,0)" fill-opacity="1"></path></g></g></g></g></g></g></g><g><g><g><g><g><g><g transform="matrix(1,0,0,1,66.8125,37.15000610351562)"><path transform="matrix(0.015300000000000001,0,0,-0.015300000000000001,0,0)" d="M582 103L237 692L75 692L70 664L105 662C150 660 184 615 185 606L92 102C80 40 74 32 38 28L7 25L2 -3L113 0C125 0 126 0 223 -3L228 25L186 28C146 31 137 39 137 72C137 80 138 91 140 102L220 566L558 -11L608 -11L702 542C723 655 725 659 762 662L799 664L802 691L589 692L584 664L631 662C657 661 667 654 667 638C667 631 584 116 582 103Z" stroke="rgb(153,0,0)" stroke-opacity="1" stroke-width="8" fill="rgb(153,0,0)" fill-opacity="1"></path></g></g></g></g><svg x="66.8125" overflow="visible" y="16.850006103515625" height="9" width="12.65000057220459"><path d=" M 12.65 4.37 l -2.84 -2.99 l -0.44 0.47 l 1.74 2.09 h -0.14 v 0.81 h 0.14 l -1.74 2.09 l 0.44 0.47 z  M 1.51 4.71 h 10.72 v -0.81 h -10.72 z" style="fill:rgb(153,0,0);fill-opacity:1;stroke-width:1px;stroke:none;stroke-opacity:1;"></path></svg></g><g><g><g><g><g transform="matrix(1,0,0,1,79.1500244140625,43.71)"><path transform="matrix(0.01071,0,0,-0.01071,0,0)" d="M543 227C543 337 459 353 377 365C434 385 459 397 490 425C536 464 559 511 559 562C559 644 501 692 401 692C399 692 389 692 374 691L311 690C299 689 263 689 251 689C232 689 201 690 152 691L100 692L97 664L150 662C174 661 185 653 185 635C185 621 181 589 176 559L89 55C85 37 73 30 31 23L26 -3L63 -2C90 0 105 0 117 0C128 0 154 -1 180 -2L217 -3L237 -4C256 -5 269 -6 277 -6C392 -6 543 87 543 227ZM166 41L217 340L302 340C405 340 455 298 455 211C455 108 382 34 282 34C228 34 207 38 166 41ZM352 655C433 655 473 619 473 544C473 439 399 376 275 376L223 376L272 650C288 650 329 655 352 655Z" stroke="rgb(153,0,0)" stroke-opacity="1" stroke-width="8" fill="rgb(153,0,0)" fill-opacity="1"></path></g></g></g></g></g></g></g><g><g><g><g><g><g><g transform="matrix(1,0,0,1,257.86248779296875,96.2625244140625)"><path transform="matrix(0.015300000000000001,0,0,-0.015300000000000001,0,0)" d="M286 646L392 650C454 650 494 641 495 626L503 537L527 537C530 600 537 651 548 689C526 691 498 692 481 692L440 691L275 689L246 689C221 689 181 690 143 691L94 692L91 664L147 662C171 661 182 652 182 635C182 621 178 589 173 559L98 125C81 33 81 32 40 28L4 25L0 -3L34 -2C74 -1 106 0 127 0C145 0 174 -1 213 -2L265 -3L268 25L204 28C177 29 168 37 168 57C168 63 169 74 170 78L206 301L323 301C350 301 381 300 429 298L455 297L474 342L470 349C389 345 329 343 251 343L214 343L260 614C263 630 264 635 269 646Z" stroke="rgb(153,0,0)" stroke-opacity="1" stroke-width="8" fill="rgb(153,0,0)" fill-opacity="1"></path></g></g></g></g><svg x="257.86248779296875" overflow="visible" y="75.9625244140625" height="9" width="9.262499809265137"><path d=" M 9.26 4.37 l -2.84 -2.99 l -0.44 0.47 l 1.74 2.09 h -0.14 v 0.81 h 0.14 l -1.74 2.09 l 0.44 0.47 z  M 1.51 4.71 h 7.33 v -0.81 h -7.33 z" style="fill:rgb(153,0,0);fill-opacity:1;stroke-width:1px;stroke:none;stroke-opacity:1;"></path></svg></g></g></g><g><g><g><g transform="matrix(1,0,0,1,131.11248779296875,200.2375)"><path transform="matrix(0.015300000000000001,0,0,-0.015300000000000001,0,0)" d="M41 143C41 74 38 44 30 4C82 -13 121 -20 167 -20C298 -20 391 50 391 148C391 321 107 228 107 358C107 408 142 436 203 436C270 436 321 401 321 354L321 331L349 331C350 389 351 413 354 444C301 462 265 469 224 469C108 469 37 414 37 324C37 276 59 242 105 221C223 169 317 195 317 109C317 55 267 17 196 17C123 17 71 52 71 102L71 143ZM720 86C698 124 687 147 669 196L605 364C599 381 595 396 595 406C595 420 606 428 629 429L667 431L667 459C570 456 570 456 551 456C532 456 532 456 435 459L435 431L453 429C478 426 490 415 505 380L614 118C642 50 652 26 670 -24L647 -85C615 -169 576 -216 538 -216C522 -216 504 -208 487 -193L474 -193L450 -268C469 -278 485 -283 504 -283C571 -283 614 -247 652 -160L855 308C895 399 914 426 939 429L967 431L967 459C888 456 888 456 872 456C856 456 856 456 777 459L777 431L803 429C831 427 845 418 845 404C845 397 843 388 839 378ZM1019 143C1019 74 1016 44 1008 4C1060 -13 1099 -20 1145 -20C1276 -20 1369 50 1369 148C1369 321 1085 228 1085 358C1085 408 1120 436 1181 436C1248 436 1299 401 1299 354L1299 331L1327 331C1328 389 1329 413 1332 444C1279 462 1243 469 1202 469C1086 469 1015 414 1015 324C1015 276 1037 242 1083 221C1201 169 1295 195 1295 109C1295 55 1245 17 1174 17C1101 17 1049 52 1049 102L1049 143ZM1499 382L1499 94C1499 20 1532 -12 1609 -12C1632 -12 1656 -7 1662 0L1710 53L1697 70C1672 56 1657 51 1638 51C1599 51 1583 71 1583 120L1583 382L1711 382L1720 436L1583 430L1583 468C1583 510 1586 546 1594 610L1582 621C1558 606 1528 593 1497 583C1500 553 1501 534 1501 504L1501 434L1423 399L1423 378ZM1976 -20C2041 -20 2131 18 2143 36L2163 70L2150 80C2086 42 2063 33 2020 33C1955 33 1901 62 1873 111C1854 144 1847 172 1845 230C1866 227 1896 226 1930 226C2016 226 2125 234 2172 244C2173 258 2174 267 2174 279C2174 394 2100 469 1988 469C1951 469 1906 464 1866 440C1784 392 1752 323 1752 219C1752 25 1887 -20 1976 -20ZM2085 267C2061 264 2010 261 1959 261C1916 261 1873 264 1847 270C1847 317 1851 339 1864 365C1885 409 1928 436 1976 436C2009 436 2035 423 2053 396C2075 363 2082 334 2085 267ZM2222 400L2259 400C2299 400 2303 393 2303 327L2303 102C2303 39 2300 32 2266 30L2220 27L2220 -3C2316 0 2319 0 2347 0C2375 0 2401 -1 2466 -3L2466 27L2424 30C2390 32 2387 39 2387 102L2387 314C2387 359 2453 408 2513 408C2567 408 2604 357 2604 281L2604 102C2604 39 2601 32 2567 30L2521 27L2521 -3C2621 0 2621 0 2646 0C2671 0 2671 0 2771 -3L2771 27L2725 30C2691 32 2688 39 2688 102L2688 314C2688 359 2754 408 2814 408C2868 408 2905 357 2905 281L2905 -3C2966 0 2967 0 2984 0C2997 0 2997 0 3073 -3L3073 27L3026 30C2992 32 2989 39 2989 102L2989 308C2989 407 2931 469 2839 469C2804 469 2775 460 2757 444L2681 376C2649 442 2608 469 2539 469C2502 469 2474 460 2456 444L2387 380L2387 465L2378 469C2327 448 2275 434 2222 428ZM3614 469C3468 469 3367 366 3367 217C3367 76 3456 -20 3585 -20C3739 -20 3849 87 3849 237C3849 372 3751 469 3614 469ZM3596 436C3688 436 3756 336 3756 200C3756 85 3705 13 3624 13C3526 13 3460 109 3460 251C3460 371 3508 436 3596 436ZM4221 717C4197 731 4175 737 4154 737C4043 737 3986 555 3986 478L3986 476L3986 434L3917 403L3917 381L3986 385L3986 102C3986 39 3983 32 3949 30L3903 27L3903 -3C4003 0 4003 0 4028 0C4053 0 4053 0 4153 -3L4153 27L4107 30C4073 32 4070 39 4070 102L4070 385L4194 385L4201 438L4070 434L4070 519C4070 634 4083 662 4140 662C4167 662 4185 655 4209 634L4221 640ZM4649 465L4640 469C4589 448 4537 434 4484 428L4484 400L4521 400C4561 400 4565 393 4565 327L4565 102C4565 39 4562 32 4528 30L4482 27L4482 -3C4582 0 4582 0 4607 0C4632 0 4632 0 4732 -3L4732 27L4686 30C4652 32 4649 39 4649 102ZM4603 687C4573 687 4547 661 4547 631C4547 602 4573 576 4602 576C4631 576 4658 602 4658 631C4658 659 4631 687 4603 687ZM5161 -3C5222 0 5223 0 5240 0C5254 0 5254 0 5323 -3L5323 27L5282 30C5248 32 5245 38 5245 102L5245 295C5245 412 5190 469 5078 469C5041 469 5020 462 4999 444L4923 378L4923 465L4914 469C4863 448 4811 434 4758 428L4758 400L4795 400C4835 400 4839 393 4839 327L4839 102C4839 39 4836 32 4802 30L4757 27L4757 -3C4825 -1 4852 0 4881 0C4910 0 4937 -1 5005 -3L5005 27L4960 30C4926 32 4923 39 4923 102L4923 314C4923 359 4989 408 5050 408C5117 408 5161 358 5161 281ZM5430 382L5430 94C5430 20 5463 -12 5540 -12C5563 -12 5587 -7 5593 0L5641 53L5628 70C5603 56 5588 51 5569 51C5530 51 5514 71 5514 120L5514 382L5642 382L5651 436L5514 430L5514 468C5514 510 5517 546 5525 610L5513 621C5489 606 5459 593 5428 583C5431 553 5432 534 5432 504L5432 434L5354 399L5354 378ZM5907 -20C5972 -20 6062 18 6074 36L6094 70L6081 80C6017 42 5994 33 5951 33C5886 33 5832 62 5804 111C5785 144 5778 172 5776 230C5797 227 5827 226 5861 226C5947 226 6056 234 6103 244C6104 258 6105 267 6105 279C6105 394 6031 469 5919 469C5882 469 5837 464 5797 440C5715 392 5683 323 5683 219C5683 25 5818 -20 5907 -20ZM6016 267C5992 264 5941 261 5890 261C5847 261 5804 264 5778 270C5778 317 5782 339 5795 365C5816 409 5859 436 5907 436C5940 436 5966 423 5984 396C6006 363 6013 334 6016 267ZM6158 400L6195 400C6235 400 6239 393 6239 327L6239 102C6239 39 6236 32 6202 30L6156 27L6156 -3C6228 -1 6254 0 6279 0C6299 0 6299 0 6422 -3L6422 27L6370 30C6325 33 6323 36 6323 102L6323 274C6323 334 6363 384 6412 384C6442 384 6463 370 6479 338L6500 338L6509 458C6498 465 6480 469 6462 469C6432 469 6400 453 6379 428L6323 362L6323 465L6314 469C6263 448 6211 434 6158 428ZM6779 -20C6844 -20 6934 18 6946 36L6966 70L6953 80C6889 42 6866 33 6823 33C6758 33 6704 62 6676 111C6657 144 6650 172 6648 230C6669 227 6699 226 6733 226C6819 226 6928 234 6975 244C6976 258 6977 267 6977 279C6977 394 6903 469 6791 469C6754 469 6709 464 6669 440C6587 392 6555 323 6555 219C6555 25 6690 -20 6779 -20ZM6888 267C6864 264 6813 261 6762 261C6719 261 6676 264 6650 270C6650 317 6654 339 6667 365C6688 409 6731 436 6779 436C6812 436 6838 423 6856 396C6878 363 6885 334 6888 267ZM7048 143C7048 74 7045 44 7037 4C7089 -13 7128 -20 7174 -20C7305 -20 7398 50 7398 148C7398 321 7114 228 7114 358C7114 408 7149 436 7210 436C7277 436 7328 401 7328 354L7328 331L7356 331C7357 389 7358 413 7361 444C7308 462 7272 469 7231 469C7115 469 7044 414 7044 324C7044 276 7066 242 7112 221C7230 169 7324 195 7324 109C7324 55 7274 17 7203 17C7130 17 7078 52 7078 102L7078 143ZM7528 382L7528 94C7528 20 7561 -12 7638 -12C7661 -12 7685 -7 7691 0L7739 53L7726 70C7701 56 7686 51 7667 51C7628 51 7612 71 7612 120L7612 382L7740 382L7749 436L7612 430L7612 468C7612 510 7615 546 7623 610L7611 621C7587 606 7557 593 7526 583C7529 553 7530 534 7530 504L7530 434L7452 399L7452 378Z" stroke="rgb(0,0,0)" stroke-opacity="1" stroke-width="8" fill="rgb(0,0,0)" fill-opacity="1"></path></g></g></g></g><g><g><g><g><g><g><g transform="matrix(1,0,0,1,302.67498779296875,46.56251220703125)"><path transform="matrix(0.015300000000000001,0,0,-0.015300000000000001,0,0)" d="M582 103L237 692L75 692L70 664L105 662C150 660 184 615 185 606L92 102C80 40 74 32 38 28L7 25L2 -3L113 0C125 0 126 0 223 -3L228 25L186 28C146 31 137 39 137 72C137 80 138 91 140 102L220 566L558 -11L608 -11L702 542C723 655 725 659 762 662L799 664L802 691L589 692L584 664L631 662C657 661 667 654 667 638C667 631 584 116 582 103Z" stroke="rgb(153,0,0)" stroke-opacity="1" stroke-width="8" fill="rgb(153,0,0)" fill-opacity="1"></path></g></g></g></g><svg x="302.67498779296875" overflow="visible" y="26.26251220703125" height="9" width="12.65000057220459"><path d=" M 12.65 4.37 l -2.84 -2.99 l -0.44 0.47 l 1.74 2.09 h -0.14 v 0.81 h 0.14 l -1.74 2.09 l 0.44 0.47 z  M 1.51 4.71 h 10.72 v -0.81 h -10.72 z" style="fill:rgb(153,0,0);fill-opacity:1;stroke-width:1px;stroke:none;stroke-opacity:1;"></path></svg></g><g><g><g><g><g transform="matrix(1,0,0,1,315.01251220703125,53.12253662109375)"><path transform="matrix(0.01071,0,0,-0.01071,0,0)" d="M567 55C567 39 552 30 524 28L480 25L480 -3C582 0 582 0 602 0C622 0 622 0 724 -3L724 25L698 28C651 35 650 35 642 80L555 705L509 705L136 112C100 56 82 40 48 32L28 27L28 -3C120 0 120 0 140 0C159 0 161 0 247 -3L247 25L195 28C179 29 164 38 164 47C164 55 171 69 190 102L292 277L538 277L563 89L563 86C563 84 567 69 567 55ZM496 601L533 313L317 313Z" stroke="rgb(153,0,0)" stroke-opacity="1" stroke-width="8" fill="rgb(153,0,0)" fill-opacity="1"></path></g></g></g></g></g></g></g><g><g><g><g><g><g><g transform="matrix(1,0,0,1,351.925048828125,106.925)"><path transform="matrix(0.015300000000000001,0,0,-0.015300000000000001,0,0)" d="M286 646L392 650C454 650 494 641 495 626L503 537L527 537C530 600 537 651 548 689C526 691 498 692 481 692L440 691L275 689L246 689C221 689 181 690 143 691L94 692L91 664L147 662C171 661 182 652 182 635C182 621 178 589 173 559L98 125C81 33 81 32 40 28L4 25L0 -3L34 -2C74 -1 106 0 127 0C145 0 174 -1 213 -2L265 -3L268 25L204 28C177 29 168 37 168 57C168 63 169 74 170 78L206 301L323 301C350 301 381 300 429 298L455 297L474 342L470 349C389 345 329 343 251 343L214 343L260 614C263 630 264 635 269 646Z" stroke="rgb(153,0,0)" stroke-opacity="1" stroke-width="8" fill="rgb(153,0,0)" fill-opacity="1"></path></g></g></g></g><svg x="351.925048828125" overflow="visible" y="86.625" height="9" width="9.262499809265137"><path d=" M 9.26 4.37 l -2.84 -2.99 l -0.44 0.47 l 1.74 2.09 h -0.14 v 0.81 h 0.14 l -1.74 2.09 l 0.44 0.47 z  M 1.51 4.71 h 7.33 v -0.81 h -7.33 z" style="fill:rgb(153,0,0);fill-opacity:1;stroke-width:1px;stroke:none;stroke-opacity:1;"></path></svg></g></g></g><g><g><g><g><g><g><g transform="matrix(1,0,0,1,193.04998779296875,37.91251831054687)"><path transform="matrix(0.015300000000000001,0,0,-0.015300000000000001,0,0)" d="M582 103L237 692L75 692L70 664L105 662C150 660 184 615 185 606L92 102C80 40 74 32 38 28L7 25L2 -3L113 0C125 0 126 0 223 -3L228 25L186 28C146 31 137 39 137 72C137 80 138 91 140 102L220 566L558 -11L608 -11L702 542C723 655 725 659 762 662L799 664L802 691L589 692L584 664L631 662C657 661 667 654 667 638C667 631 584 116 582 103Z" stroke="rgb(153,0,0)" stroke-opacity="1" stroke-width="8" fill="rgb(153,0,0)" fill-opacity="1"></path></g></g></g></g><svg x="193.04998779296875" overflow="visible" y="17.612518310546875" height="9" width="12.65000057220459"><path d=" M 12.65 4.37 l -2.84 -2.99 l -0.44 0.47 l 1.74 2.09 h -0.14 v 0.81 h 0.14 l -1.74 2.09 l 0.44 0.47 z  M 1.51 4.71 h 10.72 v -0.81 h -10.72 z" style="fill:rgb(153,0,0);fill-opacity:1;stroke-width:1px;stroke:none;stroke-opacity:1;"></path></svg></g><g><g><g><g><g transform="matrix(1,0,0,1,205.38751220703125,44.47251220703125)"><path transform="matrix(0.01071,0,0,-0.01071,0,0)" d="M567 55C567 39 552 30 524 28L480 25L480 -3C582 0 582 0 602 0C622 0 622 0 724 -3L724 25L698 28C651 35 650 35 642 80L555 705L509 705L136 112C100 56 82 40 48 32L28 27L28 -3C120 0 120 0 140 0C159 0 161 0 247 -3L247 25L195 28C179 29 164 38 164 47C164 55 171 69 190 102L292 277L538 277L563 89L563 86C563 84 567 69 567 55ZM496 601L533 313L317 313Z" stroke="rgb(153,0,0)" stroke-opacity="1" stroke-width="8" fill="rgb(153,0,0)" fill-opacity="1"></path></g></g></g></g></g></g></g><g><g><g><g><g><g><g transform="matrix(1,0,0,1,65.3125,149.5125244140625)"><path transform="matrix(0.015300000000000001,0,0,-0.015300000000000001,0,0)" d="M167 420C188 420 201 421 226 424C171 350 72 266 72 126C72 44 107 -11 160 -11C224 -11 276 44 350 187C341 143 338 118 338 95C338 32 367 -11 412 -11C546 -11 699 238 699 384C699 441 673 482 637 482C624 482 612 478 604 470L554 423L565 404C574 410 583 413 592 413C619 413 635 390 635 350C635 205 538 39 453 39C424 39 403 79 403 134C403 181 412 247 424 290L476 474L469 482L395 460L366 311C354 249 340 209 311 155C271 80 233 39 203 39C168 39 145 78 145 136C145 255 186 352 285 464L275 482C255 473 242 470 214 470C186 470 144 472 115 475L103 476C97 477 92 477 91 477C79 477 70 475 59 470C45 443 34 407 21 352L43 352L60 394C67 411 87 422 111 422C145 422 128 420 167 420Z" stroke="rgb(153,0,0)" stroke-opacity="1" stroke-width="8" fill="rgb(153,0,0)" fill-opacity="1"></path></g></g></g></g><svg x="65.3125" overflow="visible" y="132.2125244140625" height="9" width="11.800000190734863"><path d=" M 11.80 4.37 l -2.84 -2.99 l -0.44 0.47 l 1.74 2.09 h -0.14 v 0.81 h 0.14 l -1.74 2.09 l 0.44 0.47 z  M 1.51 4.71 h 9.87 v -0.81 h -9.87 z" style="fill:rgb(153,0,0);fill-opacity:1;stroke-width:1px;stroke:none;stroke-opacity:1;"></path></svg></g><g><g><g><g><g transform="matrix(1,0,0,1,76.79998779296875,156.07248779296876)"><path transform="matrix(0.01071,0,0,-0.01071,0,0)" d="M543 227C543 337 459 353 377 365C434 385 459 397 490 425C536 464 559 511 559 562C559 644 501 692 401 692C399 692 389 692 374 691L311 690C299 689 263 689 251 689C232 689 201 690 152 691L100 692L97 664L150 662C174 661 185 653 185 635C185 621 181 589 176 559L89 55C85 37 73 30 31 23L26 -3L63 -2C90 0 105 0 117 0C128 0 154 -1 180 -2L217 -3L237 -4C256 -5 269 -6 277 -6C392 -6 543 87 543 227ZM166 41L217 340L302 340C405 340 455 298 455 211C455 108 382 34 282 34C228 34 207 38 166 41ZM352 655C433 655 473 619 473 544C473 439 399 376 275 376L223 376L272 650C288 650 329 655 352 655Z" stroke="rgb(153,0,0)" stroke-opacity="1" stroke-width="8" fill="rgb(153,0,0)" fill-opacity="1"></path></g></g></g></g></g></g></g><g><g><g><g><g><g><g transform="matrix(1,0,0,1,303.85626220703125,156.6125)"><path transform="matrix(0.015300000000000001,0,0,-0.015300000000000001,0,0)" d="M167 420C188 420 201 421 226 424C171 350 72 266 72 126C72 44 107 -11 160 -11C224 -11 276 44 350 187C341 143 338 118 338 95C338 32 367 -11 412 -11C546 -11 699 238 699 384C699 441 673 482 637 482C624 482 612 478 604 470L554 423L565 404C574 410 583 413 592 413C619 413 635 390 635 350C635 205 538 39 453 39C424 39 403 79 403 134C403 181 412 247 424 290L476 474L469 482L395 460L366 311C354 249 340 209 311 155C271 80 233 39 203 39C168 39 145 78 145 136C145 255 186 352 285 464L275 482C255 473 242 470 214 470C186 470 144 472 115 475L103 476C97 477 92 477 91 477C79 477 70 475 59 470C45 443 34 407 21 352L43 352L60 394C67 411 87 422 111 422C145 422 128 420 167 420Z" stroke="rgb(153,0,0)" stroke-opacity="1" stroke-width="8" fill="rgb(153,0,0)" fill-opacity="1"></path></g></g></g></g><svg x="303.85626220703125" overflow="visible" y="139.3125" height="9" width="11.800000190734863"><path d=" M 11.80 4.37 l -2.84 -2.99 l -0.44 0.47 l 1.74 2.09 h -0.14 v 0.81 h 0.14 l -1.74 2.09 l 0.44 0.47 z  M 1.51 4.71 h 9.87 v -0.81 h -9.87 z" style="fill:rgb(153,0,0);fill-opacity:1;stroke-width:1px;stroke:none;stroke-opacity:1;"></path></svg></g><g><g><g><g><g transform="matrix(1,0,0,1,315.34375,163.1725244140625)"><path transform="matrix(0.01071,0,0,-0.01071,0,0)" d="M543 227C543 337 459 353 377 365C434 385 459 397 490 425C536 464 559 511 559 562C559 644 501 692 401 692C399 692 389 692 374 691L311 690C299 689 263 689 251 689C232 689 201 690 152 691L100 692L97 664L150 662C174 661 185 653 185 635C185 621 181 589 176 559L89 55C85 37 73 30 31 23L26 -3L63 -2C90 0 105 0 117 0C128 0 154 -1 180 -2L217 -3L237 -4C256 -5 269 -6 277 -6C392 -6 543 87 543 227ZM166 41L217 340L302 340C405 340 455 298 455 211C455 108 382 34 282 34C228 34 207 38 166 41ZM352 655C433 655 473 619 473 544C473 439 399 376 275 376L223 376L272 650C288 650 329 655 352 655Z" stroke="rgb(153,0,0)" stroke-opacity="1" stroke-width="8" fill="rgb(153,0,0)" fill-opacity="1"></path></g></g></g></g></g></g></g><g><g><g><g><g><g><g transform="matrix(1,0,0,1,281.9000244140625,105.91248779296875)"><path transform="matrix(0.015300000000000001,0,0,-0.015300000000000001,0,0)" d="M390 646L463 646C541 646 577 641 580 629C583 621 585 602 584 592L580 528L608 528L635 692L544 691C456 690 388 689 353 689C316 689 252 690 166 691L71 692L53 528L82 528L97 588C102 610 109 626 115 633C121 640 159 646 196 646L308 646L222 125C206 34 204 31 164 28L113 25L109 -3L166 -2C206 -1 235 0 251 0C270 0 301 -1 340 -2L384 -3L387 25L328 28C302 29 292 37 292 58C292 67 293 74 296 93Z" stroke="rgb(153,0,0)" stroke-opacity="1" stroke-width="8" fill="rgb(153,0,0)" fill-opacity="1"></path></g></g></g></g><svg x="281.9000244140625" overflow="visible" y="85.61248779296875" height="9" width="10.100000381469727"><path d=" M 10.10 4.37 l -2.84 -2.99 l -0.44 0.47 l 1.74 2.09 h -0.14 v 0.81 h 0.14 l -1.74 2.09 l 0.44 0.47 z  M 1.51 4.71 h 8.17 v -0.81 h -8.17 z" style="fill:rgb(153,0,0);fill-opacity:1;stroke-width:1px;stroke:none;stroke-opacity:1;"></path></svg></g></g></g></svg>
</svg>
