<svg xmlns="http://www.w3.org/2000/svg" width="349.6" height="159.1" style="width:349.6000061035156px;height:159.10000610351562px;background:0 0;fill:none"><svg xmlns="http://www.w3.org/2000/svg"/><svg xmlns="http://www.w3.org/2000/svg" class="role-diagram-draw-area"><g class="shapes-region" style="stroke:#000;fill:none"><g class="composite-shape"><path fill="none" d="M5.4 12a7 7 0 0 1 7-7h76a7 7 0 0 1 7 7v21a7 7 0 0 1-7 6.9h-76a7 7 0 0 1-7-7Z" class="real" style="stroke-width:1;stroke:#000;stroke-opacity:.5;fill:#000;fill-opacity:0"/></g><g class="arrow-line"><path d="M112.8 46.7v58.5" class="connection real" style="stroke:#900;stroke-opacity:1;stroke-width:1;fill:none;fill-opacity:1"/><path fill="#900" stroke="none" d="M10.7-5.1 0 0l10.7 5.2L7.1 0Z" style="stroke:none;fill:#900;stroke-width:1" transform="rotate(-90 110.5 -2.3)"/></g><g class="arrow-line"><path d="M112.8 46.7V19.4" class="connection real" style="stroke:#900;stroke-opacity:1;stroke-width:1;fill:none;fill-opacity:1"/><path fill="#900" stroke="none" d="M10.7-5.1 0 0l10.7 5.2L7.1 0Z" style="stroke:none;fill:#900;stroke-width:1" transform="rotate(90 48.2 64.6)"/></g><g class="arrow-line"><path d="M50.4 30.6v12.2" class="connection real" style="stroke:#000;stroke-opacity:.5;stroke-width:1;fill:none;fill-opacity:1"/></g><g class="composite-shape"><path d="M38.3 54.9a12.1 12.1 0 1 1 24.2 0 12.1 12.1 0 0 1-24.2 0Z" class="real" style="stroke-width:1;stroke:#000;fill:none;fill-opacity:1"/></g><g class="arrow-line"><path d="M50.4 67v37.8" class="connection real" style="stroke:#000;stroke-width:1;fill:none;fill-opacity:1"/></g><g class="arrow-line"><path d="M50.4 67 56 81.5" class="connection real" style="stroke:#000;stroke-width:1;fill:none;fill-opacity:1"/></g><g class="arrow-line"><path d="m50.4 67-5.1 14.2" class="connection real" style="stroke:#000;stroke-width:1;fill:none;fill-opacity:1"/></g><g class="arrow-line"><path d="m50.4 104.8 4.4 11 1.3 3.6" class="connection real" style="stroke:#000;stroke-width:1;fill:none;fill-opacity:1"/></g><g class="arrow-line"><path d="m50.4 104.8-5.5 14.4" class="connection real" style="stroke:#000;stroke-width:1;fill:none;fill-opacity:1"/></g><g class="composite-shape"><path stroke="none" d="M16.7 36.6q-1.2-3-1.2-6C15.5 18 31 7.8 50.4 7.8S85.3 18 85.3 30.6q0 3-1.2 6l-33.7-6Z" class="real" style="stroke-width:1;stroke:none;stroke-opacity:1;fill:#900;fill-opacity:.5"/><path d="M16.7 36.6q-1.2-3-1.2-6C15.5 18 31 7.8 50.4 7.8S85.3 18 85.3 30.6q0 3-1.2 6" class="real" style="stroke-width:1;stroke:#900;stroke-opacity:1;fill:none;fill-opacity:.5"/></g><g class="arrow-line"><path d="m15.5 36.6 34.4-6" class="connection real" style="stroke:#900;stroke-opacity:1;stroke-width:1;fill:none;fill-opacity:1"/></g><g class="arrow-line"><path d="m84.3 36.6-34.4-6" class="connection real" style="stroke:#900;stroke-opacity:1;stroke-width:1;fill:none;fill-opacity:1"/></g><g class="composite-shape"><path d="M111.3 46.7a1.5 1.5 0 0 1 3 0 1.5 1.5 0 1 1-3 0Z" class="real" style="stroke-width:1;stroke:#000;fill:#000;fill-opacity:1"/></g><g class="composite-shape"><path fill="none" d="M194.4 51.8c0-6.8 5.5-12.3 12.3-12.3h37c6.7 0 12.2 5.5 12.2 12.3v60.1c0 6.8-5.5 12.3-12.3 12.3h-36.9c-6.8 0-12.3-5.5-12.3-12.3Z" class="real" style="stroke-width:1;stroke:#000;stroke-opacity:.5;fill:#000;fill-opacity:0"/></g><g class="arrow-line"><path d="M287.5 46.4v58.4" class="connection real" style="stroke:#900;stroke-opacity:1;stroke-width:1;fill:none;fill-opacity:1"/><path fill="#900" stroke="none" d="M10.7-5.1 0 0l10.7 5.2L7.1 0Z" style="stroke:none;fill:#900;stroke-width:1" transform="rotate(-90 197.6 -89.8)"/></g><g class="arrow-line"><path d="M287.5 46.4V19" class="connection real" style="stroke:#900;stroke-opacity:1;stroke-width:1;fill:none;fill-opacity:1"/><path fill="#900" stroke="none" d="M10.7-5.1 0 0l10.7 5.2L7.1 0Z" style="stroke:none;fill:#900;stroke-width:1" transform="rotate(90 135.7 151.7)"/></g><g class="arrow-line"><path d="M225 30.3v12.1" class="connection real" style="stroke:#000;stroke-opacity:.5;stroke-width:1;fill:none;fill-opacity:1"/></g><g class="composite-shape"><path d="M212.9 54.5a12.1 12.1 0 1 1 24.2 0 12.1 12.1 0 0 1-24.2 0Z" class="real" style="stroke-width:1;stroke:#000;fill:none;fill-opacity:1"/></g><g class="arrow-line"><path d="M225 66.6v37.9" class="connection real" style="stroke:#000;stroke-width:1;fill:none;fill-opacity:1"/></g><g class="arrow-line"><path d="m225 66.6 5.7 14.6" class="connection real" style="stroke:#000;stroke-width:1;fill:none;fill-opacity:1"/></g><g class="arrow-line"><path d="m225 66.6-5.1 14.2" class="connection real" style="stroke:#000;stroke-width:1;fill:none;fill-opacity:1"/></g><g class="arrow-line"><path d="m225 104.5 4.4 11 1.3 3.5" class="connection real" style="stroke:#000;stroke-width:1;fill:none;fill-opacity:1"/></g><g class="arrow-line"><path d="m225 104.5-5.5 14.3" class="connection real" style="stroke:#000;stroke-width:1;fill:none;fill-opacity:1"/></g><g class="composite-shape"><path stroke="none" d="M191.3 36.2q-1.2-2.9-1.2-6c0-12.5 15.6-22.7 34.9-22.7s35 10.2 35 22.8q0 3-1.3 6l-33.7-6Z" class="real" style="stroke-width:1;stroke:none;stroke-opacity:1;fill:#900;fill-opacity:.5"/><path d="M191.3 36.2q-1.2-2.9-1.2-6c0-12.5 15.6-22.7 34.9-22.7s35 10.2 35 22.8q0 3-1.3 6" class="real" style="stroke-width:1;stroke:#900;stroke-opacity:1;fill:none;fill-opacity:.5"/></g><g class="arrow-line"><path d="m190.2 36.2 34.3-6" class="connection real" style="stroke:#900;stroke-opacity:1;stroke-width:1;fill:none;fill-opacity:1"/></g><g class="arrow-line"><path d="m259 36.2-34.5-6" class="connection real" style="stroke:#900;stroke-opacity:1;stroke-width:1;fill:none;fill-opacity:1"/></g><g class="composite-shape"><path d="M286 46.4q.1-1.5 1.4-1.6 1.5.1 1.6 1.6a1.5 1.5 0 1 1-3 0Z" class="real" style="stroke-width:1;stroke:#000;fill:#000;fill-opacity:1"/></g><g class="arrow-line"><path d="M112.8 108.2v29" class="connection real" style="stroke:#900;stroke-opacity:1;stroke-width:1;fill:none;fill-opacity:1"/><path fill="#900" stroke="none" d="M10.7-5.1 0 0l10.7 5.2L7.1 0Z" style="stroke:none;fill:#900;stroke-width:1" transform="rotate(-90 126.5 13.6)"/></g></g></svg><svg xmlns="http://www.w3.org/2000/svg" xmlns:xlink="http://www.w3.org/1999/xlink" width="348" height="157.5" style="width:348px;height:157.5px;font-family:Asana-Math,Asana;background:#fff"><path fill="#900" stroke="#900" stroke-width=".1" d="m126.6 100.6 1-.1c-1 1.3-2.6 2.7-2.6 5q0 2.3 1.5 2.4 1.4.1 3.2-3.4l-.2 1.6q0 1.7 1.2 1.8c2.3 0 5-4.2 5-6.7q-.1-1.6-1.1-1.7-.4 0-.6.2l-.8.8.1.3.5-.1q.7 0 .7 1c0 2.5-1.6 5.3-3 5.3q-1 0-1-1.6 0-1.4.4-2.6l1-3.1-.2-.2-1.2.4-.5 2.5q-.3 1.4-1 2.7-1 2-1.8 2-1-.1-1-1.7a8 8 0 0 1 2.4-5.6l-.2-.3q-.4.3-1 .2h-1.9l-.2-.1-.6.1-.6 2h.4l.3-.7q.1-.5.8-.5z"/><svg width="13.1" height="10" x="123.7" y="88.7" overflow="visible"><path d="M13.1 4.9 10 1.4l-.5.5 1.9 2.4h-.2v.9h.2l-2 2.3.6.5zm-11.4.3h11v-.9h-11z" style="fill:#900;fill-opacity:1;stroke-width:1px;stroke:none;stroke-opacity:1"/></svg><path fill="#900" stroke="#900" stroke-width=".1" d="M138.6 113.5c.7 0 2-.8 2.5-1.6.5-.7 1-2 1-2.9q0-1.3-.8-1.3t-1.7.8l-1.2 1.5.3-1.4v-.6q0-.3-.2-.3t-1.6.9l-.3.2v.2l.5-.2.5-.3q.2 0 .2.3v.4l-.7 4.1-.6 2.9v.5l.9-.2.5-3.1zm-.4-2c.3-1.6 1.5-3.1 2.5-3.1q.5 0 .5.8c0 1-.5 2.4-1.1 3.3q-.4.5-1.1.5-.6 0-1-.3Zm8.1.6-.2.2a3 3 0 0 1-1.7.7q-.8 0-.9-1.2l.1-1 1.8-.5q1.5-.6 1.5-1.7 0-1-1-1c-.8 0-2.1.8-2.6 1.7-.3.6-.7 2-.7 2.8q0 1.4 1.4 1.4.9 0 2.4-1.2Zm-2.5-2q.3-1.2.8-1.6.4-.3.8-.3.6 0 .6.6 0 .8-1 1.4l-1.3.4Zm7.6-1 .2-1.4h-.2q-.6 0-1.2.9-.8 1-1.1 1.8l.4-1.8v-.5q0-.4-.2-.4-.4 0-1.6.9l-.3.2v.2l.4-.2.6-.3q.2 0 .2.3c0 .7-.5 3.1-1 4.6l.1.1.7-.1h.1l.3-1.5q.4-1.4 1-2.3t1-.8.5.3Zm.6 2.6q0 .8-.2 1.5.6.3 1.3.3t1.7-.6q.8-.7.8-1.6t-1.2-1.1l-.5-.1q-1-.1-1-.8.1-1 1.2-1.1.8 0 1.2.5v.6h.3l.2-1.3-1.2-.3a3 3 0 0 0-2 .9q-.4.4-.4 1 0 1 1.2 1.3l.7.1q.8 0 .7.8 0 1.2-1.3 1.3-.7 0-1.2-.4v-1Zm4.5-.1q0 2 1.5 2a3 3 0 0 0 2-.9q1.1-1.2 1.2-3.2 0-1.7-1.6-1.8c-1.2 0-3.1 1.2-3.1 3.9Zm2.7-3.5q1 0 1 1.6c0 1.1-.3 2.4-.8 3q-.3.3-1 .4-1 0-1-1.5c0-1.3.5-2.8 1-3.3zm2.6.7.1.2.4-.2.6-.3q.2 0 .2.3c0 .6-.5 2.9-1 4.6v.1l1-.2q.2-2.1 1-3 1-1.6 2-1.8.3 0 .2.3l-.1.8-.6 2.5-.2 1q0 .3.4.4.3.1 1.9-1.1l-.1-.2-.4.2-.7.3-.1-.2v-.2l.8-3.3.1-.9q0-.4-.4-.4-.9 0-2 1l-1.4 1.8.5-2v-.4q0-.4-.2-.4-.4 0-1.6.9Zm-33.2-84.7h1.8q1.6 0 1.8.4V26h.5q0-1.6.4-2.6h-7.8v.4h1q.5 0 .5.5l-.1 1.3-1.3 7.4c-.3 1.6-.3 1.6-1 1.6h-.6v.6h4.4v-.5h-1q-.7 0-.6-.6v-.3l.6-3.8h4.3l.3-.7v-.1h-4.4l.8-4.5.1-.6Z"/><svg width="10.3" height="10" x="123.7" y="12.1" overflow="visible"><path d="M10.3 4.9 7 1.4l-.5.5 2 2.4h-.2v.9h.2l-2 2.3.5.5zm-8.6.3h8.1v-.9H1.7z" style="fill:#900;fill-opacity:1;stroke-width:1px;stroke:none;stroke-opacity:1"/></svg><path fill="#900" stroke="#900" stroke-width=".1" d="m136.9 38.4-.3 1.5-.1.6q0 .4.3.4t1.7-1.1v-.2l-1 .5-.1-.3 1-4.6v-.1l-.5.2-1-.2q-.5 0-.9.2-1 .5-1.4 1.3a9 9 0 0 0-.9 3.4q0 .9.4 1 .7.1 2.8-2.6Zm.6-2.5q-.4 1.8-1 2.5-1 1.6-1.7 1.7-.2 0-.2-.5c0-.7.3-2.1.7-3q.4-1 1.2-1zm1.9.3v.2l.4-.2.6-.3.2.3-.1.5-.8 2.8-.1 1q0 .4.3.4c.3 0 .7-.2 2-1.1l-.2-.2-.3.2-.7.3q-.2 0-.2-.2v-.5l1-3.6v-.4q0-.3-.2-.3t-1.6.9Zm2.3-3.9q-.6.1-.7.8 0 .5.4.5.6 0 .7-.8 0-.5-.4-.5Zm5 4.2.1-1.4h-.2q-.6 0-1.2.9-.8 1-1.1 1.8l.4-1.8v-.5q0-.4-.2-.4-.4 0-1.6.9l-.3.2v.2l.4-.2.6-.3q.2 0 .2.3c0 .7-.5 3.1-1 4.6l.1.1.7-.1h.1l.3-1.5q.3-1.4 1-2.3t1-.8q.3 0 .5.3Zm154.5 62.7h1c-1 1.2-2.6 2.6-2.6 5q0 2.2 1.5 2.3 1.4.1 3.2-3.3l-.2 1.5q0 1.7 1.3 1.8c2.2 0 4.8-4.2 4.8-6.7q0-1.5-1-1.6l-.6.2-.8.8.2.3.4-.2q.8 0 .8 1.1c0 2.5-1.7 5.3-3.1 5.3q-.8-.1-.9-1.6c0-.8.2-2 .4-2.7l.9-3.1-.2-.1-1.2.3-.5 2.6q-.3 1.4-1 2.6-1 2-1.8 2-1-.1-1-1.7a8 8 0 0 1 2.4-5.5l-.2-.3-1 .2-1.7-.1h-.9l-.7 2h.4l.3-.6q.2-.5.8-.5z"/><svg width="13.1" height="10" x="298.4" y="87.4" overflow="visible"><path d="M13.1 4.9 10 1.4l-.5.5 1.9 2.4h-.2v.9h.2l-2 2.3.6.5zm-11.4.3h11v-.9h-11z" style="fill:#900;fill-opacity:1;stroke-width:1px;stroke:none;stroke-opacity:1"/></svg><path fill="#900" stroke="#900" stroke-width=".1" d="M313.2 112.2c.7 0 2-.9 2.6-1.6q.8-1.4.9-3 0-1.3-.7-1.3-.8 0-1.8.9l-1.1 1.4.2-1.4.1-.5q0-.4-.3-.4t-1.5.9l-.4.2.1.3.4-.3.6-.3.2.3v.5l-.8 4-.6 3v.4l.9-.2.5-3zm-.4-2.1c.3-1.5 1.6-3.1 2.5-3.1q.5 0 .5.8c0 1-.5 2.4-1.1 3.3q-.3.5-1.1.5-.6 0-1-.3Zm8.2.6-.3.2a3 3 0 0 1-1.6.7q-1 0-1-1.1l.1-1 1.8-.5q1.5-.7 1.5-1.8 0-.8-1-.9c-.8-.2-2.1.7-2.5 1.6-.4.6-.8 2-.8 2.8q.1 1.5 1.4 1.5 1 0 2.5-1.2Zm-2.6-2q.2-1 .8-1.6l.9-.3q.5 0 .5.6 0 1-1 1.4-.5.3-1.3.4Zm7.7-1 .1-1.3h-.2q-.5 0-1.2.8l-1 1.8.3-1.8v-.5q0-.4-.2-.4l-1.6.9-.3.2v.3l.5-.3.5-.3.2.3c0 .7-.5 3.2-1 4.7h.2l.6-.1h.2l.3-1.4q.3-1.5 1-2.3t1-.8.4.2Zm.6 2.6q0 .8-.3 1.6l1.3.3q.9 0 1.7-.7.9-.8.9-1.5 0-1-1.3-1.2h-.5q-1-.2-1-.9.1-1 1.3-1.1.9 0 1.1.5v.7h.3l.2-1.4-1.2-.3a3 3 0 0 0-1.9 1q-.4.4-.4 1 0 1 1.1 1.2l.8.1q.7.1.7.8-.1 1.3-1.4 1.3-.6 0-1.1-.4v-1Zm4.4 0q0 1.9 1.5 1.9a3 3 0 0 0 2-.8q1.1-1.2 1.2-3.3 0-1.7-1.6-1.8c-1.2 0-3 1.2-3 4Zm2.7-3.5q1 0 1.1 1.5c0 1.1-.4 2.4-.9 3q-.3.4-.9.4-1 0-1-1.4c0-1.4.4-2.9 1-3.3q.2-.2.7-.2Zm2.7.6v.3l.4-.3.6-.3q.2 0 .2.3c0 .6-.5 3-1 4.6l.1.2.9-.2q.2-2 1-3.1 1-1.6 2-1.8.3 0 .2.3v.9l-.7 2.5-.2.9q0 .5.4.5.3 0 1.9-1.2l-.1-.2-.3.2-.8.4-.1-.3v-.2l.8-3.3.1-.9q0-.3-.3-.4-1 .1-2 1.1-.6.5-1.5 1.7l.5-2v-.4q0-.4-.2-.4t-1.6.9ZM305 23.8h1.2q2 0 2 .3v1.6h.5l.5-2.7h-9.6l-.3 2.8h.5l.2-1 .3-.8 1.4-.2h1.9l-1.5 8.8c-.2 1.6-.3 1.6-1 1.7h-.8v.5h4.6v-.5h-1q-.6 0-.6-.5v-.6Z"/><svg width="11.2" height="10" x="298.4" y="11.8" overflow="visible"><path d="M11.2 4.9 8.1 1.4l-.5.5 2 2.4h-.2v.9h.1l-2 2.3.6.5zm-9.5.3h9v-.9h-9z" style="fill:#900;fill-opacity:1;stroke-width:1px;stroke:none;stroke-opacity:1"/></svg><path fill="#900" stroke="#900" stroke-width=".1" d="m126.2 135.8 1-.1c-1 1.3-2.6 2.7-2.6 5q0 2.3 1.5 2.4 1.4.1 3.2-3.4l-.2 1.6q0 1.7 1.2 1.8c2.3 0 5-4.2 5-6.7q-.1-1.6-1.1-1.7-.4 0-.6.2l-.8.8.1.3.5-.1q.7 0 .7 1c0 2.5-1.6 5.3-3 5.3q-1 0-1-1.6 0-1.4.4-2.6l1-3.1-.2-.2-1.2.4-.5 2.5q-.3 1.4-1 2.7-1 2-1.8 2-1-.1-1-1.7a8 8 0 0 1 2.4-5.6l-.2-.3q-.3.3-1 .2h-2l-.2-.1-.6.1-.6 2h.4l.3-.7q.1-.5.8-.5z"/><svg width="13.1" height="10" x="123.3" y="123.9" overflow="visible"><path d="M13.1 4.9 10 1.4l-.5.5 1.9 2.4h-.2v.9h.2l-2 2.3.6.5zm-11.4.3h11v-.9h-11z" style="fill:#900;fill-opacity:1;stroke-width:1px;stroke:none;stroke-opacity:1"/></svg><path fill="#900" stroke="#900" stroke-width=".1" d="M138.2 148.7c.7 0 2-.8 2.5-1.6.5-.7 1-2 1-2.9q0-1.3-.8-1.3t-1.7.8l-1.2 1.5.3-1.4v-.6q0-.3-.2-.3t-1.6.9l-.3.2v.2l.5-.2.5-.3q.2 0 .2.3v.4l-.7 4.1-.6 2.9v.5l.9-.2.5-3.1zm-.4-2c.3-1.6 1.5-3.1 2.5-3.1q.5 0 .5.8c0 1-.5 2.4-1.1 3.3q-.4.5-1.1.5-.6 0-1-.3Zm7.5-.5-.4 1.5v.6q0 .4.2.4.4 0 1.8-1.1l-.1-.2q-.4.4-1 .5v-.3l1-4.6-.1-.1-.4.2-1-.2q-.5 0-.9.2-1 .5-1.4 1.3c-.5 1-1 2.5-1 3.4q.1.9.5 1 .7.1 2.8-2.6Zm.5-2.5q-.3 1.8-.9 2.5-1 1.6-1.7 1.7-.3 0-.3-.5c0-.7.4-2.1.8-3q.4-1 1.1-1zm5.9.6.2-1.4h-.3q-.5 0-1.1.9-.8 1-1.1 1.8l.3-1.8.1-.5q0-.4-.3-.4t-1.5.9l-.4.2.1.2.4-.2.6-.3.2.3c0 .7-.6 3.1-1 4.6v.1l.7-.1h.2l.3-1.5q.3-1.4 1-2.3t1-.8.4.3Zm3.5 1.9-.4 1.5v.6q0 .4.2.4.4 0 1.8-1.1l-.1-.2q-.5.4-1 .5l-.1-.3 1.1-4.6-.1-.1-.4.2-1-.2-.9.2q-1 .5-1.4 1.3c-.6 1-1 2.5-1 3.4q.1.9.5 1 .6.1 2.8-2.6Zm.5-2.5q-.3 1.8-.9 2.5-1 1.6-1.8 1.7-.2 0-.2-.5c0-.7.4-2.1.8-3q.3-1 1.1-1zm5.6 1h.2l.3-1.5q-.5-.3-1.1-.3-1-.1-2.1 1c-.6.5-1.1 1.8-1.1 3q0 1.8 1.4 1.8 1 0 2-.7l.5-.5v-.3l-.3.2q-1.2.7-1.7.7-1 0-1-1.4 0-2.1 1-3l.9-.2q.9 0 1 .5Zm3.5-4.7-.1-.1q-.6.4-2 .5v.2h.6q.3 0 .4.3v.3l-.5 2.8-1 4.6v.1l.9-.2c0-.6.2-1.8.7-2.7s1.8-2.1 2.3-2.1l.2.2-.2 1.1-.6 2.3-.1 1q0 .3.3.4.7-.2 2-1.1l-.2-.2-.3.2-.7.3q-.2 0-.2-.2l.1-.5.8-3 .1-1q.1-.2-.4-.3-.7 0-2.1 1.3-.6.4-1 1.2h-.1Zm9 3v-.1l-.9.2v.6q-.4 1.4-1 2.3c-.6 1-1.6 2-2 2l-.2-.4v-.6l.8-3.2v-.6q0-.3-.2-.3-.4 0-1.6.9l-.4.2.1.2.4-.2.6-.3.2.2v.3l-.8 3.5v.6q0 .4.4.4c.7 0 2.2-1.3 3.2-3l-.5 1.8-.1.7q0 .5.4.5.3.1 1.9-1.1l-.2-.2-.3.2-.7.3-.1-.2zm2.3 1-.7 3.3-.2 1q0 .3.4.4t1.8-1l.3-.3v-.2l-.6.4-.7.3q-.2 0-.2-.2l.5-3 .2-.7h1.2l.2-.6H177q.2-1.4.5-2.3l-.1-.2-1 .5-.3 2-1 .4v.2Zm6.3 3.3-.3.2a3 3 0 0 1-1.6.7q-.8 0-.9-1.2l.1-1 1.8-.5q1.5-.6 1.5-1.7 0-1-1-1c-.8 0-2.1.8-2.6 1.7-.3.6-.7 2-.7 2.8q0 1.4 1.4 1.4.9 0 2.4-1.2Zm-2.5-2q.2-1.2.8-1.6.3-.3.8-.3t.6.6q0 .8-1 1.4l-1.3.4Z"/></svg></svg>