<svg xmlns="http://www.w3.org/2000/svg" width="269.6" height="129.938" style="width:269.6000061035156px;height:129.9375px;background:0 0;fill:none"><svg xmlns="http://www.w3.org/2000/svg"/><svg xmlns="http://www.w3.org/2000/svg" class="role-diagram-draw-area"><g class="shapes-region" style="stroke:#000;fill:none"><g class="composite-shape"><defs><pattern id="_pgfxbmxwirqj" width="11.314" height="11.314" x="0" y="0" patternTransform="rotate(45 0 0)" patternUnits="userSpaceOnUse"><path d="M0 0v11.314M5.657 0v11.314M11.314 0v11.314" style="stroke:#eee;stroke-opacity:1;stroke-width:1;fill:none"/></pattern></defs><path d="M-33.33 53.8H51.6v105.33h-84.93Z" class="real" style="stroke-width:1;stroke:#000;fill:url(#_pgfxbmxwirqj);fill-opacity:1"/></g><g class="composite-shape"><defs><pattern id="_pgfcgu1hz26w" width="11.314" height="11.314" x="0" y="0" patternTransform="rotate(45 0 0)" patternUnits="userSpaceOnUse"><path d="M0 0v11.314M5.657 0v11.314M11.314 0v11.314" style="stroke:#eee;stroke-opacity:1;stroke-width:1;fill:none"/></pattern></defs><path d="M218.8 53.8H278v105.33h-59.2Z" class="real" style="stroke-width:1;stroke:#000;fill:url(#_pgfcgu1hz26w);fill-opacity:1"/></g><g class="arrow-line"><path d="m50.93 54.23 83.54 37.91" class="connection real" style="stroke:#000;stroke-opacity:1;stroke-width:1;fill:none;fill-opacity:1"/></g><g class="arrow-line"><path d="m134.47 92.14 84.66-37.91" class="connection real" style="stroke:#000;stroke-opacity:1;stroke-width:1;fill:none;fill-opacity:1"/></g><g class="arrow-line"><path d="M134.47 48.9v40.24" class="connection real" style="stroke:#900;stroke-opacity:1;stroke-width:1;fill:none;fill-opacity:1"/><path fill="#900" stroke="none" d="M10.72-5.15 0 0l10.72 5.15L7.12 0Z" style="stroke:none;fill:#900;stroke-width:1" transform="rotate(-90 113.309 -21.166)"/></g><g class="arrow-line"><path d="M134.47 92.14 95.44 74.43" class="connection real" style="stroke:#900;stroke-opacity:1;stroke-width:1;fill:none;fill-opacity:1"/><path fill="#900" stroke="none" d="M10.72-5.15 0 0l10.72 5.15L7.12 0Z" style="stroke:none;fill:#900;stroke-width:1" transform="rotate(24.41 -122.829 250.89)"/></g><g class="arrow-line"><path d="m174.07 74.41-39.6 17.73" class="connection real" style="stroke:#900;stroke-opacity:1;stroke-width:1;fill:none;fill-opacity:1"/><path fill="#900" stroke="none" d="M10.72-5.15 0 0l10.72 5.15L7.12 0Z" style="stroke:none;fill:#900;stroke-width:1" transform="rotate(155.88 80.584 55.48)"/></g><g class="arrow-line"><path stroke-dasharray="3" d="M51.6 53.8h45.53" class="connection real" style="stroke:#000;stroke-width:1;fill:none;fill-opacity:1"/></g><g class="arrow-line"><path stroke-dasharray="3" d="M173.27 53.8h45.53" class="connection real" style="stroke:#000;stroke-width:1;fill:none;fill-opacity:1"/></g><g class="composite-shape"><path stroke="none" d="M66.63 53.8c0 2.46-.59 4.78-1.63 6.83L51.6 53.8Z" class="real" style="stroke-width:1;stroke:none;stroke-opacity:1;fill:none;fill-opacity:1"/><path d="M66.63 53.8c0 2.46-.59 4.78-1.63 6.83" class="real" style="stroke-width:1;stroke:#900;stroke-opacity:1;fill:none;fill-opacity:1"/></g><g class="composite-shape"><path stroke="none" d="M205.41 60.62a14.9 14.9 0 0 1-1.65-6.82h15.04Z" class="real" style="stroke-width:1;stroke:none;stroke-opacity:1;fill:none;fill-opacity:1"/><path d="M205.41 60.62a14.9 14.9 0 0 1-1.65-6.82" class="real" style="stroke-width:1;stroke:#900;stroke-opacity:1;fill:none;fill-opacity:1"/></g></g></svg><svg xmlns="http://www.w3.org/2000/svg" xmlns:xlink="http://www.w3.org/1999/xlink" width="268" height="128.338" style="width:268px;height:128.33750915527344px;font-family:Asana-Math,Asana;background:0 0"><path fill="#900" stroke="#900" stroke-width=".136" d="m145.187 71.406 1.802-.068c1.054 0 1.734.153 1.751.408l.136 1.513h.408c.051-1.071.17-1.938.357-2.584-.374-.034-.85-.051-1.139-.051l-.697.017-2.805.034h-.493c-.425 0-1.105-.017-1.751-.034l-.833-.017-.051.476.952.034c.408.017.595.17.595.459 0 .238-.068.782-.153 1.292l-1.275 7.378c-.289 1.564-.289 1.58-.986 1.649l-.612.05-.068.477.578-.017c.68-.017 1.224-.034 1.581-.034.306 0 .799.017 1.462.034l.884.017.051-.476-1.088-.051c-.459-.017-.612-.153-.612-.493 0-.102.017-.29.034-.357l.612-3.791h1.989c.459 0 .986.017 1.802.05l.442.018.323-.765-.068-.12a70 70 0 0 1-3.723.103h-.629l.782-4.607c.051-.272.068-.357.153-.544Z"/><svg width="10.288" height="10" x="140.325" y="59.388" overflow="visible"><path d="M10.29 4.85 7.14 1.53l-.49.52 1.93 2.33h-.15v.9h.15L6.65 7.61l.49.52zm-8.61.38h8.15v-.9H1.68z" style="fill:#900;fill-opacity:1;stroke-width:1px;stroke:none;stroke-opacity:1"/></svg><path fill="#900" stroke="#900" stroke-width=".136" d="M165.068 95.48h1.24c1.327 0 1.939.086 1.99.29.05.136.084.459.067.629l-.067 1.088h.476l.458-2.788-1.547.017c-1.495.017-2.651.034-3.246.034-.63 0-1.718-.017-3.18-.034l-1.614-.017-.306 2.788h.493l.255-1.02c.085-.374.204-.646.306-.765.101-.12.748-.221 1.376-.221h1.904l-1.462 8.857c-.272 1.547-.306 1.598-.986 1.649l-.867.05-.067.477.969-.017c.68-.017 1.173-.034 1.445-.034.322 0 .85.017 1.512.034l.748.017.052-.476-1.004-.051c-.441-.017-.612-.153-.612-.51 0-.153.017-.272.069-.595Z"/><svg width="11.225" height="10" x="158.438" y="83.463" overflow="visible"><path d="M11.23 4.85 8.08 1.53l-.49.52 1.93 2.33h-.15v.9h.15L7.59 7.61l.49.52zm-9.55.38h9.08v-.9H1.68z" style="fill:#900;fill-opacity:1;stroke-width:1px;stroke:none;stroke-opacity:1"/></svg><path fill="#900" stroke="#900" stroke-width=".095" d="m170.562 105.06.666.025c.286.012.417.107.417.321 0 .167-.048.547-.107.904l-.893 5.165c-.19 1.083-.214 1.107-.69 1.154l-.488.036-.047.333.5-.012c.559-.023.785-.023 1.07-.023l1.155.035h.31l.035-.333-.583-.036c-.322-.023-.429-.119-.429-.357 0-.107.012-.214.048-.416l1.202-6.605c.345-.071.583-.095.904-.095 1.035 0 1.583.464 1.583 1.345 0 1.13-.928 1.963-2.166 1.963h-.524l-.035.131c1.594 2.32 1.963 2.892 2.856 4.403l1.011-.035c.012 0 .179.011.405.035h.155v-.321c-.476-.06-.607-.155-.952-.655l-2.19-3.272c.654-.12 1-.262 1.428-.571.69-.5 1.06-1.155 1.06-1.88 0-1.024-.763-1.583-2.083-1.56h-3.582Z"/><path fill="#900" stroke="#900" stroke-width=".136" d="M98.918 95.48h1.24c1.327 0 1.939.086 1.99.29.05.136.085.459.068.629l-.068 1.088h.476l.459-2.788-1.547.017c-1.496.017-2.652.034-3.247.034-.63 0-1.717-.017-3.18-.034l-1.614-.017-.306 2.788h.493l.255-1.02c.085-.374.204-.646.306-.765.102-.12.748-.221 1.377-.221h1.904l-1.462 8.857c-.272 1.547-.306 1.598-.986 1.649l-.867.05-.068.477.969-.017c.68-.017 1.173-.034 1.445-.034.323 0 .85.017 1.513.034l.748.017.05-.476-1.002-.051c-.442-.017-.612-.153-.612-.51 0-.153.017-.272.068-.595Z"/><svg width="11.225" height="10" x="92.288" y="83.463" overflow="visible"><path d="M11.23 4.85 8.08 1.53l-.49.52 1.93 2.33h-.15v.9h.15L7.59 7.61l.49.52zm-9.55.38h9.08v-.9H1.68z" style="fill:#900;fill-opacity:1;stroke-width:1px;stroke:none;stroke-opacity:1"/></svg><path fill="#900" stroke="#900" stroke-width=".095" d="m107.316 105.06.035-.332-1.356.035c-.19 0-.405 0-.917-.011l-.761-.024-.036.333.56.024c.285.012.416.107.416.321l-1.13 6.902c-.048.214-.191.297-.715.38l-.06.31.489-.012a63 63 0 0 1 1.345-.023l3.534.011.393-.011c-.012-.298.119-1.226.273-1.964h-.369l-.202.738c-.107.38-.214.583-.321.642-.155.06-.917.12-1.714.12-.583 0-.904-.012-1.69-.084.036-.214 1.119-6.652 1.119-6.747.083-.452.167-.536.607-.571ZM79.158 64.428c2.808 0 3.986-3.95 4.034-6.188.024-1.357-.357-2.356-1.868-2.356-3.094 0-4.13 3.45-4.165 5.985-.024 1.417.38 2.559 1.999 2.559Zm1.951-8.235c1.607 0 1.25 2.202 1 3.51h-3.76c.297-1.237 1.225-3.51 2.76-3.51Zm-1.76 7.89c-1.798 0-1.262-2.951-1.072-3.999h3.76c-.297 1.333-.987 3.999-2.689 3.999Zm106.246 1.807c2.809 0 3.987-3.95 4.034-6.188.024-1.356-.357-2.356-1.868-2.356-3.094 0-4.13 3.451-4.165 5.986-.024 1.416.38 2.558 2 2.558Zm1.952-8.234c1.606 0 1.25 2.201 1 3.51h-3.76c.297-1.238 1.225-3.51 2.76-3.51Zm-1.761 7.89c-1.797 0-1.262-2.952-1.071-4h3.76c-.297 1.334-.988 4-2.69 4Z"/></svg></svg>