<svg xmlns="http://www.w3.org/2000/svg" width="347.6" height="199.9" style="width:347.6000061035156px;height:199.9375px;background:#fff;fill:none"><svg xmlns="http://www.w3.org/2000/svg"/><svg xmlns="http://www.w3.org/2000/svg" class="role-diagram-draw-area" style="overflow:visible"><g class="shapes-region" style="stroke:#000;fill:none"><g class="composite-shape"><path d="M60 86a10.6 10.6 0 1 1 21.3 0A10.6 10.6 0 0 1 60 86Z" class="real" style="stroke-width:1;stroke:#900;stroke-opacity:1;fill:none;fill-opacity:1"/></g><g class="arrow-line"><path d="M70.7 96.6v37.2" class="connection real" style="stroke:#900;stroke-opacity:1;stroke-width:1;fill:none;fill-opacity:1"/></g><g class="arrow-line"><path d="M70.7 133.8 71 151" class="connection real" style="stroke:#900;stroke-opacity:1;stroke-width:1;fill:none;fill-opacity:1"/></g><g class="arrow-line"><path d="m70.7 133.8.3.3 5.5 16.5" class="connection real" style="stroke:#900;stroke-opacity:1;stroke-width:1;fill:none;fill-opacity:1"/></g><g class="arrow-line"><path d="M70.7 96.6 83 115.8" class="connection real" style="stroke:#900;stroke-opacity:1;stroke-width:1;fill:none;fill-opacity:1"/></g><g class="arrow-line"><path d="M70.7 96.6 84 114" class="connection real" style="stroke:#900;stroke-opacity:1;stroke-width:1;fill:none;fill-opacity:1"/></g><g class="composite-shape"><path d="M263.3 85.3a10.6 10.6 0 1 1 21.3 0 10.6 10.6 0 0 1-21.3 0Z" class="real" style="stroke-width:1;stroke:#900;stroke-opacity:1;fill:none;fill-opacity:1"/></g><g class="arrow-line"><path d="M274 96v37" class="connection real" style="stroke:#900;stroke-opacity:1;stroke-width:1;fill:none;fill-opacity:1"/></g><g class="arrow-line"><path d="m274 133-7.7 17.2" class="connection real" style="stroke:#900;stroke-opacity:1;stroke-width:1;fill:none;fill-opacity:1"/></g><g class="arrow-line"><path d="M274 133v.1l.3.3-.8 16.6" class="connection real" style="stroke:#900;stroke-opacity:1;stroke-width:1;fill:none;fill-opacity:1"/></g><g class="arrow-line"><path d="m274 96-10.1 18" class="connection real" style="stroke:#900;stroke-opacity:1;stroke-width:1;fill:none;fill-opacity:1"/></g><g class="arrow-line"><path d="m274 96-12.1 16.2" class="connection real" style="stroke:#900;stroke-opacity:1;stroke-width:1;fill:none;fill-opacity:1"/></g><g class="arrow-line"><path d="M83 113.6h180.8" class="connection real" style="stroke:#000;stroke-width:1;fill:none;fill-opacity:1"/></g><g class="arrow-line"><path d="M208.1 113.6h-32.4" class="connection real" style="stroke:#900;stroke-opacity:1;stroke-width:1;fill:none;fill-opacity:1"/><path fill="#900" stroke="none" d="M10.7-5.1 0 0l10.7 5.2L7.1 0Z" style="stroke:none;fill:#900;stroke-width:1" transform="matrix(-1 0 0 -1 211.1 113.6)"/></g><g class="composite-shape"><path d="M68 51.8a2.3 2.3 0 1 1 4.6 0 2.3 2.3 0 0 1-4.6 0Z" class="real" style="stroke-width:1;stroke:#000;stroke-opacity:1;fill:#000;fill-opacity:1"/></g><g class="composite-shape"><defs><pattern id="_pgfo2iexb8tpdg-full-view" width="11.3" height="11.3" x="0" y="0" patternTransform="rotate(45 0 0)" patternUnits="userSpaceOnUse"><path d="M0 0v11.3M5.7 0v11.3M11.3 0v11.3" style="stroke:#eee;stroke-opacity:1;stroke-width:1;fill:none"/></pattern></defs><path d="M14.8 151.3h70v60.9h-70Z" class="real" style="stroke-width:1;stroke:#000;fill:url(#_pgfo2iexb8tpdg-full-view);fill-opacity:1"/></g><g class="composite-shape"><defs><pattern id="_pgf4d08werr0dg-full-view" width="11.3" height="11.3" x="0" y="0" patternTransform="rotate(45 0 0)" patternUnits="userSpaceOnUse"><path d="M0 0v11.3M5.7 0v11.3M11.3 0v11.3" style="stroke:#eee;stroke-opacity:1;stroke-width:1;fill:none"/></pattern></defs><path d="M261.3 150.7h70v61h-70Z" class="real" style="stroke-width:1;stroke:#000;fill:url(#_pgf4d08werr0dg-full-view);fill-opacity:1"/></g><g class="arrow-line"><path d="M171 113.6h-32.4" class="connection real" style="stroke:#900;stroke-opacity:1;stroke-width:1;fill:none;fill-opacity:1"/><path fill="#900" stroke="none" d="M10.7-5.1 0 0l10.7 5.2L7.1 0Z" style="stroke:none;fill:#900;stroke-width:1" transform="translate(135.6 113.6)"/></g><g class="composite-shape"><path d="m173.4 119.8-2.3-6.2h4.5Z" class="real" style="stroke-width:1;stroke:#900;stroke-opacity:1;fill:#900;fill-opacity:1"/></g><g class="composite-shape"><path d="M271 50.7a2.3 2.3 0 1 1 4.6 0 2.3 2.3 0 0 1-4.7 0Z" class="real" style="stroke-width:1;stroke:#000;stroke-opacity:1;fill:#000;fill-opacity:1"/></g><g class="arrow-line"><path d="M308 50.7h-32.4" class="connection real" style="stroke:#900;stroke-opacity:1;stroke-width:1;fill:none;fill-opacity:1"/><path fill="#900" stroke="none" d="M10.7-5.1 0 0l10.7 5.2L7.1 0Z" style="stroke:none;fill:#900;stroke-width:1" transform="matrix(-1 0 0 -1 311 50.7)"/></g><g class="arrow-line"><path d="M271 50.7h-32.5" class="connection real" style="stroke:#900;stroke-opacity:1;stroke-width:1;fill:none;fill-opacity:1"/><path fill="#900" stroke="none" d="M10.7-5.1 0 0l10.7 5.2L7.1 0Z" style="stroke:none;fill:#900;stroke-width:1" transform="translate(235.5 50.7)"/></g><g class="arrow-line"><path d="M68 51.8H35.5" class="connection real" style="stroke:#900;stroke-opacity:1;stroke-width:1;fill:none;fill-opacity:1"/><path fill="#900" stroke="none" d="M10.7-5.1 0 0l10.7 5.2L7.1 0Z" style="stroke:none;fill:#900;stroke-width:1" transform="translate(32.5 51.8)"/></g><g class="arrow-line"><path d="M105 51.8H72.6" class="connection real" style="stroke:#900;stroke-opacity:1;stroke-width:1;fill:none;fill-opacity:1"/><path fill="#900" stroke="none" d="M10.7-5.1 0 0l10.7 5.2L7.1 0Z" style="stroke:none;fill:#900;stroke-width:1" transform="matrix(-1 0 0 -1 108 51.8)"/></g><g class="arrow-line"><path d="M108.9 150.6H76.5" class="connection real" style="stroke:#900;stroke-opacity:1;stroke-width:1;fill:none;fill-opacity:1"/><path fill="#900" stroke="none" d="M10.7-5.1 0 0l10.7 5.2L7.1 0Z" style="stroke:none;fill:#900;stroke-width:1" transform="matrix(-1 0 0 -1 111.9 150.6)"/></g><g class="arrow-line"><path d="M266.3 150.2h-32.4" class="connection real" style="stroke:#900;stroke-opacity:1;stroke-width:1;fill:none;fill-opacity:1"/><path fill="#900" stroke="none" d="M10.7-5.1 0 0l10.7 5.2L7.1 0Z" style="stroke:none;fill:#900;stroke-width:1" transform="translate(230.9 150.2)"/></g></g></svg><svg xmlns="http://www.w3.org/2000/svg" xmlns:xlink="http://www.w3.org/1999/xlink" width="346" height="198.3" style="width:346px;height:198.33750915527344px;font-family:Asana-Math,Asana;background:#fff"><path fill="#900" stroke="#900" stroke-width=".1" d="M193.5 129.6h1.2q2 0 2 .3v1.6h.5l.5-2.7H188l-.3 2.8h.5l.2-1 .3-.8 1.4-.2h1.9l-1.5 8.8c-.2 1.6-.3 1.6-1 1.7h-.8v.5h4.6v-.5h-1q-.6 0-.6-.5v-.6Z"/><svg width="11.2" height="10" x="186.9" y="117.6" overflow="visible"><path d="M11.2 4.9 8.1 1.4l-.5.5 2 2.4h-.2v.9h.1l-2 2.3.6.5zm-9.5.3h9v-.9h-9z" style="fill:#900;fill-opacity:1;stroke-width:1px;stroke:none;stroke-opacity:1"/></svg><path fill="#900" stroke="#900" stroke-width=".1" d="M154.3 130h1.2q2 0 2 .3v1.6h.5l.5-2.7h-9.6l-.3 2.8h.5l.2-1 .3-.8 1.4-.2h1.9l-1.5 8.8c-.2 1.6-.3 1.6-1 1.7h-.8v.5h4.6v-.5h-1q-.6 0-.6-.5v-.6Z"/><svg width="11.2" height="10" x="147.7" y="118" overflow="visible"><path d="M11.2 4.9 8.1 1.4l-.5.5 2 2.4h-.2v.9h.1l-2 2.3.6.5zm-9.5.3h9v-.9h-9z" style="fill:#900;fill-opacity:1;stroke-width:1px;stroke:none;stroke-opacity:1"/></svg><path fill="#900" stroke="#900" stroke-width=".1" d="M46.8 30.3H48q2 0 2 .3v1.6h.5l.5-2.7h-9.6l-.3 2.8h.5l.2-1 .3-.8 1.4-.2h1.9L43.9 39c-.2 1.6-.3 1.6-1 1.7h-.8v.5h4.6v-.5h-1q-.6 0-.6-.5v-.6Z"/><svg width="11.2" height="10" x="40.2" y="18.3" overflow="visible"><path d="M11.2 4.9 8.1 1.4l-.5.5 2 2.4h-.2v.9h.1l-2 2.3.6.5zm-9.5.3h9v-.9h-9z" style="fill:#900;fill-opacity:1;stroke-width:1px;stroke:none;stroke-opacity:1"/></svg><path fill="#900" stroke="#900" stroke-width=".1" d="M96.7 31h-.3l.4-1.8q.4-2.2 1.5-2.1.8 0 1.3.6h.1l.4-1.2.1-.2L99 26h-.6l-2.2 1.7q-.6.5-.7 1.9l-.3 1.3-1.5.6v.4H95l-.1 1c-.5 3.3-1.2 6.4-1.5 7.6q-.5 1.5-1.5 1.5-.5.1-.8-.5l-.3.1-.4 1.4.6.1q1.1 0 2.3-1.3c1.2-1.4 1.5-3 3-9.9H98l.3-1z"/><svg width="10.2" height="10" x="90.8" y="15.5" overflow="visible"><path d="M10.2 4.9 7.1 1.4l-.5.5 1.9 2.4h-.2v.9h.2l-2 2.3.5.5zm-8.5.3h8v-.9h-8z" style="fill:#900;fill-opacity:1;stroke-width:1px;stroke:none;stroke-opacity:1"/></svg><path fill="#900" stroke="#900" stroke-width=".1" d="M101 43.3q0 .8-.2 1.5l1.3.3q.8 0 1.7-.6t.9-1.6-1.3-1.1l-.5-.1q-1-.1-1-.8.1-1 1.3-1.1.9 0 1.1.5v.6h.3l.2-1.3-1.2-.3a3 3 0 0 0-1.9.9q-.4.4-.4 1 0 1 1.1 1.3l.8.1q.7 0 .7.8-.1 1.2-1.4 1.3-.6 0-1.1-.4v-1Zm205.5-12.7h1.2q2 0 2 .3v1.6h.5l.4-2.7h-9.5l-.3 2.8h.4l.3-1q0-.6.3-.8l1.4-.2h1.9l-1.5 8.8c-.2 1.6-.3 1.6-1 1.7h-.8l-.1.5h4.7v-.5h-1q-.6 0-.6-.5V40Z"/><svg width="11.2" height="10" x="299.9" y="18.6" overflow="visible"><path d="M11.2 4.9 8.1 1.4l-.5.5 2 2.4h-.2v.9h.1l-2 2.3.6.5zm-9.5.3h9v-.9h-9z" style="fill:#900;fill-opacity:1;stroke-width:1px;stroke:none;stroke-opacity:1"/></svg><path fill="#900" stroke="#900" stroke-width=".1" d="M239.4 28.6h-.3l.4-1.9q.3-2 1.5-2 .8 0 1.2.6l.2-.1q.1-.6.4-1.1v-.3l-1.1-.2-.6.1-2.2 1.6q-.6.6-.8 1.9l-.2 1.3-1.5.7v.3h1.3l-.1 1c-.6 3.3-1.2 6.5-1.6 7.6q-.5 1.5-1.4 1.6-.5 0-.9-.5h-.2l-.4 1.4.6.1q1.1 0 2.3-1.3c1.2-1.4 1.5-3 3-9.9h1.7l.3-1z"/><svg width="10.2" height="10" x="233.5" y="13.1" overflow="visible"><path d="M10.2 4.9 7.1 1.4l-.5.5 1.9 2.4h-.2v.9h.2l-2 2.3.5.5zm-8.5.3h8v-.9h-8z" style="fill:#900;fill-opacity:1;stroke-width:1px;stroke:none;stroke-opacity:1"/></svg><path fill="#900" stroke="#900" stroke-width=".1" d="m243.7 40.8-.2 1.6q.6.3 1.3.3t1.7-.7.8-1.5q0-1-1.2-1.2h-.5q-1-.2-1-.9.1-1 1.3-1.1.7 0 1 .5v.7h.4l.2-1.4-1.2-.3a3 3 0 0 0-2 1q-.4.4-.4 1 0 1 1.2 1.2l.7.1q.8.1.8.8-.1 1.3-1.4 1.3-.7 0-1.2-.4v-1Zm-7.8 130.3h-.3l.4-1.9q.3-2 1.5-2 .8 0 1.2.6l.2-.1q.1-.6.4-1.1v-.3l-1.1-.2-.6.1-2.2 1.6q-.6.6-.8 1.9l-.2 1.3-1.5.7v.3h1.3l-.1 1c-.6 3.3-1.2 6.5-1.6 7.6q-.5 1.5-1.4 1.6-.5 0-.9-.5h-.2l-.4 1.4.6.1q1.1 0 2.3-1.3c1.2-1.4 1.5-3 3-9.9h1.7l.3-1z"/><svg width="10.2" height="10" x="230" y="155.6" overflow="visible"><path d="M10.2 4.9 7.1 1.4l-.5.5 1.9 2.4h-.2v.9h.2l-2 2.3.5.5zm-8.5.3h8v-.9h-8z" style="fill:#900;fill-opacity:1;stroke-width:1px;stroke:none;stroke-opacity:1"/></svg><path fill="#900" stroke="#900" stroke-width=".1" d="m240.2 183.3-.2 1.6q.6.3 1.3.3t1.7-.7.8-1.5q0-1-1.2-1.2h-.5q-1-.2-1-.9.1-1 1.3-1.1.7 0 1 .5v.7h.4l.2-1.4-1.2-.3a3 3 0 0 0-2 1q-.4.4-.4 1 0 1 1.2 1.2l.7.1q.8.1.8.8-.1 1.3-1.4 1.3-.7 0-1.2-.4v-1Zm-131.6-11.1h-.2l.3-1.9q.4-2.2 1.6-2.1.8 0 1.2.7l.1-.1.4-1.1.1-.3-1.2-.2-.6.1-2.2 1.6q-.4.6-.7 1.9l-.3 1.3-1.4.7-.1.3h1.4l-.2 1c-.5 3.3-1.1 6.5-1.5 7.6q-.5 1.5-1.4 1.6-.5 0-1-.5h-.2l-.4 1.4.6.1q1.2 0 2.3-1.3c1.2-1.4 1.6-3 3-9.9h1.8l.3-1h-.1z"/><svg width="10.2" height="10" x="102.8" y="156.6" overflow="visible"><path d="M10.2 4.9 7.1 1.4l-.5.5 1.9 2.4h-.2v.9h.2l-2 2.3.5.5zm-8.5.3h8v-.9h-8z" style="fill:#900;fill-opacity:1;stroke-width:1px;stroke:none;stroke-opacity:1"/></svg><path fill="#900" stroke="#900" stroke-width=".1" d="M113 184.4q0 .8-.3 1.5.7.4 1.3.4.8 0 1.7-.7t.9-1.5q0-1-1.3-1.2h-.5q-1-.2-1-.9.1-1 1.3-1.1.9 0 1.1.5v.7h.3l.2-1.4-1.2-.3a3 3 0 0 0-1.9 1q-.4.4-.4 1 0 .9 1.1 1.2l.8.1q.7.1.7.8 0 1.3-1.4 1.3-.6 0-1.1-.4v-1Z"/></svg></svg>