<svg xmlns="http://www.w3.org/2000/svg" width="161.6" height="129.938" style="width:161.60000610351562px;height:129.9375px;background:0 0;fill:none"><svg xmlns="http://www.w3.org/2000/svg"/><svg xmlns="http://www.w3.org/2000/svg" class="role-diagram-draw-area"><g class="shapes-region" style="stroke:#000;fill:none"><g class="arrow-line"><path d="M-18.08 109.35 168.68-21.43" class="connection real" style="stroke:#000;stroke-width:1;fill:none;fill-opacity:1"/></g><g class="composite-shape"><path d="M94.5 42.33c0-3.26 2.64-5.9 5.9-5.9h32.2c3.26 0 5.9 2.64 5.9 5.9v17.71c0 3.26-2.64 5.9-5.9 5.9h-32.2c-3.26 0-5.9-2.64-5.9-5.9Z" class="real" style="stroke-width:1;stroke:#900;stroke-opacity:1;fill:#900;fill-opacity:.5"/></g><g class="composite-shape"><path d="M113.71 15.44c0-1.47 1.19-2.66 2.66-2.66s2.66 1.19 2.66 2.66c0 1.46-1.19 2.65-2.66 2.65s-2.66-1.19-2.66-2.65Z" class="real" style="stroke-width:1;stroke:#000;fill:#180f0f;fill-opacity:.5"/></g><g class="arrow-line"><path d="M116.37 18.09v18.15" class="connection real" style="stroke:#000;stroke-width:1;fill:none;fill-opacity:1"/></g><g class="composite-shape"><path d="M21.64 93.19c0-3.26 2.65-5.9 5.91-5.9h32.19c3.26 0 5.9 2.64 5.9 5.9v17.71c0 3.26-2.64 5.9-5.9 5.9H27.55c-3.26 0-5.91-2.64-5.91-5.9Z" class="real" style="stroke-width:1;stroke:#900;stroke-opacity:1;fill:#900;fill-opacity:.5"/></g><g class="composite-shape"><path d="M40.86 66.29a2.655 2.655 0 1 1 5.31.01 2.655 2.655 0 0 1-5.31-.01Z" class="real" style="stroke-width:1;stroke:#000;fill:#180f0f;fill-opacity:.5"/></g><g class="arrow-line"><path d="M43.51 68.95v18.14" class="connection real" style="stroke:#000;stroke-width:1;fill:none;fill-opacity:1"/></g><g class="arrow-line"><path stroke-dasharray="3" d="M46.17 66.29h28" class="connection real" style="stroke:#000;stroke-width:1;fill:none;fill-opacity:1"/></g><g class="composite-shape"><path stroke="none" d="M51.92 60.41c1.17 1.66 1.85 3.69 1.85 5.88H43.51Z" class="real" style="stroke-width:1;stroke:none;stroke-opacity:1;fill:none;fill-opacity:1"/><path d="M51.92 60.41c1.17 1.66 1.85 3.69 1.85 5.88" class="real" style="stroke-width:1;stroke:#900;stroke-opacity:1;fill:none;fill-opacity:1"/></g></g></svg><svg xmlns="http://www.w3.org/2000/svg" xmlns:xlink="http://www.w3.org/1999/xlink" width="160" height="128.338" style="width:160px;height:128.33750915527344px;font-family:Asana-Math,Asana;background:0 0"><path fill="#900" stroke="#900" stroke-width=".109" d="M70.796 59.579c0-1.646-1.455-1.932-2.095-2.04 1.088-.844 1.496-1.47 1.496-2.272 0-1.21-1.006-2.012-2.516-2.012-.924 0-1.536.258-2.19.91l-.394 1.687h.422l.245-.761c.15-.463 1.006-.925 1.713-.925.884 0 1.605.72 1.605 1.577 0 1.02-.802 1.877-1.768 1.877-.109 0-.258-.013-.435-.027l-.204-.014-.163.721.095.082c.517-.231.775-.3 1.142-.3 1.13 0 1.782.721 1.782 1.959 0 1.387-.83 2.298-2.094 2.298-.626 0-1.184-.204-1.592-.584-.326-.3-.503-.612-.761-1.347l-.367.136c.285.83.394 1.32.476 2 .72.244 1.319.353 1.822.353 1.673 0 3.78-1.455 3.78-3.318Zm6.745-.395c0-1.537-1.101-2.625-2.652-2.625-.652 0-1.142.041-1.863.68v-2.842l4.148.014v-1.156l-4.855-.014v5.005l.272.081c.64-.639 1.006-.83 1.673-.83 1.305 0 2.121.926 2.121 2.394 0 1.51-.87 2.394-2.352 2.394-.735 0-1.415-.245-1.605-.598l-.626-1.116-.326.19c.313.776.476 1.211.666 1.81.38.204.925.326 1.51.326 1.74 0 3.89-1.482 3.89-3.713Zm3.25-5.93a2.034 2.034 0 0 0-2.026 2.04c0 1.13.912 2.04 2.04 2.04 1.102 0 2.04-.924 2.04-2.012a2.055 2.055 0 0 0-2.053-2.067Zm0 .545c.83 0 1.51.68 1.51 1.523 0 .789-.68 1.469-1.496 1.469-.83 0-1.496-.667-1.496-1.496 0-.83.667-1.496 1.483-1.496Z"/></svg></svg>