<svg xmlns="http://www.w3.org/2000/svg" xmlns:xlink="http://www.w3.org/1999/xlink" x="0" y="0" width="371.6000061035156" height="280" style="
        width:371.6000061035156px;
        height:280px;
        background: #FFF;
        fill: none;
">
        <svg xmlns="http://www.w3.org/2000/svg"/>
        
        <svg xmlns="http://www.w3.org/2000/svg" class="role-diagram-draw-area"><g class="shapes-region" style="stroke: black; fill: none;"><g class="composite-shape"><defs><!-- react-text: 59812 --> <!-- /react-text --><pattern id="_pgf1l1qzj50y" x="0" y="0" width="11.313708498984761" height="11.313708498984761" patternTransform="rotate(45,0,0)" patternUnits="userSpaceOnUse"><path d="M0,0 L0,11.313708498984761" style="stroke: rgb(238, 238, 238); stroke-opacity: 1; stroke-width: 1; fill: none;"/><path d="M5.656854249492381,0 L5.656854249492381,11.313708498984761" style="stroke: rgb(238, 238, 238); stroke-opacity: 1; stroke-width: 1; fill: none;"/><path d="M11.313708498984761,0 L11.313708498984761,11.313708498984761" style="stroke: rgb(238, 238, 238); stroke-opacity: 1; stroke-width: 1; fill: none;"/></pattern></defs><path class="real" d=" M8,-9 L191,-9 L191,45.3 L8,45.3 Z" style="stroke-width: 1; stroke: rgb(0, 0, 0); fill: url(&quot;#_pgf1l1qzj50y&quot;); fill-opacity: 1;"/></g><g class="composite-shape"><path class="real" d=" M71.2,171.7 L125,171.7 L125,225.5 L71.2,225.5 Z" style="stroke-width: 1; stroke: rgb(153, 0, 0); stroke-opacity: 1; fill: rgb(153, 0, 0); fill-opacity: 0.5;"/></g><g class="arrow-line"><path class="connection real" stroke-dasharray="" d="  M97.8,171.08 L97.8,45.48" style="stroke: rgb(0, 0, 0); stroke-width: 1; fill: none; fill-opacity: 1;"/></g><g class="composite-shape"><defs><!-- react-text: 59825 --> <!-- /react-text --><pattern id="_pgfzerg76u1j" x="0" y="0" width="11.313708498984761" height="11.313708498984761" patternTransform="rotate(45,0,0)" patternUnits="userSpaceOnUse"><path d="M0,0 L0,11.313708498984761" style="stroke: rgb(238, 238, 238); stroke-opacity: 1; stroke-width: 1; fill: none;"/><path d="M5.656854249492381,0 L5.656854249492381,11.313708498984761" style="stroke: rgb(238, 238, 238); stroke-opacity: 1; stroke-width: 1; fill: none;"/><path d="M11.313708498984761,0 L11.313708498984761,11.313708498984761" style="stroke: rgb(238, 238, 238); stroke-opacity: 1; stroke-width: 1; fill: none;"/></pattern></defs><path class="real" d=" M214.33,176 C214.33,135.46 247.2,102.6 287.73,102.6 C328.27,102.6 361.13,135.46 361.13,176 C361.13,216.54 328.27,249.4 287.73,249.4 C247.2,249.4 214.33,216.54 214.33,176 Z" style="stroke-width: 1; stroke: rgb(0, 0, 0); fill: url(&quot;#_pgfzerg76u1j&quot;); fill-opacity: 1;"/></g><g class="composite-shape"><defs><!-- react-text: 59833 --> <!-- /react-text --><pattern id="_pgf9bgt5yy7j" x="0" y="0" width="11.313708498984761" height="11.313708498984761" patternTransform="rotate(45,0,0)" patternUnits="userSpaceOnUse"><path d="M0,0 L0,11.313708498984761" style="stroke: rgb(238, 238, 238); stroke-opacity: 1; stroke-width: 1; fill: none;"/><path d="M5.656854249492381,0 L5.656854249492381,11.313708498984761" style="stroke: rgb(238, 238, 238); stroke-opacity: 1; stroke-width: 1; fill: none;"/><path d="M11.313708498984761,0 L11.313708498984761,11.313708498984761" style="stroke: rgb(238, 238, 238); stroke-opacity: 1; stroke-width: 1; fill: none;"/></pattern></defs><path class="real" d=" M275.36,40.14 L299.8,40.14 L299.8,47.4 L275.36,47.4 Z" style="stroke-width: 1; stroke: rgb(0, 0, 0); fill: url(&quot;#_pgf9bgt5yy7j&quot;); fill-opacity: 1;"/></g><g class="composite-shape"><path class="real" d=" M281.13,57.25 L294,57.25 L294,70.13 L281.13,70.13 Z" style="stroke-width: 1; stroke: rgb(153, 0, 0); stroke-opacity: 1; fill: rgb(153, 0, 0); fill-opacity: 0.5;"/></g><g class="arrow-line"><path class="connection real" stroke-dasharray="" d="  M287.49,57.1 L287.49,47.48" style="stroke: rgb(0, 0, 0); stroke-width: 1; fill: none; fill-opacity: 1;"/></g><g class="arrow-line"><path class="connection real" stroke-dasharray="" d="  M287.49,70.37 L287.49,88.7" style="stroke: rgb(153, 0, 0); stroke-opacity: 1; stroke-width: 1; fill: none; fill-opacity: 1;"/><g stroke="none" fill="rgb(153,0,0)" fill-opacity="1" transform="matrix(-1.8369701987210297e-16,-1,1,-1.8369701987210297e-16,287.4931187475097,91.69999949137372)" style="stroke: none; fill: rgb(153, 0, 0); stroke-width: 1;"><path d=" M10.72,-5.15 L0,0 L10.72,5.15 L7.12,0 Z"/></g></g><g class="arrow-line"><path class="connection real" stroke-dasharray="" d="  M287.73,157.67 L287.73,176" style="stroke: rgb(153, 0, 0); stroke-opacity: 1; stroke-width: 1; fill: none; fill-opacity: 1;"/><g stroke="none" fill="rgb(153,0,0)" fill-opacity="1" transform="matrix(6.123233995736766e-17,1,-1,6.123233995736766e-17,287.73333740234375,154.66666666666674)" style="stroke: none; fill: rgb(153, 0, 0); stroke-width: 1;"><path d=" M10.72,-5.15 L0,0 L10.72,5.15 L7.12,0 Z"/></g></g><g class="arrow-line"><path class="connection real" stroke-dasharray="" d="  M97.8,11.48 L97.8,45.48" style="stroke: rgb(153, 0, 0); stroke-opacity: 1; stroke-width: 1; fill: none; fill-opacity: 1;"/><g stroke="none" fill="rgb(153,0,0)" fill-opacity="1" transform="matrix(6.123233995736766e-17,1,-1,6.123233995736766e-17,97.79999999999998,8.479998779296878)" style="stroke: none; fill: rgb(153, 0, 0); stroke-width: 1;"><path d=" M10.72,-5.15 L0,0 L10.72,5.15 L7.12,0 Z"/></g></g><g class="arrow-line"><path class="connection real" stroke-dasharray="" d="  M97.8,45.48 L97.8,79.48" style="stroke: rgb(153, 0, 0); stroke-opacity: 1; stroke-width: 1; fill: none; fill-opacity: 1;"/><g stroke="none" fill="rgb(153,0,0)" fill-opacity="1" transform="matrix(-1.8369701987210297e-16,-1,1,-1.8369701987210297e-16,97.79999999999998,82.48000183105468)" style="stroke: none; fill: rgb(153, 0, 0); stroke-width: 1;"><path d=" M10.72,-5.15 L0,0 L10.72,5.15 L7.12,0 Z"/></g></g><g class="arrow-line"><path class="connection real" stroke-dasharray="" d="  M97.8,137.08 L97.8,171.08" style="stroke: rgb(153, 0, 0); stroke-opacity: 1; stroke-width: 1; fill: none; fill-opacity: 1;"/><g stroke="none" fill="rgb(153,0,0)" fill-opacity="1" transform="matrix(6.123233995736766e-17,1,-1,6.123233995736766e-17,97.79999999999998,134.07999725341793)" style="stroke: none; fill: rgb(153, 0, 0); stroke-width: 1;"><path d=" M10.72,-5.15 L0,0 L10.72,5.15 L7.12,0 Z"/></g></g><g class="arrow-line"><path class="connection real" stroke-dasharray="" d="  M97.8,226.48 L97.8,260.48" style="stroke: rgb(153, 0, 0); stroke-opacity: 1; stroke-width: 1; fill: none; fill-opacity: 1;"/><g stroke="none" fill="rgb(153,0,0)" fill-opacity="1" transform="matrix(-1.8369701987210297e-16,-1,1,-1.8369701987210297e-16,97.79999999999998,263.48000183105466)" style="stroke: none; fill: rgb(153, 0, 0); stroke-width: 1;"><path d=" M10.72,-5.15 L0,0 L10.72,5.15 L7.12,0 Z"/></g></g><g/></g><g/><g/><g/></svg>
        <svg xmlns="http://www.w3.org/2000/svg" xmlns:xlink="http://www.w3.org/1999/xlink" width="370" height="278.3999938964844" style="width:370px;height:278.3999938964844px;font-family:Asana-Math, Asana;background:#FFF;"><g><g><g><g transform="matrix(1,0,0,1,91.4937744140625,205.40000915527344)"><path transform="matrix(0.017,0,0,-0.017,0,0)" d="M730 103L704 86C675 67 653 56 643 56C636 56 630 65 630 76C630 86 632 95 637 116L712 413C716 430 719 446 719 454C719 471 709 482 693 482C664 482 626 464 565 421C502 376 467 341 418 272L448 409C452 429 455 444 455 451C455 470 445 482 429 482C399 482 353 460 298 418C254 384 234 363 169 275L202 408C206 424 208 439 208 451C208 470 199 482 185 482C164 482 126 461 52 408L24 388L31 368C68 391 103 414 110 414C121 414 128 404 128 389C128 338 87 145 46 2L49 -9L117 6L139 108C163 219 190 278 245 338C287 384 332 414 360 414C367 414 371 406 371 393C371 358 349 244 308 69L292 2L297 -9L366 6L387 113C403 194 437 269 481 318C536 379 586 414 618 414C626 414 631 405 631 389C631 365 628 351 606 264C566 105 550 84 550 31C550 6 561 -9 580 -9C606 -9 642 12 740 85Z" stroke="rgb(255,255,255)" stroke-opacity="1" stroke-width="8" fill="rgb(255,255,255)" fill-opacity="1"></path></g></g></g></g><g><g><g><g><g><g><g transform="matrix(1,0,0,1,106.32501220703125,267.1999969482422)"><path transform="matrix(0.017,0,0,-0.017,0,0)" d="M167 420C188 420 201 421 226 424C171 350 72 266 72 126C72 44 107 -11 160 -11C224 -11 276 44 350 187C341 143 338 118 338 95C338 32 367 -11 412 -11C546 -11 699 238 699 384C699 441 673 482 637 482C624 482 612 478 604 470L554 423L565 404C574 410 583 413 592 413C619 413 635 390 635 350C635 205 538 39 453 39C424 39 403 79 403 134C403 181 412 247 424 290L476 474L469 482L395 460L366 311C354 249 340 209 311 155C271 80 233 39 203 39C168 39 145 78 145 136C145 255 186 352 285 464L275 482C255 473 242 470 214 470C186 470 144 472 115 475L103 476C97 477 92 477 91 477C79 477 70 475 59 470C45 443 34 407 21 352L43 352L60 394C67 411 87 422 111 422C145 422 128 420 167 420Z" stroke="rgb(153,0,0)" stroke-opacity="1" stroke-width="8" fill="rgb(153,0,0)" fill-opacity="1"></path></g></g></g></g><svg x="106.32501220703125" overflow="visible" y="248.1999969482422" height="10" width="13.112500190734863"><path d=" M 13.11 4.85 l -3.15 -3.32 l -0.49 0.52 l 1.93 2.33 h -0.15 v 0.90 h 0.15 l -1.93 2.33 l 0.49 0.52 z  M 1.68 5.23 h 10.97 v -0.90 h -10.97 z" style="fill:rgb(153,0,0);fill-opacity:1;stroke-width:1px;stroke:none;stroke-opacity:1;"></path></svg></g></g></g><g><g><g><g><g><g><g transform="matrix(1,0,0,1,107.79998779296875,140.8000030517578)"><path transform="matrix(0.017,0,0,-0.017,0,0)" d="M390 646L463 646C541 646 577 641 580 629C583 621 585 602 584 592L580 528L608 528L635 692L544 691C456 690 388 689 353 689C316 689 252 690 166 691L71 692L53 528L82 528L97 588C102 610 109 626 115 633C121 640 159 646 196 646L308 646L222 125C206 34 204 31 164 28L113 25L109 -3L166 -2C206 -1 235 0 251 0C270 0 301 -1 340 -2L384 -3L387 25L328 28C302 29 292 37 292 58C292 67 293 74 296 93Z" stroke="rgb(153,0,0)" stroke-opacity="1" stroke-width="8" fill="rgb(153,0,0)" fill-opacity="1"></path></g></g></g></g><svg x="107.79998779296875" overflow="visible" y="117.80000305175781" height="10" width="11.225000381469727"><path d=" M 11.23 4.85 l -3.15 -3.32 l -0.49 0.52 l 1.93 2.33 h -0.15 v 0.90 h 0.15 l -1.93 2.33 l 0.49 0.52 z  M 1.68 5.23 h 9.08 v -0.90 h -9.08 z" style="fill:rgb(153,0,0);fill-opacity:1;stroke-width:1px;stroke:none;stroke-opacity:1;"></path></svg></g><g><g><g><g><g transform="matrix(1,0,0,1,118.67498779296875,146.49999084472657)"><path transform="matrix(0.0119,0,0,-0.0119,0,0)" d="M31 148C26 97 20 62 9 16C47 -2 81 -11 116 -11C165 -11 211 7 262 47C313 87 334 124 334 174C334 228 302 257 228 271L185 279C125 290 106 307 106 348C106 401 151 442 208 442C249 442 287 424 303 397L303 342L326 342C330 377 334 404 345 455C306 474 278 482 245 482C193 482 132 452 84 404C58 377 47 352 47 316C47 260 78 228 144 215L207 203C251 195 267 177 267 138C267 73 221 29 150 29C115 29 84 40 56 64L56 148ZM513 390L457 107C456 99 444 61 444 31C444 6 455 -9 474 -9C509 -9 544 11 622 74L653 99L643 117L598 86C569 66 549 56 538 56C529 56 524 64 524 76C524 102 538 183 567 328L580 390L687 390L698 440C660 436 626 434 588 434C604 528 615 577 633 631L622 646C602 634 575 622 544 610L519 440C475 419 449 408 431 403L429 390ZM1088 365C1091 403 1096 435 1104 476C1093 481 1089 482 1084 482C1053 482 1022 458 986 407C947 351 908 291 892 256L924 408C928 425 930 438 930 450C930 470 922 482 907 482C886 482 848 461 774 408L746 388L753 368L785 389C813 407 824 412 833 412C843 412 850 403 850 390C850 332 807 126 767 -2L777 -9C792 -4 808 -1 831 4L844 6L870 126C888 209 911 262 955 319C989 363 1016 384 1038 384C1053 384 1063 379 1074 365ZM1142 388L1149 368L1181 389C1218 412 1221 414 1228 414C1238 414 1246 404 1246 391C1246 384 1242 361 1238 347L1172 107C1164 76 1159 49 1159 30C1159 6 1170 -9 1189 -9C1215 -9 1251 12 1349 85L1339 103L1313 86C1284 67 1261 56 1252 56C1245 56 1239 66 1239 76C1239 86 1241 95 1246 116L1323 420C1327 437 1329 448 1329 456C1329 473 1320 482 1304 482C1282 482 1245 461 1170 408ZM1336 712C1307 712 1278 679 1278 645C1278 620 1293 604 1317 604C1348 604 1372 633 1372 671C1372 695 1357 712 1336 712ZM1409 388L1416 368L1448 389C1485 412 1488 414 1495 414C1506 414 1513 404 1513 389C1513 338 1472 145 1431 2L1438 -9C1463 -2 1486 4 1508 8C1527 134 1548 199 1594 268C1648 352 1723 414 1768 414C1779 414 1785 405 1785 390C1785 372 1782 351 1774 319L1722 107C1713 70 1709 47 1709 31C1709 6 1720 -9 1739 -9C1765 -9 1801 12 1899 85L1889 103L1863 86C1834 67 1812 56 1802 56C1795 56 1789 65 1789 76C1789 81 1790 92 1791 96L1857 372C1864 401 1868 429 1868 446C1868 469 1857 482 1837 482C1795 482 1726 444 1667 389C1629 354 1601 320 1549 247L1587 408C1591 426 1593 438 1593 449C1593 470 1585 482 1570 482C1549 482 1510 460 1437 408ZM2215 482C2148 482 1995 419 1995 259C1995 182 2040 136 2117 136C2125 136 2136 136 2147 137L2106 99C2090 84 2079 66 2079 52C2079 42 2086 31 2100 19C2031 -4 1903 -48 1903 -159C1903 -230 1973 -276 2082 -276C2211 -276 2324 -204 2324 -121C2324 -85 2303 -49 2260 -14L2200 35C2166 62 2153 81 2153 100C2153 114 2168 128 2180 146C2278 170 2349 253 2349 342C2349 357 2346 376 2345 380C2362 378 2370 378 2379 378C2396 378 2406 379 2429 382L2438 427L2435 433C2407 426 2387 424 2333 424C2333 425 2309 482 2215 482ZM2116 1L2193 -58C2239 -94 2258 -121 2258 -154C2258 -206 2189 -248 2106 -248C2024 -248 1967 -206 1967 -145C1967 -43 2077 -11 2116 1ZM2190 448C2248 448 2277 412 2277 341C2277 238 2229 168 2159 168C2098 168 2066 209 2066 288C2066 383 2117 448 2190 448Z" stroke="rgb(153,0,0)" stroke-opacity="1" stroke-width="8" fill="rgb(153,0,0)" fill-opacity="1"></path></g></g></g></g></g></g></g><g><g><g><g><g><g><g transform="matrix(1,0,0,1,296.125,93.80000305175781)"><path transform="matrix(0.017,0,0,-0.017,0,0)" d="M167 420C188 420 201 421 226 424C171 350 72 266 72 126C72 44 107 -11 160 -11C224 -11 276 44 350 187C341 143 338 118 338 95C338 32 367 -11 412 -11C546 -11 699 238 699 384C699 441 673 482 637 482C624 482 612 478 604 470L554 423L565 404C574 410 583 413 592 413C619 413 635 390 635 350C635 205 538 39 453 39C424 39 403 79 403 134C403 181 412 247 424 290L476 474L469 482L395 460L366 311C354 249 340 209 311 155C271 80 233 39 203 39C168 39 145 78 145 136C145 255 186 352 285 464L275 482C255 473 242 470 214 470C186 470 144 472 115 475L103 476C97 477 92 477 91 477C79 477 70 475 59 470C45 443 34 407 21 352L43 352L60 394C67 411 87 422 111 422C145 422 128 420 167 420Z" stroke="rgb(153,0,0)" stroke-opacity="1" stroke-width="8" fill="rgb(153,0,0)" fill-opacity="1"></path></g></g></g></g><svg x="296.125" overflow="visible" y="74.80000305175781" height="10" width="13.112500190734863"><path d=" M 13.11 4.85 l -3.15 -3.32 l -0.49 0.52 l 1.93 2.33 h -0.15 v 0.90 h 0.15 l -1.93 2.33 l 0.49 0.52 z  M 1.68 5.23 h 10.97 v -0.90 h -10.97 z" style="fill:rgb(153,0,0);fill-opacity:1;stroke-width:1px;stroke:none;stroke-opacity:1;"></path></svg></g></g></g><g><g><g><g><g><g><g transform="matrix(1,0,0,1,299.125,164.46250915527344)"><path transform="matrix(0.017,0,0,-0.017,0,0)" d="M286 646L392 650C454 650 494 641 495 626L503 537L527 537C530 600 537 651 548 689C526 691 498 692 481 692L440 691L275 689L246 689C221 689 181 690 143 691L94 692L91 664L147 662C171 661 182 652 182 635C182 621 178 589 173 559L98 125C81 33 81 32 40 28L4 25L0 -3L34 -2C74 -1 106 0 127 0C145 0 174 -1 213 -2L265 -3L268 25L204 28C177 29 168 37 168 57C168 63 169 74 170 78L206 301L323 301C350 301 381 300 429 298L455 297L474 342L470 349C389 345 329 343 251 343L214 343L260 614C263 630 264 635 269 646Z" stroke="rgb(153,0,0)" stroke-opacity="1" stroke-width="8" fill="rgb(153,0,0)" fill-opacity="1"></path></g></g></g></g><svg x="299.125" overflow="visible" y="141.46250915527344" height="10" width="10.287500381469727"><path d=" M 10.29 4.85 l -3.15 -3.32 l -0.49 0.52 l 1.93 2.33 h -0.15 v 0.90 h 0.15 l -1.93 2.33 l 0.49 0.52 z  M 1.68 5.23 h 8.15 v -0.90 h -8.15 z" style="fill:rgb(153,0,0);fill-opacity:1;stroke-width:1px;stroke:none;stroke-opacity:1;"></path></svg></g><g><g><g><g><g transform="matrix(1,0,0,1,309.0625,170.1624969482422)"><path transform="matrix(0.0119,0,0,-0.0119,0,0)" d="M235 722L223 733C171 707 135 698 63 691L59 670L107 670C131 670 141 663 141 646C141 639 140 628 139 622L38 71C37 68 37 64 37 61C37 22 85 -11 140 -11C177 -11 228 8 271 39C367 107 433 244 433 376C433 414 424 453 412 468C405 477 392 482 377 482C353 482 323 474 295 460C244 433 211 403 149 324ZM322 424C348 424 361 401 361 352C361 288 340 202 310 137C277 68 237 36 183 36C137 36 112 59 112 101C112 135 127 276 208 361C241 395 293 424 322 424ZM479 152C479 46 524 -11 607 -11C662 -11 722 15 767 57C829 116 873 230 873 331C873 425 823 482 740 482C636 482 479 382 479 152ZM703 444C764 444 797 399 797 315C797 219 766 113 722 60C704 39 678 27 647 27C589 27 555 72 555 151C555 264 594 387 643 427C656 438 679 444 703 444ZM914 1C929 -7 945 -11 957 -11C990 -11 1029 18 1060 65L1136 182L1147 113C1160 28 1183 -11 1219 -11C1241 -11 1273 6 1305 35L1354 79L1345 98C1309 68 1284 53 1268 53C1253 53 1240 63 1230 83C1221 102 1210 139 1205 168L1187 269L1222 318C1269 383 1296 406 1327 406C1343 406 1355 398 1360 383L1374 387L1389 472C1377 479 1368 482 1359 482C1319 482 1279 446 1217 354L1180 299L1174 347C1162 446 1135 482 1076 482C1050 482 1028 474 1019 461L961 378L978 368C1008 402 1028 416 1047 416C1080 416 1102 375 1119 277L1130 215L1090 153C1047 86 1013 54 985 54C970 54 959 58 957 63L946 91L926 88C926 53 918 27 914 1Z" stroke="rgb(153,0,0)" stroke-opacity="1" stroke-width="8" fill="rgb(153,0,0)" fill-opacity="1"></path></g></g></g></g></g></g></g><g><g><g><g><g><g><g transform="matrix(1,0,0,1,108.20001220703125,93.19999694824219)"><path transform="matrix(0.017,0,0,-0.017,0,0)" d="M390 646L463 646C541 646 577 641 580 629C583 621 585 602 584 592L580 528L608 528L635 692L544 691C456 690 388 689 353 689C316 689 252 690 166 691L71 692L53 528L82 528L97 588C102 610 109 626 115 633C121 640 159 646 196 646L308 646L222 125C206 34 204 31 164 28L113 25L109 -3L166 -2C206 -1 235 0 251 0C270 0 301 -1 340 -2L384 -3L387 25L328 28C302 29 292 37 292 58C292 67 293 74 296 93Z" stroke="rgb(153,0,0)" stroke-opacity="1" stroke-width="8" fill="rgb(153,0,0)" fill-opacity="1"></path></g></g></g></g><svg x="108.20001220703125" overflow="visible" y="70.19999694824219" height="10" width="11.225000381469727"><path d=" M 11.23 4.85 l -3.15 -3.32 l -0.49 0.52 l 1.93 2.33 h -0.15 v 0.90 h 0.15 l -1.93 2.33 l 0.49 0.52 z  M 1.68 5.23 h 9.08 v -0.90 h -9.08 z" style="fill:rgb(153,0,0);fill-opacity:1;stroke-width:1px;stroke:none;stroke-opacity:1;"></path></svg></g><g><g><g><g><g transform="matrix(1,0,0,1,119.07501220703125,98.89998474121094)"><path transform="matrix(0.0119,0,0,-0.0119,0,0)" d="M31 148C26 97 20 62 9 16C47 -2 81 -11 116 -11C165 -11 211 7 262 47C313 87 334 124 334 174C334 228 302 257 228 271L185 279C125 290 106 307 106 348C106 401 151 442 208 442C249 442 287 424 303 397L303 342L326 342C330 377 334 404 345 455C306 474 278 482 245 482C193 482 132 452 84 404C58 377 47 352 47 316C47 260 78 228 144 215L207 203C251 195 267 177 267 138C267 73 221 29 150 29C115 29 84 40 56 64L56 148ZM513 390L457 107C456 99 444 61 444 31C444 6 455 -9 474 -9C509 -9 544 11 622 74L653 99L643 117L598 86C569 66 549 56 538 56C529 56 524 64 524 76C524 102 538 183 567 328L580 390L687 390L698 440C660 436 626 434 588 434C604 528 615 577 633 631L622 646C602 634 575 622 544 610L519 440C475 419 449 408 431 403L429 390ZM1088 365C1091 403 1096 435 1104 476C1093 481 1089 482 1084 482C1053 482 1022 458 986 407C947 351 908 291 892 256L924 408C928 425 930 438 930 450C930 470 922 482 907 482C886 482 848 461 774 408L746 388L753 368L785 389C813 407 824 412 833 412C843 412 850 403 850 390C850 332 807 126 767 -2L777 -9C792 -4 808 -1 831 4L844 6L870 126C888 209 911 262 955 319C989 363 1016 384 1038 384C1053 384 1063 379 1074 365ZM1142 388L1149 368L1181 389C1218 412 1221 414 1228 414C1238 414 1246 404 1246 391C1246 384 1242 361 1238 347L1172 107C1164 76 1159 49 1159 30C1159 6 1170 -9 1189 -9C1215 -9 1251 12 1349 85L1339 103L1313 86C1284 67 1261 56 1252 56C1245 56 1239 66 1239 76C1239 86 1241 95 1246 116L1323 420C1327 437 1329 448 1329 456C1329 473 1320 482 1304 482C1282 482 1245 461 1170 408ZM1336 712C1307 712 1278 679 1278 645C1278 620 1293 604 1317 604C1348 604 1372 633 1372 671C1372 695 1357 712 1336 712ZM1409 388L1416 368L1448 389C1485 412 1488 414 1495 414C1506 414 1513 404 1513 389C1513 338 1472 145 1431 2L1438 -9C1463 -2 1486 4 1508 8C1527 134 1548 199 1594 268C1648 352 1723 414 1768 414C1779 414 1785 405 1785 390C1785 372 1782 351 1774 319L1722 107C1713 70 1709 47 1709 31C1709 6 1720 -9 1739 -9C1765 -9 1801 12 1899 85L1889 103L1863 86C1834 67 1812 56 1802 56C1795 56 1789 65 1789 76C1789 81 1790 92 1791 96L1857 372C1864 401 1868 429 1868 446C1868 469 1857 482 1837 482C1795 482 1726 444 1667 389C1629 354 1601 320 1549 247L1587 408C1591 426 1593 438 1593 449C1593 470 1585 482 1570 482C1549 482 1510 460 1437 408ZM2215 482C2148 482 1995 419 1995 259C1995 182 2040 136 2117 136C2125 136 2136 136 2147 137L2106 99C2090 84 2079 66 2079 52C2079 42 2086 31 2100 19C2031 -4 1903 -48 1903 -159C1903 -230 1973 -276 2082 -276C2211 -276 2324 -204 2324 -121C2324 -85 2303 -49 2260 -14L2200 35C2166 62 2153 81 2153 100C2153 114 2168 128 2180 146C2278 170 2349 253 2349 342C2349 357 2346 376 2345 380C2362 378 2370 378 2379 378C2396 378 2406 379 2429 382L2438 427L2435 433C2407 426 2387 424 2333 424C2333 425 2309 482 2215 482ZM2116 1L2193 -58C2239 -94 2258 -121 2258 -154C2258 -206 2189 -248 2106 -248C2024 -248 1967 -206 1967 -145C1967 -43 2077 -11 2116 1ZM2190 448C2248 448 2277 412 2277 341C2277 238 2229 168 2159 168C2098 168 2066 209 2066 288C2066 383 2117 448 2190 448Z" stroke="rgb(153,0,0)" stroke-opacity="1" stroke-width="8" fill="rgb(153,0,0)" fill-opacity="1"></path></g></g></g></g></g></g></g><g><g><g><g><g><g><g transform="matrix(1,0,0,1,109,31.199996948242188)"><path transform="matrix(0.017,0,0,-0.017,0,0)" d="M390 646L463 646C541 646 577 641 580 629C583 621 585 602 584 592L580 528L608 528L635 692L544 691C456 690 388 689 353 689C316 689 252 690 166 691L71 692L53 528L82 528L97 588C102 610 109 626 115 633C121 640 159 646 196 646L308 646L222 125C206 34 204 31 164 28L113 25L109 -3L166 -2C206 -1 235 0 251 0C270 0 301 -1 340 -2L384 -3L387 25L328 28C302 29 292 37 292 58C292 67 293 74 296 93Z" stroke="rgb(153,0,0)" stroke-opacity="1" stroke-width="8" fill="rgb(153,0,0)" fill-opacity="1"></path></g></g></g></g><svg x="109" overflow="visible" y="8.199996948242188" height="10" width="11.225000381469727"><path d=" M 11.23 4.85 l -3.15 -3.32 l -0.49 0.52 l 1.93 2.33 h -0.15 v 0.90 h 0.15 l -1.93 2.33 l 0.49 0.52 z  M 1.68 5.23 h 9.08 v -0.90 h -9.08 z" style="fill:rgb(153,0,0);fill-opacity:1;stroke-width:1px;stroke:none;stroke-opacity:1;"></path></svg></g><g><g><g><g><g transform="matrix(1,0,0,1,119.875,36.9)"><path transform="matrix(0.0119,0,0,-0.0119,0,0)" d="M342 330L365 330C373 395 380 432 389 458C365 473 330 482 293 482C248 483 175 463 118 400C64 352 25 241 25 136C25 40 67 -11 147 -11C201 -11 249 9 304 54L354 95L346 115L331 105C259 57 221 40 186 40C130 40 101 80 101 159C101 267 136 371 185 409C206 425 230 433 261 433C306 433 342 414 342 390ZM734 111L710 94C657 56 609 36 573 36C526 36 497 73 497 133C497 158 500 185 505 214C522 218 631 248 656 259C741 296 780 342 780 404C780 451 746 482 696 482C628 496 518 423 481 349C451 299 421 180 421 113C421 35 465 -11 537 -11C594 -11 650 17 742 92ZM519 274C536 343 556 386 585 412C603 428 634 440 658 440C687 440 706 420 706 388C706 344 671 297 619 272C591 258 555 247 510 237ZM828 388L835 368L867 389C904 412 907 414 914 414C924 414 932 404 932 391C932 384 928 361 924 347L858 107C850 76 845 49 845 30C845 6 856 -9 875 -9C901 -9 937 12 1035 85L1025 103L999 86C970 67 947 56 938 56C931 56 925 66 925 76C925 86 927 95 932 116L1009 420C1013 437 1015 448 1015 456C1015 473 1006 482 990 482C968 482 931 461 856 408ZM1022 712C993 712 964 679 964 645C964 620 979 604 1003 604C1034 604 1058 633 1058 671C1058 695 1043 712 1022 712ZM1322 722L1310 733C1258 707 1222 698 1150 691L1146 670L1194 670C1218 670 1228 663 1228 648C1228 645 1228 640 1225 622C1214 567 1141 182 1126 132C1113 82 1107 52 1107 31C1107 6 1118 -9 1137 -9C1163 -9 1199 12 1297 85L1287 103L1261 86C1232 67 1210 56 1200 56C1193 56 1187 66 1187 76C1187 82 1188 89 1191 104ZM1382 388L1389 368L1421 389C1458 412 1461 414 1468 414C1478 414 1486 404 1486 391C1486 384 1482 361 1478 347L1412 107C1404 76 1399 49 1399 30C1399 6 1410 -9 1429 -9C1455 -9 1491 12 1589 85L1579 103L1553 86C1524 67 1501 56 1492 56C1485 56 1479 66 1479 76C1479 86 1481 95 1486 116L1563 420C1567 437 1569 448 1569 456C1569 473 1560 482 1544 482C1522 482 1485 461 1410 408ZM1576 712C1547 712 1518 679 1518 645C1518 620 1533 604 1557 604C1588 604 1612 633 1612 671C1612 695 1597 712 1576 712ZM1649 388L1656 368L1688 389C1725 412 1728 414 1735 414C1746 414 1753 404 1753 389C1753 338 1712 145 1671 2L1678 -9C1703 -2 1726 4 1748 8C1767 134 1788 199 1834 268C1888 352 1963 414 2008 414C2019 414 2025 405 2025 390C2025 372 2022 351 2014 319L1962 107C1953 70 1949 47 1949 31C1949 6 1960 -9 1979 -9C2005 -9 2041 12 2139 85L2129 103L2103 86C2074 67 2052 56 2042 56C2035 56 2029 65 2029 76C2029 81 2030 92 2031 96L2097 372C2104 401 2108 429 2108 446C2108 469 2097 482 2077 482C2035 482 1966 444 1907 389C1869 354 1841 320 1789 247L1827 408C1831 426 1833 438 1833 449C1833 470 1825 482 1810 482C1789 482 1750 460 1677 408ZM2455 482C2388 482 2235 419 2235 259C2235 182 2280 136 2357 136C2365 136 2376 136 2387 137L2346 99C2330 84 2319 66 2319 52C2319 42 2326 31 2340 19C2271 -4 2143 -48 2143 -159C2143 -230 2213 -276 2322 -276C2451 -276 2564 -204 2564 -121C2564 -85 2543 -49 2500 -14L2440 35C2406 62 2393 81 2393 100C2393 114 2408 128 2420 146C2518 170 2589 253 2589 342C2589 357 2586 376 2585 380C2602 378 2610 378 2619 378C2636 378 2646 379 2669 382L2678 427L2675 433C2647 426 2627 424 2573 424C2573 425 2549 482 2455 482ZM2356 1L2433 -58C2479 -94 2498 -121 2498 -154C2498 -206 2429 -248 2346 -248C2264 -248 2207 -206 2207 -145C2207 -43 2317 -11 2356 1ZM2430 448C2488 448 2517 412 2517 341C2517 238 2469 168 2399 168C2338 168 2306 209 2306 288C2306 383 2357 448 2430 448Z" stroke="rgb(153,0,0)" stroke-opacity="1" stroke-width="8" fill="rgb(153,0,0)" fill-opacity="1"></path></g></g></g></g></g></g></g></svg>
</svg>
