<svg xmlns="http://www.w3.org/2000/svg" xmlns:xlink="http://www.w3.org/1999/xlink" x="0" y="0" width="161.60000610351562" height="129.9375" style="
        width:161.60000610351562px;
        height:129.9375px;
        background: transparent;
        fill: none;
">
        <svg xmlns="http://www.w3.org/2000/svg"/>
        
        <svg xmlns="http://www.w3.org/2000/svg" class="role-diagram-draw-area"><g class="shapes-region" style="stroke: black; fill: none;"><g class="arrow-line"><path class="connection real" stroke-dasharray="" d="  M-18.08,109.35 L168.68,-21.43" style="stroke: rgb(0, 0, 0); stroke-width: 1; fill: none; fill-opacity: 1;"/></g><g class="composite-shape"><path class="real" d=" M94.5,42.33 C94.5,39.07 97.14,36.43 100.4,36.43 L132.6,36.43 C135.86,36.43 138.5,39.07 138.5,42.33 L138.5,60.04 C138.5,63.3 135.86,65.94 132.6,65.94 L100.4,65.94 C97.14,65.94 94.5,63.3 94.5,60.04 Z" style="stroke-width: 1; stroke: rgb(153, 0, 0); stroke-opacity: 1; fill: rgb(153, 0, 0); fill-opacity: 0.5;"/></g><g class="composite-shape"><path class="real" d=" M113.71,15.44 C113.71,13.97 114.9,12.78 116.37,12.78 C117.84,12.78 119.03,13.97 119.03,15.44 C119.03,16.9 117.84,18.09 116.37,18.09 C114.9,18.09 113.71,16.9 113.71,15.44 Z" style="stroke-width: 1; stroke: rgb(0, 0, 0); fill: rgb(24, 15, 15); fill-opacity: 0.5;"/></g><g class="arrow-line"><path class="connection real" stroke-dasharray="" d="  M116.37,18.09 L116.37,36.24" style="stroke: rgb(0, 0, 0); stroke-width: 1; fill: none; fill-opacity: 1;"/></g><g class="composite-shape"><path class="real" d=" M21.64,93.19 C21.64,89.93 24.29,87.29 27.55,87.29 L59.74,87.29 C63,87.29 65.64,89.93 65.64,93.19 L65.64,110.9 C65.64,114.16 63,116.8 59.74,116.8 L27.55,116.8 C24.29,116.8 21.64,114.16 21.64,110.9 Z" style="stroke-width: 1; stroke: rgb(153, 0, 0); stroke-opacity: 1; fill: rgb(153, 0, 0); fill-opacity: 0.5;"/></g><g class="composite-shape"><path class="real" d=" M40.86,66.29 C40.86,64.83 42.05,63.64 43.51,63.64 C44.98,63.64 46.17,64.83 46.17,66.29 C46.17,67.76 44.98,68.95 43.51,68.95 C42.05,68.95 40.86,67.76 40.86,66.29 Z" style="stroke-width: 1; stroke: rgb(0, 0, 0); fill: rgb(24, 15, 15); fill-opacity: 0.5;"/></g><g class="arrow-line"><path class="connection real" stroke-dasharray="" d="  M43.51,68.95 L43.51,87.09" style="stroke: rgb(0, 0, 0); stroke-width: 1; fill: none; fill-opacity: 1;"/></g><g class="arrow-line"><path class="connection real" stroke-dasharray="3" d="  M46.17,66.29 L74.17,66.29" style="stroke: rgb(0, 0, 0); stroke-width: 1; fill: none; fill-opacity: 1;"/></g><g class="composite-shape"><path class="real" d=" M51.92,60.41 C53.09,62.07 53.77,64.1 53.77,66.29 L43.51,66.29 Z" style="stroke-width: 1; stroke: none; stroke-opacity: 1; fill: none; fill-opacity: 1;"/><path class="real" d=" M51.92,60.41 C53.09,62.07 53.77,64.1 53.77,66.29" style="stroke-width: 1; stroke: rgb(153, 0, 0); stroke-opacity: 1; fill: none; fill-opacity: 1;"/></g><g/></g><g/><g/><g/></svg>
        <svg xmlns="http://www.w3.org/2000/svg" xmlns:xlink="http://www.w3.org/1999/xlink" width="160" height="128.33750915527344" style="width:160px;height:128.33750915527344px;font-family:Asana-Math, Asana;background:transparent;"><g><g><g><g transform="matrix(1,0,0,1,64.51251220703125,62.624993896484376)"><path transform="matrix(0.0136,0,0,-0.0136,0,0)" d="M462 224C462 345 355 366 308 374C388 436 418 482 418 541C418 630 344 689 233 689C165 689 120 670 72 622L43 498L74 498L92 554C103 588 166 622 218 622C283 622 336 569 336 506C336 431 277 368 206 368C198 368 187 369 174 370L159 371L147 318L154 312C192 329 211 334 238 334C321 334 369 281 369 190C369 88 308 21 215 21C169 21 128 36 98 64C74 86 61 109 42 163L15 153C36 92 44 56 50 6C103 -12 147 -20 184 -20C307 -20 462 87 462 224ZM958 253C958 366 877 446 763 446C715 446 679 443 626 396L626 605L931 604L931 689L574 690L574 322L594 316C641 363 668 377 717 377C813 377 873 309 873 201C873 90 809 25 700 25C646 25 596 43 582 69L536 151L512 137C535 80 547 48 561 4C589 -11 629 -20 672 -20C800 -20 958 89 958 253ZM1197 689C1115 689 1048 622 1048 539C1048 456 1115 389 1198 389C1279 389 1348 457 1348 537C1348 621 1281 689 1197 689ZM1197 649C1258 649 1308 599 1308 537C1308 479 1258 429 1198 429C1137 429 1088 478 1088 539C1088 600 1137 649 1197 649Z" stroke="rgb(153,0,0)" stroke-opacity="1" stroke-width="8" fill="rgb(153,0,0)" fill-opacity="1"></path></g></g></g></g></svg>
</svg>
