<svg xmlns="http://www.w3.org/2000/svg" width="161.6" height="196.125" style="width:161.60000610351562px;height:196.125px;background:0 0;fill:none"><svg xmlns="http://www.w3.org/2000/svg"/><svg xmlns="http://www.w3.org/2000/svg" class="role-diagram-draw-area"><g class="shapes-region" style="stroke:#000;fill:none"><g class="arrow-line"><path stroke-dasharray="3" d="M35.38 24.16v66.27" class="connection real" style="stroke:#000;stroke-width:1;fill:none;fill-opacity:1"/></g><g class="composite-shape"><defs><pattern id="_pgfpqjjgk48f" width="11.314" height="11.314" x="0" y="0" patternTransform="rotate(45 0 0)" patternUnits="userSpaceOnUse"><path d="M0 0v11.314M5.657 0v11.314M11.314 0v11.314" style="stroke:#eee;stroke-opacity:1;stroke-width:1;fill:none"/></pattern></defs><path d="M120.8 104.13h93v9.67h-93Z" class="real" style="stroke-width:1;stroke:#000;fill:url(#_pgfpqjjgk48f);fill-opacity:1"/></g><g class="composite-shape"><path d="M141.45 51.22a8.8 8.8 0 0 0-17.6 0c0 4.86 3.94 8.79 8.8 8.79s8.8-3.93 8.8-8.79Z" class="real" style="stroke-width:1;stroke:#900;stroke-opacity:1;fill:none;fill-opacity:1"/></g><g class="arrow-line"><path d="M132.65 60.01v30.73" class="connection real" style="stroke:#900;stroke-opacity:1;stroke-width:1;fill:none;fill-opacity:1"/></g><g class="arrow-line"><path d="m132.9 90.49-1.37 13.61" class="connection real" style="stroke:#900;stroke-opacity:1;stroke-width:1;fill:none;fill-opacity:1"/></g><g class="arrow-line"><path d="m132.9 90.49-.25.25-11.85 13.39" class="connection real" style="stroke:#900;stroke-opacity:1;stroke-width:1;fill:none;fill-opacity:1"/></g><g class="arrow-line"><path d="m132.65 60.01-10.2 15.84" class="connection real" style="stroke:#900;stroke-opacity:1;stroke-width:1;fill:none;fill-opacity:1"/></g><g class="arrow-line"><path d="m132.65 60.01-11.14 14.42" class="connection real" style="stroke:#900;stroke-opacity:1;stroke-width:1;fill:none;fill-opacity:1"/></g><g class="arrow-line"><path d="m52.53 88.18 69.92-12.33" class="connection real" style="stroke:#000;stroke-width:1;fill:none;fill-opacity:1"/></g><g class="arrow-line"><path d="M52.53 88.18 18.23-39.85" class="connection real" style="stroke:#000;stroke-width:1;fill:none;fill-opacity:1"/></g><g class="composite-shape"><path d="M61.45 101.62a8.8 8.8 0 0 0-17.6 0c0 4.86 3.94 8.79 8.8 8.79s8.8-3.93 8.8-8.79Z" class="real" style="stroke-width:1;stroke:#000;stroke-opacity:1;fill:none;fill-opacity:1"/></g><g class="arrow-line"><path d="M52.65 110.41v30.73" class="connection real" style="stroke:#000;stroke-opacity:1;stroke-width:1;fill:none;fill-opacity:1"/></g><g class="arrow-line"><path d="m52.65 141.14 4.03 15.09" class="connection real" style="stroke:#000;stroke-opacity:1;stroke-width:1;fill:none;fill-opacity:1"/></g><g class="arrow-line"><path d="m52.65 141.14-.25.25-4.55 13.66" class="connection real" style="stroke:#000;stroke-opacity:1;stroke-width:1;fill:none;fill-opacity:1"/></g><g class="arrow-line"><path d="m52.65 110.41 2.03-22.98" class="connection real" style="stroke:#000;stroke-opacity:1;stroke-width:1;fill:none;fill-opacity:1"/></g><g class="arrow-line"><path d="m52.65 110.41-1.97-25.38" class="connection real" style="stroke:#000;stroke-opacity:1;stroke-width:1;fill:none;fill-opacity:1"/></g><g class="arrow-line"><path d="m52.53 88.18 32.01-5.65" class="connection real" style="stroke:#900;stroke-opacity:1;stroke-width:1;fill:none;fill-opacity:1"/><path fill="#900" stroke="none" d="M10.72-5.15 0 0l10.72 5.15L7.12 0Z" style="stroke:none;fill:#900;stroke-width:1" transform="rotate(170 40.16 44.834)"/></g><g class="arrow-line"><path d="M52.53 88.18 36.16 27.06" class="connection real" style="stroke:#900;stroke-opacity:1;stroke-width:1;fill:none;fill-opacity:1"/><path fill="#900" stroke="none" d="M10.72-5.15 0 0l10.72 5.15L7.12 0Z" style="stroke:none;fill:#900;stroke-width:1" transform="rotate(75 1.946 35.135)"/></g><g class="arrow-line"><path d="M52.32 147.44v37.99" class="connection real" style="stroke:#900;stroke-opacity:1;stroke-width:1;fill:none;fill-opacity:1"/><path fill="#900" stroke="none" d="M10.72-5.15 0 0l10.72 5.15L7.12 0Z" style="stroke:none;fill:#900;stroke-width:1" transform="rotate(-90 120.376 68.058)"/></g><g class="arrow-line"><path stroke-dasharray="3" d="M52.53 88.18h61.67" class="connection real" style="stroke:#000;stroke-width:1;fill:none;fill-opacity:1"/></g><g class="composite-shape"><path stroke="none" d="M92.59 81.11c.4 2.3.61 4.66.61 7.07H52.53Z" class="real" style="stroke-width:1;stroke:none;stroke-opacity:1;fill:none;fill-opacity:1"/><path d="M92.59 81.11c.4 2.3.61 4.66.61 7.07" class="real" style="stroke-width:1;stroke:#900;stroke-opacity:1;fill:none;fill-opacity:1"/></g><g class="composite-shape"><path stroke="none" d="M45.91 63.45c-3.36.9-6.89 1.38-10.53 1.38V24.16Z" class="real" style="stroke-width:1;stroke:none;stroke-opacity:1;fill:none;fill-opacity:1"/><path d="M45.91 63.45c-3.36.9-6.89 1.38-10.53 1.38" class="real" style="stroke-width:1;stroke:#900;stroke-opacity:1;fill:none;fill-opacity:1"/></g><g class="arrow-line"><path d="M13.53 67.43c12.29 25.55 18.3 17.22 26.26-.65" class="connection real" style="stroke:#900;stroke-opacity:1;stroke-width:1;fill:none;fill-opacity:1"/><path stroke="#900" d="M10.93-3.29Q4.96-.45 0 0q4.96.45 10.93 3.29" style="stroke:#900;stroke-width:1" transform="rotate(113.68 -1.001 45.792)"/></g></g></svg><svg xmlns="http://www.w3.org/2000/svg" xmlns:xlink="http://www.w3.org/1999/xlink" width="160" height="194.525" style="width:160px;height:194.52500915527344px;font-family:Asana-Math,Asana;background:0 0"><path fill="#900" stroke="#900" stroke-width=".109" d="M81.767 61.214h.992c1.061 0 1.55.068 1.592.232.04.108.068.367.054.503l-.054.87h.38l.368-2.23-1.238.013c-1.197.014-2.122.028-2.598.028-.503 0-1.373-.014-2.543-.028l-1.292-.013-.245 2.23h.395l.204-.816c.068-.299.163-.517.245-.612s.598-.177 1.101-.177h1.523l-1.17 7.086c-.217 1.238-.244 1.278-.788 1.32l-.694.04-.054.38.775-.013c.544-.013.939-.027 1.156-.027.259 0 .68.014 1.21.027l.599.014.04-.381-.802-.04c-.353-.014-.49-.123-.49-.409 0-.122.014-.217.055-.476Z"/><svg width="8.975" height="8" x="76.463" y="52.4" overflow="visible"><path d="M8.98 3.88 6.46 1.22l-.39.42L7.61 3.5h-.12v.72h.12L6.07 6.08l.39.42zm-7.63.31h7.26v-.72H1.35z" style="fill:#900;fill-opacity:1;stroke-width:1px;stroke:none;stroke-opacity:1"/></svg><path fill="#900" stroke="#900" stroke-width=".076" d="m86.162 68.711.533.02c.229.009.333.085.333.256 0 .134-.038.438-.085.724l-.714 4.131c-.153.867-.172.886-.552.924l-.39.028-.039.267.4-.01c.447-.019.628-.019.857-.019l.923.03h.248l.028-.268-.466-.028c-.257-.02-.343-.095-.343-.286 0-.085.01-.171.038-.333l.962-5.283c.276-.058.466-.077.723-.077.829 0 1.266.372 1.266 1.076 0 .905-.742 1.57-1.732 1.57h-.42l-.028.106c1.276 1.856 1.571 2.313 2.285 3.522l.81-.029c.009 0 .142.01.323.03h.124v-.258c-.381-.048-.486-.124-.762-.524l-1.751-2.618c.523-.095.8-.209 1.142-.457.552-.4.847-.923.847-1.504 0-.818-.61-1.266-1.666-1.247h-2.865Z"/><path fill="#900" stroke="#900" stroke-width=".109" d="M50.767 26.214h.992c1.061 0 1.55.068 1.592.232.04.108.068.367.054.503l-.054.87h.38l.368-2.23-1.238.013c-1.197.014-2.122.028-2.598.028-.503 0-1.373-.014-2.543-.028l-1.292-.013-.245 2.23h.395l.204-.816c.068-.299.163-.517.245-.612s.598-.177 1.101-.177h1.523l-1.17 7.086c-.217 1.238-.244 1.278-.788 1.32l-.694.04-.054.38.775-.013c.544-.013.939-.027 1.156-.027.259 0 .68.014 1.21.027l.599.014.04-.381-.802-.04c-.353-.014-.49-.123-.49-.409 0-.122.014-.217.055-.476Z"/><svg width="8.975" height="8" x="45.463" y="17.4" overflow="visible"><path d="M8.98 3.88 6.46 1.22l-.39.42L7.61 3.5h-.12v.72h.12L6.07 6.08l.39.42zm-7.63.31h7.26v-.72H1.35z" style="fill:#900;fill-opacity:1;stroke-width:1px;stroke:none;stroke-opacity:1"/></svg><path fill="#900" stroke="#900" stroke-width=".076" d="m57.485 33.711.029-.266-1.086.028c-.152 0-.323 0-.733-.01l-.609-.018-.029.266.448.02c.228.009.333.085.333.256l-.904 5.522c-.038.171-.153.238-.572.305l-.047.247.39-.01c.295-.009.886-.019 1.076-.019l2.827.01.315-.01c-.01-.238.095-.98.218-1.57h-.295l-.161.59c-.086.305-.172.466-.258.514-.123.048-.733.095-1.37.095-.467 0-.724-.01-1.352-.066.028-.172.895-5.322.895-5.398.066-.362.133-.429.485-.457Z"/><path fill="#900" stroke="#900" stroke-width=".109" d="M64.734 185.95c.285 0 .462-.013.802-.054-.748 1.006-2.094 2.149-2.094 4.053 0 1.115.476 1.863 1.197 1.863.87 0 1.577-.748 2.584-2.693-.123.599-.164.939-.164 1.251 0 .857.395 1.442 1.007 1.442 1.822 0 3.903-3.386 3.903-5.372 0-.775-.354-1.333-.843-1.333a.63.63 0 0 0-.45.163l-.68.64.15.258a.66.66 0 0 1 .368-.122c.367 0 .585.312.585.856 0 1.972-1.32 4.23-2.476 4.23-.394 0-.68-.544-.68-1.292 0-.64.123-1.537.286-2.122l.707-2.502-.095-.109-1.006.3-.395 2.026c-.163.843-.353 1.387-.748 2.121-.544 1.02-1.06 1.578-1.469 1.578-.476 0-.788-.53-.788-1.32 0-1.618.557-2.937 1.904-4.46l-.136-.245c-.272.123-.45.163-.83.163s-.952-.027-1.346-.068l-.164-.013c-.081-.014-.15-.014-.163-.014a1 1 0 0 0-.435.095c-.19.368-.34.857-.517 1.605h.3l.23-.57c.096-.232.368-.382.694-.382.463 0 .231.027.762.027Z"/><svg width="10.488" height="8" x="62.463" y="177.062" overflow="visible"><path d="M10.49 3.88 7.97 1.22l-.39.42L9.12 3.5H9v.72h.12L7.58 6.08l.39.42zm-9.14.31h8.77v-.72H1.35z" style="fill:#900;fill-opacity:1;stroke-width:1px;stroke:none;stroke-opacity:1"/></svg><path fill="#900" stroke="#900" stroke-width=".068" d="M108.353 86.125v-.255l-.442-.025c-.468-.026-.553-.119-.553-.561V80.15l-2.048.867.06.425 1.274-.561v4.403c0 .442-.093.535-.552.561l-.476.025v.255c1.309-.025 1.309-.025 1.402-.025.264 0 1.199.025 1.335.025Zm2.924-5.882c-1.318 0-1.989 1.046-1.989 3.103 0 .994.178 1.853.476 2.27.297.416.773.654 1.3.654 1.284 0 1.93-1.105 1.93-3.281 0-1.862-.553-2.746-1.717-2.746Zm-.153.298c.824 0 1.156.833 1.156 2.873 0 1.81-.323 2.558-1.105 2.558-.825 0-1.173-.858-1.173-2.932 0-1.794.314-2.499 1.122-2.499Zm3.85-.298c-.697 0-1.266.57-1.266 1.275 0 .706.57 1.275 1.275 1.275.688 0 1.275-.578 1.275-1.258 0-.714-.57-1.292-1.284-1.292Zm0 .34c.519 0 .944.425.944.952a.94.94 0 0 1-.935.918.93.93 0 0 1-.935-.935.93.93 0 0 1 .926-.935ZM10.016 65.125v-.255l-.442-.025c-.468-.026-.553-.119-.553-.561V59.15l-2.048.867.059.425 1.275-.561v4.403c0 .442-.093.535-.552.561l-.476.025v.255C8.588 65.1 8.588 65.1 8.68 65.1c.264 0 1.199.025 1.335.025Zm4.59-2.176c0-.96-.689-1.64-1.658-1.64-.408 0-.714.025-1.164.425v-1.777l2.592.009v-.723l-3.034-.008v3.128l.17.051c.399-.4.629-.519 1.045-.519.816 0 1.326.578 1.326 1.496 0 .944-.544 1.496-1.47 1.496-.46 0-.884-.153-1.003-.374l-.391-.697-.204.12c.195.484.297.756.416 1.13.238.127.578.204.944.204 1.088 0 2.43-.927 2.43-2.32Zm2.031-3.706c-.697 0-1.266.57-1.266 1.275 0 .706.569 1.275 1.275 1.275.688 0 1.275-.578 1.275-1.258 0-.714-.57-1.292-1.284-1.292Zm0 .34c.519 0 .944.425.944.952a.94.94 0 0 1-.935.918.93.93 0 0 1-.935-.935.93.93 0 0 1 .926-.935Z"/></svg></svg>