<svg xmlns="http://www.w3.org/2000/svg" width="161.6" height="156.525" style="width:161.60000610351562px;height:156.52500915527344px;background:0 0;fill:none"><svg xmlns="http://www.w3.org/2000/svg"/><svg xmlns="http://www.w3.org/2000/svg" class="role-diagram-draw-area"><g class="shapes-region" style="stroke:#000;fill:none"><g class="composite-shape"><defs><pattern id="_pgfb07ttj9zp" width="11.314" height="11.314" x="0" y="0" patternTransform="rotate(45 0 0)" patternUnits="userSpaceOnUse"><path d="M0 0v11.314M5.657 0v11.314M11.314 0v11.314" style="stroke:#eee;stroke-opacity:1;stroke-width:1;fill:none"/></pattern></defs><path d="M-60.53-6.53h93v205.87h-93Z" class="real" style="stroke-width:1;stroke:#000;fill:url(#_pgfb07ttj9zp);fill-opacity:1"/></g><g class="composite-shape"><path d="M89.95 52.61c2.16-7.67-2.3-15.64-9.97-17.8s-15.64 2.3-17.8 9.97 2.3 15.64 9.97 17.8 15.64-2.3 17.8-9.97Z" class="real" style="stroke-width:1;stroke:#000;stroke-opacity:1;fill:none;fill-opacity:1"/></g><g class="arrow-line"><path d="M71.76 62.34 54.78 107.8" class="connection real" style="stroke:#000;stroke-opacity:1;stroke-width:1;fill:none;fill-opacity:1"/></g><g class="arrow-line"><path d="M55.09 107.26 32.4 119.74" class="connection real" style="stroke:#000;stroke-opacity:1;stroke-width:1;fill:none;fill-opacity:1"/></g><g class="arrow-line"><path d="m55.09 107.26-.41.41-22.06 7.32" class="connection real" style="stroke:#000;stroke-opacity:1;stroke-width:1;fill:none;fill-opacity:1"/></g><g class="arrow-line"><path d="m72.15 62.58 8.22 14.93" class="connection real" style="stroke:#000;stroke-opacity:1;stroke-width:1;fill:none;fill-opacity:1"/></g><g class="arrow-line"><path d="m72.15 62.58-1.21 19.44" class="connection real" style="stroke:#000;stroke-opacity:1;stroke-width:1;fill:none;fill-opacity:1"/></g><g class="arrow-line"><path d="m32.4 34.05 30.87 51.02" class="connection real" style="stroke:#000;stroke-width:1;fill:none;fill-opacity:1"/></g><g class="arrow-line"><path d="M85.34 105.55 32.4 119.74" class="connection real" style="stroke:#900;stroke-opacity:1;stroke-width:1;fill:none;fill-opacity:1"/><path fill="#900" stroke="none" d="M10.72-5.15 0 0l10.72 5.15L7.12 0Z" style="stroke:none;fill:#900;stroke-width:1" transform="rotate(165 37.22 58.196)"/></g><g class="arrow-line"><path d="m49.39 62.13 13.88 22.94" class="connection real" style="stroke:#900;stroke-opacity:1;stroke-width:1;fill:none;fill-opacity:1"/><path fill="#900" stroke="none" d="M10.72-5.15 0 0l10.72 5.15L7.12 0Z" style="stroke:none;fill:#900;stroke-width:1" transform="rotate(58.82 -28.913 72.21)"/></g><g class="arrow-line"><path stroke-dasharray="3" d="M32.4 119.74h106.24" class="connection real" style="stroke:#000;stroke-width:1;fill:none;fill-opacity:1"/></g><g class="composite-shape"><path stroke="none" d="M56.55 113.26c.56 2.07.85 4.24.85 6.48h-25Z" class="real" style="stroke-width:1;stroke:none;fill:none;fill-opacity:1"/><path d="M56.55 113.26c.56 2.07.85 4.24.85 6.48" class="real" style="stroke-width:1;stroke:#000;fill:none;fill-opacity:1"/></g><g class="composite-shape"><path stroke="none" d="M40.13 50.92a14.93 14.93 0 0 1-7.73 2.14V38.05Z" class="real" style="stroke-width:1;stroke:none;stroke-opacity:1;fill:none;fill-opacity:1"/><path d="M40.13 50.92a14.93 14.93 0 0 1-7.73 2.14" class="real" style="stroke-width:1;stroke:#900;stroke-opacity:1;fill:none;fill-opacity:1"/></g></g></svg><svg xmlns="http://www.w3.org/2000/svg" xmlns:xlink="http://www.w3.org/1999/xlink" width="160" height="154.925" style="width:160px;height:154.9250030517578px;font-family:Asana-Math,Asana;background:#fff"><path fill="#900" stroke="#900" stroke-width=".136" d="m96.012 104.168 1.802-.068c1.054 0 1.734.153 1.751.408l.136 1.513h.408c.051-1.071.17-1.938.357-2.584-.374-.034-.85-.051-1.139-.051l-.697.017-2.805.034h-.493c-.425 0-1.105-.017-1.751-.034l-.833-.017-.051.476.952.034c.408.017.595.17.595.459 0 .238-.068.782-.153 1.292l-1.275 7.378c-.289 1.564-.289 1.581-.986 1.649l-.612.051-.068.476.578-.017c.68-.017 1.224-.034 1.581-.034.306 0 .799.017 1.462.034l.884.017.051-.476-1.088-.051c-.459-.017-.612-.153-.612-.493 0-.102.017-.289.034-.357l.612-3.791h1.989c.459 0 .986.017 1.802.051l.442.017.323-.765-.068-.119a70 70 0 0 1-3.723.102h-.629l.782-4.607c.051-.272.068-.357.153-.544Z"/><svg width="10.288" height="10" x="91.15" y="92.15" overflow="visible"><path d="M10.29 4.85 7.14 1.53l-.49.52 1.93 2.33h-.15v.9h.15L6.65 7.61l.49.52zm-8.61.38h8.15v-.9H1.68z" style="fill:#900;fill-opacity:1;stroke-width:1px;stroke:none;stroke-opacity:1"/></svg><path fill="#900" stroke="#900" stroke-width=".136" d="M52.443 42.268h1.24c1.327 0 1.938.085 1.99.289.05.136.084.459.067.629l-.068 1.088h.477l.459-2.788-1.547.017c-1.496.017-2.652.034-3.248.034-.629 0-1.717-.017-3.178-.034l-1.615-.017-.306 2.788h.492l.255-1.02c.086-.374.205-.646.306-.765s.749-.221 1.377-.221h1.905l-1.462 8.857c-.273 1.547-.306 1.598-.987 1.649l-.867.051-.067.476.969-.017c.68-.017 1.172-.034 1.445-.034.323 0 .85.017 1.513.034l.747.017.051-.476-1.002-.051c-.443-.017-.613-.153-.613-.51 0-.153.017-.272.068-.595Z"/><svg width="11.225" height="10" x="45.813" y="30.25" overflow="visible"><path d="M11.23 4.85 8.08 1.53l-.49.52 1.93 2.33h-.15v.9h.15L7.59 7.61l.49.52zm-9.55.38h9.08v-.9H1.68z" style="fill:#900;fill-opacity:1;stroke-width:1px;stroke:none;stroke-opacity:1"/></svg><path fill="#900" stroke="#900" stroke-width=".068" d="M37.127 58.721c0-1.028-.91-1.207-1.309-1.275.68-.527.935-.918.935-1.42 0-.756-.629-1.258-1.572-1.258-.578 0-.961.162-1.369.57l-.246 1.054h.263l.153-.476c.094-.289.629-.578 1.071-.578a1 1 0 0 1 1.003.986c0 .638-.501 1.173-1.105 1.173q-.104-.002-.272-.017l-.127-.008-.102.45.059.051c.323-.145.485-.187.714-.187.706 0 1.114.45 1.114 1.224 0 .867-.519 1.437-1.31 1.437-.39 0-.739-.128-.994-.366-.204-.187-.314-.383-.476-.842l-.23.086c.179.518.247.824.298 1.249.45.153.825.221 1.139.221 1.046 0 2.363-.91 2.363-2.074Zm3.868 1.93v-.256l-.442-.025c-.468-.026-.553-.119-.553-.561v-5.134l-2.048.867.059.425 1.275-.561v4.403c0 .442-.093.535-.552.561l-.476.026v.255c1.309-.026 1.309-.026 1.402-.026.264 0 1.199.026 1.335.026Zm2.38-5.882c-.697 0-1.267.569-1.267 1.275 0 .705.57 1.275 1.275 1.275.689 0 1.275-.579 1.275-1.259 0-.714-.57-1.291-1.283-1.291Zm0 .34c.518 0 .943.424.943.951a.94.94 0 0 1-.935.918.93.93 0 0 1-.935-.934.93.93 0 0 1 .927-.935Z"/><path fill="#000" stroke="#000" stroke-width=".068" d="M68.353 117.725v-.255l-.442-.025c-.468-.026-.553-.119-.553-.561v-5.134l-2.048.867.06.425 1.274-.561v4.403c0 .442-.093.535-.552.561l-.476.025v.255c1.309-.025 1.309-.025 1.402-.025.264 0 1.199.025 1.335.025Zm4.59-2.176c0-.96-.689-1.64-1.658-1.64-.408 0-.714.025-1.164.425v-1.777l2.592.009v-.723l-3.034-.008v3.128l.17.051c.4-.4.629-.519 1.045-.519.816 0 1.326.578 1.326 1.496 0 .944-.544 1.496-1.47 1.496-.459 0-.884-.153-1.003-.374l-.391-.697-.204.12c.195.484.297.756.416 1.13.238.127.578.204.944.204 1.088 0 2.431-.927 2.431-2.32Zm2.031-3.706c-.697 0-1.266.57-1.266 1.275 0 .706.57 1.275 1.275 1.275.688 0 1.275-.578 1.275-1.258 0-.714-.57-1.292-1.284-1.292Zm0 .34c.519 0 .944.425.944.952a.94.94 0 0 1-.935.918.93.93 0 0 1-.935-.935.93.93 0 0 1 .926-.935Z"/></svg></svg>