<svg xmlns="http://www.w3.org/2000/svg" width="371.6" height="280" style="width:371.6000061035156px;height:280px;background:#fff;fill:none"><svg xmlns="http://www.w3.org/2000/svg"/><svg xmlns="http://www.w3.org/2000/svg" class="role-diagram-draw-area"><g class="shapes-region" style="stroke:#000;fill:none"><g class="composite-shape"><defs><pattern id="_pgf1l1qzj50y" width="11.3" height="11.3" x="0" y="0" patternTransform="rotate(45 0 0)" patternUnits="userSpaceOnUse"><path d="M0 0v11.3M5.7 0v11.3M11.3 0v11.3" style="stroke:#eee;stroke-opacity:1;stroke-width:1;fill:none"/></pattern></defs><path d="M8-9h183v54.3H8Z" class="real" style="stroke-width:1;stroke:#000;fill:url(#_pgf1l1qzj50y);fill-opacity:1"/></g><g class="composite-shape"><path d="M71.2 171.7H125v53.8H71.2Z" class="real" style="stroke-width:1;stroke:#900;stroke-opacity:1;fill:#900;fill-opacity:.5"/></g><g class="arrow-line"><path d="M97.8 171V45.6" class="connection real" style="stroke:#000;stroke-width:1;fill:none;fill-opacity:1"/></g><g class="composite-shape"><defs><pattern id="_pgfzerg76u1j" width="11.3" height="11.3" x="0" y="0" patternTransform="rotate(45 0 0)" patternUnits="userSpaceOnUse"><path d="M0 0v11.3M5.7 0v11.3M11.3 0v11.3" style="stroke:#eee;stroke-opacity:1;stroke-width:1;fill:none"/></pattern></defs><path d="M214.3 176a73.4 73.4 0 1 1 146.8 0 73.4 73.4 0 0 1-146.8 0Z" class="real" style="stroke-width:1;stroke:#000;fill:url(#_pgfzerg76u1j);fill-opacity:1"/></g><g class="composite-shape"><defs><pattern id="_pgf9bgt5yy7j" width="11.3" height="11.3" x="0" y="0" patternTransform="rotate(45 0 0)" patternUnits="userSpaceOnUse"><path d="M0 0v11.3M5.7 0v11.3M11.3 0v11.3" style="stroke:#eee;stroke-opacity:1;stroke-width:1;fill:none"/></pattern></defs><path d="M275.4 40.1h24.4v7.3h-24.4Z" class="real" style="stroke-width:1;stroke:#000;fill:url(#_pgf9bgt5yy7j);fill-opacity:1"/></g><g class="composite-shape"><path d="M281.1 57.3H294V70h-12.9Z" class="real" style="stroke-width:1;stroke:#900;stroke-opacity:1;fill:#900;fill-opacity:.5"/></g><g class="arrow-line"><path d="M287.5 57.1v-9.6" class="connection real" style="stroke:#000;stroke-width:1;fill:none;fill-opacity:1"/></g><g class="arrow-line"><path d="M287.5 70.4v18.3" class="connection real" style="stroke:#900;stroke-opacity:1;stroke-width:1;fill:none;fill-opacity:1"/><path fill="#900" stroke="none" d="M10.7-5.1 0 0l10.7 5.2L7.1 0Z" style="stroke:none;fill:#900;stroke-width:1" transform="rotate(-90 189.6 -97.9)"/></g><g class="arrow-line"><path d="M287.7 157.7V176" class="connection real" style="stroke:#900;stroke-opacity:1;stroke-width:1;fill:none;fill-opacity:1"/><path fill="#900" stroke="none" d="M10.7-5.1 0 0l10.7 5.2L7.1 0Z" style="stroke:none;fill:#900;stroke-width:1" transform="rotate(90 66.5 221.2)"/></g><g class="arrow-line"><path d="M97.8 11.5v34" class="connection real" style="stroke:#900;stroke-opacity:1;stroke-width:1;fill:none;fill-opacity:1"/><path fill="#900" stroke="none" d="M10.7-5.1 0 0l10.7 5.2L7.1 0Z" style="stroke:none;fill:#900;stroke-width:1" transform="rotate(90 44.7 53.1)"/></g><g class="arrow-line"><path d="M97.8 45.5v34" class="connection real" style="stroke:#900;stroke-opacity:1;stroke-width:1;fill:none;fill-opacity:1"/><path fill="#900" stroke="none" d="M10.7-5.1 0 0l10.7 5.2L7.1 0Z" style="stroke:none;fill:#900;stroke-width:1" transform="rotate(-90 90.1 -7.7)"/></g><g class="arrow-line"><path d="M97.8 137v34" class="connection real" style="stroke:#900;stroke-opacity:1;stroke-width:1;fill:none;fill-opacity:1"/><path fill="#900" stroke="none" d="M10.7-5.1 0 0l10.7 5.2L7.1 0Z" style="stroke:none;fill:#900;stroke-width:1" transform="rotate(90 -18.1 116)"/></g><g class="arrow-line"><path d="M97.8 226.5v34" class="connection real" style="stroke:#900;stroke-opacity:1;stroke-width:1;fill:none;fill-opacity:1"/><path fill="#900" stroke="none" d="M10.7-5.1 0 0l10.7 5.2L7.1 0Z" style="stroke:none;fill:#900;stroke-width:1" transform="rotate(-90 180.6 82.8)"/></g></g></svg><svg xmlns="http://www.w3.org/2000/svg" xmlns:xlink="http://www.w3.org/1999/xlink" width="370" height="278.4" style="width:370px;height:278.3999938964844px;font-family:Asana-Math,Asana;background:#fff"><path fill="#fff" stroke="#fff" stroke-width=".1" d="m103.9 203.6-.4.3q-.9.6-1 .5-.3 0-.3-.3l.1-.7 1.3-5 .1-.7q0-.5-.4-.5-.7 0-2.2 1-1.4 1-2.5 2.6l.5-2.4.1-.7q0-.5-.4-.5-.8 0-2.2 1c-.8.7-1.1 1-2.2 2.5l.5-2.2.1-.8q0-.5-.4-.5t-2.2 1.3l-.5.3.1.3 1.4-.7q.3 0 .3.4c0 .9-.7 4.1-1.4 6.6v.2l1.2-.3.4-1.7c.4-2 .8-3 1.8-4q1-1.1 2-1.2l.1.3q0 1-1 5.5l-.3 1.2v.2l1.2-.3.4-1.8q.3-2.2 1.6-3.5 1.5-1.6 2.3-1.6.2 0 .2.4c0 .4 0 .6-.4 2.1-.7 2.7-1 3-1 4q0 .6.6.7c.4 0 1-.4 2.7-1.6Z"/><path fill="#900" stroke="#900" stroke-width=".1" d="M109.2 260h1c-1 1.2-2.7 2.7-2.7 5q0 2.3 1.5 2.4t3.3-3.4l-.2 1.6q0 1.7 1.2 1.8c2.3 0 5-4.2 5-6.7q-.1-1.6-1.1-1.7-.4 0-.6.2l-.9.8.2.3.5-.1q.7 0 .7 1c0 2.5-1.6 5.3-3 5.3q-1 0-1-1.6 0-1.4.4-2.6l1-3.2h-.2l-1.3.3-.5 2.5q-.2 1.4-.9 2.7-1 1.9-1.8 2-1-.1-1-1.7a8 8 0 0 1 2.4-5.6l-.2-.3q-.4.3-1 .2h-2l-.2-.1-.6.1-.6 2h.4l.2-.7q.3-.5 1-.5z"/><svg width="13.1" height="10" x="106.3" y="248.2" overflow="visible"><path d="M13.1 4.9 10 1.4l-.5.5 1.9 2.4h-.2v.9h.2l-2 2.3.6.5zm-11.4.3h11v-.9h-11z" style="fill:#900;fill-opacity:1;stroke-width:1px;stroke:none;stroke-opacity:1"/></svg><path fill="#900" stroke="#900" stroke-width=".1" d="M114.4 129.8h1.3q2 0 2 .3v1.7h.4l.5-2.8H109l-.3 2.8h.5l.2-1 .4-.8 1.3-.2h2l-1.5 8.9c-.3 1.5-.3 1.6-1 1.6h-.9v.6h1l1.4-.1h2.2v-.4h-1q-.6 0-.5-.6v-.6Z"/><svg width="11.2" height="10" x="107.8" y="117.8" overflow="visible"><path d="M11.2 4.9 8.1 1.4l-.5.5 2 2.4h-.2v.9h.1l-2 2.3.6.5zm-9.5.3h9v-.9h-9z" style="fill:#900;fill-opacity:1;stroke-width:1px;stroke:none;stroke-opacity:1"/></svg><path fill="#900" stroke="#900" stroke-width=".1" d="m119 144.7-.2 1.6q.6.3 1.3.3t1.7-.7q.8-.6.8-1.5t-1.2-1.1l-.5-.1q-1-.2-1-.8.1-1.1 1.3-1.2.7 0 1 .6v.6h.4l.2-1.3-1.2-.3a3 3 0 0 0-2 .9q-.4.4-.4 1 0 1 1.2 1.2l.7.2q.8 0 .8.8-.1 1.2-1.4 1.3-.7 0-1.2-.5v-1Zm5.8-2.8-.7 3.3-.1 1q0 .3.3.4.4.1 1.8-1l.3-.3v-.2l-.6.4-.7.3q-.2 0-.2-.2l.5-3 .2-.7h1.3v-.6h-1.2l.5-2.3-.1-.2-1 .4-.2 2-1.1.5v.2Zm6.8.3.2-1.4h-.2q-.6 0-1.2.9-.8 1-1.1 1.8l.4-1.9v-.5q0-.3-.2-.3-.4 0-1.6.8l-.3.3v.2l.4-.2.6-.3q.2 0 .2.3c0 .6-.5 3.1-1 4.6l.1.1.7-.1h.1l.3-1.5q.3-1.4 1-2.3t1-.8.5.3Zm.7-.3v.2l.4-.2.6-.3q.2 0 .2.2v.6l-.9 2.8-.1 1q0 .4.3.4.3.1 2-1.1l-.2-.2-.3.2-.7.3q-.2 0-.2-.2l.1-.5 1-3.6v-.4q0-.3-.3-.3-.4 0-1.6.8Zm2.3-3.9q-.6.1-.7.8 0 .5.4.5.6 0 .7-.8 0-.5-.4-.5Zm.8 3.9.1.2.4-.2.6-.3q.2 0 .2.3c0 .6-.5 2.9-1 4.6v.1l1-.2q.1-2.1 1-3 1-1.7 2-1.8.2 0 .2.3l-.1.8-.6 2.5-.2 1q0 .3.4.4.3.1 1.9-1.1l-.1-.2-.4.2-.7.3-.1-.2v-.2l.8-3.3.1-1q0-.3-.4-.3-.9 0-2 1l-1.4 1.8.5-2v-.4q0-.4-.2-.4-.4 0-1.6.8Zm9.6-1.1c-.8 0-2.6.7-2.6 2.6q0 1.5 1.5 1.5h.3l-.5.4-.3.6.3.4c-.9.2-2.4.8-2.4 2q.1 1.5 2.2 1.5c1.5 0 2.8-.9 2.8-1.9q0-.6-.7-1.2l-.7-.6q-.6-.5-.6-.8 0-.2.3-.5 1.9-.6 2-2.4v-.4h1v-.6h-1.2s-.2-.6-1.4-.6Zm-1.1 5.7.9.7q.7.5.7 1.1-.2 1.1-1.8 1.2t-1.6-1.3c0-1.2 1.3-1.6 1.8-1.7Zm.8-5.3q1 0 1 1.2 0 2-1.3 2.1-1.2 0-1.1-1.4.1-1.9 1.4-2ZM299 86.7l1-.1c-1 1.3-2.7 2.7-2.7 5q0 2.3 1.5 2.4t3.3-3.4l-.2 1.6q0 1.7 1.2 1.8c2.3 0 5-4.2 5-6.7q-.1-1.6-1.1-1.7-.4 0-.6.2l-.9.8.2.3.5-.1q.6 0 .7 1c0 2.5-1.6 5.3-3 5.3q-1 0-1-1.6 0-1.4.4-2.6l1-3.2h-.2l-1.3.3-.5 2.5q-.2 1.3-.9 2.7-1 1.9-1.8 2-1-.1-1-1.7a8 8 0 0 1 2.4-5.6l-.2-.3q-.4.3-1 .2h-1.9l-.2-.1-.6.1-.6 2h.4l.2-.7q.3-.5 1-.5z"/><svg width="13.1" height="10" x="296.1" y="74.8" overflow="visible"><path d="M13.1 4.9 10 1.4l-.5.5 1.9 2.4h-.2v.9h.2l-2 2.3.6.5zm-11.4.3h11v-.9h-11z" style="fill:#900;fill-opacity:1;stroke-width:1px;stroke:none;stroke-opacity:1"/></svg><path fill="#900" stroke="#900" stroke-width=".1" d="M304 153.5h1.8q1.6 0 1.7.3l.2 1.5h.4q0-1.5.3-2.6h-7.7v.5h1q.5 0 .5.5l-.1 1.3-1.3 7.3c-.3 1.6-.3 1.6-1 1.7h-.6v.5h4.5v-.5h-1.1q-.7 0-.6-.5v-.4l.6-3.8h2l1.8.1h.5l.3-.8h-4.4l.7-4.6.2-.5Z"/><svg width="10.3" height="10" x="299.1" y="141.5" overflow="visible"><path d="M10.3 4.9 7 1.4l-.5.5 2 2.4h-.2v.9h.2l-2 2.3.5.5zm-8.6.3h8.1v-.9H1.7z" style="fill:#900;fill-opacity:1;stroke-width:1px;stroke:none;stroke-opacity:1"/></svg><path fill="#900" stroke="#900" stroke-width=".1" d="m311.9 161.6-.2-.2q-.7.5-1.9.5v.3h.5q.4 0 .4.3v.3l-1.2 6.5v.1q.2.8 1.2.9.7 0 1.6-.6 1.8-1.4 2-4 0-.9-.3-1.1l-.5-.2-1 .3q-.7.3-1.7 1.6Zm1 3.5q.5 0 .5.9c0 .7-.3 1.8-.6 2.5q-.6 1.3-1.6 1.2-.8 0-.8-.7c0-.4.2-2.1 1.1-3.1q.7-.7 1.4-.8Zm1.9 3.3q0 1.8 1.5 1.9a3 3 0 0 0 1.9-.8q1.2-1.2 1.3-3.3 0-1.7-1.6-1.8c-1.3 0-3.1 1.2-3.1 4Zm2.6-3.5q1.2 0 1.1 1.5 0 2-.8 3-.4.4-1 .4-1 0-1-1.4c0-1.4.4-2.8 1-3.3zm2.5 5.3h.6q.5 0 1.2-.8l.9-1.4.1.8q.2 1.5.9 1.5.4 0 1-.6l.6-.5-.1-.2q-.7.6-1 .5-.2 0-.4-.3l-.3-1-.2-1.2.4-.6q.8-1.1 1.3-1 .2 0 .3.2h.2l.2-1-.4-.2q-.6 0-1.7 1.5l-.4.7v-.6q-.2-1.6-1.2-1.6-.5 0-.7.3l-.7 1h.2q.5-.5.8-.5.6 0 .9 1.7l.1.7-.5.7q-.7 1.2-1.2 1.2h-.3l-.2-.4h-.2zm-205.1-88h1.3q2 0 2 .3v1.7h.4l.5-2.8h-9.6l-.3 2.8h.5l.2-1 .4-.8 1.3-.2h2l-1.5 8.9c-.3 1.5-.3 1.6-1 1.6h-.9v.6h1l1.4-.1h2.2v-.4h-1q-.6 0-.5-.6v-.6Z"/><svg width="11.2" height="10" x="108.2" y="70.2" overflow="visible"><path d="M11.2 4.9 8.1 1.4l-.5.5 2 2.4h-.2v.9h.1l-2 2.3.6.5zm-9.5.3h9v-.9h-9z" style="fill:#900;fill-opacity:1;stroke-width:1px;stroke:none;stroke-opacity:1"/></svg><path fill="#900" stroke="#900" stroke-width=".1" d="m119.4 97.1-.2 1.6q.6.3 1.3.3t1.7-.7q.8-.6.8-1.5t-1.2-1.1l-.5-.1q-1-.2-1-.8.1-1.1 1.3-1.2.7 0 1 .6v.6h.4l.2-1.3-1.2-.3a3 3 0 0 0-2 .9q-.4.4-.4 1 0 1 1.2 1.2l.7.2q.8 0 .8.8-.1 1.2-1.4 1.3-.7 0-1.2-.5v-1Zm5.8-2.8-.7 3.3-.1 1q0 .3.3.4.4.1 1.8-1l.3-.3v-.2l-.6.4-.7.3q-.2 0-.2-.2l.5-3 .2-.7h1.3v-.6h-1.2l.5-2.3-.1-.2-1 .4-.2 2-1.1.5v.2Zm6.8.3.2-1.4h-.2q-.6 0-1.2.9-.8 1-1.1 1.8l.4-1.9v-.5q0-.3-.2-.3-.4 0-1.6.8l-.3.3v.2l.4-.2.6-.3q.2 0 .2.3c0 .6-.5 3.1-1 4.6l.1.1.7-.1h.1l.3-1.5q.3-1.4 1-2.3t1-.8.5.3Zm.7-.3v.2l.4-.2.6-.3q.2 0 .2.2v.6l-.9 2.8-.1 1q0 .4.3.4.3.1 2-1.1l-.2-.2-.3.2-.7.3q-.2 0-.2-.2l.1-.5 1-3.6v-.4q0-.3-.3-.3-.4 0-1.6.8Zm2.3-3.9q-.6.1-.7.8 0 .5.4.5.6 0 .7-.8 0-.5-.4-.5Zm.8 3.9.1.2.4-.2.6-.3q.2 0 .2.3c0 .6-.5 2.9-1 4.6v.1l1-.2q.1-2.1 1-3 1-1.6 2-1.8.2 0 .2.3l-.1.8-.6 2.5-.2 1q0 .3.4.4.3.1 1.9-1.1l-.1-.2-.4.2-.7.3-.1-.2v-.2l.8-3.3.1-1q0-.3-.4-.3-.9 0-2 1l-1.4 1.8.5-2v-.4q0-.4-.2-.4-.4 0-1.6.8Zm9.6-1.1c-.8 0-2.6.7-2.6 2.6q0 1.5 1.5 1.5h.3l-.5.4-.3.6.3.4c-.9.2-2.4.8-2.4 2q.1 1.5 2.2 1.5c1.5 0 2.8-.9 2.8-1.9q0-.6-.7-1.2l-.7-.6q-.6-.5-.6-.8 0-.2.3-.5 1.9-.6 2-2.4v-.4h1v-.6h-1.2s-.2-.6-1.4-.6Zm-1.1 5.7.9.7q.7.6.7 1.1-.2 1.1-1.8 1.2t-1.6-1.3c0-1.2 1.3-1.6 1.8-1.7Zm.8-5.3q1 0 1 1.2 0 2-1.3 2.1-1.2 0-1.1-1.4.1-1.9 1.4-2Zm-29.5-73.4h1.3q2 0 2 .3v1.7h.4l.5-2.8h-9.6l-.3 2.8h.5l.2-1 .4-.8 1.3-.2h2l-1.5 8.9c-.3 1.5-.3 1.6-1 1.6h-.9v.6h1l1.4-.1h2.2v-.4h-1q-.6 0-.5-.6v-.6Z"/><svg width="11.2" height="10" x="109" y="8.2" overflow="visible"><path d="M11.2 4.9 8.1 1.4l-.5.5 2 2.4h-.2v.9h.1l-2 2.3.6.5zm-9.5.3h9v-.9h-9z" style="fill:#900;fill-opacity:1;stroke-width:1px;stroke:none;stroke-opacity:1"/></svg><path fill="#900" stroke="#900" stroke-width=".1" d="M124 33h.2l.3-1.6-1.1-.2q-1-.1-2.1 1c-.7.5-1.1 1.8-1.1 3q0 1.8 1.4 1.8 1 0 1.9-.7l.6-.5-.1-.3-.2.2q-1.2.7-1.7.7-1 0-1-1.4 0-2.1 1-3 .3-.3.9-.3.9 0 1 .6Zm4.6 2.6-.3.2a3 3 0 0 1-1.6.7q-1 0-1-1.2l.2-1 1.8-.5q1.5-.6 1.5-1.7 0-1-1-1c-.9-.1-2.2.8-2.6 1.6-.4.6-.7 2-.7 2.9q0 1.4 1.4 1.4.8 0 2.4-1.2Zm-2.5-2q.3-1.2.7-1.6.4-.3 1-.3t.5.6q0 .8-1 1.4l-1.4.4Zm3.6-1.3.1.2.4-.2.6-.3.2.2-.1.6-.8 2.8-.2 1q0 .4.4.4.3.1 1.9-1.1l-.1-.2-.3.2-.8.3-.1-.2v-.5l1-3.6v-.4q0-.3-.2-.3-.4 0-1.6.8Zm2.3-3.9q-.6.1-.7.8 0 .5.5.5.7 0 .7-.8 0-.5-.5-.5Zm3.6 0-.1-.2c-.7.3-1 .4-2 .5v.2h.6q.4 0 .4.3v.3l-1.2 5.8-.3 1.2q0 .5.4.5c.3 0 .7-.2 2-1.1l-.2-.2-.3.2-.7.3q-.2 0-.2-.2v-.3Zm.7 3.9.1.2.4-.2.5-.3q.3 0 .3.2l-.1.6-.8 2.8-.2 1q0 .4.4.4.3.1 1.9-1.1l-.1-.2-.3.2-.8.3-.1-.2v-.5l1-3.6v-.4q0-.3-.3-.3t-1.5.8Zm2.3-3.9q-.6.1-.7.8 0 .5.5.5t.7-.8q0-.5-.5-.5Zm.9 3.9v.2l.5-.2.5-.3q.3 0 .2.3c0 .6-.5 2.9-1 4.6l.1.1.9-.2q.3-2.1 1-3 1-1.6 2-1.8.3 0 .3.3l-.2.8-.6 2.5-.1 1q0 .4.3.4.3.1 2-1.1l-.2-.2-.3.2-.7.3q-.2 0-.2-.2v-.2l.8-3.3.2-1q0-.3-.4-.3-.9 0-2 1l-1.4 1.8.4-2v-.4q0-.4-.2-.4t-1.6.8Zm9.6-1.1c-.8 0-2.6.7-2.6 2.6q0 1.5 1.4 1.5h.4l-.5.4-.3.6.2.4c-.8.2-2.3.8-2.3 2q0 1.5 2.1 1.5c1.5 0 2.9-.9 2.9-1.9q0-.6-.8-1.2l-.7-.6q-.6-.5-.5-.8 0-.2.3-.5 1.8-.6 2-2.4v-.4h.9l.1-.6h-1.2s-.3-.6-1.4-.6Zm-1.2 5.7 1 .7q.7.5.7 1.1-.2 1.1-1.8 1.2t-1.7-1.3c0-1.2 1.3-1.6 1.8-1.7Zm.9-5.3q1 0 1 1.2 0 2-1.4 2.1-1 0-1-1.4 0-1.9 1.4-2Z"/></svg></svg>