<svg xmlns="http://www.w3.org/2000/svg" xmlns:xlink="http://www.w3.org/1999/xlink" x="0" y="0" width="189.60000610351562" height="225.60000610351562" style="
        width:189.60000610351562px;
        height:225.60000610351562px;
        background: transparent;
        fill: none;
">
        <svg xmlns="http://www.w3.org/2000/svg"/>
        
        <svg xmlns="http://www.w3.org/2000/svg" class="role-diagram-draw-area"><g class="shapes-region" style="stroke: black; fill: none;"><g class="composite-shape"><path class="real" d=" M27.8,77.36 L51.6,77.36 L51.6,161.3 L27.8,161.3 Z" style="stroke-width: 1; stroke: rgb(0, 0, 0); stroke-opacity: 1; fill: rgb(238, 238, 238); fill-opacity: 1;"/></g><g class="composite-shape"><path class="real" d=" M39.76,54.8 L51.6,76.3 L27.92,76.3 Z" style="stroke-width: 1; stroke: rgb(153, 0, 0); stroke-opacity: 1; fill: rgb(153, 0, 0); fill-opacity: 0.5;"/></g><g class="composite-shape"><path class="real" d=" M51.6,121.3 L62.28,161.3 L51.6,161.3 Z" style="stroke-width: 1; stroke: rgb(153, 0, 0); stroke-opacity: 1; fill: rgb(153, 0, 0); fill-opacity: 0.5;"/></g><g class="composite-shape"><path class="real" d=" M27.8,121.3 L17.08,161.3 L27.8,161.3 Z" style="stroke-width: 1; stroke: rgb(153, 0, 0); stroke-opacity: 1; fill: rgb(153, 0, 0); fill-opacity: 0.5;"/></g><g class="composite-shape"><path class="real" d=" M32.2,162 L47.88,162 L47.88,167.36 L32.2,167.36 Z" style="stroke-width: 1; stroke: rgb(0, 0, 0); stroke-opacity: 1; fill: rgb(0, 0, 0); fill-opacity: 0.5;"/></g><g class="arrow-line"><path class="connection real" stroke-dasharray="" d="  M47.88,167.36 L47.88,213.44" style="stroke: rgb(153, 0, 0); stroke-opacity: 1; stroke-width: 1; fill: none; fill-opacity: 1;"/><g stroke="none" fill="rgb(153,0,0)" fill-opacity="1" transform="matrix(-1.8369701987210297e-16,-1,1,-1.8369701987210297e-16,47.87999267578124,216.44000091552732)" style="stroke: none; fill: rgb(153, 0, 0); stroke-width: 1;"><path d=" M10.72,-5.15 L0,0 L10.72,5.15 L7.12,0 Z"/></g></g><g class="arrow-line"><path class="connection real" stroke-dasharray="" d="  M39.76,8.72 L39.76,54.8" style="stroke: rgb(153, 0, 0); stroke-opacity: 1; stroke-width: 1; fill: none; fill-opacity: 1;"/><g stroke="none" fill="rgb(153,0,0)" fill-opacity="1" transform="matrix(6.123233995736766e-17,1,-1,6.123233995736766e-17,39.759991455078094,5.719998931884746)" style="stroke: none; fill: rgb(153, 0, 0); stroke-width: 1;"><path d=" M10.72,-5.15 L0,0 L10.72,5.15 L7.12,0 Z"/></g></g><g class="composite-shape"><path class="real" d=" M131.56,114.4 C131.56,113.16 132.56,112.16 133.8,112.16 C135.04,112.16 136.04,113.16 136.04,114.4 C136.04,115.64 135.04,116.64 133.8,116.64 C132.56,116.64 131.56,115.64 131.56,114.4 Z" style="stroke-width: 1; stroke: rgb(0, 0, 0); fill: rgb(0, 0, 0); fill-opacity: 1;"/></g><g class="arrow-line"><path class="connection real" stroke-dasharray="" d="  M133.8,66.08 L133.8,112.16" style="stroke: rgb(153, 0, 0); stroke-opacity: 1; stroke-width: 1; fill: none; fill-opacity: 1;"/><g stroke="none" fill="rgb(153,0,0)" fill-opacity="1" transform="matrix(6.123233995736766e-17,1,-1,6.123233995736766e-17,133.7999877929687,63.07999954223628)" style="stroke: none; fill: rgb(153, 0, 0); stroke-width: 1;"><path d=" M10.72,-5.15 L0,0 L10.72,5.15 L7.12,0 Z"/></g></g><g class="arrow-line"><path class="connection real" stroke-dasharray="" d="  M133.8,162.72 L133.8,116.64" style="stroke: rgb(153, 0, 0); stroke-opacity: 1; stroke-width: 1; fill: none; fill-opacity: 1;"/><g stroke="none" fill="rgb(153,0,0)" fill-opacity="1" transform="matrix(-1.8369701987210297e-16,-1,1,-1.8369701987210297e-16,133.79998779296872,165.71999435424806)" style="stroke: none; fill: rgb(153, 0, 0); stroke-width: 1;"><path d=" M10.72,-5.15 L0,0 L10.72,5.15 L7.12,0 Z"/></g></g><g class="arrow-line"><path class="connection real" stroke-dasharray="" d="  M32.2,213.44 L32.2,206.56 L32.2,167.36" style="stroke: rgb(153, 0, 0); stroke-opacity: 1; stroke-width: 1; fill: none; fill-opacity: 1;"/><g stroke="none" fill="rgb(153,0,0)" fill-opacity="1" transform="matrix(-1.8369701987210297e-16,-1,1,-1.8369701987210297e-16,32.19999999999999,216.44000091552738)" style="stroke: none; fill: rgb(153, 0, 0); stroke-width: 1;"><path d=" M10.72,-5.15 L0,0 L10.72,5.15 L7.12,0 Z"/></g></g><g/></g><g/><g/><g/></svg>
        <svg xmlns="http://www.w3.org/2000/svg" xmlns:xlink="http://www.w3.org/1999/xlink" width="188" height="224" style="width:188px;height:224px;font-family:Asana-Math, Asana;background:transparent;"><g><g><g><g><g><g><g transform="matrix(1,0,0,1,11.79998779296875,212.20004272460938)"><path transform="matrix(0.017,0,0,-0.017,0,0)" d="M167 420C188 420 201 421 226 424C171 350 72 266 72 126C72 44 107 -11 160 -11C224 -11 276 44 350 187C341 143 338 118 338 95C338 32 367 -11 412 -11C546 -11 699 238 699 384C699 441 673 482 637 482C624 482 612 478 604 470L554 423L565 404C574 410 583 413 592 413C619 413 635 390 635 350C635 205 538 39 453 39C424 39 403 79 403 134C403 181 412 247 424 290L476 474L469 482L395 460L366 311C354 249 340 209 311 155C271 80 233 39 203 39C168 39 145 78 145 136C145 255 186 352 285 464L275 482C255 473 242 470 214 470C186 470 144 472 115 475L103 476C97 477 92 477 91 477C79 477 70 475 59 470C45 443 34 407 21 352L43 352L60 394C67 411 87 422 111 422C145 422 128 420 167 420Z" stroke="rgb(153,0,0)" stroke-opacity="1" stroke-width="8" fill="rgb(153,0,0)" fill-opacity="1"></path></g></g></g></g><svg x="11.79998779296875" overflow="visible" y="193.20004272460938" height="10" width="13.112500190734863"><path d=" M 13.11 4.85 l -3.15 -3.32 l -0.49 0.52 l 1.93 2.33 h -0.15 v 0.90 h 0.15 l -1.93 2.33 l 0.49 0.52 z  M 1.68 5.23 h 10.97 v -0.90 h -10.97 z" style="fill:rgb(153,0,0);fill-opacity:1;stroke-width:1px;stroke:none;stroke-opacity:1;"></path></svg></g></g></g><g><g><g><g><g><g><g transform="matrix(1,0,0,1,55,209.80001831054688)"><path transform="matrix(0.017,0,0,-0.017,0,0)" d="M286 646L392 650C454 650 494 641 495 626L503 537L527 537C530 600 537 651 548 689C526 691 498 692 481 692L440 691L275 689L246 689C221 689 181 690 143 691L94 692L91 664L147 662C171 661 182 652 182 635C182 621 178 589 173 559L98 125C81 33 81 32 40 28L4 25L0 -3L34 -2C74 -1 106 0 127 0C145 0 174 -1 213 -2L265 -3L268 25L204 28C177 29 168 37 168 57C168 63 169 74 170 78L206 301L323 301C350 301 381 300 429 298L455 297L474 342L470 349C389 345 329 343 251 343L214 343L260 614C263 630 264 635 269 646Z" stroke="rgb(153,0,0)" stroke-opacity="1" stroke-width="8" fill="rgb(153,0,0)" fill-opacity="1"></path></g></g></g></g><svg x="55" overflow="visible" y="186.80001831054688" height="10" width="10.287500381469727"><path d=" M 10.29 4.85 l -3.15 -3.32 l -0.49 0.52 l 1.93 2.33 h -0.15 v 0.90 h 0.15 l -1.93 2.33 l 0.49 0.52 z  M 1.68 5.23 h 8.15 v -0.90 h -8.15 z" style="fill:rgb(153,0,0);fill-opacity:1;stroke-width:1px;stroke:none;stroke-opacity:1;"></path></svg></g><g><g><g><g><g transform="matrix(1,0,0,1,64.9375,215.50000610351563)"><path transform="matrix(0.0119,0,0,-0.0119,0,0)" d="M176 -11C232 -11 347 62 390 125C431 186 465 296 465 371C465 438 442 482 406 482C364 482 311 456 259 409C218 374 198 348 162 289L186 408C189 425 191 440 191 452C191 471 183 482 169 482C148 482 110 461 36 408L8 388L15 368L47 389C75 407 86 412 95 412C105 412 112 403 112 389C112 381 110 361 108 351L50 8C40 -52 21 -143 1 -233L-7 -270L0 -276C21 -269 41 -264 73 -259L115 3C136 -4 158 -11 176 -11ZM143 165C165 293 272 424 355 424C381 424 393 402 393 356C393 275 353 156 300 80C280 51 248 36 207 36C176 36 151 43 125 59ZM867 365C870 403 875 435 883 476C872 481 868 482 863 482C832 482 801 458 765 407C726 351 687 291 671 256L703 408C707 425 709 438 709 450C709 470 701 482 686 482C665 482 627 461 553 408L525 388L532 368L564 389C592 407 603 412 612 412C622 412 629 403 629 390C629 332 586 126 546 -2L556 -9C571 -4 587 -1 610 4L623 6L649 126C667 209 690 262 734 319C768 363 795 384 817 384C832 384 842 379 853 365ZM904 152C904 46 949 -11 1032 -11C1087 -11 1147 15 1192 57C1254 116 1298 230 1298 331C1298 425 1248 482 1165 482C1061 482 904 382 904 152ZM1128 444C1189 444 1222 399 1222 315C1222 219 1191 113 1147 60C1129 39 1103 27 1072 27C1014 27 980 72 980 151C980 264 1019 387 1068 427C1081 438 1104 444 1128 444ZM1506 -11C1562 -11 1677 62 1720 125C1761 186 1795 296 1795 371C1795 438 1772 482 1736 482C1694 482 1641 456 1589 409C1548 374 1528 348 1492 289L1516 408C1519 425 1521 440 1521 452C1521 471 1513 482 1499 482C1478 482 1440 461 1366 408L1338 388L1345 368L1377 389C1405 407 1416 412 1425 412C1435 412 1442 403 1442 389C1442 381 1440 361 1438 351L1380 8C1370 -52 1351 -143 1331 -233L1323 -270L1330 -276C1351 -269 1371 -264 1403 -259L1445 3C1466 -4 1488 -11 1506 -11ZM1473 165C1495 293 1602 424 1685 424C1711 424 1723 402 1723 356C1723 275 1683 156 1630 80C1610 51 1578 36 1537 36C1506 36 1481 43 1455 59ZM2157 111L2133 94C2080 56 2032 36 1996 36C1949 36 1920 73 1920 133C1920 158 1923 185 1928 214C1945 218 2054 248 2079 259C2164 296 2203 342 2203 404C2203 451 2169 482 2119 482C2051 496 1941 423 1904 349C1874 299 1844 180 1844 113C1844 35 1888 -11 1960 -11C2017 -11 2073 17 2165 92ZM1942 274C1959 343 1979 386 2008 412C2026 428 2057 440 2081 440C2110 440 2129 420 2129 388C2129 344 2094 297 2042 272C2014 258 1978 247 1933 237ZM2468 722L2456 733C2404 707 2368 698 2296 691L2292 670L2340 670C2364 670 2374 663 2374 648C2374 645 2374 640 2371 622C2360 567 2287 182 2272 132C2259 82 2253 52 2253 31C2253 6 2264 -9 2283 -9C2309 -9 2345 12 2443 85L2433 103L2407 86C2378 67 2356 56 2346 56C2339 56 2333 66 2333 76C2333 82 2334 89 2337 104ZM2745 722L2733 733C2681 707 2645 698 2573 691L2569 670L2617 670C2641 670 2651 663 2651 648C2651 645 2651 640 2648 622C2637 567 2564 182 2549 132C2536 82 2530 52 2530 31C2530 6 2541 -9 2560 -9C2586 -9 2622 12 2720 85L2710 103L2684 86C2655 67 2633 56 2623 56C2616 56 2610 66 2610 76C2610 82 2611 89 2614 104ZM3042 204L3013 77C3009 60 3007 42 3007 26C3007 4 3016 -9 3031 -9C3054 -9 3095 17 3177 85L3170 106C3146 86 3117 59 3095 59C3086 59 3080 68 3080 82C3080 87 3080 90 3081 93L3173 472L3163 481L3130 463C3089 478 3072 482 3045 482C3017 482 2997 477 2970 464C2908 433 2875 403 2850 354C2806 265 2775 145 2775 67C2775 23 2790 -11 2809 -11C2846 -11 2926 41 3042 204ZM3090 414C3068 305 3049 253 3015 201C2958 117 2897 59 2865 59C2853 59 2847 72 2847 99C2847 163 2875 280 2910 360C2934 415 2957 433 3005 433C3028 433 3046 429 3090 414ZM3238 388L3245 368L3277 389C3314 412 3317 414 3324 414C3335 414 3342 404 3342 389C3342 338 3301 145 3260 2L3267 -9C3292 -2 3315 4 3337 8C3356 134 3377 199 3423 268C3477 352 3552 414 3597 414C3608 414 3614 405 3614 390C3614 372 3611 351 3603 319L3551 107C3542 70 3538 47 3538 31C3538 6 3549 -9 3568 -9C3594 -9 3630 12 3728 85L3718 103L3692 86C3663 67 3641 56 3631 56C3624 56 3618 65 3618 76C3618 81 3619 92 3620 96L3686 372C3693 401 3697 429 3697 446C3697 469 3686 482 3666 482C3624 482 3555 444 3496 389C3458 354 3430 320 3378 247L3416 408C3420 426 3422 438 3422 449C3422 470 3414 482 3399 482C3378 482 3339 460 3266 408ZM3894 390L3838 107C3837 99 3825 61 3825 31C3825 6 3836 -9 3855 -9C3890 -9 3925 11 4003 74L4034 99L4024 117L3979 86C3950 66 3930 56 3919 56C3910 56 3905 64 3905 76C3905 102 3919 183 3948 328L3961 390L4068 390L4079 440C4041 436 4007 434 3969 434C3985 528 3996 577 4014 631L4003 646C3983 634 3956 622 3925 610L3900 440C3856 419 3830 408 3812 403L3810 390Z" stroke="rgb(153,0,0)" stroke-opacity="1" stroke-width="8" fill="rgb(153,0,0)" fill-opacity="1"></path></g></g></g></g></g></g></g><g><g><g><g><g><g><g transform="matrix(1,0,0,1,47.79998779296875,28.987518310546875)"><path transform="matrix(0.017,0,0,-0.017,0,0)" d="M286 646L392 650C454 650 494 641 495 626L503 537L527 537C530 600 537 651 548 689C526 691 498 692 481 692L440 691L275 689L246 689C221 689 181 690 143 691L94 692L91 664L147 662C171 661 182 652 182 635C182 621 178 589 173 559L98 125C81 33 81 32 40 28L4 25L0 -3L34 -2C74 -1 106 0 127 0C145 0 174 -1 213 -2L265 -3L268 25L204 28C177 29 168 37 168 57C168 63 169 74 170 78L206 301L323 301C350 301 381 300 429 298L455 297L474 342L470 349C389 345 329 343 251 343L214 343L260 614C263 630 264 635 269 646Z" stroke="rgb(153,0,0)" stroke-opacity="1" stroke-width="8" fill="rgb(153,0,0)" fill-opacity="1"></path></g></g></g></g><svg x="47.79998779296875" overflow="visible" y="5.987518310546875" height="10" width="10.287500381469727"><path d=" M 10.29 4.85 l -3.15 -3.32 l -0.49 0.52 l 1.93 2.33 h -0.15 v 0.90 h 0.15 l -1.93 2.33 l 0.49 0.52 z  M 1.68 5.23 h 8.15 v -0.90 h -8.15 z" style="fill:rgb(153,0,0);fill-opacity:1;stroke-width:1px;stroke:none;stroke-opacity:1;"></path></svg></g><g><g><g><g><g transform="matrix(1,0,0,1,57.73748779296875,34.687506103515624)"><path transform="matrix(0.0119,0,0,-0.0119,0,0)" d="M125 390L69 107C68 99 56 61 56 31C56 6 67 -9 86 -9C121 -9 156 11 234 74L265 99L255 117L210 86C181 66 161 56 150 56C141 56 136 64 136 76C136 102 150 183 179 328L192 390L299 390L310 440C272 436 238 434 200 434C216 528 227 577 245 631L234 646C214 634 187 622 156 610L131 440C87 419 61 408 43 403L41 390ZM568 722L556 733C511 711 470 697 396 691L392 670L440 670C458 670 474 667 474 647C474 641 474 632 472 622L430 388C410 272 368 80 342 2L349 -9L418 7C426 64 440 164 480 236C525 317 628 414 670 414C681 414 692 407 692 393C692 375 687 342 677 303L626 107C620 85 613 55 613 31C613 6 623 -9 644 -9C676 -9 744 41 803 85L793 103L767 86C744 71 718 56 706 56C699 56 693 65 693 76C693 88 696 101 700 116L764 372C770 398 775 423 775 447C775 464 769 482 743 482C708 482 631 437 563 374C530 343 504 308 476 273L472 275ZM1199 365C1202 403 1207 435 1215 476C1204 481 1200 482 1195 482C1164 482 1133 458 1097 407C1058 351 1019 291 1003 256L1035 408C1039 425 1041 438 1041 450C1041 470 1033 482 1018 482C997 482 959 461 885 408L857 388L864 368L896 389C924 407 935 412 944 412C954 412 961 403 961 390C961 332 918 126 878 -2L888 -9C903 -4 919 -1 942 4L955 6L981 126C999 209 1022 262 1066 319C1100 363 1127 384 1149 384C1164 384 1174 379 1185 365ZM1711 473L1704 482L1636 465L1626 414C1611 336 1586 268 1555 221C1496 130 1418 59 1378 59C1370 59 1365 68 1365 85C1365 99 1367 112 1372 137L1429 408C1432 424 1434 438 1434 451C1434 470 1425 482 1411 482C1391 482 1353 461 1279 408L1251 388L1258 368L1290 389C1318 407 1329 412 1338 412C1347 412 1355 403 1355 392C1355 388 1354 378 1353 374L1290 77C1288 68 1286 44 1286 30C1286 7 1301 -11 1321 -11C1384 -11 1505 101 1589 239L1552 97C1545 73 1541 46 1541 31C1541 6 1552 -9 1571 -9C1597 -9 1633 12 1731 85L1721 103L1695 86C1671 70 1645 59 1634 59C1626 59 1621 66 1621 76C1621 112 1696 416 1711 473ZM1805 148C1800 97 1794 62 1783 16C1821 -2 1855 -11 1890 -11C1939 -11 1985 7 2036 47C2087 87 2108 124 2108 174C2108 228 2076 257 2002 271L1959 279C1899 290 1880 307 1880 348C1880 401 1925 442 1982 442C2023 442 2061 424 2077 397L2077 342L2100 342C2104 377 2108 404 2119 455C2080 474 2052 482 2019 482C1967 482 1906 452 1858 404C1832 377 1821 352 1821 316C1821 260 1852 228 1918 215L1981 203C2025 195 2041 177 2041 138C2041 73 1995 29 1924 29C1889 29 1858 40 1830 64L1830 148ZM2287 390L2231 107C2230 99 2218 61 2218 31C2218 6 2229 -9 2248 -9C2283 -9 2318 11 2396 74L2427 99L2417 117L2372 86C2343 66 2323 56 2312 56C2303 56 2298 64 2298 76C2298 102 2312 183 2341 328L2354 390L2461 390L2472 440C2434 436 2400 434 2362 434C2378 528 2389 577 2407 631L2396 646C2376 634 2349 622 2318 610L2293 440C2249 419 2223 408 2205 403L2203 390Z" stroke="rgb(153,0,0)" stroke-opacity="1" stroke-width="8" fill="rgb(153,0,0)" fill-opacity="1"></path></g></g></g></g></g></g></g><g><g><g><g><g><g><g transform="matrix(1,0,0,1,140.29998779296875,167.30001831054688)"><path transform="matrix(0.017,0,0,-0.017,0,0)" d="M167 420C188 420 201 421 226 424C171 350 72 266 72 126C72 44 107 -11 160 -11C224 -11 276 44 350 187C341 143 338 118 338 95C338 32 367 -11 412 -11C546 -11 699 238 699 384C699 441 673 482 637 482C624 482 612 478 604 470L554 423L565 404C574 410 583 413 592 413C619 413 635 390 635 350C635 205 538 39 453 39C424 39 403 79 403 134C403 181 412 247 424 290L476 474L469 482L395 460L366 311C354 249 340 209 311 155C271 80 233 39 203 39C168 39 145 78 145 136C145 255 186 352 285 464L275 482C255 473 242 470 214 470C186 470 144 472 115 475L103 476C97 477 92 477 91 477C79 477 70 475 59 470C45 443 34 407 21 352L43 352L60 394C67 411 87 422 111 422C145 422 128 420 167 420Z" stroke="rgb(153,0,0)" stroke-opacity="1" stroke-width="8" fill="rgb(153,0,0)" fill-opacity="1"></path></g></g></g></g><svg x="140.29998779296875" overflow="visible" y="148.30001831054688" height="10" width="13.112500190734863"><path d=" M 13.11 4.85 l -3.15 -3.32 l -0.49 0.52 l 1.93 2.33 h -0.15 v 0.90 h 0.15 l -1.93 2.33 l 0.49 0.52 z  M 1.68 5.23 h 10.97 v -0.90 h -10.97 z" style="fill:rgb(153,0,0);fill-opacity:1;stroke-width:1px;stroke:none;stroke-opacity:1;"></path></svg></g></g></g><g><g><g><g><g><g><g transform="matrix(1,0,0,1,142.29998779296875,76.80001831054688)"><path transform="matrix(0.017,0,0,-0.017,0,0)" d="M286 646L392 650C454 650 494 641 495 626L503 537L527 537C530 600 537 651 548 689C526 691 498 692 481 692L440 691L275 689L246 689C221 689 181 690 143 691L94 692L91 664L147 662C171 661 182 652 182 635C182 621 178 589 173 559L98 125C81 33 81 32 40 28L4 25L0 -3L34 -2C74 -1 106 0 127 0C145 0 174 -1 213 -2L265 -3L268 25L204 28C177 29 168 37 168 57C168 63 169 74 170 78L206 301L323 301C350 301 381 300 429 298L455 297L474 342L470 349C389 345 329 343 251 343L214 343L260 614C263 630 264 635 269 646Z" stroke="rgb(153,0,0)" stroke-opacity="1" stroke-width="8" fill="rgb(153,0,0)" fill-opacity="1"></path></g></g></g></g><svg x="142.29998779296875" overflow="visible" y="53.800018310546875" height="10" width="10.287500381469727"><path d=" M 10.29 4.85 l -3.15 -3.32 l -0.49 0.52 l 1.93 2.33 h -0.15 v 0.90 h 0.15 l -1.93 2.33 l 0.49 0.52 z  M 1.68 5.23 h 8.15 v -0.90 h -8.15 z" style="fill:rgb(153,0,0);fill-opacity:1;stroke-width:1px;stroke:none;stroke-opacity:1;"></path></svg></g><g><g><g><g><g transform="matrix(1,0,0,1,152.23748779296875,82.50000610351563)"><path transform="matrix(0.0119,0,0,-0.0119,0,0)" d="M125 390L69 107C68 99 56 61 56 31C56 6 67 -9 86 -9C121 -9 156 11 234 74L265 99L255 117L210 86C181 66 161 56 150 56C141 56 136 64 136 76C136 102 150 183 179 328L192 390L299 390L310 440C272 436 238 434 200 434C216 528 227 577 245 631L234 646C214 634 187 622 156 610L131 440C87 419 61 408 43 403L41 390ZM568 722L556 733C511 711 470 697 396 691L392 670L440 670C458 670 474 667 474 647C474 641 474 632 472 622L430 388C410 272 368 80 342 2L349 -9L418 7C426 64 440 164 480 236C525 317 628 414 670 414C681 414 692 407 692 393C692 375 687 342 677 303L626 107C620 85 613 55 613 31C613 6 623 -9 644 -9C676 -9 744 41 803 85L793 103L767 86C744 71 718 56 706 56C699 56 693 65 693 76C693 88 696 101 700 116L764 372C770 398 775 423 775 447C775 464 769 482 743 482C708 482 631 437 563 374C530 343 504 308 476 273L472 275ZM1199 365C1202 403 1207 435 1215 476C1204 481 1200 482 1195 482C1164 482 1133 458 1097 407C1058 351 1019 291 1003 256L1035 408C1039 425 1041 438 1041 450C1041 470 1033 482 1018 482C997 482 959 461 885 408L857 388L864 368L896 389C924 407 935 412 944 412C954 412 961 403 961 390C961 332 918 126 878 -2L888 -9C903 -4 919 -1 942 4L955 6L981 126C999 209 1022 262 1066 319C1100 363 1127 384 1149 384C1164 384 1174 379 1185 365ZM1711 473L1704 482L1636 465L1626 414C1611 336 1586 268 1555 221C1496 130 1418 59 1378 59C1370 59 1365 68 1365 85C1365 99 1367 112 1372 137L1429 408C1432 424 1434 438 1434 451C1434 470 1425 482 1411 482C1391 482 1353 461 1279 408L1251 388L1258 368L1290 389C1318 407 1329 412 1338 412C1347 412 1355 403 1355 392C1355 388 1354 378 1353 374L1290 77C1288 68 1286 44 1286 30C1286 7 1301 -11 1321 -11C1384 -11 1505 101 1589 239L1552 97C1545 73 1541 46 1541 31C1541 6 1552 -9 1571 -9C1597 -9 1633 12 1731 85L1721 103L1695 86C1671 70 1645 59 1634 59C1626 59 1621 66 1621 76C1621 112 1696 416 1711 473ZM1805 148C1800 97 1794 62 1783 16C1821 -2 1855 -11 1890 -11C1939 -11 1985 7 2036 47C2087 87 2108 124 2108 174C2108 228 2076 257 2002 271L1959 279C1899 290 1880 307 1880 348C1880 401 1925 442 1982 442C2023 442 2061 424 2077 397L2077 342L2100 342C2104 377 2108 404 2119 455C2080 474 2052 482 2019 482C1967 482 1906 452 1858 404C1832 377 1821 352 1821 316C1821 260 1852 228 1918 215L1981 203C2025 195 2041 177 2041 138C2041 73 1995 29 1924 29C1889 29 1858 40 1830 64L1830 148ZM2287 390L2231 107C2230 99 2218 61 2218 31C2218 6 2229 -9 2248 -9C2283 -9 2318 11 2396 74L2427 99L2417 117L2372 86C2343 66 2323 56 2312 56C2303 56 2298 64 2298 76C2298 102 2312 183 2341 328L2354 390L2461 390L2472 440C2434 436 2400 434 2362 434C2378 528 2389 577 2407 631L2396 646C2376 634 2349 622 2318 610L2293 440C2249 419 2223 408 2205 403L2203 390Z" stroke="rgb(153,0,0)" stroke-opacity="1" stroke-width="8" fill="rgb(153,0,0)" fill-opacity="1"></path></g></g></g></g></g></g></g></svg>
</svg>
