<svg xmlns="http://www.w3.org/2000/svg" xmlns:xlink="http://www.w3.org/1999/xlink" x="0" y="0" width="349.6000061035156" height="159.10000610351562" style="
        width:349.6000061035156px;
        height:159.10000610351562px;
        background: transparent;
        fill: none;
">
        <svg xmlns="http://www.w3.org/2000/svg"/>
        
        <svg xmlns="http://www.w3.org/2000/svg" class="role-diagram-draw-area"><g class="shapes-region" style="stroke: black; fill: none;"><g class="composite-shape"><path class="real" d=" M5.38,11.98 C5.38,8.12 8.5,5 12.36,5 L88.4,5 C92.26,5 95.38,8.12 95.38,11.98 L95.38,32.91 C95.38,36.76 92.26,39.88 88.4,39.88 L12.36,39.88 C8.5,39.88 5.38,36.76 5.38,32.91 Z" style="stroke-width: 1; stroke: rgb(0, 0, 0); stroke-opacity: 0.5; fill: rgb(0, 0, 0); fill-opacity: 0;"/></g><g class="arrow-line"><path class="connection real" stroke-dasharray="" d="  M112.83,46.73 L112.83,105.18" style="stroke: rgb(153, 0, 0); stroke-opacity: 1; stroke-width: 1; fill: none; fill-opacity: 1;"/><g stroke="none" fill="rgb(153,0,0)" fill-opacity="1" transform="matrix(-1.8369701987210297e-16,-1,1,-1.8369701987210297e-16,112.8274701126963,108.1820690976813)" style="stroke: none; fill: rgb(153, 0, 0); stroke-width: 1;"><path d=" M10.72,-5.15 L0,0 L10.72,5.15 L7.12,0 Z"/></g></g><g class="arrow-line"><path class="connection real" stroke-dasharray="" d="  M112.83,46.73 L112.83,19.38" style="stroke: rgb(153, 0, 0); stroke-opacity: 1; stroke-width: 1; fill: none; fill-opacity: 1;"/><g stroke="none" fill="rgb(153,0,0)" fill-opacity="1" transform="matrix(3.061616997868383e-16,1,-1,3.061616997868383e-16,112.82747011269629,16.37587943940045)" style="stroke: none; fill: rgb(153, 0, 0); stroke-width: 1;"><path d=" M10.72,-5.15 L0,0 L10.72,5.15 L7.12,0 Z"/></g></g><g class="arrow-line"><path class="connection real" stroke-dasharray="" d="  M50.38,30.62 L50.38,42.79" style="stroke: rgb(0, 0, 0); stroke-opacity: 0.5; stroke-width: 1; fill: none; fill-opacity: 1;"/></g><g class="composite-shape"><path class="real" d=" M38.28,54.9 C38.28,48.21 43.69,42.79 50.38,42.79 C57.06,42.79 62.48,48.21 62.48,54.9 C62.48,61.58 57.06,67 50.38,67 C43.69,67 38.28,61.58 38.28,54.9 Z" style="stroke-width: 1; stroke: rgb(0, 0, 0); fill: none; fill-opacity: 1;"/></g><g class="arrow-line"><path class="connection real" stroke-dasharray="" d="  M50.38,67 L50.38,104.82" style="stroke: rgb(0, 0, 0); stroke-width: 1; fill: none; fill-opacity: 1;"/></g><g class="arrow-line"><path class="connection real" stroke-dasharray="" d="  M50.38,67 L56.12,81.55" style="stroke: rgb(0, 0, 0); stroke-width: 1; fill: none; fill-opacity: 1;"/></g><g class="arrow-line"><path class="connection real" stroke-dasharray="" d="  M50.38,67 L45.26,81.16" style="stroke: rgb(0, 0, 0); stroke-width: 1; fill: none; fill-opacity: 1;"/></g><g class="arrow-line"><path class="connection real" stroke-dasharray="" d="  M50.38,104.82 L54.75,115.89 L56.12,119.37" style="stroke: rgb(0, 0, 0); stroke-width: 1; fill: none; fill-opacity: 1;"/></g><g class="arrow-line"><path class="connection real" stroke-dasharray="" d="  M50.38,104.82 L44.87,119.18" style="stroke: rgb(0, 0, 0); stroke-width: 1; fill: none; fill-opacity: 1;"/></g><g class="composite-shape"><path class="real" d=" M16.67,36.57 C15.88,34.67 15.47,32.68 15.47,30.62 C15.47,18.04 31.1,7.83 50.38,7.83 C69.66,7.83 85.29,18.04 85.29,30.62 C85.29,32.68 84.87,34.67 84.09,36.57 L50.38,30.62 Z" style="stroke-width: 1; stroke: none; stroke-opacity: 1; fill: rgb(153, 0, 0); fill-opacity: 0.5;"/><path class="real" d=" M16.67,36.57 C15.88,34.67 15.47,32.68 15.47,30.62 C15.47,18.04 31.1,7.83 50.38,7.83 C69.66,7.83 85.29,18.04 85.29,30.62 C85.29,32.68 84.87,34.67 84.09,36.57" style="stroke-width: 1; stroke: rgb(153, 0, 0); stroke-opacity: 1; fill: none; fill-opacity: 0.5;"/></g><g class="arrow-line"><path class="connection real" stroke-dasharray="" d="  M15.52,36.6 L49.91,30.54" style="stroke: rgb(153, 0, 0); stroke-opacity: 1; stroke-width: 1; fill: none; fill-opacity: 1;"/></g><g class="arrow-line"><path class="connection real" stroke-dasharray="" d="  M84.3,36.6 L49.91,30.54" style="stroke: rgb(153, 0, 0); stroke-opacity: 1; stroke-width: 1; fill: none; fill-opacity: 1;"/></g><g class="composite-shape"><path class="real" d=" M111.29,46.73 C111.29,45.89 111.98,45.2 112.83,45.2 C113.68,45.2 114.36,45.89 114.36,46.73 C114.36,47.58 113.68,48.27 112.83,48.27 C111.98,48.27 111.29,47.58 111.29,46.73 Z" style="stroke-width: 1; stroke: rgb(0, 0, 0); fill: rgb(0, 0, 0); fill-opacity: 1;"/></g><g class="composite-shape"><path class="real" d=" M194.4,51.79 C194.4,44.99 199.91,39.48 206.7,39.48 L243.62,39.48 C250.41,39.48 255.92,44.99 255.92,51.79 L255.92,111.94 C255.92,118.74 250.41,124.24 243.62,124.24 L206.7,124.24 C199.91,124.24 194.4,118.74 194.4,111.94 Z" style="stroke-width: 1; stroke: rgb(0, 0, 0); stroke-opacity: 0.5; fill: rgb(0, 0, 0); fill-opacity: 0;"/></g><g class="arrow-line"><path class="connection real" stroke-dasharray="" d="  M287.45,46.38 L287.45,104.83" style="stroke: rgb(153, 0, 0); stroke-opacity: 1; stroke-width: 1; fill: none; fill-opacity: 1;"/><g stroke="none" fill="rgb(153,0,0)" fill-opacity="1" transform="matrix(-1.8369701987210297e-16,-1,1,-1.8369701987210297e-16,287.44877112601733,107.82663006956511)" style="stroke: none; fill: rgb(153, 0, 0); stroke-width: 1;"><path d=" M10.72,-5.15 L0,0 L10.72,5.15 L7.12,0 Z"/></g></g><g class="arrow-line"><path class="connection real" stroke-dasharray="" d="  M287.45,46.38 L287.45,19.02" style="stroke: rgb(153, 0, 0); stroke-opacity: 1; stroke-width: 1; fill: none; fill-opacity: 1;"/><g stroke="none" fill="rgb(153,0,0)" fill-opacity="1" transform="matrix(3.061616997868383e-16,1,-1,3.061616997868383e-16,287.44877112601733,16.020440411284255)" style="stroke: none; fill: rgb(153, 0, 0); stroke-width: 1;"><path d=" M10.72,-5.15 L0,0 L10.72,5.15 L7.12,0 Z"/></g></g><g class="arrow-line"><path class="connection real" stroke-dasharray="" d="  M225,30.27 L225,42.44" style="stroke: rgb(0, 0, 0); stroke-opacity: 0.5; stroke-width: 1; fill: none; fill-opacity: 1;"/></g><g class="composite-shape"><path class="real" d=" M212.9,54.54 C212.9,47.86 218.32,42.44 225,42.44 C231.68,42.44 237.1,47.86 237.1,54.54 C237.1,61.23 231.68,66.64 225,66.64 C218.32,66.64 212.9,61.23 212.9,54.54 Z" style="stroke-width: 1; stroke: rgb(0, 0, 0); fill: none; fill-opacity: 1;"/></g><g class="arrow-line"><path class="connection real" stroke-dasharray="" d="  M225,66.64 L225,104.47" style="stroke: rgb(0, 0, 0); stroke-width: 1; fill: none; fill-opacity: 1;"/></g><g class="arrow-line"><path class="connection real" stroke-dasharray="" d="  M225,66.64 L230.74,81.19" style="stroke: rgb(0, 0, 0); stroke-width: 1; fill: none; fill-opacity: 1;"/></g><g class="arrow-line"><path class="connection real" stroke-dasharray="" d="  M225,66.64 L219.88,80.8" style="stroke: rgb(0, 0, 0); stroke-width: 1; fill: none; fill-opacity: 1;"/></g><g class="arrow-line"><path class="connection real" stroke-dasharray="" d="  M225,104.47 L229.37,115.53 L230.74,119.01" style="stroke: rgb(0, 0, 0); stroke-width: 1; fill: none; fill-opacity: 1;"/></g><g class="arrow-line"><path class="connection real" stroke-dasharray="" d="  M225,104.47 L219.49,118.82" style="stroke: rgb(0, 0, 0); stroke-width: 1; fill: none; fill-opacity: 1;"/></g><g class="composite-shape"><path class="real" d=" M191.29,36.21 C190.5,34.32 190.09,32.33 190.09,30.27 C190.09,17.68 205.72,7.48 225,7.48 C244.28,7.48 259.91,17.68 259.91,30.27 C259.91,32.33 259.5,34.32 258.71,36.21 L225,30.27 Z" style="stroke-width: 1; stroke: none; stroke-opacity: 1; fill: rgb(153, 0, 0); fill-opacity: 0.5;"/><path class="real" d=" M191.29,36.21 C190.5,34.32 190.09,32.33 190.09,30.27 C190.09,17.68 205.72,7.48 225,7.48 C244.28,7.48 259.91,17.68 259.91,30.27 C259.91,32.33 259.5,34.32 258.71,36.21" style="stroke-width: 1; stroke: rgb(153, 0, 0); stroke-opacity: 1; fill: none; fill-opacity: 0.5;"/></g><g class="arrow-line"><path class="connection real" stroke-dasharray="" d="  M190.15,36.24 L224.53,30.18" style="stroke: rgb(153, 0, 0); stroke-opacity: 1; stroke-width: 1; fill: none; fill-opacity: 1;"/></g><g class="arrow-line"><path class="connection real" stroke-dasharray="" d="  M258.92,36.24 L224.53,30.18" style="stroke: rgb(153, 0, 0); stroke-opacity: 1; stroke-width: 1; fill: none; fill-opacity: 1;"/></g><g class="composite-shape"><path class="real" d=" M285.91,46.38 C285.91,45.53 286.6,44.84 287.45,44.84 C288.3,44.84 288.98,45.53 288.98,46.38 C288.98,47.23 288.3,47.92 287.45,47.92 C286.6,47.92 285.91,47.23 285.91,46.38 Z" style="stroke-width: 1; stroke: rgb(0, 0, 0); fill: rgb(0, 0, 0); fill-opacity: 1;"/></g><g class="arrow-line"><path class="connection real" stroke-dasharray="" d="  M112.83,108.18 L112.83,137.12" style="stroke: rgb(153, 0, 0); stroke-opacity: 1; stroke-width: 1; fill: none; fill-opacity: 1;"/><g stroke="none" fill="rgb(153,0,0)" fill-opacity="1" transform="matrix(-1.8369701987210297e-16,-1,1,-1.8369701987210297e-16,112.8274701126963,140.12455975118064)" style="stroke: none; fill: rgb(153, 0, 0); stroke-width: 1;"><path d=" M10.72,-5.15 L0,0 L10.72,5.15 L7.12,0 Z"/></g></g><g/></g><g/><g/><g/></svg>
        <svg xmlns="http://www.w3.org/2000/svg" xmlns:xlink="http://www.w3.org/1999/xlink" width="348" height="157.5" style="width:348px;height:157.5px;font-family:Asana-Math, Asana;background:transparent;"><g><g><g><g><g><g><g transform="matrix(1,0,0,1,123.73748779296875,107.71250915527344)"><path transform="matrix(0.017,0,0,-0.017,0,0)" d="M167 420C188 420 201 421 226 424C171 350 72 266 72 126C72 44 107 -11 160 -11C224 -11 276 44 350 187C341 143 338 118 338 95C338 32 367 -11 412 -11C546 -11 699 238 699 384C699 441 673 482 637 482C624 482 612 478 604 470L554 423L565 404C574 410 583 413 592 413C619 413 635 390 635 350C635 205 538 39 453 39C424 39 403 79 403 134C403 181 412 247 424 290L476 474L469 482L395 460L366 311C354 249 340 209 311 155C271 80 233 39 203 39C168 39 145 78 145 136C145 255 186 352 285 464L275 482C255 473 242 470 214 470C186 470 144 472 115 475L103 476C97 477 92 477 91 477C79 477 70 475 59 470C45 443 34 407 21 352L43 352L60 394C67 411 87 422 111 422C145 422 128 420 167 420Z" stroke="rgb(153,0,0)" stroke-opacity="1" stroke-width="8" fill="rgb(153,0,0)" fill-opacity="1"></path></g></g></g></g><svg x="123.73748779296875" overflow="visible" y="88.71250915527344" height="10" width="13.112500190734863"><path d=" M 13.11 4.85 l -3.15 -3.32 l -0.49 0.52 l 1.93 2.33 h -0.15 v 0.90 h 0.15 l -1.93 2.33 l 0.49 0.52 z  M 1.68 5.23 h 10.97 v -0.90 h -10.97 z" style="fill:rgb(153,0,0);fill-opacity:1;stroke-width:1px;stroke:none;stroke-opacity:1;"></path></svg></g><g><g><g><g><g transform="matrix(1,0,0,1,136.5,113.4124969482422)"><path transform="matrix(0.0119,0,0,-0.0119,0,0)" d="M176 -11C232 -11 347 62 390 125C431 186 465 296 465 371C465 438 442 482 406 482C364 482 311 456 259 409C218 374 198 348 162 289L186 408C189 425 191 440 191 452C191 471 183 482 169 482C148 482 110 461 36 408L8 388L15 368L47 389C75 407 86 412 95 412C105 412 112 403 112 389C112 381 110 361 108 351L50 8C40 -52 21 -143 1 -233L-7 -270L0 -276C21 -269 41 -264 73 -259L115 3C136 -4 158 -11 176 -11ZM143 165C165 293 272 424 355 424C381 424 393 402 393 356C393 275 353 156 300 80C280 51 248 36 207 36C176 36 151 43 125 59ZM827 111L803 94C750 56 702 36 666 36C619 36 590 73 590 133C590 158 593 185 598 214C615 218 724 248 749 259C834 296 873 342 873 404C873 451 839 482 789 482C721 496 611 423 574 349C544 299 514 180 514 113C514 35 558 -11 630 -11C687 -11 743 17 835 92ZM612 274C629 343 649 386 678 412C696 428 727 440 751 440C780 440 799 420 799 388C799 344 764 297 712 272C684 258 648 247 603 237ZM1255 365C1258 403 1263 435 1271 476C1260 481 1256 482 1251 482C1220 482 1189 458 1153 407C1114 351 1075 291 1059 256L1091 408C1095 425 1097 438 1097 450C1097 470 1089 482 1074 482C1053 482 1015 461 941 408L913 388L920 368L952 389C980 407 991 412 1000 412C1010 412 1017 403 1017 390C1017 332 974 126 934 -2L944 -9C959 -4 975 -1 998 4L1011 6L1037 126C1055 209 1078 262 1122 319C1156 363 1183 384 1205 384C1220 384 1230 379 1241 365ZM1306 148C1301 97 1295 62 1284 16C1322 -2 1356 -11 1391 -11C1440 -11 1486 7 1537 47C1588 87 1609 124 1609 174C1609 228 1577 257 1503 271L1460 279C1400 290 1381 307 1381 348C1381 401 1426 442 1483 442C1524 442 1562 424 1578 397L1578 342L1601 342C1605 377 1609 404 1620 455C1581 474 1553 482 1520 482C1468 482 1407 452 1359 404C1333 377 1322 352 1322 316C1322 260 1353 228 1419 215L1482 203C1526 195 1542 177 1542 138C1542 73 1496 29 1425 29C1390 29 1359 40 1331 64L1331 148ZM1680 152C1680 46 1725 -11 1808 -11C1863 -11 1923 15 1968 57C2030 116 2074 230 2074 331C2074 425 2024 482 1941 482C1837 482 1680 382 1680 152ZM1904 444C1965 444 1998 399 1998 315C1998 219 1967 113 1923 60C1905 39 1879 27 1848 27C1790 27 1756 72 1756 151C1756 264 1795 387 1844 427C1857 438 1880 444 1904 444ZM2130 388L2137 368L2169 389C2206 412 2209 414 2216 414C2227 414 2234 404 2234 389C2234 338 2193 145 2152 2L2159 -9C2184 -2 2207 4 2229 8C2248 134 2269 199 2315 268C2369 352 2444 414 2489 414C2500 414 2506 405 2506 390C2506 372 2503 351 2495 319L2443 107C2434 70 2430 47 2430 31C2430 6 2441 -9 2460 -9C2486 -9 2522 12 2620 85L2610 103L2584 86C2555 67 2533 56 2523 56C2516 56 2510 65 2510 76C2510 81 2511 92 2512 96L2578 372C2585 401 2589 429 2589 446C2589 469 2578 482 2558 482C2516 482 2447 444 2388 389C2350 354 2322 320 2270 247L2308 408C2312 426 2314 438 2314 449C2314 470 2306 482 2291 482C2270 482 2231 460 2158 408Z" stroke="rgb(153,0,0)" stroke-opacity="1" stroke-width="8" fill="rgb(153,0,0)" fill-opacity="1"></path></g></g></g></g></g></g></g><g><g><g><g><g><g><g transform="matrix(1,0,0,1,123.73748779296875,35.11250305175781)"><path transform="matrix(0.017,0,0,-0.017,0,0)" d="M286 646L392 650C454 650 494 641 495 626L503 537L527 537C530 600 537 651 548 689C526 691 498 692 481 692L440 691L275 689L246 689C221 689 181 690 143 691L94 692L91 664L147 662C171 661 182 652 182 635C182 621 178 589 173 559L98 125C81 33 81 32 40 28L4 25L0 -3L34 -2C74 -1 106 0 127 0C145 0 174 -1 213 -2L265 -3L268 25L204 28C177 29 168 37 168 57C168 63 169 74 170 78L206 301L323 301C350 301 381 300 429 298L455 297L474 342L470 349C389 345 329 343 251 343L214 343L260 614C263 630 264 635 269 646Z" stroke="rgb(153,0,0)" stroke-opacity="1" stroke-width="8" fill="rgb(153,0,0)" fill-opacity="1"></path></g></g></g></g><svg x="123.73748779296875" overflow="visible" y="12.112503051757812" height="10" width="10.287500381469727"><path d=" M 10.29 4.85 l -3.15 -3.32 l -0.49 0.52 l 1.93 2.33 h -0.15 v 0.90 h 0.15 l -1.93 2.33 l 0.49 0.52 z  M 1.68 5.23 h 8.15 v -0.90 h -8.15 z" style="fill:rgb(153,0,0);fill-opacity:1;stroke-width:1px;stroke:none;stroke-opacity:1;"></path></svg></g><g><g><g><g><g transform="matrix(1,0,0,1,133.67498779296875,40.81249847412109)"><path transform="matrix(0.0119,0,0,-0.0119,0,0)" d="M271 204L242 77C238 60 236 42 236 26C236 4 245 -9 260 -9C283 -9 324 17 406 85L399 106C375 86 346 59 324 59C315 59 309 68 309 82C309 87 309 90 310 93L402 472L392 481L359 463C318 478 301 482 274 482C246 482 226 477 199 464C137 433 104 403 79 354C35 265 4 145 4 67C4 23 19 -11 38 -11C75 -11 155 41 271 204ZM319 414C297 305 278 253 244 201C187 117 126 59 94 59C82 59 76 72 76 99C76 163 104 280 139 360C163 415 186 433 234 433C257 433 275 429 319 414ZM477 388L484 368L516 389C553 412 556 414 563 414C573 414 581 404 581 391C581 384 577 361 573 347L507 107C499 76 494 49 494 30C494 6 505 -9 524 -9C550 -9 586 12 684 85L674 103L648 86C619 67 596 56 587 56C580 56 574 66 574 76C574 86 576 95 581 116L658 420C662 437 664 448 664 456C664 473 655 482 639 482C617 482 580 461 505 408ZM671 712C642 712 613 679 613 645C613 620 628 604 652 604C683 604 707 633 707 671C707 695 692 712 671 712ZM1088 365C1091 403 1096 435 1104 476C1093 481 1089 482 1084 482C1053 482 1022 458 986 407C947 351 908 291 892 256L924 408C928 425 930 438 930 450C930 470 922 482 907 482C886 482 848 461 774 408L746 388L753 368L785 389C813 407 824 412 833 412C843 412 850 403 850 390C850 332 807 126 767 -2L777 -9C792 -4 808 -1 831 4L844 6L870 126C888 209 911 262 955 319C989 363 1016 384 1038 384C1053 384 1063 379 1074 365Z" stroke="rgb(153,0,0)" stroke-opacity="1" stroke-width="8" fill="rgb(153,0,0)" fill-opacity="1"></path></g></g></g></g></g></g></g><g><g><g><g><g><g><g transform="matrix(1,0,0,1,298.36248779296875,106.35000610351562)"><path transform="matrix(0.017,0,0,-0.017,0,0)" d="M167 420C188 420 201 421 226 424C171 350 72 266 72 126C72 44 107 -11 160 -11C224 -11 276 44 350 187C341 143 338 118 338 95C338 32 367 -11 412 -11C546 -11 699 238 699 384C699 441 673 482 637 482C624 482 612 478 604 470L554 423L565 404C574 410 583 413 592 413C619 413 635 390 635 350C635 205 538 39 453 39C424 39 403 79 403 134C403 181 412 247 424 290L476 474L469 482L395 460L366 311C354 249 340 209 311 155C271 80 233 39 203 39C168 39 145 78 145 136C145 255 186 352 285 464L275 482C255 473 242 470 214 470C186 470 144 472 115 475L103 476C97 477 92 477 91 477C79 477 70 475 59 470C45 443 34 407 21 352L43 352L60 394C67 411 87 422 111 422C145 422 128 420 167 420Z" stroke="rgb(153,0,0)" stroke-opacity="1" stroke-width="8" fill="rgb(153,0,0)" fill-opacity="1"></path></g></g></g></g><svg x="298.36248779296875" overflow="visible" y="87.35000610351562" height="10" width="13.112500190734863"><path d=" M 13.11 4.85 l -3.15 -3.32 l -0.49 0.52 l 1.93 2.33 h -0.15 v 0.90 h 0.15 l -1.93 2.33 l 0.49 0.52 z  M 1.68 5.23 h 10.97 v -0.90 h -10.97 z" style="fill:rgb(153,0,0);fill-opacity:1;stroke-width:1px;stroke:none;stroke-opacity:1;"></path></svg></g><g><g><g><g><g transform="matrix(1,0,0,1,311.125,112.05000915527344)"><path transform="matrix(0.0119,0,0,-0.0119,0,0)" d="M176 -11C232 -11 347 62 390 125C431 186 465 296 465 371C465 438 442 482 406 482C364 482 311 456 259 409C218 374 198 348 162 289L186 408C189 425 191 440 191 452C191 471 183 482 169 482C148 482 110 461 36 408L8 388L15 368L47 389C75 407 86 412 95 412C105 412 112 403 112 389C112 381 110 361 108 351L50 8C40 -52 21 -143 1 -233L-7 -270L0 -276C21 -269 41 -264 73 -259L115 3C136 -4 158 -11 176 -11ZM143 165C165 293 272 424 355 424C381 424 393 402 393 356C393 275 353 156 300 80C280 51 248 36 207 36C176 36 151 43 125 59ZM827 111L803 94C750 56 702 36 666 36C619 36 590 73 590 133C590 158 593 185 598 214C615 218 724 248 749 259C834 296 873 342 873 404C873 451 839 482 789 482C721 496 611 423 574 349C544 299 514 180 514 113C514 35 558 -11 630 -11C687 -11 743 17 835 92ZM612 274C629 343 649 386 678 412C696 428 727 440 751 440C780 440 799 420 799 388C799 344 764 297 712 272C684 258 648 247 603 237ZM1255 365C1258 403 1263 435 1271 476C1260 481 1256 482 1251 482C1220 482 1189 458 1153 407C1114 351 1075 291 1059 256L1091 408C1095 425 1097 438 1097 450C1097 470 1089 482 1074 482C1053 482 1015 461 941 408L913 388L920 368L952 389C980 407 991 412 1000 412C1010 412 1017 403 1017 390C1017 332 974 126 934 -2L944 -9C959 -4 975 -1 998 4L1011 6L1037 126C1055 209 1078 262 1122 319C1156 363 1183 384 1205 384C1220 384 1230 379 1241 365ZM1306 148C1301 97 1295 62 1284 16C1322 -2 1356 -11 1391 -11C1440 -11 1486 7 1537 47C1588 87 1609 124 1609 174C1609 228 1577 257 1503 271L1460 279C1400 290 1381 307 1381 348C1381 401 1426 442 1483 442C1524 442 1562 424 1578 397L1578 342L1601 342C1605 377 1609 404 1620 455C1581 474 1553 482 1520 482C1468 482 1407 452 1359 404C1333 377 1322 352 1322 316C1322 260 1353 228 1419 215L1482 203C1526 195 1542 177 1542 138C1542 73 1496 29 1425 29C1390 29 1359 40 1331 64L1331 148ZM1680 152C1680 46 1725 -11 1808 -11C1863 -11 1923 15 1968 57C2030 116 2074 230 2074 331C2074 425 2024 482 1941 482C1837 482 1680 382 1680 152ZM1904 444C1965 444 1998 399 1998 315C1998 219 1967 113 1923 60C1905 39 1879 27 1848 27C1790 27 1756 72 1756 151C1756 264 1795 387 1844 427C1857 438 1880 444 1904 444ZM2130 388L2137 368L2169 389C2206 412 2209 414 2216 414C2227 414 2234 404 2234 389C2234 338 2193 145 2152 2L2159 -9C2184 -2 2207 4 2229 8C2248 134 2269 199 2315 268C2369 352 2444 414 2489 414C2500 414 2506 405 2506 390C2506 372 2503 351 2495 319L2443 107C2434 70 2430 47 2430 31C2430 6 2441 -9 2460 -9C2486 -9 2522 12 2620 85L2610 103L2584 86C2555 67 2533 56 2523 56C2516 56 2510 65 2510 76C2510 81 2511 92 2512 96L2578 372C2585 401 2589 429 2589 446C2589 469 2578 482 2558 482C2516 482 2447 444 2388 389C2350 354 2322 320 2270 247L2308 408C2312 426 2314 438 2314 449C2314 470 2306 482 2291 482C2270 482 2231 460 2158 408Z" stroke="rgb(153,0,0)" stroke-opacity="1" stroke-width="8" fill="rgb(153,0,0)" fill-opacity="1"></path></g></g></g></g></g></g></g><g><g><g><g><g><g><g transform="matrix(1,0,0,1,298.36248779296875,34.75)"><path transform="matrix(0.017,0,0,-0.017,0,0)" d="M390 646L463 646C541 646 577 641 580 629C583 621 585 602 584 592L580 528L608 528L635 692L544 691C456 690 388 689 353 689C316 689 252 690 166 691L71 692L53 528L82 528L97 588C102 610 109 626 115 633C121 640 159 646 196 646L308 646L222 125C206 34 204 31 164 28L113 25L109 -3L166 -2C206 -1 235 0 251 0C270 0 301 -1 340 -2L384 -3L387 25L328 28C302 29 292 37 292 58C292 67 293 74 296 93Z" stroke="rgb(153,0,0)" stroke-opacity="1" stroke-width="8" fill="rgb(153,0,0)" fill-opacity="1"></path></g></g></g></g><svg x="298.36248779296875" overflow="visible" y="11.75" height="10" width="11.225000381469727"><path d=" M 11.23 4.85 l -3.15 -3.32 l -0.49 0.52 l 1.93 2.33 h -0.15 v 0.90 h 0.15 l -1.93 2.33 l 0.49 0.52 z  M 1.68 5.23 h 9.08 v -0.90 h -9.08 z" style="fill:rgb(153,0,0);fill-opacity:1;stroke-width:1px;stroke:none;stroke-opacity:1;"></path></svg></g></g></g><g><g><g><g><g><g><g transform="matrix(1,0,0,1,123.3375244140625,142.91250610351562)"><path transform="matrix(0.017,0,0,-0.017,0,0)" d="M167 420C188 420 201 421 226 424C171 350 72 266 72 126C72 44 107 -11 160 -11C224 -11 276 44 350 187C341 143 338 118 338 95C338 32 367 -11 412 -11C546 -11 699 238 699 384C699 441 673 482 637 482C624 482 612 478 604 470L554 423L565 404C574 410 583 413 592 413C619 413 635 390 635 350C635 205 538 39 453 39C424 39 403 79 403 134C403 181 412 247 424 290L476 474L469 482L395 460L366 311C354 249 340 209 311 155C271 80 233 39 203 39C168 39 145 78 145 136C145 255 186 352 285 464L275 482C255 473 242 470 214 470C186 470 144 472 115 475L103 476C97 477 92 477 91 477C79 477 70 475 59 470C45 443 34 407 21 352L43 352L60 394C67 411 87 422 111 422C145 422 128 420 167 420Z" stroke="rgb(153,0,0)" stroke-opacity="1" stroke-width="8" fill="rgb(153,0,0)" fill-opacity="1"></path></g></g></g></g><svg x="123.3375244140625" overflow="visible" y="123.91250610351562" height="10" width="13.112500190734863"><path d=" M 13.11 4.85 l -3.15 -3.32 l -0.49 0.52 l 1.93 2.33 h -0.15 v 0.90 h 0.15 l -1.93 2.33 l 0.49 0.52 z  M 1.68 5.23 h 10.97 v -0.90 h -10.97 z" style="fill:rgb(153,0,0);fill-opacity:1;stroke-width:1px;stroke:none;stroke-opacity:1;"></path></svg></g><g><g><g><g><g transform="matrix(1,0,0,1,136.10003662109375,148.61250915527344)"><path transform="matrix(0.0119,0,0,-0.0119,0,0)" d="M176 -11C232 -11 347 62 390 125C431 186 465 296 465 371C465 438 442 482 406 482C364 482 311 456 259 409C218 374 198 348 162 289L186 408C189 425 191 440 191 452C191 471 183 482 169 482C148 482 110 461 36 408L8 388L15 368L47 389C75 407 86 412 95 412C105 412 112 403 112 389C112 381 110 361 108 351L50 8C40 -52 21 -143 1 -233L-7 -270L0 -276C21 -269 41 -264 73 -259L115 3C136 -4 158 -11 176 -11ZM143 165C165 293 272 424 355 424C381 424 393 402 393 356C393 275 353 156 300 80C280 51 248 36 207 36C176 36 151 43 125 59ZM770 204L741 77C737 60 735 42 735 26C735 4 744 -9 759 -9C782 -9 823 17 905 85L898 106C874 86 845 59 823 59C814 59 808 68 808 82C808 87 808 90 809 93L901 472L891 481L858 463C817 478 800 482 773 482C745 482 725 477 698 464C636 433 603 403 578 354C534 265 503 145 503 67C503 23 518 -11 537 -11C574 -11 654 41 770 204ZM818 414C796 305 777 253 743 201C686 117 625 59 593 59C581 59 575 72 575 99C575 163 603 280 638 360C662 415 685 433 733 433C756 433 774 429 818 414ZM1310 365C1313 403 1318 435 1326 476C1315 481 1311 482 1306 482C1275 482 1244 458 1208 407C1169 351 1130 291 1114 256L1146 408C1150 425 1152 438 1152 450C1152 470 1144 482 1129 482C1108 482 1070 461 996 408L968 388L975 368L1007 389C1035 407 1046 412 1055 412C1065 412 1072 403 1072 390C1072 332 1029 126 989 -2L999 -9C1014 -4 1030 -1 1053 4L1066 6L1092 126C1110 209 1133 262 1177 319C1211 363 1238 384 1260 384C1275 384 1285 379 1296 365ZM1601 204L1572 77C1568 60 1566 42 1566 26C1566 4 1575 -9 1590 -9C1613 -9 1654 17 1736 85L1729 106C1705 86 1676 59 1654 59C1645 59 1639 68 1639 82C1639 87 1639 90 1640 93L1732 472L1722 481L1689 463C1648 478 1631 482 1604 482C1576 482 1556 477 1529 464C1467 433 1434 403 1409 354C1365 265 1334 145 1334 67C1334 23 1349 -11 1368 -11C1405 -11 1485 41 1601 204ZM1649 414C1627 305 1608 253 1574 201C1517 117 1456 59 1424 59C1412 59 1406 72 1406 99C1406 163 1434 280 1469 360C1493 415 1516 433 1564 433C1587 433 1605 429 1649 414ZM2115 330L2138 330C2146 395 2153 432 2162 458C2138 473 2103 482 2066 482C2021 483 1948 463 1891 400C1837 352 1798 241 1798 136C1798 40 1840 -11 1920 -11C1974 -11 2022 9 2077 54L2127 95L2119 115L2104 105C2032 57 1994 40 1959 40C1903 40 1874 80 1874 159C1874 267 1909 371 1958 409C1979 425 2003 433 2034 433C2079 433 2115 414 2115 390ZM2415 722L2403 733C2358 711 2317 697 2243 691L2239 670L2287 670C2305 670 2321 667 2321 647C2321 641 2321 632 2319 622L2277 388C2257 272 2215 80 2189 2L2196 -9L2265 7C2273 64 2287 164 2327 236C2372 317 2475 414 2517 414C2528 414 2539 407 2539 393C2539 375 2534 342 2524 303L2473 107C2467 85 2460 55 2460 31C2460 6 2470 -9 2491 -9C2523 -9 2591 41 2650 85L2640 103L2614 86C2591 71 2565 56 2553 56C2546 56 2540 65 2540 76C2540 88 2543 101 2547 116L2611 372C2617 398 2622 423 2622 447C2622 464 2616 482 2590 482C2555 482 2478 437 2410 374C2377 343 2351 308 2323 273L2319 275ZM3170 473L3163 482L3095 465L3085 414C3070 336 3045 268 3014 221C2955 130 2877 59 2837 59C2829 59 2824 68 2824 85C2824 99 2826 112 2831 137L2888 408C2891 424 2893 438 2893 451C2893 470 2884 482 2870 482C2850 482 2812 461 2738 408L2710 388L2717 368L2749 389C2777 407 2788 412 2797 412C2806 412 2814 403 2814 392C2814 388 2813 378 2812 374L2749 77C2747 68 2745 44 2745 30C2745 7 2760 -11 2780 -11C2843 -11 2964 101 3048 239L3011 97C3004 73 3000 46 3000 31C3000 6 3011 -9 3030 -9C3056 -9 3092 12 3190 85L3180 103L3154 86C3130 70 3104 59 3093 59C3085 59 3080 66 3080 76C3080 112 3155 416 3170 473ZM3358 390L3302 107C3301 99 3289 61 3289 31C3289 6 3300 -9 3319 -9C3354 -9 3389 11 3467 74L3498 99L3488 117L3443 86C3414 66 3394 56 3383 56C3374 56 3369 64 3369 76C3369 102 3383 183 3412 328L3425 390L3532 390L3543 440C3505 436 3471 434 3433 434C3449 528 3460 577 3478 631L3467 646C3447 634 3420 622 3389 610L3364 440C3320 419 3294 408 3276 403L3274 390ZM3893 111L3869 94C3816 56 3768 36 3732 36C3685 36 3656 73 3656 133C3656 158 3659 185 3664 214C3681 218 3790 248 3815 259C3900 296 3939 342 3939 404C3939 451 3905 482 3855 482C3787 496 3677 423 3640 349C3610 299 3580 180 3580 113C3580 35 3624 -11 3696 -11C3753 -11 3809 17 3901 92ZM3678 274C3695 343 3715 386 3744 412C3762 428 3793 440 3817 440C3846 440 3865 420 3865 388C3865 344 3830 297 3778 272C3750 258 3714 247 3669 237Z" stroke="rgb(153,0,0)" stroke-opacity="1" stroke-width="8" fill="rgb(153,0,0)" fill-opacity="1"></path></g></g></g></g></g></g></g></svg>
</svg>
