<svg xmlns="http://www.w3.org/2000/svg" width="329.6" height="112.6" style="width:329.6000061035156px;height:112.5999984741211px;background:#fff;fill:none"><svg xmlns="http://www.w3.org/2000/svg"/><svg xmlns="http://www.w3.org/2000/svg" class="role-diagram-draw-area"><g class="shapes-region" style="stroke:#000;fill:none"><g class="composite-shape"><defs><pattern id="_pgf0v784ctmr" width="11.314" height="11.314" x="0" y="0" patternTransform="rotate(45 0 0)" patternUnits="userSpaceOnUse"><path d="M0 0v11.314M5.657 0v11.314M11.314 0v11.314" style="stroke:#f5eaea;stroke-opacity:1;stroke-width:1;fill:none"/></pattern></defs><path d="M49.27 11.68h6.5v6.5h-6.5Z" class="real" style="stroke-width:1;stroke:#900;stroke-opacity:1;fill:url(#_pgf0v784ctmr);fill-opacity:1"/></g><g class="composite-shape"><defs><pattern id="_pgfncstbp9yt" width="11.314" height="11.314" x="0" y="0" patternTransform="rotate(45 0 0)" patternUnits="userSpaceOnUse"><path d="M0 0v11.314M5.657 0v11.314M11.314 0v11.314" style="stroke:#eee;stroke-opacity:1;stroke-width:1;fill:none"/></pattern></defs><path d="M12.99 58.26c0-21.94 17.78-39.73 39.72-39.73s39.72 17.79 39.72 39.73c0 21.93-17.78 39.72-39.72 39.72S12.99 80.19 12.99 58.26Z" class="real" style="stroke-width:1;stroke:#000;fill:url(#_pgfncstbp9yt);fill-opacity:1"/></g><g class="arrow-line"><path d="M52.71 14.93v29.55" class="connection real" style="stroke:#900;stroke-opacity:1;stroke-width:1;fill:none;fill-opacity:1"/><path fill="#900" stroke="none" d="M10.72-5.15 0 0l10.72 5.15L7.12 0Z" style="stroke:none;fill:#900;stroke-width:1" transform="rotate(-90 50.096 -2.616)"/></g><g class="composite-shape"><defs><pattern id="_pgf3k1s2ass8" width="11.314" height="11.314" x="0" y="0" patternTransform="rotate(45 0 0)" patternUnits="userSpaceOnUse"><path d="M0 0v11.314M5.657 0v11.314M11.314 0v11.314" style="stroke:#f5eaea;stroke-opacity:1;stroke-width:1;fill:none"/></pattern></defs><path d="M156.28 12.08h6.5v6.5h-6.5Z" class="real" style="stroke-width:1;stroke:#900;stroke-opacity:1;fill:url(#_pgf3k1s2ass8);fill-opacity:1"/></g><g class="composite-shape"><defs><pattern id="_pgfqbvu729wx" width="11.314" height="11.314" x="0" y="0" patternTransform="rotate(45 0 0)" patternUnits="userSpaceOnUse"><path d="M0 0v11.314M5.657 0v11.314M11.314 0v11.314" style="stroke:#eee;stroke-opacity:1;stroke-width:1;fill:none"/></pattern></defs><path d="M120 58.66c0-21.94 17.78-39.73 39.72-39.73s39.72 17.79 39.72 39.73c0 21.93-17.78 39.72-39.72 39.72S120 80.59 120 58.66Z" class="real" style="stroke-width:1;stroke:#000;fill:url(#_pgfqbvu729wx);fill-opacity:1"/></g><g class="arrow-line"><path d="M159.72 15.33v13.55" class="connection real" style="stroke:#900;stroke-opacity:1;stroke-width:1;fill:none;fill-opacity:1"/><path fill="#900" stroke="none" d="M10.72-5.15 0 0l10.72 5.15L7.12 0Z" style="stroke:none;fill:#900;stroke-width:1" transform="rotate(-90 95.801 -63.921)"/></g><g class="composite-shape"><defs><pattern id="_pgf42i22jqm2" width="11.314" height="11.314" x="0" y="0" patternTransform="rotate(45 0 0)" patternUnits="userSpaceOnUse"><path d="M0 0v11.314M5.657 0v11.314M11.314 0v11.314" style="stroke:#f5eaea;stroke-opacity:1;stroke-width:1;fill:none"/></pattern></defs><path d="M266.28 11.68h6.5v6.5h-6.5Z" class="real" style="stroke-width:1;stroke:#900;stroke-opacity:1;fill:url(#_pgf42i22jqm2);fill-opacity:1"/></g><g class="composite-shape"><defs><pattern id="_pgfkf39kwmms" width="11.314" height="11.314" x="0" y="0" patternTransform="rotate(45 0 0)" patternUnits="userSpaceOnUse"><path d="M0 0v11.314M5.657 0v11.314M11.314 0v11.314" style="stroke:#f5eaea;stroke-opacity:1;stroke-width:1;fill:none"/></pattern></defs><path d="M230.4 58.26c0-21.94 17.78-39.73 39.72-39.73s39.72 17.79 39.72 39.73c0 21.93-17.78 39.72-39.72 39.72S230.4 80.19 230.4 58.26Z" class="real" style="stroke-width:1;stroke:#900;stroke-opacity:1;fill:url(#_pgfkf39kwmms);fill-opacity:1"/></g><g class="arrow-line"><path d="M269.72 14.93v56.35" class="connection real" style="stroke:#900;stroke-opacity:1;stroke-width:1;fill:none;fill-opacity:1"/><path fill="#900" stroke="none" d="M10.72-5.15 0 0l10.72 5.15L7.12 0Z" style="stroke:none;fill:#900;stroke-width:1" transform="rotate(-90 172.001 -97.721)"/></g></g></svg><svg xmlns="http://www.w3.org/2000/svg" xmlns:xlink="http://www.w3.org/1999/xlink" width="328" height="111" style="width:328px;height:111px;font-family:Asana-Math,Asana;background:#fff"><path fill="#900" stroke="#900" stroke-width=".136" d="M49.408 60.135c.357 0 .578-.017 1.003-.068-.935 1.258-2.618 2.686-2.618 5.066 0 1.394.595 2.329 1.496 2.329 1.088 0 1.972-.935 3.23-3.366-.153.748-.204 1.173-.204 1.564 0 1.071.493 1.802 1.258 1.802 2.278 0 4.879-4.233 4.879-6.715 0-.969-.442-1.666-1.054-1.666-.221 0-.425.068-.561.204l-.85.799.187.323a.8.8 0 0 1 .459-.153c.459 0 .73.391.73 1.071 0 2.465-1.648 5.287-3.093 5.287-.493 0-.85-.68-.85-1.615 0-.799.153-1.921.357-2.652l.884-3.128-.12-.136-1.257.374-.493 2.533c-.204 1.054-.442 1.734-.935 2.652-.68 1.275-1.326 1.972-1.836 1.972-.595 0-.986-.663-.986-1.649 0-2.023.697-3.672 2.38-5.576l-.17-.306c-.34.153-.561.204-1.037.204s-1.19-.034-1.683-.085l-.204-.017c-.102-.017-.187-.017-.204-.017-.204 0-.357.034-.544.119-.238.459-.425 1.071-.646 2.006h.374l.289-.714c.119-.289.459-.476.867-.476.578 0 .289.034.952.034Z"/><svg width="13.113" height="10" x="46.569" y="48.275" overflow="visible"><path d="M13.11 4.85 9.96 1.53l-.49.52 1.93 2.33h-.15v.9h.15L9.47 7.61l.49.52zm-11.43.38h10.97v-.9H1.68z" style="fill:#900;fill-opacity:1;stroke-width:1px;stroke:none;stroke-opacity:1"/></svg><text x="88.675" y="94.167" style="white-space:pre;stroke:none;fill:#000;fill-opacity:1;font-size:17px;font-family:Asana-Math,Asana;font-weight:400;font-style:normal;dominant-baseline:auto;text-decoration:none">♁</text><path fill="#900" stroke="#900" stroke-width=".136" d="M156.42 44.535c.357 0 .578-.017 1.003-.068-.935 1.258-2.618 2.686-2.618 5.066 0 1.394.595 2.329 1.496 2.329 1.088 0 1.972-.935 3.23-3.366-.153.748-.204 1.173-.204 1.564 0 1.071.493 1.802 1.258 1.802 2.278 0 4.88-4.233 4.88-6.715 0-.969-.443-1.666-1.055-1.666-.22 0-.425.068-.56.204l-.85.799.186.323a.8.8 0 0 1 .46-.153c.458 0 .73.391.73 1.071 0 2.465-1.649 5.287-3.094 5.287-.493 0-.85-.68-.85-1.615 0-.799.153-1.921.357-2.652l.884-3.128-.119-.136-1.258.374-.493 2.533c-.204 1.054-.442 1.734-.935 2.652-.68 1.275-1.326 1.972-1.836 1.972-.595 0-.986-.663-.986-1.649 0-2.023.697-3.672 2.38-5.576l-.17-.306c-.34.153-.56.204-1.037.204s-1.19-.034-1.683-.085l-.204-.017c-.102-.017-.187-.017-.204-.017-.204 0-.357.034-.544.119-.238.459-.425 1.071-.646 2.006h.374l.29-.714c.118-.289.458-.476.866-.476.578 0 .29.034.952.034Z"/><svg width="13.113" height="10" x="153.581" y="32.675" overflow="visible"><path d="M13.11 4.85 9.96 1.53l-.49.52 1.93 2.33h-.15v.9h.15L9.47 7.61l.49.52zm-11.43.38h10.97v-.9H1.68z" style="fill:#900;fill-opacity:1;stroke-width:1px;stroke:none;stroke-opacity:1"/></svg><text x="195.688" y="94.567" style="white-space:pre;stroke:none;fill:#000;fill-opacity:1;font-size:17px;font-family:Asana-Math,Asana;font-weight:400;font-style:normal;dominant-baseline:auto;text-decoration:none">☾</text><path fill="#900" stroke="#900" stroke-width=".136" d="M266.42 85.735c.357 0 .578-.017 1.003-.068-.935 1.258-2.618 2.686-2.618 5.066 0 1.394.595 2.329 1.496 2.329 1.088 0 1.972-.935 3.23-3.366-.153.748-.204 1.173-.204 1.564 0 1.071.493 1.802 1.258 1.802 2.278 0 4.88-4.233 4.88-6.715 0-.969-.443-1.666-1.055-1.666-.22 0-.425.068-.56.204l-.85.799.186.323a.8.8 0 0 1 .46-.153c.458 0 .73.391.73 1.071 0 2.465-1.649 5.287-3.094 5.287-.493 0-.85-.68-.85-1.615 0-.799.153-1.921.357-2.652l.884-3.128-.119-.136-1.258.374-.493 2.533c-.204 1.054-.442 1.734-.935 2.652-.68 1.275-1.326 1.972-1.836 1.972-.595 0-.986-.663-.986-1.649 0-2.023.697-3.672 2.38-5.576l-.17-.306c-.34.153-.56.204-1.037.204s-1.19-.034-1.683-.085l-.204-.017c-.102-.017-.187-.017-.204-.017-.204 0-.357.034-.544.119-.238.459-.425 1.071-.646 2.006h.374l.29-.714c.118-.289.458-.476.866-.476.578 0 .29.034.952.034Z"/><svg width="13.113" height="10" x="263.581" y="73.875" overflow="visible"><path d="M13.11 4.85 9.96 1.53l-.49.52 1.93 2.33h-.15v.9h.15L9.47 7.61l.49.52zm-11.43.38h10.97v-.9H1.68z" style="fill:#900;fill-opacity:1;stroke-width:1px;stroke:none;stroke-opacity:1"/></svg><text x="304.375" y="94.167" style="white-space:pre;stroke:none;fill:#900;fill-opacity:1;font-size:17px;font-family:Asana-Math,Asana;font-weight:400;font-style:normal;dominant-baseline:auto;text-decoration:none">♃</text></svg></svg>