<svg xmlns="http://www.w3.org/2000/svg" xmlns:xlink="http://www.w3.org/1999/xlink" x="0" y="0" width="326.4545593261719" height="110.38636779785156" style="
        width:326.4545593261719px;
        height:110.38636779785156px;
        background: transparent;
        fill: none;
">
        <svg xmlns="http://www.w3.org/2000/svg"/>
        
        <svg xmlns="http://www.w3.org/2000/svg" class="role-diagram-draw-area"><g class="shapes-region" style="stroke: black; fill: none;"><g class="composite-shape"><path class="real" d=" M11.14,35.11 L164.04,96.89 L11.14,96.89 Z" style="stroke-width: 1; stroke: rgb(0, 0, 0); fill: none; fill-opacity: 1;"/></g><g class="composite-shape"><path class="real" d=" M19.6,14.17 L40.54,22.63 L32.08,43.57 L11.14,35.11 Z" style="stroke-width: 1; stroke: rgb(153, 0, 0); stroke-opacity: 1; fill: rgb(153, 0, 0); fill-opacity: 0.55;"/></g><g class="composite-shape"><path class="real" d=" M174.15,65.5 L204.8,65.5 L204.8,96.16 L174.15,96.16 Z" style="stroke-width: 1; stroke: rgb(153, 0, 0); stroke-opacity: 1; fill: rgb(153, 0, 0); fill-opacity: 0.55;"/></g><g class="composite-shape"><defs><!-- react-text: 46180 --> <!-- /react-text --><pattern id="_pgfhkf6bppjz" x="0" y="0" width="11.313708498984761" height="11.313708498984761" patternTransform="rotate(45,0,0)" patternUnits="userSpaceOnUse"><path d="M0,0 L0,11.313708498984761" style="stroke: rgb(0, 0, 0); stroke-opacity: 1; stroke-width: 1; fill: none;"/><path d="M5.656854249492381,0 L5.656854249492381,11.313708498984761" style="stroke: rgb(0, 0, 0); stroke-opacity: 1; stroke-width: 1; fill: none;"/><path d="M11.313708498984761,0 L11.313708498984761,11.313708498984761" style="stroke: rgb(0, 0, 0); stroke-opacity: 1; stroke-width: 1; fill: none;"/></pattern></defs><path class="real" d=" M-35.09,96.89 L464.91,96.89 L464.91,111.84 L-35.09,111.84 Z" style="stroke-width: 1; stroke: rgb(0, 0, 0); fill: url(&quot;#_pgfhkf6bppjz&quot;); fill-opacity: 1;"/></g><g class="composite-shape"><path class="real" d=" M251.65,66.32 L282.3,66.32 L282.3,96.98 L251.65,96.98 Z" style="stroke-width: 1; stroke: rgb(153, 0, 0); stroke-opacity: 1; fill: none; fill-opacity: 1; stroke-dasharray: 3;"/></g><g class="composite-shape"><path class="real" d=" M229.06,74.39 L251.65,74.39 L251.65,96.98 L229.06,96.98 Z" style="stroke-width: 1; stroke: rgb(153, 0, 0); stroke-opacity: 1; fill: none; fill-opacity: 1; stroke-dasharray: 3;"/></g><g class="arrow-line"><path class="connection real" stroke-dasharray="" d="  M206.8,80 L281.09,80" style="stroke: rgb(0, 0, 0); stroke-opacity: 1; stroke-width: 1; fill: none; fill-opacity: 1;"/><g stroke="rgb(0,0,0)" stroke-opacity="1" transform="matrix(-1,1.2246467991473532e-16,-1.2246467991473532e-16,-1,283.0908966064453,80)" style="stroke: rgb(0, 0, 0); stroke-width: 1;"><path d=" M10.93,-3.29 Q4.96,-0.45 0,0 Q4.96,0.45 10.93,3.29"/></g><g stroke="rgb(0,0,0)" stroke-opacity="1" transform="matrix(1,0,0,1,204.80466604002208,80)" style="stroke: rgb(0, 0, 0); stroke-width: 1;"><path d=" M10.93,-3.29 Q4.96,-0.45 0,0 Q4.96,0.45 10.93,3.29"/></g></g><g class="arrow-line"><path class="connection real" stroke-dasharray="" d="  M11.14,37.11 L11.14,94.89" style="stroke: rgb(153, 0, 0); stroke-opacity: 1; stroke-width: 1; fill: none; fill-opacity: 1;"/><g stroke="rgb(153,0,0)" stroke-opacity="1" transform="matrix(-1.8369701987210297e-16,-1,1,-1.8369701987210297e-16,11.137355776135195,96.88650816722756)" style="stroke: rgb(153, 0, 0); stroke-width: 1;"><path d=" M10.93,-3.29 Q4.96,-0.45 0,0 Q4.96,0.45 10.93,3.29"/></g><g stroke="rgb(153,0,0)" stroke-opacity="1" transform="matrix(6.123233995736766e-17,1,-1,6.123233995736766e-17,11.137355776135195,35.11047262704328)" style="stroke: rgb(153, 0, 0); stroke-width: 1;"><path d=" M10.93,-3.29 Q4.96,-0.45 0,0 Q4.96,0.45 10.93,3.29"/></g></g><g/></g><g/><g/><g/></svg>
        <svg xmlns="http://www.w3.org/2000/svg" xmlns:xlink="http://www.w3.org/1999/xlink" width="325" height="108.93182373046875" style="width:325px;height:108.93182373046875px;font-family:Asana-Math, Asana;background:transparent;"><g><g><g><g transform="matrix(1,0,0,1,286.727294921875,84.53182373046874)"><path transform="matrix(0.0136,0,0,-0.0136,0,0)" d="M263 689C108 689 29 566 29 324C29 207 50 106 85 57C120 8 176 -20 238 -20C389 -20 465 110 465 366C465 585 400 689 263 689ZM245 654C342 654 381 556 381 316C381 103 343 15 251 15C154 15 113 116 113 360C113 571 150 654 245 654ZM623 111C593 111 566 83 566 53C566 23 593 -5 622 -5C654 -5 682 22 682 53C682 83 654 111 623 111ZM1207 253C1207 366 1126 446 1012 446C964 446 928 443 875 396L875 605L1180 604L1180 689L823 690L823 322L843 316C890 363 917 377 966 377C1062 377 1122 309 1122 201C1122 90 1058 25 949 25C895 25 845 43 831 69L785 151L761 137C784 80 796 48 810 4C838 -11 878 -20 921 -20C1049 -20 1207 89 1207 253ZM1656 603L1294 -1L1404 -1L1744 659L1744 689L1291 689L1291 477L1321 477L1328 533C1336 595 1343 603 1389 603ZM2476 103L2450 86C2421 67 2399 56 2389 56C2382 56 2376 65 2376 76C2376 86 2378 95 2383 116L2458 413C2462 430 2465 446 2465 454C2465 471 2455 482 2439 482C2410 482 2372 464 2311 421C2248 376 2213 341 2164 272L2194 409C2198 429 2201 444 2201 451C2201 470 2191 482 2175 482C2145 482 2099 460 2044 418C2000 384 1980 363 1915 275L1948 408C1952 424 1954 439 1954 451C1954 470 1945 482 1931 482C1910 482 1872 461 1798 408L1770 388L1777 368C1814 391 1849 414 1856 414C1867 414 1874 404 1874 389C1874 338 1833 145 1792 2L1795 -9L1863 6L1885 108C1909 219 1936 278 1991 338C2033 384 2078 414 2106 414C2113 414 2117 406 2117 393C2117 358 2095 244 2054 69L2038 2L2043 -9L2112 6L2133 113C2149 194 2183 269 2227 318C2282 379 2332 414 2364 414C2372 414 2377 405 2377 389C2377 365 2374 351 2352 264C2312 105 2296 84 2296 31C2296 6 2307 -9 2326 -9C2352 -9 2388 12 2486 85Z" stroke="rgb(0,0,0)" stroke-opacity="1" stroke-width="8" fill="rgb(0,0,0)" fill-opacity="1"></path></g></g></g></g><g><g><g><g transform="matrix(1,0,0,1,14.727294921875,74.07727966308593)"><path transform="matrix(0.0136,0,0,-0.0136,0,0)" d="M263 689C108 689 29 566 29 324C29 207 50 106 85 57C120 8 176 -20 238 -20C389 -20 465 110 465 366C465 585 400 689 263 689ZM245 654C342 654 381 556 381 316C381 103 343 15 251 15C154 15 113 116 113 360C113 571 150 654 245 654ZM623 111C593 111 566 83 566 53C566 23 593 -5 622 -5C654 -5 682 22 682 53C682 83 654 111 623 111ZM879 331C900 512 989 611 1169 665L1127 689C1031 657 990 637 939 593C836 506 780 384 780 247C780 82 860 -20 989 -20C1119 -20 1216 83 1216 219C1216 334 1147 409 1041 409C964 409 932 370 879 331ZM1003 349C1079 349 1130 283 1130 184C1130 80 1079 13 1002 13C917 13 871 86 871 220C871 255 875 274 886 291C908 325 955 349 1003 349ZM1706 253C1706 366 1625 446 1511 446C1463 446 1427 443 1374 396L1374 605L1679 604L1679 689L1322 690L1322 322L1342 316C1389 363 1416 377 1465 377C1561 377 1621 309 1621 201C1621 90 1557 25 1448 25C1394 25 1344 43 1330 69L1284 151L1260 137C1283 80 1295 48 1309 4C1337 -11 1377 -20 1420 -20C1548 -20 1706 89 1706 253ZM2476 103L2450 86C2421 67 2399 56 2389 56C2382 56 2376 65 2376 76C2376 86 2378 95 2383 116L2458 413C2462 430 2465 446 2465 454C2465 471 2455 482 2439 482C2410 482 2372 464 2311 421C2248 376 2213 341 2164 272L2194 409C2198 429 2201 444 2201 451C2201 470 2191 482 2175 482C2145 482 2099 460 2044 418C2000 384 1980 363 1915 275L1948 408C1952 424 1954 439 1954 451C1954 470 1945 482 1931 482C1910 482 1872 461 1798 408L1770 388L1777 368C1814 391 1849 414 1856 414C1867 414 1874 404 1874 389C1874 338 1833 145 1792 2L1795 -9L1863 6L1885 108C1909 219 1936 278 1991 338C2033 384 2078 414 2106 414C2113 414 2117 406 2117 393C2117 358 2095 244 2054 69L2038 2L2043 -9L2112 6L2133 113C2149 194 2183 269 2227 318C2282 379 2332 414 2364 414C2372 414 2377 405 2377 389C2377 365 2374 351 2352 264C2312 105 2296 84 2296 31C2296 6 2307 -9 2326 -9C2352 -9 2388 12 2486 85Z" stroke="rgb(153,0,0)" stroke-opacity="1" stroke-width="8" fill="rgb(153,0,0)" fill-opacity="1"></path></g></g></g></g><g><g><g><g transform="matrix(1,0,0,1,47.727294921875,26.07727966308594)"><path transform="matrix(0.0136,0,0,-0.0136,0,0)" d="M16 23L16 -3C203 -3 203 0 239 0C275 0 275 -3 468 -3L468 82C353 77 307 81 122 77L304 270C401 373 431 428 431 503C431 618 353 689 226 689C154 689 105 669 56 619L39 483L68 483L81 529C97 587 133 612 200 612C286 612 341 558 341 473C341 398 299 324 186 204ZM623 111C593 111 566 83 566 53C566 23 593 -5 622 -5C654 -5 682 22 682 53C682 83 654 111 623 111ZM1011 689C856 689 777 566 777 324C777 207 798 106 833 57C868 8 924 -20 986 -20C1137 -20 1213 110 1213 366C1213 585 1148 689 1011 689ZM993 654C1090 654 1129 556 1129 316C1129 103 1091 15 999 15C902 15 861 116 861 360C861 571 898 654 993 654ZM1487 722L1475 733C1423 707 1387 698 1315 691L1311 670L1359 670C1383 670 1393 663 1393 646C1393 638 1392 629 1391 622L1343 354C1329 279 1313 210 1261 1L1270 -9L1337 8L1360 132C1369 180 1393 225 1427 259C1496 59 1528 -9 1553 -9C1566 -9 1590 4 1634 35L1680 67L1672 86L1629 62C1615 54 1608 52 1600 52C1590 52 1583 58 1574 75C1539 139 1517 193 1478 316L1492 330C1553 391 1599 416 1649 416C1657 416 1668 414 1685 410L1702 473C1684 479 1666 482 1654 482C1588 482 1505 405 1380 230ZM1990 482C1923 482 1770 419 1770 259C1770 182 1815 136 1892 136C1900 136 1911 136 1922 137L1881 99C1865 84 1854 66 1854 52C1854 42 1861 31 1875 19C1806 -4 1678 -48 1678 -159C1678 -230 1748 -276 1857 -276C1986 -276 2099 -204 2099 -121C2099 -85 2078 -49 2035 -14L1975 35C1941 62 1928 81 1928 100C1928 114 1943 128 1955 146C2053 170 2124 253 2124 342C2124 357 2121 376 2120 380C2137 378 2145 378 2154 378C2171 378 2181 379 2204 382L2213 427L2210 433C2182 426 2162 424 2108 424C2108 425 2084 482 1990 482ZM1891 1L1968 -58C2014 -94 2033 -121 2033 -154C2033 -206 1964 -248 1881 -248C1799 -248 1742 -206 1742 -145C1742 -43 1852 -11 1891 1ZM1965 448C2023 448 2052 412 2052 341C2052 238 2004 168 1934 168C1873 168 1841 209 1841 288C1841 383 1892 448 1965 448Z" stroke="rgb(153,0,0)" stroke-opacity="1" stroke-width="8" fill="rgb(153,0,0)" fill-opacity="1"></path></g></g></g></g><g><g><g><g transform="matrix(1,0,0,1,175.227294921875,59.07727966308594)"><path transform="matrix(0.0136,0,0,-0.0136,0,0)" d="M462 224C462 345 355 366 308 374C388 436 418 482 418 541C418 630 344 689 233 689C165 689 120 670 72 622L43 498L74 498L92 554C103 588 166 622 218 622C283 622 336 569 336 506C336 431 277 368 206 368C198 368 187 369 174 370L159 371L147 318L154 312C192 329 211 334 238 334C321 334 369 281 369 190C369 88 308 21 215 21C169 21 128 36 98 64C74 86 61 109 42 163L15 153C36 92 44 56 50 6C103 -12 147 -20 184 -20C307 -20 462 87 462 224ZM623 111C593 111 566 83 566 53C566 23 593 -5 622 -5C654 -5 682 22 682 53C682 83 654 111 623 111ZM1207 253C1207 366 1126 446 1012 446C964 446 928 443 875 396L875 605L1180 604L1180 689L823 690L823 322L843 316C890 363 917 377 966 377C1062 377 1122 309 1122 201C1122 90 1058 25 949 25C895 25 845 43 831 69L785 151L761 137C784 80 796 48 810 4C838 -11 878 -20 921 -20C1049 -20 1207 89 1207 253ZM1487 722L1475 733C1423 707 1387 698 1315 691L1311 670L1359 670C1383 670 1393 663 1393 646C1393 638 1392 629 1391 622L1343 354C1329 279 1313 210 1261 1L1270 -9L1337 8L1360 132C1369 180 1393 225 1427 259C1496 59 1528 -9 1553 -9C1566 -9 1590 4 1634 35L1680 67L1672 86L1629 62C1615 54 1608 52 1600 52C1590 52 1583 58 1574 75C1539 139 1517 193 1478 316L1492 330C1553 391 1599 416 1649 416C1657 416 1668 414 1685 410L1702 473C1684 479 1666 482 1654 482C1588 482 1505 405 1380 230ZM1990 482C1923 482 1770 419 1770 259C1770 182 1815 136 1892 136C1900 136 1911 136 1922 137L1881 99C1865 84 1854 66 1854 52C1854 42 1861 31 1875 19C1806 -4 1678 -48 1678 -159C1678 -230 1748 -276 1857 -276C1986 -276 2099 -204 2099 -121C2099 -85 2078 -49 2035 -14L1975 35C1941 62 1928 81 1928 100C1928 114 1943 128 1955 146C2053 170 2124 253 2124 342C2124 357 2121 376 2120 380C2137 378 2145 378 2154 378C2171 378 2181 379 2204 382L2213 427L2210 433C2182 426 2162 424 2108 424C2108 425 2084 482 1990 482ZM1891 1L1968 -58C2014 -94 2033 -121 2033 -154C2033 -206 1964 -248 1881 -248C1799 -248 1742 -206 1742 -145C1742 -43 1852 -11 1891 1ZM1965 448C2023 448 2052 412 2052 341C2052 238 2004 168 1934 168C1873 168 1841 209 1841 288C1841 383 1892 448 1965 448Z" stroke="rgb(153,0,0)" stroke-opacity="1" stroke-width="8" fill="rgb(153,0,0)" fill-opacity="1"></path></g></g></g></g><g><g><g><g transform="matrix(1,0,0,1,111.727294921875,93.6)"><path transform="matrix(0.0136,0,0,-0.0136,0,0)" stroke="rgb(0,0,0)" stroke-opacity="1" stroke-width="8" fill="rgb(0,0,0)" fill-opacity="1"></path></g></g></g></g></svg>
</svg>
